<?xml version="1.0" standalone="no"?>
<!DOCTYPE svg PUBLIC "-//W3C//DTD SVG 1.1//EN" "http://www.w3.org/Graphics/SVG/1.1/DTD/svg11.dtd" >
<svg xmlns="http://www.w3.org/2000/svg" xmlns:xlink="http://www.w3.org/1999/xlink" version="1.1">
<metadata>
Created by FontForge 20161003 at Mon May  1 05:08:39 2017
 By www-data
Copyright (c) 2016 Dubai Executive Council. All rights reserved.
</metadata>
<defs>
<font id="DubaiRegular" horiz-adv-x="0" >
  <font-face 
    font-family="DubaiRegular"
    font-weight="400"
    font-stretch="normal"
    units-per-em="1000"
    panose-1="2 11 5 3 3 4 3 3 2 4"
    ascent="800"
    descent="-200"
    x-height="438"
    cap-height="648"
    bbox="-650 -507 1330 1097"
    underline-thickness="50"
    underline-position="-150"
    unicode-range="U+000D-FEFF"
  />
<missing-glyph horiz-adv-x="540" 
d="M80 0v688h380v-688h-380zM156 72h227v544h-227v-544z" />
    <glyph glyph-name="fi" unicode="fi" horiz-adv-x="554" 
d="M100 529q0 75 42 119.5t115 44.5q53 0 98 -25l-32 -62q-27 15 -62 15q-75 0 -75 -90v-93h131l-9 -68h-122v-370h-86v370h-80v68h80v91zM440 650q26 0 44 -18t18 -44q0 -25 -18.5 -43t-43.5 -18t-43 18t-18 43t18 43.5t43 18.5zM398 0v438l86 10v-448h-86z" />
    <glyph glyph-name="fl" unicode="fl" horiz-adv-x="554" 
d="M398 688l86 10v-698h-86v688zM100 529q0 75 42 119.5t115 44.5q53 0 98 -25l-32 -62q-27 15 -62 15q-75 0 -75 -90v-93h116l-9 -68h-107v-370h-86v370h-80v68h80v91z" />
    <glyph glyph-name="uniFDF2" unicode="&#x627;&#xfedf;&#xfee0;&#xfeea;" horiz-adv-x="1241" arabic-form="isolated" 
d="M639 917v-123h-57v123h57zM550 613q-77 0 -77 78q0 21 8 49l47 2q-5 -27 -5 -42q0 -38 29 -38q18 0 26.5 16.5t9.5 59.5l46 3q-1 -16 -1 -39q0 -37 35 -37q29 0 29 37q0 28 -13 60l48 12q15 -41 15 -72q0 -37 -19.5 -62t-55.5 -25q-40 0 -60 25q-22 -27 -62 -27z
M1171 683l5 -4l-1 -669l-71 -15l-6 3v666zM865 664l70 18l8 -3v-494q0 -104 -49.5 -144.5t-149.5 -40.5h-7q-92 0 -127 59q-45 -59 -165 -59v1q-3 -1 -11 -1q-129 0 -161 80q-39 -9 -75 -9q-78 0 -123 30.5t-45 81.5q0 59 61 119t169 93v49l71 32l7 -2v-310q0 -54 25.5 -70
t92.5 -16h9q68 0 94 19q7 31 7 79v358l70 18l8 -3v-361q0 -70 27 -90t85 -20h8q68 0 94 19q7 31 7 79v488zM203 148q29 0 57 6v10v150q-67 -21 -112.5 -52.5t-53.5 -62.5q8 -25 41 -38t68 -13z" />
    <glyph glyph-name="uniFEF5" unicode="&#xfedf;&#xfe82;" horiz-adv-x="480" arabic-form="isolated" 
d="M413 465q0 -110 -53 -207q52 -74 52 -134q0 -66 -42 -95t-141 -29h-134l3 73q123 87 181 174q-74 79 -228 188l30 79l6 3q154 -121 227 -203q24 61 24 125q0 90 -30 206l70 37l7 -2q28 -140 28 -215zM178 587q-32 0 -61.5 12.5t-57.5 12.5q-36 0 -77 -26l-28 45
q50 41 99 41q31 0 65 -13t64 -13q24 0 44 8l19 -51q-33 -16 -67 -16zM356 100q1 42 -37 97q-48 -62 -126 -119h37q96 0 126 22z" />
    <glyph glyph-name="uniFEF6" unicode="&#xfee0;&#xfe82;" horiz-adv-x="575" arabic-form="final" 
d="M594 78q41 0 41 -27q0 -19 -13.5 -35t-47.5 -16q-150 0 -171 122q-102 -125 -298 -125l-34 71l4 6q152 2 246 65q-39 72 -99 139.5t-156 157.5l30 78l7 3q86 -79 158 -173.5t108 -164.5q19 20 31 41v444l72 18l6 -3v-505q0 -57 25.5 -76.5t90.5 -19.5zM197 587
q-32 0 -61.5 12.5t-57.5 12.5q-36 0 -77 -26l-28 45q50 41 99 41q30 0 64 -13t65 -13q24 0 44 8l19 -51q-33 -16 -67 -16z" />
    <glyph glyph-name="uniFEF7" unicode="&#xfedf;&#xfe84;" horiz-adv-x="479" arabic-form="isolated" 
d="M185 671l5 -51q-79 -10 -191 -14l-5 54q29 0 45 1q-18 28 -18 58q0 36 21.5 57.5t60.5 21.5q33 0 70 -14l-14 -52q-32 10 -47 10q-18 0 -27.5 -10.5t-9.5 -26.5q0 -23 19 -42q43 3 91 8zM412 465q0 -110 -53 -207q52 -74 52 -134q0 -66 -42 -95t-141 -29h-134l3 73
q123 87 181 174q-74 79 -228 188l30 79l6 3q154 -121 227 -203q24 61 24 125q0 90 -30 206l70 37l7 -2q28 -140 28 -215zM355 100q1 42 -37 97q-48 -62 -126 -119h37q96 0 126 22z" />
    <glyph glyph-name="uniFEF8" unicode="&#xfee0;&#xfe84;" horiz-adv-x="574" arabic-form="final" 
d="M204 671l5 -51q-79 -10 -191 -14l-5 54q29 0 45 1q-18 28 -18 58q0 36 21.5 57.5t60.5 21.5q33 0 70 -14l-14 -52q-32 10 -47 10q-18 0 -27.5 -10.5t-9.5 -26.5q0 -23 19 -42q43 3 91 8zM593 78q41 0 41 -27q0 -19 -13.5 -35t-47.5 -16q-150 0 -171 122
q-102 -125 -298 -125l-34 71l4 6q152 2 246 65q-39 72 -99 139.5t-156 157.5l30 78l7 3q86 -79 158 -173.5t108 -164.5q19 20 31 41v444l72 18l6 -3v-505q0 -57 25.5 -76.5t90.5 -19.5z" />
    <glyph glyph-name="uniFEF9" unicode="&#xfedf;&#xfe88;" horiz-adv-x="450" arabic-form="isolated" 
d="M383 465q0 -110 -53 -207q52 -74 52 -134q0 -66 -42 -95t-141 -29h-134l3 73q123 87 181 174q-74 79 -228 188l30 79l6 3q154 -121 227 -203q24 61 24 125q0 90 -30 206l70 37l7 -2q28 -140 28 -215zM326 100q1 42 -37 97q-48 -62 -126 -119h37q96 0 126 22zM149 -196
q41 3 90 8l5 -51q-79 -10 -191 -14l-5 54q30 0 45 1q-18 28 -18 59q0 36 21.5 57.5t60.5 21.5q33 0 70 -14l-14 -53q-30 11 -47 11q-18 0 -27.5 -11t-9.5 -27q0 -24 20 -42z" />
    <glyph glyph-name="uniFEFA" unicode="&#xfee0;&#xfe88;" horiz-adv-x="527" arabic-form="final" 
d="M546 78q41 0 41 -27q0 -19 -13.5 -35t-47.5 -16q-150 0 -171 122q-102 -125 -298 -125l-34 71l4 6q152 2 246 65q-39 72 -99 139.5t-156 157.5l30 78l7 3q86 -79 158 -173.5t108 -164.5q19 20 31 41v444l72 18l6 -3v-505q0 -57 25.5 -76.5t90.5 -19.5zM154 -196
q41 3 90 8l5 -51q-79 -10 -191 -14l-5 54q30 0 45 1q-18 28 -18 59q0 36 21.5 57.5t60.5 21.5q33 0 70 -14l-14 -53q-30 11 -47 11q-18 0 -27.5 -11t-9.5 -27q0 -24 20 -42z" />
    <glyph glyph-name="uniFEFB" unicode="&#xfedf;&#xfe8e;" horiz-adv-x="450" arabic-form="isolated" 
d="M383 465q0 -110 -53 -207q52 -74 52 -134q0 -66 -42 -95t-141 -29h-134l3 73q123 87 181 174q-74 79 -228 188l30 79l6 3q154 -121 227 -203q24 61 24 125q0 90 -30 206l70 37l7 -2q28 -140 28 -215zM326 100q1 42 -37 97q-48 -62 -126 -119h37q96 0 126 22z" />
    <glyph glyph-name="uniFEFC" unicode="&#xfee0;&#xfe8e;" horiz-adv-x="527" arabic-form="final" 
d="M546 78q41 0 41 -27q0 -19 -13.5 -35t-47.5 -16q-150 0 -171 122q-102 -125 -298 -125l-34 71l4 6q152 2 246 65q-39 72 -99 139.5t-156 157.5l30 78l7 3q86 -79 158 -173.5t108 -164.5q19 20 31 41v444l72 18l6 -3v-505q0 -57 25.5 -76.5t90.5 -19.5z" />
    <glyph glyph-name="uni06440671" unicode="&#xfedf;&#xfb51;" horiz-adv-x="476" 
d="M110 598q-58 0 -90 16q-20 -15 -50 -15l8 31q17 0 28 9q5 7 18 43l34 5l2 -2q-10 -29 -21 -48l19 -3q32 40 49.5 56t37.5 16t34 -15.5t14 -35.5q0 -57 -83 -57zM411 465q0 -110 -53 -207q52 -74 52 -134q0 -66 -42 -95t-141 -29h-134l3 73q123 87 181 174
q-74 79 -228 188l30 79l6 3q154 -121 227 -203q24 61 24 125q0 90 -30 206l70 37l7 -2q28 -140 28 -215zM143 672q-16 0 -52 -41h19q40 0 50 5q4 16 -1 26t-16 10zM354 100q1 42 -37 97q-48 -62 -126 -119h37q96 0 126 22z" />
    <glyph glyph-name="uni06440671.fina" unicode="&#xfee0;&#xfb51;" horiz-adv-x="573" 
d="M129 598q-58 0 -90 16q-19 -15 -50 -15l8 31q17 0 28 9q5 7 18 43l34 5l2 -2q-11 -29 -21 -48l19 -3q32 40 49.5 56t37.5 16t34 -15.5t14 -35.5q0 -57 -83 -57zM592 78q41 0 41 -27q0 -19 -13.5 -35t-47.5 -16q-150 0 -171 122q-102 -125 -298 -125l-34 71l4 6
q152 2 246 65q-39 72 -99 139.5t-156 157.5l30 78l7 3q86 -79 158 -173.5t108 -164.5q19 20 31 41v444l72 18l6 -3v-505q0 -57 25.5 -76.5t90.5 -19.5zM162 672q-16 0 -52 -41h19q40 0 50 5q4 16 -1 26t-16 10z" />
    <glyph glyph-name="uni066E.init" unicode="&#x66e;" horiz-adv-x="277" 
d="M0 0l20 78h9q80 0 105 12q6 15 6 34t-3 34.5t-13 41.5t-16 40t-20 45l68 51h9q52 -109 52 -180q0 -73 -49 -122q-20 -19 -54 -26.5t-104 -7.5h-10z" />
    <glyph glyph-name="uni066E.medi" unicode="&#x66e;" horiz-adv-x="316" 
d="M336 78q40 0 40 -27q0 -19 -13 -35t-47 -16q-90 0 -145 49q-49 -49 -150 -49h-21l20 78h22q59 0 84 19q19 27 48 152l77 19l10 -6q-22 -100 -48 -153q49 -31 123 -31z" />
    <glyph glyph-name="uni066E.fina" unicode="&#x66e;" horiz-adv-x="870" 
d="M890 78q40 0 40 -27q0 -19 -13 -35t-47 -16q-92 0 -146 50q-12 -10 -18 -14q-32 -20 -109.5 -33.5t-145.5 -13.5h-68q-170 0 -254 42.5t-84 141.5q0 66 16 112l59 22l8 -4q-10 -50 -10 -91q0 -44 18 -73t56.5 -44.5t88.5 -21.5t123 -6h70q52 0 116 8t90 21q23 48 49 153
l77 19l10 -6q-23 -96 -50 -152q48 -32 124 -32z" />
    <glyph glyph-name="uni066F.fina" unicode="&#x66f;" horiz-adv-x="715" 
d="M734 78q41 0 41 -27q0 -19 -13.5 -35t-47.5 -16h-69q-48 -186 -329 -186q-131 0 -201 54.5t-70 142.5q0 59 16 111l63 22l9 -4q-11 -49 -11 -91q0 -76 48 -116.5t164 -40.5q90 0 153.5 26t86.5 64q1 3 2.5 9t2.5 9h-41q-91 0 -137 33t-46 89q0 74 44.5 137.5t103.5 63.5
q68 0 110 -71.5t42 -168.5v-5h79zM548 78h43v6q0 60 -27.5 110.5t-64.5 50.5q-28 0 -54 -34t-26 -76q0 -57 129 -57z" />
    <glyph glyph-name="uni06A1.init" unicode="&#x6a1;" horiz-adv-x="436" 
d="M224 456q68 0 110 -71.5t42 -168.5q0 -73 -13.5 -116.5t-47.5 -66.5q-38 -20 -103.5 -26.5t-211.5 -6.5l20 78q236 0 283 22q5 16 7 61q-54 -13 -105 -13q-64 0 -96 31t-32 86q0 70 44.5 130.5t102.5 60.5zM141 275q0 -50 80 -50q50 0 90 9q-4 56 -30.5 100t-60.5 44
q-30 0 -54.5 -31t-24.5 -72z" />
    <glyph glyph-name="uni06A1.medi" unicode="&#x6a1;" horiz-adv-x="443" 
d="M462 78q41 0 41 -27q0 -19 -13.5 -35t-47.5 -16h-63q-73 0 -148 28q-77 -28 -180 -28h-51l20 78h95q18 0 26 1q-57 49 -57 110q0 67 49 124t110 57q52 0 93 -48.5t41 -104.5q0 -82 -55 -134q37 -5 71 -5h69zM149 202q0 -28 23 -53.5t64 -42.5q75 38 75 100q0 32 -25.5 59
t-53.5 27q-30 0 -56.5 -29t-26.5 -61z" />
    <glyph glyph-name="uni06A1.fina" unicode="&#x6a1;" horiz-adv-x="959" 
d="M978 78q41 0 41 -27q0 -19 -13.5 -35t-47.5 -16h-70q-78 0 -150 26q-96 -37 -287 -37h-68q-170 0 -254 42.5t-84 141.5q0 66 16 112l59 22l8 -4q-10 -50 -10 -91q0 -44 18 -73t56.5 -44.5t88.5 -21.5t123 -6h70q102 0 172 12q-54 47 -54 111q0 66 49 123t110 57
q53 0 94 -48.5t41 -104.5q0 -78 -56 -134q37 -5 71 -5h77zM741 292q-31 0 -57.5 -29t-26.5 -61q0 -58 86 -96q76 37 76 100q0 32 -25.5 59t-52.5 27z" />
    <glyph glyph-name="uni06C2.fina" unicode="&#x6c2;" horiz-adv-x="460" 
d="M144 432l-5 54q29 0 45 1q-18 28 -18 58q0 36 21.5 57.5t60.5 21.5q33 0 70 -14l-14 -52q-32 10 -47 10q-18 0 -27.5 -10.5t-9.5 -26.5q0 -23 19 -42q43 3 91 8l5 -51q-79 -10 -191 -14zM480 78q40 0 40 -28q0 -11 -3.5 -21t-18 -19.5t-38.5 -9.5q-42 0 -74.5 19.5
t-52 46.5t-35.5 54.5t-32.5 47t-35.5 19.5q-41 0 -81.5 -30.5t-71.5 -77.5h-7l-41 46q35 56 90.5 98t124.5 42q30 0 53.5 -19.5t40.5 -46.5t34.5 -54.5t45 -47t62.5 -19.5z" />
    <glyph glyph-name="uni06C3.fina" unicode="&#x6c3;" horiz-adv-x="460" 
d="M185 379l-81 57l49 76l81 -56zM324 379l-81 57l51 76l81 -56zM460 0q-42 0 -74.5 19.5t-52 46.5t-35.5 54.5t-32.5 47t-35.5 19.5q-41 0 -81.5 -30.5t-71.5 -77.5h-7l-41 46q35 56 90.5 98t124.5 42q30 0 53.5 -19.5t40.5 -46.5t34.5 -54.5t45 -47t62.5 -19.5
q40 0 40 -28q0 -11 -3.5 -21t-18 -19.5t-38.5 -9.5z" />
    <glyph glyph-name="uniFB51" unicode="&#x671;" horiz-adv-x="240" arabic-form="final" 
d="M116 738q-58 0 -90 16q-20 -15 -50 -15l8 31q17 0 28 9q5 7 18 43l34 5l2 -2q-10 -29 -21 -48l19 -3q32 40 49.5 56t37.5 16t34 -15.5t14 -35.5q0 -57 -83 -57zM149 812q-16 0 -52 -41h19q40 0 50 5q4 16 -1 26t-16 10zM259 78q41 0 41 -27q0 -19 -13.5 -35t-47.5 -16
q-82 0 -128 37t-46 128v499l72 18l6 -3v-505q0 -57 25.5 -76.5t90.5 -19.5z" />
    <glyph glyph-name="uniFB57" unicode="&#x67e;" horiz-adv-x="870" arabic-form="final" 
d="M890 78q40 0 40 -27q0 -19 -13 -35t-47 -16q-92 0 -146 50q-12 -10 -18 -14q-32 -20 -109.5 -33.5t-145.5 -13.5h-68q-170 0 -254 42.5t-84 141.5q0 66 16 112l59 22l8 -4q-10 -50 -10 -91q0 -44 18 -73t56.5 -44.5t88.5 -21.5t123 -6h70q52 0 116 8t90 21q23 48 49 153
l77 19l10 -6q-23 -96 -50 -152q48 -32 124 -32zM405 -143l-51 -76l-81 56l51 77zM418 -163l48 77l82 -57l-50 -76zM352 -261l51 78l81 -58l-50 -75z" />
    <glyph glyph-name="uniFB58" unicode="&#x67e;" horiz-adv-x="297" arabic-form="initial" 
d="M0 0l20 78h29q80 0 105 12q6 24 7.5 41.5t-7.5 47t-17.5 52t-23.5 54.5l63 51h9q52 -119 52 -180q0 -33 -13 -67t-36 -55q-20 -19 -54 -26.5t-104 -7.5h-30zM93 -208l-81 56l51 77l81 -57zM237 -208l-80 56l48 77l82 -57zM173 -305l-82 55l51 78l81 -58z" />
    <glyph glyph-name="uniFB59" unicode="&#x67e;" horiz-adv-x="337" arabic-form="medial" 
d="M357 78q40 0 40 -27q0 -19 -13 -35t-47 -16q-108 0 -164 48q-47 -48 -139 -48h-34l20 78h30q51 0 76 19q19 31 48 152l77 19l10 -6q-23 -104 -47 -153q51 -31 143 -31zM172 -132l-51 -76l-81 56l51 77zM185 -152l48 77l82 -57l-50 -76zM119 -250l51 78l81 -58l-50 -75z
" />
    <glyph glyph-name="uniFB67" unicode="&#x679;" horiz-adv-x="870" arabic-form="final" 
d="M441 383q-66 0 -110 2l-17 44l3 6h35q6 8 18 22v173h49v-115q42 42 78 42q32 0 54.5 -25t22.5 -56q0 -93 -133 -93zM494 505q-17 0 -36 -16t-54 -55h37q64 0 84 8q7 24 -3 43.5t-28 19.5zM890 78q40 0 40 -27q0 -19 -13 -35t-47 -16q-92 0 -146 50q-12 -10 -18 -14
q-32 -20 -109.5 -33.5t-145.5 -13.5h-68q-170 0 -254 42.5t-84 141.5q0 66 16 112l59 22l8 -4q-10 -50 -10 -91q0 -44 18 -73t56.5 -44.5t88.5 -21.5t123 -6h70q52 0 116 8t90 21q23 48 49 153l77 19l10 -6q-23 -96 -50 -152q48 -32 124 -32z" />
    <glyph glyph-name="uniFB68" unicode="&#x679;" horiz-adv-x="297" arabic-form="initial" 
d="M204 626q32 0 54.5 -25t22.5 -56q0 -93 -133 -93q-66 0 -110 2l-17 44l3 6h35q6 8 18 22v173h49v-115q42 42 78 42zM232 511q7 24 -3 43.5t-28 19.5q-17 0 -36 -16t-54 -55h37q64 0 84 8zM176 336h9q52 -119 52 -180q0 -33 -13 -67t-36 -55q-20 -19 -54 -26.5t-104 -7.5
h-30l20 78h29q80 0 105 12q6 24 7.5 41.5t-7.5 47t-17.5 52t-23.5 54.5z" />
    <glyph glyph-name="uniFB69" unicode="&#x679;" horiz-adv-x="337" arabic-form="medial" 
d="M208 386q-66 0 -110 2l-17 44l3 6h35q6 8 18 22v173h49v-115q42 42 78 42q32 0 54.5 -25t22.5 -56q0 -93 -133 -93zM261 508q-17 0 -36 -16t-54 -55h37q64 0 84 8q7 24 -3 43.5t-28 19.5zM357 78q40 0 40 -27q0 -19 -13 -35t-47 -16q-108 0 -164 48q-47 -48 -139 -48h-34
l20 78h30q51 0 76 19q19 31 48 152l77 19l10 -6q-23 -104 -47 -153q51 -31 143 -31z" />
    <glyph glyph-name="uniFB6B" unicode="&#x6a4;" horiz-adv-x="959" arabic-form="final" 
d="M801 674l-50 -78l-82 58l51 75zM740 560l-49 -77l-81 57l49 76zM832 483l-81 57l51 76l81 -56zM978 78q41 0 41 -27q0 -19 -13.5 -35t-47.5 -16h-70q-78 0 -150 26q-96 -37 -287 -37h-68q-170 0 -254 42.5t-84 141.5q0 66 16 112l59 22l8 -4q-10 -50 -10 -91
q0 -44 18 -73t56.5 -44.5t88.5 -21.5t123 -6h70q102 0 172 12q-54 47 -54 111q0 66 49 123t110 57q53 0 94 -48.5t41 -104.5q0 -78 -56 -134q37 -5 71 -5h77zM741 292q-31 0 -57.5 -29t-26.5 -61q0 -58 86 -96q76 37 76 100q0 32 -25.5 59t-52.5 27z" />
    <glyph glyph-name="uniFB6C" unicode="&#x6a4;" horiz-adv-x="436" arabic-form="initial" 
d="M276 756l-50 -78l-82 58l51 75zM215 642l-49 -77l-81 57l49 76zM307 565l-81 57l51 76l81 -56zM224 456q68 0 110 -71.5t42 -168.5q0 -73 -13.5 -116.5t-47.5 -66.5q-38 -20 -103.5 -26.5t-211.5 -6.5l20 78q236 0 283 22q5 16 7 61q-54 -13 -105 -13q-64 0 -96 31
t-32 86q0 70 44.5 130.5t102.5 60.5zM141 275q0 -50 80 -50q50 0 90 9q-4 56 -30.5 100t-60.5 44q-30 0 -54.5 -31t-24.5 -72z" />
    <glyph glyph-name="uniFB6D" unicode="&#x6a4;" horiz-adv-x="443" arabic-form="medial" 
d="M294 675l-50 -78l-82 58l51 75zM233 561l-49 -77l-81 57l49 76zM325 484l-81 57l51 76l81 -56zM462 78q41 0 41 -27q0 -19 -13.5 -35t-47.5 -16h-63q-73 0 -148 28q-77 -28 -180 -28h-51l20 78h95q18 0 26 1q-57 49 -57 110q0 67 49 124t110 57q52 0 93 -48.5t41 -104.5
q0 -82 -55 -134q37 -5 71 -5h69zM149 202q0 -28 23 -53.5t64 -42.5q75 38 75 100q0 32 -25.5 59t-53.5 27q-30 0 -56.5 -29t-26.5 -61z" />
    <glyph glyph-name="uniFB7B" unicode="&#x686;" horiz-adv-x="689" arabic-form="final" 
d="M709 78q40 0 40 -27q0 -19 -13 -35t-47 -16q-93 0 -150 40t-90 139q-149 -32 -240 -121t-91 -194q0 -95 77.5 -148.5t208.5 -53.5q99 0 200 32l6 -7l-22 -63q-30 -18 -87.5 -29t-115.5 -11q-150 0 -245 70.5t-95 186.5q0 121 87.5 222.5t219.5 162.5q-14 3 -34 9
q-88 24 -141 24q-56 0 -124 -20l-3 4l30 73q40 20 103 20q47 0 128 -23q143 -40 286 -40l-20 -80q-31 0 -59 -3q25 -60 70 -86t121 -26zM246 -83l50 77l81 -57l-50 -75zM523 -63l-50 -75l-79 55l48 77zM459 -176l-50 -74l-81 54l51 78z" />
    <glyph glyph-name="uniFB7C" unicode="&#x686;" horiz-adv-x="587" arabic-form="initial" 
d="M360 269q128 -69 193 -73l-19 -72q-116 -14 -270 -67q-167 -57 -264 -57l19 78q85 0 225 44q94 30 159 42q-36 16 -70 36q-102 59 -166 59q-45 0 -100 -19l-3 4l30 72q42 20 88 20q55 0 178 -67zM251 -132l-51 -76l-81 56l51 77zM264 -152l48 77l82 -57l-50 -76z
M198 -250l51 78l81 -58l-50 -75z" />
    <glyph glyph-name="uniFB7D" unicode="&#x686;" horiz-adv-x="606" arabic-form="medial" 
d="M627 78q23 0 31 -7t8 -20q0 -51 -58 -51q-98 0 -150 23t-79 72q-51 -15 -114 -37q-97 -33 -153 -45.5t-112 -12.5l19 78q88 0 225 44q93 31 158 43q-29 13 -69 35q-108 59 -166 59q-47 0 -100 -20l-3 4l30 73q42 20 88 20q52 0 176 -65q130 -69 195 -73l-18 -72
q-47 -6 -75 -11q40 -37 167 -37zM251 -132l-51 -76l-81 56l51 77zM264 -152l48 77l82 -57l-50 -76zM198 -250l51 78l81 -58l-50 -75z" />
    <glyph glyph-name="uniFB89" unicode="&#x688;" horiz-adv-x="464" arabic-form="final" 
d="M226 544q-66 0 -110 2l-17 44l3 6h35q6 8 18 22v173h49v-115q42 42 78 42q32 0 54.5 -25t22.5 -56q0 -93 -133 -93zM279 666q-17 0 -36 -16t-54 -55h37q64 0 84 8q7 24 -3 43.5t-28 19.5zM482 78q42 0 42 -27q0 -19 -14 -35t-48 -16q-70 0 -106 53q-55 -58 -205 -58
q-65 0 -116 12l11 73l5 4q46 -10 109 -10q113 0 164 36l-3 5q-77 155 -132 249l59 62h8q77 -174 115 -252q29 -60 50.5 -78t60.5 -18z" />
    <glyph glyph-name="uniFB8B" unicode="&#x698;" horiz-adv-x="357" arabic-form="final" 
d="M242 617l-50 -78l-82 58l51 75zM181 503l-49 -77l-81 57l49 76zM273 426l-81 57l51 76l81 -56zM376 78q41 0 41 -27q0 -19 -13 -35t-47 -16q-54 0 -84 27q-24 -70 -103.5 -127t-195.5 -77l-42 58l4 8q249 47 284 193q-18 52 -77 168l58 62h10q4 -10 59 -154
q21 -51 39.5 -65.5t66.5 -14.5z" />
    <glyph glyph-name="uniFB8D" unicode="&#x691;" horiz-adv-x="357" arabic-form="final" 
d="M179 430q-66 0 -110 2l-17 44l3 6h35q6 8 18 22v173h49v-115q42 42 78 42q32 0 54.5 -25t22.5 -56q0 -93 -133 -93zM232 552q-17 0 -36 -16t-54 -55h37q64 0 84 8q7 24 -3 43.5t-28 19.5zM376 78q41 0 41 -27q0 -19 -13 -35t-47 -16q-54 0 -84 27q-24 -70 -103.5 -127
t-195.5 -77l-42 58l4 8q249 47 284 193q-18 52 -77 168l58 62h10q4 -10 59 -154q21 -51 39.5 -65.5t66.5 -14.5z" />
    <glyph glyph-name="uniFB8F" unicode="&#x6a9;" horiz-adv-x="944" arabic-form="final" 
d="M963 78q41 0 41 -27q0 -19 -13 -35t-47 -16q-78 0 -142 74q-24 -53 -100 -69t-251 -16h-68q-170 0 -254 42.5t-84 141.5q0 66 16 112l59 22l8 -4q-10 -50 -10 -91q0 -44 18 -73t56.5 -44.5t88.5 -21.5t123 -6h70q145 0 207 8.5t79 40.5q-39 71 -239 239l-4 6l22 102
l328 186l7 -3l-26 -98l-257 -144q135 -125 220 -220q37 -42 55 -60t43.5 -32t53.5 -14z" />
    <glyph glyph-name="uniFB90" unicode="&#x6a9;" horiz-adv-x="416" arabic-form="initial" 
d="M421 646l-26 -98l-259 -145q135 -88 181.5 -147t46.5 -113q0 -143 -269 -143h-95l19 78h75q74 0 132.5 12.5t77.5 28.5q0 53 -58.5 107t-176.5 129l-4 6l21 102l328 186z" />
    <glyph glyph-name="uniFB91" unicode="&#x6a9;" horiz-adv-x="492" arabic-form="medial" 
d="M511 78q41 0 41 -27q0 -19 -13 -35t-47 -16q-79 0 -142 74q-25 -46 -89 -60t-194 -14h-67l19 78h104q158 0 185 41q-47 75 -239 236l-4 6l21 102l328 186l7 -3l-26 -98l-256 -143q134 -126 220 -221q37 -42 55 -60t43.5 -32t53.5 -14z" />
    <glyph glyph-name="uniFB93" unicode="&#x6af;" horiz-adv-x="924" arabic-form="final" 
d="M857 721l-316 -181l-6 5l16 77l322 180l7 -3zM963 78q41 0 41 -27q0 -19 -13 -35t-47 -16q-78 0 -142 74q-24 -53 -100 -69t-251 -16h-68q-170 0 -254 42.5t-84 141.5q0 66 16 112l59 22l8 -4q-10 -50 -10 -91q0 -44 18 -73t56.5 -44.5t88.5 -21.5t123 -6h70
q145 0 207 8.5t79 40.5q-39 71 -239 239l-4 6l22 102l328 186l7 -3l-26 -98l-257 -144q135 -125 220 -220q37 -42 55 -60t43.5 -32t53.5 -14z" />
    <glyph glyph-name="uniFB94" unicode="&#x6af;" horiz-adv-x="416" arabic-form="initial" 
d="M438 802l7 -3l-23 -78l-316 -181l-6 5l16 77zM86 463l328 186l7 -3l-26 -98l-259 -145q135 -88 181.5 -147t46.5 -113q0 -143 -269 -143h-95l19 78h75q74 0 132.5 12.5t77.5 28.5q0 53 -58.5 107t-176.5 129l-4 6z" />
    <glyph glyph-name="uniFB95" unicode="&#x6af;" horiz-adv-x="491" arabic-form="medial" 
d="M424 721l-316 -181l-6 5l16 77l322 180l7 -3zM511 78q41 0 41 -27q0 -19 -13 -35t-47 -16q-79 0 -142 74q-25 -46 -89 -60t-194 -14h-67l19 78h104q158 0 185 41q-47 75 -239 236l-4 6l21 102l328 186l7 -3l-26 -98l-256 -143q134 -126 220 -221q37 -42 55 -60t43.5 -32
t53.5 -14z" />
    <glyph glyph-name="uniFB9F" unicode="&#x6ba;" horiz-adv-x="653" arabic-form="final" 
d="M663 78q50 0 50 -27q0 -11 -4 -21.5t-18.5 -20t-38.5 -9.5q-46 0 -81 26q-15 -104 -93 -158t-196 -54q-114 0 -175.5 56.5t-61.5 149.5q0 62 16 112l63 22l8 -4q-10 -50 -10 -92q0 -81 39 -123.5t136 -42.5q129 0 191 77q12 28 14 56t-7.5 62.5t-19.5 60t-30 71.5l70 49
h6q3 -8 13 -38t19 -54t18 -41q30 -57 92 -57z" />
    <glyph glyph-name="uniFBA7" unicode="&#x6c1;" horiz-adv-x="460" arabic-form="final" 
d="M460 0q-42 0 -74.5 19.5t-52 46.5t-35.5 54.5t-32.5 47t-35.5 19.5q-41 0 -81.5 -30.5t-71.5 -77.5h-7l-41 46q35 56 90.5 98t124.5 42q30 0 53.5 -19.5t40.5 -46.5t34.5 -54.5t45 -47t62.5 -19.5q40 0 40 -28q0 -11 -3.5 -21t-18 -19.5t-38.5 -9.5z" />
    <glyph glyph-name="uniFBA8" unicode="&#x6c1;" horiz-adv-x="272" arabic-form="initial" 
d="M0 0l20 78h9q80 0 105 12q6 15 6 34t-3 34.5t-13 41.5t-16 40t-20 45l68 51h9q52 -109 52 -180q0 -73 -49 -122q-20 -19 -54 -26.5t-104 -7.5h-10zM128 -161q-16 0 -28 12t-12 34q0 50 51 106l33 -21q-32 -41 -32 -56q0 -7 6 -10q23 -12 23 -32q0 -15 -11 -24t-30 -9z
" />
    <glyph glyph-name="uniFBA9" unicode="&#x6c1;" horiz-adv-x="530" arabic-form="medial" 
d="M549 78q41 0 41 -28q0 -11 -3.5 -21t-18 -19.5t-38.5 -9.5h-64q-55 0 -82.5 -43.5t-27.5 -117.5q0 -73 24 -154l-62 -24q-103 43 -159.5 119t-56.5 177q0 30 4 55q-41 -12 -106 -12l21 78q64 0 105 21t70 78l54 -22l3 -9q-25 -58 -64 -91q-12 -39 -12 -81q0 -75 38 -141
t98 -98q-20 74 -20 138q0 93 42.5 149t130.5 56h83z" />
    <glyph glyph-name="uniFBAB" unicode="&#x6be;" horiz-adv-x="505" arabic-form="final" 
d="M524 78q41 0 41 -28q0 -22 -16.5 -36t-43.5 -14h-67q32 -40 32 -89q0 -45 -37.5 -76.5t-90.5 -31.5q-87 0 -142 53t-60 142q-37 -6 -82 -36h-7l-31 55q39 53 126 60q24 132 125 254l50 43l7 1q66 -70 90.5 -109.5t24.5 -77.5q0 -28 -14 -59.5t-35 -50.5h130zM317 280
q-81 -106 -95 -204q66 0 105 28t39 76q0 40 -49 100zM404 -103q1 49 -35 78t-97 29q-29 0 -54 -10q7 -52 43 -83t90 -31q34 0 53 17z" />
    <glyph glyph-name="uniFBAC" unicode="&#x6be;" horiz-adv-x="533" arabic-form="initial" 
d="M130 426q170 -100 237 -155q121 -97 121 -179q0 -96 -140 -96q-88 0 -154 29q-61 -25 -148 -25h-46l19 78h98q-42 47 -42 109q0 41 20 80.5t54 58.5q-49 23 -51 24l25 74zM196 278q-23 0 -40 -26t-17 -58q0 -67 66 -99q46 30 46 94q0 36 -16.5 62.5t-38.5 26.5zM348 68
q59 0 72 15q-1 55 -107 138q2 -20 2 -32q0 -66 -46 -115q35 -6 79 -6z" />
    <glyph glyph-name="uniFBAD" unicode="&#x6be;" horiz-adv-x="428" arabic-form="medial" 
d="M447 78q41 0 41 -28q0 -22 -16.5 -36t-43.5 -14h-67q32 -40 32 -89q0 -45 -37.5 -76.5t-90.5 -31.5q-88 0 -143 53.5t-59 143.5h-63l19 78h50q23 131 125 253l50 43l7 1q66 -70 90.5 -109.5t24.5 -77.5q0 -28 -14 -59.5t-35 -50.5h130zM240 280q-81 -106 -95 -204
q66 0 105 28t39 76q0 40 -49 100zM327 -103q1 49 -35 78t-97 29q-29 0 -54 -10q7 -52 43 -83t90 -31q34 0 53 17z" />
    <glyph glyph-name="uniFBAF" unicode="&#x6d2;" horiz-adv-x="602" arabic-form="final" 
d="M565 -265q-285 0 -420 28t-135 102q0 102 91.5 157.5t263.5 55.5h256q25 0 33 -7t8 -21q0 -11 -3.5 -20.5t-18.5 -19.5t-40 -10h-235q-142 0 -217 -32.5t-75 -93.5q25 -27 174 -44.5t344 -17.5l3 -5z" />
    <glyph glyph-name="uniFBB1" unicode="&#x6d3;" horiz-adv-x="602" arabic-form="final" 
d="M87 245l-5 54q29 0 45 1q-18 28 -18 58q0 36 21.5 57.5t60.5 21.5q33 0 70 -14l-14 -52q-32 10 -47 10q-18 0 -27.5 -10.5t-9.5 -26.5q0 -23 19 -42q43 3 91 8l5 -51q-79 -10 -191 -14zM621 78q25 0 33 -7t8 -21q0 -11 -3.5 -20.5t-18.5 -19.5t-40 -10h-235
q-142 0 -217 -32.5t-75 -93.5q25 -27 174 -44.5t344 -17.5l3 -5l-29 -72q-285 0 -420 28t-135 102q0 102 91.5 157.5t263.5 55.5h256z" />
    <glyph glyph-name="uniFBFD" unicode="&#x6cc;" horiz-adv-x="738" arabic-form="final" 
d="M316 -186q-131 0 -201 54.5t-70 142.5q0 59 16 111l63 22l9 -4q-11 -49 -11 -91q0 -76 48 -116.5t164 -40.5q113 0 196 26.5t97 64.5q0 23 -36.5 41.5t-127.5 42.5l23 73q22 -6 87 -25.5t105.5 -28t79.5 -8.5q40 0 40 -28q0 -11 -4 -21t-18.5 -19.5t-38.5 -9.5h-39
q-11 -88 -114.5 -137t-267.5 -49z" />
    <glyph glyph-name="uniFBFE" unicode="&#x6cc;" horiz-adv-x="297" arabic-form="initial" 
d="M0 0l20 78h29q80 0 105 12q6 24 7.5 41.5t-7.5 47t-17.5 52t-23.5 54.5l63 51h9q52 -119 52 -180q0 -33 -13 -67t-36 -55q-20 -19 -54 -26.5t-104 -7.5h-30zM90 -209l-81 57l49 75l81 -55zM233 -209l-81 57l51 75l81 -55z" />
    <glyph glyph-name="uniFBFF" unicode="&#x6cc;" horiz-adv-x="337" arabic-form="medial" 
d="M357 78q40 0 40 -27q0 -19 -13 -35t-47 -16q-108 0 -164 48q-47 -48 -139 -48h-34l20 78h30q51 0 76 19q19 31 48 152l77 19l10 -6q-23 -104 -47 -153q51 -31 143 -31zM37 -152l49 75l81 -55l-49 -77zM180 -152l51 75l81 -55l-51 -77z" />
    <glyph glyph-name="uniFDFC" unicode="&#xfdfc;" horiz-adv-x="938" arabic-form="isolated" 
d="M597 130q-148 0 -148 124v279l58 16l3 -2v-284q0 -72 92 -72q25 0 47.5 7t28.5 17q3 19 -35 89l56 39h3q28 -66 28 -108q0 -41 -28 -69q-36 -36 -105 -36zM328 503l58 16l3 -2l-1 -436q0 -110 -48 -157.5t-135 -47.5q-92 0 -138.5 42.5t-46.5 111.5q0 31 9 67l56 8l4 -3
q-9 -36 -9 -66q0 -54 37 -76.5t90 -22.5q45 0 69 13.5t38 41.5q14 40 14 132v379zM837 195q51 -89 51 -138q0 -29 -15 -54q-50 -83 -179 -112l-19 55l1 4q70 13 111 43.5t41 61.5q0 33 -46 95l51 45h4zM513 48l35 50l54 -35l-33 -52zM702 63l-34 -52l-55 37l34 50z" />
    <glyph glyph-name="uniFE82" unicode="&#x622;" horiz-adv-x="240" arabic-form="final" 
d="M182 727q-32 0 -61.5 12.5t-57.5 12.5q-36 0 -77 -26l-28 45q50 41 99 41q31 0 65 -13t64 -13q24 0 44 8l19 -51q-33 -16 -67 -16zM239 0q-82 0 -128 37t-46 128v499l72 18l6 -3v-505q0 -57 25.5 -76.5t90.5 -19.5q41 0 41 -27q0 -19 -13.5 -35t-47.5 -16z" />
    <glyph glyph-name="uniFE84" unicode="&#x623;" horiz-adv-x="240" arabic-form="final" 
d="M190 811l5 -51q-79 -10 -191 -14l-5 54q29 0 45 1q-18 28 -18 58q0 36 21.5 57.5t60.5 21.5q33 0 70 -14l-14 -52q-32 10 -47 10q-18 0 -27.5 -10.5t-9.5 -26.5q0 -23 19 -42q43 3 91 8zM259 78q41 0 41 -27q0 -19 -13.5 -35t-47.5 -16q-82 0 -128 37t-46 128v499l72 18
l6 -3v-505q0 -57 25.5 -76.5t90.5 -19.5z" />
    <glyph glyph-name="uniFE86" unicode="&#x624;" horiz-adv-x="429" arabic-form="final" 
d="M108 420l-6 59q32 0 49 1q-20 30 -20 64q0 40 24.5 64t66.5 24q35 0 77 -16l-15 -58q-32 12 -52 12t-30.5 -12t-10.5 -30q0 -26 22 -45q48 3 99 8l6 -56q-81 -11 -210 -15zM447 78q42 0 42 -27q0 -19 -13.5 -35t-47.5 -16h-74q-27 -76 -100.5 -124.5t-191.5 -52.5l-42 58
l5 8q194 8 256 111h-30q-91 0 -136.5 33.5t-45.5 94.5q0 72 44 133t103 61q67 0 109.5 -70t42.5 -169v-5h79zM261 78h43v6q0 63 -28.5 111.5t-62.5 48.5q-30 0 -55 -30.5t-25 -76.5q0 -59 128 -59z" />
    <glyph glyph-name="uniFE88" unicode="&#x625;" horiz-adv-x="240" arabic-form="final" 
d="M259 78q41 0 41 -27q0 -19 -13.5 -35t-47.5 -16q-82 0 -128 37t-46 128v499l72 18l6 -3v-505q0 -57 25.5 -76.5t90.5 -19.5zM110 -196q41 3 90 8l5 -51q-79 -10 -191 -14l-5 54q30 0 45 1q-18 28 -18 59q0 36 21.5 57.5t60.5 21.5q33 0 70 -14l-14 -53q-30 11 -47 11
q-18 0 -27.5 -11t-9.5 -27q0 -24 20 -42z" />
    <glyph glyph-name="uniFE8A" unicode="&#x626;" horiz-adv-x="738" arabic-form="final" 
d="M68 238l-6 59q32 0 49 1q-20 30 -20 64q0 40 24.5 64t66.5 24q35 0 77 -16l-15 -58q-31 12 -52 12q-20 0 -30.5 -12t-10.5 -30q0 -26 22 -45q48 3 99 8l6 -56q-81 -11 -210 -15zM758 78q40 0 40 -28q0 -11 -4 -21t-18.5 -19.5t-38.5 -9.5h-39q-11 -88 -114.5 -137
t-267.5 -49q-131 0 -201 54.5t-70 142.5q0 59 16 111l63 22l9 -4q-11 -49 -11 -91q0 -76 48 -116.5t164 -40.5q113 0 196 26.5t97 64.5q0 23 -36.5 41.5t-127.5 42.5l23 73q22 -6 87 -25.5t105.5 -28t79.5 -8.5z" />
    <glyph glyph-name="uniFE8B" unicode="&#x626;" horiz-adv-x="297" arabic-form="initial" 
d="M53 432l-6 59q32 0 49 1q-20 30 -20 64q0 40 24.5 64t66.5 24q35 0 77 -16l-15 -58q-32 12 -52 12t-30.5 -12t-10.5 -30q0 -26 22 -45q48 3 99 8l6 -56q-81 -11 -210 -15zM176 336h9q52 -119 52 -180q0 -33 -13 -67t-36 -55q-20 -19 -54 -26.5t-104 -7.5h-30l20 78h29
q80 0 105 12q6 24 7.5 41.5t-7.5 47t-17.5 52t-23.5 54.5z" />
    <glyph glyph-name="uniFE8C" unicode="&#x626;" horiz-adv-x="337" arabic-form="medial" 
d="M113 366l-6 59q32 0 49 1q-20 30 -20 64q0 40 24.5 64t66.5 24q35 0 77 -16l-15 -58q-32 12 -52 12t-30.5 -12t-10.5 -30q0 -26 22 -45q48 3 99 8l6 -56q-81 -11 -210 -15zM357 78q40 0 40 -27q0 -19 -13 -35t-47 -16q-108 0 -164 48q-47 -48 -139 -48h-34l20 78h30
q51 0 76 19q19 31 48 152l77 19l10 -6q-23 -104 -47 -153q51 -31 143 -31z" />
    <glyph glyph-name="uniFE8E" unicode="&#x627;" horiz-adv-x="240" arabic-form="final" 
d="M239 0q-82 0 -128 37t-46 128v499l72 18l6 -3v-505q0 -57 25.5 -76.5t90.5 -19.5q41 0 41 -27q0 -19 -13.5 -35t-47.5 -16z" />
    <glyph glyph-name="uniFE90" unicode="&#x628;" horiz-adv-x="870" arabic-form="final" 
d="M890 78q40 0 40 -27q0 -19 -13 -35t-47 -16q-92 0 -146 50q-12 -10 -18 -14q-32 -20 -109.5 -33.5t-145.5 -13.5h-68q-170 0 -254 42.5t-84 141.5q0 66 16 112l59 22l8 -4q-10 -50 -10 -91q0 -44 18 -73t56.5 -44.5t88.5 -21.5t123 -6h70q52 0 116 8t90 21q23 48 49 153
l77 19l10 -6q-23 -96 -50 -152q48 -32 124 -32zM347 -163l51 75l82 -55l-51 -77z" />
    <glyph glyph-name="uniFE91" unicode="&#x628;" horiz-adv-x="277" arabic-form="initial" 
d="M0 0l20 78h9q80 0 105 12q6 15 6 34t-3 34.5t-13 41.5t-16 40t-20 45l68 51h9q52 -109 52 -180q0 -73 -49 -122q-20 -19 -54 -26.5t-104 -7.5h-10zM148 -209l-82 57l51 75l82 -55z" />
    <glyph glyph-name="uniFE92" unicode="&#x628;" horiz-adv-x="316" arabic-form="medial" 
d="M336 78q40 0 40 -27q0 -19 -13 -35t-47 -16q-90 0 -145 49q-49 -49 -150 -49h-21l20 78h22q59 0 84 19q19 27 48 152l77 19l10 -6q-22 -100 -48 -153q49 -31 123 -31zM111 -152l51 75l82 -55l-51 -77z" />
    <glyph glyph-name="uniFE94" unicode="&#x629;" horiz-adv-x="435" arabic-form="final" 
d="M204 617l-49 -77l-81 57l49 76zM345 617l-51 -77l-81 57l51 76zM456 78q24 0 31.5 -6.5t7.5 -20.5q0 -19 -13.5 -35t-47.5 -16q-129 0 -161 80q-39 -9 -75 -9q-78 0 -123 30.5t-45 81.5q0 59 61 119t169 93v49l71 32l7 -2v-310q0 -54 25.5 -70t92.5 -16zM203 148
q29 0 57 6v10v150q-67 -21 -112.5 -52.5t-53.5 -62.5q8 -25 41 -38t68 -13z" />
    <glyph glyph-name="uniFE96" unicode="&#x62a;" horiz-adv-x="870" arabic-form="final" 
d="M443 456l-49 -77l-81 57l49 76zM584 456l-51 -77l-81 57l51 76zM890 78q40 0 40 -27q0 -19 -13 -35t-47 -16q-92 0 -146 50q-12 -10 -18 -14q-32 -20 -109.5 -33.5t-145.5 -13.5h-68q-170 0 -254 42.5t-84 141.5q0 66 16 112l59 22l8 -4q-10 -50 -10 -91q0 -44 18 -73
t56.5 -44.5t88.5 -21.5t123 -6h70q52 0 116 8t90 21q23 48 49 153l77 19l10 -6q-23 -96 -50 -152q48 -32 124 -32z" />
    <glyph glyph-name="uniFE97" unicode="&#x62a;" horiz-adv-x="297" arabic-form="initial" 
d="M101 448l-81 57l49 76l81 -56zM240 448l-81 57l51 76l81 -56zM0 0l20 78h29q80 0 105 12q6 24 7.5 41.5t-7.5 47t-17.5 52t-23.5 54.5l63 51h9q52 -119 52 -180q0 -33 -13 -67t-36 -55q-20 -19 -54 -26.5t-104 -7.5h-30z" />
    <glyph glyph-name="uniFE98" unicode="&#x62a;" horiz-adv-x="337" arabic-form="medial" 
d="M210 459l-49 -77l-81 57l49 76zM351 459l-51 -77l-81 57l51 76zM357 78q40 0 40 -27q0 -19 -13 -35t-47 -16q-108 0 -164 48q-47 -48 -139 -48h-34l20 78h30q51 0 76 19q19 31 48 152l77 19l10 -6q-23 -104 -47 -153q51 -31 143 -31z" />
    <glyph glyph-name="uniFE9A" unicode="&#x62b;" horiz-adv-x="870" arabic-form="final" 
d="M504 570l-50 -78l-82 58l51 75zM443 456l-49 -77l-81 57l49 76zM535 379l-81 57l51 76l81 -56zM890 78q40 0 40 -27q0 -19 -13 -35t-47 -16q-92 0 -146 50q-12 -10 -18 -14q-32 -20 -109.5 -33.5t-145.5 -13.5h-68q-170 0 -254 42.5t-84 141.5q0 66 16 112l59 22l8 -4
q-10 -50 -10 -91q0 -44 18 -73t56.5 -44.5t88.5 -21.5t123 -6h70q52 0 116 8t90 21q23 48 49 153l77 19l10 -6q-23 -96 -50 -152q48 -32 124 -32z" />
    <glyph glyph-name="uniFE9B" unicode="&#x62b;" horiz-adv-x="297" arabic-form="initial" 
d="M161 561l-82 58l51 75l81 -55zM101 448l-81 57l49 76l81 -56zM242 448l-81 57l51 76l81 -56zM0 0l20 78h29q80 0 105 12q6 24 7.5 41.5t-7.5 47t-17.5 52t-23.5 54.5l63 51h9q52 -119 52 -180q0 -33 -13 -67t-36 -55q-20 -19 -54 -26.5t-104 -7.5h-30z" />
    <glyph glyph-name="uniFE9C" unicode="&#x62b;" horiz-adv-x="337" arabic-form="medial" 
d="M271 573l-50 -78l-82 58l51 75zM210 459l-49 -77l-81 57l49 76zM302 382l-81 57l51 76l81 -56zM357 78q40 0 40 -27q0 -19 -13 -35t-47 -16q-108 0 -164 48q-47 -48 -139 -48h-34l20 78h30q51 0 76 19q19 31 48 152l77 19l10 -6q-23 -104 -47 -153q51 -31 143 -31z" />
    <glyph glyph-name="uniFE9E" unicode="&#x62c;" horiz-adv-x="689" arabic-form="final" 
d="M709 78q40 0 40 -27q0 -19 -13 -35t-47 -16q-93 0 -150 40t-90 139q-149 -32 -240 -121t-91 -194q0 -95 77.5 -148.5t208.5 -53.5q99 0 200 32l6 -7l-22 -63q-30 -18 -87.5 -29t-115.5 -11q-150 0 -245 70.5t-95 186.5q0 121 87.5 222.5t219.5 162.5q-14 3 -34 9
q-88 24 -141 24q-56 0 -124 -20l-3 4l30 73q40 20 103 20q47 0 128 -23q143 -40 286 -40l-20 -80q-31 0 -59 -3q25 -60 70 -86t121 -26zM363 -186l-81 58l51 75l82 -55z" />
    <glyph glyph-name="uniFE9F" unicode="&#x62c;" horiz-adv-x="587" arabic-form="initial" 
d="M360 269q128 -69 193 -73l-19 -72q-116 -14 -270 -67q-167 -57 -264 -57l19 78q85 0 225 44q94 30 159 42q-36 16 -70 36q-102 59 -166 59q-45 0 -100 -19l-3 4l30 72q42 20 88 20q55 0 178 -67zM193 -152l51 75l82 -55l-51 -77z" />
    <glyph glyph-name="uniFEA0" unicode="&#x62c;" horiz-adv-x="606" arabic-form="medial" 
d="M627 78q23 0 31 -7t8 -20q0 -51 -58 -51q-98 0 -150 23t-79 72q-51 -15 -114 -37q-97 -33 -153 -45.5t-112 -12.5l19 78q88 0 225 44q93 31 158 43q-29 13 -69 35q-108 59 -166 59q-47 0 -100 -20l-3 4l30 73q42 20 88 20q52 0 176 -65q130 -69 195 -73l-18 -72
q-47 -6 -75 -11q40 -37 167 -37zM193 -152l51 75l82 -55l-51 -77z" />
    <glyph glyph-name="uniFEA2" unicode="&#x62d;" horiz-adv-x="689" arabic-form="final" 
d="M709 78q40 0 40 -27q0 -19 -13 -35t-47 -16q-93 0 -150 40t-90 139q-149 -32 -240 -121t-91 -194q0 -95 77.5 -148.5t208.5 -53.5q99 0 200 32l6 -7l-22 -63q-30 -18 -87.5 -29t-115.5 -11q-150 0 -245 70.5t-95 186.5q0 121 87.5 222.5t219.5 162.5q-14 3 -34 9
q-88 24 -141 24q-56 0 -124 -20l-3 4l30 73q40 20 103 20q47 0 128 -23q143 -40 286 -40l-20 -80q-31 0 -59 -3q25 -60 70 -86t121 -26z" />
    <glyph glyph-name="uniFEA3" unicode="&#x62d;" horiz-adv-x="587" arabic-form="initial" 
d="M360 269q128 -69 193 -73l-19 -72q-116 -14 -270 -67q-167 -57 -264 -57l19 78q85 0 225 44q94 30 159 42q-36 16 -70 36q-102 59 -166 59q-45 0 -100 -19l-3 4l30 72q42 20 88 20q55 0 178 -67z" />
    <glyph glyph-name="uniFEA4" unicode="&#x62d;" horiz-adv-x="606" arabic-form="medial" 
d="M627 78q23 0 31 -7t8 -20q0 -51 -58 -51q-98 0 -150 23t-79 72q-51 -15 -114 -37q-97 -33 -153 -45.5t-112 -12.5l19 78q88 0 225 44q93 31 158 43q-29 13 -69 35q-108 59 -166 59q-47 0 -100 -20l-3 4l30 73q42 20 88 20q52 0 176 -65q130 -69 195 -73l-18 -72
q-47 -6 -75 -11q40 -37 167 -37z" />
    <glyph glyph-name="uniFEA6" unicode="&#x62e;" horiz-adv-x="689" arabic-form="final" 
d="M381 526l-51 -77l-82 57l51 76zM709 78q40 0 40 -27q0 -19 -13 -35t-47 -16q-93 0 -150 40t-90 139q-149 -32 -240 -121t-91 -194q0 -95 77.5 -148.5t208.5 -53.5q99 0 200 32l6 -7l-22 -63q-30 -18 -87.5 -29t-115.5 -11q-150 0 -245 70.5t-95 186.5q0 121 87.5 222.5
t219.5 162.5q-14 3 -34 9q-88 24 -141 24q-56 0 -124 -20l-3 4l30 73q40 20 103 20q47 0 128 -23q143 -40 286 -40l-20 -80q-31 0 -59 -3q25 -60 70 -86t121 -26z" />
    <glyph glyph-name="uniFEA7" unicode="&#x62e;" horiz-adv-x="587" arabic-form="initial" 
d="M247 527l-51 -77l-82 57l51 76zM360 269q128 -69 193 -73l-19 -72q-116 -14 -270 -67q-167 -57 -264 -57l19 78q85 0 225 44q94 30 159 42q-36 16 -70 36q-102 59 -166 59q-45 0 -100 -19l-3 4l30 72q42 20 88 20q55 0 178 -67z" />
    <glyph glyph-name="uniFEA8" unicode="&#x62e;" horiz-adv-x="606" arabic-form="medial" 
d="M247 527l-51 -77l-82 57l51 76zM627 78q23 0 31 -7t8 -20q0 -51 -58 -51q-98 0 -150 23t-79 72q-51 -15 -114 -37q-97 -33 -153 -45.5t-112 -12.5l19 78q88 0 225 44q93 31 158 43q-29 13 -69 35q-108 59 -166 59q-47 0 -100 -20l-3 4l30 73q42 20 88 20q52 0 176 -65
q130 -69 195 -73l-18 -72q-47 -6 -75 -11q40 -37 167 -37z" />
    <glyph glyph-name="uniFEAA" unicode="&#x62f;" horiz-adv-x="464" arabic-form="final" 
d="M482 78q42 0 42 -27q0 -19 -14 -35t-48 -16q-70 0 -106 53q-55 -58 -205 -58q-65 0 -116 12l11 73l5 4q46 -10 109 -10q113 0 164 36l-3 5q-77 155 -132 249l59 62h8q77 -174 115 -252q29 -60 50.5 -78t60.5 -18z" />
    <glyph glyph-name="uniFEAC" unicode="&#x630;" horiz-adv-x="464" arabic-form="final" 
d="M303 617l-51 -77l-82 57l51 76zM482 78q42 0 42 -27q0 -19 -14 -35t-48 -16q-70 0 -106 53q-55 -58 -205 -58q-65 0 -116 12l11 73l5 4q46 -10 109 -10q113 0 164 36l-3 5q-77 155 -132 249l59 62h8q77 -174 115 -252q29 -60 50.5 -78t60.5 -18z" />
    <glyph glyph-name="uniFEAE" unicode="&#x631;" horiz-adv-x="357" arabic-form="final" 
d="M376 78q41 0 41 -27q0 -19 -13 -35t-47 -16q-54 0 -84 27q-24 -70 -103.5 -127t-195.5 -77l-42 58l4 8q249 47 284 193q-18 52 -77 168l58 62h10q4 -10 59 -154q21 -51 39.5 -65.5t66.5 -14.5z" />
    <glyph glyph-name="uniFEB0" unicode="&#x632;" horiz-adv-x="357" arabic-form="final" 
d="M256 503l-51 -77l-82 57l51 76zM376 78q41 0 41 -27q0 -19 -13 -35t-47 -16q-54 0 -84 27q-24 -70 -103.5 -127t-195.5 -77l-42 58l4 8q249 47 284 193q-18 52 -77 168l58 62h10q4 -10 59 -154q21 -51 39.5 -65.5t66.5 -14.5z" />
    <glyph glyph-name="uniFEB2" unicode="&#x633;" horiz-adv-x="1108" arabic-form="final" 
d="M1128 78q40 0 40 -27q0 -19 -13 -35t-47 -16q-82 0 -136 42q-42 -42 -118 -42q-63 0 -113 26q-34 -26 -92 -26q-43 0 -78 26q-15 -104 -93 -158t-196 -54q-114 0 -175.5 56.5t-61.5 149.5q0 62 16 112l63 22l8 -4q-10 -50 -10 -92q0 -81 39 -123.5t136 -42.5
q129 0 191 77q13 32 13 66q0 56 -56 184l70 49h6q3 -7 13 -37.5t19.5 -55t18.5 -42.5q29 -55 85 -55q32 0 49 11q15 20 47 115l79 12l5 -4q-40 -108 -47 -123q37 -11 70 -11q45 0 67 16q16 28 16 92q0 22 -3 51l71 27l9 -3q2 -32 2 -45q0 -64 -14 -109q49 -29 120 -29z" />
    <glyph glyph-name="uniFEB3" unicode="&#x633;" horiz-adv-x="787" arabic-form="initial" 
d="M676 336q51 -121 51 -180q0 -156 -181 -156q-61 0 -113 26q-34 -26 -92 -26q-95 0 -156 44q-56 -44 -185 -44l19 78q96 0 127 20q17 24 42 106l85 12l4 -5q-26 -74 -45 -110q58 -23 117 -23q33 0 50 11q16 22 46 115l80 12l4 -4q-39 -106 -47 -122q36 -12 71 -12
q66 0 91 12q6 24 7.5 41.5t-7.5 47t-17.5 52t-23.5 54.5l67 52z" />
    <glyph glyph-name="uniFEB4" unicode="&#x633;" horiz-adv-x="801" arabic-form="medial" 
d="M821 78q40 0 40 -27q0 -19 -13 -35t-47 -16q-82 0 -136 42q-42 -42 -119 -42q-61 0 -113 26q-34 -26 -92 -26q-95 0 -156 44q-56 -44 -185 -44l19 78q96 0 127 20q17 24 42 106l85 12l4 -5q-26 -74 -45 -110q58 -23 117 -23q33 0 50 11q16 22 46 115l80 12l4 -4
q-39 -106 -47 -122q36 -12 71 -12q44 0 66 16q16 28 16 90q0 23 -3 53l72 27l9 -3q2 -32 2 -45q0 -64 -14 -109q49 -29 120 -29z" />
    <glyph glyph-name="uniFEB6" unicode="&#x634;" horiz-adv-x="1108" arabic-form="final" 
d="M836 578l-50 -78l-82 58l51 75zM775 464l-49 -77l-81 57l49 76zM867 387l-81 57l51 76l81 -56zM1128 78q40 0 40 -27q0 -19 -13 -35t-47 -16q-82 0 -136 42q-42 -42 -118 -42q-63 0 -113 26q-34 -26 -92 -26q-43 0 -78 26q-15 -104 -93 -158t-196 -54q-114 0 -175.5 56.5
t-61.5 149.5q0 62 16 112l63 22l8 -4q-10 -50 -10 -92q0 -81 39 -123.5t136 -42.5q129 0 191 77q13 32 13 66q0 56 -56 184l70 49h6q3 -7 13 -37.5t19.5 -55t18.5 -42.5q29 -55 85 -55q32 0 49 11q15 20 47 115l79 12l5 -4q-40 -108 -47 -123q37 -11 70 -11q45 0 67 16
q16 28 16 92q0 22 -3 51l71 27l9 -3q2 -32 2 -45q0 -64 -14 -109q49 -29 120 -29z" />
    <glyph glyph-name="uniFEB7" unicode="&#x634;" horiz-adv-x="787" arabic-form="initial" 
d="M499 577l-50 -78l-82 58l51 75zM438 463l-49 -77l-81 57l49 76zM530 386l-81 57l51 76l81 -56zM676 336q51 -121 51 -180q0 -156 -181 -156q-61 0 -113 26q-34 -26 -92 -26q-95 0 -156 44q-56 -44 -185 -44l19 78q96 0 127 20q17 24 42 106l85 12l4 -5q-26 -74 -45 -110
q58 -23 117 -23q33 0 50 11q16 22 46 115l80 12l4 -4q-39 -106 -47 -122q36 -12 71 -12q66 0 91 12q6 24 7.5 41.5t-7.5 47t-17.5 52t-23.5 54.5l67 52z" />
    <glyph glyph-name="uniFEB8" unicode="&#x634;" horiz-adv-x="801" arabic-form="medial" 
d="M498 577l-50 -78l-82 58l51 75zM437 463l-49 -77l-81 57l49 76zM529 386l-81 57l51 76l81 -56zM821 78q40 0 40 -27q0 -19 -13 -35t-47 -16q-82 0 -136 42q-42 -42 -119 -42q-61 0 -113 26q-34 -26 -92 -26q-95 0 -156 44q-56 -44 -185 -44l19 78q96 0 127 20
q17 24 42 106l85 12l4 -5q-26 -74 -45 -110q58 -23 117 -23q33 0 50 11q16 22 46 115l80 12l4 -4q-39 -106 -47 -122q36 -12 71 -12q44 0 66 16q16 28 16 90q0 23 -3 53l72 27l9 -3q2 -32 2 -45q0 -64 -14 -109q49 -29 120 -29z" />
    <glyph glyph-name="uniFEBA" unicode="&#x635;" horiz-adv-x="1247" arabic-form="final" 
d="M1267 78q40 0 40 -27q0 -19 -13 -35t-47 -16q-82 0 -137 42q-34 -25 -90.5 -33.5t-164.5 -8.5h-82q-94 0 -135 4.5t-66 22.5q-16 -105 -94 -159t-196 -54q-114 0 -175.5 56.5t-61.5 149.5q0 54 16 112l63 22l8 -4q-10 -50 -10 -92q0 -81 39 -123.5t136 -42.5
q129 0 191 77q12 28 14 56t-7.5 62.5t-19.5 60t-30 71.5l70 49h6q3 -7 13 -37.5t19.5 -55t18.5 -42.5q14 -27 34 -38.5t59 -14.5q141 136 220.5 195.5t140.5 59.5t104.5 -48.5t43.5 -111.5q0 -40 -16 -74q42 -23 109 -23zM849 78q112 0 160.5 4.5t74.5 17.5q18 25 18 63
q0 33 -25 64t-60 31q-42 0 -103 -45.5t-152 -134.5h87z" />
    <glyph glyph-name="uniFEBB" unicode="&#x635;" horiz-adv-x="822" arabic-form="initial" 
d="M619 335q61 0 104.5 -48.5t43.5 -111.5q0 -79 -59 -129q-33 -28 -90.5 -37t-169.5 -9h-114q-149 0 -221 29q-44 -29 -113 -29l19 78q58 0 75 11q16 20 47 114l79 13l5 -4q-32 -86 -54 -121q29 -10 86 -12q142 137 221 196.5t141 59.5zM677 100q18 25 18 63q0 33 -25 64
t-60 31q-42 0 -103 -45.5t-152 -134.5h87q112 0 160.5 4.5t74.5 17.5z" />
    <glyph glyph-name="uniFEBC" unicode="&#x635;" horiz-adv-x="840" arabic-form="medial" 
d="M860 78q40 0 40 -27q0 -19 -13 -35t-47 -16q-82 0 -137 42q-34 -25 -90.5 -33.5t-164.5 -8.5h-114q-149 0 -221 29q-44 -29 -113 -29l19 78q58 0 75 11q16 20 47 114l79 13l5 -4q-32 -86 -54 -121q29 -10 86 -12q142 137 221 196.5t141 59.5q61 0 104.5 -48.5
t43.5 -111.5q0 -40 -16 -74q42 -23 109 -23zM442 78q112 0 160.5 4.5t74.5 17.5q18 25 18 63q0 33 -25 64t-60 31q-42 0 -103 -45.5t-152 -134.5h87z" />
    <glyph glyph-name="uniFEBE" unicode="&#x636;" horiz-adv-x="1247" arabic-form="final" 
d="M1073 526l-51 -77l-82 57l51 76zM1267 78q40 0 40 -27q0 -19 -13 -35t-47 -16q-82 0 -137 42q-34 -25 -90.5 -33.5t-164.5 -8.5h-82q-94 0 -135 4.5t-66 22.5q-16 -105 -94 -159t-196 -54q-114 0 -175.5 56.5t-61.5 149.5q0 54 16 112l63 22l8 -4q-10 -50 -10 -92
q0 -81 39 -123.5t136 -42.5q129 0 191 77q12 28 14 56t-7.5 62.5t-19.5 60t-30 71.5l70 49h6q3 -7 13 -37.5t19.5 -55t18.5 -42.5q14 -27 34 -38.5t59 -14.5q141 136 220.5 195.5t140.5 59.5t104.5 -48.5t43.5 -111.5q0 -40 -16 -74q42 -23 109 -23zM849 78q112 0 160.5 4.5
t74.5 17.5q18 25 18 63q0 33 -25 64t-60 31q-42 0 -103 -45.5t-152 -134.5h87z" />
    <glyph glyph-name="uniFEBF" unicode="&#x636;" horiz-adv-x="822" arabic-form="initial" 
d="M652 526l-51 -77l-82 57l51 76zM619 335q61 0 104.5 -48.5t43.5 -111.5q0 -79 -59 -129q-33 -28 -90.5 -37t-169.5 -9h-114q-149 0 -221 29q-44 -29 -113 -29l19 78q58 0 75 11q16 20 47 114l79 13l5 -4q-32 -86 -54 -121q29 -10 86 -12q142 137 221 196.5t141 59.5z
M677 100q18 25 18 63q0 33 -25 64t-60 31q-42 0 -103 -45.5t-152 -134.5h87q112 0 160.5 4.5t74.5 17.5z" />
    <glyph glyph-name="uniFEC0" unicode="&#x636;" horiz-adv-x="840" arabic-form="medial" 
d="M652 526l-51 -77l-82 57l51 76zM860 78q40 0 40 -27q0 -19 -13 -35t-47 -16q-82 0 -137 42q-34 -25 -90.5 -33.5t-164.5 -8.5h-114q-149 0 -221 29q-44 -29 -113 -29l19 78q58 0 75 11q16 20 47 114l79 13l5 -4q-32 -86 -54 -121q29 -10 86 -12q142 137 221 196.5
t141 59.5q61 0 104.5 -48.5t43.5 -111.5q0 -40 -16 -74q42 -23 109 -23zM442 78q112 0 160.5 4.5t74.5 17.5q18 25 18 63q0 33 -25 64t-60 31q-42 0 -103 -45.5t-152 -134.5h87z" />
    <glyph glyph-name="uniFEC2" unicode="&#x637;" horiz-adv-x="728" arabic-form="final" 
d="M748 78q40 0 40 -27q0 -19 -13 -35t-47 -16q-82 0 -136 42q-34 -25 -91 -33.5t-164 -8.5h-252l-35 66l3 12h93q32 32 48 47v539l72 18l6 -3v-482q154 138 236 138q61 0 104.5 -48.5t43.5 -111.5q0 -42 -17 -74q44 -23 109 -23zM331 78q112 0 160.5 4.5t74.5 17.5
q18 25 18 63q0 33 -25 64t-60 31q-42 0 -103 -45.5t-152 -134.5h87z" />
    <glyph glyph-name="uniFEC3" unicode="&#x637;" horiz-adv-x="626" arabic-form="initial" 
d="M423 335q61 0 104.5 -48.5t43.5 -111.5q0 -79 -59 -129q-33 -28 -90.5 -37t-169.5 -9h-252l20 78h41q32 32 48 47v539l72 18l6 -3v-482q154 138 236 138zM481 100q18 25 18 63q0 33 -25 64t-60 31q-42 0 -103 -45.5t-152 -134.5h87q112 0 160.5 4.5t74.5 17.5z" />
    <glyph glyph-name="uniFEC4" unicode="&#x637;" horiz-adv-x="643" arabic-form="medial" 
d="M663 78q40 0 40 -27q0 -19 -13 -35t-47 -16q-82 0 -136 42q-34 -25 -91 -33.5t-164 -8.5h-252l20 78h41q32 32 48 47v539l72 18l6 -3v-482q154 138 236 138q61 0 104.5 -48.5t43.5 -111.5q0 -42 -17 -74q44 -23 109 -23zM246 78q112 0 160.5 4.5t74.5 17.5q18 25 18 63
q0 33 -25 64t-60 31q-42 0 -103 -45.5t-152 -134.5h87z" />
    <glyph glyph-name="uniFEC6" unicode="&#x638;" horiz-adv-x="728" arabic-form="final" 
d="M748 78q40 0 40 -27q0 -19 -13 -35t-47 -16q-82 0 -136 42q-34 -25 -91 -33.5t-164 -8.5h-252l-35 66l3 12h93q32 32 48 47v539l72 18l6 -3v-482q154 138 236 138q61 0 104.5 -48.5t43.5 -111.5q0 -42 -17 -74q44 -23 109 -23zM572 526l-51 -77l-82 57l51 76zM331 78
q112 0 160.5 4.5t74.5 17.5q18 25 18 63q0 33 -25 64t-60 31q-42 0 -103 -45.5t-152 -134.5h87z" />
    <glyph glyph-name="uniFEC7" unicode="&#x638;" horiz-adv-x="626" arabic-form="initial" 
d="M423 335q61 0 104.5 -48.5t43.5 -111.5q0 -79 -59 -129q-33 -28 -90.5 -37t-169.5 -9h-252l20 78h41q32 32 48 47v539l72 18l6 -3v-482q154 138 236 138zM487 526l-51 -77l-82 57l51 76zM481 100q18 25 18 63q0 33 -25 64t-60 31q-42 0 -103 -45.5t-152 -134.5h87
q112 0 160.5 4.5t74.5 17.5z" />
    <glyph glyph-name="uniFEC8" unicode="&#x638;" horiz-adv-x="643" arabic-form="medial" 
d="M663 78q40 0 40 -27q0 -19 -13 -35t-47 -16q-82 0 -136 42q-34 -25 -91 -33.5t-164 -8.5h-252l20 78h41q32 32 48 47v539l72 18l6 -3v-482q154 138 236 138q61 0 104.5 -48.5t43.5 -111.5q0 -42 -17 -74q44 -23 109 -23zM487 526l-51 -77l-82 57l51 76zM246 78
q112 0 160.5 4.5t74.5 17.5q18 25 18 63q0 33 -25 64t-60 31q-42 0 -103 -45.5t-152 -134.5h87z" />
    <glyph glyph-name="uniFECA" unicode="&#x639;" horiz-adv-x="579" arabic-form="final" 
d="M317 84q-57 -44 -86 -68.5t-61 -59t-45 -67.5t-13 -72q0 -76 69.5 -116.5t191.5 -40.5q103 0 200 29l7 -5l-23 -68q-86 -32 -207 -32q-144 0 -229.5 58t-85.5 162q0 54 18.5 102t55 89t71.5 70.5t87 66.5q-70 73 -137 111l-4 8l35 85q77 37 178 37q111 0 188 -51l4 -8
l-23 -75q-55 -49 -133 -110q91 -51 223 -51q41 0 41 -28q0 -19 -13 -34.5t-47 -15.5q-153 0 -262 84zM203 273q39 -22 119 -102q84 59 126 104q-56 20 -116 20q-65 0 -129 -22z" />
    <glyph glyph-name="uniFECB" unicode="&#x639;" horiz-adv-x="522" arabic-form="initial" 
d="M468 99l5 -4l-24 -70q-130 -25 -449 -25l19 78q76 0 111 1q-43 62 -43 128q0 76 54.5 121t138.5 45q75 0 134 -33l-9 -71l-4 -2q-65 27 -119 27q-51 0 -79 -23t-28 -66q0 -67 58 -124q141 5 235 18z" />
    <glyph glyph-name="uniFECC" unicode="&#x639;" horiz-adv-x="549" arabic-form="medial" 
d="M568 78q41 0 41 -28q0 -11 -4 -21t-18.5 -19.5t-38.5 -9.5q-149 0 -256 78q-124 -78 -292 -78l19 78q121 0 219 52q-63 76 -139 113l-3 8l36 85q77 37 181 37q115 0 190 -51l3 -9l-21 -74q-22 -16 -66 -57t-64 -58q89 -46 213 -46zM174 273q6 -3 12.5 -7t13.5 -9t12.5 -9
t14 -12t12.5 -12t14 -13.5t14 -13.5l15.5 -15.5l14.5 -14.5q58 43 120 109q-57 19 -115 19q-64 0 -128 -22z" />
    <glyph glyph-name="uniFECE" unicode="&#x63a;" horiz-adv-x="579" arabic-form="final" 
d="M403 564l-51 -77l-82 57l51 76zM317 84q-57 -44 -86 -68.5t-61 -59t-45 -67.5t-13 -72q0 -76 69.5 -116.5t191.5 -40.5q103 0 200 29l7 -5l-23 -68q-86 -32 -207 -32q-144 0 -229.5 58t-85.5 162q0 54 18.5 102t55 89t71.5 70.5t87 66.5q-70 73 -137 111l-4 8l35 85
q77 37 178 37q111 0 188 -51l4 -8l-23 -75q-55 -49 -133 -110q91 -51 223 -51q41 0 41 -28q0 -19 -13 -34.5t-47 -15.5q-153 0 -262 84zM203 273q39 -22 119 -102q84 59 126 104q-56 20 -116 20q-65 0 -129 -22z" />
    <glyph glyph-name="uniFECF" unicode="&#x63a;" horiz-adv-x="522" arabic-form="initial" 
d="M345 564l-51 -77l-82 57l51 76zM468 99l5 -4l-24 -70q-130 -25 -449 -25l19 78q76 0 111 1q-43 62 -43 128q0 76 54.5 121t138.5 45q75 0 134 -33l-9 -71l-4 -2q-65 27 -119 27q-51 0 -79 -23t-28 -66q0 -67 58 -124q141 5 235 18z" />
    <glyph glyph-name="uniFED0" unicode="&#x63a;" horiz-adv-x="549" arabic-form="medial" 
d="M378 564l-51 -77l-82 57l51 76zM568 78q41 0 41 -28q0 -11 -4 -21t-18.5 -19.5t-38.5 -9.5q-149 0 -256 78q-124 -78 -292 -78l19 78q121 0 219 52q-63 76 -139 113l-3 8l36 85q77 37 181 37q115 0 190 -51l3 -9l-21 -74q-22 -16 -66 -57t-64 -58q89 -46 213 -46z
M174 273q6 -3 12.5 -7t13.5 -9t12.5 -9t14 -12t12.5 -12t14 -13.5t14 -13.5l15.5 -15.5l14.5 -14.5q58 43 120 109q-57 19 -115 19q-64 0 -128 -22z" />
    <glyph glyph-name="uniFED2" unicode="&#x641;" horiz-adv-x="959" arabic-form="final" 
d="M815 560l-51 -77l-82 57l51 76zM978 78q41 0 41 -27q0 -19 -13.5 -35t-47.5 -16h-70q-78 0 -150 26q-96 -37 -287 -37h-68q-170 0 -254 42.5t-84 141.5q0 66 16 112l59 22l8 -4q-10 -50 -10 -91q0 -44 18 -73t56.5 -44.5t88.5 -21.5t123 -6h70q102 0 172 12
q-54 47 -54 111q0 66 49 123t110 57q53 0 94 -48.5t41 -104.5q0 -78 -56 -134q37 -5 71 -5h77zM741 292q-31 0 -57.5 -29t-26.5 -61q0 -58 86 -96q76 37 76 100q0 32 -25.5 59t-52.5 27z" />
    <glyph glyph-name="uniFED3" unicode="&#x641;" horiz-adv-x="436" arabic-form="initial" 
d="M290 642l-51 -77l-82 57l51 76zM224 456q68 0 110 -71.5t42 -168.5q0 -73 -13.5 -116.5t-47.5 -66.5q-38 -20 -103.5 -26.5t-211.5 -6.5l20 78q236 0 283 22q5 16 7 61q-54 -13 -105 -13q-64 0 -96 31t-32 86q0 70 44.5 130.5t102.5 60.5zM141 275q0 -50 80 -50
q50 0 90 9q-4 56 -30.5 100t-60.5 44q-30 0 -54.5 -31t-24.5 -72z" />
    <glyph glyph-name="uniFED4" unicode="&#x641;" horiz-adv-x="443" arabic-form="medial" 
d="M308 561l-51 -77l-82 57l51 76zM462 78q41 0 41 -27q0 -19 -13.5 -35t-47.5 -16h-63q-73 0 -148 28q-77 -28 -180 -28h-51l20 78h95q18 0 26 1q-57 49 -57 110q0 67 49 124t110 57q52 0 93 -48.5t41 -104.5q0 -82 -55 -134q37 -5 71 -5h69zM149 202q0 -28 23 -53.5
t64 -42.5q75 38 75 100q0 32 -25.5 59t-53.5 27q-30 0 -56.5 -29t-26.5 -61z" />
    <glyph glyph-name="uniFED6" unicode="&#x642;" horiz-adv-x="715" arabic-form="final" 
d="M487 514l-49 -77l-81 57l49 76zM628 514l-51 -77l-81 57l51 76zM734 78q41 0 41 -27q0 -19 -13.5 -35t-47.5 -16h-69q-48 -186 -329 -186q-131 0 -201 54.5t-70 142.5q0 59 16 111l63 22l9 -4q-11 -49 -11 -91q0 -76 48 -116.5t164 -40.5q90 0 153.5 26t86.5 64
q1 3 2.5 9t2.5 9h-41q-91 0 -137 33t-46 89q0 74 44.5 137.5t103.5 63.5q68 0 110 -71.5t42 -168.5v-5h79zM548 78h43v6q0 60 -27.5 110.5t-64.5 50.5q-28 0 -54 -34t-26 -76q0 -57 129 -57z" />
    <glyph glyph-name="uniFED7" unicode="&#x642;" horiz-adv-x="436" arabic-form="initial" 
d="M215 642l-49 -77l-81 57l49 76zM356 642l-51 -77l-81 57l51 76zM224 456q68 0 110 -71.5t42 -168.5q0 -73 -13.5 -116.5t-47.5 -66.5q-38 -20 -103.5 -26.5t-211.5 -6.5l20 78q236 0 283 22q5 16 7 61q-54 -13 -105 -13q-64 0 -96 31t-32 86q0 70 44.5 130.5t102.5 60.5z
M141 275q0 -50 80 -50q50 0 90 9q-4 56 -30.5 100t-60.5 44q-30 0 -54.5 -31t-24.5 -72z" />
    <glyph glyph-name="uniFED8" unicode="&#x642;" horiz-adv-x="443" arabic-form="medial" 
d="M233 561l-49 -77l-81 57l49 76zM374 561l-51 -77l-81 57l51 76zM462 78q41 0 41 -27q0 -19 -13.5 -35t-47.5 -16h-63q-73 0 -148 28q-77 -28 -180 -28h-51l20 78h95q18 0 26 1q-57 49 -57 110q0 67 49 124t110 57q52 0 93 -48.5t41 -104.5q0 -82 -55 -134q37 -5 71 -5h69
zM149 202q0 -28 23 -53.5t64 -42.5q75 38 75 100q0 32 -25.5 59t-53.5 27q-30 0 -56.5 -29t-26.5 -61z" />
    <glyph glyph-name="uniFEDA" unicode="&#x643;" horiz-adv-x="841" arabic-form="final" 
d="M860 78q41 0 41 -27q0 -19 -13.5 -35t-47.5 -16q-91 0 -126 58q-27 -36 -86.5 -52.5t-176.5 -16.5h-68q-170 0 -254 42.5t-84 141.5q0 66 16 112l59 22l8 -4q-10 -50 -10 -91q0 -44 18 -73t56.5 -44.5t88.5 -21.5t123 -6h70q147 0 189 30q7 31 7 79v488l71 18l7 -3v-490
q0 -62 23.5 -86.5t88.5 -24.5zM322 262l-5 48q30 0 46 1q-19 27 -19 59q0 36 22.5 57.5t60.5 21.5q33 0 70 -15l-14 -46q-30 11 -50 11q-42 0 -42 -39q0 -28 21 -47q56 3 96 9l5 -46q-77 -10 -191 -14z" />
    <glyph glyph-name="uniFEDB" unicode="&#x643;" horiz-adv-x="416" arabic-form="initial" 
d="M421 646l-26 -98l-259 -145q135 -88 181.5 -147t46.5 -113q0 -143 -269 -143h-95l19 78h75q74 0 132.5 12.5t77.5 28.5q0 53 -58.5 107t-176.5 129l-4 6l21 102l328 186z" />
    <glyph glyph-name="uniFEDC" unicode="&#x643;" horiz-adv-x="492" arabic-form="medial" 
d="M511 78q41 0 41 -27q0 -19 -13 -35t-47 -16q-79 0 -142 74q-25 -46 -89 -60t-194 -14h-67l19 78h104q158 0 185 41q-47 75 -239 236l-4 6l21 102l328 186l7 -3l-26 -98l-256 -143q134 -126 220 -221q37 -42 55 -60t43.5 -32t53.5 -14z" />
    <glyph glyph-name="uniFEDE" unicode="&#x644;" horiz-adv-x="674" arabic-form="final" 
d="M693 78q41 0 41 -27q0 -19 -13 -35t-47 -16q-67 0 -101 33q-20 -114 -92.5 -166.5t-198.5 -52.5q-114 0 -175.5 56.5t-61.5 149.5q0 62 16 112l63 22l8 -4q-10 -50 -10 -92q0 -81 39 -123.5t136 -42.5q124 0 183 71q23 50 23 155v546l71 18l7 -3v-491q0 -70 27 -90
t85 -20z" />
    <glyph glyph-name="uniFEDF" unicode="&#x644;" horiz-adv-x="264" arabic-form="initial" 
d="M0 0l20 78q68 0 94 19q7 32 7 79v488l70 18l8 -3v-494q0 -104 -49.5 -144.5t-149.5 -40.5z" />
    <glyph glyph-name="uniFEE0" unicode="&#x644;" horiz-adv-x="292" arabic-form="medial" 
d="M311 78q41 0 41 -27q0 -19 -13 -35t-47 -16q-92 0 -127 59q-45 -59 -165 -59l20 78q68 0 94 19q7 32 7 79v488l70 18l8 -3v-491q0 -70 27 -90t85 -20z" />
    <glyph glyph-name="uniFEE2" unicode="&#x645;" horiz-adv-x="573" arabic-form="final" 
d="M592 78q41 0 41 -27q0 -23 -17 -37t-45 -14q-66 0 -106 39q-34 -51 -79 -51q-106 0 -226 147q-22 -23 -35 -42q-9 -33 0 -153.5t32 -269.5l-65 -32l-8 5q-39 265 -39 350q0 63 14.5 104t51.5 85q50 60 112 100t106 40q41 0 70.5 -32t74.5 -123q28 -57 49 -73t69 -16z
M374 65q29 0 53 29q-3 4 -7 14q-61 136 -98 136q-36 0 -110 -60q45 -56 88 -87.5t74 -31.5z" />
    <glyph glyph-name="uniFEE3" unicode="&#x645;" horiz-adv-x="509" arabic-form="initial" 
d="M287 322q68 0 117.5 -69t49.5 -158q0 -50 -26 -78.5t-76 -28.5q-40 0 -94.5 19.5t-106.5 56.5q-48 -64 -151 -64l19 78q33 0 51.5 14t38.5 50q4 7 18.5 34t23 41t25.5 37t31.5 35.5t36 22.5t43.5 10zM376 78q8 39 -23 102.5t-68 63.5q-24 0 -42 -22.5t-48 -79.5l-3 -6
t-3 -5t-3 -6q89 -59 147 -59q28 0 43 12z" />
    <glyph glyph-name="uniFEE4" unicode="&#x645;" horiz-adv-x="532" arabic-form="medial" 
d="M550 78q42 0 42 -27q0 -23 -17 -37t-45 -14q-62 0 -101 33q-23 -45 -78 -45q-93 0 -199 76q-30 -39 -60 -51.5t-92 -12.5l21 78q30 0 47 12t41 50q6 10 23 41t30 50.5t32.5 43t43 35.5t49.5 12q22 0 41.5 -10t31 -19.5t28.5 -37.5t22.5 -39t23.5 -49q28 -56 49 -72.5
t67 -16.5zM333 65q37 0 53 25q-2 3 -4.5 9t-3.5 9q-31 74 -52 105t-41 31q-24 0 -47 -31.5t-51 -88.5q89 -59 146 -59z" />
    <glyph glyph-name="uniFEE6" unicode="&#x646;" horiz-adv-x="653" arabic-form="final" 
d="M360 392l-51 -77l-82 57l51 76zM663 78q50 0 50 -27q0 -11 -4 -21.5t-18.5 -20t-38.5 -9.5q-46 0 -81 26q-15 -104 -93 -158t-196 -54q-114 0 -175.5 56.5t-61.5 149.5q0 62 16 112l63 22l8 -4q-10 -50 -10 -92q0 -81 39 -123.5t136 -42.5q129 0 191 77q12 28 14 56
t-7.5 62.5t-19.5 60t-30 71.5l70 49h6q3 -8 13 -38t19 -54t18 -41q30 -57 92 -57z" />
    <glyph glyph-name="uniFEE7" unicode="&#x646;" horiz-adv-x="277" arabic-form="initial" 
d="M148 449l-82 57l51 76l82 -56zM0 0l20 78h9q80 0 105 12q6 15 6 34t-3 34.5t-13 41.5t-16 40t-20 45l68 51h9q52 -109 52 -180q0 -73 -49 -122q-20 -19 -54 -26.5t-104 -7.5h-10z" />
    <glyph glyph-name="uniFEE8" unicode="&#x646;" horiz-adv-x="316" arabic-form="medial" 
d="M276 457l-51 -77l-82 57l51 76zM336 78q40 0 40 -27q0 -19 -13 -35t-47 -16q-90 0 -145 49q-49 -49 -150 -49h-21l20 78h22q59 0 84 19q19 27 48 152l77 19l10 -6q-22 -100 -48 -153q49 -31 123 -31z" />
    <glyph glyph-name="uniFEEA" unicode="&#x647;" horiz-adv-x="435" arabic-form="final" 
d="M456 78q24 0 31.5 -6.5t7.5 -20.5q0 -19 -13.5 -35t-47.5 -16q-129 0 -161 80q-39 -9 -75 -9q-78 0 -123 30.5t-45 81.5q0 59 61 119t169 93v49l71 32l7 -2v-310q0 -54 25.5 -70t92.5 -16zM203 148q29 0 57 6v10v150q-67 -21 -112.5 -52.5t-53.5 -62.5q8 -25 41 -38
t68 -13z" />
    <glyph glyph-name="uniFEEB" unicode="&#x647;" horiz-adv-x="533" arabic-form="initial" 
d="M130 426q170 -100 237 -155q121 -97 121 -179q0 -96 -140 -96q-88 0 -154 29q-61 -25 -148 -25h-46l19 78h98q-42 47 -42 109q0 41 20 80.5t54 58.5q-49 23 -51 24l25 74zM196 278q-23 0 -40 -26t-17 -58q0 -67 66 -99q46 30 46 94q0 36 -16.5 62.5t-38.5 26.5zM348 68
q59 0 72 15q-1 55 -107 138q2 -20 2 -32q0 -66 -46 -115q35 -6 79 -6z" />
    <glyph glyph-name="uniFEEC" unicode="&#x647;" horiz-adv-x="428" arabic-form="medial" 
d="M447 78q41 0 41 -28q0 -22 -16.5 -36t-43.5 -14h-67q32 -40 32 -89q0 -45 -37.5 -76.5t-90.5 -31.5q-88 0 -143 53.5t-59 143.5h-63l19 78h50q23 131 125 253l50 43l7 1q66 -70 90.5 -109.5t24.5 -77.5q0 -28 -14 -59.5t-35 -50.5h130zM240 280q-81 -106 -95 -204
q66 0 105 28t39 76q0 40 -49 100zM327 -103q1 49 -35 78t-97 29q-29 0 -54 -10q7 -52 43 -83t90 -31q34 0 53 17z" />
    <glyph glyph-name="uniFEEE" unicode="&#x648;" horiz-adv-x="429" arabic-form="final" 
d="M447 78q42 0 42 -27q0 -19 -13.5 -35t-47.5 -16h-74q-27 -76 -100.5 -124.5t-191.5 -52.5l-42 58l5 8q194 8 256 111h-30q-91 0 -136.5 33.5t-45.5 94.5q0 72 44 133t103 61q67 0 109.5 -70t42.5 -169v-5h79zM261 78h43v6q0 63 -28.5 111.5t-62.5 48.5q-30 0 -55 -30.5
t-25 -76.5q0 -59 128 -59z" />
    <glyph glyph-name="uniFEF0" unicode="&#x649;" horiz-adv-x="738" arabic-form="final" 
d="M316 -186q-131 0 -201 54.5t-70 142.5q0 59 16 111l63 22l9 -4q-11 -49 -11 -91q0 -76 48 -116.5t164 -40.5q113 0 196 26.5t97 64.5q0 23 -36.5 41.5t-127.5 42.5l23 73q22 -6 87 -25.5t105.5 -28t79.5 -8.5q40 0 40 -28q0 -11 -4 -21t-18.5 -19.5t-38.5 -9.5h-39
q-11 -88 -114.5 -137t-267.5 -49z" />
    <glyph glyph-name="uniFEF2" unicode="&#x64a;" horiz-adv-x="738" arabic-form="final" 
d="M316 -186q-131 0 -201 54.5t-70 142.5q0 59 16 111l63 22l9 -4q-11 -49 -11 -91q0 -76 48 -116.5t164 -40.5q113 0 196 26.5t97 64.5q0 23 -36.5 41.5t-127.5 42.5l23 73q22 -6 87 -25.5t105.5 -28t79.5 -8.5q40 0 40 -28q0 -11 -4 -21t-18.5 -19.5t-38.5 -9.5h-39
q-11 -88 -114.5 -137t-267.5 -49zM255 -395l-81 57l49 75l81 -55zM398 -395l-81 57l51 75l81 -55z" />
    <glyph glyph-name="uniFEF3" unicode="&#x64a;" horiz-adv-x="297" arabic-form="initial" 
d="M0 0l20 78h29q80 0 105 12q6 24 7.5 41.5t-7.5 47t-17.5 52t-23.5 54.5l63 51h9q52 -119 52 -180q0 -33 -13 -67t-36 -55q-20 -19 -54 -26.5t-104 -7.5h-30zM90 -209l-81 57l49 75l81 -55zM233 -209l-81 57l51 75l81 -55z" />
    <glyph glyph-name="uniFEF4" unicode="&#x64a;" horiz-adv-x="337" arabic-form="medial" 
d="M357 78q40 0 40 -27q0 -19 -13 -35t-47 -16q-108 0 -164 48q-47 -48 -139 -48h-34l20 78h30q51 0 76 19q19 31 48 152l77 19l10 -6q-23 -104 -47 -153q51 -31 143 -31zM37 -152l49 75l81 -55l-49 -77zM180 -152l51 75l81 -55l-51 -77z" />
    <glyph glyph-name=".notdef" horiz-adv-x="540" 
d="M80 0v688h380v-688h-380zM156 72h227v544h-227v-544z" />
    <glyph glyph-name=".null" 
 />
    <glyph glyph-name="nonmarkingreturn" horiz-adv-x="333" 
 />
    <glyph glyph-name="NULL" 
 />
    <glyph glyph-name="NULL" 
 />
    <glyph glyph-name="CR" unicode="&#xd;" horiz-adv-x="240" 
 />
    <glyph glyph-name="space" unicode=" " horiz-adv-x="240" 
 />
    <glyph glyph-name="exclam" unicode="!" horiz-adv-x="218" 
d="M73 193l-17 455h106l-18 -448zM109 -10q-26 0 -45 18.5t-19 44.5t19 44.5t45 18.5t45 -18.5t19 -44.5t-19 -44.5t-45 -18.5z" />
    <glyph glyph-name="quotedbl" unicode="&#x22;" horiz-adv-x="400" 
d="M85 418v230h95l-38 -230h-57zM245 418v230h95l-38 -230h-57z" />
    <glyph glyph-name="numbersign" unicode="#" horiz-adv-x="540" 
d="M524 436h-85l-33 -217h77v-66h-87l-23 -153h-78l23 153h-146l-23 -153h-78l23 153h-78v66h88l33 217h-80v66h90l22 146h78l-22 -146h146l22 146h78l-22 -146h75v-66zM328 219l33 217h-146l-33 -217h146z" />
    <glyph glyph-name="dollar" unicode="$" horiz-adv-x="540" 
d="M506 175q0 -78 -48 -125t-135 -58v-133h-79v130q-123 4 -211 73l44 66q80 -62 186 -62q147 0 147 105q0 45 -30.5 70t-114.5 54l-17 6q-37 13 -60.5 23t-50.5 26.5t-42 34.5t-25.5 44.5t-10.5 59.5q0 75 53 118.5t132 50.5v131h79v-131q92 -9 172 -62l-42 -66
q-84 53 -177 53q-53 0 -88 -22t-35 -68q0 -36 28 -59.5t103 -50.5l17 -6q29 -10 42.5 -15t39.5 -16.5t40 -21t32.5 -25.5t27.5 -33t16 -40.5t7 -50.5z" />
    <glyph glyph-name="percent" unicode="%" horiz-adv-x="960" 
d="M242 280q-83 0 -137.5 50.5t-54.5 140.5q0 88 54.5 138.5t137.5 50.5q82 0 136.5 -50.5t54.5 -138.5q0 -90 -54.5 -140.5t-136.5 -50.5zM280 -12l-59 39l460 633l59 -38zM242 349q49 0 77 34.5t28 86.5q0 53 -27.5 87t-77.5 34t-78 -33.5t-28 -85.5q0 -54 28 -88.5
t78 -34.5zM719 -12q-83 0 -137.5 50.5t-54.5 140.5q0 88 54.5 138.5t137.5 50.5q82 0 136.5 -50.5t54.5 -138.5q0 -90 -54.5 -140.5t-136.5 -50.5zM719 57q49 0 77 34.5t28 86.5q0 53 -27.5 87t-77.5 34t-78 -33.5t-28 -85.5q0 -54 28 -88.5t78 -34.5z" />
    <glyph glyph-name="ampersand" unicode="&#x26;" horiz-adv-x="668" 
d="M653 46l-56 -58l-106 90q-106 -90 -234 -90q-93 0 -152.5 44.5t-59.5 123.5q0 67 34.5 110.5t95.5 81.5q-48 44 -68 77.5t-20 73.5q0 66 48.5 113.5t129.5 47.5q76 0 125.5 -39.5t49.5 -104.5q0 -42 -21.5 -77t-47 -54.5t-68.5 -44.5l184 -155q43 53 80 133l79 -32
q-44 -91 -98 -152zM173 500q0 -27 15.5 -50.5t57.5 -61.5q53 29 81 57t28 68q0 33 -24.5 56t-65.5 23q-47 0 -69.5 -26.5t-22.5 -65.5zM263 66q96 0 169 62l-200 170q-46 -29 -70.5 -60.5t-24.5 -75.5q0 -40 33.5 -68t92.5 -28z" />
    <glyph glyph-name="quotesingle" unicode="'" horiz-adv-x="240" 
d="M85 418v230h95l-38 -230h-57z" />
    <glyph glyph-name="parenleft" unicode="(" horiz-adv-x="360" 
d="M286 -136q-106 97 -159.5 196.5t-53.5 242.5q0 100 29 182t71.5 138t112.5 120l51 -43q-84 -85 -129 -177.5t-45 -219.5q0 -126 45 -218.5t129 -177.5z" />
    <glyph glyph-name="parenright" unicode=")" horiz-adv-x="360" 
d="M74 -136l-51 43q84 85 129 177.5t45 218.5q0 127 -45 219.5t-129 177.5l51 43q70 -64 112.5 -120t71.5 -138t29 -182q0 -143 -53.5 -242.5t-159.5 -196.5z" />
    <glyph glyph-name="asterisk" unicode="*" horiz-adv-x="500" 
d="M441 518l-149 -30l105 -110l-75 -51l-72 129l-72 -129l-75 51l105 110l-149 30l29 81l136 -61l-20 150h91l-19 -150l136 61z" />
    <glyph glyph-name="plus" unicode="+" horiz-adv-x="540" 
d="M229 60v157h-159v76h159v157h82v-157h159v-76h-159v-157h-82z" />
    <glyph glyph-name="comma" unicode="," horiz-adv-x="188" 
d="M76 -148l-49 27q47 65 47 98q0 13 -11 21t-22 20t-11 35q0 26 18.5 44.5t45.5 18.5q26 0 45 -19.5t19 -56.5q0 -85 -82 -188z" />
    <glyph glyph-name="hyphen" unicode="-" horiz-adv-x="380" 
d="M50 228v80h280v-80h-280z" />
    <glyph glyph-name="period" unicode="." horiz-adv-x="188" 
d="M94 -10q-26 0 -45 18.5t-19 44.5t19 44.5t45 18.5t45 -18.5t19 -44.5t-19 -44.5t-45 -18.5z" />
    <glyph glyph-name="slash" unicode="/" horiz-adv-x="500" 
d="M121 -138l-76 24l335 886l75 -24z" />
    <glyph glyph-name="zero" unicode="0" horiz-adv-x="540" 
d="M264 -12q-114 0 -173 85.5t-59 249.5q0 94 21.5 162.5t58 105t77.5 53t88 16.5q111 0 171 -88t60 -250q0 -95 -20.5 -163t-57 -104t-77 -51.5t-89.5 -15.5zM269 64q75 0 110 61.5t35 197.5q0 261 -141 261q-147 0 -147 -261q0 -259 143 -259z" />
    <glyph glyph-name="one" unicode="1" horiz-adv-x="540" 
d="M339 78h137v-78h-402v78h173v471l-147 -83l-37 55l184 127h92v-570z" />
    <glyph glyph-name="two" unicode="2" horiz-adv-x="540" 
d="M199 78h273v-78h-423v44q190 192 236 246q88 104 88 172q0 56 -29 85.5t-82 29.5q-84 0 -165 -68l-49 58q96 93 225 93q84 0 139.5 -49.5t55.5 -132.5q0 -86 -58.5 -168t-210.5 -232z" />
    <glyph glyph-name="three" unicode="3" horiz-adv-x="540" 
d="M336 352q136 -35 136 -167q0 -88 -62.5 -142.5t-180.5 -54.5q-103 0 -177 40l31 69q66 -31 145 -31q71 0 109.5 29.5t38.5 83.5q0 62 -36.5 93t-130.5 31h-44l6 71h75q68 25 94.5 53t26.5 75q0 35 -30 59.5t-85 24.5q-76 0 -157 -63l-47 54q94 83 207 83q98 0 151 -44.5
t53 -114.5q0 -52 -32.5 -90t-90.5 -59z" />
    <glyph glyph-name="four" unicode="4" horiz-adv-x="540" 
d="M510 227v-78h-90v-149h-95v149h-296v39l188 460h106l-182 -421h184l16 204h79v-204h90z" />
    <glyph glyph-name="five" unicode="5" horiz-adv-x="540" 
d="M256 405q109 0 167 -53t58 -150q0 -99 -61 -156.5t-182 -57.5q-101 0 -179 41l32 70q69 -33 146 -33q71 0 110.5 36t39.5 91q0 67 -36 101.5t-128 34.5q-60 0 -95 -11l-31 31v299h362l-10 -77h-261v-174q35 8 68 8z" />
    <glyph glyph-name="six" unicode="6" horiz-adv-x="540" 
d="M302 413q83 0 139 -52t56 -154q0 -113 -66 -166t-160 -53q-106 0 -162 72t-56 195q0 194 76 299.5t198 105.5q60 0 125 -22l-18 -71q-53 19 -110 19q-148 0 -176 -224q79 51 154 51zM275 63q64 0 99 36.5t35 99.5q0 73 -30.5 106.5t-102.5 33.5q-63 0 -133 -46
q-1 -12 -1 -38q0 -94 34 -143t99 -49z" />
    <glyph glyph-name="seven" unicode="7" horiz-adv-x="540" 
d="M55 648h439v-36q-232 -311 -277 -612h-98q41 276 255 570h-329z" />
    <glyph glyph-name="eight" unicode="8" horiz-adv-x="540" 
d="M359 344q79 -38 116 -75.5t37 -99.5q0 -85 -62 -133t-176 -48t-178 48t-64 130q0 57 36 99.5t114 78.5q-116 61 -116 155q0 75 59 118t151 43q97 0 150.5 -46t53.5 -111q0 -94 -121 -159zM274 586q-55 0 -84.5 -24.5t-29.5 -64.5q0 -38 31.5 -65.5t101.5 -58.5
q46 21 69.5 52t23.5 65q0 45 -29 70.5t-83 25.5zM275 62q70 0 105.5 29.5t35.5 72.5q0 29 -12 51t-40.5 40.5t-49.5 28.5t-66 29q-120 -49 -120 -133q0 -52 38 -85t109 -33z" />
    <glyph glyph-name="nine" unicode="9" horiz-adv-x="540" 
d="M268 660q110 0 164.5 -68.5t54.5 -194.5q0 -200 -73 -304.5t-202 -104.5q-64 0 -129 24l21 69q57 -21 111 -21q149 0 181 224q-81 -56 -160 -56q-85 0 -139.5 54.5t-54.5 161.5q0 106 68 161t158 55zM262 303q65 0 140 48q1 15 1 46q0 193 -134 193q-68 0 -105 -39
t-37 -105q0 -71 32 -107t103 -36z" />
    <glyph glyph-name="colon" unicode=":" horiz-adv-x="188" 
d="M94 300q-26 0 -45 18.5t-19 44.5t19 44.5t45 18.5t45 -18.5t19 -44.5t-19 -44.5t-45 -18.5zM94 -10q-26 0 -45 18.5t-19 44.5t19 44.5t45 18.5t45 -18.5t19 -44.5t-19 -44.5t-45 -18.5z" />
    <glyph glyph-name="uni003B" unicode=";" horiz-adv-x="188" 
d="M94 300q-26 0 -45 18.5t-19 44.5t19 44.5t45 18.5t45 -18.5t19 -44.5t-19 -44.5t-45 -18.5zM76 -148l-49 27q47 65 47 98q0 13 -11 21t-22 20t-11 35q0 26 18.5 44.5t45.5 18.5q26 0 45 -19.5t19 -56.5q0 -85 -82 -188z" />
    <glyph glyph-name="less" unicode="&#x3c;" horiz-adv-x="540" 
d="M470 393l-339 -137l339 -138l-31 -70l-369 150v115l369 150z" />
    <glyph glyph-name="equal" unicode="=" horiz-adv-x="540" 
d="M70 297v76h400v-76h-400zM70 137v76h400v-76h-400z" />
    <glyph glyph-name="greater" unicode="&#x3e;" horiz-adv-x="540" 
d="M101 463l369 -150v-115l-369 -150l-31 70l339 137l-339 138z" />
    <glyph glyph-name="question" unicode="?" horiz-adv-x="455" 
d="M171 195v37q0 51 20.5 90t72.5 79q36 29 49 48.5t13 43.5q0 39 -27.5 61.5t-77.5 22.5q-76 0 -150 -64l-51 60q92 87 211 87q83 0 136 -42.5t53 -116.5q0 -48 -18.5 -81.5t-64.5 -65.5q-46 -33 -64 -64t-18 -77v-10zM212 -10q-26 0 -45 18.5t-19 44.5t19 44.5t45 18.5
t45 -18.5t19 -44.5t-19 -44.5t-45 -18.5z" />
    <glyph glyph-name="at" unicode="@" horiz-adv-x="908" 
d="M474 661q183 0 286 -102t103 -260q0 -96 -47.5 -162.5t-133.5 -66.5q-76 0 -109 44q-70 -45 -145 -45q-84 0 -127 57.5t-43 142.5q0 104 65 158t147 54q87 0 157 -32v-251q0 -58 58 -58q47 0 69 44t22 115q0 128 -73.5 209.5t-235.5 81.5q-151 0 -243 -89.5t-92 -244.5
q0 -143 85 -223.5t230 -80.5q106 0 192 35l24 -68q-98 -42 -216 -42q-177 0 -289.5 104.5t-112.5 274.5q0 191 119.5 298t309.5 107zM346 271q0 -131 97 -131q51 0 102 26v241q-37 8 -70 8q-58 0 -93.5 -36.5t-35.5 -107.5z" />
    <glyph glyph-name="A" unicode="A" horiz-adv-x="633" 
d="M372 648l244 -642v-6h-96l-68 185h-276l-67 -185h-92v6l243 642h112zM204 261h220l-110 300z" />
    <glyph glyph-name="B" unicode="B" horiz-adv-x="596" 
d="M416 341q69 -17 102 -61t33 -99q0 -80 -61 -130.5t-174 -50.5h-234v648h226q102 0 160 -46.5t58 -120.5q0 -103 -110 -140zM310 572h-136v-204h121q61 0 99 25.5t38 81.5q0 43 -31.5 70t-90.5 27zM318 76q72 0 104 30t32 77q0 51 -34 81t-101 30h-145v-218h144z" />
    <glyph glyph-name="C" unicode="C" horiz-adv-x="573" 
d="M344 -12q-149 0 -224 89t-75 245q0 89 25 156.5t68 106t94 57t110 18.5q115 0 211 -59l-40 -70q-78 49 -167 49q-104 0 -153.5 -68t-49.5 -185q0 -121 52 -190t153 -69q87 0 174 50l37 -67q-108 -63 -215 -63z" />
    <glyph glyph-name="D" unicode="D" horiz-adv-x="662" 
d="M277 648q165 0 252.5 -77t87.5 -247q0 -163 -96 -243.5t-261 -80.5h-178v648h195zM249 78q134 0 203 52.5t69 193.5q0 127 -59 186.5t-183 59.5h-105v-492h75z" />
    <glyph glyph-name="E" unicode="E" horiz-adv-x="541" 
d="M174 78h318v-78h-410v648h405v-78h-313v-202h274l-10 -76h-264v-214z" />
    <glyph glyph-name="F" unicode="F" horiz-adv-x="516" 
d="M487 570h-313v-218h273l-10 -78h-263v-274h-92v648h405v-78z" />
    <glyph glyph-name="G" unicode="G" horiz-adv-x="643" 
d="M338 359h248v-316q-117 -55 -232 -55q-158 0 -233.5 91t-75.5 244q0 171 88 254t221 83q121 0 216 -59l-40 -70q-78 49 -169 49q-113 0 -165.5 -67.5t-52.5 -185.5q0 -259 213 -259q70 0 138 25v188h-166z" />
    <glyph glyph-name="H" unicode="H" horiz-adv-x="706" 
d="M532 648h92v-648h-92v291h-358v-291h-92v648h92v-279h358v279z" />
    <glyph glyph-name="I" unicode="I" horiz-adv-x="256" 
d="M82 0v648h92v-648h-92z" />
    <glyph glyph-name="J" unicode="J" horiz-adv-x="449" 
d="M178 -12q-103 0 -178 58l48 69q61 -45 125 -45q54 0 82 33t28 92v453h92v-456q0 -107 -55.5 -155.5t-141.5 -48.5z" />
    <glyph glyph-name="K" unicode="K" horiz-adv-x="592" 
d="M282 337l300 -331v-6h-111l-297 331v-331h-92v648h92v-309l291 309h105v-6z" />
    <glyph glyph-name="L" unicode="L" horiz-adv-x="510" 
d="M174 80h318v-80h-410v648h92v-568z" />
    <glyph glyph-name="M" unicode="M" horiz-adv-x="822" 
d="M638 648h102v-648h-90v498q-15 -43 -39 -90l-156 -303h-89l-153 303q-33 65 -43 89v-497h-88v648h105l146 -286q59 -116 79 -175q18 58 79 175z" />
    <glyph glyph-name="N" unicode="N" horiz-adv-x="696" 
d="M526 648h88v-648h-102l-285 420q-48 72 -57 92v-512h-88v648h97l293 -429q43 -62 54 -88v517z" />
    <glyph glyph-name="O" unicode="O" horiz-adv-x="701" 
d="M347 -12q-145 0 -223.5 92t-78.5 246q0 85 25 150.5t68.5 104.5t98 59t117.5 20q145 0 223.5 -92t78.5 -246q0 -85 -25 -150.5t-68.5 -104.5t-98 -59t-117.5 -20zM347 66q105 0 159 69.5t54 185.5q0 120 -52 190.5t-154 70.5q-105 0 -159 -69.5t-54 -185.5
q0 -120 52 -190.5t154 -70.5z" />
    <glyph glyph-name="P" unicode="P" horiz-adv-x="564" 
d="M298 648q115 0 177 -53.5t62 -143.5q0 -91 -63.5 -151.5t-183.5 -60.5h-116v-239h-92v648h216zM283 317q79 0 118.5 34t39.5 96q0 123 -145 123h-122v-253h109z" />
    <glyph glyph-name="Q" unicode="Q" horiz-adv-x="701" 
d="M678 -69l-49 -74l-227 135q-24 -4 -55 -4q-145 0 -223.5 92t-78.5 246q0 85 25 150.5t68.5 104.5t98 59t117.5 20q145 0 223.5 -92t78.5 -246q0 -110 -44 -186t-118 -114zM141 327q0 -120 52 -190.5t154 -70.5q105 0 159 69.5t54 185.5q0 120 -52 190.5t-154 70.5
q-105 0 -159 -69.5t-54 -185.5z" />
    <glyph glyph-name="R" unicode="R" horiz-adv-x="581" 
d="M370 263l193 -257v-6h-106l-187 253h-96v-253h-92v648h211q113 0 173.5 -52t60.5 -139q0 -70 -40 -122.5t-117 -71.5zM174 570v-241h105q75 0 113.5 32.5t38.5 91.5q0 117 -140 117h-117z" />
    <glyph glyph-name="S" unicode="S" horiz-adv-x="548" 
d="M263 -12q-138 0 -233 74l44 66q80 -62 186 -62q147 0 147 105q0 45 -30.5 70t-114.5 54l-17 6q-37 13 -60.5 23t-50.5 26.5t-42 34.5t-25.5 44.5t-10.5 59.5q0 83 64 127t154 44q123 0 218 -64l-42 -66q-84 53 -177 53q-53 0 -88 -22t-35 -68q0 -36 28 -59.5t103 -50.5
l17 -6q29 -10 42.5 -15t39.5 -16.5t40 -21t32.5 -25.5t27.5 -33t16 -40.5t7 -50.5q0 -91 -64 -139t-176 -48z" />
    <glyph glyph-name="T" unicode="T" horiz-adv-x="577" 
d="M559 648v-80h-224v-568h-92v568h-225v80h541z" />
    <glyph glyph-name="U" unicode="U" horiz-adv-x="674" 
d="M334 -12q-133 0 -200.5 75t-67.5 196v389h92v-369q0 -211 182 -211q176 0 176 205v375h92v-386q0 -140 -76 -207t-198 -67z" />
    <glyph glyph-name="V" unicode="V" horiz-adv-x="623" 
d="M514 648h92v-6l-239 -642h-112l-238 642v6h96l201 -560z" />
    <glyph glyph-name="W" unicode="W" horiz-adv-x="917" 
d="M805 648h90v-6l-181 -642h-110l-109 398q-22 80 -37 167q-21 -110 -36 -167l-105 -398h-110l-185 642v6h93l112 -408q17 -61 37 -153q15 96 31 153l113 408h108l115 -408q12 -43 34 -154q14 77 35 154z" />
    <glyph glyph-name="X" unicode="X" horiz-adv-x="585" 
d="M347 337l221 -337h-108l-170 273l-176 -273h-97l218 333l-209 315h107l161 -252l162 252h97z" />
    <glyph glyph-name="Y" unicode="Y" horiz-adv-x="599" 
d="M582 648v-6l-240 -389v-253h-92v256l-233 386v6h101l181 -311l188 311h95z" />
    <glyph glyph-name="Z" unicode="Z" horiz-adv-x="556" 
d="M511 648v-45l-353 -523h343v-80h-466v45l355 523h-334l10 80h445z" />
    <glyph glyph-name="bracketleft" unicode="[" horiz-adv-x="360" 
d="M90 -118v853h250v-76h-162v-701h162v-76h-250z" />
    <glyph glyph-name="backslash" unicode="\" horiz-adv-x="500" 
d="M379 -138l-334 886l75 24l335 -886z" />
    <glyph glyph-name="bracketright" unicode="]" horiz-adv-x="360" 
d="M20 -118v76h162v701h-162v76h250v-853h-250z" />
    <glyph glyph-name="asciicircum" unicode="^" horiz-adv-x="540" 
d="M475 327h-93l-115 230l-113 -230h-89l168 321h74z" />
    <glyph glyph-name="underscore" unicode="_" horiz-adv-x="540" 
d="M50 -153v76h440v-76h-440z" />
    <glyph glyph-name="grave" unicode="`" horiz-adv-x="287" 
d="M231 489l-174 95l51 71l156 -127z" />
    <glyph glyph-name="a" unicode="a" horiz-adv-x="468" 
d="M249 450q154 0 154 -145v-305h-78l-5 38q-69 -50 -159 -50q-58 0 -94.5 32t-36.5 84q0 42 23.5 74t64.5 50.5t91 28.5t108 11v22q0 45 -18 65.5t-61 20.5q-73 0 -152 -52l-38 60q96 66 201 66zM122 113q0 -52 62 -52q68 0 133 40v104q-87 -4 -141 -27t-54 -65z" />
    <glyph glyph-name="b" unicode="b" horiz-adv-x="512" 
d="M303 450q86 0 130 -61t44 -157q0 -66 -23 -115.5t-61.5 -76.5t-80 -39.5t-85.5 -12.5q-67 0 -157 29v671l86 10v-287q71 39 147 39zM224 59q71 0 116 40.5t45 134.5q0 142 -106 142q-59 0 -123 -29v-280q38 -8 68 -8z" />
    <glyph glyph-name="c" unicode="c" horiz-adv-x="419" 
d="M241 -12q-94 0 -150 52.5t-56 167.5q0 121 66 181.5t156 60.5q66 0 138 -38l-32 -66q-65 31 -113 31q-59 0 -92 -44.5t-33 -124.5q0 -146 124 -146q54 0 122 40l34 -61q-79 -53 -164 -53z" />
    <glyph glyph-name="d" unicode="d" horiz-adv-x="512" 
d="M356 688l86 10v-698h-78l-4 32q-74 -44 -142 -44q-87 0 -135 58.5t-48 160.5q0 114 63.5 178.5t162.5 64.5q43 0 95 -13v251zM127 209q0 -147 115 -147q58 0 114 33v272q-45 15 -88 15q-63 0 -102 -43.5t-39 -129.5z" />
    <glyph glyph-name="e" unicode="e" horiz-adv-x="464" 
d="M429 268q0 -16 -2 -64h-305q1 -75 36.5 -109t91.5 -34q66 0 135 41l33 -61q-82 -53 -172 -53q-96 0 -153.5 53.5t-57.5 169.5q0 102 55 170.5t157 68.5q87 0 134.5 -50.5t47.5 -131.5zM247 383q-101 0 -120 -116h218v4q0 112 -98 112z" />
    <glyph glyph-name="f" unicode="f" horiz-adv-x="323" 
d="M261 622q-75 0 -75 -94v-90h136l-9 -68h-127v-370h-86v370h-80v68h80v88q0 76 42 122t115 46q55 0 101 -17l-22 -68q-37 13 -75 13z" />
    <glyph glyph-name="g" unicode="g" horiz-adv-x="498" 
d="M316 71q89 -8 130.5 -34.5t41.5 -82.5q0 -70 -65.5 -111t-179.5 -41q-97 0 -155 31t-58 93q0 38 18.5 63t53.5 47q-30 21 -30 54q0 38 48 72q-72 39 -72 129q0 81 57 120t143 39q28 0 58 -5l149 62l30 -70l-102 -29q57 -44 57 -118q0 -81 -56.5 -118t-143.5 -37
q-39 0 -67 7q-13 -14 -13 -31q0 -16 18 -23t67 -11zM244 386q-57 0 -83.5 -26t-26.5 -68q0 -93 112 -93q108 0 108 90q0 45 -28.5 71t-81.5 26zM245 -131q65 0 108.5 17t43.5 56q0 27 -26.5 40t-88.5 18l-71 6q-32 3 -59 9q-40 -35 -40 -76q0 -70 133 -70z" />
    <glyph glyph-name="h" unicode="h" horiz-adv-x="513" 
d="M314 450q134 0 134 -136v-314h-86v279q0 54 -17.5 75t-62.5 21q-63 0 -126 -30v-345h-86v688l86 10v-291q82 43 158 43z" />
    <glyph glyph-name="i" unicode="i" horiz-adv-x="226" 
d="M112 527q-25 0 -43 18t-18 43t18 43.5t43 18.5q26 0 44 -18t18 -44q0 -25 -18.5 -43t-43.5 -18zM70 0v438l86 10v-448h-86z" />
    <glyph glyph-name="j" unicode="j" horiz-adv-x="226" 
d="M113 527q-25 0 -43 18t-18 43t18 43.5t43 18.5t43.5 -18t18.5 -44q0 -25 -18.5 -43t-43.5 -18zM15 -198q-50 0 -95 19l24 68q36 -13 61 -13q65 0 65 79v483l86 10v-491q0 -77 -36.5 -116t-104.5 -39z" />
    <glyph glyph-name="k" unicode="k" horiz-adv-x="461" 
d="M255 234l191 -228v-6h-105l-185 229v-229h-86v688l86 10v-462l186 202h95v-6z" />
    <glyph glyph-name="l" unicode="l" horiz-adv-x="226" 
d="M70 0v688l86 10v-698h-86z" />
    <glyph glyph-name="m" unicode="m" horiz-adv-x="771" 
d="M581 450q125 0 125 -136v-314h-86v279q0 54 -16 75t-55 21q-59 0 -121 -31q2 -20 2 -30v-314h-86v279q0 54 -15.5 75t-54.5 21q-56 0 -118 -30v-345h-86v438l86 10v-42q77 44 150 44q74 0 104 -49q86 49 171 49z" />
    <glyph glyph-name="n" unicode="n" horiz-adv-x="515" 
d="M316 450q134 0 134 -139v-311h-86v279q0 54 -17.5 75t-62.5 21q-63 0 -128 -31v-344h-86v438l86 10v-42q84 44 160 44z" />
    <glyph glyph-name="o" unicode="o" horiz-adv-x="507" 
d="M245 -12q-104 0 -157 65t-53 167q0 119 63 174.5t164 55.5q104 0 157 -64.5t53 -166.5q0 -119 -63 -175t-164 -56zM253 58q129 0 129 162q0 73 -31.5 116.5t-94.5 43.5q-131 0 -131 -160q0 -74 32 -118t96 -44z" />
    <glyph glyph-name="p" unicode="p" horiz-adv-x="512" 
d="M294 450q91 0 137 -63t46 -156q0 -114 -63.5 -178.5t-162.5 -64.5q-49 0 -95 13v-187h-86v624l86 10v-39q73 41 138 41zM244 56q63 0 102 43.5t39 129.5q0 147 -115 147q-58 0 -114 -33v-272q47 -15 88 -15z" />
    <glyph glyph-name="q" unicode="q" horiz-adv-x="512" 
d="M285 450q65 0 157 -29v-607h-86v213q-70 -39 -143 -39q-85 0 -131.5 60t-46.5 155q0 68 23 118.5t61.5 77t80 39t85.5 12.5zM237 62q56 0 119 29v280q-38 8 -68 8q-71 0 -116 -41.5t-45 -136.5q0 -66 28.5 -102.5t81.5 -36.5z" />
    <glyph glyph-name="r" unicode="r" horiz-adv-x="360" 
d="M284 450q32 0 61 -8l-16 -89q-34 12 -62 12q-69 0 -111 -67v-298h-86v439l86 9v-63q51 65 128 65z" />
    <glyph glyph-name="s" unicode="s" horiz-adv-x="421" 
d="M213 -12q-113 0 -193 59l38 61q73 -52 152 -52q93 0 93 61q0 24 -21.5 41.5t-75.5 31.5l-31 8q-70 18 -102.5 47.5t-32.5 78.5q0 56 46 91t118 35q90 0 171 -46l-35 -61q-74 39 -135 39q-36 0 -56.5 -14.5t-20.5 -38.5q0 -21 16.5 -32.5t57.5 -22.5l31 -8q84 -22 121 -55
t37 -88q0 -60 -46.5 -97.5t-131.5 -37.5z" />
    <glyph glyph-name="t" unicode="t" horiz-adv-x="362" 
d="M323 77l24 -61q-52 -28 -110 -28q-62 0 -98 35.5t-36 106.5v240h-88v68h88v99l86 14v-113h148l-9 -68h-139v-226q0 -84 62 -84q33 0 72 17z" />
    <glyph glyph-name="u" unicode="u" horiz-adv-x="511" 
d="M355 438l86 10v-448h-77l-5 33q-77 -45 -156 -45q-61 0 -99.5 34.5t-38.5 104.5v311l86 10v-296q0 -49 18.5 -69t65.5 -20q48 0 120 37v338z" />
    <glyph glyph-name="v" unicode="v" horiz-adv-x="451" 
d="M352 438h90v-6l-175 -432h-79l-179 432v6h94l106 -282q2 -4 22 -65q10 34 21 65z" />
    <glyph glyph-name="w" unicode="w" horiz-adv-x="668" 
d="M572 438h84v-6l-132 -432h-86l-80 268q-16 56 -21 79q-4 -22 -20 -79l-80 -268h-81l-144 432v6h94l79 -275q5 -17 15 -61q6 35 14 61l80 275h94l80 -275q8 -28 17 -71q7 42 14 71z" />
    <glyph glyph-name="x" unicode="x" horiz-adv-x="445" 
d="M276 226l156 -220v-6h-99l-111 169l-119 -169h-90v6l157 219l-150 207v6h98l107 -156l108 156h89v-6z" />
    <glyph glyph-name="y" unicode="y" horiz-adv-x="448" 
d="M351 438h88v-6l-167 -463q-33 -91 -73.5 -129t-104.5 -38q-44 0 -87 15l23 66q28 -9 57 -9q34 0 56.5 18.5t44.5 75.5l12 32h-23l-168 432v6h91l103 -280q25 -72 27 -77q7 23 25 77z" />
    <glyph glyph-name="z" unicode="z" horiz-adv-x="421" 
d="M148 74h243v-74h-366v39l244 325h-227l10 74h338v-38z" />
    <glyph glyph-name="braceleft" unicode="{" horiz-adv-x="360" 
d="M321 -127q-203 19 -203 155q0 19 8 79t8 84q0 44 -20 62t-69 20v70q49 2 69 20t20 62q0 24 -8 84t-8 79q0 136 203 155l14 -72q-73 -8 -101.5 -30t-28.5 -64q0 -20 7.5 -77.5t7.5 -75.5q0 -54 -26.5 -83t-64.5 -33q38 -4 64.5 -33t26.5 -83q0 -18 -7.5 -75.5t-7.5 -77.5
q0 -42 28.5 -64t101.5 -30z" />
    <glyph glyph-name="bar" unicode="|" horiz-adv-x="270" 
d="M96 -186v941h78v-941h-78z" />
    <glyph glyph-name="braceright" unicode="}" horiz-adv-x="360" 
d="M39 -127l-14 72q73 8 101.5 30t28.5 64q0 20 -7.5 77.5t-7.5 75.5q0 54 26.5 83t64.5 33q-38 4 -64.5 33t-26.5 83q0 18 7.5 75.5t7.5 77.5q0 42 -28.5 64t-101.5 30l14 72q203 -19 203 -155q0 -19 -8 -79t-8 -84q0 -44 20 -62t69 -20v-70q-49 -2 -69 -20t-20 -62
q0 -24 8 -84t8 -79q0 -136 -203 -155z" />
    <glyph glyph-name="asciitilde" unicode="~" horiz-adv-x="540" 
d="M346 206q-42 0 -92 25t-64 25q-38 0 -60 -43l-60 23q44 102 124 102q42 0 92 -25t64 -25q38 0 60 43l60 -23q-44 -102 -124 -102z" />
    <glyph glyph-name="uni00A0" unicode="&#xa0;" horiz-adv-x="240" 
 />
    <glyph glyph-name="exclamdown" unicode="&#xa1;" horiz-adv-x="218" 
d="M109 324q-26 0 -45 18.5t-19 44.5t19 44.5t45 18.5t45 -18.5t19 -44.5t-19 -44.5t-45 -18.5zM56 -208l18 448l71 7l17 -455h-106z" />
    <glyph glyph-name="cent" unicode="&#xa2;" horiz-adv-x="540" 
d="M454 41q-65 -43 -129 -51v-131h-78v132q-163 23 -163 217q0 100 46 159t117 76v141h78v-135q57 -5 119 -37l-32 -66q-65 31 -113 31q-59 0 -92 -44.5t-33 -124.5q0 -146 124 -146q54 0 122 40z" />
    <glyph glyph-name="sterling" unicode="&#xa3;" horiz-adv-x="540" 
d="M241 219q0 -75 -39 -143h287v-76h-421v76h52q37 66 37 141q0 41 -9 75h-82v67h64q-26 84 -26 128q0 76 53 124.5t142 48.5q107 0 191 -84l-52 -59q-69 63 -141 63q-104 0 -104 -95q0 -40 23 -126h189v-67h-172q8 -37 8 -73z" />
    <glyph glyph-name="currency" unicode="&#xa4;" horiz-adv-x="540" 
d="M507 96l-43 -42l-67 67q-52 -37 -127 -37q-72 0 -127 36l-66 -66l-43 42l66 66q-36 50 -36 122q0 71 36 121l-67 67l43 42l67 -67q52 37 127 37q72 0 127 -36l66 66l43 -42l-66 -66q36 -50 36 -122q0 -71 -36 -121zM145 284q0 -129 125 -129t125 129t-125 129t-125 -129z
" />
    <glyph glyph-name="yen" unicode="&#xa5;" horiz-adv-x="540" 
d="M530 648l-195 -331h140v-64h-164v-68h164v-64h-164v-121h-90v121h-156v64h156v68h-156v64h135l-190 331h103l156 -295l162 295h99z" />
    <glyph glyph-name="brokenbar" unicode="&#xa6;" horiz-adv-x="270" 
d="M96 400v355h78v-355h-78zM96 -186v355h78v-355h-78z" />
    <glyph glyph-name="section" unicode="&#xa7;" horiz-adv-x="540" 
d="M372 211q55 -36 55 -93q0 -62 -50 -96t-121 -34q-84 0 -165 37l29 60q73 -29 136 -29q37 0 60 15t23 37q0 30 -24 46t-91 38q-35 12 -56 20.5t-44 22.5t-33.5 34t-10.5 46q0 36 21 63t66 59q-55 36 -55 93q0 62 50 96t121 34q82 0 157 -38l-31 -60q-71 30 -126 30
q-37 0 -60 -15t-23 -37q0 -30 24 -46t91 -38q35 -12 56 -20.5t44 -22.5t33.5 -34t10.5 -46q0 -36 -21 -63t-66 -59zM164 330q0 -27 25 -42.5t82 -32.5q35 -11 49 -17q55 43 55 80q0 27 -25.5 42.5t-82.5 32.5q-38 13 -48 17q-55 -43 -55 -80z" />
    <glyph glyph-name="dieresis" unicode="&#xa8;" horiz-adv-x="380" 
d="M97 523q-23 0 -40 16.5t-17 38.5q0 23 17 39.5t40 16.5t40 -16.5t17 -39.5q0 -22 -17 -38.5t-40 -16.5zM283 523q-23 0 -40 16.5t-17 38.5q0 23 17 39.5t40 16.5t40 -16.5t17 -39.5q0 -22 -17 -38.5t-40 -16.5z" />
    <glyph glyph-name="copyright" unicode="&#xa9;" horiz-adv-x="764" 
d="M383 -12q-141 0 -239.5 97t-98.5 238t98.5 239t239.5 98t238.5 -98t97.5 -239t-97.5 -238t-238.5 -97zM383 45q115 0 194 81t79 197q0 117 -79 198.5t-194 81.5q-116 0 -195.5 -81.5t-79.5 -198.5q0 -116 79.5 -197t195.5 -81zM389 128q-93 0 -141 56.5t-48 141.5
q0 98 56.5 146.5t134.5 48.5q64 0 122 -36l-35 -56q-53 25 -88 25q-59 0 -82 -37.5t-23 -89.5q0 -131 105 -131q47 0 97 27l31 -58q-65 -37 -129 -37z" />
    <glyph glyph-name="ordfeminine" unicode="&#xaa;" horiz-adv-x="402" 
d="M216 661q137 0 137 -122v-257h-73l-6 30q-58 -41 -133 -41q-50 0 -81.5 27.5t-31.5 73.5q0 67 68 101.5t173 36.5v18q0 34 -14 50t-49 16q-58 0 -127 -44l-36 55q86 56 173 56zM116 380q0 -40 51 -40q52 0 102 29v83q-153 -8 -153 -72z" />
    <glyph glyph-name="guillemotleft" unicode="&#xab;" horiz-adv-x="510" 
d="M201 68l-148 158v84l148 158l46 -34l-115 -166l115 -166zM391 68l-148 158v84l148 158l46 -34l-115 -166l115 -166z" />
    <glyph glyph-name="logicalnot" unicode="&#xac;" horiz-adv-x="540" 
d="M388 125v157h-318v76h400v-233h-82z" />
    <glyph glyph-name="uni00AD" unicode="&#xad;" horiz-adv-x="380" 
d="M50 228v80h280v-80h-280z" />
    <glyph glyph-name="registered" unicode="&#xae;" horiz-adv-x="535" 
d="M268 660q92 0 157 -65t65 -158t-64.5 -157t-157.5 -64t-158 64t-65 157t65 158t158 65zM268 265q71 0 119 50t48 122q0 73 -48 123t-119 50q-72 0 -120.5 -50.5t-48.5 -122.5t48.5 -122t120.5 -50zM369 478q0 -53 -46 -71l52 -87h-68l-44 78h-24v-78h-62v240h90
q50 0 76 -23.5t26 -58.5zM239 507v-65h25q42 0 42 33q0 13 -8.5 22.5t-26.5 9.5h-32z" />
    <glyph glyph-name="macron" unicode="&#xaf;" horiz-adv-x="343" 
d="M40 541v65h263v-65h-263z" />
    <glyph glyph-name="degree" unicode="&#xb0;" horiz-adv-x="420" 
d="M214 327q-74 0 -121.5 44.5t-47.5 121.5t48 121t122 44q75 0 122.5 -44.5t47.5 -121.5t-48 -121t-123 -44zM214 397q41 0 64 23.5t23 71.5q0 96 -86 96q-85 0 -85 -95q0 -96 84 -96z" />
    <glyph glyph-name="plusminus" unicode="&#xb1;" horiz-adv-x="540" 
d="M229 120v132h-159v76h159v132h82v-132h159v-76h-159v-132h-82zM70 0v76h400v-76h-400z" />
    <glyph glyph-name="uni00B2" unicode="&#xb2;" horiz-adv-x="360" 
d="M321 583q0 -44 -34 -93t-123 -134h157v-68h-282v40q117 114 155.5 162t38.5 81q0 26 -16 40t-44 14q-41 0 -91 -38l-43 51q63 58 145 58q62 0 99.5 -28.5t37.5 -84.5z" />
    <glyph glyph-name="uni00B3" unicode="&#xb3;" horiz-adv-x="360" 
d="M242 506q84 -24 84 -99q0 -56 -41 -92t-124 -36q-73 0 -125 25l29 61q39 -18 91 -18q84 0 84 58q0 29 -22 44t-76 15h-32l5 60h52q65 23 65 65q0 17 -15.5 29t-45.5 12q-48 0 -94 -33l-43 47q61 52 142 52q69 0 105 -27.5t36 -72.5q0 -60 -75 -90z" />
    <glyph glyph-name="acute" unicode="&#xb4;" horiz-adv-x="287" 
d="M73 489l-33 39l156 127l51 -71z" />
    <glyph glyph-name="uni00B5" unicode="&#xb5;" horiz-adv-x="516" 
d="M360 438l86 10v-448h-77l-5 34q-70 -42 -138 -42q-46 0 -78 23q8 -45 8 -82v-119h-86v624l86 10v-296q0 -49 18.5 -69t65.5 -20q48 0 120 37v338z" />
    <glyph glyph-name="paragraph" unicode="&#xb6;" horiz-adv-x="600" 
d="M466 -194q-113 8 -159.5 49.5t-46.5 131.5v283q-97 1 -145.5 56t-48.5 147t52.5 146t155.5 54h253v-673h-76v605h-115v-611q0 -32 3.5 -49.5t17.5 -33.5t41.5 -24.5t74.5 -12.5z" />
    <glyph glyph-name="periodcentered" unicode="&#xb7;" horiz-adv-x="188" 
d="M94 210q-26 0 -45 18.5t-19 44.5t19 44.5t45 18.5t45 -18.5t19 -44.5t-19 -44.5t-45 -18.5z" />
    <glyph glyph-name="cedilla" unicode="&#xb8;" horiz-adv-x="293" 
d="M138 -221q-52 0 -98 22l20 53q41 -16 70 -16q24 0 34 8t10 26q0 21 -21.5 28.5t-70.5 9.5l13 100h65v-54q93 -8 93 -86q0 -45 -30.5 -68t-84.5 -23z" />
    <glyph glyph-name="uni00B9" unicode="&#xb9;" horiz-adv-x="360" 
d="M156 688h83v-400h-83v314l-85 -37l-33 47z" />
    <glyph glyph-name="ordmasculine" unicode="&#xba;" horiz-adv-x="436" 
d="M211 271q-89 0 -136.5 55.5t-47.5 140.5q0 99 56 146.5t142 47.5q90 0 137.5 -55t47.5 -140q0 -99 -56.5 -147t-142.5 -48zM218 339q99 0 99 128q0 57 -24 91.5t-73 34.5q-100 0 -100 -126q0 -58 24.5 -93t73.5 -35z" />
    <glyph glyph-name="guillemotright" unicode="&#xbb;" horiz-adv-x="510" 
d="M119 68l-46 34l115 166l-115 166l46 34l148 -158v-84zM309 68l-46 34l115 166l-115 166l46 34l148 -158v-84z" />
    <glyph glyph-name="onequarter" unicode="&#xbc;" horiz-adv-x="856" 
d="M659 736l62 -33l-474 -790l-62 33zM239 217h-83v314l-85 -37l-33 47l118 76h83v-400zM843 155v-67h-55v-88h-84v88h-195v39l119 273h94l-115 -245h97l16 101h68v-101h55z" />
    <glyph glyph-name="onehalf" unicode="&#xbd;" horiz-adv-x="896" 
d="M659 736l62 -33l-474 -790l-62 33zM239 217h-83v314l-85 -37l-33 47l118 76h83v-400zM857 295q0 -44 -34 -93t-123 -134h157v-68h-282v40q117 114 155.5 162t38.5 81q0 26 -16 40t-44 14q-41 0 -91 -38l-43 51q63 58 145 58q62 0 99.5 -28.5t37.5 -84.5z" />
    <glyph glyph-name="threequarters" unicode="&#xbe;" horiz-adv-x="876" 
d="M679 736l62 -33l-474 -790l-62 33zM326 336q0 -56 -41 -92t-124 -36q-73 0 -125 25l29 61q39 -18 91 -18q84 0 84 58q0 29 -22 44t-76 15h-32l5 60h52q65 23 65 65q0 17 -15.5 29t-45.5 12q-48 0 -94 -33l-43 47q61 52 142 52q69 0 105 -27.5t36 -72.5q0 -60 -75 -90
q84 -24 84 -99zM863 155v-67h-55v-88h-84v88h-195v39l119 273h94l-115 -245h97l16 101h68v-101h55z" />
    <glyph glyph-name="questiondown" unicode="&#xbf;" horiz-adv-x="455" 
d="M243 324q-26 0 -45 18.5t-19 44.5t19 44.5t45 18.5t45 -18.5t19 -44.5t-19 -44.5t-45 -18.5zM224 -220q-83 0 -136 42.5t-53 116.5q0 48 18.5 81.5t64.5 65.5q46 33 64 64t18 77v10l84 8v-37q0 -51 -20.5 -90t-72.5 -79q-36 -29 -49 -48.5t-13 -43.5q0 -39 27.5 -61.5
t77.5 -22.5q76 0 150 64l51 -60q-92 -87 -211 -87z" />
    <glyph glyph-name="Agrave" unicode="&#xc0;" horiz-adv-x="633" 
d="M399 738l-33 -39l-174 95l51 71zM372 648l244 -642v-6h-96l-68 185h-276l-67 -185h-92v6l243 642h112zM204 261h220l-110 300z" />
    <glyph glyph-name="Aacute" unicode="&#xc1;" horiz-adv-x="633" 
d="M442 789l-174 -95l-33 39l156 127zM372 648l244 -642v-6h-96l-68 185h-276l-67 -185h-92v6l243 642h112zM204 261h220l-110 300z" />
    <glyph glyph-name="Acircumflex" unicode="&#xc2;" horiz-adv-x="633" 
d="M317 768l-106 -71l-37 33l103 107h79l103 -107l-36 -34zM372 648l244 -642v-6h-96l-68 185h-276l-67 -185h-92v6l243 642h112zM204 261h220l-110 300z" />
    <glyph glyph-name="Atilde" unicode="&#xc3;" horiz-adv-x="633" 
d="M256 755q-27 0 -50 -44l-51 20q22 49 47.5 72.5t62.5 23.5q35 0 68 -25.5t45 -25.5q27 0 50 44l51 -20q-41 -96 -110 -96q-27 0 -48 13t-36.5 25.5t-28.5 12.5zM372 648l244 -642v-6h-96l-68 185h-276l-67 -185h-92v6l243 642h112zM204 261h220l-110 300z" />
    <glyph glyph-name="Adieresis" unicode="&#xc4;" horiz-adv-x="633" 
d="M224 713q-23 0 -40 16.5t-17 38.5q0 23 17 39.5t40 16.5t40 -16.5t17 -39.5q0 -22 -17 -38.5t-40 -16.5zM410 713q-23 0 -40 16.5t-17 38.5q0 23 17 39.5t40 16.5t40 -16.5t17 -39.5q0 -22 -17 -38.5t-40 -16.5zM372 648l244 -642v-6h-96l-68 185h-276l-67 -185h-92v6
l243 642h112zM204 261h220l-110 300z" />
    <glyph glyph-name="Aring" unicode="&#xc5;" horiz-adv-x="633" 
d="M317 677q-52 0 -85.5 28t-33.5 81q0 55 33.5 83t85.5 28t85.5 -28t33.5 -83q0 -53 -33.5 -81t-85.5 -28zM317 839q-54 0 -54 -53q0 -27 16 -39.5t38 -12.5t38 12.5t16 39.5q0 53 -54 53zM372 648l244 -642v-6h-96l-68 185h-276l-67 -185h-92v6l243 642h112zM204 261h220
l-110 300z" />
    <glyph glyph-name="AE" unicode="&#xc6;" horiz-adv-x="893" 
d="M593 78h275v-78h-348l-54 185h-276l-82 -185h-91v6l292 642h494v-78h-358l61 -202h268l-10 -76h-235zM224 261h220l-87 300z" />
    <glyph glyph-name="Ccedilla" unicode="&#xc7;" horiz-adv-x="573" 
d="M365 -44q93 -8 93 -86q0 -45 -30.5 -68t-84.5 -23q-52 0 -98 22l20 53q41 -16 70 -16q24 0 34 8t10 26q0 21 -21.5 28.5t-70.5 9.5l10 80q-126 15 -189 102.5t-63 229.5q0 89 25 156.5t68 106t94 57t110 18.5q115 0 211 -59l-40 -70q-78 49 -167 49q-104 0 -153.5 -68
t-49.5 -185q0 -121 52 -190t153 -69q87 0 174 50l37 -67q-100 -58 -194 -62v-33z" />
    <glyph glyph-name="Egrave" unicode="&#xc8;" horiz-adv-x="541" 
d="M373 738l-33 -39l-174 95l51 71zM174 78h318v-78h-410v648h405v-78h-313v-202h274l-10 -76h-264v-214z" />
    <glyph glyph-name="Eacute" unicode="&#xc9;" horiz-adv-x="541" 
d="M416 789l-174 -95l-33 39l156 127zM174 78h318v-78h-410v648h405v-78h-313v-202h274l-10 -76h-264v-214z" />
    <glyph glyph-name="Ecircumflex" unicode="&#xca;" horiz-adv-x="541" 
d="M291 768l-106 -71l-37 33l103 107h79l103 -107l-36 -34zM174 78h318v-78h-410v648h405v-78h-313v-202h274l-10 -76h-264v-214z" />
    <glyph glyph-name="Edieresis" unicode="&#xcb;" horiz-adv-x="541" 
d="M198 713q-23 0 -40 16.5t-17 38.5q0 23 17 39.5t40 16.5t40 -16.5t17 -39.5q0 -22 -17 -38.5t-40 -16.5zM384 713q-23 0 -40 16.5t-17 38.5q0 23 17 39.5t40 16.5t40 -16.5t17 -39.5q0 -22 -17 -38.5t-40 -16.5zM174 78h318v-78h-410v648h405v-78h-313v-202h274l-10 -76
h-264v-214z" />
    <glyph glyph-name="Igrave" unicode="&#xcc;" horiz-adv-x="256" 
d="M177 699l-174 95l51 71l156 -127zM82 0v648h92v-648h-92z" />
    <glyph glyph-name="Iacute" unicode="&#xcd;" horiz-adv-x="256" 
d="M79 694l-33 39l156 127l51 -71zM82 0v648h92v-648h-92z" />
    <glyph glyph-name="Icircumflex" unicode="&#xce;" horiz-adv-x="256" 
d="M22 697l-37 33l103 107h79l103 -107l-36 -34l-106 72zM82 0v648h92v-648h-92z" />
    <glyph glyph-name="Idieresis" unicode="&#xcf;" horiz-adv-x="256" 
d="M35 713q-23 0 -40 16.5t-17 38.5q0 23 17 39.5t40 16.5t40 -16.5t17 -39.5q0 -22 -17 -38.5t-40 -16.5zM221 713q-23 0 -40 16.5t-17 38.5q0 23 17 39.5t40 16.5t40 -16.5t17 -39.5q0 -22 -17 -38.5t-40 -16.5zM82 0v648h92v-648h-92z" />
    <glyph glyph-name="Eth" unicode="&#xd0;" horiz-adv-x="662" 
d="M277 648q165 0 252.5 -77t87.5 -247q0 -163 -96 -243.5t-261 -80.5h-178v290h-54v69h54v289h195zM249 78q134 0 203 52.5t69 193.5q0 127 -59 186.5t-183 59.5h-105v-211h167v-69h-167v-212h75z" />
    <glyph glyph-name="Ntilde" unicode="&#xd1;" horiz-adv-x="696" 
d="M287 755q-27 0 -50 -44l-51 20q22 49 47.5 72.5t62.5 23.5q35 0 68 -25.5t45 -25.5q27 0 50 44l51 -20q-40 -96 -110 -96q-27 0 -48 13t-36.5 25.5t-28.5 12.5zM526 648h88v-648h-102l-285 420q-48 72 -57 92v-512h-88v648h97l293 -429q43 -62 54 -88v517z" />
    <glyph glyph-name="Ograve" unicode="&#xd2;" horiz-adv-x="701" 
d="M400 699l-174 95l51 71l156 -127zM347 -12q-145 0 -223.5 92t-78.5 246q0 85 25 150.5t68.5 104.5t98 59t117.5 20q145 0 223.5 -92t78.5 -246q0 -85 -25 -150.5t-68.5 -104.5t-98 -59t-117.5 -20zM347 66q105 0 159 69.5t54 185.5q0 120 -52 190.5t-154 70.5
q-105 0 -159 -69.5t-54 -185.5q0 -120 52 -190.5t154 -70.5z" />
    <glyph glyph-name="Oacute" unicode="&#xd3;" horiz-adv-x="701" 
d="M302 694l-33 39l156 127l51 -71zM347 -12q-145 0 -223.5 92t-78.5 246q0 85 25 150.5t68.5 104.5t98 59t117.5 20q145 0 223.5 -92t78.5 -246q0 -85 -25 -150.5t-68.5 -104.5t-98 -59t-117.5 -20zM347 66q105 0 159 69.5t54 185.5q0 120 -52 190.5t-154 70.5
q-105 0 -159 -69.5t-54 -185.5q0 -120 52 -190.5t154 -70.5z" />
    <glyph glyph-name="Ocircumflex" unicode="&#xd4;" horiz-adv-x="701" 
d="M245 697l-37 33l103 107h79l103 -107l-36 -34l-106 72zM347 -12q-145 0 -223.5 92t-78.5 246q0 85 25 150.5t68.5 104.5t98 59t117.5 20q145 0 223.5 -92t78.5 -246q0 -85 -25 -150.5t-68.5 -104.5t-98 -59t-117.5 -20zM347 66q105 0 159 69.5t54 185.5q0 120 -52 190.5
t-154 70.5q-105 0 -159 -69.5t-54 -185.5q0 -120 52 -190.5t154 -70.5z" />
    <glyph glyph-name="Otilde" unicode="&#xd5;" horiz-adv-x="701" 
d="M403 704q-27 0 -48 13t-36.5 25.5t-28.5 12.5q-27 0 -50 -44l-51 20q22 49 47.5 72.5t62.5 23.5q35 0 68 -25.5t45 -25.5q27 0 50 44l51 -20q-41 -96 -110 -96zM347 -12q-145 0 -223.5 92t-78.5 246q0 85 25 150.5t68.5 104.5t98 59t117.5 20q145 0 223.5 -92t78.5 -246
q0 -85 -25 -150.5t-68.5 -104.5t-98 -59t-117.5 -20zM347 66q105 0 159 69.5t54 185.5q0 120 -52 190.5t-154 70.5q-105 0 -159 -69.5t-54 -185.5q0 -120 52 -190.5t154 -70.5z" />
    <glyph glyph-name="Odieresis" unicode="&#xd6;" horiz-adv-x="701" 
d="M258 713q-23 0 -40 16.5t-17 38.5q0 23 17 39.5t40 16.5t40 -16.5t17 -39.5q0 -22 -17 -38.5t-40 -16.5zM444 713q-23 0 -40 16.5t-17 38.5q0 23 17 39.5t40 16.5t40 -16.5t17 -39.5q0 -22 -17 -38.5t-40 -16.5zM347 -12q-145 0 -223.5 92t-78.5 246q0 85 25 150.5
t68.5 104.5t98 59t117.5 20q145 0 223.5 -92t78.5 -246q0 -85 -25 -150.5t-68.5 -104.5t-98 -59t-117.5 -20zM347 66q105 0 159 69.5t54 185.5q0 120 -52 190.5t-154 70.5q-105 0 -159 -69.5t-54 -185.5q0 -120 52 -190.5t154 -70.5z" />
    <glyph glyph-name="multiply" unicode="&#xd7;" horiz-adv-x="540" 
d="M458 390l-135 -135l135 -135l-53 -53l-135 135l-135 -135l-53 53l135 135l-135 135l53 53l135 -135l135 135z" />
    <glyph glyph-name="Oslash" unicode="&#xd8;" horiz-adv-x="701" 
d="M565 581q91 -91 91 -259q0 -85 -25 -150.5t-68.5 -104.5t-98 -59t-117.5 -20q-83 0 -149 33l-41 -63l-66 40l45 69q-91 91 -91 259q0 85 25 150.5t68.5 104.5t98 59t117.5 20q85 0 149 -33l42 63l66 -40zM354 582q-105 0 -159 -69.5t-54 -185.5q0 -118 49 -186l270 414
q-46 27 -106 27zM347 66q105 0 159 69.5t54 185.5q0 119 -49 187l-269 -415q42 -27 105 -27z" />
    <glyph glyph-name="Ugrave" unicode="&#xd9;" horiz-adv-x="674" 
d="M386 699l-174 95l51 71l156 -127zM334 -12q-133 0 -200.5 75t-67.5 196v389h92v-369q0 -211 182 -211q176 0 176 205v375h92v-386q0 -140 -76 -207t-198 -67z" />
    <glyph glyph-name="Uacute" unicode="&#xda;" horiz-adv-x="674" 
d="M288 694l-33 39l156 127l51 -71zM334 -12q-133 0 -200.5 75t-67.5 196v389h92v-369q0 -211 182 -211q176 0 176 205v375h92v-386q0 -140 -76 -207t-198 -67z" />
    <glyph glyph-name="Ucircumflex" unicode="&#xdb;" horiz-adv-x="674" 
d="M231 697l-37 33l103 107h79l103 -107l-36 -34l-106 72zM334 -12q-133 0 -200.5 75t-67.5 196v389h92v-369q0 -211 182 -211q176 0 176 205v375h92v-386q0 -140 -76 -207t-198 -67z" />
    <glyph glyph-name="Udieresis" unicode="&#xdc;" horiz-adv-x="674" 
d="M244 713q-23 0 -40 16.5t-17 38.5q0 23 17 39.5t40 16.5t40 -16.5t17 -39.5q0 -22 -17 -38.5t-40 -16.5zM430 713q-23 0 -40 16.5t-17 38.5q0 23 17 39.5t40 16.5t40 -16.5t17 -39.5q0 -22 -17 -38.5t-40 -16.5zM334 -12q-133 0 -200.5 75t-67.5 196v389h92v-369
q0 -211 182 -211q176 0 176 205v375h92v-386q0 -140 -76 -207t-198 -67z" />
    <glyph glyph-name="Yacute" unicode="&#xdd;" horiz-adv-x="599" 
d="M425 789l-174 -95l-33 39l156 127zM582 648v-6l-240 -389v-253h-92v256l-233 386v6h101l181 -311l188 311h95z" />
    <glyph glyph-name="Thorn" unicode="&#xde;" horiz-adv-x="578" 
d="M298 533q115 0 177 -53.5t62 -143.5q0 -91 -63.5 -151.5t-183.5 -60.5h-116v-124h-92v648h92v-115h124zM283 202q79 0 118.5 34t39.5 96q0 123 -145 123h-122v-253h109z" />
    <glyph glyph-name="germandbls" unicode="&#xdf;" horiz-adv-x="536" 
d="M323 383q100 -47 139 -100.5t39 -129.5q0 -79 -45.5 -122t-126.5 -43q-73 0 -130 32l34 63q45 -23 93 -23q41 0 62.5 20t21.5 69q0 72 -39.5 117.5t-138.5 79.5v39q50 42 77 84.5t27 75.5q0 79 -85 79q-40 0 -67.5 -21t-27.5 -66v-537h-86v524q0 86 53 128t131 42
q80 0 126 -38.5t46 -104.5q0 -70 -103 -168z" />
    <glyph glyph-name="agrave" unicode="&#xe0;" horiz-adv-x="468" 
d="M311 528l-33 -39l-174 95l51 71zM249 450q154 0 154 -145v-305h-78l-5 38q-69 -50 -159 -50q-58 0 -94.5 32t-36.5 84q0 42 23.5 74t64.5 50.5t91 28.5t108 11v22q0 45 -18 65.5t-61 20.5q-73 0 -152 -52l-38 60q96 66 201 66zM122 113q0 -52 62 -52q68 0 133 40v104
q-87 -4 -141 -27t-54 -65z" />
    <glyph glyph-name="aacute" unicode="&#xe1;" horiz-adv-x="468" 
d="M354 584l-174 -95l-33 39l156 127zM249 450q154 0 154 -145v-305h-78l-5 38q-69 -50 -159 -50q-58 0 -94.5 32t-36.5 84q0 42 23.5 74t64.5 50.5t91 28.5t108 11v22q0 45 -18 65.5t-61 20.5q-73 0 -152 -52l-38 60q96 66 201 66zM122 113q0 -52 62 -52q68 0 133 40v104
q-87 -4 -141 -27t-54 -65z" />
    <glyph glyph-name="acircumflex" unicode="&#xe2;" horiz-adv-x="468" 
d="M229 574l-106 -71l-37 33l103 107h79l103 -107l-36 -34zM249 450q154 0 154 -145v-305h-78l-5 38q-69 -50 -159 -50q-58 0 -94.5 32t-36.5 84q0 42 23.5 74t64.5 50.5t91 28.5t108 11v22q0 45 -18 65.5t-61 20.5q-73 0 -152 -52l-38 60q96 66 201 66zM122 113
q0 -52 62 -52q68 0 133 40v104q-87 -4 -141 -27t-54 -65z" />
    <glyph glyph-name="atilde" unicode="&#xe3;" horiz-adv-x="468" 
d="M171 559q-27 0 -50 -44l-51 20q22 49 47.5 72.5t62.5 23.5q35 0 68 -25.5t45 -25.5q27 0 50 44l51 -20q-40 -96 -110 -96q-27 0 -48 13t-36.5 25.5t-28.5 12.5zM249 450q154 0 154 -145v-305h-78l-5 38q-69 -50 -159 -50q-58 0 -94.5 32t-36.5 84q0 42 23.5 74t64.5 50.5
t91 28.5t108 11v22q0 45 -18 65.5t-61 20.5q-73 0 -152 -52l-38 60q96 66 201 66zM122 113q0 -52 62 -52q68 0 133 40v104q-87 -4 -141 -27t-54 -65z" />
    <glyph glyph-name="adieresis" unicode="&#xe4;" horiz-adv-x="468" 
d="M136 523q-23 0 -40 16.5t-17 38.5q0 23 17 39.5t40 16.5t40 -16.5t17 -39.5q0 -22 -17 -38.5t-40 -16.5zM322 523q-23 0 -40 16.5t-17 38.5q0 23 17 39.5t40 16.5t40 -16.5t17 -39.5q0 -22 -17 -38.5t-40 -16.5zM249 450q154 0 154 -145v-305h-78l-5 38q-69 -50 -159 -50
q-58 0 -94.5 32t-36.5 84q0 42 23.5 74t64.5 50.5t91 28.5t108 11v22q0 45 -18 65.5t-61 20.5q-73 0 -152 -52l-38 60q96 66 201 66zM122 113q0 -52 62 -52q68 0 133 40v104q-87 -4 -141 -27t-54 -65z" />
    <glyph glyph-name="aring" unicode="&#xe5;" horiz-adv-x="468" 
d="M229 487q-52 0 -85.5 28t-33.5 81q0 55 33.5 83t85.5 28t85.5 -28t33.5 -83q0 -53 -33.5 -81t-85.5 -28zM229 649q-54 0 -54 -53q0 -27 16 -39.5t38 -12.5t38 12.5t16 39.5q0 53 -54 53zM249 450q154 0 154 -145v-305h-78l-5 38q-69 -50 -159 -50q-58 0 -94.5 32
t-36.5 84q0 42 23.5 74t64.5 50.5t91 28.5t108 11v22q0 45 -18 65.5t-61 20.5q-73 0 -152 -52l-38 60q96 66 201 66zM122 113q0 -52 62 -52q68 0 133 40v104q-87 -4 -141 -27t-54 -65z" />
    <glyph glyph-name="ae" unicode="&#xe6;" horiz-adv-x="712" 
d="M677 268q0 -32 -3 -64h-294q3 -143 124 -143q64 0 131 41l32 -61q-80 -53 -167 -53q-106 0 -154 68q-86 -68 -186 -68q-57 0 -93.5 32t-36.5 84q0 81 79 121.5t199 42.5v22q0 44 -17.5 64.5t-58.5 20.5q-68 0 -150 -54l-35 63q94 66 187 66q92 0 124 -71q48 71 143 71
q84 0 130 -50.5t46 -131.5zM501 383q-96 0 -117 -116h212q-1 116 -95 116zM182 61q72 0 139 49q-11 37 -13 94q-84 -3 -136.5 -25.5t-52.5 -65.5q0 -52 63 -52z" />
    <glyph glyph-name="ccedilla" unicode="&#xe7;" horiz-adv-x="419" 
d="M254 -44q93 -8 93 -86q0 -45 -30.5 -68t-84.5 -23q-52 0 -98 22l20 53q41 -16 70 -16q24 0 34 8t10 26q0 21 -21.5 28.5t-70.5 9.5l11 83q-152 28 -152 215q0 121 66 181.5t156 60.5q66 0 138 -38l-32 -66q-65 31 -113 31q-59 0 -92 -44.5t-33 -124.5q0 -146 124 -146
q54 0 122 40l34 -61q-74 -49 -151 -53v-32z" />
    <glyph glyph-name="egrave" unicode="&#xe8;" horiz-adv-x="464" 
d="M329 528l-33 -39l-174 95l51 71zM429 268q0 -16 -2 -64h-305q1 -75 36.5 -109t91.5 -34q66 0 135 41l33 -61q-82 -53 -172 -53q-96 0 -153.5 53.5t-57.5 169.5q0 102 55 170.5t157 68.5q87 0 134.5 -50.5t47.5 -131.5zM247 383q-101 0 -120 -116h218v4q0 112 -98 112z
" />
    <glyph glyph-name="eacute" unicode="&#xe9;" horiz-adv-x="464" 
d="M372 584l-174 -95l-33 39l156 127zM429 268q0 -16 -2 -64h-305q1 -75 36.5 -109t91.5 -34q66 0 135 41l33 -61q-82 -53 -172 -53q-96 0 -153.5 53.5t-57.5 169.5q0 102 55 170.5t157 68.5q87 0 134.5 -50.5t47.5 -131.5zM247 383q-101 0 -120 -116h218v4q0 112 -98 112z
" />
    <glyph glyph-name="ecircumflex" unicode="&#xea;" horiz-adv-x="464" 
d="M247 574l-106 -71l-37 33l103 107h79l103 -107l-36 -34zM429 268q0 -16 -2 -64h-305q1 -75 36.5 -109t91.5 -34q66 0 135 41l33 -61q-82 -53 -172 -53q-96 0 -153.5 53.5t-57.5 169.5q0 102 55 170.5t157 68.5q87 0 134.5 -50.5t47.5 -131.5zM247 383q-101 0 -120 -116
h218v4q0 112 -98 112z" />
    <glyph glyph-name="edieresis" unicode="&#xeb;" horiz-adv-x="464" 
d="M154 523q-23 0 -40 16.5t-17 38.5q0 23 17 39.5t40 16.5t40 -16.5t17 -39.5q0 -22 -17 -38.5t-40 -16.5zM340 523q-23 0 -40 16.5t-17 38.5q0 23 17 39.5t40 16.5t40 -16.5t17 -39.5q0 -22 -17 -38.5t-40 -16.5zM429 268q0 -16 -2 -64h-305q1 -75 36.5 -109t91.5 -34
q66 0 135 41l33 -61q-82 -53 -172 -53q-96 0 -153.5 53.5t-57.5 169.5q0 102 55 170.5t157 68.5q87 0 134.5 -50.5t47.5 -131.5zM247 383q-101 0 -120 -116h218v4q0 112 -98 112z" />
    <glyph glyph-name="igrave" unicode="&#xec;" horiz-adv-x="226" 
d="M162 489l-174 95l51 71l156 -127zM70 0v438l86 10v-448h-86z" />
    <glyph glyph-name="iacute" unicode="&#xed;" horiz-adv-x="226" 
d="M64 489l-33 39l156 127l51 -71zM70 0v438l86 10v-448h-86z" />
    <glyph glyph-name="icircumflex" unicode="&#xee;" horiz-adv-x="226" 
d="M7 503l-37 33l103 107h79l103 -107l-36 -34l-106 72zM70 0v438l86 10v-448h-86z" />
    <glyph glyph-name="idieresis" unicode="&#xef;" horiz-adv-x="226" 
d="M36 523q-23 0 -40 16.5t-17 38.5q0 23 17 39.5t40 16.5t40 -16.5t17 -39.5q0 -22 -17 -38.5t-40 -16.5zM190 523q-23 0 -40 16.5t-17 38.5q0 23 17 39.5t40 16.5t40 -16.5t17 -39.5q0 -22 -17 -38.5t-40 -16.5zM70 0v438l86 10v-448h-86z" />
    <glyph glyph-name="eth" unicode="&#xf0;" horiz-adv-x="509" 
d="M339 602q131 -112 131 -346q0 -128 -58 -198t-161 -70q-102 0 -159 53.5t-57 161.5q0 106 55 158.5t139 52.5q82 0 144 -44q-18 108 -88 182l-76 -70l-47 42l73 67q-40 21 -117 48l30 61q96 -32 139 -60l65 60l47 -42zM247 61q135 0 135 195q0 25 -1 37q-70 48 -129 48
q-70 0 -99 -35t-29 -106q0 -63 31 -101t92 -38z" />
    <glyph glyph-name="ntilde" unicode="&#xf1;" horiz-adv-x="515" 
d="M210 559q-27 0 -50 -44l-51 20q22 49 47.5 72.5t62.5 23.5q35 0 68 -25.5t45 -25.5q27 0 50 44l51 -20q-41 -96 -110 -96q-27 0 -48 13t-36.5 25.5t-28.5 12.5zM316 450q134 0 134 -139v-311h-86v279q0 54 -17.5 75t-62.5 21q-63 0 -128 -31v-344h-86v438l86 10v-42
q84 44 160 44z" />
    <glyph glyph-name="ograve" unicode="&#xf2;" horiz-adv-x="507" 
d="M303 489l-174 95l51 71l156 -127zM245 -12q-104 0 -157 65t-53 167q0 119 63 174.5t164 55.5q104 0 157 -64.5t53 -166.5q0 -119 -63 -175t-164 -56zM253 58q129 0 129 162q0 73 -31.5 116.5t-94.5 43.5q-131 0 -131 -160q0 -74 32 -118t96 -44z" />
    <glyph glyph-name="oacute" unicode="&#xf3;" horiz-adv-x="507" 
d="M205 489l-33 39l156 127l51 -71zM245 -12q-104 0 -157 65t-53 167q0 119 63 174.5t164 55.5q104 0 157 -64.5t53 -166.5q0 -119 -63 -175t-164 -56zM253 58q129 0 129 162q0 73 -31.5 116.5t-94.5 43.5q-131 0 -131 -160q0 -74 32 -118t96 -44z" />
    <glyph glyph-name="ocircumflex" unicode="&#xf4;" horiz-adv-x="507" 
d="M148 503l-37 33l103 107h79l103 -107l-36 -34l-106 72zM245 -12q-104 0 -157 65t-53 167q0 119 63 174.5t164 55.5q104 0 157 -64.5t53 -166.5q0 -119 -63 -175t-164 -56zM253 58q129 0 129 162q0 73 -31.5 116.5t-94.5 43.5q-131 0 -131 -160q0 -74 32 -118t96 -44z" />
    <glyph glyph-name="otilde" unicode="&#xf5;" horiz-adv-x="507" 
d="M309 508q-27 0 -48 13t-36.5 25.5t-28.5 12.5q-27 0 -50 -44l-51 20q22 49 47.5 72.5t62.5 23.5q35 0 68 -25.5t45 -25.5q27 0 50 44l51 -20q-41 -96 -110 -96zM245 -12q-104 0 -157 65t-53 167q0 119 63 174.5t164 55.5q104 0 157 -64.5t53 -166.5q0 -119 -63 -175
t-164 -56zM253 58q129 0 129 162q0 73 -31.5 116.5t-94.5 43.5q-131 0 -131 -160q0 -74 32 -118t96 -44z" />
    <glyph glyph-name="odieresis" unicode="&#xf6;" horiz-adv-x="507" 
d="M161 523q-23 0 -40 16.5t-17 38.5q0 23 17 39.5t40 16.5t40 -16.5t17 -39.5q0 -22 -17 -38.5t-40 -16.5zM347 523q-23 0 -40 16.5t-17 38.5q0 23 17 39.5t40 16.5t40 -16.5t17 -39.5q0 -22 -17 -38.5t-40 -16.5zM245 -12q-104 0 -157 65t-53 167q0 119 63 174.5t164 55.5
q104 0 157 -64.5t53 -166.5q0 -119 -63 -175t-164 -56zM253 58q129 0 129 162q0 73 -31.5 116.5t-94.5 43.5q-131 0 -131 -160q0 -74 32 -118t96 -44z" />
    <glyph glyph-name="divide" unicode="&#xf7;" horiz-adv-x="540" 
d="M270 374q-26 0 -45 18.5t-19 44.5t19 44.5t45 18.5t45 -18.5t19 -44.5t-19 -44.5t-45 -18.5zM70 217v76h400v-76h-400zM270 12q-26 0 -45 18.5t-19 44.5t19 44.5t45 18.5t45 -18.5t19 -44.5t-19 -44.5t-45 -18.5z" />
    <glyph glyph-name="oslash" unicode="&#xf8;" horiz-adv-x="507" 
d="M407 398q65 -62 65 -179q0 -119 -63 -175t-164 -56q-52 0 -95 19l-35 -54l-64 39l39 59q-55 64 -55 169q0 119 63 174.5t164 55.5q47 0 80 -13l31 48l64 -39zM256 385q-135 0 -135 -165q0 -59 20 -102l167 258q-23 9 -52 9zM253 53q133 0 133 167q0 72 -28 115l-172 -265
q28 -17 67 -17z" />
    <glyph glyph-name="ugrave" unicode="&#xf9;" horiz-adv-x="511" 
d="M338 528l-33 -39l-174 95l51 71zM355 438l86 10v-448h-77l-5 33q-77 -45 -156 -45q-61 0 -99.5 34.5t-38.5 104.5v311l86 10v-296q0 -49 18.5 -69t65.5 -20q48 0 120 37v338z" />
    <glyph glyph-name="uacute" unicode="&#xfa;" horiz-adv-x="511" 
d="M381 584l-174 -95l-33 39l156 127zM355 438l86 10v-448h-77l-5 33q-77 -45 -156 -45q-61 0 -99.5 34.5t-38.5 104.5v311l86 10v-296q0 -49 18.5 -69t65.5 -20q48 0 120 37v338z" />
    <glyph glyph-name="ucircumflex" unicode="&#xfb;" horiz-adv-x="511" 
d="M256 574l-106 -71l-37 33l103 107h79l103 -107l-36 -34zM355 438l86 10v-448h-77l-5 33q-77 -45 -156 -45q-61 0 -99.5 34.5t-38.5 104.5v311l86 10v-296q0 -49 18.5 -69t65.5 -20q48 0 120 37v338z" />
    <glyph glyph-name="udieresis" unicode="&#xfc;" horiz-adv-x="511" 
d="M163 523q-23 0 -40 16.5t-17 38.5q0 23 17 39.5t40 16.5t40 -16.5t17 -39.5q0 -22 -17 -38.5t-40 -16.5zM349 523q-23 0 -40 16.5t-17 38.5q0 23 17 39.5t40 16.5t40 -16.5t17 -39.5q0 -22 -17 -38.5t-40 -16.5zM355 438l86 10v-448h-77l-5 33q-77 -45 -156 -45
q-61 0 -99.5 34.5t-38.5 104.5v311l86 10v-296q0 -49 18.5 -69t65.5 -20q48 0 120 37v338z" />
    <glyph glyph-name="yacute" unicode="&#xfd;" horiz-adv-x="448" 
d="M352 584l-174 -95l-33 39l156 127zM351 438h88v-6l-167 -463q-33 -91 -73.5 -129t-104.5 -38q-44 0 -87 15l23 66q28 -9 57 -9q34 0 56.5 18.5t44.5 75.5l12 32h-23l-168 432v6h91l103 -280q25 -72 27 -77q7 23 25 77z" />
    <glyph glyph-name="thorn" unicode="&#xfe;" horiz-adv-x="512" 
d="M294 450q91 0 137 -63t46 -156q0 -114 -63.5 -178.5t-162.5 -64.5q-49 0 -95 13v-187h-86v874l86 10v-289q73 41 138 41zM244 56q63 0 102 43.5t39 129.5q0 147 -115 147q-58 0 -114 -33v-272q47 -15 88 -15z" />
    <glyph glyph-name="ydieresis" unicode="&#xff;" horiz-adv-x="448" 
d="M134 523q-23 0 -40 16.5t-17 38.5q0 23 17 39.5t40 16.5t40 -16.5t17 -39.5q0 -22 -17 -38.5t-40 -16.5zM320 523q-23 0 -40 16.5t-17 38.5q0 23 17 39.5t40 16.5t40 -16.5t17 -39.5q0 -22 -17 -38.5t-40 -16.5zM351 438h88v-6l-167 -463q-33 -91 -73.5 -129t-104.5 -38
q-44 0 -87 15l23 66q28 -9 57 -9q34 0 56.5 18.5t44.5 75.5l12 32h-23l-168 432v6h91l103 -280q25 -72 27 -77q7 23 25 77z" />
    <glyph glyph-name="dotlessi" unicode="&#x131;" horiz-adv-x="226" 
d="M70 0v438l86 10v-448h-86z" />
    <glyph glyph-name="Lslash" unicode="&#x141;" horiz-adv-x="530" 
d="M194 80h318v-80h-410v203l-41 -29l-46 65l87 59v350h92v-276l128 92l46 -63l-174 -124v-197z" />
    <glyph glyph-name="lslash" unicode="&#x142;" horiz-adv-x="310" 
d="M295 396l-99 -68v-328h-86v258l-49 -34l-46 65l95 64v335l86 10v-276l53 37z" />
    <glyph glyph-name="OE" unicode="&#x152;" horiz-adv-x="920" 
d="M558 78h313v-78h-399q-48 -12 -120 -12q-154 0 -230.5 94t-76.5 244q0 88 26 154t71 104.5t100.5 57t119.5 18.5q61 0 112 -12h392v-78h-308v-202h269l-10 -76h-259v-214zM141 327q0 -123 53 -192t162 -69q61 0 112 12v490q-46 14 -115 14q-104 0 -158 -68.5t-54 -186.5z
" />
    <glyph glyph-name="oe" unicode="&#x153;" horiz-adv-x="780" 
d="M745 268q0 -32 -3 -64h-294q3 -143 124 -143q64 0 131 41l32 -61q-80 -53 -167 -53q-116 0 -159 84q-51 -84 -170 -84q-100 0 -152 65.5t-52 166.5q0 118 61.5 174t155.5 56q114 0 162 -92q47 92 155 92q84 0 130 -50.5t46 -131.5zM569 383q-96 0 -117 -116h212
q-1 116 -95 116zM247 58q127 0 127 162q0 160 -124 160q-125 0 -125 -160q0 -74 31 -118t91 -44z" />
    <glyph glyph-name="Scaron" unicode="&#x160;" horiz-adv-x="548" 
d="M236 688l-103 107l37 33l106 -71l106 72l36 -34l-103 -107h-79zM263 -12q-138 0 -233 74l44 66q80 -62 186 -62q147 0 147 105q0 45 -30.5 70t-114.5 54l-17 6q-37 13 -60.5 23t-50.5 26.5t-42 34.5t-25.5 44.5t-10.5 59.5q0 83 64 127t154 44q123 0 218 -64l-42 -66
q-84 53 -177 53q-53 0 -88 -22t-35 -68q0 -36 28 -59.5t103 -50.5l17 -6q29 -10 42.5 -15t39.5 -16.5t40 -21t32.5 -25.5t27.5 -33t16 -40.5t7 -50.5q0 -91 -64 -139t-176 -48z" />
    <glyph glyph-name="scaron" unicode="&#x161;" horiz-adv-x="421" 
d="M166 499l-103 107l37 33l106 -71l106 72l36 -34l-103 -107h-79zM213 -12q-113 0 -193 59l38 61q73 -52 152 -52q93 0 93 61q0 24 -21.5 41.5t-75.5 31.5l-31 8q-70 18 -102.5 47.5t-32.5 78.5q0 56 46 91t118 35q90 0 171 -46l-35 -61q-74 39 -135 39q-36 0 -56.5 -14.5
t-20.5 -38.5q0 -21 16.5 -32.5t57.5 -22.5l31 -8q84 -22 121 -55t37 -88q0 -60 -46.5 -97.5t-131.5 -37.5z" />
    <glyph glyph-name="Ydieresis" unicode="&#x178;" horiz-adv-x="599" 
d="M207 713q-23 0 -40 16.5t-17 38.5q0 23 17 39.5t40 16.5t40 -16.5t17 -39.5q0 -22 -17 -38.5t-40 -16.5zM393 713q-23 0 -40 16.5t-17 38.5q0 23 17 39.5t40 16.5t40 -16.5t17 -39.5q0 -22 -17 -38.5t-40 -16.5zM582 648v-6l-240 -389v-253h-92v256l-233 386v6h101
l181 -311l188 311h95z" />
    <glyph glyph-name="Zcaron" unicode="&#x17d;" horiz-adv-x="556" 
d="M317 688h-79l-103 107l37 33l106 -71l106 72l36 -34zM511 648v-45l-353 -523h343v-80h-466v45l355 523h-334l10 80h445z" />
    <glyph glyph-name="zcaron" unicode="&#x17e;" horiz-adv-x="421" 
d="M250 499h-79l-103 107l37 33l106 -71l106 72l36 -34zM148 74h243v-74h-366v39l244 325h-227l10 74h338v-38z" />
    <glyph glyph-name="florin" unicode="&#x192;" horiz-adv-x="540" 
d="M386 621q-75 0 -75 -93v-90h136l-9 -68h-127v-424q0 -73 -36 -108.5t-97 -35.5q-65 0 -121 25l26 65q44 -16 80 -16q35 0 48.5 21.5t13.5 62.5v410h-80v68h80v88q0 76 42 121.5t115 45.5q55 0 101 -17l-22 -68q-37 13 -75 13z" />
    <glyph glyph-name="circumflex" unicode="&#x2c6;" horiz-adv-x="365" 
d="M77 503l-37 33l103 107h79l103 -107l-36 -34l-106 72z" />
    <glyph glyph-name="caron" unicode="&#x2c7;" horiz-adv-x="365" 
d="M143 499l-103 107l37 33l106 -71l106 72l36 -34l-103 -107h-79z" />
    <glyph glyph-name="uni02C9" unicode="&#x2c9;" horiz-adv-x="343" 
d="M40 541v65h263v-65h-263z" />
    <glyph glyph-name="breve" unicode="&#x2d8;" horiz-adv-x="355" 
d="M178 496q-121 0 -138 126l65 6q7 -36 22.5 -50.5t50.5 -14.5q34 0 49.5 14.5t22.5 50.5l65 -6q-17 -126 -137 -126z" />
    <glyph glyph-name="dotaccent" unicode="&#x2d9;" horiz-adv-x="203" 
d="M101 527q-25 0 -43 18t-18 43t18 43.5t43 18.5t43.5 -18t18.5 -44q0 -25 -18.5 -43t-43.5 -18z" />
    <glyph glyph-name="ring" unicode="&#x2da;" horiz-adv-x="318" 
d="M159 487q-52 0 -85.5 28t-33.5 81q0 55 33.5 83t85.5 28t85.5 -28t33.5 -83q0 -53 -33.5 -81t-85.5 -28zM159 544q22 0 38 12.5t16 39.5q0 53 -54 53t-54 -53q0 -27 16 -39.5t38 -12.5z" />
    <glyph glyph-name="ogonek" unicode="&#x2db;" horiz-adv-x="283" 
d="M152 -222q-54 0 -83 24t-29 63q0 107 137 164l17 -29q-75 -64 -75 -117q0 -38 44 -38q23 0 63 11l17 -60q-47 -18 -91 -18z" />
    <glyph glyph-name="tilde" unicode="&#x2dc;" horiz-adv-x="404" 
d="M254 509q-27 0 -48 12.5t-36.5 25.5t-28.5 13q-27 0 -50 -44l-51 20q22 49 47.5 72.5t62.5 23.5q35 0 68 -25.5t45 -25.5q27 0 50 44l51 -20q-40 -96 -110 -96z" />
    <glyph glyph-name="hungarumlaut" unicode="&#x2dd;" horiz-adv-x="355" 
d="M87 495l-47 18l55 157l75 -33zM223 490l-46 16l66 155l72 -35z" />
    <glyph glyph-name="gravecomb" unicode="&#x300;" 
d="M-73 489l-174 95l51 71l156 -127z" />
    <glyph glyph-name="acutecomb" unicode="&#x301;" 
d="M-214 489l-33 39l156 127l51 -71z" />
    <glyph glyph-name="uni0302" unicode="&#x302;" 
d="M-288 503l-37 33l103 107h79l103 -107l-36 -34l-106 72z" />
    <glyph glyph-name="tildecomb" unicode="&#x303;" 
d="M-150 509q-27 0 -48 12.5t-36.5 25.5t-28.5 13q-27 0 -50 -44l-51 20q22 49 47.5 72.5t62.5 23.5q35 0 68 -25.5t45 -25.5q27 0 50 44l51 -20q-40 -96 -110 -96z" />
    <glyph glyph-name="uni0304" unicode="&#x304;" 
d="M-303 541v65h263v-65h-263z" />
    <glyph glyph-name="uni0306" unicode="&#x306;" 
d="M-177 496q-121 0 -138 126l65 6q7 -36 22.5 -50.5t50.5 -14.5q34 0 49.5 14.5t22.5 50.5l65 -6q-17 -126 -137 -126z" />
    <glyph glyph-name="uni0307" unicode="&#x307;" 
d="M-102 527q-25 0 -43 18t-18 43t18 43.5t43 18.5q26 0 44 -18t18 -44q0 -25 -18.5 -43t-43.5 -18z" />
    <glyph glyph-name="uni0308" unicode="&#x308;" 
d="M-283 523q-23 0 -40 16.5t-17 38.5q0 23 17 39.5t40 16.5t40 -16.5t17 -39.5q0 -22 -17 -38.5t-40 -16.5zM-97 523q-23 0 -40 16.5t-17 38.5q0 23 17 39.5t40 16.5t40 -16.5t17 -39.5q0 -22 -17 -38.5t-40 -16.5z" />
    <glyph glyph-name="uni030A" unicode="&#x30a;" 
d="M-159 487q-52 0 -85.5 28t-33.5 81q0 55 33.5 83t85.5 28t85.5 -28t33.5 -83q0 -53 -33.5 -81t-85.5 -28zM-159 544q22 0 38 12.5t16 39.5q0 53 -54 53t-54 -53q0 -27 16 -39.5t38 -12.5z" />
    <glyph glyph-name="uni030B" unicode="&#x30b;" 
d="M-268 495l-47 18l55 157l75 -33zM-132 490l-46 16l66 155l72 -35z" />
    <glyph glyph-name="uni030C" unicode="&#x30c;" 
d="M-222 499l-103 107l37 33l106 -71l106 72l36 -34l-103 -107h-79z" />
    <glyph glyph-name="uni0312" unicode="&#x312;" 
d="M-97 490q-25 0 -43 19t-18 53q0 71 64 147l45 -25q-33 -48 -33 -74q0 -14 11 -21q31 -19 31 -49q0 -22 -16 -36t-41 -14z" />
    <glyph glyph-name="uni0313" unicode="&#x313;" 
d="M-80 490l-45 25q33 48 33 74q0 14 -11 21q-31 19 -31 49q0 22 16 36t41 14t43 -19t18 -53q0 -71 -64 -147z" />
    <glyph glyph-name="uni0326" unicode="&#x326;" 
d="M-104 -258l-45 25q33 48 33 74q0 14 -11 21q-31 19 -31 49q0 22 16 36t41 14t43 -19t18 -53q0 -71 -64 -147z" />
    <glyph glyph-name="uni0327" unicode="&#x327;" 
d="M-155 -221q-52 0 -98 22l20 53q41 -16 70 -16q24 0 34 8t10 26q0 21 -21.5 28.5t-70.5 9.5l13 100h65v-54q93 -8 93 -86q0 -45 -30.5 -68t-84.5 -23z" />
    <glyph glyph-name="uni0328" unicode="&#x328;" 
d="M-131 -222q-54 0 -83 24t-29 63q0 107 137 164l17 -29q-75 -64 -75 -117q0 -38 44 -38q23 0 63 11l17 -60q-47 -18 -91 -18z" />
    <glyph glyph-name="uni0335" unicode="&#x335;" 
d="M-353 210v69h313v-69h-313z" />
    <glyph glyph-name="uni0336" unicode="&#x336;" 
d="M-650 210v69h610v-69h-610z" />
    <glyph glyph-name="uni0337" unicode="&#x337;" 
d="M-277 -64l-72 24l238 627l71 -23z" />
    <glyph glyph-name="uni0338" unicode="&#x338;" 
d="M-362 -48l-64 39l54 82l13 8l199 307l2 12l54 84l64 -39l-50 -78l-12 -6l-200 -309l-2 -12z" />
    <glyph glyph-name="uni0394" unicode="&#x394;" horiz-adv-x="633" 
d="M372 648l244 -642v-6h-599v6l243 642h112zM137 76h355l-178 485z" />
    <glyph glyph-name="uni03A9" unicode="&#x3a9;" horiz-adv-x="719" 
d="M665 327q0 -191 -134 -252q67 5 126 5v-80h-214v70q126 68 126 256q0 114 -53 185t-159 71q-105 0 -156 -69.5t-51 -180.5q0 -188 127 -262v-70h-214v80q56 0 121 -5q-130 65 -130 256q0 85 26 150t70.5 103t99 57t116.5 19q148 0 223.5 -94.5t75.5 -238.5z" />
    <glyph glyph-name="uni03BC" unicode="&#x3bc;" horiz-adv-x="516" 
d="M360 438l86 10v-448h-77l-5 34q-70 -42 -138 -42q-46 0 -78 23q8 -45 8 -82v-119h-86v624l86 10v-296q0 -49 18.5 -69t65.5 -20q48 0 120 37v338z" />
    <glyph glyph-name="pi" unicode="&#x3c0;" horiz-adv-x="535" 
d="M525 438l-9 -68h-61v-370h-86v370h-186v-370h-86v370h-67v68h495z" />
    <glyph glyph-name="uni060C" unicode="&#x60c;" horiz-adv-x="201" 
d="M94 -7q-26 0 -45 19.5t-19 56.5q0 85 82 188l49 -27q-47 -65 -47 -98q0 -13 11 -21t22 -20t11 -35q0 -26 -18.5 -44.5t-45.5 -18.5z" />
    <glyph glyph-name="uni0615" unicode="&#x615;" 
d="M247 644q32 0 54.5 -25t22.5 -56q0 -93 -133 -93q-66 0 -110 2l-17 44l3 6h35q6 8 18 22v173h49v-115q42 42 78 42zM275 529q7 24 -3 43.5t-28 19.5q-17 0 -36 -16t-54 -55h37q64 0 84 8z" />
    <glyph glyph-name="uni061B" unicode="&#x61b;" horiz-adv-x="201" 
d="M94 239q-26 0 -45 19.5t-19 56.5q0 85 82 188l49 -27q-47 -65 -47 -98q0 -13 11 -21t22 -20t11 -35q0 -26 -18.5 -44.5t-45.5 -18.5zM94 -10q-26 0 -45 18.5t-19 44.5t19 44.5t45 18.5t45 -18.5t19 -44.5t-19 -44.5t-45 -18.5z" />
    <glyph glyph-name="uni061F" unicode="&#x61f;" horiz-adv-x="419" 
d="M277 195l-82 8v10q0 46 -18 77t-64 64t-64.5 66t-18.5 81q0 74 53 116.5t136 42.5q90 0 170 -54l-40 -70q-61 41 -120 41q-50 0 -77.5 -22.5t-27.5 -61.5q0 -24 13.5 -44.5t48.5 -47.5q52 -40 72.5 -79t20.5 -90q0 -13 -2 -37zM224 -10q-26 0 -45 18.5t-19 44.5t19 44.5
t45 18.5t45 -18.5t19 -44.5t-19 -44.5t-45 -18.5z" />
    <glyph glyph-name="uni0621" unicode="&#x621;" horiz-adv-x="395" 
d="M338 88l8 -70q-132 -13 -318 -23l-4 72q56 2 83 4q-31 44 -31 94q0 57 39 94.5t97 37.5q60 0 103 -23l-21 -70q-43 18 -78 18q-30 0 -47.5 -18t-17.5 -48q0 -45 38 -81q103 7 149 13z" />
    <glyph glyph-name="uni0622" unicode="&#x622;" horiz-adv-x="208" 
d="M182 727q-32 0 -61.5 12.5t-57.5 12.5q-36 0 -77 -26l-28 45q50 41 99 41q31 0 65 -13t64 -13q24 0 44 8l19 -51q-33 -16 -67 -16zM71 -5l-6 3v666l73 19l5 -4l-1 -669z" />
    <glyph glyph-name="uni0623" unicode="&#x623;" horiz-adv-x="208" 
d="M190 811l5 -51q-79 -10 -191 -14l-5 54q29 0 45 1q-18 28 -18 58q0 36 21.5 57.5t60.5 21.5q33 0 70 -14l-14 -52q-32 10 -47 10q-18 0 -27.5 -10.5t-9.5 -26.5q0 -23 19 -42q43 3 91 8zM65 664l73 19l5 -4l-1 -669l-71 -15l-6 3v666z" />
    <glyph glyph-name="uni0624" unicode="&#x624;" horiz-adv-x="428" 
d="M108 420l-6 59q32 0 49 1q-20 30 -20 64q0 40 24.5 64t66.5 24q35 0 77 -16l-15 -58q-32 12 -52 12t-30.5 -12t-10.5 -30q0 -26 22 -45q48 3 99 8l6 -56q-81 -11 -210 -15zM216 323q68 0 110 -71.5t42 -168.5q0 -106 -78 -181t-228 -79l-42 58l5 8q105 5 175.5 40.5
t93.5 96.5q-51 -11 -97 -11q-64 0 -96 31t-32 86q0 70 44.5 130.5t102.5 60.5zM133 142q0 -50 80 -50q49 0 90 9q-4 56 -30.5 100t-60.5 44q-30 0 -54.5 -31t-24.5 -72z" />
    <glyph glyph-name="uni0625" unicode="&#x625;" horiz-adv-x="208" 
d="M142 10l-71 -15l-6 3v666l73 19l5 -4zM197 -188l5 -51q-79 -10 -191 -14l-5 54q30 0 45 1q-18 28 -18 59q0 36 21.5 57.5t60.5 21.5q33 0 70 -14l-14 -53q-30 11 -47 11q-18 0 -27.5 -11t-9.5 -27q0 -24 20 -42q41 3 90 8z" />
    <glyph glyph-name="uni0626" unicode="&#x626;" horiz-adv-x="760" 
d="M59 271l-6 59q32 0 49 1q-20 30 -20 64q0 40 24.5 64t66.5 24q35 0 77 -16l-15 -58q-31 12 -52 12q-20 0 -30.5 -12t-10.5 -30q0 -26 22 -45q48 3 99 8l6 -56q-81 -10 -210 -15zM617 426q60 0 104 -27l-14 -70l-4 -3q-42 22 -87 22q-56 0 -98.5 -41.5t-42.5 -79.5
q0 -17 21.5 -28t76.5 -30q10 -3 15 -5q70 -24 92.5 -44t22.5 -48q0 -61 -54 -114t-143.5 -84t-189.5 -31q-131 0 -201 54.5t-70 142.5q0 59 16 111l63 22l8 -4q-10 -51 -10 -91q0 -76 48 -116.5t164 -40.5q95 0 178 32t112 72q6 23 -11 36.5t-68 30.5q-41 14 -56.5 20
t-37.5 20t-29.5 33t-7.5 48q0 75 59.5 144t143.5 69z" />
    <glyph glyph-name="uni0627" unicode="&#x627;" horiz-adv-x="208" 
d="M71 -5l-6 3v666l73 19l5 -4l-1 -669z" />
    <glyph glyph-name="uni0628" unicode="&#x628;" horiz-adv-x="844" 
d="M738 336q46 -105 46 -174q0 -89 -62 -127q-74 -46 -271 -46h-68q-170 0 -254 42.5t-84 141.5q0 66 16 112l59 22l8 -4q-10 -50 -10 -91q0 -44 18 -73t56.5 -44.5t88.5 -21.5t123 -6h70q167 0 236 31q5 37 -6 75t-44 112l69 51h9zM347 -163l51 75l82 -55l-51 -77z" />
    <glyph glyph-name="uni0629" unicode="&#x629;" horiz-adv-x="396" 
d="M170 568l-49 -77l-81 57l49 76zM311 568l-51 -77l-81 57l51 76zM149 404q112 -98 152 -152t40 -114q0 -62 -47 -103t-118 -41q-67 0 -105 33t-38 93q0 73 91 195l-21 16l38 69zM184 72q39 0 60.5 17t21.5 48q0 57 -89 135q-74 -79 -74 -135q0 -30 22 -47.5t59 -17.5z" />
    <glyph glyph-name="uni062A" unicode="&#x62a;" horiz-adv-x="844" 
d="M423 456l-49 -77l-81 57l49 76zM564 456l-51 -77l-81 57l51 76zM738 336q46 -105 46 -174q0 -89 -62 -127q-74 -46 -271 -46h-68q-170 0 -254 42.5t-84 141.5q0 66 16 112l59 22l8 -4q-10 -50 -10 -91q0 -44 18 -73t56.5 -44.5t88.5 -21.5t123 -6h70q167 0 236 31
q5 37 -6 75t-44 112l69 51h9z" />
    <glyph glyph-name="uni062B" unicode="&#x62b;" horiz-adv-x="844" 
d="M484 570l-50 -78l-82 58l51 75zM423 456l-49 -77l-81 57l49 76zM515 379l-81 57l51 76l81 -56zM738 336q46 -105 46 -174q0 -89 -62 -127q-74 -46 -271 -46h-68q-170 0 -254 42.5t-84 141.5q0 66 16 112l59 22l8 -4q-10 -50 -10 -91q0 -44 18 -73t56.5 -44.5t88.5 -21.5
t123 -6h70q167 0 236 31q5 37 -6 75t-44 112l69 51h9z" />
    <glyph glyph-name="uni062C" unicode="&#x62c;" horiz-adv-x="635" 
d="M604 -306l6 -7l-22 -63q-30 -18 -87.5 -29t-115.5 -11q-150 0 -245 70.5t-95 186.5q0 121 87.5 222.5t219.5 162.5q-14 3 -34 9q-88 24 -141 24q-56 0 -124 -20l-3 4l30 73q40 20 103 20q47 0 128 -23q143 -40 286 -40l-20 -80q-199 -2 -329 -101.5t-130 -227.5
q0 -95 77.5 -148.5t208.5 -53.5q99 0 200 32zM363 -186l-81 58l51 75l82 -55z" />
    <glyph glyph-name="uni062D" unicode="&#x62d;" horiz-adv-x="635" 
d="M604 -306l6 -7l-22 -63q-30 -18 -87.5 -29t-115.5 -11q-150 0 -245 70.5t-95 186.5q0 121 87.5 222.5t219.5 162.5q-14 3 -34 9q-88 24 -141 24q-56 0 -124 -20l-3 4l30 73q40 20 103 20q47 0 128 -23q143 -40 286 -40l-20 -80q-199 -2 -329 -101.5t-130 -227.5
q0 -95 77.5 -148.5t208.5 -53.5q99 0 200 32z" />
    <glyph glyph-name="uni062E" unicode="&#x62e;" horiz-adv-x="635" 
d="M381 526l-51 -77l-82 57l51 76zM604 -306l6 -7l-22 -63q-30 -18 -87.5 -29t-115.5 -11q-150 0 -245 70.5t-95 186.5q0 121 87.5 222.5t219.5 162.5q-14 3 -34 9q-88 24 -141 24q-56 0 -124 -20l-3 4l30 73q40 20 103 20q47 0 128 -23q143 -40 286 -40l-20 -80
q-199 -2 -329 -101.5t-130 -227.5q0 -95 77.5 -148.5t208.5 -53.5q99 0 200 32z" />
    <glyph glyph-name="uni062F" unicode="&#x62f;" horiz-adv-x="439" 
d="M152 -5q-66 0 -117 12l11 73l5 4q44 -10 110 -10q54 0 102.5 10.5t62.5 27.5q-16 107 -155 240l42 74h7q169 -177 169 -286q0 -145 -237 -145z" />
    <glyph glyph-name="uni0630" unicode="&#x630;" horiz-adv-x="439" 
d="M217 540l-82 57l51 76l82 -56zM152 -5q-66 0 -117 12l11 73l5 4q44 -10 110 -10q54 0 102.5 10.5t62.5 27.5q-16 107 -155 240l42 74h7q169 -177 169 -286q0 -145 -237 -145z" />
    <glyph glyph-name="uni0631" unicode="&#x631;" horiz-adv-x="341" 
d="M-26 -177l-42 58l4 8q132 24 205.5 77.5t73.5 102.5q-5 61 -72 182l58 61h8q72 -131 72 -225q0 -52 -27 -102q-30 -55 -104.5 -99.5t-175.5 -62.5z" />
    <glyph glyph-name="uni0632" unicode="&#x632;" horiz-adv-x="341" 
d="M205 426l-82 57l51 76l82 -56zM-26 -177l-42 58l4 8q132 24 205.5 77.5t73.5 102.5q-5 61 -72 182l58 61h8q72 -131 72 -225q0 -52 -27 -102q-30 -55 -104.5 -99.5t-175.5 -62.5z" />
    <glyph glyph-name="uni0633" unicode="&#x633;" horiz-adv-x="1094" 
d="M983 336q51 -121 51 -180q0 -156 -180 -156q-63 0 -113 26q-34 -26 -92 -26q-44 0 -77 26q-16 -104 -94 -158t-196 -54q-114 0 -175.5 56.5t-61.5 149.5q0 62 16 112l63 22l8 -4q-10 -50 -10 -92q0 -81 39 -123.5t136 -42.5q129 0 191 77q12 28 14 56t-7.5 62.5t-19.5 60
t-30 71.5l70 49h6q3 -7 13 -37.5t19.5 -55t18.5 -42.5q29 -55 85 -55q32 0 49 11q15 20 47 115l79 12l5 -4q-40 -108 -47 -123q37 -11 70 -11q66 0 91 12q6 15 7 33.5t-2 35.5t-11 40.5t-15 41.5t-19 44l66 52z" />
    <glyph glyph-name="uni0634" unicode="&#x634;" horiz-adv-x="1094" 
d="M836 578l-50 -78l-82 58l51 75zM775 464l-49 -77l-81 57l49 76zM867 387l-81 57l51 76l81 -56zM983 336q51 -121 51 -180q0 -156 -180 -156q-63 0 -113 26q-34 -26 -92 -26q-44 0 -77 26q-16 -104 -94 -158t-196 -54q-114 0 -175.5 56.5t-61.5 149.5q0 62 16 112l63 22
l8 -4q-10 -50 -10 -92q0 -81 39 -123.5t136 -42.5q129 0 191 77q12 28 14 56t-7.5 62.5t-19.5 60t-30 71.5l70 49h6q3 -7 13 -37.5t19.5 -55t18.5 -42.5q29 -55 85 -55q32 0 49 11q15 20 47 115l79 12l5 -4q-40 -108 -47 -123q37 -11 70 -11q66 0 91 12q6 15 7 33.5t-2 35.5
t-11 40.5t-15 41.5t-19 44l66 52z" />
    <glyph glyph-name="uni0635" unicode="&#x635;" horiz-adv-x="1229" 
d="M1026 335q61 0 104.5 -48.5t43.5 -111.5q0 -79 -59 -129q-33 -28 -90.5 -37t-169.5 -9h-82q-94 0 -135 4.5t-66 22.5q-16 -105 -94 -159t-196 -54q-114 0 -175.5 56.5t-61.5 149.5q0 54 16 112l63 22l8 -4q-10 -50 -10 -92q0 -81 39 -123.5t136 -42.5q129 0 191 77
q12 28 14 56t-7.5 62.5t-19.5 60t-30 71.5l70 49h6q3 -7 13 -37.5t19.5 -55t18.5 -42.5q14 -27 34 -38.5t59 -14.5q141 136 220.5 195.5t140.5 59.5zM1084 100q18 25 18 63q0 33 -25 64t-60 31q-42 0 -103 -45.5t-152 -134.5h87q112 0 160.5 4.5t74.5 17.5z" />
    <glyph glyph-name="uni0636" unicode="&#x636;" horiz-adv-x="1229" 
d="M1073 526l-51 -77l-82 57l51 76zM1026 335q61 0 104.5 -48.5t43.5 -111.5q0 -79 -59 -129q-33 -28 -90.5 -37t-169.5 -9h-82q-94 0 -135 4.5t-66 22.5q-16 -105 -94 -159t-196 -54q-114 0 -175.5 56.5t-61.5 149.5q0 54 16 112l63 22l8 -4q-10 -50 -10 -92
q0 -81 39 -123.5t136 -42.5q129 0 191 77q12 28 14 56t-7.5 62.5t-19.5 60t-30 71.5l70 49h6q3 -7 13 -37.5t19.5 -55t18.5 -42.5q14 -27 34 -38.5t59 -14.5q141 136 220.5 195.5t140.5 59.5zM1084 100q18 25 18 63q0 33 -25 64t-60 31q-42 0 -103 -45.5t-152 -134.5h87
q112 0 160.5 4.5t74.5 17.5z" />
    <glyph glyph-name="uni0637" unicode="&#x637;" horiz-adv-x="711" 
d="M508 335q61 0 104.5 -48.5t43.5 -111.5q0 -79 -59 -129q-33 -28 -90.5 -37t-169.5 -9h-252l-35 66l3 12h93q32 32 48 47v539l72 18l6 -3v-482q154 138 236 138zM566 100q18 25 18 63q0 33 -25 64t-60 31q-42 0 -103 -45.5t-152 -134.5h87q112 0 160.5 4.5t74.5 17.5z" />
    <glyph glyph-name="uni0638" unicode="&#x638;" horiz-adv-x="711" 
d="M508 335q61 0 104.5 -48.5t43.5 -111.5q0 -79 -59 -129q-33 -28 -90.5 -37t-169.5 -9h-252l-35 66l3 12h93q32 32 48 47v539l72 18l6 -3v-482q154 138 236 138zM572 526l-51 -77l-82 57l51 76zM566 100q18 25 18 63q0 33 -25 64t-60 31q-42 0 -103 -45.5t-152 -134.5h87
q112 0 160.5 4.5t74.5 17.5z" />
    <glyph glyph-name="uni0639" unicode="&#x639;" horiz-adv-x="525" 
d="M571 -316l14 -56q-108 -44 -234 -44q-142 0 -229 61.5t-87 167.5q0 122 137 209q-45 36 -71 85.5t-26 99.5q0 76 54.5 121t138.5 45q75 0 134 -33l-9 -71l-4 -2q-65 27 -119 27q-50 0 -78.5 -22.5t-28.5 -66.5q0 -36 20.5 -75t59.5 -68q79 38 190 70l5 -2l-6 -80
q-161 -46 -240.5 -97.5t-79.5 -126.5q0 -77 71.5 -121t194.5 -44q99 0 186 28z" />
    <glyph glyph-name="uni063A" unicode="&#x63a;" horiz-adv-x="525" 
d="M333 564l-51 -77l-82 57l51 76zM571 -316l14 -56q-108 -44 -234 -44q-142 0 -229 61.5t-87 167.5q0 122 137 209q-45 36 -71 85.5t-26 99.5q0 76 54.5 121t138.5 45q75 0 134 -33l-9 -71l-4 -2q-65 27 -119 27q-50 0 -78.5 -22.5t-28.5 -66.5q0 -36 20.5 -75t59.5 -68
q79 38 190 70l5 -2l-6 -80q-161 -46 -240.5 -97.5t-79.5 -126.5q0 -77 71.5 -121t194.5 -44q99 0 186 28z" />
    <glyph glyph-name="uni0640" unicode="&#x640;" horiz-adv-x="80" 
d="M0 0l19 77h80q24 0 32.5 -6.5t8.5 -19.5q0 -19 -13 -35t-47 -16h-80z" />
    <glyph glyph-name="uni0641" unicode="&#x641;" horiz-adv-x="896" 
d="M729 645l-51 -77l-82 57l51 76zM684 456q68 0 110 -71.5t42 -168.5q0 -73 -13.5 -116.5t-47.5 -66.5q-38 -27 -111.5 -35.5t-212.5 -8.5h-68q-170 0 -254 42.5t-84 141.5q0 66 16 112l59 22l8 -4q-10 -50 -10 -91q0 -44 18 -73t56.5 -44.5t88.5 -21.5t123 -6h70
q243 0 289 33q5 16 7 61q-54 -13 -105 -13q-64 0 -96 31t-32 86q0 70 44.5 130.5t102.5 60.5zM601 275q0 -50 80 -50q49 0 90 9q-4 56 -30.5 100t-60.5 44q-30 0 -54.5 -31t-24.5 -72z" />
    <glyph glyph-name="uni0642" unicode="&#x642;" horiz-adv-x="715" 
d="M491 514l-49 -77l-81 57l49 76zM632 514l-51 -77l-81 57l51 76zM503 323q68 0 110 -71.5t42 -168.5q0 -269 -339 -269q-131 0 -201 54.5t-70 142.5q0 59 16 111l63 22l9 -4q-11 -49 -11 -91q0 -76 48 -116.5t164 -40.5q90 0 153.5 26t86.5 64q7 26 11 45
q-50 -12 -101 -12q-64 0 -96 31t-32 86q0 70 44.5 130.5t102.5 60.5zM420 142q0 -50 80 -50q50 0 90 9q-4 56 -30.5 100t-60.5 44q-30 0 -54.5 -31t-24.5 -72z" />
    <glyph glyph-name="uni0643" unicode="&#x643;" horiz-adv-x="813" 
d="M741 682l7 -3v-494q0 -112 -61.5 -154t-235.5 -42h-68q-170 0 -254 42.5t-84 141.5q0 66 16 112l59 22l8 -4q-10 -50 -10 -91q0 -44 18 -73t56.5 -44.5t88.5 -21.5t123 -6h70q147 0 189 30q7 30 7 79v488zM322 262l-5 48q30 0 46 1q-19 27 -19 59q0 36 22.5 57.5
t60.5 21.5q33 0 70 -15l-14 -46q-30 11 -50 11q-42 0 -42 -39q0 -28 21 -47q56 3 96 9l5 -46q-77 -10 -191 -14z" />
    <glyph glyph-name="uni0644" unicode="&#x644;" horiz-adv-x="647" 
d="M282 -186q-114 0 -175.5 56.5t-61.5 149.5q0 62 16 112l63 22l8 -4q-10 -50 -10 -92q0 -81 39 -123.5t136 -42.5q124 0 183 71q23 50 23 155v546l72 18l7 -3l-1 -551q0 -165 -74.5 -239.5t-224.5 -74.5z" />
    <glyph glyph-name="uni0645" unicode="&#x645;" horiz-adv-x="469" 
d="M248 322q70 0 118 -70t48 -152q0 -54 -12.5 -76.5t-41.5 -22.5q-23 0 -70.5 4.5t-74.5 4.5q-58 0 -89 -20q-6 -18 -6.5 -46t4 -65.5t9.5 -68t13 -75t11 -65.5l-66 -32l-8 5q-5 34 -16.5 105.5t-16.5 109t-5 62.5q0 68 47 118t141 50q42 0 110 -10q-2 64 -33.5 115
t-74.5 51q-25 0 -47 -26t-31 -78l-43 -7l-10 5q5 87 47 135.5t97 48.5z" />
    <glyph glyph-name="uni0646" unicode="&#x646;" horiz-adv-x="634" 
d="M309 315l-82 57l51 76l82 -56zM282 -186q-110 0 -173.5 55t-63.5 151q0 66 16 112l63 22l8 -4q-10 -44 -10 -92q0 -86 42 -126t133 -40q129 0 191 77q19 47 10 99.5t-53 150.5l70 49h6q20 -43 36.5 -103t16.5 -93q0 -118 -79 -188t-213 -70z" />
    <glyph glyph-name="uni0647" unicode="&#x647;" horiz-adv-x="396" 
d="M149 404q112 -98 152 -152t40 -114q0 -62 -47 -103t-118 -41q-67 0 -105 33t-38 93q0 73 91 195l-21 16l38 69zM184 72q39 0 60.5 17t21.5 48q0 57 -89 135q-74 -79 -74 -135q0 -30 22 -47.5t59 -17.5z" />
    <glyph glyph-name="uni0648" unicode="&#x648;" horiz-adv-x="428" 
d="M216 323q68 0 110 -71.5t42 -168.5q0 -106 -78 -181t-228 -79l-42 58l5 8q105 5 175.5 40.5t93.5 96.5q-51 -11 -97 -11q-64 0 -96 31t-32 86q0 70 44.5 130.5t102.5 60.5zM133 142q0 -50 80 -50q49 0 90 9q-4 56 -30.5 100t-60.5 44q-30 0 -54.5 -31t-24.5 -72z" />
    <glyph glyph-name="uni0649" unicode="&#x649;" horiz-adv-x="760" 
d="M316 -157q-131 0 -201 54.5t-70 142.5q0 59 16 111l63 22l8 -4q-10 -51 -10 -91q0 -76 48 -116.5t164 -40.5q95 0 178 32t112 72q6 23 -11 36.5t-68 30.5q-41 14 -56.5 20t-37.5 20t-29.5 33t-7.5 48q0 75 59.5 144t143.5 69q60 0 104 -27l-14 -70l-4 -3q-42 22 -87 22
q-56 0 -98.5 -41.5t-42.5 -79.5q0 -17 21.5 -28t76.5 -30q10 -3 15 -5q70 -24 92.5 -44t22.5 -48q0 -61 -54 -114t-143.5 -84t-189.5 -31z" />
    <glyph glyph-name="uni064A" unicode="&#x64a;" horiz-adv-x="760" 
d="M316 -157q-131 0 -201 54.5t-70 142.5q0 59 16 111l63 22l8 -4q-10 -51 -10 -91q0 -76 48 -116.5t164 -40.5q95 0 178 32t112 72q6 23 -11 36.5t-68 30.5q-41 14 -56.5 20t-37.5 20t-29.5 33t-7.5 48q0 75 59.5 144t143.5 69q60 0 104 -27l-14 -70l-4 -3q-42 22 -87 22
q-56 0 -98.5 -41.5t-42.5 -79.5q0 -17 21.5 -28t76.5 -30q10 -3 15 -5q70 -24 92.5 -44t22.5 -48q0 -61 -54 -114t-143.5 -84t-189.5 -31zM256 -366l-81 57l49 75l81 -55zM399 -366l-81 57l51 75l81 -55z" />
    <glyph glyph-name="uni064B" unicode="&#x64b;" 
d="M40 710v50l239 46v-51zM40 609v50l239 46v-51z" />
    <glyph glyph-name="uni064C" unicode="&#x64c;" 
d="M281 842q34 0 54 -25t20 -58q0 -60 -61.5 -100.5t-171.5 -46.5l-14 41q14 21 14 39q0 26 -24 26q-18 0 -33 -15l-25 34q30 30 65 30q28 0 44 -19.5t16 -48.5q0 -19 -7 -36q54 6 91 22q-26 16 -37.5 31t-11.5 39q0 32 23.5 59.5t57.5 27.5zM278 794q-12 0 -24 -10t-12 -25
q0 -13 11.5 -23t35.5 -23q19 19 19 44q0 14 -8.5 25.5t-21.5 11.5z" />
    <glyph glyph-name="uni064D" unicode="&#x64d;" 
d="M40 -214v50l239 46v-51zM40 -315v50l239 46v-51z" />
    <glyph glyph-name="uni064E" unicode="&#x64e;" 
d="M40 609v50l239 46v-51z" />
    <glyph glyph-name="uni064F" unicode="&#x64f;" 
d="M200 842q32 0 53.5 -24t21.5 -58q0 -25 -12 -45.5t-31 -35t-50 -27.5t-62.5 -22t-73.5 -18l-11 46q88 19 125 33q-40 25 -40 65q0 34 24 60t56 26zM162 761q0 -14 9 -23.5t34 -22.5q23 17 23 41q0 15 -8.5 26.5t-22.5 11.5q-13 0 -24 -10.5t-11 -22.5z" />
    <glyph glyph-name="uni0650" unicode="&#x650;" 
d="M40 -214v50l239 46v-51z" />
    <glyph glyph-name="uni0651" unicode="&#x651;" 
d="M298 770q15 -41 15 -72q0 -37 -19.5 -62t-55.5 -25q-40 0 -60 25q-22 -27 -62 -27q-77 0 -77 78q0 21 8 49l47 2q-5 -27 -5 -42q0 -38 29 -38q18 0 26.5 16.5t9.5 59.5l46 3q-1 -16 -1 -39q0 -37 35 -37q29 0 29 37q0 28 -13 60z" />
    <glyph glyph-name="uni0652" unicode="&#x652;" 
d="M122 606q-37 0 -59.5 21.5t-22.5 56.5q0 44 23.5 70t63.5 26q35 0 57 -25t22 -66q0 -37 -23 -60t-61 -23zM122 652q18 0 28.5 10t10.5 27q0 19 -10.5 30t-27.5 11t-27.5 -11t-10.5 -29q0 -17 10 -27.5t27 -10.5z" />
    <glyph glyph-name="uni0653" unicode="&#x653;" 
d="M284 592q-32 0 -61.5 12.5t-57.5 12.5q-36 0 -77 -26l-28 45q50 41 99 41q31 0 65 -13t64 -13q24 0 44 8l19 -51q-33 -16 -67 -16z" />
    <glyph glyph-name="uni0654" unicode="&#x654;" 
d="M231 676l5 -51q-79 -10 -191 -14l-5 54q29 0 45 1q-18 28 -18 58q0 36 21.5 57.5t60.5 21.5q33 0 70 -14l-14 -52q-32 10 -47 10q-18 0 -27.5 -10.5t-9.5 -26.5q0 -23 19 -42q43 3 91 8z" />
    <glyph glyph-name="uni0655" unicode="&#x655;" 
d="M231 -188l5 -51q-79 -10 -191 -14l-5 54q30 0 45 1q-18 28 -18 59q0 36 21.5 57.5t60.5 21.5q33 0 70 -14l-14 -53q-30 11 -47 11q-18 0 -27.5 -11t-9.5 -27q0 -24 20 -42q41 3 90 8z" />
    <glyph glyph-name="uni0656" unicode="&#x656;" 
d="M39 -247v192h57v-192h-57z" />
    <glyph glyph-name="uni0658" unicode="&#x658;" 
d="M161 604q-49 0 -77.5 26.5t-28.5 70.5q0 21 8 48l43 12q-5 -28 -5 -45q0 -60 65 -60q54 0 77 28q11 32 -19 97l47 34q24 -54 24 -92q0 -53 -38.5 -86t-95.5 -33z" />
    <glyph glyph-name="uni0660" unicode="&#x660;" horiz-adv-x="483" 
d="M246 173q-12 11 -35 32.5t-40 37.5l63 69q40 -32 77 -73z" />
    <glyph glyph-name="uni0661" unicode="&#x661;" horiz-adv-x="483" 
d="M251 -11l-10 2q-28 330 -67 532l67 48l10 -2q22 -110 41 -301t19 -263z" />
    <glyph glyph-name="uni0662" unicode="&#x662;" horiz-adv-x="483" 
d="M387 561l60 -6q-11 -172 -163 -172q-61 0 -111 26q35 -278 35 -404l-60 -16l-10 2q-28 330 -67 532l67 48l10 -2q11 -61 13 -74q48 -34 119 -34q47 0 73 20.5t34 79.5z" />
    <glyph glyph-name="uni0663" unicode="&#x663;" horiz-adv-x="483" 
d="M427 570q29 -61 29 -110q0 -46 -28.5 -74t-69.5 -28q-55 0 -81 32q-19 -35 -59 -35q-34 0 -58 19q31 -258 31 -369l-60 -16l-10 2q-28 330 -67 532l67 48l10 -2q4 -18 17 -100q11 -37 51 -37q21 0 32.5 19.5t20.5 75.5l58 -8q-7 -49 -7 -50q0 -34 48 -34q37 0 39.5 33
t-18.5 82z" />
    <glyph glyph-name="uni0664" unicode="&#x664;" horiz-adv-x="483" 
d="M424 87l2 -4l-25 -71q-57 -16 -137 -16t-124 28.5t-44 80.5q0 91 111 168q-111 32 -111 95q0 60 67.5 120t188.5 81l5 -3l-15 -80q-85 -17 -127 -45.5t-42 -57.5q0 -21 42 -34t117 -13l5 -9l-18 -68q-65 -26 -105 -64t-40 -67q0 -54 120 -54q29 0 130 13z" />
    <glyph glyph-name="uni0665" unicode="&#x665;" horiz-adv-x="483" 
d="M251 -5q-185 0 -185 205q0 108 52.5 190.5t132.5 82.5q81 0 133 -82t52 -191q0 -205 -185 -205zM251 73q109 0 109 114q0 82 -29 145t-80 63t-80 -63t-29 -145q0 -114 109 -114z" />
    <glyph glyph-name="uni0666" unicode="&#x666;" horiz-adv-x="483" 
d="M359 553q1 -105 23.5 -278.5t40.5 -260.5l-71 -30l-8 2q-1 9 -11 71t-18 116t-17 138t-12 158q-58 -4 -126 0.5t-111 14.5l8 74l5 6q136 -25 297 -11z" />
    <glyph glyph-name="uni0667" unicode="&#x667;" horiz-adv-x="483" 
d="M407 570l65 -47l-196 -522l-78 -9l-186 543l77 34h7l141 -470l162 470z" />
    <glyph glyph-name="uni0668" unicode="&#x668;" horiz-adv-x="483" 
d="M284 570l187 -543l-78 -34h-6l-141 470l-163 -470l-7 -1l-65 48l196 521z" />
    <glyph glyph-name="uni0669" unicode="&#x669;" horiz-adv-x="483" 
d="M389 321q13 -160 43 -307l-70 -30l-8 2q-23 137 -39 278q-42 -11 -79 -11q-71 0 -115.5 30.5t-44.5 94.5q0 72 50.5 130.5t112.5 58.5q131 0 150 -246zM151 388q0 -58 96 -58q32 0 61 8q-9 78 -26 114t-52 36q-33 0 -56 -30.5t-23 -69.5z" />
    <glyph glyph-name="uni066A" unicode="&#x66a;" horiz-adv-x="473" 
d="M118 -24l-60 25l287 624l62 -28zM107 479q-16 16 -37.5 36t-36.5 34l63 68q32 -26 77 -73zM374 -12l-75 70l64 68q35 -28 76 -73z" />
    <glyph glyph-name="uni066B" unicode="&#x66b;" horiz-adv-x="240" 
d="M76 -148l-49 27q47 65 47 98q0 13 -11 21t-22 20t-11 35q0 26 18.5 44.5t45.5 18.5q26 0 45 -19.5t19 -56.5q0 -85 -82 -188z" />
    <glyph glyph-name="uni066C" unicode="&#x66c;" horiz-adv-x="208" 
d="M61 -118l-39 21q37 53 37 79q0 10 -8.5 16.5t-17.5 16t-9 27.5q0 21 14.5 36t36.5 15q21 0 36 -15.5t15 -45.5q0 -67 -65 -150z" />
    <glyph glyph-name="uni066D" unicode="&#x66d;" horiz-adv-x="710" 
d="M160 -16l-22 17l124 234l-222 108l6 28l248 -26l47 239h29l46 -238l248 25l6 -30l-224 -104l126 -236l-22 -17l-195 171z" />
    <glyph glyph-name="uni066E" unicode="&#x66e;" horiz-adv-x="844" 
d="M738 336q46 -105 46 -174q0 -89 -62 -127q-74 -46 -271 -46h-68q-170 0 -254 42.5t-84 141.5q0 66 16 112l59 22l8 -4q-10 -50 -10 -91q0 -44 18 -73t56.5 -44.5t88.5 -21.5t123 -6h70q167 0 236 31q5 37 -6 75t-44 112l69 51h9z" />
    <glyph glyph-name="uni066F" unicode="&#x66f;" horiz-adv-x="715" 
d="M503 323q68 0 110 -71.5t42 -168.5q0 -269 -339 -269q-131 0 -201 54.5t-70 142.5q0 59 16 111l63 22l9 -4q-11 -49 -11 -91q0 -76 48 -116.5t164 -40.5q90 0 153.5 26t86.5 64q7 26 11 45q-50 -12 -101 -12q-64 0 -96 31t-32 86q0 70 44.5 130.5t102.5 60.5zM420 142
q0 -50 80 -50q50 0 90 9q-4 56 -30.5 100t-60.5 44q-30 0 -54.5 -31t-24.5 -72z" />
    <glyph glyph-name="uni0670" unicode="&#x670;" 
d="M39 621v193h57v-193h-57z" />
    <glyph glyph-name="uni0671" unicode="&#x671;" horiz-adv-x="208" 
d="M151 846q20 0 34 -15.5t14 -35.5q0 -57 -83 -57q-58 0 -90 16q-20 -15 -50 -15l8 31q17 0 28 9q5 7 18 43l34 5l2 -2q-10 -29 -21 -48l19 -3q32 40 49.5 56t37.5 16zM166 776q4 16 -1 26t-16 10q-16 0 -52 -41h19q40 0 50 5zM65 664l73 19l5 -4l-1 -669l-71 -15l-6 3v666
z" />
    <glyph glyph-name="uni0679" unicode="&#x679;" horiz-adv-x="844" 
d="M421 383q-66 0 -110 2l-17 44l3 6h35q6 8 18 22v173h49v-115q42 42 78 42q32 0 54.5 -25t22.5 -56q0 -93 -133 -93zM474 505q-17 0 -36 -16t-54 -55h37q64 0 84 8q7 24 -3 43.5t-28 19.5zM738 336q46 -105 46 -174q0 -89 -62 -127q-74 -46 -271 -46h-68q-170 0 -254 42.5
t-84 141.5q0 66 16 112l59 22l8 -4q-10 -50 -10 -91q0 -44 18 -73t56.5 -44.5t88.5 -21.5t123 -6h70q167 0 236 31q5 37 -6 75t-44 112l69 51h9z" />
    <glyph glyph-name="uni067E" unicode="&#x67e;" horiz-adv-x="844" 
d="M738 336q46 -105 46 -174q0 -89 -62 -127q-74 -46 -271 -46h-68q-170 0 -254 42.5t-84 141.5q0 66 16 112l59 22l8 -4q-10 -50 -10 -91q0 -44 18 -73t56.5 -44.5t88.5 -21.5t123 -6h70q167 0 236 31q5 37 -6 75t-44 112l69 51h9zM405 -143l-51 -76l-81 56l51 77z
M418 -163l48 77l82 -57l-50 -76zM352 -261l51 78l81 -58l-50 -75z" />
    <glyph glyph-name="uni0686" unicode="&#x686;" horiz-adv-x="645" 
d="M604 -306l6 -7l-22 -63q-30 -18 -87.5 -29t-115.5 -11q-150 0 -245 70.5t-95 186.5q0 121 87.5 222.5t219.5 162.5q-14 3 -34 9q-88 24 -141 24q-56 0 -124 -20l-3 4l30 73q40 20 103 20q47 0 128 -23q143 -40 286 -40l-20 -80q-199 -2 -329 -101.5t-130 -227.5
q0 -95 77.5 -148.5t208.5 -53.5q99 0 200 32zM258 -71l50 77l81 -57l-50 -75zM535 -51l-50 -75l-79 55l48 77zM471 -164l-50 -74l-81 54l51 78z" />
    <glyph glyph-name="uni0688" unicode="&#x688;" horiz-adv-x="439" 
d="M191 544q-66 0 -110 2l-17 44l3 6h35q6 8 18 22v173h49v-115q42 42 78 42q32 0 54.5 -25t22.5 -56q0 -93 -133 -93zM244 666q-17 0 -36 -16t-54 -55h37q64 0 84 8q7 24 -3 43.5t-28 19.5zM220 426q169 -177 169 -286q0 -145 -237 -145q-66 0 -117 12l11 73l5 4
q44 -10 110 -10q54 0 102.5 10.5t62.5 27.5q-16 107 -155 240l42 74h7z" />
    <glyph glyph-name="uni0691" unicode="&#x691;" horiz-adv-x="341" 
d="M235 604q32 0 54.5 -25t22.5 -56q0 -93 -133 -93q-66 0 -110 2l-17 44l3 6h35q6 8 18 22v173h49v-115q42 42 78 42zM263 489q7 24 -3 43.5t-28 19.5q-17 0 -36 -16t-54 -55h37q64 0 84 8zM201 312h8q72 -131 72 -225q0 -52 -27 -102q-30 -55 -104.5 -99.5t-175.5 -62.5
l-42 58l4 8q132 24 205.5 77.5t73.5 102.5q-5 61 -72 182z" />
    <glyph glyph-name="uni0698" unicode="&#x698;" horiz-adv-x="341" 
d="M192 539l-82 58l51 75l81 -55zM132 426l-81 57l49 76l81 -56zM273 426l-81 57l51 76l81 -56zM-26 -177l-42 58l4 8q132 24 205.5 77.5t73.5 102.5q-5 61 -72 182l58 61h8q72 -131 72 -225q0 -52 -27 -102q-30 -55 -104.5 -99.5t-175.5 -62.5z" />
    <glyph glyph-name="uni06A1" unicode="&#x6a1;" horiz-adv-x="896" 
d="M684 456q68 0 110 -71.5t42 -168.5q0 -73 -13.5 -116.5t-47.5 -66.5q-38 -27 -111.5 -35.5t-212.5 -8.5h-68q-170 0 -254 42.5t-84 141.5q0 66 16 112l59 22l8 -4q-10 -50 -10 -91q0 -44 18 -73t56.5 -44.5t88.5 -21.5t123 -6h70q243 0 289 33q5 16 7 61
q-54 -13 -105 -13q-64 0 -96 31t-32 86q0 70 44.5 130.5t102.5 60.5zM601 275q0 -50 80 -50q49 0 90 9q-4 56 -30.5 100t-60.5 44q-30 0 -54.5 -31t-24.5 -72z" />
    <glyph glyph-name="uni06A4" unicode="&#x6a4;" horiz-adv-x="896" 
d="M715 759l-50 -78l-82 58l51 75zM654 645l-49 -77l-81 57l49 76zM746 568l-81 57l51 76l81 -56zM684 456q68 0 110 -71.5t42 -168.5q0 -73 -13.5 -116.5t-47.5 -66.5q-38 -27 -111.5 -35.5t-212.5 -8.5h-68q-170 0 -254 42.5t-84 141.5q0 66 16 112l59 22l8 -4
q-10 -50 -10 -91q0 -44 18 -73t56.5 -44.5t88.5 -21.5t123 -6h70q243 0 289 33q5 16 7 61q-54 -13 -105 -13q-64 0 -96 31t-32 86q0 70 44.5 130.5t102.5 60.5zM601 275q0 -50 80 -50q49 0 90 9q-4 56 -30.5 100t-60.5 44q-30 0 -54.5 -31t-24.5 -72z" />
    <glyph glyph-name="uni06A9" unicode="&#x6a9;" horiz-adv-x="872" 
d="M877 646l-26 -98l-260 -145q135 -88 181.5 -147t46.5 -113q0 -88 -86.5 -121t-281.5 -33h-68q-170 0 -254 42.5t-84 141.5q0 66 16 112l59 22l8 -4q-10 -50 -10 -91q0 -44 18 -73t56.5 -44.5t88.5 -21.5t123 -6h70q234 0 285 52q0 53 -58.5 107t-176.5 129l-4 6l21 102
l328 186z" />
    <glyph glyph-name="uni06AF" unicode="&#x6af;" horiz-adv-x="852" 
d="M857 721l-316 -181l-6 5l16 77l322 180l7 -3zM541 463l328 186l8 -3l-26 -98l-260 -145q135 -88 181.5 -147t46.5 -113q0 -88 -86.5 -121t-281.5 -33h-68q-170 0 -254 42.5t-84 141.5q0 66 16 112l59 22l8 -4q-10 -50 -10 -91q0 -44 18 -73t56.5 -44.5t88.5 -21.5t123 -6
h70q234 0 285 52q0 53 -58.5 107t-176.5 129l-4 6z" />
    <glyph glyph-name="uni06BA" unicode="&#x6ba;" horiz-adv-x="634" 
d="M282 -186q-110 0 -173.5 55t-63.5 151q0 66 16 112l63 22l8 -4q-10 -44 -10 -92q0 -86 42 -126t133 -40q129 0 191 77q19 47 10 99.5t-53 150.5l70 49h6q20 -43 36.5 -103t16.5 -93q0 -118 -79 -188t-213 -70z" />
    <glyph glyph-name="uni06BE" unicode="&#x6be;" horiz-adv-x="634" 
d="M231 426q170 -100 237 -155q121 -97 121 -179q0 -96 -140 -96q-88 0 -154 29q-39 -16 -117 -22q-68 -5 -120 -41h-7l-31 55q44 59 149 61q21 0 47 2q-40 46 -40 107q0 41 20 80.5t54 58.5q-49 23 -51 24l25 74zM297 278q-23 0 -40 -26t-17 -58q0 -65 65 -99q47 26 47 94
q0 36 -16.5 62.5t-38.5 26.5zM449 68q59 0 72 15q-1 55 -107 138q2 -20 2 -32q0 -66 -46 -115q34 -6 79 -6z" />
    <glyph glyph-name="uni06C1" unicode="&#x6c1;" horiz-adv-x="396" 
d="M149 404q112 -98 152 -152t40 -114q0 -62 -47 -103t-118 -41q-67 0 -105 33t-38 93q0 73 91 195l-21 16l38 69zM184 72q39 0 60.5 17t21.5 48q0 57 -89 135q-74 -79 -74 -135q0 -30 22 -47.5t59 -17.5z" />
    <glyph glyph-name="uni06C2" unicode="&#x6c2;" horiz-adv-x="396" 
d="M80 544l-5 54q29 0 45 1q-18 28 -18 58q0 36 21.5 57.5t60.5 21.5q33 0 70 -14l-14 -52q-32 10 -47 10q-18 0 -27.5 -10.5t-9.5 -26.5q0 -23 19 -42q43 3 91 8l5 -51q-79 -10 -191 -14zM149 404q112 -98 152 -152t40 -114q0 -62 -47 -103t-118 -41q-67 0 -105 33t-38 93
q0 73 91 195l-21 16l38 69zM184 72q39 0 60.5 17t21.5 48q0 57 -89 135q-74 -79 -74 -135q0 -30 22 -47.5t59 -17.5z" />
    <glyph glyph-name="uni06C3" unicode="&#x6c3;" horiz-adv-x="396" 
d="M170 568l-49 -77l-81 57l49 76zM311 568l-51 -77l-81 57l51 76zM149 404q112 -98 152 -152t40 -114q0 -62 -47 -103t-118 -41q-67 0 -105 33t-38 93q0 73 91 195l-21 16l38 69zM184 72q39 0 60.5 17t21.5 48q0 57 -89 135q-74 -79 -74 -135q0 -30 22 -47.5t59 -17.5z" />
    <glyph glyph-name="uni06CC" unicode="&#x6cc;" horiz-adv-x="760" 
d="M316 -157q-131 0 -201 54.5t-70 142.5q0 59 16 111l63 22l8 -4q-10 -51 -10 -91q0 -76 48 -116.5t164 -40.5q95 0 178 32t112 72q6 23 -11 36.5t-68 30.5q-41 14 -56.5 20t-37.5 20t-29.5 33t-7.5 48q0 75 59.5 144t143.5 69q60 0 104 -27l-14 -70l-4 -3q-42 22 -87 22
q-56 0 -98.5 -41.5t-42.5 -79.5q0 -17 21.5 -28t76.5 -30q10 -3 15 -5q70 -24 92.5 -44t22.5 -48q0 -61 -54 -114t-143.5 -84t-189.5 -31z" />
    <glyph glyph-name="uni06D2" unicode="&#x6d2;" horiz-adv-x="854" 
d="M784 -10q-440 0 -608 25t-168 103q0 35 25 62t55 39.5t61 25t38 20.5q12 13 32.5 52t44 62t58.5 23q48 0 82 -59t29 -134l-58 -20l-6 5q-1 45 -17 87t-31 51q-10 0 -21.5 -22t-28 -53.5t-34.5 -47.5q-25 -22 -67.5 -37t-70 -24.5t-27.5 -21.5q20 -32 183.5 -45t553.5 -13
l3 -5z" />
    <glyph glyph-name="uni06D3" unicode="&#x6d3;" horiz-adv-x="854" 
d="M37 419l-5 54q29 0 45 1q-18 28 -18 58q0 36 21.5 57.5t60.5 21.5q33 0 70 -14l-14 -52q-32 10 -47 10q-18 0 -27.5 -10.5t-9.5 -26.5q0 -23 19 -42q43 3 91 8l5 -51q-79 -10 -191 -14zM809 68l3 -5l-28 -73q-440 0 -608 25t-168 103q0 35 25 62t55 39.5t61 25t38 20.5
q12 13 32.5 52t44 62t58.5 23q48 0 82 -59t29 -134l-58 -20l-6 5q-1 45 -17 87t-31 51q-10 0 -21.5 -22t-28 -53.5t-34.5 -47.5q-25 -22 -67.5 -37t-70 -24.5t-27.5 -21.5q20 -32 183.5 -45t553.5 -13z" />
    <glyph glyph-name="uni06D4" unicode="&#x6d4;" horiz-adv-x="268" 
d="M180 0q-87 0 -160 25l16 70l5 5q85 -22 155 -22h26l-16 -78h-26z" />
    <glyph glyph-name="uni06F0" unicode="&#x6f0;" horiz-adv-x="483" 
d="M246 173q-12 11 -35 32.5t-40 37.5l63 69q40 -32 77 -73z" />
    <glyph glyph-name="uni06F1" unicode="&#x6f1;" horiz-adv-x="483" 
d="M251 -11l-10 2q-28 330 -67 532l67 48l10 -2q22 -110 41 -301t19 -263z" />
    <glyph glyph-name="uni06F2" unicode="&#x6f2;" horiz-adv-x="483" 
d="M387 561l60 -6q-11 -172 -163 -172q-61 0 -111 26q35 -278 35 -404l-60 -16l-10 2q-28 330 -67 532l67 48l10 -2q11 -61 13 -74q48 -34 119 -34q47 0 73 20.5t34 79.5z" />
    <glyph glyph-name="uni06F3" unicode="&#x6f3;" horiz-adv-x="483" 
d="M427 570q29 -61 29 -110q0 -46 -28.5 -74t-69.5 -28q-55 0 -81 32q-19 -35 -59 -35q-34 0 -58 19q31 -258 31 -369l-60 -16l-10 2q-28 330 -67 532l67 48l10 -2q4 -18 17 -100q11 -37 51 -37q21 0 32.5 19.5t20.5 75.5l58 -8q-7 -49 -7 -50q0 -34 48 -34q37 0 39.5 33
t-18.5 82z" />
    <glyph glyph-name="uni06F4" unicode="&#x6f4;" horiz-adv-x="483" 
d="M435 338q-51 -39 -137 -39q-49 0 -135 15q26 -227 24 -309l-60 -16l-10 2q-28 330 -67 532l67 48l10 -2q11 -55 28 -180q17 -3 63 -10q-15 32 -15 65q0 58 34 90.5t83 32.5q70 0 104 -62l-49 -40q-23 29 -57 29q-22 0 -37 -15t-15 -38q0 -35 27 -69h11q64 0 107 23z" />
    <glyph glyph-name="uni06F5" unicode="&#x6f5;" horiz-adv-x="483" 
d="M205 572q39 -30 75 -65t79 -88t69 -119.5t26 -133.5q0 -79 -32.5 -125t-94.5 -46q-60 0 -88 52q-35 -52 -87 -52q-58 0 -91 40.5t-33 116.5q0 86 44.5 175t108.5 161q-2 2 -32 25l46 59h10zM327 72q27 0 42 20.5t15 56.5q0 152 -158 299q-56 -64 -93 -143t-37 -151
q0 -40 15.5 -61t41.5 -21q51 0 62 94h54v-3q7 -91 58 -91z" />
    <glyph glyph-name="uni06F6" unicode="&#x6f6;" horiz-adv-x="483" 
d="M405 367l8 -2l-7 -83q-106 -45 -161.5 -106t-108.5 -188l-61 11l-7 7q46 154 154 248q-56 28 -87.5 71t-31.5 90q0 62 45 107t111 45q82 0 121 -62l-49 -42q-29 29 -71 29t-62 -24t-20 -53q0 -74 109 -113q48 32 118 65z" />
    <glyph glyph-name="uni06F7" unicode="&#x6f7;" horiz-adv-x="483" 
d="M407 570l65 -47l-196 -522l-78 -9l-186 543l77 34h7l141 -470l162 470z" />
    <glyph glyph-name="uni06F8" unicode="&#x6f8;" horiz-adv-x="483" 
d="M284 570l187 -543l-78 -34h-6l-141 470l-163 -470l-7 -1l-65 48l196 521z" />
    <glyph glyph-name="uni06F9" unicode="&#x6f9;" horiz-adv-x="483" 
d="M389 321q13 -160 43 -307l-70 -30l-8 2q-23 137 -39 278q-42 -11 -79 -11q-71 0 -115.5 30.5t-44.5 94.5q0 72 50.5 130.5t112.5 58.5q131 0 150 -246zM151 388q0 -58 96 -58q32 0 61 8q-9 78 -26 114t-52 36q-33 0 -56 -30.5t-23 -69.5z" />
    <glyph glyph-name="uni2007" unicode="&#x2007;" horiz-adv-x="540" 
 />
    <glyph glyph-name="uni200B" unicode="&#x200b;" 
 />
    <glyph glyph-name="uni200C" unicode="&#x200c;" 
d="M-8 -150v900h16v-900h-16z" />
    <glyph glyph-name="uni200D" unicode="&#x200d;" 
d="M-8 -150v881l-49 -49l-11 11l57 57l-54 54l11 11l54 -54l54 54l11 -11l-54 -54l57 -57l-11 -11l-49 49v-881h-16z" />
    <glyph glyph-name="uni200E" unicode="&#x200e;" 
d="M-8 -150v908h111l-43 55l13 9l55 -72l-55 -72l-13 9l43 55h-95v-892h-16z" />
    <glyph glyph-name="uni200F" unicode="&#x200f;" 
d="M-8 -150v892h-95l43 -55l-13 -9l-55 72l55 72l13 -9l-43 -55h111v-908h-16z" />
    <glyph glyph-name="uni2011" unicode="&#x2011;" horiz-adv-x="380" 
d="M50 228v80h280v-80h-280z" />
    <glyph glyph-name="figuredash" unicode="&#x2012;" horiz-adv-x="540" 
d="M50 284v80h440v-80h-440z" />
    <glyph glyph-name="endash" unicode="&#x2013;" horiz-adv-x="600" 
d="M50 228v80h500v-80h-500z" />
    <glyph glyph-name="emdash" unicode="&#x2014;" horiz-adv-x="1000" 
d="M50 228v80h900v-80h-900z" />
    <glyph glyph-name="uni2015" unicode="&#x2015;" horiz-adv-x="1000" 
d="M-2 228v80h1004v-80h-1004z" />
    <glyph glyph-name="quoteleft" unicode="&#x2018;" horiz-adv-x="183" 
d="M94 420q-26 0 -45 20t-19 56q0 66 84 164l42 -26q-49 -65 -49 -91q0 -11 9 -16q12 -7 18 -12t12 -16t6 -25q0 -25 -16 -39.5t-42 -14.5z" />
    <glyph glyph-name="quoteright" unicode="&#x2019;" horiz-adv-x="183" 
d="M69 420l-42 26q49 65 49 91q0 11 -9 16q-12 7 -18 12t-12 16t-6 25q0 25 16 39.5t42 14.5t45 -20t19 -56q0 -66 -84 -164z" />
    <glyph glyph-name="quotesinglbase" unicode="&#x201a;" horiz-adv-x="183" 
d="M69 -134l-42 26q49 65 49 91q0 11 -9 16q-12 7 -18 12t-12 16t-6 25q0 25 16 39.5t42 14.5t45 -20t19 -56q0 -66 -84 -164z" />
    <glyph glyph-name="quotedblleft" unicode="&#x201c;" horiz-adv-x="349" 
d="M94 420q-26 0 -45 20t-19 56q0 66 84 164l42 -26q-49 -65 -49 -91q0 -11 9 -16q12 -7 18 -12t12 -16t6 -25q0 -25 -16 -39.5t-42 -14.5zM260 420q-26 0 -45 20t-19 56q0 66 84 164l42 -26q-49 -65 -49 -91q0 -11 9 -16q12 -7 18 -12t12 -16t6 -25q0 -25 -16 -39.5
t-42 -14.5z" />
    <glyph glyph-name="quotedblright" unicode="&#x201d;" horiz-adv-x="349" 
d="M69 420l-42 26q49 65 49 91q0 11 -9 16q-12 7 -18 12t-12 16t-6 25q0 25 16 39.5t42 14.5t45 -20t19 -56q0 -66 -84 -164zM235 420l-42 26q49 65 49 91q0 11 -9 16q-12 7 -18 12t-12 16t-6 25q0 25 16 39.5t42 14.5t45 -20t19 -56q0 -66 -84 -164z" />
    <glyph glyph-name="quotedblbase" unicode="&#x201e;" horiz-adv-x="349" 
d="M69 -134l-42 26q49 65 49 91q0 11 -9 16q-12 7 -18 12t-12 16t-6 25q0 25 16 39.5t42 14.5t45 -20t19 -56q0 -66 -84 -164zM235 -134l-42 26q49 65 49 91q0 11 -9 16q-12 7 -18 12t-12 16t-6 25q0 25 16 39.5t42 14.5t45 -20t19 -56q0 -66 -84 -164z" />
    <glyph glyph-name="dagger" unicode="&#x2020;" horiz-adv-x="540" 
d="M224 -74v491h-164v80h164v191h92v-191h164v-80h-164v-491h-92z" />
    <glyph glyph-name="daggerdbl" unicode="&#x2021;" horiz-adv-x="540" 
d="M224 -74v191h-164v80h164v220h-164v80h164v191h92v-191h164v-80h-164v-220h164v-80h-164v-191h-92z" />
    <glyph glyph-name="bullet" unicode="&#x2022;" horiz-adv-x="325" 
d="M162 190q-42 0 -72 29.5t-30 71.5q0 41 30 71t72 30t72.5 -30t30.5 -71q0 -42 -30.5 -71.5t-72.5 -29.5z" />
    <glyph glyph-name="ellipsis" unicode="&#x2026;" horiz-adv-x="608" 
d="M94 -10q-26 0 -45 18.5t-19 44.5t19 44.5t45 18.5t45 -18.5t19 -44.5t-19 -44.5t-45 -18.5zM304 -10q-26 0 -45 18.5t-19 44.5t19 44.5t45 18.5t45 -18.5t19 -44.5t-19 -44.5t-45 -18.5zM514 -10q-26 0 -45 18.5t-19 44.5t19 44.5t45 18.5t45 -18.5t19 -44.5t-19 -44.5
t-45 -18.5z" />
    <glyph glyph-name="perthousand" unicode="&#x2030;" horiz-adv-x="1380" 
d="M242 280q-83 0 -137.5 50.5t-54.5 140.5q0 88 54.5 138.5t137.5 50.5q82 0 136.5 -50.5t54.5 -138.5q0 -90 -54.5 -140.5t-136.5 -50.5zM280 -12l-59 39l460 633l59 -38zM242 349q49 0 77 34.5t28 86.5q0 53 -27.5 87t-77.5 34t-78 -33.5t-28 -85.5q0 -54 28 -88.5
t78 -34.5zM719 -12q-83 0 -137.5 50.5t-54.5 140.5q0 88 54.5 138.5t137.5 50.5q82 0 136.5 -50.5t54.5 -138.5q0 -90 -54.5 -140.5t-136.5 -50.5zM1139 -12q-83 0 -137.5 50.5t-54.5 140.5q0 88 54.5 138.5t137.5 50.5q82 0 136.5 -50.5t54.5 -138.5q0 -90 -54.5 -140.5
t-136.5 -50.5zM719 57q49 0 77 34.5t28 86.5q0 53 -27.5 87t-77.5 34t-78 -33.5t-28 -85.5q0 -54 28 -88.5t78 -34.5zM1139 57q49 0 77 34.5t28 86.5q0 53 -27.5 87t-77.5 34t-78 -33.5t-28 -85.5q0 -54 28 -88.5t78 -34.5z" />
    <glyph glyph-name="guilsinglleft" unicode="&#x2039;" horiz-adv-x="320" 
d="M201 68l-148 158v84l148 158l46 -34l-115 -166l115 -166z" />
    <glyph glyph-name="guilsinglright" unicode="&#x203a;" horiz-adv-x="320" 
d="M119 68l-46 34l115 166l-115 166l46 34l148 -158v-84z" />
    <glyph glyph-name="fraction" unicode="&#x2044;" horiz-adv-x="226" 
d="M-93 -87l-62 33l474 790l62 -33z" />
    <glyph glyph-name="Euro" unicode="&#x20ac;" horiz-adv-x="540" 
d="M471 126l48 -60q-47 -42 -91 -60t-97 -18q-205 0 -241 237h-69l10 64h54q-1 11 -1 33q0 24 1 36h-64l10 64h61q21 118 87.5 177.5t157.5 59.5q98 0 178 -61l-43 -65q-35 26 -62.5 37t-70.5 11q-62 0 -102.5 -41t-55.5 -118h238l-10 -64h-236q-1 -11 -1 -35q0 -23 1 -34
h228l-10 -64h-211q26 -159 153 -159q78 0 138 60z" />
    <glyph glyph-name="uni2113" unicode="&#x2113;" horiz-adv-x="540" 
d="M302 63q34 0 76 22l28 -57q-62 -40 -128 -40q-57 0 -89 36.5t-37 98.5q-37 -30 -71 -55l-28 37q63 55 99 89q7 225 74.5 365.5t161.5 140.5q98 0 98 -106q0 -70 -65 -177t-181 -217v-17q0 -67 15 -93.5t47 -26.5zM382 630q-38 0 -79.5 -100.5t-56.5 -236.5
q85 98 121.5 175.5t36.5 126.5q0 35 -22 35z" />
    <glyph glyph-name="published" unicode="&#x2117;" horiz-adv-x="764" 
d="M383 660q141 0 238.5 -98t97.5 -239t-97.5 -238t-238.5 -97t-239.5 97t-98.5 238t98.5 239t239.5 98zM383 45q115 0 194 81t79 197q0 117 -79 198.5t-194 81.5q-116 0 -195.5 -81.5t-79.5 -198.5q0 -116 79.5 -197t195.5 -81zM397 514q77 0 117.5 -34.5t40.5 -93.5
q0 -52 -37 -91.5t-123 -39.5h-66v-116h-77v375h145zM390 320q85 0 85 67q0 62 -73 62h-73v-129h61z" />
    <glyph glyph-name="uni2120" unicode="&#x2120;" horiz-adv-x="888" 
d="M225 497q62 -21 93 -46.5t31 -77.5q0 -53 -39 -80.5t-108 -27.5q-87 0 -144 43l34 51q48 -34 108 -34q76 0 76 46q0 23 -15 36.5t-58 27.5l-12 4q-61 21 -89 45.5t-28 69.5q0 49 39.5 75t95.5 26q76 0 135 -37l-34 -51q-47 28 -101 28q-64 0 -64 -41q0 -17 16 -29t52 -24
zM748 648h79v-376h-73v254q-14 -33 -17 -39l-85 -164h-64l-85 164q-10 18 -18 38v-253h-73v376h86l81 -155q30 -56 43 -89q10 36 40 89z" />
    <glyph glyph-name="trademark" unicode="&#x2122;" horiz-adv-x="880" 
d="M23 584v64h342v-64h-133v-312h-76v312h-133zM748 648h79v-376h-73v254q-14 -33 -17 -39l-85 -164h-64l-85 164q-10 18 -18 38v-253h-73v376h86l81 -155q30 -56 43 -89q10 36 40 89z" />
    <glyph glyph-name="uni2126" unicode="&#x2126;" horiz-adv-x="719" 
d="M665 327q0 -191 -134 -252q67 5 126 5v-80h-214v70q126 68 126 256q0 114 -53 185t-159 71q-105 0 -156 -69.5t-51 -180.5q0 -188 127 -262v-70h-214v80q56 0 121 -5q-130 65 -130 256q0 85 26 150t70.5 103t99 57t116.5 19q148 0 223.5 -94.5t75.5 -238.5z" />
    <glyph glyph-name="estimated" unicode="&#x212e;" horiz-adv-x="826" 
d="M413 660q169 0 268 -100t99 -246h-586q-5 0 -9 -3.5t-4 -8.5v-160q0 -28 15 -42q88 -88 217 -88q69 0 129.5 29t99.5 76h66q-38 -53 -113 -90.5t-182 -37.5q-166 0 -267 93.5t-101 240.5q0 146 100 241.5t268 95.5zM413 635q-129 0 -217 -90q-15 -14 -15 -39v-160
q0 -11 13 -11h436q13 0 13 11v160q0 25 -15 39q-90 90 -215 90z" />
    <glyph glyph-name="partialdiff" unicode="&#x2202;" horiz-adv-x="540" 
d="M165 661q178 -59 251.5 -146t73.5 -259q0 -127 -59 -197.5t-163 -70.5q-102 0 -160 53.5t-58 161.5q0 105 56 156.5t140 51.5q82 0 148 -48q-16 94 -73.5 142.5t-185.5 94.5zM264 61q138 0 138 195q0 25 -1 37q-65 43 -132 43q-71 0 -100.5 -33.5t-29.5 -102.5
q0 -63 32 -101t93 -38z" />
    <glyph glyph-name="uni2206" unicode="&#x2206;" horiz-adv-x="633" 
d="M372 648l244 -642v-6h-599v6l243 642h112zM137 76h355l-178 485z" />
    <glyph glyph-name="product" unicode="&#x220f;" horiz-adv-x="540" 
d="M520 648l-9 -73h-56v-761h-86v761h-205v-761h-86v761h-58v73h500z" />
    <glyph glyph-name="summation" unicode="&#x2211;" horiz-adv-x="540" 
d="M490 648v-80h-317l200 -298v-52l-201 -324h318v-80h-440v45l239 385l-239 359v45h440z" />
    <glyph glyph-name="minus" unicode="&#x2212;" horiz-adv-x="540" 
d="M70 217v76h400v-76h-400z" />
    <glyph glyph-name="uni2215" unicode="&#x2215;" horiz-adv-x="540" 
d="M110 -12l-62 33l382 639l62 -33z" />
    <glyph glyph-name="uni2219" unicode="&#x2219;" horiz-adv-x="540" 
d="M270 193q-26 0 -45 18.5t-19 44.5t19 44.5t45 18.5t45 -18.5t19 -44.5t-19 -44.5t-45 -18.5z" />
    <glyph glyph-name="radical" unicode="&#x221a;" horiz-adv-x="540" 
d="M192 0l-172 422l84 28l125 -323l212 712h259v-74h-196l-229 -765h-83z" />
    <glyph glyph-name="infinity" unicode="&#x221e;" horiz-adv-x="777" 
d="M560 450q82 0 132 -49.5t50 -130.5q0 -79 -52.5 -129t-138.5 -50q-58 0 -101.5 32t-64.5 80q-55 -112 -168 -112q-82 0 -132 49.5t-50 131.5q0 78 53 128t138 50q58 0 101.5 -32t64.5 -80q55 112 168 112zM230 159q23 0 43.5 9.5t36.5 29t26 35t23 40.5
q-20 35 -32.5 53.5t-39 37t-58.5 18.5q-45 0 -76.5 -26.5t-31.5 -83.5q0 -60 30 -86.5t79 -26.5zM547 159q46 0 77 26.5t31 84.5q0 59 -30 85.5t-79 26.5q-23 0 -43.5 -9.5t-36.5 -29t-26 -35t-23 -40.5q20 -35 32.5 -53.5t39 -37t58.5 -18.5z" />
    <glyph glyph-name="integral" unicode="&#x222b;" horiz-adv-x="300" 
d="M34 -196q-73 0 -129 25l26 65q44 -16 91 -16q80 0 80 91v711q0 83 55 126.5t128 43.5q58 0 110 -18l-22 -68q-45 14 -89 14q-96 0 -96 -111v-712q0 -73 -42.5 -112t-111.5 -39z" />
    <glyph glyph-name="approxequal" unicode="&#x2248;" horiz-adv-x="540" 
d="M346 280q-42 0 -92 25t-64 25q-38 0 -60 -43l-60 23q44 102 124 102q42 0 92 -25t64 -25q38 0 60 43l60 -23q-44 -102 -124 -102zM346 111q-42 0 -92 25t-64 25q-38 0 -60 -43l-60 23q44 102 124 102q42 0 92 -25t64 -25q38 0 60 43l60 -23q-44 -102 -124 -102z" />
    <glyph glyph-name="notequal" unicode="&#x2260;" horiz-adv-x="540" 
d="M470 297h-137l-49 -84h186v-76h-229l-98 -169l-60 30l80 139h-93v76h137l49 84h-186v76h229l98 169l60 -30l-80 -139h93v-76z" />
    <glyph glyph-name="lessequal" unicode="&#x2264;" horiz-adv-x="540" 
d="M470 393l-339 -116l339 -98l-18 -74l-382 114v115l369 129zM70 0v76h400v-76h-400z" />
    <glyph glyph-name="greaterequal" unicode="&#x2265;" horiz-adv-x="540" 
d="M101 463l369 -129v-115l-382 -114l-18 74l339 98l-339 116zM70 0v76h400v-76h-400z" />
    <glyph glyph-name="lozenge" unicode="&#x25ca;" horiz-adv-x="540" 
d="M229 0l-208 322l208 326h88l202 -324l-207 -324h-83zM271 75l152 248l-154 251l-152 -251z" />
    <glyph glyph-name="uniFBB2" unicode="&#xfbb2;" 
d="M102 466l-82 57l51 76l82 -56z" />
    <glyph glyph-name="uniFBB3" unicode="&#xfbb3;" 
d="M102 -209l-82 57l51 75l82 -55z" />
    <glyph glyph-name="uniFBB4" unicode="&#xfbb4;" 
d="M98 466l-81 57l49 76l81 -56zM237 466l-81 57l51 76l81 -56z" />
    <glyph glyph-name="uniFBB5" unicode="&#xfbb5;" 
d="M96 -209l-81 57l49 75l81 -55zM239 -209l-81 57l51 75l81 -55z" />
    <glyph glyph-name="uniFBB6" unicode="&#xfbb6;" 
d="M157 579l-82 58l51 75l81 -55zM97 466l-81 57l49 76l81 -56zM238 466l-81 57l51 76l81 -56z" />
    <glyph glyph-name="uniFBB9" unicode="&#xfbb9;" 
d="M99 -208l-81 56l51 77l81 -57zM243 -208l-80 56l48 77l82 -57zM179 -305l-82 55l51 78l81 -58z" />
    <glyph glyph-name="uniFD3E" unicode="&#xfd3e;" horiz-adv-x="545" 
d="M486 -205q-10 0 -26 10q-54 35 -123.5 117.5t-94.5 163.5q-42 -17 -74 -17q-25 0 -25 13q0 15 19 34l55 56q12 12 12 20q0 6 -7 6q-8 0 -19 -8l-64 -47q-19 -14 -26 -14q-13 0 -13 28q0 15 6 39q-61 26 -61 50q0 13 14 24t47 26q-6 24 -6 39q0 28 13 28q7 0 26 -14
l64 -47q11 -8 19 -8q7 0 7 6q0 8 -12 20l-55 56q-19 19 -19 34q0 13 25 13q32 0 74 -17q25 82 95 165.5t123 115.5q16 10 26 10q7 0 7 -6q0 -7 -12 -20q-137 -149 -151 -262q31 9 47 9q22 0 22 -15q0 -11 -12 -23l-55 -60q-11 -12 -11 -20q0 -6 7 -6q8 0 19 8l64 47
q19 14 26 14q13 0 13 -28q0 -15 -6 -39q61 -26 61 -50t-61 -50q6 -24 6 -39q0 -28 -13 -28q-7 0 -26 14l-64 47q-11 8 -19 8q-7 0 -7 -6q0 -8 11 -20l55 -60q12 -12 12 -23q0 -15 -22 -15q-16 0 -47 9q13 -108 151 -262q12 -13 12 -20q0 -6 -7 -6zM245 320l2 1q-3 7 -3 13
q0 20 30 20q31 0 31 -18q0 -6 -3 -14l2 -1l55 63q8 9 8 12t-4 3q-16 0 -60 -25q6 61 28 113q4 10 8.5 19.5t7 14.5t4 9.5t1.5 6.5q0 6 -4 6q-8 0 -26 -25q-46 -64 -64 -145q-62 30 -76 30q-5 0 -5 -2q0 -3 6 -9zM125 162q4 0 18 10l58 43l-1 2q-9 -3 -15 -3q-21 0 -21 32
t21 32q6 0 15 -3l1 2l-58 43q-14 10 -18 10t-4 -8q0 -19 7 -45q-59 -14 -59 -31t59 -31q-7 -26 -7 -45q0 -8 4 -8zM425 162q4 0 4 8q0 19 -7 45q59 14 59 31t-59 31q7 26 7 45q0 8 -4 8t-18 -10l-58 -43l1 -2q9 3 15 3q21 0 21 -32t-21 -32q-6 0 -15 3l-1 -2l58 -43
q14 -10 18 -10zM275 196q21 0 35.5 14.5t14.5 35.5t-14.5 35.5t-35.5 14.5t-35.5 -14.5t-14.5 -35.5t14.5 -35.5t35.5 -14.5zM348 -51q4 0 4 6q0 3 -2 8t-8 17.5t-11 24.5q-22 52 -28 113q44 -25 60 -25q3 0 3 3q0 4 -4 8l-58 67l-2 -1q3 -8 3 -14q0 -18 -31 -18
q-30 0 -30 20q0 6 3 13l-2 1l-62 -72q-6 -6 -6 -9q0 -2 4 -2q15 0 77 30q18 -81 64 -145q18 -25 26 -25z" />
    <glyph glyph-name="uniFD3F" unicode="&#xfd3f;" horiz-adv-x="545" 
d="M59 -205q-7 0 -7 6t12 20q138 154 151 262q-31 -9 -47 -9q-22 0 -22 15q0 11 12 23l55 60q11 12 11 20q0 6 -7 6q-8 0 -19 -8l-64 -47q-19 -14 -26 -14q-13 0 -13 28q0 15 6 39q-61 26 -61 50t61 50q-6 24 -6 39q0 28 13 28q7 0 26 -14l64 -47q11 -8 19 -8q7 0 7 6
q0 8 -11 20l-55 60q-12 12 -12 23q0 15 22 15q16 0 47 -9q-14 113 -151 262q-12 13 -12 20q0 6 7 6q10 0 26 -10q53 -32 123 -115.5t95 -165.5q42 17 74 17q25 0 25 -13q0 -15 -19 -34l-55 -56q-12 -12 -12 -20q0 -6 7 -6q8 0 19 8l64 47q19 14 26 14q13 0 13 -28
q0 -15 -6 -39q33 -15 47 -26t14 -24q0 -24 -61 -50q6 -24 6 -39q0 -28 -13 -28q-7 0 -26 14l-64 47q-11 8 -19 8q-7 0 -7 -6q0 -8 12 -20l55 -56q19 -19 19 -34q0 -13 -25 -13q-32 0 -74 17q-25 -81 -94.5 -163.5t-123.5 -117.5q-16 -10 -26 -10zM300 320l62 72q6 6 6 9
q0 2 -5 2q-14 0 -76 -30q-18 81 -64 145q-18 25 -26 25q-4 0 -4 -6q0 -3 2 -8t8 -17.5t11 -24.5q22 -52 28 -113q-44 25 -60 25q-4 0 -4 -3t8 -12l55 -63l2 1q-3 8 -3 14q0 18 31 18q30 0 30 -20q0 -6 -3 -13zM120 162q4 0 18 10l58 43l-1 2q-9 -3 -15 -3q-21 0 -21 32
t21 32q6 0 15 -3l1 2l-58 43q-14 10 -18 10t-4 -8q0 -19 7 -45q-59 -14 -59 -31t59 -31q-7 -26 -7 -45q0 -8 4 -8zM420 162q4 0 4 8q0 19 -7 45q59 14 59 31t-59 31q7 26 7 45q0 8 -4 8t-18 -10l-58 -43l1 -2q9 3 15 3q21 0 21 -32t-21 -32q-6 0 -15 3l-1 -2l58 -43
q14 -10 18 -10zM270 196q21 0 35.5 14.5t14.5 35.5t-14.5 35.5t-35.5 14.5t-35.5 -14.5t-14.5 -35.5t14.5 -35.5t35.5 -14.5zM197 -51q8 0 26 25q46 64 64 145q62 -30 77 -30q4 0 4 2q0 3 -6 9l-62 72l-2 -1q3 -8 3 -13q0 -20 -30 -20q-31 0 -31 18q0 6 3 14l-2 1l-58 -67
q-4 -4 -4 -8q0 -3 3 -3q16 0 60 25q-6 -61 -28 -113q-4 -10 -8.5 -19.5t-7 -14.5t-4 -9.5t-1.5 -6.5q0 -6 4 -6z" />
    <glyph glyph-name="uniFEFF" unicode="&#xfeff;" 
 />
    <glyph glyph-name="f.short" horiz-adv-x="323" 
d="M186 531v-93h136l-9 -68h-127v-370h-86v370h-80v68h80v91q0 76 40.5 120t111.5 44q48 0 86 -19l-30 -63q-23 10 -52 10q-70 0 -70 -90z" />
    <glyph glyph-name="j.short" horiz-adv-x="226" 
d="M113 527q-25 0 -43 18t-18 43t18 43.5t43 18.5t43.5 -18t18.5 -44q0 -25 -18.5 -43t-43.5 -18zM36 -198q-33 0 -56 10l20 67q9 -3 21 -3q49 0 49 65v497l86 10v-505q0 -67 -33.5 -104t-86.5 -37z" />
    <glyph glyph-name="uni0627.short" horiz-adv-x="208" 
d="M71 -5l-6 3v666l73 19l5 -4l-1 -669z" />
    <glyph glyph-name="uniFE8E.short" horiz-adv-x="208" 
d="M71 -5l-6 3v666l73 19l5 -4l-1 -669z" />
    <glyph glyph-name="uni066E.medi.wide" horiz-adv-x="337" 
d="M357 78q40 0 40 -27q0 -19 -13 -35t-47 -16q-108 0 -164 48q-47 -48 -139 -48h-34l20 78h30q51 0 76 19q19 31 48 152l77 19l10 -6q-23 -104 -47 -153q51 -31 143 -31z" />
    <glyph glyph-name="uni066E.init.wide" horiz-adv-x="297" 
d="M0 0l20 78h29q80 0 105 12q6 24 7.5 41.5t-7.5 47t-17.5 52t-23.5 54.5l63 51h9q52 -119 52 -180q0 -33 -13 -67t-36 -55q-20 -19 -54 -26.5t-104 -7.5h-30z" />
    <glyph glyph-name="uniFE91.yeh" horiz-adv-x="260" 
d="M32 -17l-32 40q65 26 96 53q-1 51 -49 156l64 51h9q51 -121 51 -179q0 -61 -88 -113zM163 -451l-82 57l51 75l82 -55z" />
    <glyph glyph-name="uniFBE8.yeh" horiz-adv-x="260" 
d="M32 -17l-32 40q65 26 96 53q-1 51 -49 156l64 51h9q51 -121 51 -179q0 -61 -88 -113z" />
    <glyph glyph-name="uniFE97.yeh" horiz-adv-x="260" 
d="M21 373l-81 57l49 76l81 -56zM160 373l-81 57l51 76l81 -56zM32 -17l-32 40q65 26 96 53q-1 51 -49 156l64 51h9q51 -121 51 -179q0 -61 -88 -113z" />
    <glyph glyph-name="uniFE9B.yeh" horiz-adv-x="260" 
d="M81 486l-82 58l51 75l81 -55zM21 373l-81 57l49 76l81 -56zM162 373l-81 57l51 76l81 -56zM32 -17l-32 40q65 26 96 53q-1 51 -49 156l64 51h9q51 -121 51 -179q0 -61 -88 -113z" />
    <glyph glyph-name="uni0631.beh" horiz-adv-x="342" 
d="M37 -162l-38 57l2 8q103 29 159 76.5t56 89.5q-5 61 -72 182l57 61h8q73 -132 73 -225q0 -64 -36 -116q-64 -93 -209 -133z" />
    <glyph glyph-name="uniFEAE.beh" horiz-adv-x="358" 
d="M377 78q41 0 41 -27q0 -19 -13.5 -35t-47.5 -16q-54 0 -84 27q-21 -60 -83 -111t-153 -78l-38 57l2 8q189 53 220 179q-17 46 -77 168l58 62h9q4 -10 59 -154q21 -51 39.5 -65.5t67.5 -14.5z" />
    <glyph glyph-name="uniFEB0.beh" horiz-adv-x="358" 
d="M257 503l-51 -77l-82 57l51 76zM377 78q41 0 41 -27q0 -19 -13.5 -35t-47.5 -16q-54 0 -84 27q-21 -60 -83 -111t-153 -78l-38 57l2 8q189 53 220 179q-17 46 -77 168l58 62h9q4 -10 59 -154q21 -51 39.5 -65.5t67.5 -14.5z" />
    <glyph glyph-name="uni0632.beh" horiz-adv-x="342" 
d="M205 426l-82 57l51 76l82 -56zM37 -162l-38 57l2 8q103 29 159 76.5t56 89.5q-5 61 -72 182l57 61h8q73 -132 73 -225q0 -64 -36 -116q-64 -93 -209 -133z" />
    <glyph glyph-name="uniFED3.yeh" horiz-adv-x="373" 
d="M211 673l-51 -77l-82 57l51 76zM147 485q68 0 110 -71.5t42 -168.5q0 -58 -10.5 -96.5t-35.5 -64.5t-53 -41t-77 -32l-28 66q66 15 132 59q3 14 6 54q-49 -13 -105 -13q-64 0 -96 31t-32 86q0 70 44.5 130.5t102.5 60.5zM64 304q0 -50 80 -50q50 0 90 9q-4 56 -30.5 100
t-60.5 44q-30 0 -54.5 -31t-24.5 -72z" />
    <glyph glyph-name="uniFB6C.yeh" horiz-adv-x="373" 
d="M197 787l-50 -78l-82 58l51 75zM136 673l-49 -77l-81 57l49 76zM228 596l-81 57l51 76l81 -56zM147 485q68 0 110 -71.5t42 -168.5q0 -58 -10.5 -96.5t-35.5 -64.5t-53 -41t-77 -32l-28 66q66 15 132 59q3 14 6 54q-49 -13 -105 -13q-64 0 -96 31t-32 86q0 70 44.5 130.5
t102.5 60.5zM64 304q0 -50 80 -50q50 0 90 9q-4 56 -30.5 100t-60.5 44q-30 0 -54.5 -31t-24.5 -72z" />
    <glyph glyph-name="uni06A1.init.yeh" horiz-adv-x="373" 
d="M147 485q68 0 110 -71.5t42 -168.5q0 -58 -10.5 -96.5t-35.5 -64.5t-53 -41t-77 -32l-28 66q66 15 132 59q3 14 6 54q-49 -13 -105 -13q-64 0 -96 31t-32 86q0 70 44.5 130.5t102.5 60.5zM64 304q0 -50 80 -50q50 0 90 9q-4 56 -30.5 100t-60.5 44q-30 0 -54.5 -31
t-24.5 -72z" />
    <glyph glyph-name="uniFED7.yeh" horiz-adv-x="373" 
d="M136 673l-49 -77l-81 57l49 76zM277 673l-51 -77l-81 57l51 76zM147 485q68 0 110 -71.5t42 -168.5q0 -58 -10.5 -96.5t-35.5 -64.5t-53 -41t-77 -32l-28 66q66 15 132 59q3 14 6 54q-49 -13 -105 -13q-64 0 -96 31t-32 86q0 70 44.5 130.5t102.5 60.5zM64 304
q0 -50 80 -50q50 0 90 9q-4 56 -30.5 100t-60.5 44q-30 0 -54.5 -31t-24.5 -72z" />
    <glyph glyph-name="uniFEE0.yeh" horiz-adv-x="423" 
d="M443 78q40 0 40 -27q0 -19 -13 -35t-47 -16q-124 0 -154 118q-61 -40 -217 -50l-52 65q193 18 245 43q7 32 7 80v408l71 18l7 -3v-415q0 -92 24 -139t89 -47z" />
    <glyph glyph-name="uniFEDF.yeh" horiz-adv-x="273" 
d="M42 11l-43 66q80 16 124 42q7 31 7 81v408l71 18l7 -2v-417q0 -154 -166 -196z" />
    <glyph glyph-name="uniFEE7.yeh" horiz-adv-x="260" 
d="M94 373l-82 57l51 76l82 -56zM32 -17l-32 40q65 26 96 53q-1 51 -49 156l64 51h9q51 -121 51 -179q0 -61 -88 -113z" />
    <glyph glyph-name="uniFEF0.yeh" horiz-adv-x="631" 
d="M316 -186q-131 0 -201 54.5t-70 142.5q0 59 16 111l63 22l9 -4q-11 -49 -11 -91q0 -76 48 -116.5t164 -40.5q113 0 193.5 25t94.5 63q0 12 -9 22.5t-47 26.5t-106 33l23 72q129 -36 172 -64t43 -68q-10 -89 -114 -138.5t-268 -49.5z" />
    <glyph glyph-name="uniFEF2.yeh" horiz-adv-x="631" 
d="M316 -186q-131 0 -201 54.5t-70 142.5q0 59 16 111l63 22l9 -4q-11 -49 -11 -91q0 -76 48 -116.5t164 -40.5q113 0 193.5 25t94.5 63q0 12 -9 22.5t-47 26.5t-106 33l23 72q129 -36 172 -64t43 -68q-10 -89 -114 -138.5t-268 -49.5zM256 -395l-81 57l49 75l81 -55z
M399 -395l-81 57l51 75l81 -55z" />
    <glyph glyph-name="uniFEF3.yeh" horiz-adv-x="260" 
d="M32 -17l-32 40q65 26 96 53q-1 51 -49 156l64 51h9q51 -121 51 -179q0 -61 -88 -113zM85 -451l-81 57l49 75l81 -55zM228 -451l-81 57l51 75l81 -55z" />
    <glyph glyph-name="uniFE8A.yeh" horiz-adv-x="631" 
d="M75 311l-5 54q29 0 45 1q-18 28 -18 58q0 36 21.5 57.5t60.5 21.5q33 0 70 -14l-14 -52q-32 10 -47 10q-18 0 -27.5 -10.5t-9.5 -26.5q0 -23 19 -42q43 3 91 8l5 -51q-79 -10 -191 -14zM483 134q129 -36 172 -64t43 -68q-10 -89 -114 -138.5t-268 -49.5q-131 0 -201 54.5
t-70 142.5q0 59 16 111l63 22l9 -4q-11 -49 -11 -91q0 -76 48 -116.5t164 -40.5q113 0 193.5 25t94.5 63q0 12 -9 22.5t-47 26.5t-106 33z" />
    <glyph glyph-name="uniFE8B.yeh" horiz-adv-x="260" 
d="M166 491l5 -51q-79 -10 -191 -14l-5 54q29 0 45 1q-18 28 -18 58q0 36 21.5 57.5t60.5 21.5q33 0 70 -14l-14 -52q-32 10 -47 10q-18 0 -27.5 -10.5t-9.5 -26.5q0 -23 19 -42q43 3 91 8zM111 283h9q51 -121 51 -179q0 -61 -88 -113l-51 -8l-32 40q65 26 96 53
q-1 51 -49 156z" />
    <glyph glyph-name="zero.osf" horiz-adv-x="580" 
d="M284 -12q-112 0 -170.5 70.5t-58.5 179.5q0 128 70 189.5t172 61.5q110 0 169 -71t59 -181q0 -127 -68.5 -188t-172.5 -61zM289 58q75 0 110.5 48.5t35.5 131.5q0 82 -36.5 131.5t-105.5 49.5q-74 0 -111 -49t-37 -132q0 -81 37 -130.5t107 -49.5z" />
    <glyph glyph-name="one.osf" horiz-adv-x="425" 
d="M281 72h124v-72h-366v72h156v312l-130 -73l-35 49l165 116h86v-404z" />
    <glyph glyph-name="two.osf" horiz-adv-x="450" 
d="M186 72h224v-72h-381v38q180 142 222 186q59 60 59 110q0 78 -97 78q-74 0 -139 -54l-49 53q84 78 199 78q82 0 129 -38t47 -109q0 -64 -47.5 -121.5t-166.5 -148.5z" />
    <glyph glyph-name="three.osf" horiz-adv-x="455" 
d="M285 193q122 -32 122 -155q0 -86 -55.5 -138.5t-162.5 -52.5q-89 0 -156 35l29 65q64 -28 126 -28q61 0 95 29.5t34 83.5q0 56 -33 86t-116 30h-43l6 65h73q58 25 81.5 53.5t23.5 74.5q0 33 -26 56.5t-73 23.5q-70 0 -140 -58l-46 49q83 77 189 77q90 0 137 -42t47 -106
q0 -103 -112 -148z" />
    <glyph glyph-name="four.osf" horiz-adv-x="510" 
d="M480 72v-72h-89v-141h-90v141h-261v38l176 439h95l-172 -405h162l16 196h74v-196h89z" />
    <glyph glyph-name="five.osf" horiz-adv-x="450" 
d="M209 244q94 0 147.5 -51t53.5 -142q0 -90 -53 -147t-162 -57q-95 0 -160 34l28 63q62 -27 123 -27q63 0 98 35.5t35 92.5q0 130 -150 130q-42 0 -72 -8l-30 24v286h328l-10 -72h-228v-166q25 5 52 5z" />
    <glyph glyph-name="six.osf" horiz-adv-x="530" 
d="M294 394q79 0 132.5 -49.5t53.5 -146.5q0 -57 -19.5 -99t-52 -65.5t-69.5 -34.5t-77 -11q-99 0 -153 69t-54 186q0 185 73 285t190 100q56 0 121 -21l-20 -69q-53 18 -104 18q-141 0 -169 -210q72 48 148 48zM266 58q61 0 95 36.5t34 95.5q0 67 -29.5 98.5t-97.5 31.5
q-58 0 -128 -41q-1 -12 -1 -36q0 -88 33 -136.5t94 -48.5z" />
    <glyph glyph-name="seven.osf" horiz-adv-x="440" 
d="M30 477h390v-35q-197 -294 -242 -583h-97q40 264 231 546h-292z" />
    <glyph glyph-name="eight.osf" horiz-adv-x="540" 
d="M344 331q77 -37 111.5 -75t34.5 -98q0 -80 -57.5 -125t-160.5 -45t-162.5 45t-59.5 122q0 53 33 92.5t109 74.5q-109 61 -109 152q0 71 54 112.5t137 41.5q86 0 135.5 -44t49.5 -106q0 -89 -115 -147zM272 560q-47 0 -74 -23.5t-27 -62.5q0 -35 26.5 -61t86.5 -54
q87 37 87 108q0 45 -25.5 69t-73.5 24zM273 56q62 0 94.5 27.5t32.5 66.5q0 50 -36.5 80.5t-110.5 62.5q-62 -27 -87.5 -56.5t-25.5 -71.5q0 -47 35 -78t98 -31z" />
    <glyph glyph-name="nine.osf" horiz-adv-x="530" 
d="M270 489q102 0 153.5 -65.5t51.5 -184.5q0 -191 -69.5 -291.5t-192.5 -100.5q-60 0 -124 25l21 68q65 -21 106 -21q138 0 168 209q-77 -50 -149 -50q-80 0 -132.5 51.5t-52.5 153.5t65.5 154t154.5 52zM262 153q63 0 128 42q1 14 1 44q0 180 -120 180q-67 0 -101.5 -36.5
t-34.5 -97.5q0 -65 30 -98.5t97 -33.5z" />
    <glyph glyph-name="zero.dnom" horiz-adv-x="360" 
d="M176 -9q-76 0 -117.5 52t-41.5 157q0 61 15 104t41 64.5t53 30.5t58 9q159 0 159 -209q0 -116 -48.5 -162t-118.5 -46zM178 63q40 0 59 31.5t19 105.5q0 136 -74 136q-40 0 -59 -31t-19 -106q0 -136 74 -136z" />
    <glyph glyph-name="one.dnom" horiz-adv-x="360" 
d="M156 400h83v-400h-83v314l-85 -37l-33 47z" />
    <glyph glyph-name="two.dnom" horiz-adv-x="360" 
d="M321 295q0 -44 -34 -93t-123 -134h157v-68h-282v40q117 114 155.5 162t38.5 81q0 26 -16 40t-44 14q-41 0 -91 -38l-43 51q63 58 145 58q62 0 99.5 -28.5t37.5 -84.5z" />
    <glyph glyph-name="three.dnom" horiz-adv-x="360" 
d="M242 218q84 -24 84 -99q0 -56 -41 -92t-124 -36q-73 0 -125 25l29 61q39 -18 91 -18q84 0 84 58q0 29 -22 44t-76 15h-32l5 60h52q65 23 65 65q0 17 -15.5 29t-45.5 12q-48 0 -94 -33l-43 47q61 52 142 52q69 0 105 -27.5t36 -72.5q0 -60 -75 -90z" />
    <glyph glyph-name="four.dnom" horiz-adv-x="360" 
d="M347 155v-67h-55v-88h-84v88h-195v39l119 273h94l-115 -245h97l16 101h68v-101h55z" />
    <glyph glyph-name="five.dnom" horiz-adv-x="360" 
d="M177 250q69 0 108.5 -31.5t39.5 -90.5q0 -57 -40.5 -96t-126.5 -39q-70 0 -123 24l28 61q43 -17 89 -17q43 0 65 17.5t22 43.5q0 32 -20.5 49t-73.5 17q-37 0 -54 -6l-30 25v193h252l-10 -68h-159v-84q22 2 33 2z" />
    <glyph glyph-name="six.dnom" horiz-adv-x="360" 
d="M205 263q55 0 92 -34t37 -98q0 -74 -47 -107t-108 -33q-72 0 -113 46t-41 125q0 122 53 184t137 62q41 0 89 -15l-18 -61q-34 12 -71 12q-83 0 -102 -107q41 26 92 26zM182 58q71 0 71 69q0 76 -70 76q-36 0 -75 -23v-18q0 -104 74 -104z" />
    <glyph glyph-name="seven.dnom" horiz-adv-x="360" 
d="M39 400h291v-38q-141 -184 -167 -362h-89q23 170 155 332h-199z" />
    <glyph glyph-name="eight.dnom" horiz-adv-x="360" 
d="M247 219q49 -25 72 -51t23 -63q0 -54 -42 -84t-119 -30t-120 29t-43 81q0 67 94 105q-71 41 -71 99q0 50 40.5 76.5t100.5 26.5q65 0 101.5 -28t36.5 -70q0 -53 -73 -91zM181 347q-27 0 -42 -11.5t-15 -29.5q0 -32 70 -64q44 26 44 61q0 44 -57 44zM181 55
q38 0 56.5 14.5t18.5 34.5q0 30 -35 50q-11 6 -55 26q-62 -30 -62 -70q0 -23 19.5 -39t57.5 -16z" />
    <glyph glyph-name="nine.dnom" horiz-adv-x="360" 
d="M181 408q72 0 113 -45t41 -124q0 -122 -52.5 -185t-138.5 -63q-44 0 -90 16l19 59q33 -12 71 -12q86 0 103 108q-42 -27 -93 -27q-56 0 -92.5 35t-36.5 101q0 72 47.5 104.5t108.5 32.5zM176 196q39 0 76 22v19q0 106 -73 106q-34 0 -53.5 -17.5t-19.5 -51.5
q0 -78 70 -78z" />
    <glyph glyph-name="zero.numr" horiz-adv-x="360" 
d="M176 208q-76 0 -117.5 52t-41.5 157q0 61 15 104t41 64.5t53 30.5t58 9q159 0 159 -209q0 -116 -48.5 -162t-118.5 -46zM178 280q40 0 59 31t19 106q0 136 -74 136q-40 0 -59 -31t-19 -106q0 -136 74 -136z" />
    <glyph glyph-name="one.numr" horiz-adv-x="360" 
d="M156 617h83v-400h-83v314l-85 -37l-33 47z" />
    <glyph glyph-name="two.numr" horiz-adv-x="360" 
d="M321 512q0 -44 -34 -93t-123 -134h157v-68h-282v40q117 114 155.5 162t38.5 81q0 26 -16 40t-44 14q-41 0 -91 -38l-43 51q63 58 145 58q62 0 99.5 -28.5t37.5 -84.5z" />
    <glyph glyph-name="three.numr" horiz-adv-x="360" 
d="M242 435q84 -24 84 -99q0 -56 -41 -92t-124 -36q-73 0 -125 25l29 61q39 -18 91 -18q84 0 84 58q0 29 -22 44t-76 15h-32l5 60h52q65 23 65 65q0 17 -15.5 29t-45.5 12q-48 0 -94 -33l-43 47q61 52 142 52q69 0 105 -27.5t36 -72.5q0 -60 -75 -90z" />
    <glyph glyph-name="four.numr" horiz-adv-x="360" 
d="M347 372v-67h-55v-88h-84v88h-195v39l119 273h94l-115 -245h97l16 101h68v-101h55z" />
    <glyph glyph-name="five.numr" horiz-adv-x="360" 
d="M177 467q69 0 108.5 -31.5t39.5 -90.5q0 -57 -40.5 -96t-126.5 -39q-70 0 -123 24l28 61q43 -17 89 -17q43 0 65 17.5t22 43.5q0 32 -20.5 49t-73.5 17q-37 0 -54 -6l-30 25v193h252l-10 -68h-159v-84q22 2 33 2z" />
    <glyph glyph-name="six.numr" horiz-adv-x="360" 
d="M205 480q55 0 92 -34t37 -98q0 -74 -47 -107t-108 -33q-72 0 -113 46t-41 125q0 122 53 184t137 62q41 0 89 -15l-18 -61q-34 12 -71 12q-83 0 -102 -107q41 26 92 26zM182 275q71 0 71 69q0 76 -70 76q-36 0 -75 -23v-18q0 -104 74 -104z" />
    <glyph glyph-name="seven.numr" horiz-adv-x="360" 
d="M39 617h291v-38q-141 -184 -167 -362h-89q23 170 155 332h-199z" />
    <glyph glyph-name="eight.numr" horiz-adv-x="360" 
d="M247 436q49 -25 72 -51t23 -63q0 -54 -42 -84t-119 -30t-120 29t-43 81q0 67 94 105q-71 41 -71 99q0 50 40.5 76.5t100.5 26.5q65 0 101.5 -28t36.5 -70q0 -53 -73 -91zM181 564q-27 0 -42 -11.5t-15 -29.5q0 -32 70 -64q44 26 44 61q0 44 -57 44zM181 272
q38 0 56.5 14.5t18.5 34.5q0 30 -35 50q-11 6 -55 26q-62 -30 -62 -70q0 -23 19.5 -39t57.5 -16z" />
    <glyph glyph-name="nine.numr" horiz-adv-x="360" 
d="M181 625q72 0 113 -45t41 -124q0 -122 -52.5 -185t-138.5 -63q-44 0 -90 16l19 59q33 -12 71 -12q86 0 103 108q-42 -27 -93 -27q-56 0 -92.5 35t-36.5 101q0 72 47.5 104.5t108.5 32.5zM176 413q39 0 76 22v19q0 106 -73 106q-34 0 -53.5 -17.5t-19.5 -51.5
q0 -78 70 -78z" />
    <glyph glyph-name="uni0660.pnum" horiz-adv-x="320" 
d="M165 173q-12 11 -35 32.5t-40 37.5l63 69q40 -32 77 -73z" />
    <glyph glyph-name="uni0661.pnum" horiz-adv-x="277" 
d="M147 -11l-10 2q-28 330 -67 532l67 48l10 -2q22 -110 41 -300.5t19 -263.5z" />
    <glyph glyph-name="uni0662.pnum" horiz-adv-x="435" 
d="M364 561l61 -6q-12 -172 -164 -172q-45 0 -88 16q36 -282 34 -394l-60 -16l-10 2q-28 330 -67 532l67 48l10 -2q8 -41 15 -88q43 -20 96 -20q46 0 72 20.5t34 79.5z" />
    <glyph glyph-name="uni0663.pnum" horiz-adv-x="481" 
d="M443 570q28 -59 28 -110q0 -47 -28 -74.5t-70 -27.5q-57 0 -81 32q-19 -35 -59 -35q-34 0 -56 19q32 -267 30 -369l-60 -16l-10 2q-28 330 -67 532l67 48l10 -2q8 -40 18 -105q12 -32 49 -32q21 0 32.5 19.5t20.5 75.5l58 -8q-7 -49 -7 -50q0 -34 48 -34q40 0 40 38
q0 25 -19 77z" />
    <glyph glyph-name="uni0664.pnum" horiz-adv-x="409" 
d="M387 87l3 -4l-25 -71q-57 -16 -137 -16t-124 28.5t-44 80.5q0 91 111 168q-111 32 -111 95q0 60 67.5 120t188.5 81l5 -3l-15 -80q-85 -17 -127 -45.5t-42 -57.5q0 -21 42 -34t117 -13l5 -9l-18 -68q-65 -26 -105 -64t-40 -67q0 -54 120 -54q28 0 129 13z" />
    <glyph glyph-name="uni0665.pnum" horiz-adv-x="490" 
d="M245 -5q-185 0 -185 205q0 108 52.5 190.5t132.5 82.5q81 0 133 -82t52 -191q0 -205 -185 -205zM245 73q110 0 110 114q0 82 -29.5 145t-80.5 63t-80 -63.5t-29 -144.5q0 -114 109 -114z" />
    <glyph glyph-name="uni0666.pnum" horiz-adv-x="443" 
d="M339 553q1 -105 23.5 -278.5t40.5 -260.5l-71 -30l-8 2q-1 9 -11 71t-18 116t-17 138t-12 158q-58 -4 -126 0.5t-111 14.5l8 74l5 6q136 -25 297 -11z" />
    <glyph glyph-name="uni0667.pnum" horiz-adv-x="480" 
d="M405 570l65 -47l-196 -522l-77 -9l-187 543l78 34h6l141 -470l163 470z" />
    <glyph glyph-name="uni0668.pnum" horiz-adv-x="480" 
d="M284 570l186 -543l-77 -34h-7l-141 470l-162 -470l-8 -1l-65 48l196 521z" />
    <glyph glyph-name="uni0669.pnum" horiz-adv-x="410" 
d="M323 321q13 -160 43 -307l-70 -30l-8 2q-27 165 -39 278q-42 -11 -79 -11q-71 0 -115.5 30.5t-44.5 94.5q0 73 50 131t112 58q39 0 67.5 -19.5t45 -56t25 -77t13.5 -93.5zM85 388q0 -58 96 -58q32 0 61 8q-9 78 -26 114t-52 36q-33 0 -56 -30.5t-23 -69.5z" />
    <glyph glyph-name="uni06F0.pnum" horiz-adv-x="320" 
d="M165 173q-12 11 -35 32.5t-40 37.5l63 69q40 -32 77 -73z" />
    <glyph glyph-name="uni06F1.pnum" horiz-adv-x="277" 
d="M147 -11l-10 2q-28 330 -67 532l67 48l10 -2q22 -110 41 -300.5t19 -263.5z" />
    <glyph glyph-name="uni06F2.pnum" horiz-adv-x="435" 
d="M364 561l61 -6q-12 -172 -164 -172q-45 0 -88 16q36 -282 34 -394l-60 -16l-10 2q-28 330 -67 532l67 48l10 -2q8 -41 15 -88q43 -20 96 -20q46 0 72 20.5t34 79.5z" />
    <glyph glyph-name="uni06F3.pnum" horiz-adv-x="481" 
d="M443 570q28 -59 28 -110q0 -47 -28 -74.5t-70 -27.5q-57 0 -81 32q-19 -35 -59 -35q-34 0 -56 19q32 -267 30 -369l-60 -16l-10 2q-28 330 -67 532l67 48l10 -2q8 -40 18 -105q12 -32 49 -32q21 0 32.5 19.5t20.5 75.5l58 -8q-7 -49 -7 -50q0 -34 48 -34q40 0 40 38
q0 25 -19 77z" />
    <glyph glyph-name="uni06F4.pnum" horiz-adv-x="465" 
d="M455 338q-51 -39 -137 -39q-49 0 -135 15q26 -227 24 -309l-60 -16l-10 2q-28 330 -67 532l67 48l10 -2q11 -55 28 -180q17 -3 63 -10q-15 32 -15 65q0 58 34 90.5t83 32.5q70 0 104 -62l-49 -40q-23 29 -57 29q-22 0 -37 -15t-15 -38q0 -35 27 -69h11q64 0 107 23z" />
    <glyph glyph-name="uni06F4.urdu" horiz-adv-x="483" 
d="M378 574l68 -21q-57 -127 -79 -248h-51q-23 93 -63.5 139t-77.5 46q-15 0 -25 -11t-10 -31q0 -25 13 -71q34 -124 48 -192t23 -164l-66 -27l-8 2q-13 141 -53 305q-25 103 -25 139q0 55 33 91t78 36q46 0 86.5 -32.5t64.5 -92.5q10 53 37 129z" />
    <glyph glyph-name="uni06F4.urdu.pnum" horiz-adv-x="424" 
d="M346 574l68 -21q-57 -127 -79 -248h-51q-23 93 -63.5 139t-77.5 46q-15 0 -25 -11t-10 -31q0 -25 13 -71q34 -121 48 -190t23 -166l-66 -27l-8 2q-12 133 -53 305q-25 103 -25 139q0 55 33 91t78 36q46 0 86.5 -32.5t64.5 -92.5q10 53 37 129z" />
    <glyph glyph-name="uni06F5.pnum" horiz-adv-x="546" 
d="M237 572q39 -30 75 -65t79 -88t69 -119.5t26 -133.5q0 -79 -32.5 -125t-94.5 -46q-60 0 -88 52q-35 -52 -87 -52q-58 0 -91 40.5t-33 116.5q0 86 44.5 175t108.5 161q-2 2 -32 25l46 59h10zM359 72q27 0 42 20.5t15 56.5q0 152 -158 299q-56 -64 -93 -143t-37 -151
q0 -40 15.5 -61t41.5 -21q51 0 62 94h54v-3q7 -91 58 -91z" />
    <glyph glyph-name="uni06F6.pnum" horiz-adv-x="427" 
d="M381 367l8 -2l-7 -83q-106 -45 -161.5 -106t-108.5 -188l-61 11l-7 7q46 154 154 248q-56 28 -87.5 71t-31.5 90q0 62 45 107t111 45q82 0 121 -62l-49 -42q-29 29 -71 29t-62 -24t-20 -53q0 -74 109 -113q48 32 118 65z" />
    <glyph glyph-name="uni06F7.pnum" horiz-adv-x="480" 
d="M405 570l65 -47l-196 -522l-77 -9l-187 543l78 34h6l141 -470l163 470z" />
    <glyph glyph-name="uni06F7.urdu" horiz-adv-x="483" 
d="M417 90l12 -72q-56 -23 -174 -23q-79 0 -133 15.5t-54 48.5q0 80 67.5 222.5t194.5 285.5h8l52 -55q-107 -112 -169 -225t-79 -201q53 -11 114 -11q90 0 154 19z" />
    <glyph glyph-name="uni06F7.urdu.pnum" horiz-adv-x="431" 
d="M389 90l12 -72q-56 -23 -174 -23q-79 0 -133 15.5t-54 48.5q0 80 67.5 222.5t194.5 285.5h8l52 -55q-107 -112 -169 -225t-79 -201q53 -11 114 -11q90 0 154 19z" />
    <glyph glyph-name="uni06F8.pnum" horiz-adv-x="482" 
d="M284 570l186 -543l-77 -34h-7l-141 470l-162 -470l-8 -1l-65 48l196 521z" />
    <glyph glyph-name="uni06F9.pnum" horiz-adv-x="417" 
d="M323 321q13 -160 43 -307l-70 -30l-8 2q-27 165 -39 278q-42 -11 -79 -11q-71 0 -115.5 30.5t-44.5 94.5q0 73 50 131t112 58q39 0 67.5 -19.5t45 -56t25 -77t13.5 -93.5zM85 388q0 -58 96 -58q32 0 61 8q-9 78 -26 114t-52 36q-33 0 -56 -30.5t-23 -69.5z" />
    <glyph glyph-name="periodcentered.case" horiz-adv-x="188" 
d="M94 261q-26 0 -45 18.5t-19 44.5t19 44.5t45 18.5t45 -18.5t19 -44.5t-19 -44.5t-45 -18.5z" />
    <glyph glyph-name="exclamdown.case" horiz-adv-x="218" 
d="M109 532q-26 0 -45 18.5t-19 44.5t19 44.5t45 18.5t45 -18.5t19 -44.5t-19 -44.5t-45 -18.5zM56 0l18 448l71 7l17 -455h-106z" />
    <glyph glyph-name="questiondown.case" horiz-adv-x="455" 
d="M243 532q-26 0 -45 18.5t-19 44.5t19 44.5t45 18.5t45 -18.5t19 -44.5t-19 -44.5t-45 -18.5zM224 -12q-83 0 -136 42.5t-53 116.5q0 48 18.5 81.5t64.5 65.5q46 33 64 64t18 77v10l84 8v-37q0 -51 -20.5 -90t-72.5 -79q-36 -29 -49 -48.5t-13 -43.5q0 -39 27.5 -61.5
t77.5 -22.5q76 0 150 64l51 -60q-92 -87 -211 -87z" />
    <glyph glyph-name="numbersign.osf" horiz-adv-x="633" 
d="M589 416h-96l-32 -213h87v-70h-98l-20 -133h-84l20 133h-151l-20 -133h-84l20 133h-87v70h98l32 213h-89v70h99l20 130h84l-20 -130h151l20 130h84l-20 -130h86v-70zM377 203l32 213h-151l-32 -213h151z" />
    <glyph glyph-name="braceleft.case" horiz-adv-x="360" 
d="M321 -107q-203 19 -203 155q0 19 8 79t8 84q0 44 -20 62t-69 20v70q49 2 69 20t20 62q0 24 -8 84t-8 79q0 136 203 155l14 -72q-73 -8 -101.5 -30t-28.5 -64q0 -20 7.5 -77.5t7.5 -75.5q0 -54 -26.5 -83t-64.5 -33q38 -4 64.5 -33t26.5 -83q0 -18 -7.5 -75.5t-7.5 -77.5
q0 -42 28.5 -64t101.5 -30z" />
    <glyph glyph-name="braceright.case" horiz-adv-x="360" 
d="M39 -107l-14 72q73 8 101.5 30t28.5 64q0 20 -7.5 77.5t-7.5 75.5q0 54 26.5 83t64.5 33q-38 4 -64.5 33t-26.5 83q0 18 7.5 75.5t7.5 77.5q0 42 -28.5 64t-101.5 30l14 72q203 -19 203 -155q0 -19 -8 -79t-8 -84q0 -44 20 -62t69 -20v-70q-49 -2 -69 -20t-20 -62
q0 -24 8 -84t8 -79q0 -136 -203 -155z" />
    <glyph glyph-name="bracketleft.case" horiz-adv-x="360" 
d="M90 -98v853h250v-76h-162v-701h162v-76h-250z" />
    <glyph glyph-name="bracketright.case" horiz-adv-x="360" 
d="M20 -98v76h162v701h-162v76h250v-853h-250z" />
    <glyph glyph-name="parenleft.case" horiz-adv-x="360" 
d="M286 -116q-106 97 -159.5 196.5t-53.5 242.5q0 100 29 182t71.5 138t112.5 120l51 -43q-84 -85 -129 -177.5t-45 -219.5q0 -126 45 -218.5t129 -177.5z" />
    <glyph glyph-name="parenright.case" horiz-adv-x="360" 
d="M74 -116l-51 43q84 85 129 177.5t45 218.5q0 127 -45 219.5t-129 177.5l51 43q70 -64 112.5 -120t71.5 -138t29 -182q0 -143 -53.5 -242.5t-159.5 -196.5z" />
    <glyph glyph-name="emdash.case" horiz-adv-x="1000" 
d="M50 284v80h900v-80h-900z" />
    <glyph glyph-name="endash.case" horiz-adv-x="600" 
d="M50 284v80h500v-80h-500z" />
    <glyph glyph-name="uni2015.case" horiz-adv-x="1000" 
d="M-2 284v80h1004v-80h-1004z" />
    <glyph glyph-name="hyphen.case" horiz-adv-x="380" 
d="M50 284v80h280v-80h-280z" />
    <glyph glyph-name="uni00AD.case" horiz-adv-x="380" 
d="M50 284v80h280v-80h-280z" />
    <glyph glyph-name="guillemotleft.case" horiz-adv-x="510" 
d="M201 124l-148 158v84l148 158l46 -34l-115 -166l115 -166zM391 124l-148 158v84l148 158l46 -34l-115 -166l115 -166z" />
    <glyph glyph-name="guillemotright.case" horiz-adv-x="510" 
d="M119 124l-46 34l115 166l-115 166l46 34l148 -158v-84zM309 124l-46 34l115 166l-115 166l46 34l148 -158v-84z" />
    <glyph glyph-name="guilsinglleft.case" horiz-adv-x="320" 
d="M201 124l-148 158v84l148 158l46 -34l-115 -166l115 -166z" />
    <glyph glyph-name="guilsinglright.case" horiz-adv-x="320" 
d="M119 124l-46 34l115 166l-115 166l46 34l148 -158v-84z" />
    <glyph glyph-name="space.frac" horiz-adv-x="50" 
 />
    <glyph glyph-name="cent.osf" horiz-adv-x="419" 
d="M405 41q-65 -43 -129 -51v-131h-78v132q-163 23 -163 217q0 100 46 159t117 76v141h78v-135q57 -5 119 -37l-32 -66q-65 31 -113 31q-59 0 -92 -44.5t-33 -124.5q0 -146 124 -146q54 0 122 40z" />
    <glyph glyph-name="dollar.osf" horiz-adv-x="540" 
d="M500 171q0 -77 -48 -121.5t-136 -53.5v-137h-78v136q-115 7 -198 73l48 62q81 -60 178 -60q140 0 140 97q0 10 -2 18.5t-4 15t-8.5 13.5t-10.5 11.5t-14.5 10t-16 9t-20 9t-21.5 8t-25 9t-26 9.5q-97 35 -143.5 72.5t-46.5 104.5q0 70 48.5 111.5t121.5 51.5v136h78v-134
q96 -8 176 -62l-44 -64q-82 52 -169 52q-52 0 -86 -21.5t-34 -67.5q0 -34 30 -54t114 -50q98 -35 129 -55q68 -45 68 -129z" />
    <glyph glyph-name="Euro.osf" horiz-adv-x="580" 
d="M505 123l49 -60q-90 -75 -197 -75q-218 0 -255 225h-72l10 64h56q-1 10 -1 30q0 22 1 32h-66l10 64h64q22 112 92.5 168.5t166.5 56.5q105 0 187 -59l-44 -65q-37 24 -67 35t-74 11q-139 0 -172 -147h258l-10 -64h-257q-1 -10 -1 -31t1 -31h248l-10 -64h-231
q29 -147 168 -147q84 0 146 57z" />
    <glyph glyph-name="florin.osf" horiz-adv-x="321" 
d="M259 621q-75 0 -75 -93v-90h136l-9 -68h-127v-424q0 -73 -36 -108.5t-97 -35.5q-65 0 -121 25l26 65q44 -16 80 -16q35 0 48.5 21.5t13.5 62.5v410h-80v68h80v88q0 76 42 121.5t115 45.5q55 0 101 -17l-22 -68q-37 13 -75 13z" />
    <glyph glyph-name="sterling.osf" horiz-adv-x="540" 
d="M241 210q0 -70 -38 -134h286v-76h-421v76h53q36 59 36 132q0 34 -8 68h-83v67h64q-26 78 -26 120q0 72 53 118.5t142 46.5q104 0 191 -82l-52 -59q-71 61 -141 61q-104 0 -104 -87q0 -45 23 -118h189v-67h-171q7 -37 7 -66z" />
    <glyph glyph-name="yen.osf" horiz-adv-x="600" 
d="M566 616l-197 -312h152v-64h-180v-62h180v-64h-180v-114h-90v114h-172v64h172v62h-172v64h147l-192 312h105l160 -279l168 279h99z" />
    <glyph glyph-name="percent.osf" horiz-adv-x="960" 
d="M266 -50l-59 39l486 671l59 -38zM242 248q-83 0 -137.5 50.5t-54.5 140.5q0 88 54.5 138.5t137.5 50.5q82 0 136.5 -50.5t54.5 -138.5q0 -90 -54.5 -140.5t-136.5 -50.5zM242 317q49 0 77 34.5t28 86.5q0 53 -27.5 87t-77.5 34t-78 -33.5t-28 -85.5q0 -54 28 -88.5
t78 -34.5zM719 -12q-83 0 -137.5 50.5t-54.5 140.5q0 88 54.5 138.5t137.5 50.5q82 0 136.5 -50.5t54.5 -138.5q0 -90 -54.5 -140.5t-136.5 -50.5zM719 57q49 0 77 34.5t28 86.5q0 53 -27.5 87t-77.5 34t-78 -33.5t-28 -85.5q0 -54 28 -88.5t78 -34.5z" />
    <glyph glyph-name="perthousand.osf" horiz-adv-x="1380" 
d="M266 -50l-59 39l486 671l59 -38zM242 248q-83 0 -137.5 50.5t-54.5 140.5q0 88 54.5 138.5t137.5 50.5q82 0 136.5 -50.5t54.5 -138.5q0 -90 -54.5 -140.5t-136.5 -50.5zM242 317q49 0 77 34.5t28 86.5q0 53 -27.5 87t-77.5 34t-78 -33.5t-28 -85.5q0 -54 28 -88.5
t78 -34.5zM719 -12q-83 0 -137.5 50.5t-54.5 140.5q0 88 54.5 138.5t137.5 50.5q82 0 136.5 -50.5t54.5 -138.5q0 -90 -54.5 -140.5t-136.5 -50.5zM1139 -12q-83 0 -137.5 50.5t-54.5 140.5q0 88 54.5 138.5t137.5 50.5q82 0 136.5 -50.5t54.5 -138.5q0 -90 -54.5 -140.5
t-136.5 -50.5zM719 57q49 0 77 34.5t28 86.5q0 53 -27.5 87t-77.5 34t-78 -33.5t-28 -85.5q0 -54 28 -88.5t78 -34.5zM1139 57q49 0 77 34.5t28 86.5q0 53 -27.5 87t-77.5 34t-78 -33.5t-28 -85.5q0 -54 28 -88.5t78 -34.5z" />
    <glyph glyph-name="section.osf" horiz-adv-x="463" 
d="M333 202q54 -35 54 -89q0 -59 -49.5 -92t-119.5 -33q-81 0 -162 35l29 60q73 -27 133 -27q37 0 59 13.5t22 33.5q0 28 -23.5 42.5t-89.5 35.5q-34 11 -54 19t-43 21.5t-33.5 33t-10.5 44.5q0 34 20.5 60t64.5 54q-54 37 -54 90q0 60 49.5 92.5t119.5 32.5q79 0 154 -36
l-31 -60q-70 29 -123 29q-37 0 -59 -14t-22 -35q0 -28 23.5 -42.5t89.5 -35.5q35 -11 54.5 -18.5t42.5 -21.5t33.5 -33t10.5 -44q0 -34 -20.5 -60t-64.5 -55zM129 314q0 -25 24 -39t81 -31l48 -16q52 38 52 74q0 25 -24.5 39t-80.5 31q-39 13 -47 16q-53 -39 -53 -74z" />
    <glyph glyph-name="degree.osf" horiz-adv-x="430" 
d="M214 297q-74 0 -121.5 44.5t-47.5 121.5t48 121t122 44q75 0 122.5 -44.5t47.5 -121.5t-48 -121t-123 -44zM214 367q41 0 64 23.5t23 71.5q0 96 -86 96q-85 0 -85 -95q0 -96 84 -96z" />
    <glyph glyph-name="uni2113.osf" horiz-adv-x="503" 
d="M284 64q32 0 76 19l28 -57q-59 -37 -128 -37q-57 0 -87 32.5t-35 87.5q-36 -25 -75 -51l-28 36q45 34 103 83q7 200 73.5 325.5t158.5 125.5q98 0 98 -98q0 -64 -65 -160.5t-181 -194.5v-12q0 -55 15 -77t47 -22zM364 560q-39 0 -80 -88t-56 -210q85 88 121.5 157
t36.5 112q0 29 -22 29z" />
    <glyph glyph-name="caroncomb.alt" 
d="M-110 486l-51 14l39 155l82 -24z" />
    <glyph glyph-name="uni0308.case" 
d="M-283 713q-23 0 -40 16.5t-17 38.5q0 23 17 39.5t40 16.5t40 -16.5t17 -39.5q0 -22 -17 -38.5t-40 -16.5zM-97 713q-23 0 -40 16.5t-17 38.5q0 23 17 39.5t40 16.5t40 -16.5t17 -39.5q0 -22 -17 -38.5t-40 -16.5z" />
    <glyph glyph-name="uni0307.case" 
d="M-102 707q-25 0 -43 18t-18 43t18 43.5t43 18.5q26 0 44 -18t18 -44q0 -25 -18.5 -43t-43.5 -18z" />
    <glyph glyph-name="gravecomb.case" 
d="M-56 694l-174 95l51 71l156 -127z" />
    <glyph glyph-name="acutecomb.case" 
d="M-214 694l-33 39l156 127l51 -71z" />
    <glyph glyph-name="uni030B.case" 
d="M-268 665l-47 18l55 157l75 -33zM-132 660l-46 16l66 155l72 -35z" />
    <glyph glyph-name="uni0302.case" 
d="M-288 697l-37 33l103 107h79l103 -107l-36 -34l-106 72z" />
    <glyph glyph-name="uni030C.case" 
d="M-222 688l-103 107l37 33l106 -71l106 72l36 -34l-103 -107h-79z" />
    <glyph glyph-name="uni0306.case" 
d="M-177 691q-121 0 -138 126l65 6q7 -36 22.5 -50.5t50.5 -14.5q34 0 49.5 14.5t22.5 50.5l65 -6q-17 -126 -137 -126z" />
    <glyph glyph-name="uni030A.case" 
d="M-159 677q-52 0 -85.5 28t-33.5 81q0 55 33.5 83t85.5 28t85.5 -28t33.5 -83q0 -53 -33.5 -81t-85.5 -28zM-159 734q22 0 38 12.5t16 39.5q0 53 -54 53t-54 -53q0 -27 16 -39.5t38 -12.5z" />
    <glyph glyph-name="tildecomb.case" 
d="M-150 704q-27 0 -48 13t-36.5 25.5t-28.5 12.5q-27 0 -50 -44l-51 20q22 49 47.5 72.5t62.5 23.5q35 0 68 -25.5t45 -25.5q27 0 50 44l51 -20q-40 -96 -110 -96z" />
    <glyph glyph-name="uni0304.case" 
d="M-303 721v65h263v-65h-263z" />
    <glyph glyph-name="uni0338.case" 
d="M-494 -40l-66 40l55 84l10 7l319 489l3 11l67 101l66 -40l-63 -95l-11 -7l-318 -490l-3 -10z" />
    <glyph glyph-name="uni0308.narrow" 
d="M-251 523q-23 0 -40 16.5t-17 38.5q0 23 17 39.5t40 16.5t40 -16.5t17 -39.5q0 -22 -17 -38.5t-40 -16.5zM-97 523q-23 0 -40 16.5t-17 38.5q0 23 17 39.5t40 16.5t40 -16.5t17 -39.5q0 -22 -17 -38.5t-40 -16.5z" />
    <glyph glyph-name="uni0304.narrow" 
d="M-263 541v65h223v-65h-223z" />
    <glyph glyph-name="dotcenterar" 
d="M101 -71l-81 58l51 75l82 -55z" />
    <glyph glyph-name="uniFBB9.small" 
d="M97 -206l-81 55l50 77l81 -57zM243 -206l-79 55l48 77l81 -57zM179 -318l-81 54l51 78l80 -58z" />
    <glyph glyph-name="waslaar" 
d="M297 711q20 0 34 -15.5t14 -35.5q0 -57 -83 -57q-58 0 -90 16q-20 -15 -50 -15l8 31q18 0 28 9q5 7 18 43l34 5l2 -2q-10 -28 -21 -48l19 -3q32 40 49.5 56t37.5 16zM312 641q4 16 -1 26t-16 10q-16 0 -52 -41h19q40 0 50 5z" />
    <glyph glyph-name="hamzaaboveDammaar" 
d="M200 1097q32 0 53.5 -24t21.5 -58q0 -25 -12 -45.5t-31 -35t-50 -27.5t-62.5 -22t-73.5 -18l-11 46q88 19 125 33q-40 25 -40 65q0 34 24 60t56 26zM162 1016q0 -14 9 -23.5t34 -22.5q23 17 23 41q0 15 -8.5 26.5t-22.5 11.5q-13 0 -24 -10.5t-11 -22.5zM150 668
q43 3 91 8l5 -51q-79 -10 -191 -14l-5 54q29 0 45 1q-18 28 -18 58q0 36 21.5 57.5t60.5 21.5q33 0 70 -14l-14 -52q-32 10 -47 10q-18 0 -27.5 -10.5t-9.5 -26.5q0 -23 19 -42z" />
    <glyph glyph-name="hamzaaboveDammatanar" 
d="M355 1014q0 -60 -61.5 -100.5t-171.5 -46.5l-14 41q14 21 14 39q0 26 -24 26q-18 0 -33 -15l-25 34q30 30 65 30q28 0 44 -19.5t16 -48.5q0 -19 -7 -36q54 6 91 22q-26 16 -37.5 31t-11.5 39q0 32 23.5 59.5t57.5 27.5t54 -25t20 -58zM278 1049q-12 0 -24 -10t-12 -25
q0 -13 11.5 -23t35.5 -23q19 19 19 44q0 14 -8.5 25.5t-21.5 11.5zM230 668q43 3 91 8l5 -51q-79 -10 -191 -14l-5 54q29 0 45 1q-18 28 -18 58q0 36 21.5 57.5t60.5 21.5q33 0 70 -14l-14 -52q-32 10 -47 10q-18 0 -27.5 -10.5t-9.5 -26.5q0 -23 19 -42z" />
    <glyph glyph-name="hamzaaboveFathaar" 
d="M40 915l239 46v-51l-239 -45v50zM163 668q43 3 91 8l5 -51q-79 -10 -191 -14l-5 54q29 0 45 1q-18 28 -18 58q0 36 21.5 57.5t60.5 21.5q33 0 70 -14l-14 -52q-32 10 -47 10q-18 0 -27.5 -10.5t-9.5 -26.5q0 -23 19 -42z" />
    <glyph glyph-name="hamzaaboveFathatanar" 
d="M17 1016l239 46v-51l-239 -45v50zM17 865v50l239 46v-51zM140 668q43 3 91 8l5 -51q-79 -10 -191 -14l-5 54q29 0 45 1q-18 28 -18 58q0 36 21.5 57.5t60.5 21.5q33 0 70 -14l-14 -52q-32 10 -47 10q-18 0 -27.5 -10.5t-9.5 -26.5q0 -23 19 -42z" />
    <glyph glyph-name="hamzaaboveSukunar" 
d="M137 861q-37 0 -59.5 21.5t-22.5 56.5q0 44 23.5 70t63.5 26q35 0 57 -25t22 -66q0 -37 -23 -60t-61 -23zM138 985q-17 0 -27.5 -11t-10.5 -29q0 -17 10 -27.5t27 -10.5q18 0 28.5 10t10.5 27q0 19 -10.5 30t-27.5 11zM231 676l5 -51q-79 -10 -191 -14l-5 54q29 0 45 1
q-18 28 -18 58q0 36 21.5 57.5t60.5 21.5q33 0 70 -14l-14 -52q-32 10 -47 10q-18 0 -27.5 -10.5t-9.5 -26.5q0 -23 19 -42q43 3 91 8z" />
    <glyph glyph-name="hamzabelowKasraar" 
d="M67 -253l-5 54q30 0 45 1q-18 28 -18 59q0 36 21.5 57.5t60.5 21.5q33 0 70 -14l-14 -53q-30 11 -47 11q-18 0 -27.5 -11t-9.5 -27q0 -24 20 -42q41 3 90 8l5 -51q-79 -10 -191 -14zM40 -356l239 46v-51l-239 -45v50z" />
    <glyph glyph-name="hamzabelowKasratanar" 
d="M67 -253l-5 54q30 0 45 1q-18 28 -18 59q0 36 21.5 57.5t60.5 21.5q33 0 70 -14l-14 -53q-30 11 -47 11q-18 0 -27.5 -11t-9.5 -27q0 -24 20 -42q41 3 90 8l5 -51q-79 -10 -191 -14zM40 -356l239 46v-51l-239 -45v50zM40 -507v50l239 46v-51z" />
    <glyph glyph-name="shaddaAlefabovear" 
d="M199 1003v-193h-57v193h57zM298 770q15 -41 15 -72q0 -37 -19.5 -62t-55.5 -25q-40 0 -60 25q-22 -27 -62 -27q-77 0 -77 78q0 21 8 49l47 2q-5 -27 -5 -42q0 -38 29 -38q18 0 26.5 16.5t9.5 59.5l46 3q-1 -16 -1 -39q0 -37 35 -37q29 0 29 37q0 28 -13 60z" />
    <glyph glyph-name="shaddaDammaar" 
d="M70 801l-11 46q88 19 125 33q-40 25 -40 65q0 34 24 60t56 26t53.5 -24t21.5 -58q0 -25 -12 -45.5t-31 -35t-50 -27.5t-62.5 -22t-73.5 -18zM186 950q0 -14 9 -23.5t34 -22.5q23 17 23 41q0 15 -8.5 26.5t-22.5 11.5q-13 0 -24 -10.5t-11 -22.5zM298 770q15 -41 15 -72
q0 -37 -19.5 -62t-55.5 -25q-40 0 -60 25q-22 -27 -62 -27q-77 0 -77 78q0 21 8 49l47 2q-5 -27 -5 -42q0 -38 29 -38q18 0 26.5 16.5t9.5 59.5l46 3q-1 -16 -1 -39q0 -37 35 -37q29 0 29 37q0 28 -13 60z" />
    <glyph glyph-name="shaddaDammatanar" 
d="M122 881q0 26 -24 26q-18 0 -33 -15l-25 34q30 30 65 30q28 0 44 -19.5t16 -48.5q0 -19 -7 -36q54 6 91 22q-26 16 -37.5 31t-11.5 39q0 32 23.5 59.5t57.5 27.5t54 -25t20 -58q0 -60 -61.5 -100.5t-171.5 -46.5l-14 41q14 21 14 39zM278 983q-12 0 -24 -10t-12 -25
q0 -13 11.5 -23t35.5 -23q19 19 19 44q0 14 -8.5 25.5t-21.5 11.5zM354 770q15 -41 15 -72q0 -37 -19.5 -62t-55.5 -25q-40 0 -60 25q-22 -27 -62 -27q-77 0 -77 78q0 21 8 49l47 2q-5 -27 -5 -42q0 -38 29 -38q18 0 26.5 16.5t9.5 59.5l46 3q-1 -16 -1 -39q0 -37 35 -37
q29 0 29 37q0 28 -13 60z" />
    <glyph glyph-name="shaddaFathaar" 
d="M290 895v-51l-239 -45v50zM298 770q15 -41 15 -72q0 -37 -19.5 -62t-55.5 -25q-40 0 -60 25q-22 -27 -62 -27q-77 0 -77 78q0 21 8 49l47 2q-5 -27 -5 -42q0 -38 29 -38q18 0 26.5 16.5t9.5 59.5l46 3q-1 -16 -1 -39q0 -37 35 -37q29 0 29 37q0 28 -13 60z" />
    <glyph glyph-name="shaddaFathatanar" 
d="M290 996v-51l-239 -45v50zM290 895v-51l-239 -45v50zM298 770q15 -41 15 -72q0 -37 -19.5 -62t-55.5 -25q-40 0 -60 25q-22 -27 -62 -27q-77 0 -77 78q0 21 8 49l47 2q-5 -27 -5 -42q0 -38 29 -38q18 0 26.5 16.5t9.5 59.5l46 3q-1 -16 -1 -39q0 -37 35 -37q29 0 29 37
q0 28 -13 60z" />
    <glyph glyph-name="shaddaKasraar" 
d="M116 735q-77 0 -77 78q0 21 8 49l47 2q-5 -27 -5 -42q0 -38 29 -38q18 0 26.5 16.5t9.5 59.5l46 3q-1 -16 -1 -39q0 -37 35 -37q29 0 29 37q0 28 -13 60l48 12q15 -41 15 -72q0 -37 -19.5 -62t-55.5 -25q-40 0 -60 25q-22 -27 -62 -27zM51 609v50l239 46v-51z" />
    <glyph glyph-name="shaddaKasratanar" 
d="M292 989q15 -41 15 -72q0 -37 -19.5 -62t-55.5 -25q-40 0 -60 25q-22 -27 -62 -27q-77 0 -77 78q0 21 8 49l47 2q-5 -27 -5 -42q0 -38 29 -38q18 0 26.5 16.5t9.5 59.5l46 3q-1 -16 -1 -39q0 -37 35 -37q29 0 29 37q0 28 -13 60zM40 710v50l239 46v-51zM40 609v50l239 46
v-51z" />
    <glyph glyph-name="uni064406440647" horiz-adv-x="1008" 
d="M639 917v-123h-57v123h57zM550 613q-77 0 -77 78q0 21 8 49l47 2q-5 -27 -5 -42q0 -38 29 -38q18 0 26.5 16.5t9.5 59.5l46 3q-1 -16 -1 -39q0 -37 35 -37q29 0 29 37q0 28 -13 60l48 12q15 -41 15 -72q0 -37 -19.5 -62t-55.5 -25q-40 0 -60 25q-22 -27 -62 -27zM935 682
l8 -3v-494q0 -104 -49.5 -144.5t-149.5 -40.5h-7q-92 0 -127 59q-45 -59 -165 -59v1q-3 -1 -11 -1q-129 0 -161 80q-39 -9 -75 -9q-78 0 -123 30.5t-45 81.5q0 59 61 119t169 93v49l71 32l7 -2v-310q0 -54 25.5 -70t92.5 -16h9q68 0 94 19q7 31 7 79v358l70 18l8 -3v-361
q0 -70 27 -90t85 -20h8q68 0 94 19q7 31 7 79v488zM203 148q29 0 57 6v10v150q-67 -21 -112.5 -52.5t-53.5 -62.5q8 -25 41 -38t68 -13z" />
    </font>
</defs>
</svg>
