<?xml version="1.0" standalone="no"?>
<!DOCTYPE svg PUBLIC "-//W3C//DTD SVG 1.1//EN" "http://www.w3.org/Graphics/SVG/1.1/DTD/svg11.dtd" >
<svg xmlns="http://www.w3.org/2000/svg" xmlns:xlink="http://www.w3.org/1999/xlink" version="1.1">
<metadata>
Created by FontForge 20161003 at Mon May  1 05:10:55 2017
 By www-data
Copyright (c) 2016 Dubai Executive Council. All rights reserved.
</metadata>
<defs>
<font id="DubaiMedium" horiz-adv-x="0" >
  <font-face 
    font-family="DubaiMedium"
    font-weight="500"
    font-stretch="normal"
    units-per-em="1000"
    panose-1="2 11 6 3 3 4 3 3 2 4"
    ascent="800"
    descent="-200"
    x-height="443"
    cap-height="648"
    bbox="-657 -530 1330 1107"
    underline-thickness="50"
    underline-position="-150"
    unicode-range="U+000D-FEFF"
  />
<missing-glyph horiz-adv-x="540" 
d="M80 0v688h380v-688h-380zM156 72h227v544h-227v-544z" />
    <glyph glyph-name="fi" unicode="fi" horiz-adv-x="573" 
d="M268 603q-69 0 -69 -81v-79h124l-11 -85h-113v-358h-108v358h-74v85h74v77q0 79 44.5 126.5t123.5 47.5q52 0 97 -21l-34 -82q-23 12 -54 12zM451 523q-29 0 -50.5 21t-21.5 50t21.5 50.5t50.5 21.5q31 0 52.5 -21.5t21.5 -50.5t-21.5 -50t-52.5 -21zM399 0v442l108 11
v-453h-108z" />
    <glyph glyph-name="fl" unicode="fl" horiz-adv-x="573" 
d="M399 688l108 11v-699h-108v688zM91 520q0 79 44.5 126.5t123.5 47.5q52 0 97 -21l-34 -82q-23 12 -54 12q-69 0 -69 -81v-79h110l-11 -85h-99v-358h-108v358h-74v85h74v77z" />
    <glyph glyph-name="uniFDF2" unicode="&#x627;&#xfedf;&#xfee0;&#xfeea;" horiz-adv-x="1262" arabic-form="isolated" 
d="M651 943v-126h-70v126h70zM555 626q-83 0 -83 83q0 26 8 53l56 2q-4 -21 -4 -42q0 -37 27 -37q16 0 23.5 16t8.5 58l54 4q-1 -18 -1 -40q0 -35 31 -35q27 0 27 36q0 25 -12 59l57 14q15 -43 15 -75q0 -41 -21.5 -67.5t-62.5 -26.5q-39 0 -59 25q-23 -27 -64 -27zM862 663
l90 24l9 -5v-482q0 -113 -53.5 -156.5t-161.5 -43.5h-1h-1q-87 0 -125 58q-26 -32 -66.5 -45t-107.5 -13h-2q-123 0 -162 74q-37 -12 -82 -12q-79 0 -125.5 32.5t-46.5 86.5q0 62 62 123t172 96v47l91 38l8 -2v-306q0 -48 23 -63t85 -15t88 16q7 30 7 77v351l90 23l9 -4
v-363q0 -64 23.5 -82t81.5 -18q62 0 88 16q7 30 7 77v471zM1191 687l7 -5l-1 -669l-91 -19l-7 4v665zM208 158q25 0 53 5v14v126q-61 -17 -102.5 -43.5t-50.5 -54.5q8 -22 37.5 -34.5t62.5 -12.5z" />
    <glyph glyph-name="uniFEF5" unicode="&#xfedf;&#xfe82;" horiz-adv-x="493" arabic-form="isolated" 
d="M427 478q0 -115 -56 -210q53 -75 53 -135q0 -68 -45 -100.5t-148 -32.5h-137l5 95q121 78 176 160q-84 83 -221 174l34 99l6 3q147 -117 221 -196q18 51 18 112q0 101 -27 195l88 45l8 -2q25 -133 25 -207zM182 588q-28 0 -61.5 12.5t-58.5 12.5q-36 0 -77 -26l-31 50
q49 44 99 44q27 0 66 -13t67 -13q24 0 44 8l21 -58q-33 -17 -69 -17zM357 120q0 33 -34 80q-46 -54 -112 -101h30q89 0 116 21z" />
    <glyph glyph-name="uniFEF6" unicode="&#xfee0;&#xfe82;" horiz-adv-x="585" arabic-form="final" 
d="M608 99q40 0 40 -33q0 -66 -63 -66q-149 0 -178 116q-103 -119 -294 -119l-45 93l4 6q148 3 238 53q-39 67 -95 130.5t-145 145.5l34 102l7 3q86 -80 156.5 -172.5t105.5 -160.5q17 19 27 35v431l91 24l8 -5v-491q0 -54 24 -73t85 -19zM211 589q-28 0 -61.5 12.5
t-58.5 12.5q-36 0 -77 -26l-31 50q49 44 99 44q27 0 66 -13t67 -13q24 0 44 8l21 -58q-33 -17 -69 -17z" />
    <glyph glyph-name="uniFEF7" unicode="&#xfedf;&#xfe84;" horiz-adv-x="492" arabic-form="isolated" 
d="M189 674l5 -59q-79 -10 -193 -14l-6 62q30 0 46 1q-20 26 -20 60q0 37 22.5 59.5t62.5 22.5q34 0 72 -15l-16 -58q-30 10 -45 10q-17 0 -26.5 -10t-9.5 -25q0 -24 19 -41q62 4 89 7zM426 478q0 -115 -56 -210q53 -75 53 -135q0 -68 -45 -100.5t-148 -32.5h-137l5 95
q121 78 176 160q-84 83 -221 174l34 99l6 3q147 -117 221 -196q18 51 18 112q0 101 -27 195l88 45l8 -2q25 -133 25 -207zM356 120q0 33 -34 80q-46 -54 -112 -101h30q89 0 116 21z" />
    <glyph glyph-name="uniFEF8" unicode="&#xfee0;&#xfe84;" horiz-adv-x="584" arabic-form="final" 
d="M218 675l5 -59q-79 -10 -193 -14l-6 62q30 0 46 1q-20 26 -20 60q0 37 22.5 59.5t62.5 22.5q35 0 72 -15l-16 -58q-30 10 -45 10q-17 0 -26.5 -10t-9.5 -25q0 -24 19 -41q62 4 89 7zM607 99q40 0 40 -33q0 -66 -63 -66q-149 0 -178 116q-103 -119 -294 -119l-45 93l4 6
q148 3 238 53q-39 67 -95 130.5t-145 145.5l34 102l7 3q86 -80 156.5 -172.5t105.5 -160.5q17 19 27 35v431l91 24l8 -5v-491q0 -54 24 -73t85 -19z" />
    <glyph glyph-name="uniFEF9" unicode="&#xfedf;&#xfe88;" horiz-adv-x="463" arabic-form="isolated" 
d="M397 478q0 -115 -56 -210q53 -75 53 -135q0 -68 -45 -100.5t-148 -32.5h-137l5 95q121 78 176 160q-84 83 -221 174l34 99l6 3q147 -117 221 -196q18 51 18 112q0 101 -27 195l88 45l8 -2q25 -133 25 -207zM327 120q0 33 -34 80q-46 -54 -112 -101h30q89 0 116 21z
M152 -199q62 4 88 7l5 -58q-79 -10 -193 -14l-6 61q30 0 46 1q-20 28 -20 61q0 37 22.5 59.5t62.5 22.5q35 0 72 -15l-16 -58q-30 10 -45 10q-17 0 -26.5 -10t-9.5 -25q0 -24 20 -42z" />
    <glyph glyph-name="uniFEFA" unicode="&#xfee0;&#xfe88;" horiz-adv-x="537" arabic-form="final" 
d="M560 99q40 0 40 -33q0 -66 -63 -66q-149 0 -178 116q-103 -119 -294 -119l-45 93l4 6q148 3 238 53q-39 67 -95 130.5t-145 145.5l34 102l7 3q86 -80 156.5 -172.5t105.5 -160.5q17 19 27 35v431l91 24l8 -5v-491q0 -54 24 -73t85 -19zM172 -199q62 4 88 7l5 -58
q-79 -10 -193 -14l-6 61q30 0 46 1q-20 28 -20 61q0 37 22.5 59.5t62.5 22.5q35 0 72 -15l-16 -58q-30 10 -45 10q-17 0 -26.5 -10t-9.5 -25q0 -24 20 -42z" />
    <glyph glyph-name="uniFEFB" unicode="&#xfedf;&#xfe8e;" horiz-adv-x="463" arabic-form="isolated" 
d="M397 478q0 -115 -56 -210q53 -75 53 -135q0 -68 -45 -100.5t-148 -32.5h-137l5 95q121 78 176 160q-84 83 -221 174l34 99l6 3q147 -117 221 -196q18 51 18 112q0 101 -27 195l88 45l8 -2q25 -133 25 -207zM327 120q0 33 -34 80q-46 -54 -112 -101h30q89 0 116 21z" />
    <glyph glyph-name="uniFEFC" unicode="&#xfee0;&#xfe8e;" horiz-adv-x="537" arabic-form="final" 
d="M560 99q40 0 40 -33q0 -66 -63 -66q-149 0 -178 116q-103 -119 -294 -119l-45 93l4 6q148 3 238 53q-39 67 -95 130.5t-145 145.5l34 102l7 3q86 -80 156.5 -172.5t105.5 -160.5q17 19 27 35v431l91 24l8 -5v-491q0 -54 24 -73t85 -19z" />
    <glyph glyph-name="uni06440671" unicode="&#xfedf;&#xfb51;" horiz-adv-x="476" 
d="M118 598q-65 0 -99 18q-22 -17 -56 -17l9 37q20 0 30 10q8 11 18 45l40 5l3 -2q-12 -33 -22 -50q18 -3 20 -3q32 41 52.5 59t42.5 18q24 0 38.5 -17t14.5 -39q0 -64 -91 -64zM425 478q0 -115 -56 -210q53 -75 53 -135q0 -68 -45 -100.5t-148 -32.5h-137l5 95
q121 78 176 160q-84 83 -221 174l34 99l6 3q147 -117 221 -196q18 51 18 112q0 101 -27 195l88 45l8 -2q25 -133 25 -207zM154 679q-18 0 -55 -42h19q44 0 55 6q4 15 -1.5 25.5t-17.5 10.5zM355 120q0 33 -34 80q-46 -54 -112 -101h30q89 0 116 21z" />
    <glyph glyph-name="uni06440671.fina" unicode="&#xfee0;&#xfb51;" horiz-adv-x="583" 
d="M147 599q-65 0 -99 18q-22 -17 -56 -17l9 37q20 0 30 10q8 11 18 45l40 5l3 -2q-12 -33 -22 -50q18 -3 20 -3q32 41 52.5 59t42.5 18q24 0 38.5 -17t14.5 -39q0 -64 -91 -64zM606 99q40 0 40 -33q0 -66 -63 -66q-149 0 -178 116q-103 -119 -294 -119l-45 93l4 6
q148 3 238 53q-39 67 -95 130.5t-145 145.5l34 102l7 3q86 -80 156.5 -172.5t105.5 -160.5q17 19 27 35v431l91 24l8 -5v-491q0 -54 24 -73t85 -19zM183 680q-18 0 -55 -42h19q45 0 55 6q4 15 -1.5 25.5t-17.5 10.5z" />
    <glyph glyph-name="uni066E.init" unicode="&#x66e;" horiz-adv-x="285" 
d="M0 0l23 99h9q80 0 102 10q3 9 3 21t-1 23t-5.5 26t-9 26t-12 29t-12.5 29t-14 30l82 64h10q53 -111 53 -191q0 -77 -50 -127q-23 -22 -59 -30.5t-108 -8.5h-11z" />
    <glyph glyph-name="uni066E.medi" unicode="&#x66e;" horiz-adv-x="324" 
d="M347 99q40 0 40 -33q0 -66 -63 -66q-91 0 -149 48q-54 -48 -155 -48h-20l23 99h20q60 0 82 16q16 28 42 147l100 24l10 -7q-24 -105 -48 -155q48 -25 118 -25z" />
    <glyph glyph-name="uni066E.fina" unicode="&#x66e;" horiz-adv-x="875" 
d="M898 99q40 0 40 -33q0 -66 -63 -66q-92 0 -149 49q-7 -7 -21 -17q-30 -19 -109 -31t-150 -12h-65q-339 0 -339 185q0 63 16 116l73 28l8 -5q-9 -49 -9 -87q0 -81 66 -110t216 -29h63q54 0 113.5 6.5t84.5 17.5q24 53 45 151l100 24l10 -7q-22 -93 -51 -154
q50 -26 121 -26z" />
    <glyph glyph-name="uni066F.fina" unicode="&#x66f;" horiz-adv-x="722" 
d="M743 99q42 0 42 -33q0 -66 -64 -66h-59q-49 -186 -335 -186q-139 0 -212 56t-73 147q0 59 16 112l81 28l9 -5q-11 -52 -11 -89q0 -73 47 -111.5t162 -38.5q87 0 148 20.5t83 50.5q0 2 1.5 7.5t2.5 8.5h-33q-96 0 -143.5 35t-47.5 97q0 75 46.5 140t109.5 65
q70 0 114 -69.5t46 -168.5h70zM435 148q0 -25 27 -37t90 -12h41q-1 54 -26.5 98t-59.5 44q-26 0 -49 -29t-23 -64z" />
    <glyph glyph-name="uni06A1.init" unicode="&#x6a1;" horiz-adv-x="446" 
d="M229 474q72 0 116 -73.5t44 -175.5q0 -141 -62 -186q-38 -24 -105.5 -31.5t-221.5 -7.5l23 99q227 0 277 20q3 13 7 50q-46 -11 -101 -11q-65 0 -98.5 31.5t-33.5 86.5q0 72 46.5 135t108.5 63zM152 290q0 -41 74 -41q46 0 82 7q-5 48 -29.5 85t-54.5 37q-28 0 -50 -27
t-22 -61z" />
    <glyph glyph-name="uni06A1.medi" unicode="&#x6a1;" horiz-adv-x="445" 
d="M468 99q40 0 40 -33q0 -66 -63 -66h-63q-76 0 -150 30q-78 -30 -178 -30h-54l23 99h90h12q-44 49 -44 102q0 70 51 130t115 60q56 0 98 -51.5t42 -109.5q0 -74 -46 -128q27 -3 56 -3h71zM161 213q0 -53 76 -86q69 35 69 90q0 29 -23 53.5t-48 24.5q-26 0 -50 -26t-24 -56
z" />
    <glyph glyph-name="uni06A1.fina" unicode="&#x6a1;" horiz-adv-x="959" 
d="M981 99q41 0 41 -33q0 -66 -64 -66h-68q-82 0 -152 29q-104 -40 -292 -40h-65q-339 0 -339 185q0 63 16 116l73 28l8 -5q-9 -49 -9 -87q0 -81 66 -110t216 -29h63q81 0 158 10q-44 47 -44 104q0 70 50.5 130t114.5 60q56 0 98.5 -51.5t42.5 -109.5q0 -73 -47 -128
q27 -3 56 -3h77zM743 295q-27 0 -51 -26t-24 -56q0 -52 75 -85q71 33 71 90q0 28 -23 52.5t-48 24.5z" />
    <glyph glyph-name="uni06C2.fina" unicode="&#x6c2;" horiz-adv-x="466" 
d="M151 433l-6 62q30 0 46 1q-20 26 -20 60q0 37 22.5 59.5t62.5 22.5q34 0 72 -15l-16 -58q-30 10 -45 10q-17 0 -26.5 -10t-9.5 -25q0 -24 19 -41q62 4 89 7l5 -59q-79 -10 -193 -14zM489 99q40 0 40 -34q0 -65 -63 -65q-43 0 -76.5 19.5t-52.5 46.5t-35 54.5t-33.5 47
t-37.5 19.5q-38 0 -78.5 -30.5t-71.5 -77.5h-8l-49 55q35 59 94 105.5t131 46.5q34 0 60 -19.5t44 -47t35.5 -54.5t43 -46.5t57.5 -19.5z" />
    <glyph glyph-name="uni06C3.fina" unicode="&#x6c3;" horiz-adv-x="466" 
d="M192 393l-90 63l55 84l90 -62zM333 393l-90 63l56 84l90 -62zM466 0q-43 0 -76.5 19.5t-52.5 46.5t-35 54.5t-33.5 47t-37.5 19.5q-38 0 -78.5 -30.5t-71.5 -77.5h-8l-49 55q35 59 94 105.5t131 46.5q34 0 60 -19.5t44 -47t35.5 -54.5t43 -46.5t57.5 -19.5q40 0 40 -34
q0 -65 -63 -65z" />
    <glyph glyph-name="uniFB51" unicode="&#x671;" horiz-adv-x="248" arabic-form="final" 
d="M133 741q-65 0 -99 18q-22 -17 -56 -17l9 37q20 0 30 10q8 11 18 45l40 5l3 -2q-12 -33 -22 -50q18 -3 20 -3q32 41 52.5 59t42.5 18q24 0 38.5 -17t14.5 -39q0 -64 -91 -64zM169 822q-18 0 -55 -42h19q45 0 55 6q4 15 -1.5 25.5t-17.5 10.5zM271 99q40 0 40 -33
q0 -66 -63 -66q-90 0 -137.5 42t-47.5 140v481l91 24l8 -5v-491q0 -54 24 -73t85 -19z" />
    <glyph glyph-name="uniFB57" unicode="&#x67e;" horiz-adv-x="875" arabic-form="final" 
d="M898 99q40 0 40 -33q0 -66 -63 -66q-92 0 -149 49q-7 -7 -21 -17q-30 -19 -109 -31t-150 -12h-65q-339 0 -339 185q0 63 16 116l73 28l8 -5q-9 -49 -9 -87q0 -81 66 -110t216 -29h63q54 0 113.5 6.5t84.5 17.5q24 53 45 151l100 24l10 -7q-22 -93 -51 -154
q50 -26 121 -26zM417 -148l-57 -83l-90 62l57 85zM414 -169l54 85l91 -64l-56 -83zM354 -285l57 86l90 -64l-56 -83z" />
    <glyph glyph-name="uniFB58" unicode="&#x67e;" horiz-adv-x="305" arabic-form="initial" 
d="M0 0l23 99h29q80 0 102 10q16 52 -48 184l79 64h10q53 -118 53 -191q0 -79 -50 -127q-23 -22 -59 -30.5t-108 -8.5h-31zM100 -220l-90 62l57 85l90 -64zM243 -220l-89 62l54 85l91 -64zM185 -335l-91 61l57 86l90 -64z" />
    <glyph glyph-name="uniFB59" unicode="&#x67e;" horiz-adv-x="347" arabic-form="medial" 
d="M370 99q40 0 40 -33q0 -66 -62 -66q-115 0 -172 47q-52 -47 -142 -47h-34l23 99h27q51 0 73 16q19 36 42 147l100 24l10 -7q-24 -104 -47 -155q48 -25 142 -25zM185 -137l-57 -83l-90 62l57 85zM182 -158l54 85l91 -64l-56 -83zM122 -274l57 86l90 -64l-56 -83z" />
    <glyph glyph-name="uniFB67" unicode="&#x679;" horiz-adv-x="875" arabic-form="final" 
d="M439 396q-64 0 -108 2l-18 53l3 6h36q10 12 16 20v172h58v-106q37 34 72 34q31 0 54.5 -25.5t23.5 -59.5q0 -96 -137 -96zM494 517q-28 0 -84 -61h32q68 0 83 6q5 22 -4.5 38.5t-26.5 16.5zM898 99q40 0 40 -33q0 -66 -63 -66q-92 0 -149 49q-7 -7 -21 -17
q-30 -19 -109 -31t-150 -12h-65q-339 0 -339 185q0 63 16 116l73 28l8 -5q-9 -49 -9 -87q0 -81 66 -110t216 -29h63q54 0 113.5 6.5t84.5 17.5q24 53 45 151l100 24l10 -7q-22 -93 -51 -154q50 -26 121 -26z" />
    <glyph glyph-name="uniFB68" unicode="&#x679;" horiz-adv-x="305" arabic-form="initial" 
d="M204 647q31 0 54.5 -25.5t23.5 -59.5q0 -96 -137 -96q-64 0 -108 2l-18 53l3 6h36q10 12 16 20v172h58v-106q37 34 72 34zM231 532q5 22 -4.5 38.5t-26.5 16.5q-28 0 -84 -61h32q68 0 83 6zM185 357h10q53 -118 53 -191q0 -79 -50 -127q-23 -22 -59 -30.5t-108 -8.5h-31
l23 99h29q80 0 102 10q16 52 -48 184z" />
    <glyph glyph-name="uniFB69" unicode="&#x679;" horiz-adv-x="347" arabic-form="medial" 
d="M206 403q-64 0 -108 2l-18 53l3 6h36q10 12 16 20v172h58v-106q37 34 72 34q31 0 54.5 -25.5t23.5 -59.5q0 -96 -137 -96zM261 524q-28 0 -84 -61h32q68 0 83 6q5 22 -4.5 38.5t-26.5 16.5zM370 99q40 0 40 -33q0 -66 -62 -66q-115 0 -172 47q-52 -47 -142 -47h-34l23 99
h27q51 0 73 16q19 36 42 147l100 24l10 -7q-24 -104 -47 -155q48 -25 142 -25z" />
    <glyph glyph-name="uniFB6B" unicode="&#x6a4;" horiz-adv-x="959" arabic-form="final" 
d="M809 703l-56 -86l-91 64l57 83zM752 576l-55 -85l-91 63l56 84zM748 554l57 84l90 -62l-57 -85zM981 99q41 0 41 -33q0 -66 -64 -66h-68q-82 0 -152 29q-104 -40 -292 -40h-65q-339 0 -339 185q0 63 16 116l73 28l8 -5q-9 -49 -9 -87q0 -81 66 -110t216 -29h63
q81 0 158 10q-44 47 -44 104q0 70 50.5 130t114.5 60q56 0 98.5 -51.5t42.5 -109.5q0 -73 -47 -128q27 -3 56 -3h77zM743 295q-27 0 -51 -26t-24 -56q0 -52 75 -85q71 33 71 90q0 28 -23 52.5t-48 24.5z" />
    <glyph glyph-name="uniFB6C" unicode="&#x6a4;" horiz-adv-x="446" arabic-form="initial" 
d="M285 781l-56 -86l-91 64l57 83zM228 654l-55 -85l-91 63l56 84zM224 632l57 84l90 -62l-57 -85zM229 474q72 0 116 -73.5t44 -175.5q0 -141 -62 -186q-38 -24 -105.5 -31.5t-221.5 -7.5l23 99q227 0 277 20q3 13 7 50q-46 -11 -101 -11q-65 0 -98.5 31.5t-33.5 86.5
q0 72 46.5 135t108.5 63zM152 290q0 -41 74 -41q46 0 82 7q-5 48 -29.5 85t-54.5 37q-28 0 -50 -27t-22 -61z" />
    <glyph glyph-name="uniFB6D" unicode="&#x6a4;" horiz-adv-x="445" arabic-form="medial" 
d="M302 704l-56 -86l-91 64l57 83zM245 577l-55 -85l-91 63l56 84zM241 555l57 84l90 -62l-57 -85zM468 99q40 0 40 -33q0 -66 -63 -66h-63q-76 0 -150 30q-78 -30 -178 -30h-54l23 99h90h12q-44 49 -44 102q0 70 51 130t115 60q56 0 98 -51.5t42 -109.5q0 -74 -46 -128
q27 -3 56 -3h71zM161 213q0 -53 76 -86q69 35 69 90q0 29 -23 53.5t-48 24.5q-26 0 -50 -26t-24 -56z" />
    <glyph glyph-name="uniFB7B" unicode="&#x686;" horiz-adv-x="689" arabic-form="final" 
d="M709 99q40 0 40 -33q0 -66 -63 -66q-93 0 -152.5 38t-93.5 134q-138 -34 -222 -117.5t-84 -181.5q0 -91 76.5 -140.5t209.5 -49.5q99 0 200 32l6 -6l-28 -82q-71 -43 -205 -43q-157 0 -254 70.5t-97 189.5q0 120 90 223t223 164l-10 3q-99 29 -158 29q-68 0 -134 -22
l-4 5l36 88q45 24 110 24q49 0 135 -25q144 -43 280 -43l-24 -98q-40 -2 -61 -4q23 -49 65 -69t119 -20zM293 9l86 -60l-53 -79l-86 58zM519 -51l-53 -79l-84 58l51 81zM463 -171l-53 -78l-86 57l54 83z" />
    <glyph glyph-name="uniFB7C" unicode="&#x686;" horiz-adv-x="597" arabic-form="initial" 
d="M369 291q135 -69 197 -73l-25 -93q-115 -13 -268 -66q-173 -59 -273 -59l22 99q98 0 241 42q79 23 135 35q-24 10 -60 30q-101 57 -166 57q-47 0 -106 -19l-4 5l36 89q42 20 89 20q33 0 71.5 -14.5t110.5 -52.5zM267 -137l-57 -83l-90 62l57 85zM264 -158l54 85l91 -64
l-56 -83zM204 -274l57 86l90 -64l-56 -83z" />
    <glyph glyph-name="uniFB7D" unicode="&#x686;" horiz-adv-x="617" arabic-form="medial" 
d="M641 99q39 0 39 -33q0 -66 -61 -66q-106 0 -160 25t-83 78q-33 -11 -79 -30q-99 -41 -164 -57t-133 -16l22 99q61 0 113.5 10t133.5 38q71 24 123 36q-3 2 -22 11t-31 15q-108 54 -167 54q-47 0 -106 -19l-4 4l36 90q42 20 89 20q53 0 167 -57q133 -66 213 -70l-19 -89
q-46 -4 -80 -12q22 -18 61 -24.5t112 -6.5zM264 -137l-57 -83l-90 62l57 85zM261 -158l54 85l91 -64l-56 -83zM201 -274l57 86l90 -64l-56 -83z" />
    <glyph glyph-name="uniFB89" unicode="&#x688;" horiz-adv-x="473" arabic-form="final" 
d="M234 562q-64 0 -108 2l-18 53l3 6h36q10 12 16 20v172h58v-106q37 34 72 34q31 0 54.5 -25.5t23.5 -59.5q0 -96 -137 -96zM289 683q-28 0 -84 -61h32q68 0 83 6q5 22 -4.5 38.5t-26.5 16.5zM494 99q42 0 42 -33q0 -66 -65 -66q-43 0 -70.5 11t-47.5 39q-63 -57 -206 -57
q-67 0 -115 12l14 94l5 4q42 -9 106 -9q104 0 156 29l-1 1q-4 8 -29.5 58t-52 100t-45.5 83l73 80h9q69 -161 111 -251q28 -60 50 -77.5t66 -17.5z" />
    <glyph glyph-name="uniFB8B" unicode="&#x698;" horiz-adv-x="363" arabic-form="final" 
d="M259 641l-56 -86l-91 64l57 83zM202 514l-55 -85l-91 63l56 84zM198 492l57 84l90 -62l-57 -85zM385 99q41 0 41 -33q0 -66 -63 -66q-51 0 -83 22q-26 -73 -105.5 -127.5t-194.5 -74.5l-53 73l6 9q124 23 192.5 70.5t89.5 106.5q-23 59 -76 164l72 79h11
q9 -27 19.5 -54.5t20 -53t12.5 -32.5q20 -53 40.5 -68t70.5 -15z" />
    <glyph glyph-name="uniFB8D" unicode="&#x691;" horiz-adv-x="363" arabic-form="final" 
d="M184 439q-64 0 -108 2l-18 53l3 6h36q10 12 16 20v172h58v-106q37 34 72 34q31 0 54.5 -25.5t23.5 -59.5q0 -96 -137 -96zM239 560q-28 0 -84 -61h32q68 0 83 6q5 22 -4.5 38.5t-26.5 16.5zM385 99q41 0 41 -33q0 -66 -63 -66q-51 0 -83 22q-26 -73 -105.5 -127.5
t-194.5 -74.5l-53 73l6 9q124 23 192.5 70.5t89.5 106.5q-23 59 -76 164l72 79h11q9 -27 19.5 -54.5t20 -53t12.5 -32.5q20 -53 40.5 -68t70.5 -15z" />
    <glyph glyph-name="uniFB8F" unicode="&#x6a9;" horiz-adv-x="950" arabic-form="final" 
d="M973 99q40 0 40 -33q0 -66 -63 -66q-81 0 -148 78q-26 -54 -103 -71.5t-253 -17.5h-65q-339 0 -339 185q0 63 16 116l73 28l8 -5q-9 -49 -9 -87q0 -81 66 -110t216 -29h63q135 0 194.5 8.5t76.5 36.5q-40 69 -225 214l-5 6l26 119l336 183l7 -5l-32 -121l-238 -127
q106 -93 200 -193q36 -40 55 -58.5t47 -34.5t56 -16z" />
    <glyph glyph-name="uniFB90" unicode="&#x6a9;" horiz-adv-x="426" arabic-form="initial" 
d="M431 649l-33 -121l-239 -126q125 -83 168.5 -139t43.5 -107q0 -156 -274 -156h-97l22 99h71q67 0 123 10t76 23q0 44 -58.5 94.5t-166.5 119.5l-5 6l25 119l336 183z" />
    <glyph glyph-name="uniFB91" unicode="&#x6a9;" horiz-adv-x="496" arabic-form="medial" 
d="M519 99q40 0 40 -33q0 -66 -63 -66q-82 0 -148 78q-25 -46 -87.5 -62t-183.5 -16h-77l22 99h105q139 0 165 35q-46 71 -225 212l-5 6l25 119l336 183l8 -5l-33 -121l-237 -127q105 -93 200 -193q36 -40 55 -58.5t47 -34.5t56 -16z" />
    <glyph glyph-name="uniFB93" unicode="&#x6af;" horiz-adv-x="934" arabic-form="final" 
d="M863 724l-321 -176l-7 6l20 94l327 175l8 -4zM973 99q40 0 40 -33q0 -66 -63 -66q-81 0 -148 78q-26 -54 -103 -71.5t-253 -17.5h-65q-339 0 -339 185q0 63 16 116l73 28l8 -5q-9 -49 -9 -87q0 -81 66 -110t216 -29h63q135 0 194.5 8.5t76.5 36.5q-40 69 -225 214l-5 6
l26 119l336 183l7 -5l-32 -121l-238 -127q106 -93 200 -193q36 -40 55 -58.5t47 -34.5t56 -16z" />
    <glyph glyph-name="uniFB94" unicode="&#x6af;" horiz-adv-x="426" arabic-form="initial" 
d="M421 724l-321 -176l-7 6l20 94l327 175l8 -4zM87 471l336 183l8 -5l-33 -121l-239 -126q125 -83 168.5 -139t43.5 -107q0 -156 -274 -156h-97l22 99h71q67 0 123 10t76 23q0 44 -58.5 94.5t-166.5 119.5l-5 6z" />
    <glyph glyph-name="uniFB95" unicode="&#x6af;" horiz-adv-x="492" arabic-form="medial" 
d="M423 724l-321 -176l-7 6l20 94l327 175l8 -4zM519 99q40 0 40 -33q0 -66 -63 -66q-82 0 -148 78q-25 -46 -87.5 -62t-183.5 -16h-77l22 99h105q139 0 165 35q-46 71 -225 212l-5 6l25 119l336 183l8 -5l-33 -121l-237 -127q105 -93 200 -193q36 -40 55 -58.5t47 -34.5
t56 -16z" />
    <glyph glyph-name="uniFB9F" unicode="&#x6ba;" horiz-adv-x="652" arabic-form="final" 
d="M668 99q47 0 47 -33q0 -66 -64 -66q-39 0 -74 22q-20 -103 -99 -155.5t-197 -52.5q-114 0 -176.5 56.5t-62.5 150.5q0 61 17 116l75 28l9 -4q-9 -54 -9 -93q0 -75 37.5 -115t129.5 -40q125 0 182 73q16 48 2.5 100t-51.5 135l87 62h6q1 -2 19.5 -58.5t28.5 -74.5
q27 -51 93 -51z" />
    <glyph glyph-name="uniFBA7" unicode="&#x6c1;" horiz-adv-x="466" arabic-form="final" 
d="M466 0q-43 0 -76.5 19.5t-52.5 46.5t-35 54.5t-33.5 47t-37.5 19.5q-38 0 -78.5 -30.5t-71.5 -77.5h-8l-49 55q35 59 94 105.5t131 46.5q34 0 60 -19.5t44 -47t35.5 -54.5t43 -46.5t57.5 -19.5q40 0 40 -34q0 -65 -63 -65z" />
    <glyph glyph-name="uniFBA8" unicode="&#x6c1;" horiz-adv-x="281" arabic-form="initial" 
d="M0 0l23 99h9q80 0 102 10q3 9 3 21t-1 23t-5.5 26t-9 26t-12 29t-12.5 29t-14 30l82 64h10q53 -111 53 -191q0 -77 -50 -127q-23 -22 -59 -30.5t-108 -8.5h-11zM129 -162q-16 0 -29.5 12.5t-13.5 35.5q0 50 51 105l39 -25q-30 -38 -30 -51q0 -6 6 -9q21 -11 21 -33
q0 -16 -12 -25.5t-32 -9.5z" />
    <glyph glyph-name="uniFBA9" unicode="&#x6c1;" horiz-adv-x="550" arabic-form="medial" 
d="M576 99q37 0 37 -34q0 -65 -59 -65h-59q-56 0 -87 -49.5t-31 -134.5q0 -62 18 -132l-73 -28q-104 44 -163.5 123t-59.5 187q0 20 3 43q-43 -9 -102 -9l24 99q68 0 109 22t69 77l69 -28l3 -9q-25 -65 -70 -103q-11 -39 -11 -76q0 -73 35 -136.5t90 -96.5q-15 63 -15 121
q0 104 49 166.5t143 62.5h81z" />
    <glyph glyph-name="uniFBAB" unicode="&#x6be;" horiz-adv-x="536" arabic-form="final" 
d="M558 99q41 0 41 -34q0 -30 -17 -47.5t-46 -17.5h-63q28 -36 28 -82q0 -50 -40.5 -83t-98.5 -33q-89 0 -145 52t-64 145q-42 -5 -88 -36h-8l-37 70q44 59 139 65q27 137 123 253l64 44l7 1q69 -63 97.5 -105t28.5 -82q0 -28 -14 -60t-35 -50h128zM337 291
q-69 -96 -86 -197q60 2 96 29.5t36 74.5q0 40 -46 93zM422 -93q1 43 -34 71t-92 28q-25 0 -49 -8q7 -49 41.5 -77t84.5 -28q31 0 49 14z" />
    <glyph glyph-name="uniFBAC" unicode="&#x6be;" horiz-adv-x="541" arabic-form="initial" 
d="M130 445q56 -32 95 -55.5t95.5 -63t91.5 -72.5t61 -73.5t26 -76.5q0 -108 -148 -108q-86 0 -154 30q-63 -26 -145 -26h-52l19 99h85q-32 44 -32 98q0 39 18 76.5t49 58.5q-44 21 -47 22l30 89zM205 112q43 31 43 89q0 33 -14.5 57.5t-34.5 24.5t-35.5 -23.5t-15.5 -54.5
q0 -62 57 -93zM351 84q56 0 69 13q-8 48 -98 119q1 -5 1 -14q0 -65 -41 -113q33 -5 69 -5z" />
    <glyph glyph-name="uniFBAD" unicode="&#x6be;" horiz-adv-x="446" arabic-form="medial" 
d="M468 99q41 0 41 -34q0 -30 -17 -47.5t-46 -17.5h-63q28 -38 28 -82q0 -50 -40.5 -83t-98.5 -33q-90 0 -146 52.5t-64 145.5h-62l22 99h47q26 136 123 252l63 44l8 1q69 -63 97 -105t28 -82q0 -28 -14 -60t-35 -50h129zM247 291q-69 -93 -86 -197q59 2 95 29.5t36 74.5
q0 40 -45 93zM332 -93q1 43 -34 71t-92 28q-27 0 -49 -8q7 -49 41.5 -77t84.5 -28q31 0 49 14z" />
    <glyph glyph-name="uniFBAF" unicode="&#x6d2;" horiz-adv-x="609" arabic-form="final" 
d="M551 -265q-283 0 -412 30t-129 109q0 107 93.5 166t261.5 59h267q23 0 31.5 -8.5t8.5 -26.5q0 -64 -64 -64h-243q-275 0 -275 -116q32 -24 170 -38t329 -14l4 -6z" />
    <glyph glyph-name="uniFBB1" unicode="&#x6d3;" horiz-adv-x="609" arabic-form="final" 
d="M89 246l-6 62q30 0 46 1q-20 26 -20 60q0 37 22.5 59.5t62.5 22.5q34 0 72 -15l-16 -58q-30 10 -45 10q-17 0 -26.5 -10t-9.5 -25q0 -24 19 -41q62 4 89 7l5 -59q-79 -10 -193 -14zM632 99q23 0 31.5 -8.5t8.5 -26.5q0 -64 -64 -64h-243q-275 0 -275 -116q32 -24 170 -38
t329 -14l4 -6l-42 -91q-283 0 -412 30t-129 109q0 107 93.5 166t261.5 59h267z" />
    <glyph glyph-name="uniFBFD" unicode="&#x6cc;" horiz-adv-x="758" arabic-form="final" 
d="M327 -186q-139 0 -212 56t-73 147q0 59 16 112l81 28l9 -5q-11 -52 -11 -89q0 -73 47 -111.5t162 -38.5q103 0 184 22t99 55q0 21 -33.5 37.5t-119.5 39.5l29 93q22 -6 70.5 -20.5t73.5 -21t62.5 -13t69.5 -6.5q40 0 40 -34q0 -65 -64 -65h-41q-11 -88 -117 -137
t-272 -49z" />
    <glyph glyph-name="uniFBFE" unicode="&#x6cc;" horiz-adv-x="305" arabic-form="initial" 
d="M0 0l23 99h29q80 0 102 10q16 52 -48 184l79 64h10q53 -118 53 -191q0 -79 -50 -127q-23 -22 -59 -30.5t-108 -8.5h-31zM95 -222l-91 63l56 84l90 -62zM238 -222l-90 63l56 84l90 -62z" />
    <glyph glyph-name="uniFBFF" unicode="&#x6cc;" horiz-adv-x="347" arabic-form="medial" 
d="M370 99q40 0 40 -33q0 -66 -62 -66q-115 0 -172 47q-52 -47 -142 -47h-34l23 99h27q51 0 73 16q19 36 42 147l100 24l10 -7q-24 -104 -47 -155q48 -25 142 -25zM88 -75l90 -62l-55 -85l-91 63zM176 -159l56 84l90 -62l-56 -85z" />
    <glyph glyph-name="uniFDFC" unicode="&#xfdfc;" horiz-adv-x="961" arabic-form="isolated" 
d="M614 135q-77 0 -112.5 32.5t-35.5 98.5v278l67 19l4 -3v-286q0 -35 19.5 -51t63.5 -16q27 0 49 6.5t28 13.5q3 20 -36 93l62 46h5q31 -70 31 -119t-31 -77q-37 -35 -114 -35zM333 512l68 19l4 -3l-1 -441q0 -110 -52 -160.5t-144 -50.5q-87 0 -132.5 41t-45.5 108
q0 36 10 73l60 13l5 -3q-7 -29 -7 -65q0 -50 33 -72.5t84 -22.5q80 0 108 50q10 44 10 116v398zM862 203q49 -89 49 -146q0 -32 -17 -63q-50 -84 -183 -110l-30 59l3 5q71 13 117 42.5t46 56.5q0 34 -46 101l56 55h5zM516 46l38 55l60 -39l-37 -58zM723 62l-38 -58l-60 42
l37 55z" />
    <glyph glyph-name="uniFE82" unicode="&#x622;" horiz-adv-x="248" arabic-form="final" 
d="M195 731q-28 0 -61.5 12.5t-58.5 12.5q-36 0 -77 -26l-31 50q49 44 99 44q27 0 66 -13t67 -13q24 0 44 8l21 -58q-33 -17 -69 -17zM248 0q-90 0 -137.5 42t-47.5 140v481l91 24l8 -5v-491q0 -54 24 -73t85 -19q40 0 40 -33q0 -66 -63 -66z" />
    <glyph glyph-name="uniFE84" unicode="&#x623;" horiz-adv-x="248" arabic-form="final" 
d="M203 817l5 -59q-79 -10 -193 -14l-6 62q30 0 46 1q-20 26 -20 60q0 37 22.5 59.5t62.5 22.5q35 0 72 -15l-16 -58q-30 10 -45 10q-17 0 -26.5 -10t-9.5 -25q0 -24 19 -41q62 4 89 7zM271 99q40 0 40 -33q0 -66 -63 -66q-90 0 -137.5 42t-47.5 140v481l91 24l8 -5v-491
q0 -54 24 -73t85 -19z" />
    <glyph glyph-name="uniFE86" unicode="&#x624;" horiz-adv-x="429" arabic-form="final" 
d="M109 432l-6 68q32 0 50 1q-22 30 -22 66q0 41 25 66t69 25q37 0 79 -17l-17 -64q-31 11 -50 11q-39 0 -39 -39q0 -25 22 -45q43 3 96 8l6 -65q-83 -11 -213 -15zM450 99q42 0 42 -33q0 -66 -64 -66h-69q-29 -78 -105 -126.5t-195 -50.5l-50 74l6 9q190 5 254 94h-18
q-95 0 -142 35.5t-47 100.5q0 74 46 137t108 63q69 0 113.5 -69t46.5 -168h74zM139 150q0 -51 116 -51h42q-1 57 -27.5 99.5t-57.5 42.5q-28 0 -50.5 -27t-22.5 -64z" />
    <glyph glyph-name="uniFE88" unicode="&#x625;" horiz-adv-x="248" arabic-form="final" 
d="M271 99q40 0 40 -33q0 -66 -63 -66q-90 0 -137.5 42t-47.5 140v481l91 24l8 -5v-491q0 -54 24 -73t85 -19zM122 -199q62 4 88 7l5 -58q-79 -10 -193 -14l-6 61q30 0 46 1q-20 28 -20 61q0 37 22.5 59.5t62.5 22.5q35 0 72 -15l-16 -58q-30 10 -45 10q-17 0 -26.5 -10
t-9.5 -25q0 -24 20 -42z" />
    <glyph glyph-name="uniFE8A" unicode="&#x626;" horiz-adv-x="758" arabic-form="final" 
d="M74 246l-6 68q32 0 50 1q-22 30 -22 66q0 41 25 66t69 25q37 0 79 -17l-17 -64q-31 11 -50 11q-39 0 -39 -39q0 -25 22 -45q43 3 96 8l6 -65q-83 -11 -213 -15zM781 99q40 0 40 -34q0 -65 -64 -65h-41q-11 -88 -117 -137t-272 -49q-139 0 -212 56t-73 147q0 59 16 112
l81 28l9 -5q-11 -52 -11 -89q0 -73 47 -111.5t162 -38.5q103 0 184 22t99 55q0 21 -33.5 37.5t-119.5 39.5l29 93q22 -6 70.5 -20.5t73.5 -21t62.5 -13t69.5 -6.5z" />
    <glyph glyph-name="uniFE8B" unicode="&#x626;" horiz-adv-x="305" arabic-form="initial" 
d="M52 445l-6 68q32 0 50 1q-22 30 -22 66q0 41 25 66t69 25q37 0 79 -17l-17 -64q-31 11 -50 11q-39 0 -39 -39q0 -25 22 -45q43 3 96 8l6 -65q-83 -11 -213 -15zM185 357h10q53 -118 53 -191q0 -79 -50 -127q-23 -22 -59 -30.5t-108 -8.5h-31l23 99h29q80 0 102 10
q16 52 -48 184z" />
    <glyph glyph-name="uniFE8C" unicode="&#x626;" horiz-adv-x="347" arabic-form="medial" 
d="M113 382l-6 68q32 0 50 1q-22 30 -22 66q0 41 25 66t69 25q37 0 79 -17l-17 -64q-31 11 -50 11q-39 0 -39 -39q0 -25 22 -45q43 3 96 8l6 -65q-83 -11 -213 -15zM370 99q40 0 40 -33q0 -66 -62 -66q-115 0 -172 47q-52 -47 -142 -47h-34l23 99h27q51 0 73 16
q19 36 42 147l100 24l10 -7q-24 -104 -47 -155q48 -25 142 -25z" />
    <glyph glyph-name="uniFE8E" unicode="&#x627;" horiz-adv-x="248" arabic-form="final" 
d="M248 0q-90 0 -137.5 42t-47.5 140v481l91 24l8 -5v-491q0 -54 24 -73t85 -19q40 0 40 -33q0 -66 -63 -66z" />
    <glyph glyph-name="uniFE90" unicode="&#x628;" horiz-adv-x="875" arabic-form="final" 
d="M898 99q40 0 40 -33q0 -66 -63 -66q-92 0 -149 49q-7 -7 -21 -17q-30 -19 -109 -31t-150 -12h-65q-339 0 -339 185q0 63 16 116l73 28l8 -5q-9 -49 -9 -87q0 -81 66 -110t216 -29h63q54 0 113.5 6.5t84.5 17.5q24 53 45 151l100 24l10 -7q-22 -93 -51 -154
q50 -26 121 -26zM337 -171l58 85l93 -63l-58 -87z" />
    <glyph glyph-name="uniFE91" unicode="&#x628;" horiz-adv-x="285" arabic-form="initial" 
d="M0 0l23 99h9q80 0 102 10q3 9 3 21t-1 23t-5.5 26t-9 26t-12 29t-12.5 29t-14 30l82 64h10q53 -111 53 -191q0 -77 -50 -127q-23 -22 -59 -30.5t-108 -8.5h-11zM157 -225l-93 65l58 85l93 -63z" />
    <glyph glyph-name="uniFE92" unicode="&#x628;" horiz-adv-x="324" arabic-form="medial" 
d="M347 99q40 0 40 -33q0 -66 -63 -66q-91 0 -149 48q-54 -48 -155 -48h-20l23 99h20q60 0 82 16q16 28 42 147l100 24l10 -7q-24 -105 -48 -155q48 -25 118 -25zM102 -160l58 85l93 -63l-58 -87z" />
    <glyph glyph-name="uniFE94" unicode="&#x629;" horiz-adv-x="445" arabic-form="final" 
d="M220 637l-55 -85l-90 63l55 84zM306 552l-90 63l56 84l90 -62zM468 99q40 0 40 -33q0 -28 -15 -47t-50 -19q-123 0 -162 74q-37 -12 -82 -12q-79 0 -125.5 32.5t-46.5 86.5q0 62 62 123t172 96v47l91 38l8 -2v-306q0 -48 23 -63t85 -15zM208 158q25 0 53 5v14v126
q-61 -17 -102.5 -43.5t-50.5 -54.5q8 -22 37.5 -34.5t62.5 -12.5z" />
    <glyph glyph-name="uniFE96" unicode="&#x62a;" horiz-adv-x="875" arabic-form="final" 
d="M451 471l-55 -85l-90 63l55 84zM537 386l-90 63l56 84l90 -62zM898 99q40 0 40 -33q0 -66 -63 -66q-92 0 -149 49q-7 -7 -21 -17q-30 -19 -109 -31t-150 -12h-65q-339 0 -339 185q0 63 16 116l73 28l8 -5q-9 -49 -9 -87q0 -81 66 -110t216 -29h63q54 0 113.5 6.5
t84.5 17.5q24 53 45 151l100 24l10 -7q-22 -93 -51 -154q50 -26 121 -26z" />
    <glyph glyph-name="uniFE97" unicode="&#x62a;" horiz-adv-x="305" arabic-form="initial" 
d="M102 456l-90 63l55 84l90 -62zM243 456l-90 63l56 84l90 -62zM0 0l23 99h29q80 0 102 10q16 52 -48 184l79 64h10q53 -118 53 -191q0 -79 -50 -127q-23 -22 -59 -30.5t-108 -8.5h-31z" />
    <glyph glyph-name="uniFE98" unicode="&#x62a;" horiz-adv-x="347" arabic-form="medial" 
d="M218 478l-55 -85l-90 63l55 84zM304 393l-90 63l56 84l90 -62zM370 99q40 0 40 -33q0 -66 -62 -66q-115 0 -172 47q-52 -47 -142 -47h-34l23 99h27q51 0 73 16q19 36 42 147l100 24l10 -7q-24 -104 -47 -155q48 -25 142 -25z" />
    <glyph glyph-name="uniFE9A" unicode="&#x62b;" horiz-adv-x="875" arabic-form="final" 
d="M514 598l-56 -86l-91 64l57 83zM457 471l-55 -85l-91 63l56 84zM453 449l57 84l90 -62l-57 -85zM898 99q40 0 40 -33q0 -66 -63 -66q-92 0 -149 49q-7 -7 -21 -17q-30 -19 -109 -31t-150 -12h-65q-339 0 -339 185q0 63 16 116l73 28l8 -5q-9 -49 -9 -87q0 -81 66 -110
t216 -29h63q54 0 113.5 6.5t84.5 17.5q24 53 45 151l100 24l10 -7q-22 -93 -51 -154q50 -26 121 -26z" />
    <glyph glyph-name="uniFE9B" unicode="&#x62b;" horiz-adv-x="305" arabic-form="initial" 
d="M164 582l-91 64l57 83l90 -61zM108 456l-91 63l56 84l90 -62zM249 456l-90 63l57 84l90 -62zM0 0l23 99h29q80 0 102 10q16 52 -48 184l79 64h10q53 -118 53 -191q0 -79 -50 -127q-23 -22 -59 -30.5t-108 -8.5h-31z" />
    <glyph glyph-name="uniFE9C" unicode="&#x62b;" horiz-adv-x="347" arabic-form="medial" 
d="M281 605l-56 -86l-91 64l57 83zM224 478l-55 -85l-91 63l56 84zM220 456l57 84l90 -62l-57 -85zM370 99q40 0 40 -33q0 -66 -62 -66q-115 0 -172 47q-52 -47 -142 -47h-34l23 99h27q51 0 73 16q19 36 42 147l100 24l10 -7q-24 -104 -47 -155q48 -25 142 -25z" />
    <glyph glyph-name="uniFE9E" unicode="&#x62c;" horiz-adv-x="686" arabic-form="final" 
d="M709 99q40 0 40 -33q0 -66 -63 -66q-93 0 -152.5 38t-93.5 134q-138 -34 -222 -117.5t-84 -181.5q0 -91 76.5 -140.5t209.5 -49.5q99 0 200 32l6 -6l-28 -82q-71 -43 -205 -43q-157 0 -254 70.5t-97 189.5q0 120 90 223t223 164l-10 3q-99 29 -158 29q-68 0 -134 -22
l-4 5l36 88q45 24 110 24q49 0 135 -25q144 -43 280 -43l-24 -98q-40 -2 -61 -4q23 -49 65 -69t119 -20zM379 -182l-92 66l58 85l93 -63z" />
    <glyph glyph-name="uniFE9F" unicode="&#x62c;" horiz-adv-x="597" arabic-form="initial" 
d="M369 291q135 -69 197 -73l-25 -93q-115 -13 -268 -66q-173 -59 -273 -59l22 99q98 0 241 42q79 23 135 35q-24 10 -60 30q-101 57 -166 57q-47 0 -106 -19l-4 5l36 89q42 20 89 20q33 0 71.5 -14.5t110.5 -52.5zM187 -160l58 85l93 -63l-58 -87z" />
    <glyph glyph-name="uniFEA0" unicode="&#x62c;" horiz-adv-x="617" arabic-form="medial" 
d="M641 99q39 0 39 -33q0 -66 -61 -66q-106 0 -160 25t-83 78q-33 -11 -79 -30q-99 -41 -164 -57t-133 -16l22 99q61 0 113.5 10t133.5 38q71 24 123 36q-3 2 -22 11t-31 15q-108 54 -167 54q-47 0 -106 -19l-4 4l36 90q42 20 89 20q53 0 167 -57q133 -66 213 -70l-19 -89
q-46 -4 -80 -12q22 -18 61 -24.5t112 -6.5zM184 -160l58 85l93 -63l-58 -87z" />
    <glyph glyph-name="uniFEA2" unicode="&#x62d;" horiz-adv-x="686" arabic-form="final" 
d="M709 99q40 0 40 -33q0 -66 -63 -66q-93 0 -152.5 38t-93.5 134q-138 -34 -222 -117.5t-84 -181.5q0 -91 76.5 -140.5t209.5 -49.5q99 0 200 32l6 -6l-28 -82q-71 -43 -205 -43q-157 0 -254 70.5t-97 189.5q0 120 90 223t223 164l-10 3q-99 29 -158 29q-68 0 -134 -22
l-4 5l36 88q45 24 110 24q49 0 135 -25q144 -43 280 -43l-24 -98q-40 -2 -61 -4q23 -49 65 -69t119 -20z" />
    <glyph glyph-name="uniFEA3" unicode="&#x62d;" horiz-adv-x="597" arabic-form="initial" 
d="M369 291q135 -69 197 -73l-25 -93q-115 -13 -268 -66q-173 -59 -273 -59l22 99q98 0 241 42q79 23 135 35q-24 10 -60 30q-101 57 -166 57q-47 0 -106 -19l-4 5l36 89q42 20 89 20q33 0 71.5 -14.5t110.5 -52.5z" />
    <glyph glyph-name="uniFEA4" unicode="&#x62d;" horiz-adv-x="617" arabic-form="medial" 
d="M641 99q39 0 39 -33q0 -66 -61 -66q-106 0 -160 25t-83 78q-33 -11 -79 -30q-99 -41 -164 -57t-133 -16l22 99q61 0 113.5 10t133.5 38q71 24 123 36q-3 2 -22 11t-31 15q-108 54 -167 54q-47 0 -106 -19l-4 4l36 90q42 20 89 20q53 0 167 -57q133 -66 213 -70l-19 -89
q-46 -4 -80 -12q22 -18 61 -24.5t112 -6.5z" />
    <glyph glyph-name="uniFEA6" unicode="&#x62e;" horiz-adv-x="686" arabic-form="final" 
d="M401 550l-58 -87l-93 65l58 86zM709 99q40 0 40 -33q0 -66 -63 -66q-93 0 -152.5 38t-93.5 134q-138 -34 -222 -117.5t-84 -181.5q0 -91 76.5 -140.5t209.5 -49.5q99 0 200 32l6 -6l-28 -82q-71 -43 -205 -43q-157 0 -254 70.5t-97 189.5q0 120 90 223t223 164l-10 3
q-99 29 -158 29q-68 0 -134 -22l-4 5l36 88q45 24 110 24q49 0 135 -25q144 -43 280 -43l-24 -98q-40 -2 -61 -4q23 -49 65 -69t119 -20z" />
    <glyph glyph-name="uniFEA7" unicode="&#x62e;" horiz-adv-x="597" arabic-form="initial" 
d="M261 550l-58 -87l-93 65l58 86zM369 291q135 -69 197 -73l-25 -93q-115 -13 -268 -66q-173 -59 -273 -59l22 99q98 0 241 42q79 23 135 35q-24 10 -60 30q-101 57 -166 57q-47 0 -106 -19l-4 5l36 89q42 20 89 20q33 0 71.5 -14.5t110.5 -52.5z" />
    <glyph glyph-name="uniFEA8" unicode="&#x62e;" horiz-adv-x="617" arabic-form="medial" 
d="M261 550l-58 -87l-93 65l58 86zM641 99q39 0 39 -33q0 -66 -61 -66q-106 0 -160 25t-83 78q-33 -11 -79 -30q-99 -41 -164 -57t-133 -16l22 99q61 0 113.5 10t133.5 38q71 24 123 36q-3 2 -22 11t-31 15q-108 54 -167 54q-47 0 -106 -19l-4 4l36 90q42 20 89 20
q53 0 167 -57q133 -66 213 -70l-19 -89q-46 -4 -80 -12q22 -18 61 -24.5t112 -6.5z" />
    <glyph glyph-name="uniFEAA" unicode="&#x62f;" horiz-adv-x="473" arabic-form="final" 
d="M494 99q42 0 42 -33q0 -66 -65 -66q-43 0 -70.5 11t-47.5 39q-63 -57 -206 -57q-67 0 -115 12l14 94l5 4q42 -9 106 -9q104 0 156 29l-1 1q-4 8 -29.5 58t-52 100t-45.5 83l73 80h9q69 -161 111 -251q28 -60 50 -77.5t66 -17.5z" />
    <glyph glyph-name="uniFEAC" unicode="&#x630;" horiz-adv-x="473" arabic-form="final" 
d="M322 637l-58 -87l-93 65l58 86zM494 99q42 0 42 -33q0 -66 -65 -66q-43 0 -70.5 11t-47.5 39q-63 -57 -206 -57q-67 0 -115 12l14 94l5 4q42 -9 106 -9q104 0 156 29l-1 1q-4 8 -29.5 58t-52 100t-45.5 83l73 80h9q69 -161 111 -251q28 -60 50 -77.5t66 -17.5z" />
    <glyph glyph-name="uniFEAE" unicode="&#x631;" horiz-adv-x="363" arabic-form="final" 
d="M385 99q41 0 41 -33q0 -66 -63 -66q-51 0 -83 22q-26 -73 -105.5 -127.5t-194.5 -74.5l-53 73l6 9q124 23 192.5 70.5t89.5 106.5q-23 59 -76 164l72 79h11q9 -27 19.5 -54.5t20 -53t12.5 -32.5q20 -53 40.5 -68t70.5 -15z" />
    <glyph glyph-name="uniFEB0" unicode="&#x632;" horiz-adv-x="363" arabic-form="final" 
d="M272 514l-58 -87l-93 65l58 86zM385 99q41 0 41 -33q0 -66 -63 -66q-51 0 -83 22q-26 -73 -105.5 -127.5t-194.5 -74.5l-53 73l6 9q124 23 192.5 70.5t89.5 106.5q-23 59 -76 164l72 79h11q9 -27 19.5 -54.5t20 -53t12.5 -32.5q20 -53 40.5 -68t70.5 -15z" />
    <glyph glyph-name="uniFEB2" unicode="&#x633;" horiz-adv-x="1128" arabic-form="final" 
d="M1151 99q40 0 40 -33q0 -66 -63 -66q-85 0 -142 43q-44 -43 -123 -43q-67 0 -120 25q-34 -25 -88 -25q-41 0 -78 23q-21 -106 -100.5 -157.5t-195.5 -51.5q-114 0 -176.5 56.5t-62.5 150.5q0 67 17 116l75 28l9 -4q-9 -53 -9 -93q0 -75 37.5 -115t129.5 -40q125 0 182 73
q9 22 9 48q0 60 -58 187l87 62h6q4 -9 13 -38t18.5 -55.5t17.5 -40.5q26 -50 83 -50q30 0 44 10q11 15 39 115l100 16l4 -4q-28 -87 -45 -127q38 -10 72 -10q41 0 63 13q12 26 12 75q0 32 -6 71l95 35l8 -3q3 -28 3 -54q0 -65 -14 -113q50 -24 117 -24z" />
    <glyph glyph-name="uniFEB3" unicode="&#x633;" horiz-adv-x="810" arabic-form="initial" 
d="M703 357q50 -122 50 -192q0 -84 -53 -124.5t-145 -40.5q-64 0 -121 26q-35 -26 -93 -26q-91 0 -155 44q-55 -44 -186 -44l22 99q91 0 120 16q12 20 34 109l107 16l4 -5q-31 -88 -45 -116q55 -20 110 -20q30 0 44 10q11 15 39 115l100 16l4 -4q-28 -87 -45 -127
q37 -10 72 -10q64 0 91 12q16 50 -45 182l85 65z" />
    <glyph glyph-name="uniFEB4" unicode="&#x633;" horiz-adv-x="821" arabic-form="medial" 
d="M844 99q40 0 40 -33q0 -66 -63 -66q-85 0 -142 43q-46 -43 -124 -43q-64 0 -121 26q-35 -26 -93 -26q-91 0 -155 44q-55 -44 -186 -44l22 99q91 0 120 16q12 20 34 109l107 16l4 -5q-31 -88 -45 -116q55 -20 110 -20q30 0 44 10q11 15 39 115l100 16l4 -4
q-28 -87 -45 -127q37 -10 72 -10q40 0 62 13q12 26 12 74q0 29 -5 72l95 35l8 -3q3 -28 3 -54q0 -65 -14 -113q50 -24 117 -24z" />
    <glyph glyph-name="uniFEB6" unicode="&#x634;" horiz-adv-x="1128" arabic-form="final" 
d="M838 610l-56 -86l-91 64l57 83zM781 483l-55 -85l-91 63l56 84zM777 461l57 84l90 -62l-57 -85zM1151 99q40 0 40 -33q0 -66 -63 -66q-85 0 -142 43q-44 -43 -123 -43q-67 0 -120 25q-34 -25 -88 -25q-41 0 -78 23q-21 -106 -100.5 -157.5t-195.5 -51.5
q-114 0 -176.5 56.5t-62.5 150.5q0 67 17 116l75 28l9 -4q-9 -53 -9 -93q0 -75 37.5 -115t129.5 -40q125 0 182 73q9 22 9 48q0 60 -58 187l87 62h6q4 -9 13 -38t18.5 -55.5t17.5 -40.5q26 -50 83 -50q30 0 44 10q11 15 39 115l100 16l4 -4q-28 -87 -45 -127q38 -10 72 -10
q41 0 63 13q12 26 12 75q0 32 -6 71l95 35l8 -3q3 -28 3 -54q0 -65 -14 -113q50 -24 117 -24z" />
    <glyph glyph-name="uniFEB7" unicode="&#x634;" horiz-adv-x="810" arabic-form="initial" 
d="M513 605l-56 -86l-91 64l57 83zM456 478l-55 -85l-91 63l56 84zM452 456l57 84l90 -62l-57 -85zM703 357q50 -122 50 -192q0 -84 -53 -124.5t-145 -40.5q-64 0 -121 26q-35 -26 -93 -26q-91 0 -155 44q-55 -44 -186 -44l22 99q91 0 120 16q12 20 34 109l107 16l4 -5
q-31 -88 -45 -116q55 -20 110 -20q30 0 44 10q11 15 39 115l100 16l4 -4q-28 -87 -45 -127q37 -10 72 -10q64 0 91 12q16 50 -45 182l85 65z" />
    <glyph glyph-name="uniFEB8" unicode="&#x634;" horiz-adv-x="821" arabic-form="medial" 
d="M513 605l-56 -86l-91 64l57 83zM456 478l-55 -85l-91 63l56 84zM452 456l57 84l90 -62l-57 -85zM844 99q40 0 40 -33q0 -66 -63 -66q-85 0 -142 43q-46 -43 -124 -43q-64 0 -121 26q-35 -26 -93 -26q-91 0 -155 44q-55 -44 -186 -44l22 99q91 0 120 16q12 20 34 109
l107 16l4 -5q-31 -88 -45 -116q55 -20 110 -20q30 0 44 10q11 15 39 115l100 16l4 -4q-28 -87 -45 -127q37 -10 72 -10q40 0 62 13q12 26 12 74q0 29 -5 72l95 35l8 -3q3 -28 3 -54q0 -65 -14 -113q50 -24 117 -24z" />
    <glyph glyph-name="uniFEBA" unicode="&#x635;" horiz-adv-x="1242" arabic-form="final" 
d="M1265 99q40 0 40 -33q0 -66 -63 -66q-82 0 -140 41q-36 -25 -92 -33t-162 -8h-72q-91 0 -131.5 4t-66.5 21q-20 -107 -100.5 -159t-196.5 -52q-114 0 -176.5 56.5t-62.5 150.5q0 60 17 116l75 28l9 -4q-9 -53 -9 -93q0 -75 37.5 -115t129.5 -40q125 0 182 73
q16 48 2.5 100t-51.5 135l87 62h6q43 -121 49 -134q13 -25 31.5 -35.5t57.5 -13.5q137 133 217.5 192.5t142.5 59.5q64 0 107 -51.5t43 -115.5q0 -37 -14 -68q45 -18 104 -18zM855 99q110 0 154 3.5t68 14.5q13 22 13 52q0 31 -22.5 59.5t-54.5 28.5q-69 0 -239 -158h81z
" />
    <glyph glyph-name="uniFEBB" unicode="&#x635;" horiz-adv-x="834" arabic-form="initial" 
d="M634 352q64 0 107 -51.5t43 -115.5q0 -83 -63 -136q-37 -30 -94.5 -39.5t-170.5 -9.5h-111q-83 0 -130.5 6t-92.5 24q-47 -30 -122 -30l22 99q54 0 71 10q12 20 38 108l103 17l4 -4q-24 -72 -49 -119q31 -9 84 -11q138 134 218 193t143 59zM685 117q14 21 14 52
t-22.5 59.5t-54.5 28.5q-71 0 -239 -158h91q102 0 145 3.5t66 14.5z" />
    <glyph glyph-name="uniFEBC" unicode="&#x635;" horiz-adv-x="852" arabic-form="medial" 
d="M875 99q40 0 40 -33q0 -66 -63 -66q-84 0 -141 42q-36 -26 -92 -34t-163 -8h-111q-83 0 -130.5 6t-92.5 24q-47 -30 -122 -30l22 99q54 0 71 10q12 20 38 108l103 17l4 -4q-24 -72 -49 -119q31 -9 84 -11q138 134 218 193t143 59q64 0 107 -51.5t43 -115.5q0 -35 -14 -68
q45 -18 105 -18zM474 99q102 0 145 3.5t66 14.5q14 21 14 52t-22.5 59.5t-54.5 28.5q-71 0 -239 -158h91z" />
    <glyph glyph-name="uniFEBE" unicode="&#x636;" horiz-adv-x="1242" arabic-form="final" 
d="M1078 544l-58 -87l-93 65l58 86zM1265 99q40 0 40 -33q0 -66 -63 -66q-82 0 -140 41q-36 -25 -92 -33t-162 -8h-72q-91 0 -131.5 4t-66.5 21q-20 -107 -100.5 -159t-196.5 -52q-114 0 -176.5 56.5t-62.5 150.5q0 60 17 116l75 28l9 -4q-9 -53 -9 -93q0 -75 37.5 -115
t129.5 -40q125 0 182 73q16 48 2.5 100t-51.5 135l87 62h6q43 -121 49 -134q13 -25 31.5 -35.5t57.5 -13.5q137 133 217.5 192.5t142.5 59.5q64 0 107 -51.5t43 -115.5q0 -37 -14 -68q45 -18 104 -18zM855 99q110 0 154 3.5t68 14.5q13 22 13 52q0 31 -22.5 59.5t-54.5 28.5
q-69 0 -239 -158h81z" />
    <glyph glyph-name="uniFEBF" unicode="&#x636;" horiz-adv-x="834" arabic-form="initial" 
d="M678 544l-58 -87l-93 65l58 86zM634 352q64 0 107 -51.5t43 -115.5q0 -83 -63 -136q-37 -30 -94.5 -39.5t-170.5 -9.5h-111q-83 0 -130.5 6t-92.5 24q-47 -30 -122 -30l22 99q54 0 71 10q12 20 38 108l103 17l4 -4q-24 -72 -49 -119q31 -9 84 -11q138 134 218 193t143 59
zM685 117q14 21 14 52t-22.5 59.5t-54.5 28.5q-71 0 -239 -158h91q102 0 145 3.5t66 14.5z" />
    <glyph glyph-name="uniFEC0" unicode="&#x636;" horiz-adv-x="852" arabic-form="medial" 
d="M678 544l-58 -87l-93 65l58 86zM875 99q40 0 40 -33q0 -66 -63 -66q-84 0 -141 42q-36 -26 -92 -34t-163 -8h-111q-83 0 -130.5 6t-92.5 24q-47 -30 -122 -30l22 99q54 0 71 10q12 20 38 108l103 17l4 -4q-24 -72 -49 -119q31 -9 84 -11q138 134 218 193t143 59
q64 0 107 -51.5t43 -115.5q0 -35 -14 -68q45 -18 105 -18zM474 99q102 0 145 3.5t66 14.5q14 21 14 52t-22.5 59.5t-54.5 28.5q-71 0 -239 -158h91z" />
    <glyph glyph-name="uniFEC2" unicode="&#x637;" horiz-adv-x="732" arabic-form="final" 
d="M755 99q40 0 40 -33q0 -66 -63 -66q-82 0 -140 41q-36 -25 -92 -33t-162 -8h-246l-45 86l3 13h103l43 41v523l91 24l8 -5l-1 -452q139 122 221 122q64 0 107 -51.5t43 -115.5q0 -37 -14 -68q45 -18 104 -18zM345 99q110 0 154 3.5t68 14.5q13 22 13 52q0 31 -22.5 59.5
t-54.5 28.5q-69 0 -239 -158h81z" />
    <glyph glyph-name="uniFEC3" unicode="&#x637;" horiz-adv-x="627" arabic-form="initial" 
d="M426 352q64 0 107 -51.5t43 -115.5q0 -83 -63 -136q-37 -30 -94 -39.5t-170 -9.5h-249l23 99h41q16 16 44 42v522l91 24l7 -5l-1 -452q139 122 221 122zM478 117q13 22 13 52q0 31 -22.5 59.5t-54.5 28.5q-69 0 -239 -158h81q110 0 154 3.5t68 14.5z" />
    <glyph glyph-name="uniFEC4" unicode="&#x637;" horiz-adv-x="643" arabic-form="medial" 
d="M666 99q40 0 40 -33q0 -66 -63 -66q-82 0 -140 41q-36 -25 -92 -33t-162 -8h-249l23 99h41q16 16 44 42v522l91 24l7 -5l-1 -452q139 122 221 122q64 0 107 -51.5t43 -115.5q0 -37 -14 -68q45 -18 104 -18zM256 99q110 0 154 3.5t68 14.5q13 22 13 52q0 31 -22.5 59.5
t-54.5 28.5q-69 0 -239 -158h81z" />
    <glyph glyph-name="uniFEC6" unicode="&#x638;" horiz-adv-x="732" arabic-form="final" 
d="M755 99q40 0 40 -33q0 -66 -63 -66q-82 0 -140 41q-36 -25 -92 -33t-162 -8h-246l-45 86l3 13h103l43 41v523l91 24l8 -5l-1 -452q139 122 221 122q64 0 107 -51.5t43 -115.5q0 -37 -14 -68q45 -18 104 -18zM583 544l-58 -87l-93 65l58 86zM345 99q110 0 154 3.5t68 14.5
q13 22 13 52q0 31 -22.5 59.5t-54.5 28.5q-69 0 -239 -158h81z" />
    <glyph glyph-name="uniFEC7" unicode="&#x638;" horiz-adv-x="627" arabic-form="initial" 
d="M426 352q64 0 107 -51.5t43 -115.5q0 -83 -63 -136q-37 -30 -94 -39.5t-170 -9.5h-249l23 99h41q16 16 44 42v522l91 24l7 -5l-1 -452q139 122 221 122zM494 544l-58 -87l-93 65l58 86zM478 117q13 22 13 52q0 31 -22.5 59.5t-54.5 28.5q-69 0 -239 -158h81
q110 0 154 3.5t68 14.5z" />
    <glyph glyph-name="uniFEC8" unicode="&#x638;" horiz-adv-x="643" arabic-form="medial" 
d="M666 99q40 0 40 -33q0 -66 -63 -66q-82 0 -140 41q-36 -25 -92 -33t-162 -8h-249l23 99h41q16 16 44 42v522l91 24l7 -5l-1 -452q139 122 221 122q64 0 107 -51.5t43 -115.5q0 -37 -14 -68q45 -18 104 -18zM494 544l-58 -87l-93 65l58 86zM256 99q110 0 154 3.5t68 14.5
q13 22 13 52q0 31 -22.5 59.5t-54.5 28.5q-69 0 -239 -158h81z" />
    <glyph glyph-name="uniFECA" unicode="&#x639;" horiz-adv-x="580" arabic-form="final" 
d="M314 78q-98 -80 -141.5 -135t-43.5 -119q0 -70 65 -107t181 -37q106 0 199 27l8 -5l-29 -86q-86 -32 -207 -32q-145 0 -229.5 59t-84.5 166q0 51 18 97.5t53 88t68.5 71.5t83.5 68q-71 77 -139 113l-4 9l37 96q81 39 188 39q117 0 198 -51l3 -9l-25 -89
q-60 -53 -128 -106q81 -37 217 -37q41 0 41 -34q0 -65 -63 -65q-162 0 -266 78zM211 278q39 -24 109 -95q82 63 113 96q-51 17 -106 17q-53 0 -116 -18z" />
    <glyph glyph-name="uniFECB" unicode="&#x639;" horiz-adv-x="523" arabic-form="initial" 
d="M471 119l6 -5l-30 -89q-130 -25 -447 -25l22 99h94q-35 56 -35 115q0 82 56.5 129.5t143.5 47.5q74 0 139 -31l-12 -86l-4 -3q-63 24 -111 24t-74.5 -22.5t-26.5 -64.5q0 -54 47 -106q132 3 232 17z" />
    <glyph glyph-name="uniFECC" unicode="&#x639;" horiz-adv-x="559" arabic-form="medial" 
d="M581 99q41 0 41 -34q0 -65 -64 -65q-156 0 -262 76q-125 -76 -296 -76l22 99q121 0 210 41q-65 72 -138 107l-3 9l37 96q81 39 191 39q120 0 199 -51l3 -10l-24 -88q-19 -14 -39.5 -32t-45.5 -41t-41 -37q80 -33 210 -33zM191 279q37 -21 111 -99q54 38 109 99
q-56 18 -107 18q-57 0 -113 -18z" />
    <glyph glyph-name="uniFECE" unicode="&#x63a;" horiz-adv-x="580" arabic-form="final" 
d="M410 583l-58 -87l-93 65l58 86zM314 78q-98 -80 -141.5 -135t-43.5 -119q0 -70 65 -107t181 -37q106 0 199 27l8 -5l-29 -86q-86 -32 -207 -32q-145 0 -229.5 59t-84.5 166q0 51 18 97.5t53 88t68.5 71.5t83.5 68q-71 77 -139 113l-4 9l37 96q81 39 188 39q117 0 198 -51
l3 -9l-25 -89q-60 -53 -128 -106q81 -37 217 -37q41 0 41 -34q0 -65 -63 -65q-162 0 -266 78zM211 278q39 -24 109 -95q82 63 113 96q-51 17 -106 17q-53 0 -116 -18z" />
    <glyph glyph-name="uniFECF" unicode="&#x63a;" horiz-adv-x="523" arabic-form="initial" 
d="M355 583l-58 -87l-93 65l58 86zM471 119l6 -5l-30 -89q-130 -25 -447 -25l22 99h94q-35 56 -35 115q0 82 56.5 129.5t143.5 47.5q74 0 139 -31l-12 -86l-4 -3q-63 24 -111 24t-74.5 -22.5t-26.5 -64.5q0 -54 47 -106q132 3 232 17z" />
    <glyph glyph-name="uniFED0" unicode="&#x63a;" horiz-adv-x="559" arabic-form="medial" 
d="M393 583l-58 -87l-93 65l58 86zM581 99q41 0 41 -34q0 -65 -64 -65q-156 0 -262 76q-125 -76 -296 -76l22 99q121 0 210 41q-65 72 -138 107l-3 9l37 96q81 39 191 39q120 0 199 -51l3 -10l-24 -88q-19 -14 -39.5 -32t-45.5 -41t-41 -37q80 -33 210 -33zM191 279
q37 -21 111 -99q54 38 109 99q-56 18 -107 18q-57 0 -113 -18z" />
    <glyph glyph-name="uniFED2" unicode="&#x641;" horiz-adv-x="959" arabic-form="final" 
d="M822 576l-58 -87l-93 65l58 86zM981 99q41 0 41 -33q0 -66 -64 -66h-68q-82 0 -152 29q-104 -40 -292 -40h-65q-339 0 -339 185q0 63 16 116l73 28l8 -5q-9 -49 -9 -87q0 -81 66 -110t216 -29h63q81 0 158 10q-44 47 -44 104q0 70 50.5 130t114.5 60q56 0 98.5 -51.5
t42.5 -109.5q0 -73 -47 -128q27 -3 56 -3h77zM743 295q-27 0 -51 -26t-24 -56q0 -52 75 -85q71 33 71 90q0 28 -23 52.5t-48 24.5z" />
    <glyph glyph-name="uniFED3" unicode="&#x641;" horiz-adv-x="446" arabic-form="initial" 
d="M298 654l-58 -87l-93 65l58 86zM229 474q72 0 116 -73.5t44 -175.5q0 -141 -62 -186q-38 -24 -105.5 -31.5t-221.5 -7.5l23 99q227 0 277 20q3 13 7 50q-46 -11 -101 -11q-65 0 -98.5 31.5t-33.5 86.5q0 72 46.5 135t108.5 63zM152 290q0 -41 74 -41q46 0 82 7
q-5 48 -29.5 85t-54.5 37q-28 0 -50 -27t-22 -61z" />
    <glyph glyph-name="uniFED4" unicode="&#x641;" horiz-adv-x="445" arabic-form="medial" 
d="M315 577l-58 -87l-93 65l58 86zM468 99q40 0 40 -33q0 -66 -63 -66h-63q-76 0 -150 30q-78 -30 -178 -30h-54l23 99h90h12q-44 49 -44 102q0 70 51 130t115 60q56 0 98 -51.5t42 -109.5q0 -74 -46 -128q27 -3 56 -3h71zM161 213q0 -53 76 -86q69 35 69 90q0 29 -23 53.5
t-48 24.5q-26 0 -50 -26t-24 -56z" />
    <glyph glyph-name="uniFED6" unicode="&#x642;" horiz-adv-x="722" arabic-form="final" 
d="M501 526l-55 -85l-90 63l55 84zM587 441l-90 63l56 84l90 -62zM743 99q42 0 42 -33q0 -66 -64 -66h-59q-49 -186 -335 -186q-139 0 -212 56t-73 147q0 59 16 112l81 28l9 -5q-11 -52 -11 -89q0 -73 47 -111.5t162 -38.5q87 0 148 20.5t83 50.5q0 2 1.5 7.5t2.5 8.5h-33
q-96 0 -143.5 35t-47.5 97q0 75 46.5 140t109.5 65q70 0 114 -69.5t46 -168.5h70zM435 148q0 -25 27 -37t90 -12h41q-1 54 -26.5 98t-59.5 44q-26 0 -49 -29t-23 -64z" />
    <glyph glyph-name="uniFED7" unicode="&#x642;" horiz-adv-x="446" arabic-form="initial" 
d="M222 654l-55 -85l-90 63l55 84zM308 569l-90 63l56 84l90 -62zM229 474q72 0 116 -73.5t44 -175.5q0 -141 -62 -186q-38 -24 -105.5 -31.5t-221.5 -7.5l23 99q227 0 277 20q3 13 7 50q-46 -11 -101 -11q-65 0 -98.5 31.5t-33.5 86.5q0 72 46.5 135t108.5 63zM152 290
q0 -41 74 -41q46 0 82 7q-5 48 -29.5 85t-54.5 37q-28 0 -50 -27t-22 -61z" />
    <glyph glyph-name="uniFED8" unicode="&#x642;" horiz-adv-x="445" arabic-form="medial" 
d="M239 577l-55 -85l-90 63l55 84zM325 492l-90 63l56 84l90 -62zM468 99q40 0 40 -33q0 -66 -63 -66h-63q-76 0 -150 30q-78 -30 -178 -30h-54l23 99h90h12q-44 49 -44 102q0 70 51 130t115 60q56 0 98 -51.5t42 -109.5q0 -74 -46 -128q27 -3 56 -3h71zM161 213
q0 -53 76 -86q69 35 69 90q0 29 -23 53.5t-48 24.5q-26 0 -50 -26t-24 -56z" />
    <glyph glyph-name="uniFEDA" unicode="&#x643;" horiz-adv-x="841" arabic-form="final" 
d="M864 99q40 0 40 -33q0 -66 -63 -66q-88 0 -128 56q-30 -35 -92.5 -51t-174.5 -16h-65q-339 0 -339 185q0 63 16 116l73 28l8 -5q-9 -49 -9 -87q0 -81 66 -110t216 -29h63q61 0 110.5 8t66.5 20q7 30 7 77v471l91 24l8 -5v-471q0 -64 21.5 -88t84.5 -24zM321 270l-6 58
q30 0 46 1q-20 30 -20 61q0 37 23.5 59.5t62.5 22.5q31 0 71 -16l-15 -53q-27 9 -47 9q-40 0 -40 -35q0 -27 21 -46q44 3 92 8l5 -55q-79 -10 -193 -14z" />
    <glyph glyph-name="uniFEDB" unicode="&#x643;" horiz-adv-x="426" arabic-form="initial" 
d="M431 649l-33 -121l-239 -126q125 -83 168.5 -139t43.5 -107q0 -156 -274 -156h-97l22 99h71q67 0 123 10t76 23q0 44 -58.5 94.5t-166.5 119.5l-5 6l25 119l336 183z" />
    <glyph glyph-name="uniFEDC" unicode="&#x643;" horiz-adv-x="496" arabic-form="medial" 
d="M519 99q40 0 40 -33q0 -66 -63 -66q-82 0 -148 78q-25 -46 -87.5 -62t-183.5 -16h-77l22 99h105q139 0 165 35q-46 71 -225 212l-5 6l25 119l336 183l8 -5l-33 -121l-237 -127q105 -93 200 -193q36 -40 55 -58.5t47 -34.5t56 -16z" />
    <glyph glyph-name="uniFEDE" unicode="&#x644;" horiz-adv-x="676" arabic-form="final" 
d="M698 99q41 0 41 -33q0 -66 -63 -66q-58 0 -95 31q-46 -217 -300 -217q-114 0 -176.5 56.5t-62.5 150.5q0 63 17 116l75 28l9 -4q-9 -48 -9 -93q0 -77 38.5 -116t128.5 -39q122 0 175 67q18 56 18 145v538l90 24l8 -5v-483q0 -64 23.5 -82t82.5 -18z" />
    <glyph glyph-name="uniFEDF" unicode="&#x644;" horiz-adv-x="280" arabic-form="initial" 
d="M0 0l23 99q62 0 88 16q7 30 7 77v471l90 24l9 -5v-482q0 -113 -54 -156.5t-163 -43.5z" />
    <glyph glyph-name="uniFEE0" unicode="&#x644;" horiz-adv-x="300" arabic-form="medial" 
d="M323 99q40 0 40 -33q0 -66 -63 -66q-89 0 -126 58q-26 -32 -66.5 -45t-107.5 -13l23 99q62 0 88 16q7 30 7 77v471l90 24l9 -5v-483q0 -64 23.5 -82t82.5 -18z" />
    <glyph glyph-name="uniFEE2" unicode="&#x645;" horiz-adv-x="567" arabic-form="final" 
d="M590 99q41 0 41 -33q0 -31 -17 -48.5t-48 -17.5q-66 0 -104 38q-34 -50 -82 -50q-100 0 -217 135q-18 -22 -27 -35q-12 -86 39 -410l-82 -40l-9 6q-42 262 -42 350q0 66 15.5 111.5t51.5 88.5q49 60 111 101t108 41q45 0 74 -32.5t73 -119.5q28 -54 48 -69.5t67 -15.5z
M367 83q26 0 48 25l-5 9q-56 124 -91 124q-34 0 -98 -57q87 -101 146 -101z" />
    <glyph glyph-name="uniFEE3" unicode="&#x645;" horiz-adv-x="513" arabic-form="initial" 
d="M288 336q69 0 121 -69t52 -156q0 -56 -27.5 -89.5t-80.5 -33.5q-96 0 -199 72q-27 -34 -63.5 -47t-90.5 -13l22 99q32 0 49.5 13.5t38.5 53.5q1 2 12 21.5t14.5 25.5t14.5 24t18 26t18.5 22t22 21t23.5 15t26.5 11.5t28.5 3.5zM371 97q3 37 -25 90.5t-60 53.5
q-15 0 -30.5 -15t-25.5 -32t-31 -57q79 -51 131 -51q26 0 41 11z" />
    <glyph glyph-name="uniFEE4" unicode="&#x645;" horiz-adv-x="532" arabic-form="medial" 
d="M553 99q42 0 42 -33q0 -30 -17 -48t-48 -18q-63 0 -101 34q-26 -46 -82 -46q-87 0 -189 72q-29 -37 -62.5 -48.5t-95.5 -11.5l24 99q31 0 47 10.5t37 44.5q5 8 23 38.5t26 43.5t26 36.5t31.5 34t34 20t41.5 9.5q27 0 48.5 -11t40.5 -36t30.5 -45.5t30.5 -59.5
q26 -53 47 -69t66 -16zM330 83q32 0 50 21l-6 13q-52 124 -87 124q-34 0 -87 -106q77 -52 130 -52z" />
    <glyph glyph-name="uniFEE6" unicode="&#x646;" horiz-adv-x="652" arabic-form="final" 
d="M367 403l-58 -87l-93 65l58 86zM668 99q47 0 47 -33q0 -66 -64 -66q-39 0 -74 22q-20 -103 -99 -155.5t-197 -52.5q-114 0 -176.5 56.5t-62.5 150.5q0 61 17 116l75 28l9 -4q-9 -54 -9 -93q0 -75 37.5 -115t129.5 -40q125 0 182 73q16 48 2.5 100t-51.5 135l87 62h6
q1 -2 19.5 -58.5t28.5 -74.5q27 -51 93 -51z" />
    <glyph glyph-name="uniFEE7" unicode="&#x646;" horiz-adv-x="285" arabic-form="initial" 
d="M150 454l-93 65l58 86l93 -64zM0 0l23 99h9q80 0 102 10q3 9 3 21t-1 23t-5.5 26t-9 26t-12 29t-12.5 29t-14 30l82 64h10q53 -111 53 -191q0 -77 -50 -127q-23 -22 -59 -30.5t-108 -8.5h-11z" />
    <glyph glyph-name="uniFEE8" unicode="&#x646;" horiz-adv-x="324" arabic-form="medial" 
d="M287 473l-58 -87l-93 65l58 86zM347 99q40 0 40 -33q0 -66 -63 -66q-91 0 -149 48q-54 -48 -155 -48h-20l23 99h20q60 0 82 16q16 28 42 147l100 24l10 -7q-24 -105 -48 -155q48 -25 118 -25z" />
    <glyph glyph-name="uniFEEA" unicode="&#x647;" horiz-adv-x="445" arabic-form="final" 
d="M468 99q40 0 40 -33q0 -28 -15 -47t-50 -19q-123 0 -162 74q-37 -12 -82 -12q-79 0 -125.5 32.5t-46.5 86.5q0 62 62 123t172 96v47l91 38l8 -2v-306q0 -48 23 -63t85 -15zM208 158q25 0 53 5v14v126q-61 -17 -102.5 -43.5t-50.5 -54.5q8 -22 37.5 -34.5t62.5 -12.5z" />
    <glyph glyph-name="uniFEEB" unicode="&#x647;" horiz-adv-x="541" arabic-form="initial" 
d="M130 445q56 -32 95 -55.5t95.5 -63t91.5 -72.5t61 -73.5t26 -76.5q0 -108 -148 -108q-86 0 -154 30q-63 -26 -145 -26h-52l19 99h85q-32 44 -32 98q0 39 18 76.5t49 58.5q-44 21 -47 22l30 89zM205 112q43 31 43 89q0 33 -14.5 57.5t-34.5 24.5t-35.5 -23.5t-15.5 -54.5
q0 -62 57 -93zM351 84q56 0 69 13q-8 48 -98 119q1 -5 1 -14q0 -65 -41 -113q33 -5 69 -5z" />
    <glyph glyph-name="uniFEEC" unicode="&#x647;" horiz-adv-x="446" arabic-form="medial" 
d="M468 99q41 0 41 -34q0 -30 -17 -47.5t-46 -17.5h-63q28 -38 28 -82q0 -50 -40.5 -83t-98.5 -33q-90 0 -146 52.5t-64 145.5h-62l22 99h47q26 136 123 252l63 44l8 1q69 -63 97 -105t28 -82q0 -28 -14 -60t-35 -50h129zM247 291q-69 -93 -86 -197q59 2 95 29.5t36 74.5
q0 40 -45 93zM332 -93q1 43 -34 71t-92 28q-27 0 -49 -8q7 -49 41.5 -77t84.5 -28q31 0 49 14z" />
    <glyph glyph-name="uniFEEE" unicode="&#x648;" horiz-adv-x="429" arabic-form="final" 
d="M450 99q42 0 42 -33q0 -66 -64 -66h-69q-29 -78 -105 -126.5t-195 -50.5l-50 74l6 9q190 5 254 94h-18q-95 0 -142 35.5t-47 100.5q0 74 46 137t108 63q69 0 113.5 -69t46.5 -168h74zM139 150q0 -51 116 -51h42q-1 57 -27.5 99.5t-57.5 42.5q-28 0 -50.5 -27t-22.5 -64z
" />
    <glyph glyph-name="uniFEF0" unicode="&#x649;" horiz-adv-x="758" arabic-form="final" 
d="M327 -186q-139 0 -212 56t-73 147q0 59 16 112l81 28l9 -5q-11 -52 -11 -89q0 -73 47 -111.5t162 -38.5q103 0 184 22t99 55q0 21 -33.5 37.5t-119.5 39.5l29 93q22 -6 70.5 -20.5t73.5 -21t62.5 -13t69.5 -6.5q40 0 40 -34q0 -65 -64 -65h-41q-11 -88 -117 -137
t-272 -49z" />
    <glyph glyph-name="uniFEF2" unicode="&#x64a;" horiz-adv-x="758" arabic-form="final" 
d="M327 -186q-139 0 -212 56t-73 147q0 59 16 112l81 28l9 -5q-11 -52 -11 -89q0 -73 47 -111.5t162 -38.5q103 0 184 22t99 55q0 21 -33.5 37.5t-119.5 39.5l29 93q22 -6 70.5 -20.5t73.5 -21t62.5 -13t69.5 -6.5q40 0 40 -34q0 -65 -64 -65h-41q-11 -88 -117 -137
t-272 -49zM271 -408l-91 63l56 84l90 -62zM414 -408l-90 63l56 84l90 -62z" />
    <glyph glyph-name="uniFEF3" unicode="&#x64a;" horiz-adv-x="305" arabic-form="initial" 
d="M0 0l23 99h29q80 0 102 10q16 52 -48 184l79 64h10q53 -118 53 -191q0 -79 -50 -127q-23 -22 -59 -30.5t-108 -8.5h-31zM95 -222l-91 63l56 84l90 -62zM238 -222l-90 63l56 84l90 -62z" />
    <glyph glyph-name="uniFEF4" unicode="&#x64a;" horiz-adv-x="347" arabic-form="medial" 
d="M370 99q40 0 40 -33q0 -66 -62 -66q-115 0 -172 47q-52 -47 -142 -47h-34l23 99h27q51 0 73 16q19 36 42 147l100 24l10 -7q-24 -104 -47 -155q48 -25 142 -25zM88 -75l90 -62l-55 -85l-91 63zM176 -159l56 84l90 -62l-56 -85z" />
    <glyph glyph-name=".notdef" horiz-adv-x="540" 
d="M80 0v688h380v-688h-380zM156 72h227v544h-227v-544z" />
    <glyph glyph-name=".null" 
 />
    <glyph glyph-name="nonmarkingreturn" horiz-adv-x="333" 
 />
    <glyph glyph-name="NULL" 
 />
    <glyph glyph-name="NULL" 
 />
    <glyph glyph-name="CR" unicode="&#xd;" horiz-adv-x="233" 
 />
    <glyph glyph-name="space" unicode=" " horiz-adv-x="233" 
 />
    <glyph glyph-name="exclam" unicode="!" horiz-adv-x="223" 
d="M68 198l-20 450h126l-20 -442zM111 -11q-29 0 -50 20.5t-21 49.5t21 49.5t50 20.5t50 -20.5t21 -49.5t-21 -49.5t-50 -20.5z" />
    <glyph glyph-name="quotedbl" unicode="&#x22;" horiz-adv-x="403" 
d="M73 418v230h110l-38 -230h-72zM240 418v230h110l-38 -230h-72z" />
    <glyph glyph-name="numbersign" unicode="#" horiz-adv-x="540" 
d="M525 429h-80l-31 -206h70v-81h-83l-21 -142h-95l21 142h-128l-21 -142h-94l21 142h-69v81h82l31 206h-72v81h84l21 138h94l-21 -138h128l21 138h95l-21 -138h68v-81zM319 223l31 206h-128l-31 -206h128z" />
    <glyph glyph-name="dollar" unicode="$" horiz-adv-x="540" 
d="M515 179q0 -80 -50 -128t-138 -60v-132h-92v129q-123 9 -211 75l53 80q85 -60 184 -60q136 0 136 90q0 39 -28 61.5t-109 51.5l-19 7q-47 18 -75.5 32t-57.5 36t-42.5 53t-13.5 72q0 75 52 118.5t131 53.5v131h92v-131q97 -11 176 -65l-52 -80q-87 54 -172 54
q-51 0 -81 -19.5t-30 -57.5q0 -31 26.5 -52.5t99.5 -47.5l20 -7q39 -14 59.5 -22.5t52 -26.5t48 -37t29 -49.5t12.5 -68.5z" />
    <glyph glyph-name="percent" unicode="%" horiz-adv-x="950" 
d="M234 279q-82 0 -138 51t-56 141q0 87 56.5 138.5t137.5 51.5t137 -51t56 -138q0 -91 -55.5 -142t-137.5 -51zM285 -13l-72 48l454 626l72 -47zM234 363q42 0 65 30.5t23 76.5q0 48 -23 77.5t-65 29.5q-43 0 -66 -29t-23 -75q0 -48 23 -79t66 -31zM717 -13q-82 0 -138 51
t-56 141q0 87 56.5 138.5t137.5 51.5t137 -51t56 -138q0 -91 -55.5 -142t-137.5 -51zM717 71q42 0 65 30.5t23 76.5q0 48 -23 77.5t-65 29.5q-43 0 -66 -29t-23 -75q0 -48 23 -79t66 -31z" />
    <glyph glyph-name="ampersand" unicode="&#x26;" horiz-adv-x="676" 
d="M665 60l-70 -73l-102 86q-107 -86 -238 -86q-94 0 -153.5 45.5t-59.5 126.5q0 66 33.5 110t93.5 81q-47 44 -66 77.5t-19 73.5q0 66 49.5 113t132.5 47q81 0 132 -39t51 -106q0 -59 -33 -97.5t-93 -75.5l169 -140q37 52 69 123l95 -40q-40 -84 -91 -143zM190 501
q0 -23 14 -45t51 -56q43 26 65.5 51.5t22.5 59.5q0 29 -20.5 48t-55.5 19q-39 0 -58 -22t-19 -55zM270 78q85 0 155 53l-189 160q-81 -55 -81 -124q0 -37 29.5 -63t85.5 -26z" />
    <glyph glyph-name="quotesingle" unicode="'" horiz-adv-x="237" 
d="M73 418v230h110l-38 -230h-72z" />
    <glyph glyph-name="parenleft" unicode="(" horiz-adv-x="360" 
d="M278 -139q-106 97 -160 197.5t-54 244.5q0 146 54 246t160 197l62 -52q-79 -80 -122 -173t-43 -218q0 -124 43 -216.5t122 -173.5z" />
    <glyph glyph-name="parenright" unicode=")" horiz-adv-x="360" 
d="M82 -139l-62 52q79 81 122 173.5t43 216.5q0 125 -43 218t-122 173l62 52q106 -97 160 -197t54 -246q0 -144 -54 -244.5t-160 -197.5z" />
    <glyph glyph-name="asterisk" unicode="*" horiz-adv-x="500" 
d="M443 510l-140 -27l99 -102l-86 -59l-66 122l-66 -122l-86 59l99 102l-140 27l33 96l126 -59l-19 141h105l-18 -141l126 59z" />
    <glyph glyph-name="plus" unicode="+" horiz-adv-x="540" 
d="M220 56v153h-154v92h154v153h100v-153h154v-92h-154v-153h-100z" />
    <glyph glyph-name="comma" unicode="," horiz-adv-x="196" 
d="M79 -158l-55 31q50 69 50 102q0 15 -12 24.5t-23.5 23t-11.5 37.5q0 27 20.5 48t50.5 21q31 0 51 -22.5t20 -62.5q0 -90 -90 -202z" />
    <glyph glyph-name="hyphen" unicode="-" horiz-adv-x="380" 
d="M47 220v96h286v-96h-286z" />
    <glyph glyph-name="period" unicode="." horiz-adv-x="196" 
d="M98 -11q-29 0 -50 20.5t-21 49.5t21 49.5t50 20.5t50 -20.5t21 -49.5t-21 -49.5t-50 -20.5z" />
    <glyph glyph-name="slash" unicode="/" horiz-adv-x="513" 
d="M138 -141l-96 30l335 886l95 -31z" />
    <glyph glyph-name="zero" unicode="0" horiz-adv-x="540" 
d="M264 -13q-113 0 -173.5 85t-60.5 251q0 96 22 165.5t59.5 105t78.5 51.5t87 16q111 0 172 -85.5t61 -253.5q0 -97 -21.5 -166t-59 -104t-77.5 -50t-88 -15zM268 82q65 0 95.5 56t30.5 185q0 242 -121 242q-64 0 -95.5 -58t-31.5 -184q0 -123 29.5 -182t92.5 -59z" />
    <glyph glyph-name="one" unicode="1" horiz-adv-x="540" 
d="M351 94h130v-94h-408v94h166v434l-136 -71l-44 65l180 126h112v-554z" />
    <glyph glyph-name="two" unicode="2" horiz-adv-x="540" 
d="M219 94h256v-94h-431v53q185 187 248 266t63 141q0 49 -26 75t-74 26q-75 0 -152 -65l-59 71q98 93 225 93q89 0 146.5 -48t57.5 -134q0 -80 -55 -161.5t-199 -222.5z" />
    <glyph glyph-name="three" unicode="3" horiz-adv-x="540" 
d="M345 352q131 -37 131 -164q0 -89 -62 -145t-184 -56q-107 0 -183 40l38 84q63 -30 141 -30q64 0 98.5 26.5t34.5 75.5q0 55 -33.5 83t-120.5 28h-46l8 84h76q60 23 83.5 49.5t23.5 67.5q0 31 -26.5 53t-74.5 22q-72 0 -148 -59l-57 64q93 85 210 85q101 0 154.5 -45
t53.5 -116q0 -101 -117 -147z" />
    <glyph glyph-name="four" unicode="4" horiz-adv-x="540" 
d="M515 239v-93h-85v-146h-114v146h-292v50l182 452h128l-177 -409h159l21 185h93v-185h85z" />
    <glyph glyph-name="five" unicode="5" horiz-adv-x="540" 
d="M261 405q106 0 164.5 -52.5t58.5 -148.5t-60 -156t-186 -60q-99 0 -183 40l39 84q69 -31 138 -31q67 0 102 32.5t35 81.5q0 60 -32.5 91t-117.5 31q-56 0 -86 -10l-39 35v306h370l-12 -93h-246v-155q30 5 55 5z" />
    <glyph glyph-name="six" unicode="6" horiz-adv-x="540" 
d="M308 419q83 0 138.5 -53.5t55.5 -155.5q0 -61 -20.5 -106.5t-55.5 -69.5t-73 -35.5t-80 -11.5q-107 0 -166 73t-59 198q0 196 78 299t202 103q62 0 129 -23l-23 -84q-50 19 -107 19q-136 0 -161 -198q68 45 142 45zM277 78q56 0 86.5 32.5t30.5 91.5q0 66 -26.5 98.5
t-90.5 32.5q-55 0 -117 -39q-1 -12 -1 -36q0 -180 118 -180z" />
    <glyph glyph-name="seven" unicode="7" horiz-adv-x="540" 
d="M56 648h439v-48q-221 -304 -263 -600h-119q36 272 243 554h-312z" />
    <glyph glyph-name="eight" unicode="8" horiz-adv-x="540" 
d="M365 348q77 -38 112.5 -77.5t35.5 -100.5q0 -87 -62.5 -135t-177.5 -48q-114 0 -178.5 47.5t-64.5 130.5q0 55 33.5 97t109.5 77q-109 64 -109 157q0 77 60 120.5t151 43.5q97 0 151.5 -45.5t54.5 -112.5q0 -88 -116 -154zM273 574q-46 0 -71 -21.5t-25 -57.5
q0 -33 26.5 -58.5t88.5 -54.5q76 42 76 107q0 40 -24.5 62.5t-70.5 22.5zM273 76q62 0 92.5 26.5t30.5 63.5q0 21 -8 38t-18 28.5t-33 25.5t-38.5 21.5t-50.5 22.5q-102 -48 -102 -122q0 -45 32 -74.5t95 -29.5z" />
    <glyph glyph-name="nine" unicode="9" horiz-adv-x="540" 
d="M266 660q110 0 168 -70.5t58 -196.5q0 -200 -75.5 -303t-205.5 -103q-65 0 -132 25l26 82q53 -21 107 -21q139 0 166 199q-72 -48 -148 -48q-84 0 -138.5 55t-54.5 162q0 105 66.5 162t162.5 57zM261 311q59 0 123 40q1 13 1 40q0 183 -119 183q-57 0 -90 -34.5
t-33 -94.5q0 -134 118 -134z" />
    <glyph glyph-name="colon" unicode=":" horiz-adv-x="196" 
d="M98 299q-29 0 -50 20.5t-21 49.5t21 49.5t50 20.5t50 -20.5t21 -49.5t-21 -49.5t-50 -20.5zM98 -11q-29 0 -50 20.5t-21 49.5t21 49.5t50 20.5t50 -20.5t21 -49.5t-21 -49.5t-50 -20.5z" />
    <glyph glyph-name="uni003B" unicode=";" horiz-adv-x="196" 
d="M98 299q-29 0 -50 20.5t-21 49.5t21 49.5t50 20.5t50 -20.5t21 -49.5t-21 -49.5t-50 -20.5zM79 -158l-55 31q50 69 50 102q0 15 -12 24.5t-23.5 23t-11.5 37.5q0 27 20.5 48t50.5 21q31 0 51 -22.5t20 -62.5q0 -90 -90 -202z" />
    <glyph glyph-name="less" unicode="&#x3c;" horiz-adv-x="540" 
d="M474 385l-325 -129l325 -129l-36 -85l-372 148v130l372 150z" />
    <glyph glyph-name="equal" unicode="=" horiz-adv-x="540" 
d="M66 293v91h408v-91h-408zM66 127v92h408v-92h-408z" />
    <glyph glyph-name="greater" unicode="&#x3e;" horiz-adv-x="540" 
d="M102 469l372 -148v-130l-372 -150l-36 85l325 129l-325 129z" />
    <glyph glyph-name="question" unicode="?" horiz-adv-x="463" 
d="M161 199v38q0 50 20.5 87.5t70.5 77.5q35 28 47.5 47t12.5 42q0 34 -23.5 53.5t-68.5 19.5q-72 0 -144 -65l-61 70q41 42 98.5 67t118.5 25q88 0 143.5 -42.5t55.5 -120.5q0 -46 -18.5 -79t-65.5 -67q-44 -32 -61 -61t-17 -70v-11zM214 -11q-29 0 -50 20.5t-21 49.5
t21 49.5t50 20.5t50 -20.5t21 -49.5t-21 -49.5t-50 -20.5z" />
    <glyph glyph-name="at" unicode="@" horiz-adv-x="905" 
d="M472 661q185 0 288.5 -102.5t103.5 -261.5q0 -95 -49 -161t-139 -66q-74 0 -108 46q-69 -47 -144 -47q-85 0 -127.5 56.5t-42.5 140.5q0 102 62.5 158.5t150.5 56.5q95 0 165 -36v-239q0 -55 51 -55q82 0 82 147q0 125 -70 203t-230 78q-149 0 -237 -86t-88 -237
q0 -139 81.5 -217t223.5 -78q108 0 190 35l28 -77q-98 -43 -218 -43q-178 0 -290.5 104.5t-112.5 275.5q0 191 120 298t310 107zM359 269q0 -116 86 -116q47 0 89 25v218q-28 6 -61 6q-54 0 -84 -33.5t-30 -99.5z" />
    <glyph glyph-name="A" unicode="A" horiz-adv-x="648" 
d="M394 648l239 -641v-7h-120l-61 172h-260l-60 -172h-117v7l238 641h141zM224 264h195l-98 278z" />
    <glyph glyph-name="B" unicode="B" horiz-adv-x="602" 
d="M429 341q66 -17 98.5 -60t32.5 -96q0 -85 -62 -135t-178 -50h-243v648h231q108 0 167.5 -46.5t59.5 -122.5q0 -100 -106 -138zM308 556h-117v-180h103q125 0 125 94q0 39 -29 62.5t-82 23.5zM316 93q67 0 96.5 27t29.5 69q0 45 -31 71.5t-93 26.5h-127v-194h125z" />
    <glyph glyph-name="C" unicode="C" horiz-adv-x="575" 
d="M347 -13q-155 0 -230 89.5t-75 244.5q0 91 25 159t68.5 106t95.5 56.5t113 18.5q115 0 213 -59l-46 -85q-78 47 -161 47q-188 0 -188 -237q0 -115 50 -178.5t144 -63.5q80 0 161 48l45 -82q-108 -64 -215 -64z" />
    <glyph glyph-name="D" unicode="D" horiz-adv-x="669" 
d="M281 648q167 0 257 -75.5t90 -248.5q0 -161 -99.5 -242.5t-258.5 -81.5h-193v648h204zM253 97q129 0 191 48t62 179q0 120 -54.5 173.5t-168.5 53.5h-92v-454h62z" />
    <glyph glyph-name="E" unicode="E" horiz-adv-x="546" 
d="M191 95h309v-95h-423v648h418v-94h-304v-178h264l-13 -92h-251v-189z" />
    <glyph glyph-name="F" unicode="F" horiz-adv-x="522" 
d="M495 554h-304v-194h263l-12 -94h-251v-266h-114v648h418v-94z" />
    <glyph glyph-name="G" unicode="G" horiz-adv-x="645" 
d="M336 365h255v-319q-121 -59 -238 -59q-160 0 -235.5 91t-75.5 244q0 89 25 156t69.5 106t100 58t120.5 19q123 0 218 -60l-48 -84q-75 48 -162 48q-105 0 -154.5 -63t-49.5 -175q0 -119 46.5 -180.5t150.5 -61.5q61 0 119 21v165h-154z" />
    <glyph glyph-name="H" unicode="H" horiz-adv-x="712" 
d="M521 648h114v-648h-114v281h-330v-281h-114v648h114v-270h330v270z" />
    <glyph glyph-name="I" unicode="I" horiz-adv-x="269" 
d="M77 0v648h114v-648h-114z" />
    <glyph glyph-name="J" unicode="J" horiz-adv-x="461" 
d="M183 -13q-107 0 -185 62l58 80q56 -43 117 -43q51 0 77.5 30.5t26.5 84.5v447h114v-450q0 -59 -18 -102t-49 -65.5t-66 -33t-75 -10.5z" />
    <glyph glyph-name="K" unicode="K" horiz-adv-x="615" 
d="M319 340l287 -333v-7h-139l-276 327v-327h-114v648h114v-305l273 305h129v-7z" />
    <glyph glyph-name="L" unicode="L" horiz-adv-x="515" 
d="M191 99h308v-99h-422v648h114v-549z" />
    <glyph glyph-name="M" unicode="M" horiz-adv-x="831" 
d="M633 648h121v-648h-112v455q-17 -45 -41 -92l-137 -269h-98l-135 269q-32 62 -44 94v-457h-110v648h123l147 -285q51 -101 69 -155q19 59 69 155z" />
    <glyph glyph-name="N" unicode="N" horiz-adv-x="705" 
d="M518 648h110v-648h-125l-249 368q-52 77 -66 110v-478h-111v648h122l261 -386q45 -68 58 -95v481z" />
    <glyph glyph-name="O" unicode="O" horiz-adv-x="712" 
d="M353 -13q-150 0 -230.5 92.5t-80.5 246.5q0 166 91 250.5t227 84.5q150 0 230 -92.5t80 -246.5q0 -166 -90.5 -250.5t-226.5 -84.5zM353 82q98 0 148.5 64.5t50.5 174.5q0 113 -48.5 179t-143.5 66q-98 0 -149 -64.5t-51 -174.5q0 -113 49 -179t144 -66z" />
    <glyph glyph-name="P" unicode="P" horiz-adv-x="569" 
d="M298 648q120 0 183 -55.5t63 -146.5q0 -95 -65 -156t-187 -61h-101v-229h-114v648h221zM282 323q144 0 144 119q0 112 -130 112h-105v-231h91z" />
    <glyph glyph-name="Q" unicode="Q" horiz-adv-x="712" 
d="M687 -60l-62 -95l-227 145q-22 -3 -45 -3q-150 0 -230.5 92.5t-80.5 246.5q0 166 91 250.5t227 84.5q150 0 230 -92.5t80 -246.5q0 -104 -42.5 -179.5t-115.5 -115.5zM160 327q0 -113 49 -179t144 -66q98 0 148.5 64.5t50.5 174.5q0 113 -48.5 179t-143.5 66
q-98 0 -149 -64.5t-51 -174.5z" />
    <glyph glyph-name="R" unicode="R" horiz-adv-x="590" 
d="M388 259l185 -252v-7h-129l-175 245h-78v-245h-114v648h214q119 0 181.5 -54t62.5 -142q0 -69 -37.5 -120.5t-109.5 -72.5zM191 554v-219h86q140 0 140 113q0 106 -127 106h-99z" />
    <glyph glyph-name="S" unicode="S" horiz-adv-x="556" 
d="M268 -13q-144 0 -243 76l53 80q85 -60 184 -60q136 0 136 90q0 39 -28 61.5t-109 51.5l-19 7q-47 18 -75.5 32t-57.5 36t-42.5 53t-13.5 72q0 58 34.5 99t84.5 58.5t109 17.5q122 0 223 -68l-52 -80q-87 54 -172 54q-51 0 -81 -19.5t-30 -57.5q0 -31 26.5 -52.5
t99.5 -47.5l20 -7q39 -14 59.5 -22.5t52 -26.5t48 -37t29 -49.5t12.5 -68.5q0 -93 -67.5 -142.5t-180.5 -49.5z" />
    <glyph glyph-name="T" unicode="T" horiz-adv-x="577" 
d="M561 648v-98h-214v-550h-114v550h-217v98h545z" />
    <glyph glyph-name="U" unicode="U" horiz-adv-x="680" 
d="M336 -13q-138 0 -206 76t-68 198v387h114v-368q0 -196 167 -196q161 0 161 188v376h114v-384q0 -142 -77.5 -209.5t-204.5 -67.5z" />
    <glyph glyph-name="V" unicode="V" horiz-adv-x="638" 
d="M507 648h116v-7l-238 -641h-132l-238 641v7h120l186 -535z" />
    <glyph glyph-name="W" unicode="W" horiz-adv-x="920" 
d="M788 648h113v-7l-174 -641h-139l-97 379q-18 75 -31 160q-13 -85 -31 -160l-93 -379h-140l-177 641v7h116l99 -383q18 -62 34 -159q15 102 30 159l100 383h131l100 -380q17 -64 33 -163q14 81 33 163z" />
    <glyph glyph-name="X" unicode="X" horiz-adv-x="603" 
d="M369 340l219 -340h-136l-152 258l-162 -258h-123l216 332l-207 316h135l145 -235l147 235h123z" />
    <glyph glyph-name="Y" unicode="Y" horiz-adv-x="615" 
d="M600 648v-7l-238 -381v-260h-114v261l-233 380v7h127l165 -284l172 284h121z" />
    <glyph glyph-name="Z" unicode="Z" horiz-adv-x="567" 
d="M525 648v-55l-338 -495h327v-98h-482v55l340 495h-320l12 98h461z" />
    <glyph glyph-name="bracketleft" unicode="[" horiz-adv-x="360" 
d="M80 -121v859h262v-93h-153v-673h153v-93h-262z" />
    <glyph glyph-name="backslash" unicode="\" horiz-adv-x="513" 
d="M376 -141l-334 885l95 31l335 -886z" />
    <glyph glyph-name="bracketright" unicode="]" horiz-adv-x="360" 
d="M18 -121v93h153v673h-153v93h262v-859h-262z" />
    <glyph glyph-name="asciicircum" unicode="^" horiz-adv-x="540" 
d="M484 327h-117l-101 213l-98 -213h-112l165 321h98z" />
    <glyph glyph-name="underscore" unicode="_" horiz-adv-x="540" 
d="M43 -161v91h454v-91h-454z" />
    <glyph glyph-name="grave" unicode="`" horiz-adv-x="304" 
d="M238 489l-187 94l59 87l166 -131z" />
    <glyph glyph-name="a" unicode="a" horiz-adv-x="480" 
d="M255 457q82 0 123 -35t41 -112v-310h-94l-8 37q-68 -50 -155 -50q-61 0 -98 33t-37 88q0 54 40 91.5t102 54.5t142 19v17q0 43 -16 62t-56 19q-69 0 -148 -51l-44 69q98 68 208 68zM140 120q0 -49 57 -49q56 0 114 34v96q-80 -4 -125.5 -24.5t-45.5 -56.5z" />
    <glyph glyph-name="b" unicode="b" horiz-adv-x="527" 
d="M317 457q88 0 132 -60t44 -165q0 -67 -23 -116.5t-61.5 -76.5t-81.5 -39.5t-90 -12.5q-78 0 -171 28v673l108 11v-284q73 42 143 42zM232 71q67 0 107.5 39t40.5 124q0 69 -23 102.5t-74 33.5q-47 0 -109 -29v-264q30 -6 58 -6z" />
    <glyph glyph-name="c" unicode="c" horiz-adv-x="430" 
d="M248 -13q-95 0 -154.5 52.5t-59.5 171.5q0 123 68 184.5t160 61.5q69 0 145 -40l-39 -76q-61 29 -106 29q-54 0 -85 -41t-31 -117q0 -136 115 -136q50 0 115 38l40 -73q-83 -54 -168 -54z" />
    <glyph glyph-name="d" unicode="d" horiz-adv-x="525" 
d="M352 688l108 11v-699h-95l-7 33q-71 -46 -139 -46q-90 0 -137.5 58.5t-47.5 165.5q0 120 66 183t164 63q42 0 88 -13v244zM147 212q0 -139 101 -139q50 0 104 32v259q-35 12 -75 12q-58 0 -94 -41.5t-36 -122.5z" />
    <glyph glyph-name="e" unicode="e" horiz-adv-x="476" 
d="M443 267q0 -31 -3 -67h-298q4 -66 37.5 -97t83.5 -31q61 0 131 40l38 -70q-79 -55 -177 -55q-99 0 -160 55t-61 174q0 108 56.5 174.5t160.5 66.5q92 0 142 -53t50 -137zM252 379q-87 0 -105 -104h192v3q0 101 -87 101z" />
    <glyph glyph-name="f" unicode="f" horiz-adv-x="330" 
d="M268 605q-33 0 -51 -22.5t-18 -62.5v-77h127l-11 -85h-116v-358h-108v358h-74v85h74v75q0 79 44.5 128t123.5 49q59 0 106 -19l-27 -85q-34 14 -70 14z" />
    <glyph glyph-name="g" unicode="g" horiz-adv-x="511" 
d="M322 80q90 -8 134 -35t44 -87q0 -72 -67.5 -114.5t-183.5 -42.5q-99 0 -160.5 31t-61.5 95q0 66 71 108q-29 23 -29 54q0 39 50 75q-76 41 -76 131q0 82 60.5 122t150.5 40q30 0 58 -5l153 64l34 -86l-98 -25q54 -42 54 -113q0 -80 -59.5 -117.5t-149.5 -37.5
q-29 0 -61 5q-9 -12 -9 -25q0 -14 16 -20.5t61 -10.5zM249 378q-97 0 -97 -82q0 -81 100 -81q95 0 95 79q0 40 -25 62t-73 22zM251 -120q59 0 96 15.5t37 47.5q0 24 -24 35.5t-83 16.5l-65 5q-29 3 -53 9q-30 -33 -30 -66q0 -63 122 -63z" />
    <glyph glyph-name="h" unicode="h" horiz-adv-x="525" 
d="M328 457q137 0 137 -136v-321h-108v284q0 49 -15.5 67.5t-56.5 18.5q-53 0 -111 -30v-340h-108v688l108 11v-285q77 43 154 43z" />
    <glyph glyph-name="i" unicode="i" horiz-adv-x="239" 
d="M118 523q-29 0 -50.5 21t-21.5 50t21.5 50.5t50.5 21.5q31 0 52.5 -21.5t21.5 -50.5t-21.5 -50t-52.5 -21zM66 0v442l108 11v-453h-108z" />
    <glyph glyph-name="j" unicode="j" horiz-adv-x="239" 
d="M119 523q-29 0 -50.5 21t-21.5 50t21.5 50.5t50.5 21.5q31 0 52.5 -21.5t21.5 -50.5t-21.5 -50t-52.5 -21zM24 -199q-50 0 -99 20l26 78q33 -11 56 -11q59 0 59 69v486l108 12v-493q0 -80 -40 -120.5t-110 -40.5z" />
    <glyph glyph-name="k" unicode="k" horiz-adv-x="485" 
d="M292 238l183 -231v-7h-129l-172 227v-227h-108v688l108 11v-457l175 201h117v-6z" />
    <glyph glyph-name="l" unicode="l" horiz-adv-x="239" 
d="M66 0v688l108 11v-699h-108z" />
    <glyph glyph-name="m" unicode="m" horiz-adv-x="782" 
d="M594 457q60 0 93.5 -33.5t33.5 -102.5v-321h-108v284q0 48 -14 67t-47 19q-49 0 -106 -30q1 -6 1 -19v-321h-108v284q0 48 -14 67t-47 19q-49 0 -104 -30v-340h-108v442l108 11v-39q75 43 146 43q76 0 106 -50q85 50 168 50z" />
    <glyph glyph-name="n" unicode="n" horiz-adv-x="527" 
d="M330 457q136 0 136 -138v-319h-108v284q0 49 -15.5 67.5t-55.5 18.5q-51 0 -113 -31v-339h-108v442l108 11v-43q81 47 156 47z" />
    <glyph glyph-name="o" unicode="o" horiz-adv-x="522" 
d="M253 -13q-107 0 -163 66.5t-56 169.5q0 121 66 177.5t169 56.5q108 0 164 -65t56 -170q0 -120 -66 -177.5t-170 -57.5zM261 71q115 0 115 152q0 150 -112 150q-118 0 -118 -150q0 -70 28.5 -111t86.5 -41z" />
    <glyph glyph-name="p" unicode="p" horiz-adv-x="527" 
d="M311 457q91 0 136.5 -61t45.5 -163q0 -121 -67 -183.5t-166 -62.5q-40 0 -86 12v-185h-108v628l108 11v-39q69 43 137 43zM246 69q61 0 97.5 41t36.5 122q0 73 -25.5 105.5t-77.5 32.5q-49 0 -103 -31v-260q38 -10 72 -10z" />
    <glyph glyph-name="q" unicode="q" horiz-adv-x="525" 
d="M287 456q75 0 173 -31v-611h-108v213q-69 -40 -137 -40q-88 0 -134.5 59.5t-46.5 161.5q0 69 23.5 119.5t62 77.5t80.5 39t87 12zM245 73q48 0 107 30v264q-31 7 -62 7q-63 0 -103 -40t-40 -127q0 -134 98 -134z" />
    <glyph glyph-name="r" unicode="r" horiz-adv-x="371" 
d="M300 457q28 0 58 -9l-18 -110q-34 12 -61 12q-62 0 -105 -62v-288h-108v443l108 10v-63q49 67 126 67z" />
    <glyph glyph-name="s" unicode="s" horiz-adv-x="428" 
d="M216 -13q-115 0 -200 60l46 73q71 -51 151 -51t80 50q0 21 -19.5 36t-72.5 29l-30 8q-71 19 -103 50t-32 82q0 59 48.5 96t124.5 37q95 0 177 -48l-42 -72q-73 38 -133 38q-31 0 -48 -12t-17 -32q0 -18 14.5 -28.5t55.5 -20.5l32 -8q81 -22 117.5 -56.5t36.5 -88.5
q0 -63 -48 -102.5t-138 -39.5z" />
    <glyph glyph-name="t" unicode="t" horiz-adv-x="366" 
d="M324 91l30 -74q-58 -30 -120 -30q-60 0 -98.5 35.5t-38.5 106.5v229h-85v85h85v100l108 16v-116h138l-11 -85h-127v-212q0 -71 53 -71q26 0 66 16z" />
    <glyph glyph-name="u" unicode="u" horiz-adv-x="524" 
d="M350 442l108 11v-453h-94l-8 34q-78 -47 -157 -47q-63 0 -100.5 36t-37.5 103v316l108 11v-295q0 -45 16 -64t57 -19q44 0 108 34v333z" />
    <glyph glyph-name="v" unicode="v" horiz-adv-x="462" 
d="M340 443h117v-6l-172 -437h-104l-176 437v6h117l93 -263q13 -39 21 -72q17 62 20 72z" />
    <glyph glyph-name="w" unicode="w" horiz-adv-x="676" 
d="M559 443h109v-6l-131 -437h-103l-73 246q-15 51 -20 82q-6 -39 -19 -82l-70 -247h-103l-140 438v6h117l65 -247q7 -30 14 -69q11 51 16 69l69 247h109l70 -244q12 -45 18 -80q4 38 13 80z" />
    <glyph glyph-name="x" unicode="x" horiz-adv-x="470" 
d="M304 230l154 -223v-7h-126l-98 159l-107 -159h-115v7l157 221l-148 209v6h124l94 -145l95 145h112v-6z" />
    <glyph glyph-name="y" unicode="y" horiz-adv-x="459" 
d="M342 443h111v-6l-153 -447q-35 -102 -81.5 -145.5t-122.5 -43.5q-45 0 -93 16l28 79q28 -9 56 -9q36 0 61 19t48 80l5 14h-29l-168 437v6h114l92 -263q16 -44 25 -80q16 58 23 80z" />
    <glyph glyph-name="z" unicode="z" horiz-adv-x="431" 
d="M403 443v-47l-227 -305h226v-91h-380v49l230 303h-214l12 91h353z" />
    <glyph glyph-name="braceleft" unicode="{" horiz-adv-x="360" 
d="M322 -130q-209 19 -209 159q0 17 7.5 75.5t7.5 77.5q0 46 -19.5 63t-68.5 19v88q49 2 68.5 19t19.5 63q0 19 -7.5 77.5t-7.5 75.5q0 140 209 159l18 -95q-67 -3 -93.5 -21t-26.5 -57q0 -15 6.5 -72t6.5 -75q0 -54 -28 -84t-68 -34q40 -4 68 -34.5t28 -83.5
q0 -18 -6.5 -75t-6.5 -72q0 -38 26 -57.5t94 -27.5z" />
    <glyph glyph-name="bar" unicode="|" horiz-adv-x="270" 
d="M84 -186v941h102v-941h-102z" />
    <glyph glyph-name="braceright" unicode="}" horiz-adv-x="360" 
d="M38 -130l-18 88q68 8 94 27.5t26 57.5q0 15 -6.5 72t-6.5 75q0 53 28 83.5t68 34.5q-40 4 -68 34t-28 84q0 18 6.5 75t6.5 72q0 39 -26.5 57t-93.5 21l18 95q209 -19 209 -159q0 -17 -7.5 -75.5t-7.5 -77.5q0 -46 19.5 -63t68.5 -19v-88q-49 -2 -68.5 -19t-19.5 -63
q0 -19 7.5 -77.5t7.5 -75.5q0 -140 -209 -159z" />
    <glyph glyph-name="asciitilde" unicode="~" horiz-adv-x="540" 
d="M342 195q-41 0 -89 26.5t-63 26.5q-21 0 -35 -10.5t-28 -36.5l-68 25q45 117 142 117q41 0 89 -26.5t63 -26.5q36 0 60 47l68 -25q-45 -117 -139 -117z" />
    <glyph glyph-name="uni00A0" unicode="&#xa0;" horiz-adv-x="233" 
 />
    <glyph glyph-name="exclamdown" unicode="&#xa1;" horiz-adv-x="223" 
d="M111 316q-28 0 -49.5 21t-21.5 49q0 29 21 50t50 21t50.5 -21t21.5 -50q0 -28 -21.5 -49t-50.5 -21zM48 -203l21 443l85 8l20 -451h-126z" />
    <glyph glyph-name="cent" unicode="&#xa2;" horiz-adv-x="540" 
d="M462 41q-66 -42 -128 -51v-131h-91v132q-163 27 -163 220q0 100 46 159.5t117 78.5v135h91v-128q57 -6 119 -39l-39 -76q-61 29 -106 29q-54 0 -85 -41t-31 -117q0 -136 115 -136q50 0 115 38z" />
    <glyph glyph-name="sterling" unicode="&#xa3;" horiz-adv-x="540" 
d="M255 225q0 -73 -37 -133h272v-92h-430v92h55q34 53 34 129q0 30 -7 65h-80v80h57q-25 75 -25 121q1 76 56 125t147 49q108 0 195 -84l-62 -70q-68 60 -133 60q-43 0 -66.5 -22.5t-23.5 -61.5q0 -45 22 -117h180v-80h-160q6 -28 6 -61z" />
    <glyph glyph-name="currency" unicode="&#xa4;" horiz-adv-x="540" 
d="M476 284q0 -68 -32 -115l68 -68l-54 -53l-68 68q-50 -32 -120 -32t-120 32l-68 -67l-54 53l68 67q-32 50 -32 115q0 66 31 114l-68 68l54 54l68 -68q52 32 121 32q70 0 120 -32l68 67l54 -53l-68 -67q32 -50 32 -115zM158 284q0 -114 112 -114t112 114t-112 114
q-55 0 -83.5 -29.5t-28.5 -84.5z" />
    <glyph glyph-name="yen" unicode="&#xa5;" horiz-adv-x="540" 
d="M533 648l-189 -325h131v-73h-152v-62h152v-72h-152v-116h-111v116h-147v72h147v62h-147v73h126l-184 325h127l135 -267l141 267h123z" />
    <glyph glyph-name="brokenbar" unicode="&#xa6;" horiz-adv-x="270" 
d="M84 400v355h102v-355h-102zM84 -186v355h102v-355h-102z" />
    <glyph glyph-name="section" unicode="&#xa7;" horiz-adv-x="540" 
d="M379 217q54 -35 54 -93q0 -65 -51.5 -101t-125.5 -36q-86 0 -167 37l35 74q70 -29 131 -29q32 0 50 12t18 30q0 27 -22 41t-86 35q-34 12 -50 18.5t-41 21.5t-36 35.5t-11 48.5q0 70 87 118q-55 39 -55 98q0 63 51 98.5t123 35.5q83 0 159 -38l-38 -74q-72 31 -119 31
q-32 0 -50.5 -12.5t-18.5 -31.5q0 -26 21.5 -39.5t85.5 -35.5q34 -12 50.5 -18.5t41.5 -21.5t36 -35.5t11 -48.5q0 -35 -19.5 -62.5t-63.5 -57.5zM178 331q0 -24 21.5 -37.5t75.5 -31.5l40 -14q46 35 46 69q0 24 -23 38.5t-75 30.5q-24 8 -37 13q-48 -34 -48 -68z" />
    <glyph glyph-name="dieresis" unicode="&#xa8;" horiz-adv-x="398" 
d="M104 520q-26 0 -45 18t-19 43q0 26 19 44.5t45 18.5t45 -18.5t19 -44.5q0 -25 -19 -43t-45 -18zM294 520q-26 0 -45 18t-19 43q0 26 19 44.5t45 18.5t45 -18.5t19 -44.5q0 -25 -19 -43t-45 -18z" />
    <glyph glyph-name="copyright" unicode="&#xa9;" horiz-adv-x="757" 
d="M380 -12q-141 0 -239.5 97t-98.5 238t98.5 239t239.5 98q140 0 238 -98t98 -239t-97.5 -238t-238.5 -97zM380 54q111 0 187 78.5t76 190.5q0 113 -76 192t-187 79q-112 0 -188.5 -79t-76.5 -192q0 -112 76.5 -190.5t188.5 -78.5zM386 129q-93 0 -141 55.5t-48 141.5
q0 98 56.5 146t134.5 48q64 0 124 -36l-38 -62q-47 23 -84 23q-53 0 -75.5 -35t-22.5 -83q0 -122 97 -122q44 0 91 25l34 -65q-63 -36 -128 -36z" />
    <glyph glyph-name="ordfeminine" unicode="&#xaa;" horiz-adv-x="402" 
d="M217 661q141 0 141 -122v-257h-82l-8 29q-57 -40 -128 -40q-51 0 -82.5 28.5t-31.5 75.5q0 65 66 100t170 38v16q0 31 -13 45t-46 14q-56 0 -123 -43l-40 59q86 57 177 57zM126 383q0 -36 47 -36q45 0 89 26v75q-136 -8 -136 -65z" />
    <glyph glyph-name="guillemotleft" unicode="&#xab;" horiz-adv-x="520" 
d="M197 60l-151 163v91l151 162l57 -42l-111 -166l111 -165zM397 60l-151 163v91l151 162l57 -42l-111 -166l111 -165z" />
    <glyph glyph-name="logicalnot" unicode="&#xac;" horiz-adv-x="540" 
d="M374 119v154h-308v91h408v-245h-100z" />
    <glyph glyph-name="uni00AD" unicode="&#xad;" horiz-adv-x="380" 
d="M47 220v96h286v-96h-286z" />
    <glyph glyph-name="registered" unicode="&#xae;" horiz-adv-x="549" 
d="M275 661q97 0 164.5 -68t67.5 -165q0 -98 -67.5 -164.5t-164.5 -66.5t-165 66.5t-68 164.5q0 97 68 165t165 68zM275 249q74 0 124 52t50 127q0 76 -50 128t-124 52q-75 0 -125.5 -52.5t-50.5 -127.5t50.5 -127t125.5 -52zM380 470q0 -54 -47 -74l54 -91h-74l-45 82h-21
v-82h-67v251h94q52 0 79 -24.5t27 -61.5zM247 499v-65h23q42 0 42 33q0 12 -8 22t-26 10h-31z" />
    <glyph glyph-name="macron" unicode="&#xaf;" horiz-adv-x="353" 
d="M40 536v82h273v-82h-273z" />
    <glyph glyph-name="degree" unicode="&#xb0;" horiz-adv-x="427" 
d="M215 326q-75 0 -124 44t-49 123t49.5 122.5t124.5 43.5q77 0 125.5 -44t48.5 -123q0 -80 -49 -123t-126 -43zM215 406q79 0 79 86q0 87 -78 87q-77 0 -77 -86q0 -87 76 -87z" />
    <glyph glyph-name="plusminus" unicode="&#xb1;" horiz-adv-x="540" 
d="M220 133v126h-154v92h154v126h100v-126h154v-92h-154v-126h-100zM66 0v92h408v-92h-408z" />
    <glyph glyph-name="uni00B2" unicode="&#xb2;" horiz-adv-x="360" 
d="M326 583q0 -41 -30.5 -87.5t-116.5 -128.5h144v-79h-288v45q116 113 152 158.5t36 74.5q0 47 -53 47q-39 0 -85 -35l-50 59q64 59 149 59q63 0 102.5 -28.5t39.5 -84.5z" />
    <glyph glyph-name="uni00B3" unicode="&#xb3;" horiz-adv-x="359" 
d="M249 507q80 -25 80 -99q0 -56 -40.5 -92.5t-128.5 -36.5q-77 0 -129 26l33 70q39 -17 90 -17q76 0 76 49q0 25 -19.5 38t-72.5 13h-31l6 70h55q54 21 54 56q0 15 -13 25.5t-39 10.5q-46 0 -90 -32l-50 54q63 54 145 54q70 0 107.5 -28t37.5 -74q0 -57 -71 -87z" />
    <glyph glyph-name="acute" unicode="&#xb4;" horiz-adv-x="304" 
d="M78 489l-38 50l166 131l58 -87z" />
    <glyph glyph-name="uni00B5" unicode="&#xb5;" horiz-adv-x="529" 
d="M355 442l108 11v-453h-94l-7 34q-67 -42 -130 -42q-40 0 -69 18q11 -42 11 -84v-112h-108v628l108 11v-295q0 -45 16 -64t57 -19q44 0 108 34v333z" />
    <glyph glyph-name="paragraph" unicode="&#xb6;" horiz-adv-x="600" 
d="M470 -196q-117 8 -167.5 50t-50.5 131v272q-96 1 -145 57t-49 154q0 97 53.5 151t154.5 54h265v-673h-90v591h-96v-595q0 -54 24.5 -76.5t109.5 -31.5z" />
    <glyph glyph-name="periodcentered" unicode="&#xb7;" horiz-adv-x="196" 
d="M98 209q-29 0 -50 20.5t-21 49.5t21 49.5t50 20.5t50 -20.5t21 -49.5t-21 -49.5t-50 -20.5z" />
    <glyph glyph-name="cedilla" unicode="&#xb8;" horiz-adv-x="310" 
d="M145 -228q-57 0 -105 24l24 62q39 -16 69 -16q42 0 42 31q0 19 -20 25.5t-71 8.5l13 103h77v-52q96 -9 96 -89q0 -48 -33.5 -72.5t-91.5 -24.5z" />
    <glyph glyph-name="uni00B9" unicode="&#xb9;" horiz-adv-x="359" 
d="M150 688h97v-400h-97v300l-80 -31l-38 55z" />
    <glyph glyph-name="ordmasculine" unicode="&#xba;" horiz-adv-x="436" 
d="M211 271q-89 0 -136.5 55.5t-47.5 140.5q0 99 56 146.5t142 47.5q89 0 137 -55t48 -140q0 -99 -56.5 -147t-142.5 -48zM218 347q89 0 89 120q0 54 -21.5 86t-65.5 32q-90 0 -90 -118q0 -55 22 -87.5t66 -32.5z" />
    <glyph glyph-name="guillemotright" unicode="&#xbb;" horiz-adv-x="520" 
d="M123 60l-57 43l111 165l-111 166l57 42l151 -162v-91zM323 60l-57 43l111 165l-111 166l57 42l151 -162v-91z" />
    <glyph glyph-name="onequarter" unicode="&#xbc;" horiz-adv-x="865" 
d="M656 740l76 -40l-474 -791l-76 41zM247 217h-97v300l-80 -31l-38 55l118 76h97v-400zM854 163v-77h-50v-86h-97v86h-192v43l117 271h108l-112 -237h79l19 90h78v-90h50z" />
    <glyph glyph-name="onehalf" unicode="&#xbd;" horiz-adv-x="905" 
d="M656 740l76 -40l-474 -791l-76 41zM247 217h-97v300l-80 -31l-38 55l118 76h97v-400zM871 295q0 -41 -30.5 -87.5t-116.5 -128.5h144v-79h-288v45q116 113 152 158.5t36 74.5q0 47 -53 47q-39 0 -85 -35l-50 59q64 59 149 59q63 0 102.5 -28.5t39.5 -84.5z" />
    <glyph glyph-name="threequarters" unicode="&#xbe;" horiz-adv-x="885" 
d="M676 740l76 -40l-474 -791l-76 41zM329 337q0 -56 -40.5 -92.5t-128.5 -36.5q-77 0 -129 26l33 70q39 -17 90 -17q76 0 76 49q0 25 -19.5 38t-72.5 13h-31l6 70h55q54 21 54 56q0 15 -13 25.5t-39 10.5q-46 0 -90 -32l-50 54q63 54 145 54q70 0 107.5 -28t37.5 -74
q0 -57 -71 -87q80 -25 80 -99zM874 163v-77h-50v-86h-97v86h-192v43l117 271h108l-112 -237h79l19 90h78v-90h50z" />
    <glyph glyph-name="questiondown" unicode="&#xbf;" horiz-adv-x="463" 
d="M248 316q-28 0 -49.5 21t-21.5 49q0 29 21 50t50 21t50.5 -21t21.5 -50q0 -28 -21.5 -49t-50.5 -21zM230 -215q-88 0 -143 42t-55 120q0 47 18.5 80t64.5 66q45 33 62 61.5t17 69.5v12l107 10v-38q0 -50 -20 -87.5t-71 -77.5q-34 -27 -47 -46.5t-13 -41.5
q0 -35 23.5 -54.5t68.5 -19.5q70 0 144 65l62 -70q-42 -42 -99.5 -66.5t-118.5 -24.5z" />
    <glyph glyph-name="Agrave" unicode="&#xc0;" horiz-adv-x="648" 
d="M416 744l-38 -50l-187 94l59 87zM394 648l239 -641v-7h-120l-61 172h-260l-60 -172h-117v7l238 641h141zM224 264h195l-98 278z" />
    <glyph glyph-name="Aacute" unicode="&#xc1;" horiz-adv-x="648" 
d="M458 788l-186 -94l-38 50l166 131zM394 648l239 -641v-7h-120l-61 172h-260l-60 -172h-117v7l238 641h141zM224 264h195l-98 278z" />
    <glyph glyph-name="Acircumflex" unicode="&#xc2;" horiz-adv-x="648" 
d="M326 759l-104 -68l-45 43l104 107h88l104 -107l-44 -44zM394 648l239 -641v-7h-120l-61 172h-260l-60 -172h-117v7l238 641h141zM224 264h195l-98 278z" />
    <glyph glyph-name="Atilde" unicode="&#xc3;" horiz-adv-x="648" 
d="M263 753q-27 0 -50 -44l-57 22q42 108 117 108q36 0 70 -24.5t45 -24.5q27 0 50 43l57 -21q-40 -109 -118 -109q-36 0 -69.5 25t-44.5 25zM394 648l239 -641v-7h-120l-61 172h-260l-60 -172h-117v7l238 641h141zM224 264h195l-98 278z" />
    <glyph glyph-name="Adieresis" unicode="&#xc4;" horiz-adv-x="648" 
d="M230 713q-26 0 -45 18.5t-19 43.5t19 43.5t45 18.5t45 -18.5t19 -43.5t-19 -43.5t-45 -18.5zM420 713q-26 0 -45 18.5t-19 43.5t19 43.5t45 18.5t45 -18.5t19 -43.5t-19 -43.5t-45 -18.5zM394 648l239 -641v-7h-120l-61 172h-260l-60 -172h-117v7l238 641h141zM224 264
h195l-98 278z" />
    <glyph glyph-name="Aring" unicode="&#xc5;" horiz-adv-x="648" 
d="M325 680q-53 0 -87.5 28t-34.5 82q0 56 34 84.5t88 28.5t88.5 -28.5t34.5 -84.5q0 -54 -35 -82t-88 -28zM325 838q-47 0 -47 -48q0 -46 47 -46q48 0 48 46q0 48 -48 48zM394 648l239 -641v-7h-120l-61 172h-260l-60 -172h-117v7l238 641h141zM224 264h195l-98 278z" />
    <glyph glyph-name="AE" unicode="&#xc6;" horiz-adv-x="899" 
d="M606 95h269v-95h-362l-48 172h-261l-73 -172h-116v7l284 641h514v-94h-345l53 -178h263l-13 -92h-222zM244 264h196l-78 278z" />
    <glyph glyph-name="Ccedilla" unicode="&#xc7;" horiz-adv-x="575" 
d="M372 -42q96 -9 96 -89q0 -48 -33.5 -72.5t-91.5 -24.5q-57 0 -105 24l24 62q39 -16 69 -16q42 0 42 31q0 19 -20 25.5t-71 8.5l11 83q-128 16 -189.5 103t-61.5 228q0 91 25 159t68.5 106t95.5 56.5t113 18.5q115 0 213 -59l-46 -85q-78 47 -161 47q-188 0 -188 -237
q0 -115 50 -178.5t144 -63.5q80 0 161 48l45 -82q-98 -58 -190 -63v-30z" />
    <glyph glyph-name="Egrave" unicode="&#xc8;" horiz-adv-x="546" 
d="M384 744l-38 -50l-187 94l59 87zM191 95h309v-95h-423v648h418v-94h-304v-178h264l-13 -92h-251v-189z" />
    <glyph glyph-name="Eacute" unicode="&#xc9;" horiz-adv-x="546" 
d="M426 788l-186 -94l-38 50l166 131zM191 95h309v-95h-423v648h418v-94h-304v-178h264l-13 -92h-251v-189z" />
    <glyph glyph-name="Ecircumflex" unicode="&#xca;" horiz-adv-x="546" 
d="M294 759l-104 -68l-45 43l104 107h88l104 -107l-44 -44zM191 95h309v-95h-423v648h418v-94h-304v-178h264l-13 -92h-251v-189z" />
    <glyph glyph-name="Edieresis" unicode="&#xcb;" horiz-adv-x="546" 
d="M198 713q-26 0 -45 18.5t-19 43.5t19 43.5t45 18.5t45 -18.5t19 -43.5t-19 -43.5t-45 -18.5zM388 713q-26 0 -45 18.5t-19 43.5t19 43.5t45 18.5t45 -18.5t19 -43.5t-19 -43.5t-45 -18.5zM191 95h309v-95h-423v648h418v-94h-304v-178h264l-13 -92h-251v-189z" />
    <glyph glyph-name="Igrave" unicode="&#xcc;" horiz-adv-x="269" 
d="M187 694l-187 94l59 87l166 -131zM77 0v648h114v-648h-114z" />
    <glyph glyph-name="Iacute" unicode="&#xcd;" horiz-adv-x="269" 
d="M81 694l-38 50l166 131l58 -87zM77 0v648h114v-648h-114z" />
    <glyph glyph-name="Icircumflex" unicode="&#xce;" horiz-adv-x="269" 
d="M31 691l-45 43l104 107h88l104 -107l-44 -44l-103 69zM77 0v648h114v-648h-114z" />
    <glyph glyph-name="Idieresis" unicode="&#xcf;" horiz-adv-x="269" 
d="M39 713q-26 0 -45 18.5t-19 43.5t19 43.5t45 18.5t45 -18.5t19 -43.5t-19 -43.5t-45 -18.5zM229 713q-26 0 -45 18.5t-19 43.5t19 43.5t45 18.5t45 -18.5t19 -43.5t-19 -43.5t-45 -18.5zM77 0v648h114v-648h-114z" />
    <glyph glyph-name="Eth" unicode="&#xd0;" horiz-adv-x="669" 
d="M281 648q167 0 257 -75.5t90 -248.5q0 -161 -99.5 -242.5t-258.5 -81.5h-193v282h-49v85h49v281h204zM253 97q129 0 191 48t62 179q0 120 -54.5 173.5t-168.5 53.5h-92v-184h157v-85h-157v-185h62z" />
    <glyph glyph-name="Ntilde" unicode="&#xd1;" horiz-adv-x="705" 
d="M290 753q-27 0 -50 -44l-57 22q42 108 117 108q36 0 70 -24.5t45 -24.5q27 0 50 43l57 -21q-40 -109 -118 -109q-36 0 -69.5 25t-44.5 25zM518 648h110v-648h-125l-249 368q-52 77 -66 110v-478h-111v648h122l261 -386q45 -68 58 -95v481z" />
    <glyph glyph-name="Ograve" unicode="&#xd2;" horiz-adv-x="712" 
d="M409 694l-187 94l59 87l166 -131zM353 -13q-150 0 -230.5 92.5t-80.5 246.5q0 166 91 250.5t227 84.5q150 0 230 -92.5t80 -246.5q0 -166 -90.5 -250.5t-226.5 -84.5zM353 82q98 0 148.5 64.5t50.5 174.5q0 113 -48.5 179t-143.5 66q-98 0 -149 -64.5t-51 -174.5
q0 -113 49 -179t144 -66z" />
    <glyph glyph-name="Oacute" unicode="&#xd3;" horiz-adv-x="712" 
d="M303 694l-38 50l166 131l58 -87zM353 -13q-150 0 -230.5 92.5t-80.5 246.5q0 166 91 250.5t227 84.5q150 0 230 -92.5t80 -246.5q0 -166 -90.5 -250.5t-226.5 -84.5zM353 82q98 0 148.5 64.5t50.5 174.5q0 113 -48.5 179t-143.5 66q-98 0 -149 -64.5t-51 -174.5
q0 -113 49 -179t144 -66z" />
    <glyph glyph-name="Ocircumflex" unicode="&#xd4;" horiz-adv-x="712" 
d="M253 691l-45 43l104 107h88l104 -107l-44 -44l-103 69zM353 -13q-150 0 -230.5 92.5t-80.5 246.5q0 166 91 250.5t227 84.5q150 0 230 -92.5t80 -246.5q0 -166 -90.5 -250.5t-226.5 -84.5zM353 82q98 0 148.5 64.5t50.5 174.5q0 113 -48.5 179t-143.5 66
q-98 0 -149 -64.5t-51 -174.5q0 -113 49 -179t144 -66z" />
    <glyph glyph-name="Otilde" unicode="&#xd5;" horiz-adv-x="712" 
d="M408 703q-36 0 -69.5 25t-44.5 25q-27 0 -50 -44l-57 22q42 108 117 108q36 0 70 -24.5t45 -24.5q27 0 50 43l57 -21q-40 -109 -118 -109zM353 -13q-150 0 -230.5 92.5t-80.5 246.5q0 166 91 250.5t227 84.5q150 0 230 -92.5t80 -246.5q0 -166 -90.5 -250.5t-226.5 -84.5
zM353 82q98 0 148.5 64.5t50.5 174.5q0 113 -48.5 179t-143.5 66q-98 0 -149 -64.5t-51 -174.5q0 -113 49 -179t144 -66z" />
    <glyph glyph-name="Odieresis" unicode="&#xd6;" horiz-adv-x="712" 
d="M261 713q-26 0 -45 18.5t-19 43.5t19 43.5t45 18.5t45 -18.5t19 -43.5t-19 -43.5t-45 -18.5zM451 713q-26 0 -45 18.5t-19 43.5t19 43.5t45 18.5t45 -18.5t19 -43.5t-19 -43.5t-45 -18.5zM353 -13q-150 0 -230.5 92.5t-80.5 246.5q0 166 91 250.5t227 84.5
q150 0 230 -92.5t80 -246.5q0 -166 -90.5 -250.5t-226.5 -84.5zM353 82q98 0 148.5 64.5t50.5 174.5q0 113 -48.5 179t-143.5 66q-98 0 -149 -64.5t-51 -174.5q0 -113 49 -179t144 -66z" />
    <glyph glyph-name="multiply" unicode="&#xd7;" horiz-adv-x="540" 
d="M467 387l-132 -132l132 -132l-65 -65l-132 132l-132 -132l-65 65l132 132l-132 132l65 65l132 -132l132 132z" />
    <glyph glyph-name="Oslash" unicode="&#xd8;" horiz-adv-x="712" 
d="M578 581q92 -92 92 -259q0 -166 -90.5 -250.5t-226.5 -84.5q-81 0 -144 29l-41 -62l-78 46l44 68q-92 90 -92 258q0 166 91 250.5t227 84.5q82 0 145 -29l41 62l77 -46zM360 566q-98 0 -149 -64.5t-51 -174.5q0 -106 42 -169l252 386q-41 22 -94 22zM353 82
q98 0 148.5 64.5t50.5 174.5q0 106 -42 169l-251 -386q41 -22 94 -22z" />
    <glyph glyph-name="Ugrave" unicode="&#xd9;" horiz-adv-x="680" 
d="M393 694l-187 94l59 87l166 -131zM336 -13q-138 0 -206 76t-68 198v387h114v-368q0 -196 167 -196q161 0 161 188v376h114v-384q0 -142 -77.5 -209.5t-204.5 -67.5z" />
    <glyph glyph-name="Uacute" unicode="&#xda;" horiz-adv-x="680" 
d="M287 694l-38 50l166 131l58 -87zM336 -13q-138 0 -206 76t-68 198v387h114v-368q0 -196 167 -196q161 0 161 188v376h114v-384q0 -142 -77.5 -209.5t-204.5 -67.5z" />
    <glyph glyph-name="Ucircumflex" unicode="&#xdb;" horiz-adv-x="680" 
d="M237 691l-45 43l104 107h88l104 -107l-44 -44l-103 69zM336 -13q-138 0 -206 76t-68 198v387h114v-368q0 -196 167 -196q161 0 161 188v376h114v-384q0 -142 -77.5 -209.5t-204.5 -67.5z" />
    <glyph glyph-name="Udieresis" unicode="&#xdc;" horiz-adv-x="680" 
d="M245 713q-26 0 -45 18.5t-19 43.5t19 43.5t45 18.5t45 -18.5t19 -43.5t-19 -43.5t-45 -18.5zM435 713q-26 0 -45 18.5t-19 43.5t19 43.5t45 18.5t45 -18.5t19 -43.5t-19 -43.5t-45 -18.5zM336 -13q-138 0 -206 76t-68 198v387h114v-368q0 -196 167 -196q161 0 161 188
v376h114v-384q0 -142 -77.5 -209.5t-204.5 -67.5z" />
    <glyph glyph-name="Yacute" unicode="&#xdd;" horiz-adv-x="615" 
d="M441 788l-186 -94l-38 50l166 131zM600 648v-7l-238 -381v-260h-114v261l-233 380v7h127l165 -284l172 284h121z" />
    <glyph glyph-name="Thorn" unicode="&#xde;" horiz-adv-x="582" 
d="M298 538q120 0 183 -55.5t63 -146.5q0 -95 -65 -156t-187 -61h-101v-119h-114v648h114v-110h107zM282 213q144 0 144 119q0 112 -130 112h-105v-231h91z" />
    <glyph glyph-name="germandbls" unicode="&#xdf;" horiz-adv-x="548" 
d="M338 386q101 -46 138.5 -102t37.5 -125q0 -84 -48.5 -128t-130.5 -44q-69 0 -123 29l33 76q38 -19 80 -19q78 0 78 85q0 61 -37.5 106t-128.5 75v47q90 86 90 157q0 70 -73 70q-35 0 -57.5 -18.5t-22.5 -57.5v-537h-108v520q0 87 55 131t136 44q83 0 131.5 -37.5
t48.5 -107.5q0 -76 -99 -164z" />
    <glyph glyph-name="agrave" unicode="&#xe0;" horiz-adv-x="480" 
d="M327 539l-38 -50l-186 94l58 87zM255 457q82 0 123 -35t41 -112v-310h-94l-8 37q-68 -50 -155 -50q-61 0 -98 33t-37 88q0 54 40 91.5t102 54.5t142 19v17q0 43 -16 62t-56 19q-69 0 -148 -51l-44 69q98 68 208 68zM140 120q0 -49 57 -49q56 0 114 34v96
q-80 -4 -125.5 -24.5t-45.5 -56.5z" />
    <glyph glyph-name="aacute" unicode="&#xe1;" horiz-adv-x="480" 
d="M370 583l-186 -94l-38 50l166 131zM255 457q82 0 123 -35t41 -112v-310h-94l-8 37q-68 -50 -155 -50q-61 0 -98 33t-37 88q0 54 40 91.5t102 54.5t142 19v17q0 43 -16 62t-56 19q-69 0 -148 -51l-44 69q98 68 208 68zM140 120q0 -49 57 -49q56 0 114 34v96
q-80 -4 -125.5 -24.5t-45.5 -56.5z" />
    <glyph glyph-name="acircumflex" unicode="&#xe2;" horiz-adv-x="480" 
d="M238 567l-104 -68l-45 43l104 107h88l104 -107l-44 -44zM255 457q82 0 123 -35t41 -112v-310h-94l-8 37q-68 -50 -155 -50q-61 0 -98 33t-37 88q0 54 40 91.5t102 54.5t142 19v17q0 43 -16 62t-56 19q-69 0 -148 -51l-44 69q98 68 208 68zM140 120q0 -49 57 -49
q56 0 114 34v96q-80 -4 -125.5 -24.5t-45.5 -56.5z" />
    <glyph glyph-name="atilde" unicode="&#xe3;" horiz-adv-x="480" 
d="M177 557q-27 0 -50 -44l-57 22q42 108 117 108q36 0 70 -24.5t45 -24.5q27 0 50 43l57 -21q-40 -109 -118 -109q-36 0 -69.5 25t-44.5 25zM255 457q82 0 123 -35t41 -112v-310h-94l-8 37q-68 -50 -155 -50q-61 0 -98 33t-37 88q0 54 40 91.5t102 54.5t142 19v17
q0 43 -16 62t-56 19q-69 0 -148 -51l-44 69q98 68 208 68zM140 120q0 -49 57 -49q56 0 114 34v96q-80 -4 -125.5 -24.5t-45.5 -56.5z" />
    <glyph glyph-name="adieresis" unicode="&#xe4;" horiz-adv-x="480" 
d="M142 520q-26 0 -45 18t-19 43q0 26 19 44.5t45 18.5t45 -18.5t19 -44.5q0 -25 -19 -43t-45 -18zM332 520q-26 0 -45 18t-19 43q0 26 19 44.5t45 18.5t45 -18.5t19 -44.5q0 -25 -19 -43t-45 -18zM255 457q82 0 123 -35t41 -112v-310h-94l-8 37q-68 -50 -155 -50
q-61 0 -98 33t-37 88q0 54 40 91.5t102 54.5t142 19v17q0 43 -16 62t-56 19q-69 0 -148 -51l-44 69q98 68 208 68zM140 120q0 -49 57 -49q56 0 114 34v96q-80 -4 -125.5 -24.5t-45.5 -56.5z" />
    <glyph glyph-name="aring" unicode="&#xe5;" horiz-adv-x="480" 
d="M237 489q-53 0 -87.5 28.5t-34.5 82.5q0 55 34.5 83.5t87.5 28.5q54 0 88.5 -28.5t34.5 -83.5q0 -54 -34.5 -82.5t-88.5 -28.5zM237 647q-47 0 -47 -47t47 -47q48 0 48 47t-48 47zM255 457q82 0 123 -35t41 -112v-310h-94l-8 37q-68 -50 -155 -50q-61 0 -98 33t-37 88
q0 54 40 91.5t102 54.5t142 19v17q0 43 -16 62t-56 19q-69 0 -148 -51l-44 69q98 68 208 68zM140 120q0 -49 57 -49q56 0 114 34v96q-80 -4 -125.5 -24.5t-45.5 -56.5z" />
    <glyph glyph-name="ae" unicode="&#xe6;" horiz-adv-x="720" 
d="M687 267q0 -32 -3 -65h-288q4 -69 36 -99.5t81 -30.5q59 0 126 40l38 -70q-77 -55 -172 -55q-108 0 -160 68q-85 -68 -186 -68q-59 0 -95.5 33.5t-36.5 87.5q0 80 77 121t198 44v17q0 43 -15.5 62t-54.5 19q-66 0 -144 -53l-42 71q96 68 197 68q92 0 122 -63
q48 63 137 63q88 0 136.5 -53t48.5 -137zM501 379q-85 0 -101 -106h185q0 106 -84 106zM195 71q60 0 121 43q-13 39 -14 87q-78 -3 -121 -24t-43 -57q0 -49 57 -49z" />
    <glyph glyph-name="ccedilla" unicode="&#xe7;" horiz-adv-x="430" 
d="M267 -42q96 -9 96 -89q0 -48 -33.5 -72.5t-91.5 -24.5q-57 0 -105 24l24 62q39 -16 69 -16q42 0 42 31q0 19 -20 25.5t-71 8.5l11 86q-154 30 -154 218q0 123 68 184.5t160 61.5q69 0 145 -40l-39 -76q-61 29 -106 29q-54 0 -85 -41t-31 -117q0 -136 115 -136
q50 0 115 38l40 -73q-75 -48 -149 -53v-30z" />
    <glyph glyph-name="egrave" unicode="&#xe8;" horiz-adv-x="476" 
d="M341 539l-38 -50l-186 94l58 87zM443 267q0 -31 -3 -67h-298q4 -66 37.5 -97t83.5 -31q61 0 131 40l38 -70q-79 -55 -177 -55q-99 0 -160 55t-61 174q0 108 56.5 174.5t160.5 66.5q92 0 142 -53t50 -137zM252 379q-87 0 -105 -104h192v3q0 101 -87 101z" />
    <glyph glyph-name="eacute" unicode="&#xe9;" horiz-adv-x="476" 
d="M384 583l-186 -94l-38 50l166 131zM443 267q0 -31 -3 -67h-298q4 -66 37.5 -97t83.5 -31q61 0 131 40l38 -70q-79 -55 -177 -55q-99 0 -160 55t-61 174q0 108 56.5 174.5t160.5 66.5q92 0 142 -53t50 -137zM252 379q-87 0 -105 -104h192v3q0 101 -87 101z" />
    <glyph glyph-name="ecircumflex" unicode="&#xea;" horiz-adv-x="476" 
d="M252 567l-104 -68l-45 43l104 107h88l104 -107l-44 -44zM443 267q0 -31 -3 -67h-298q4 -66 37.5 -97t83.5 -31q61 0 131 40l38 -70q-79 -55 -177 -55q-99 0 -160 55t-61 174q0 108 56.5 174.5t160.5 66.5q92 0 142 -53t50 -137zM252 379q-87 0 -105 -104h192v3
q0 101 -87 101z" />
    <glyph glyph-name="edieresis" unicode="&#xeb;" horiz-adv-x="476" 
d="M156 520q-26 0 -45 18t-19 43q0 26 19 44.5t45 18.5t45 -18.5t19 -44.5q0 -25 -19 -43t-45 -18zM346 520q-26 0 -45 18t-19 43q0 26 19 44.5t45 18.5t45 -18.5t19 -44.5q0 -25 -19 -43t-45 -18zM443 267q0 -31 -3 -67h-298q4 -66 37.5 -97t83.5 -31q61 0 131 40l38 -70
q-79 -55 -177 -55q-99 0 -160 55t-61 174q0 108 56.5 174.5t160.5 66.5q92 0 142 -53t50 -137zM252 379q-87 0 -105 -104h192v3q0 101 -87 101z" />
    <glyph glyph-name="igrave" unicode="&#xec;" horiz-adv-x="239" 
d="M171 489l-186 94l58 87l166 -131zM66 0v442l108 11v-453h-108z" />
    <glyph glyph-name="iacute" unicode="&#xed;" horiz-adv-x="239" 
d="M66 489l-38 50l166 131l58 -87zM66 0v442l108 11v-453h-108z" />
    <glyph glyph-name="icircumflex" unicode="&#xee;" horiz-adv-x="239" 
d="M16 499l-45 43l104 107h88l104 -107l-44 -44l-103 69zM66 0v442l108 11v-453h-108z" />
    <glyph glyph-name="idieresis" unicode="&#xef;" horiz-adv-x="239" 
d="M39 520q-25 0 -43.5 17.5t-18.5 43.5t18.5 44t43.5 18q26 0 44.5 -18t18.5 -44t-18.5 -43.5t-44.5 -17.5zM198 520q-25 0 -43.5 17.5t-18.5 43.5t18.5 44t43.5 18t44 -18t19 -44t-19 -43.5t-44 -17.5zM66 0v442l108 11v-453h-108z" />
    <glyph glyph-name="eth" unicode="&#xf0;" horiz-adv-x="525" 
d="M353 597q135 -114 135 -342q0 -126 -61 -197t-167 -71q-99 0 -162.5 53t-63.5 164q0 104 56.5 158t140.5 54q74 0 136 -38q-20 94 -81 158l-69 -64l-57 50l64 60q-24 11 -114 42l37 77q96 -31 143 -59l63 59l57 -51zM256 76q122 0 122 181q0 24 -1 35q-62 39 -115 39
q-65 0 -92 -33.5t-27 -97.5q0 -58 29 -91t84 -33z" />
    <glyph glyph-name="ntilde" unicode="&#xf1;" horiz-adv-x="527" 
d="M210 557q-27 0 -50 -44l-57 22q42 108 117 108q36 0 70 -24.5t45 -24.5q27 0 50 43l57 -21q-40 -109 -118 -109q-36 0 -69.5 25t-44.5 25zM330 457q136 0 136 -138v-319h-108v284q0 49 -15.5 67.5t-55.5 18.5q-51 0 -113 -31v-339h-108v442l108 11v-43q81 47 156 47z" />
    <glyph glyph-name="ograve" unicode="&#xf2;" horiz-adv-x="522" 
d="M314 489l-186 94l58 87l166 -131zM253 -13q-107 0 -163 66.5t-56 169.5q0 121 66 177.5t169 56.5q108 0 164 -65t56 -170q0 -120 -66 -177.5t-170 -57.5zM261 71q115 0 115 152q0 150 -112 150q-118 0 -118 -150q0 -70 28.5 -111t86.5 -41z" />
    <glyph glyph-name="oacute" unicode="&#xf3;" horiz-adv-x="522" 
d="M209 489l-38 50l166 131l58 -87zM253 -13q-107 0 -163 66.5t-56 169.5q0 121 66 177.5t169 56.5q108 0 164 -65t56 -170q0 -120 -66 -177.5t-170 -57.5zM261 71q115 0 115 152q0 150 -112 150q-118 0 -118 -150q0 -70 28.5 -111t86.5 -41z" />
    <glyph glyph-name="ocircumflex" unicode="&#xf4;" horiz-adv-x="522" 
d="M159 499l-45 43l104 107h88l104 -107l-44 -44l-103 69zM253 -13q-107 0 -163 66.5t-56 169.5q0 121 66 177.5t169 56.5q108 0 164 -65t56 -170q0 -120 -66 -177.5t-170 -57.5zM261 71q115 0 115 152q0 150 -112 150q-118 0 -118 -150q0 -70 28.5 -111t86.5 -41z" />
    <glyph glyph-name="otilde" unicode="&#xf5;" horiz-adv-x="522" 
d="M316 507q-36 0 -69.5 25t-44.5 25q-27 0 -50 -44l-57 22q42 108 117 108q36 0 70 -24.5t45 -24.5q27 0 50 43l57 -21q-40 -109 -118 -109zM253 -13q-107 0 -163 66.5t-56 169.5q0 121 66 177.5t169 56.5q108 0 164 -65t56 -170q0 -120 -66 -177.5t-170 -57.5zM261 71
q115 0 115 152q0 150 -112 150q-118 0 -118 -150q0 -70 28.5 -111t86.5 -41z" />
    <glyph glyph-name="odieresis" unicode="&#xf6;" horiz-adv-x="522" 
d="M167 520q-26 0 -45 18t-19 43q0 26 19 44.5t45 18.5t45 -18.5t19 -44.5q0 -25 -19 -43t-45 -18zM357 520q-26 0 -45 18t-19 43q0 26 19 44.5t45 18.5t45 -18.5t19 -44.5q0 -25 -19 -43t-45 -18zM253 -13q-107 0 -163 66.5t-56 169.5q0 121 66 177.5t169 56.5
q108 0 164 -65t56 -170q0 -120 -66 -177.5t-170 -57.5zM261 71q115 0 115 152q0 150 -112 150q-118 0 -118 -150q0 -70 28.5 -111t86.5 -41z" />
    <glyph glyph-name="divide" unicode="&#xf7;" horiz-adv-x="540" 
d="M270 367q-29 0 -50 20.5t-21 49.5t21 49.5t50 20.5t50 -20.5t21 -49.5t-21 -49.5t-50 -20.5zM66 209v92h408v-92h-408zM270 5q-29 0 -50 20.5t-21 49.5t21 49.5t50 20.5t50 -20.5t21 -49.5t-21 -49.5t-50 -20.5z" />
    <glyph glyph-name="oslash" unicode="&#xf8;" horiz-adv-x="522" 
d="M423 402q66 -63 66 -180q0 -120 -66 -177.5t-170 -57.5q-48 0 -90 16l-39 -59l-76 45l42 64q-56 65 -56 170q0 121 66 177.5t169 56.5q43 0 79 -11l33 51l75 -45zM264 381q-124 0 -124 -158q0 -49 14 -88l154 239q-23 7 -44 7zM261 63q121 0 121 160q0 64 -20 101
l-160 -247q25 -14 59 -14z" />
    <glyph glyph-name="ugrave" unicode="&#xf9;" horiz-adv-x="524" 
d="M351 539l-38 -50l-186 94l58 87zM350 442l108 11v-453h-94l-8 34q-78 -47 -157 -47q-63 0 -100.5 36t-37.5 103v316l108 11v-295q0 -45 16 -64t57 -19q44 0 108 34v333z" />
    <glyph glyph-name="uacute" unicode="&#xfa;" horiz-adv-x="524" 
d="M394 583l-186 -94l-38 50l166 131zM350 442l108 11v-453h-94l-8 34q-78 -47 -157 -47q-63 0 -100.5 36t-37.5 103v316l108 11v-295q0 -45 16 -64t57 -19q44 0 108 34v333z" />
    <glyph glyph-name="ucircumflex" unicode="&#xfb;" horiz-adv-x="524" 
d="M262 567l-104 -68l-45 43l104 107h88l104 -107l-44 -44zM350 442l108 11v-453h-94l-8 34q-78 -47 -157 -47q-63 0 -100.5 36t-37.5 103v316l108 11v-295q0 -45 16 -64t57 -19q44 0 108 34v333z" />
    <glyph glyph-name="udieresis" unicode="&#xfc;" horiz-adv-x="524" 
d="M166 520q-26 0 -45 18t-19 43q0 26 19 44.5t45 18.5t45 -18.5t19 -44.5q0 -25 -19 -43t-45 -18zM356 520q-26 0 -45 18t-19 43q0 26 19 44.5t45 18.5t45 -18.5t19 -44.5q0 -25 -19 -43t-45 -18zM350 442l108 11v-453h-94l-8 34q-78 -47 -157 -47q-63 0 -100.5 36
t-37.5 103v316l108 11v-295q0 -45 16 -64t57 -19q44 0 108 34v333z" />
    <glyph glyph-name="yacute" unicode="&#xfd;" horiz-adv-x="459" 
d="M364 583l-186 -94l-38 50l166 131zM342 443h111v-6l-153 -447q-35 -102 -81.5 -145.5t-122.5 -43.5q-45 0 -93 16l28 79q28 -9 56 -9q36 0 61 19t48 80l5 14h-29l-168 437v6h114l92 -263q16 -44 25 -80q16 58 23 80z" />
    <glyph glyph-name="thorn" unicode="&#xfe;" horiz-adv-x="527" 
d="M311 457q91 0 136.5 -61t45.5 -163q0 -121 -67 -183.5t-166 -62.5q-40 0 -86 12v-185h-108v874l108 11v-285q69 43 137 43zM246 69q61 0 97.5 41t36.5 122q0 73 -25.5 105.5t-77.5 32.5q-49 0 -103 -31v-260q38 -10 72 -10z" />
    <glyph glyph-name="ydieresis" unicode="&#xff;" horiz-adv-x="459" 
d="M136 520q-26 0 -45 18t-19 43q0 26 19 44.5t45 18.5t45 -18.5t19 -44.5q0 -25 -19 -43t-45 -18zM326 520q-26 0 -45 18t-19 43q0 26 19 44.5t45 18.5t45 -18.5t19 -44.5q0 -25 -19 -43t-45 -18zM342 443h111v-6l-153 -447q-35 -102 -81.5 -145.5t-122.5 -43.5
q-45 0 -93 16l28 79q28 -9 56 -9q36 0 61 19t48 80l5 14h-29l-168 437v6h114l92 -263q16 -44 25 -80q16 58 23 80z" />
    <glyph glyph-name="dotlessi" unicode="&#x131;" horiz-adv-x="239" 
d="M66 0v442l108 11v-453h-108z" />
    <glyph glyph-name="Lslash" unicode="&#x141;" horiz-adv-x="538" 
d="M214 99h308v-99h-422v192l-36 -26l-54 77l90 60v345h114v-252l115 83l55 -74l-170 -121v-185z" />
    <glyph glyph-name="lslash" unicode="&#x142;" horiz-adv-x="328" 
d="M318 407l-102 -70v-337h-108v251l-48 -34l-50 71l98 68v332l108 11v-259l52 36z" />
    <glyph glyph-name="OE" unicode="&#x152;" horiz-adv-x="919" 
d="M575 95h298v-95h-402q-46 -13 -115 -13q-155 0 -234.5 93.5t-79.5 245.5q0 87 26.5 153t72 105t102 58t122.5 19q62 0 110 -13h393v-94h-293v-178h253l-13 -92h-240v-189zM160 327q0 -115 49.5 -180t149.5 -65q57 0 105 12v459q-42 13 -105 13q-97 0 -148 -64t-51 -175z
" />
    <glyph glyph-name="oe" unicode="&#x153;" horiz-adv-x="783" 
d="M749 267q0 -32 -3 -65h-288q4 -69 36 -99.5t81 -30.5q58 0 127 40l37 -70q-77 -55 -172 -55q-110 0 -160 75q-54 -75 -163 -75q-101 0 -155.5 67t-54.5 169q0 121 63.5 177.5t158.5 56.5q106 0 158 -82q50 82 152 82q87 0 135 -53t48 -137zM564 379q-84 0 -102 -106h185
q0 106 -83 106zM251 71q111 0 111 152q0 150 -108 150t-108 -150q0 -70 26.5 -111t78.5 -41z" />
    <glyph glyph-name="Scaron" unicode="&#x160;" horiz-adv-x="556" 
d="M237 686l-104 108l45 42l104 -67l103 69l44 -44l-104 -108h-88zM268 -13q-144 0 -243 76l53 80q85 -60 184 -60q136 0 136 90q0 39 -28 61.5t-109 51.5l-19 7q-47 18 -75.5 32t-57.5 36t-42.5 53t-13.5 72q0 58 34.5 99t84.5 58.5t109 17.5q122 0 223 -68l-52 -80
q-87 54 -172 54q-51 0 -81 -19.5t-30 -57.5q0 -31 26.5 -52.5t99.5 -47.5l20 -7q39 -14 59.5 -22.5t52 -26.5t48 -37t29 -49.5t12.5 -68.5q0 -93 -67.5 -142.5t-180.5 -49.5z" />
    <glyph glyph-name="scaron" unicode="&#x161;" horiz-adv-x="428" 
d="M166 498l-104 107l45 43l104 -68l103 69l44 -44l-104 -107h-88zM216 -13q-115 0 -200 60l46 73q71 -51 151 -51t80 50q0 21 -19.5 36t-72.5 29l-30 8q-71 19 -103 50t-32 82q0 59 48.5 96t124.5 37q95 0 177 -48l-42 -72q-73 38 -133 38q-31 0 -48 -12t-17 -32
q0 -18 14.5 -28.5t55.5 -20.5l32 -8q81 -22 117.5 -56.5t36.5 -88.5q0 -63 -48 -102.5t-138 -39.5z" />
    <glyph glyph-name="Ydieresis" unicode="&#x178;" horiz-adv-x="615" 
d="M213 713q-26 0 -45 18.5t-19 43.5t19 43.5t45 18.5t45 -18.5t19 -43.5t-19 -43.5t-45 -18.5zM403 713q-26 0 -45 18.5t-19 43.5t19 43.5t45 18.5t45 -18.5t19 -43.5t-19 -43.5t-45 -18.5zM600 648v-7l-238 -381v-260h-114v261l-233 380v7h127l165 -284l172 284h121z" />
    <glyph glyph-name="Zcaron" unicode="&#x17d;" horiz-adv-x="567" 
d="M327 686h-88l-104 108l45 42l104 -67l103 69l44 -44zM525 648v-55l-338 -495h327v-98h-482v55l340 495h-320l12 98h461z" />
    <glyph glyph-name="zcaron" unicode="&#x17e;" horiz-adv-x="431" 
d="M263 498h-88l-104 107l45 43l104 -68l103 69l44 -44zM403 443v-47l-227 -305h226v-91h-380v49l230 303h-214l12 91h353z" />
    <glyph glyph-name="florin" unicode="&#x192;" horiz-adv-x="540" 
d="M387 604q-33 0 -51 -22t-18 -61v-80h130l-12 -85h-118v-401q0 -78 -39 -116t-105 -38t-117 24l27 76q41 -13 69 -13q57 0 57 72v396h-73v85h73v78q0 78 44 126.5t123 48.5q57 0 106 -18l-27 -85q-35 13 -69 13z" />
    <glyph glyph-name="circumflex" unicode="&#x2c6;" horiz-adv-x="376" 
d="M85 499l-45 43l104 107h88l104 -107l-44 -44l-103 69z" />
    <glyph glyph-name="caron" unicode="&#x2c7;" horiz-adv-x="376" 
d="M144 498l-104 107l45 43l104 -68l103 69l44 -44l-104 -107h-88z" />
    <glyph glyph-name="uni02C9" unicode="&#x2c9;" horiz-adv-x="353" 
d="M40 536v82h273v-82h-273z" />
    <glyph glyph-name="breve" unicode="&#x2d8;" horiz-adv-x="370" 
d="M185 497q-129 0 -145 132l74 7q7 -32 22.5 -46t48.5 -14t48.5 14t22.5 46l74 -7q-16 -132 -145 -132z" />
    <glyph glyph-name="dotaccent" unicode="&#x2d9;" horiz-adv-x="226" 
d="M113 523q-30 0 -51.5 21t-21.5 50t21.5 50.5t51.5 21.5t51.5 -21.5t21.5 -50.5t-21.5 -50t-51.5 -21z" />
    <glyph glyph-name="ring" unicode="&#x2da;" horiz-adv-x="325" 
d="M162 489q-53 0 -87.5 28.5t-34.5 82.5q0 55 34.5 83.5t87.5 28.5q54 0 88.5 -28.5t34.5 -83.5q0 -54 -34.5 -82.5t-88.5 -28.5zM162 553q48 0 48 47t-48 47q-47 0 -47 -47t47 -47z" />
    <glyph glyph-name="ogonek" unicode="&#x2db;" horiz-adv-x="293" 
d="M158 -225q-57 0 -87.5 25.5t-30.5 64.5q0 109 144 168l20 -33q-70 -62 -70 -111q0 -34 40 -34q27 0 58 11l21 -72q-49 -19 -95 -19z" />
    <glyph glyph-name="tilde" unicode="&#x2dc;" horiz-adv-x="419" 
d="M261 508q-36 0 -69.5 25t-44.5 25q-27 0 -50 -44l-57 22q42 108 117 108q36 0 70 -24.5t45 -24.5q27 0 50 43l57 -21q-40 -109 -118 -109z" />
    <glyph glyph-name="hungarumlaut" unicode="&#x2dd;" horiz-adv-x="379" 
d="M98 497l-58 21l55 161l90 -39zM242 489l-57 21l67 158l87 -39z" />
    <glyph glyph-name="gravecomb" unicode="&#x300;" 
d="M-78 489l-186 94l58 87l166 -131z" />
    <glyph glyph-name="acutecomb" unicode="&#x301;" 
d="M-226 489l-38 50l166 131l58 -87z" />
    <glyph glyph-name="uni0302" unicode="&#x302;" 
d="M-291 499l-45 43l104 107h88l104 -107l-44 -44l-103 69z" />
    <glyph glyph-name="tildecomb" unicode="&#x303;" 
d="M-158 508q-36 0 -69.5 25t-44.5 25q-27 0 -50 -44l-57 22q42 108 117 108q36 0 70 -24.5t45 -24.5q27 0 50 43l57 -21q-40 -109 -118 -109z" />
    <glyph glyph-name="uni0304" unicode="&#x304;" 
d="M-313 536v82h273v-82h-273z" />
    <glyph glyph-name="uni0306" unicode="&#x306;" 
d="M-185 497q-129 0 -145 132l74 7q7 -32 22.5 -46t48.5 -14t48.5 14t22.5 46l74 -7q-16 -132 -145 -132z" />
    <glyph glyph-name="uni0307" unicode="&#x307;" 
d="M-113 523q-30 0 -51.5 21t-21.5 50t21.5 50.5t51.5 21.5t51.5 -21.5t21.5 -50.5t-21.5 -50t-51.5 -21z" />
    <glyph glyph-name="uni0308" unicode="&#x308;" 
d="M-294 520q-26 0 -45 18t-19 43q0 26 19 44.5t45 18.5t45 -18.5t19 -44.5q0 -25 -19 -43t-45 -18zM-104 520q-26 0 -45 18t-19 43q0 26 19 44.5t45 18.5t45 -18.5t19 -44.5q0 -25 -19 -43t-45 -18z" />
    <glyph glyph-name="uni030A" unicode="&#x30a;" 
d="M-163 489q-53 0 -87.5 28.5t-34.5 82.5q0 55 34.5 83.5t87.5 28.5q54 0 88.5 -28.5t34.5 -83.5q0 -54 -34.5 -82.5t-88.5 -28.5zM-163 553q48 0 48 47t-48 47q-47 0 -47 -47t47 -47z" />
    <glyph glyph-name="uni030B" unicode="&#x30b;" 
d="M-281 497l-58 21l55 161l90 -39zM-137 489l-57 21l67 158l87 -39z" />
    <glyph glyph-name="uni030C" unicode="&#x30c;" 
d="M-232 498l-104 107l45 43l104 -68l103 69l44 -44l-104 -107h-88z" />
    <glyph glyph-name="uni0312" unicode="&#x312;" 
d="M-104 489q-29 0 -48 20.5t-19 55.5q0 81 73 164l51 -29q-36 -48 -36 -76q0 -16 11 -24q32 -23 32 -53q0 -24 -18 -41t-46 -17z" />
    <glyph glyph-name="uni0313" unicode="&#x313;" 
d="M-76 489l-51 29q36 48 36 76q0 16 -12 24q-10 8 -15 12.5t-10.5 15.5t-5.5 25q0 24 18 41t46 17t47.5 -20.5t19.5 -55.5q0 -79 -73 -164z" />
    <glyph glyph-name="uni0326" unicode="&#x326;" 
d="M-113 -279l-51 29q36 48 36 76q0 16 -12 24q-10 8 -15 12.5t-10.5 15.5t-5.5 25q0 24 18 41t46 17t47.5 -20.5t19.5 -55.5q0 -79 -73 -164z" />
    <glyph glyph-name="uni0327" unicode="&#x327;" 
d="M-165 -228q-57 0 -105 24l24 62q39 -16 69 -16q42 0 42 31q0 19 -20 25.5t-71 8.5l13 103h77v-52q96 -9 96 -89q0 -48 -33.5 -72.5t-91.5 -24.5z" />
    <glyph glyph-name="uni0328" unicode="&#x328;" 
d="M-135 -225q-57 0 -87.5 25.5t-30.5 64.5q0 109 144 168l20 -33q-70 -62 -70 -111q0 -34 40 -34q27 0 58 11l21 -72q-49 -19 -95 -19z" />
    <glyph glyph-name="uni0335" unicode="&#x335;" 
d="M-360 202v85h320v-85h-320z" />
    <glyph glyph-name="uni0336" unicode="&#x336;" 
d="M-657 202v85h617v-85h-617z" />
    <glyph glyph-name="uni0337" unicode="&#x337;" 
d="M-282 -73l-87 29l243 640l86 -28z" />
    <glyph glyph-name="uni0338" unicode="&#x338;" 
d="M-372 -54l-76 45l56 85l15 7l203 314l1 12l58 90l75 -45l-55 -84l-14 -5l-204 -315l1 -13z" />
    <glyph glyph-name="uni0394" unicode="&#x394;" horiz-adv-x="648" 
d="M394 648l239 -641v-7h-618v7l238 641h141zM164 93h316l-159 449z" />
    <glyph glyph-name="uni03A9" unicode="&#x3a9;" horiz-adv-x="731" 
d="M681 331q0 -169 -117 -239q62 5 112 5v-97h-231v84q118 56 118 246q0 105 -50.5 170.5t-148.5 65.5q-97 0 -146.5 -64.5t-49.5 -167.5q0 -189 119 -250v-84h-231v97q50 0 112 -5q-118 71 -118 241q0 82 26.5 146.5t71.5 103t101.5 58.5t120.5 20q145 0 228 -92t83 -238z
" />
    <glyph glyph-name="uni03BC" unicode="&#x3bc;" horiz-adv-x="529" 
d="M355 442l108 11v-453h-94l-7 34q-67 -42 -130 -42q-40 0 -69 18q11 -42 11 -84v-112h-108v628l108 11v-295q0 -45 16 -64t57 -19q44 0 108 34v333z" />
    <glyph glyph-name="pi" unicode="&#x3c0;" horiz-adv-x="540" 
d="M530 443l-11 -85h-53v-358h-108v358h-164v-358h-108v358h-61v85h505z" />
    <glyph glyph-name="uni060C" unicode="&#x60c;" horiz-adv-x="209" 
d="M98 -6q-31 0 -51 22.5t-20 62.5q0 89 90 202l55 -31q-50 -69 -50 -102q0 -15 12 -24.5t23.5 -23t11.5 -37.5q0 -27 -20.5 -48t-50.5 -21z" />
    <glyph glyph-name="uni0615" unicode="&#x615;" 
d="M249 650q31 0 54.5 -25.5t23.5 -59.5q0 -96 -137 -96q-64 0 -108 2l-18 53l3 6h36q10 12 16 20v172h58v-106q37 34 72 34zM276 535q5 22 -4.5 38.5t-26.5 16.5q-28 0 -84 -61h32q68 0 83 6z" />
    <glyph glyph-name="uni061B" unicode="&#x61b;" horiz-adv-x="209" 
d="M98 240q-31 0 -51 22.5t-20 62.5q0 89 90 202l55 -31q-50 -69 -50 -102q0 -15 12 -24.5t23.5 -23t11.5 -37.5q0 -27 -20.5 -48t-50.5 -21zM98 -11q-29 0 -50 20.5t-21 49.5t21 49.5t50 20.5t50 -20.5t21 -49.5t-21 -49.5t-50 -20.5z" />
    <glyph glyph-name="uni061F" unicode="&#x61f;" horiz-adv-x="425" 
d="M296 199l-105 11v11q0 41 -17.5 70t-61.5 61q-47 34 -65.5 67t-18.5 79q0 78 55.5 120.5t143.5 42.5t169 -53l-46 -83q-58 39 -111 39q-45 0 -68.5 -19.5t-23.5 -53.5q0 -22 13 -41.5t47 -47.5q50 -40 70.5 -77.5t20.5 -87.5q0 -12 -2 -38zM234 -11q-29 0 -50 20.5
t-21 49.5t21 49.5t50 20.5t50 -20.5t21 -49.5t-21 -49.5t-50 -20.5z" />
    <glyph glyph-name="uni0621" unicode="&#x621;" horiz-adv-x="397" 
d="M347 102l9 -83q-132 -14 -329 -24l-6 84q14 0 41.5 1.5t41.5 2.5q-30 43 -30 92q0 60 40 99.5t102 39.5q60 0 108 -24l-26 -80q-41 16 -71 16t-46.5 -17.5t-16.5 -45.5q0 -40 32 -74q98 7 151 13z" />
    <glyph glyph-name="uni0622" unicode="&#x622;" horiz-adv-x="226" 
d="M195 731q-28 0 -61.5 12.5t-58.5 12.5q-36 0 -77 -26l-31 50q49 44 99 44q27 0 66 -13t67 -13q24 0 44 8l21 -58q-33 -17 -69 -17zM70 -6l-7 4v665l92 24l7 -5l-1 -669z" />
    <glyph glyph-name="uni0623" unicode="&#x623;" horiz-adv-x="226" 
d="M203 817l5 -59q-79 -10 -193 -14l-6 62q30 0 46 1q-20 26 -20 60q0 37 22.5 59.5t62.5 22.5q35 0 72 -15l-16 -58q-30 10 -45 10q-17 0 -26.5 -10t-9.5 -25q0 -24 19 -41q62 4 89 7zM63 663l92 24l7 -5l-1 -669l-91 -19l-7 4v665z" />
    <glyph glyph-name="uni0624" unicode="&#x624;" horiz-adv-x="433" 
d="M103 432l-6 68q32 0 50 1q-22 30 -22 66q0 41 25 66t69 25q37 0 79 -17l-17 -64q-31 11 -50 11q-39 0 -39 -39q0 -25 22 -45q43 3 96 8l6 -65q-83 -11 -213 -15zM217 337q71 0 115 -72.5t44 -174.5q0 -108 -81.5 -186t-235.5 -81l-50 74l6 9q105 3 174 35t95 89
q-40 -9 -90 -9q-66 0 -99 31.5t-33 86.5q0 72 46.5 135t108.5 63zM140 153q0 -41 73 -41q47 0 83 7q-6 49 -30.5 85.5t-54.5 36.5q-28 0 -49.5 -27t-21.5 -61z" />
    <glyph glyph-name="uni0625" unicode="&#x625;" horiz-adv-x="226" 
d="M161 13l-91 -19l-7 4v665l92 24l7 -5zM207 -192l5 -58q-79 -10 -193 -14l-6 61q30 0 46 1q-20 28 -20 61q0 37 22.5 59.5t62.5 22.5q34 0 72 -15l-16 -58q-30 10 -45 10q-17 0 -26.5 -10t-9.5 -25q0 -24 20 -42q62 4 88 7z" />
    <glyph glyph-name="uni0626" unicode="&#x626;" horiz-adv-x="768" 
d="M63 278l-6 68q32 0 50 1q-22 30 -22 66q0 41 25 66t69 25q37 0 79 -17l-17 -64q-31 11 -50 11q-39 0 -39 -39q0 -25 22 -45q43 3 96 8l6 -65q-83 -11 -213 -15zM602 176q69 -25 92 -46t23 -51q0 -97 -116 -166.5t-274 -69.5q-142 0 -213.5 55.5t-71.5 147.5q0 59 16 112
l80 28l9 -5q-10 -54 -10 -89q0 -73 46.5 -111.5t164.5 -38.5q90 0 166 26.5t105 59.5q6 21 -10 33.5t-65 29.5q-38 13 -54 19.5t-37.5 21t-29.5 34t-8 48.5q0 79 60.5 155t150.5 76q58 0 106 -26l-19 -92l-4 -3q-46 22 -90 22q-51 0 -90.5 -36t-39.5 -70q0 -18 23.5 -30
t89.5 -34z" />
    <glyph glyph-name="uni0627" unicode="&#x627;" horiz-adv-x="226" 
d="M70 -6l-7 4v665l92 24l7 -5l-1 -669z" />
    <glyph glyph-name="uni0628" unicode="&#x628;" horiz-adv-x="850" 
d="M747 357q46 -108 46 -184q0 -97 -69 -139q-72 -45 -278 -45h-65q-339 0 -339 185q0 63 16 116l73 28l8 -5q-9 -49 -9 -87q0 -81 66 -110t216 -29h63q159 0 229 27q7 53 -51 178l84 65h10zM337 -171l58 85l93 -63l-58 -87z" />
    <glyph glyph-name="uni0629" unicode="&#x629;" horiz-adv-x="410" 
d="M185 596l-55 -85l-90 63l55 84zM271 511l-90 63l56 84l90 -62zM160 432q111 -96 154.5 -158t43.5 -125q0 -69 -47.5 -112t-123.5 -43q-72 0 -112.5 34.5t-40.5 97.5q0 77 94 198q-16 12 -25 18l48 85zM194 92q36 0 55.5 15.5t19.5 42.5q0 52 -80 124q-69 -72 -69 -124
q0 -26 20 -42t54 -16z" />
    <glyph glyph-name="uni062A" unicode="&#x62a;" horiz-adv-x="850" 
d="M431 471l-55 -85l-90 63l55 84zM517 386l-90 63l56 84l90 -62zM747 357q46 -108 46 -184q0 -97 -69 -139q-72 -45 -278 -45h-65q-339 0 -339 185q0 63 16 116l73 28l8 -5q-9 -49 -9 -87q0 -81 66 -110t216 -29h63q159 0 229 27q7 53 -51 178l84 65h10z" />
    <glyph glyph-name="uni062B" unicode="&#x62b;" horiz-adv-x="850" 
d="M494 598l-56 -86l-91 64l57 83zM437 471l-55 -85l-91 63l56 84zM433 449l57 84l90 -62l-57 -85zM747 357q46 -108 46 -184q0 -97 -69 -139q-72 -45 -278 -45h-65q-339 0 -339 185q0 63 16 116l73 28l8 -5q-9 -49 -9 -87q0 -81 66 -110t216 -29h63q159 0 229 27
q7 53 -51 178l84 65h10z" />
    <glyph glyph-name="uni062C" unicode="&#x62c;" horiz-adv-x="647" 
d="M620 -285l6 -6l-28 -82q-71 -43 -205 -43q-157 0 -254 70.5t-97 189.5q0 120 90 223t223 164l-10 3q-99 29 -158 29q-68 0 -134 -22l-4 5l36 88q45 24 110 24q49 0 135 -25q144 -43 280 -43l-24 -98q-194 -5 -323 -99.5t-129 -219.5q0 -91 76.5 -140.5t209.5 -49.5
q99 0 200 32zM383 -181l-92 66l58 85l93 -63z" />
    <glyph glyph-name="uni062D" unicode="&#x62d;" horiz-adv-x="647" 
d="M620 -285l6 -6l-28 -82q-71 -43 -205 -43q-157 0 -254 70.5t-97 189.5q0 120 90 223t223 164l-10 3q-99 29 -158 29q-68 0 -134 -22l-4 5l36 88q45 24 110 24q49 0 135 -25q144 -43 280 -43l-24 -98q-194 -5 -323 -99.5t-129 -219.5q0 -91 76.5 -140.5t209.5 -49.5
q99 0 200 32z" />
    <glyph glyph-name="uni062E" unicode="&#x62e;" horiz-adv-x="647" 
d="M401 550l-58 -87l-93 65l58 86zM620 -285l6 -6l-28 -82q-71 -43 -205 -43q-157 0 -254 70.5t-97 189.5q0 120 90 223t223 164l-10 3q-99 29 -158 29q-68 0 -134 -22l-4 5l36 88q45 24 110 24q49 0 135 -25q144 -43 280 -43l-24 -98q-194 -5 -323 -99.5t-129 -219.5
q0 -91 76.5 -140.5t209.5 -49.5q99 0 200 32z" />
    <glyph glyph-name="uni062F" unicode="&#x62f;" horiz-adv-x="445" 
d="M156 -7q-74 0 -124 12l14 94l5 4q42 -9 113 -9q48 0 94.5 8t61.5 22q-10 49 -54 111.5t-104 118.5l57 91h8q170 -179 170 -295q0 -78 -63 -117.5t-178 -39.5z" />
    <glyph glyph-name="uni0630" unicode="&#x630;" horiz-adv-x="445" 
d="M222 550l-93 65l58 86l93 -64zM156 -7q-74 0 -124 12l14 94l5 4q42 -9 113 -9q48 0 94.5 8t61.5 22q-10 49 -54 111.5t-104 118.5l57 91h8q170 -179 170 -295q0 -78 -63 -117.5t-178 -39.5z" />
    <glyph glyph-name="uni0631" unicode="&#x631;" horiz-adv-x="348" 
d="M-20 -180l-53 73l6 9q124 22 201.5 72.5t77.5 91.5q-4 55 -72 177l72 79h9q32 -59 51 -122.5t19 -109.5q0 -56 -28 -108q-31 -57 -107 -100.5t-176 -61.5z" />
    <glyph glyph-name="uni0632" unicode="&#x632;" horiz-adv-x="348" 
d="M214 427l-93 65l58 86l93 -64zM-20 -180l-53 73l6 9q124 22 201.5 72.5t77.5 91.5q-4 55 -72 177l72 79h9q32 -59 51 -122.5t19 -109.5q0 -56 -28 -108q-31 -57 -107 -100.5t-176 -61.5z" />
    <glyph glyph-name="uni0633" unicode="&#x633;" horiz-adv-x="1116" 
d="M1010 357q49 -124 49 -192q0 -84 -52.5 -124.5t-143.5 -40.5q-67 0 -120 25q-34 -25 -88 -25q-41 0 -78 23q-20 -106 -100 -157.5t-196 -51.5q-114 0 -176.5 56.5t-62.5 150.5q0 67 17 116l75 28l9 -4q-9 -53 -9 -93q0 -75 37.5 -115t129.5 -40q125 0 182 73
q16 48 2.5 100t-51.5 135l87 62h6q4 -9 13 -38t18.5 -55.5t17.5 -40.5q26 -50 83 -50q30 0 44 10q11 15 39 115l100 16l4 -4q-28 -87 -45 -127q38 -10 72 -10q63 0 90 12q17 50 -44 182l84 65z" />
    <glyph glyph-name="uni0634" unicode="&#x634;" horiz-adv-x="1116" 
d="M838 610l-56 -86l-91 64l57 83zM781 483l-55 -85l-91 63l56 84zM777 461l57 84l90 -62l-57 -85zM1010 357q49 -124 49 -192q0 -84 -52.5 -124.5t-143.5 -40.5q-67 0 -120 25q-34 -25 -88 -25q-41 0 -78 23q-20 -106 -100 -157.5t-196 -51.5q-114 0 -176.5 56.5
t-62.5 150.5q0 67 17 116l75 28l9 -4q-9 -53 -9 -93q0 -75 37.5 -115t129.5 -40q125 0 182 73q16 48 2.5 100t-51.5 135l87 62h6q4 -9 13 -38t18.5 -55.5t17.5 -40.5q26 -50 83 -50q30 0 44 10q11 15 39 115l100 16l4 -4q-28 -87 -45 -127q38 -10 72 -10q63 0 90 12
q17 50 -44 182l84 65z" />
    <glyph glyph-name="uni0635" unicode="&#x635;" horiz-adv-x="1226" 
d="M1025 352q64 0 107 -51.5t43 -115.5q0 -83 -63 -136q-37 -30 -94.5 -39.5t-169.5 -9.5h-72q-91 0 -131.5 4t-66.5 21q-20 -107 -100.5 -159t-196.5 -52q-114 0 -176.5 56.5t-62.5 150.5q0 60 17 116l75 28l9 -4q-9 -53 -9 -93q0 -75 37.5 -115t129.5 -40q125 0 182 73
q16 48 2.5 100t-51.5 135l87 62h6q43 -121 49 -134q13 -25 31.5 -35.5t57.5 -13.5q137 133 217.5 192.5t142.5 59.5zM1077 117q13 22 13 52q0 31 -22.5 59.5t-54.5 28.5q-69 0 -239 -158h81q110 0 154 3.5t68 14.5z" />
    <glyph glyph-name="uni0636" unicode="&#x636;" horiz-adv-x="1226" 
d="M1078 544l-58 -87l-93 65l58 86zM1025 352q64 0 107 -51.5t43 -115.5q0 -83 -63 -136q-37 -30 -94.5 -39.5t-169.5 -9.5h-72q-91 0 -131.5 4t-66.5 21q-20 -107 -100.5 -159t-196.5 -52q-114 0 -176.5 56.5t-62.5 150.5q0 60 17 116l75 28l9 -4q-9 -53 -9 -93
q0 -75 37.5 -115t129.5 -40q125 0 182 73q16 48 2.5 100t-51.5 135l87 62h6q43 -121 49 -134q13 -25 31.5 -35.5t57.5 -13.5q137 133 217.5 192.5t142.5 59.5zM1077 117q13 22 13 52q0 31 -22.5 59.5t-54.5 28.5q-69 0 -239 -158h81q110 0 154 3.5t68 14.5z" />
    <glyph glyph-name="uni0637" unicode="&#x637;" horiz-adv-x="716" 
d="M515 352q64 0 107 -51.5t43 -115.5q0 -83 -63 -136q-37 -30 -94.5 -39.5t-169.5 -9.5h-246l-45 86l3 13h103l43 41v523l91 24l8 -5l-1 -452q139 122 221 122zM567 117q13 22 13 52q0 31 -22.5 59.5t-54.5 28.5q-69 0 -239 -158h81q110 0 154 3.5t68 14.5z" />
    <glyph glyph-name="uni0638" unicode="&#x638;" horiz-adv-x="716" 
d="M515 352q64 0 107 -51.5t43 -115.5q0 -83 -63 -136q-37 -30 -94.5 -39.5t-169.5 -9.5h-246l-45 86l3 13h103l43 41v523l91 24l8 -5l-1 -452q139 122 221 122zM583 544l-58 -87l-93 65l58 86zM567 117q13 22 13 52q0 31 -22.5 59.5t-54.5 28.5q-69 0 -239 -158h81
q110 0 154 3.5t68 14.5z" />
    <glyph glyph-name="uni0639" unicode="&#x639;" horiz-adv-x="536" 
d="M577 -298l16 -72q-106 -46 -238 -46q-147 0 -235 61t-88 168q0 123 140 214q-46 37 -72.5 87t-26.5 100q0 82 57 129.5t144 47.5q78 0 138 -31l-11 -86l-4 -3q-65 24 -112 24q-48 0 -74 -23t-26 -64q0 -33 19.5 -69.5t55.5 -63.5q78 36 180 66l6 -2l-7 -103
q-156 -40 -233 -88.5t-77 -116.5q0 -70 67.5 -110t185.5 -40q101 0 187 26z" />
    <glyph glyph-name="uni063A" unicode="&#x63a;" horiz-adv-x="536" 
d="M348 583l-58 -87l-93 65l58 86zM577 -298l16 -72q-106 -46 -238 -46q-147 0 -235 61t-88 168q0 123 140 214q-46 37 -72.5 87t-26.5 100q0 82 57 129.5t144 47.5q78 0 138 -31l-11 -86l-4 -3q-65 24 -112 24q-48 0 -74 -23t-26 -64q0 -33 19.5 -69.5t55.5 -63.5
q78 36 180 66l6 -2l-7 -103q-156 -40 -233 -88.5t-77 -116.5q0 -70 67.5 -110t185.5 -40q101 0 187 26z" />
    <glyph glyph-name="uni0640" unicode="&#x640;" horiz-adv-x="80" 
d="M0 0l22 98h80q41 0 41 -32q0 -66 -63 -66h-80z" />
    <glyph glyph-name="uni0641" unicode="&#x641;" horiz-adv-x="904" 
d="M741 656l-58 -87l-93 65l58 86zM687 474q72 0 116 -73.5t44 -175.5q0 -142 -62 -186q-39 -29 -120.5 -39.5t-218.5 -10.5h-65q-339 0 -339 185q0 63 16 116l73 28l8 -5q-9 -49 -9 -87q0 -81 66 -110t216 -29h63q237 0 283 32q3 13 7 50q-47 -11 -101 -11q-66 0 -99 31
t-33 87q0 72 46.5 135t108.5 63zM610 290q0 -42 74 -42q46 0 82 7q-5 49 -29.5 86t-55.5 37q-27 0 -49 -27.5t-22 -60.5z" />
    <glyph glyph-name="uni0642" unicode="&#x642;" horiz-adv-x="730" 
d="M504 526l-55 -85l-90 63l55 84zM590 441l-90 63l56 84l90 -62zM513 337q72 0 116 -73.5t44 -175.5q0 -274 -346 -274q-139 0 -212 56t-73 147q0 59 16 112l81 28l9 -5q-11 -52 -11 -89q0 -73 47 -111.5t162 -38.5q87 0 147.5 22t83.5 54q8 35 9 42q-47 -10 -96 -10
q-66 0 -99 31t-33 87q0 72 46.5 135t108.5 63zM436 153q0 -42 74 -42q46 0 82 7q-5 49 -29.5 86t-55.5 37q-27 0 -49 -27.5t-22 -60.5z" />
    <glyph glyph-name="uni0643" unicode="&#x643;" horiz-adv-x="821" 
d="M750 687l8 -5v-482q0 -118 -66.5 -164.5t-245.5 -46.5h-65q-339 0 -339 185q0 63 16 116l73 28l8 -5q-9 -49 -9 -87q0 -81 66 -110t216 -29h63q136 0 177 27q7 30 7 79v470zM321 270l-6 58q30 0 46 1q-20 30 -20 61q0 37 23.5 59.5t62.5 22.5q31 0 71 -16l-15 -53
q-27 9 -47 9q-40 0 -40 -35q0 -27 21 -46q44 3 92 8l5 -55q-79 -10 -193 -14z" />
    <glyph glyph-name="uni0644" unicode="&#x644;" horiz-adv-x="657" 
d="M281 -186q-114 0 -176.5 56.5t-62.5 150.5q0 69 17 116l75 28l9 -4q-9 -48 -9 -93q0 -77 38.5 -116t128.5 -39q122 0 175 67q18 56 18 145v538l91 24l8 -5l-1 -547q0 -321 -311 -321z" />
    <glyph glyph-name="uni0645" unicode="&#x645;" horiz-adv-x="486" 
d="M261 336q73 0 123 -72.5t50 -159.5q0 -58 -15.5 -84t-49.5 -26q-21 0 -66.5 4t-71.5 4q-54 0 -88 -17q-5 -19 -5.5 -48t4 -64t9.5 -65.5t12.5 -70t10.5 -59.5l-86 -40l-8 6q-5 30 -16 96.5t-16.5 106t-5.5 66.5q0 73 51 129.5t150 56.5q47 0 105 -10q-2 59 -34.5 105.5
t-73.5 46.5q-26 0 -47 -23.5t-31 -70.5l-47 -6l-10 5q6 88 52 139t104 51z" />
    <glyph glyph-name="uni0646" unicode="&#x646;" horiz-adv-x="638" 
d="M309 316l-93 65l58 86l93 -64zM281 -186q-111 0 -175 55.5t-64 151.5q0 68 17 116l75 28l9 -4q-9 -43 -9 -93q0 -80 40.5 -117.5t126.5 -37.5q126 0 182 73q14 43 3.5 93.5t-52.5 141.5l87 62h6q22 -47 38 -107.5t16 -97.5q0 -121 -81.5 -192.5t-218.5 -71.5z" />
    <glyph glyph-name="uni0647" unicode="&#x647;" horiz-adv-x="410" 
d="M160 432q111 -96 154.5 -158t43.5 -125q0 -69 -47.5 -112t-123.5 -43q-72 0 -112.5 34.5t-40.5 97.5q0 77 94 198q-16 12 -25 18l48 85zM194 92q36 0 55.5 15.5t19.5 42.5q0 52 -80 124q-69 -72 -69 -124q0 -26 20 -42t54 -16z" />
    <glyph glyph-name="uni0648" unicode="&#x648;" horiz-adv-x="433" 
d="M217 337q71 0 115 -72.5t44 -174.5q0 -108 -81.5 -186t-235.5 -81l-50 74l6 9q105 3 174 35t95 89q-40 -9 -90 -9q-66 0 -99 31.5t-33 86.5q0 72 46.5 135t108.5 63zM140 153q0 -41 73 -41q47 0 83 7q-6 49 -30.5 85.5t-54.5 36.5q-28 0 -49.5 -27t-21.5 -61z" />
    <glyph glyph-name="uni0649" unicode="&#x649;" horiz-adv-x="768" 
d="M327 -157q-142 0 -213.5 55.5t-71.5 147.5q0 59 16 112l80 28l9 -5q-10 -54 -10 -89q0 -73 46.5 -111.5t164.5 -38.5q90 0 166 26.5t105 59.5q6 21 -10 33.5t-65 29.5q-38 13 -54 19.5t-37.5 21t-29.5 34t-8 48.5q0 79 60.5 155t150.5 76q58 0 106 -26l-19 -92l-4 -3
q-46 22 -90 22q-51 0 -90.5 -36t-39.5 -70q0 -18 23.5 -30t89.5 -34q69 -25 92 -46t23 -51q0 -97 -116 -166.5t-274 -69.5z" />
    <glyph glyph-name="uni064A" unicode="&#x64a;" horiz-adv-x="768" 
d="M327 -157q-142 0 -213.5 55.5t-71.5 147.5q0 59 16 112l80 28l9 -5q-10 -54 -10 -89q0 -73 46.5 -111.5t164.5 -38.5q90 0 166 26.5t105 59.5q6 21 -10 33.5t-65 29.5q-38 13 -54 19.5t-37.5 21t-29.5 34t-8 48.5q0 79 60.5 155t150.5 76q58 0 106 -26l-19 -92l-4 -3
q-46 22 -90 22q-51 0 -90.5 -36t-39.5 -70q0 -18 23.5 -30t89.5 -34q69 -25 92 -46t23 -51q0 -97 -116 -166.5t-274 -69.5zM272 -379l-91 63l56 84l90 -62zM415 -379l-90 63l56 84l90 -62z" />
    <glyph glyph-name="uni064B" unicode="&#x64b;" 
d="M37 714v61l245 46v-62zM37 603v61l245 46v-62z" />
    <glyph glyph-name="uni064C" unicode="&#x64c;" 
d="M280 845q35 0 56.5 -25.5t21.5 -59.5q0 -61 -62 -101.5t-178 -46.5l-14 49q11 16 11 32q0 22 -20 22q-13 0 -29 -13l-28 40q28 30 67 30q30 0 46.5 -19.5t16.5 -48.5q0 -16 -5 -33q44 4 76 18q-43 28 -43 67q0 33 25 61t59 28zM277 790q-11 0 -21.5 -8.5t-10.5 -21.5
q0 -21 41 -42q18 18 18 40q0 13 -7.5 22.5t-19.5 9.5z" />
    <glyph glyph-name="uni064D" unicode="&#x64d;" 
d="M40 -219v60l239 46v-61zM40 -327v60l239 46v-61z" />
    <glyph glyph-name="uni064E" unicode="&#x64e;" 
d="M37 603v61l245 46v-62z" />
    <glyph glyph-name="uni064F" unicode="&#x64f;" 
d="M201 845q33 0 55.5 -24t22.5 -59q0 -58 -57.5 -92.5t-175.5 -58.5l-12 53q71 13 118 29q-35 27 -35 66q0 34 24.5 60t59.5 26zM166 761q0 -20 38 -42q21 17 21 38q0 13 -8 23t-20 10t-21.5 -9t-9.5 -20z" />
    <glyph glyph-name="uni0650" unicode="&#x650;" 
d="M40 -219v60l239 46v-61z" />
    <glyph glyph-name="uni0651" unicode="&#x651;" 
d="M306 780q15 -43 15 -75q0 -40 -22 -67t-62 -27t-60 25q-23 -27 -63 -27q-45 0 -64.5 23.5t-19.5 59.5q0 24 9 53l56 2q-5 -27 -5 -42q0 -37 27 -37q16 0 23.5 16t8.5 59l54 3q-1 -17 -1 -40q0 -35 32 -35q26 0 26 37q0 26 -11 59z" />
    <glyph glyph-name="uni0652" unicode="&#x652;" 
d="M127 603q-40 0 -63.5 23t-23.5 61q0 44 25 71t67 27q38 0 61 -26t23 -68q0 -40 -24.5 -64t-64.5 -24zM127 656q17 0 26.5 9t9.5 25q0 17 -10 27.5t-25 10.5q-16 0 -25.5 -10t-9.5 -27q0 -16 9.5 -25.5t24.5 -9.5z" />
    <glyph glyph-name="uni0653" unicode="&#x653;" 
d="M288 595q-28 0 -61.5 12.5t-58.5 12.5q-36 0 -77 -26l-31 50q49 44 99 44q27 0 66 -13t67 -13q24 0 44 8l21 -58q-33 -17 -69 -17z" />
    <glyph glyph-name="uni0654" unicode="&#x654;" 
d="M232 681l5 -59q-79 -10 -193 -14l-6 62q30 0 46 1q-20 26 -20 60q0 37 22.5 59.5t62.5 22.5q35 0 72 -15l-16 -58q-30 10 -45 10q-17 0 -26.5 -10t-9.5 -25q0 -24 19 -41q62 4 89 7z" />
    <glyph glyph-name="uni0655" unicode="&#x655;" 
d="M232 -192l5 -58q-79 -10 -193 -14l-6 61q30 0 46 1q-20 28 -20 61q0 37 22.5 59.5t62.5 22.5q35 0 72 -15l-16 -58q-30 10 -45 10q-17 0 -26.5 -10t-9.5 -25q0 -24 20 -42q62 4 88 7z" />
    <glyph glyph-name="uni0656" unicode="&#x656;" 
d="M34 -247v192h70v-192h-70z" />
    <glyph glyph-name="uni0658" unicode="&#x658;" 
d="M164 599q-50 0 -79 26.5t-29 70.5q0 23 8 50l51 15q-4 -30 -4 -44q0 -56 60 -56q51 0 75 28q7 30 -22 91l56 39q24 -52 24 -97q0 -53 -40.5 -88t-99.5 -35z" />
    <glyph glyph-name="uni0660" unicode="&#x660;" horiz-adv-x="502" 
d="M257 160q-21 20 -46.5 43.5t-42.5 39.5l75 82q33 -27 91 -87z" />
    <glyph glyph-name="uni0661" unicode="&#x661;" horiz-adv-x="502" 
d="M256 -11l-12 3q-27 324 -67 526l86 61l12 -2q21 -109 39 -299.5t18 -268.5z" />
    <glyph glyph-name="uni0662" unicode="&#x662;" horiz-adv-x="502" 
d="M391 569l73 -9q-4 -100 -50 -146.5t-122 -46.5q-57 0 -106 23q30 -252 30 -381l-76 -20l-12 3q-27 324 -67 526l86 61l12 -2q3 -12 14 -81q45 -31 110 -31q49 0 75 21.5t33 82.5z" />
    <glyph glyph-name="uni0663" unicode="&#x663;" horiz-adv-x="502" 
d="M444 579q31 -65 31 -119q0 -55 -30.5 -83t-70.5 -28q-59 0 -90 34q-19 -37 -62 -37q-29 0 -52 15q26 -248 26 -352l-76 -20l-12 3q-27 324 -67 526l86 61l12 -2q11 -64 16 -97q11 -39 50 -39q20 0 31.5 18t18.5 71l63 -8q-6 -27 -6 -47q0 -31 46 -31q20 0 29.5 7.5t9 25
t-4.5 33.5t-13 44z" />
    <glyph glyph-name="uni0664" unicode="&#x664;" horiz-adv-x="502" 
d="M441 107l4 -6l-31 -88q-59 -17 -137 -17q-87 0 -131.5 30.5t-44.5 86.5q0 84 103 160q-102 36 -102 97q0 64 68.5 125t194.5 83l7 -4l-19 -102q-79 -15 -117.5 -39t-38.5 -49q0 -19 38 -32t113 -13l6 -9l-20 -76q-58 -22 -97 -54.5t-39 -57.5q0 -47 113 -47q16 0 130 12z
" />
    <glyph glyph-name="uni0665" unicode="&#x665;" horiz-adv-x="502" 
d="M258 -5q-194 0 -194 208q0 107 55 190.5t139 83.5t138.5 -80t54.5 -192q0 -210 -193 -210zM258 94q98 0 98 100q0 73 -26 129t-71 56q-46 0 -73 -56t-27 -129q0 -100 99 -100z" />
    <glyph glyph-name="uni0666" unicode="&#x666;" horiz-adv-x="502" 
d="M371 564q1 -98 24 -277t42 -272l-91 -30l-9 3q-43 306 -49 473q-57 -4 -125.5 0.5t-110.5 14.5l9 92l6 6q142 -26 304 -10z" />
    <glyph glyph-name="uni0667" unicode="&#x667;" horiz-adv-x="502" 
d="M411 579l82 -59l-197 -516l-95 -13l-191 544l96 43l9 -1l133 -466l153 466z" />
    <glyph glyph-name="uni0668" unicode="&#x668;" horiz-adv-x="502" 
d="M300 579l192 -544l-97 -43l-8 1l-133 465l-154 -466l-9 -1l-82 60l197 515z" />
    <glyph glyph-name="uni0669" unicode="&#x669;" horiz-adv-x="502" 
d="M408 327q12 -169 43 -312l-87 -30l-9 3q-19 113 -35 266q-42 -11 -79 -11q-73 0 -118.5 33.5t-45.5 98.5q0 76 53 138.5t120 62.5q139 0 158 -249zM169 391q0 -53 85 -53q25 0 56 7q-9 70 -25 102.5t-46 32.5q-29 0 -49.5 -27.5t-20.5 -61.5z" />
    <glyph glyph-name="uni066A" unicode="&#x66a;" horiz-adv-x="493" 
d="M137 -24l-74 32l284 617l76 -35zM116 458q-19 18 -44 41t-42 40l73 78q49 -41 89 -84zM387 -12l-86 81l73 78q46 -37 88 -84z" />
    <glyph glyph-name="uni066B" unicode="&#x66b;" horiz-adv-x="240" 
d="M79 -158l-55 31q50 69 50 102q0 15 -12 24.5t-23.5 23t-11.5 37.5q0 27 20.5 48t50.5 21q31 0 51 -22.5t20 -62.5q0 -90 -90 -202z" />
    <glyph glyph-name="uni066C" unicode="&#x66c;" horiz-adv-x="206" 
d="M63 -126l-44 24q40 55 40 82q0 13 -18.5 28t-18.5 40q0 22 16 38.5t40 16.5q25 0 41 -18t16 -50q0 -72 -72 -161z" />
    <glyph glyph-name="uni066D" unicode="&#x66d;" horiz-adv-x="710" 
d="M160 -16l-22 17l124 234l-222 108l6 28l248 -26l47 239h29l46 -238l248 25l6 -30l-224 -104l126 -236l-22 -17l-195 171z" />
    <glyph glyph-name="uni066E" unicode="&#x66e;" horiz-adv-x="850" 
d="M747 357q46 -108 46 -184q0 -97 -69 -139q-72 -45 -278 -45h-65q-339 0 -339 185q0 63 16 116l73 28l8 -5q-9 -49 -9 -87q0 -81 66 -110t216 -29h63q159 0 229 27q7 53 -51 178l84 65h10z" />
    <glyph glyph-name="uni066F" unicode="&#x66f;" horiz-adv-x="730" 
d="M513 337q72 0 116 -73.5t44 -175.5q0 -274 -346 -274q-139 0 -212 56t-73 147q0 59 16 112l81 28l9 -5q-11 -52 -11 -89q0 -73 47 -111.5t162 -38.5q87 0 147.5 22t83.5 54q8 35 9 42q-47 -10 -96 -10q-66 0 -99 31t-33 87q0 72 46.5 135t108.5 63zM436 153q0 -42 74 -42
q46 0 82 7q-5 49 -29.5 86t-55.5 37q-27 0 -49 -27.5t-22 -60.5z" />
    <glyph glyph-name="uni0670" unicode="&#x670;" 
d="M34 621v199h70v-199h-70z" />
    <glyph glyph-name="uni0671" unicode="&#x671;" horiz-adv-x="226" 
d="M171 861q24 0 38.5 -17t14.5 -39q0 -64 -91 -64q-65 0 -99 18q-22 -17 -56 -17l9 37q20 0 30 10q8 11 18 45l40 5l3 -2q-12 -33 -22 -50q18 -3 20 -3q32 41 52.5 59t42.5 18zM188 786q4 15 -1.5 25.5t-17.5 10.5q-18 0 -55 -42h19q45 0 55 6zM63 663l92 24l7 -5l-1 -669
l-91 -19l-7 4v665z" />
    <glyph glyph-name="uni0679" unicode="&#x679;" horiz-adv-x="850" 
d="M419 396q-64 0 -108 2l-18 53l3 6h36q10 12 16 20v172h58v-106q37 34 72 34q31 0 54.5 -25.5t23.5 -59.5q0 -96 -137 -96zM474 517q-28 0 -84 -61h32q68 0 83 6q5 22 -4.5 38.5t-26.5 16.5zM747 357q46 -108 46 -184q0 -97 -69 -139q-72 -45 -278 -45h-65
q-339 0 -339 185q0 63 16 116l73 28l8 -5q-9 -49 -9 -87q0 -81 66 -110t216 -29h63q159 0 229 27q7 53 -51 178l84 65h10z" />
    <glyph glyph-name="uni067E" unicode="&#x67e;" horiz-adv-x="850" 
d="M747 357q46 -108 46 -184q0 -97 -69 -139q-72 -45 -278 -45h-65q-339 0 -339 185q0 63 16 116l73 28l8 -5q-9 -49 -9 -87q0 -81 66 -110t216 -29h63q159 0 229 27q7 53 -51 178l84 65h10zM417 -148l-57 -83l-90 62l57 85zM414 -169l54 85l91 -64l-56 -83zM354 -285l57 86
l90 -64l-56 -83z" />
    <glyph glyph-name="uni0686" unicode="&#x686;" horiz-adv-x="645" 
d="M620 -285l6 -6l-28 -82q-71 -43 -205 -43q-157 0 -254 70.5t-97 189.5q0 120 90 223t223 164l-10 3q-99 29 -158 29q-68 0 -134 -22l-4 5l36 88q45 24 110 24q49 0 135 -25q144 -43 280 -43l-24 -98q-194 -5 -323 -99.5t-129 -219.5q0 -91 76.5 -140.5t209.5 -49.5
q99 0 200 32zM315 23l86 -60l-53 -79l-86 58zM541 -37l-53 -79l-84 58l51 81zM485 -157l-53 -78l-86 57l54 83z" />
    <glyph glyph-name="uni0688" unicode="&#x688;" horiz-adv-x="445" 
d="M192 562q-64 0 -108 2l-18 53l3 6h36q10 12 16 20v172h58v-106q37 34 72 34q31 0 54.5 -25.5t23.5 -59.5q0 -96 -137 -96zM247 683q-28 0 -84 -61h32q68 0 83 6q5 22 -4.5 38.5t-26.5 16.5zM227 445q170 -179 170 -295q0 -78 -63 -117.5t-178 -39.5q-74 0 -124 12l14 94
l5 4q42 -9 113 -9q48 0 94.5 8t61.5 22q-10 49 -54 111.5t-104 118.5l57 91h8z" />
    <glyph glyph-name="uni0691" unicode="&#x691;" horiz-adv-x="348" 
d="M243 620q31 0 54.5 -25.5t23.5 -59.5q0 -96 -137 -96q-64 0 -108 2l-18 53l3 6h36q10 12 16 20v172h58v-106q37 34 72 34zM270 505q5 22 -4.5 38.5t-26.5 16.5q-28 0 -84 -61h32q68 0 83 6zM212 322h9q32 -59 51 -122.5t19 -109.5q0 -56 -28 -108q-31 -57 -107 -100.5
t-176 -61.5l-53 73l6 9q124 22 201.5 72.5t77.5 91.5q-4 55 -72 177z" />
    <glyph glyph-name="uni0698" unicode="&#x698;" horiz-adv-x="348" 
d="M203 555l-91 64l57 83l90 -61zM147 429l-91 63l56 84l90 -62zM288 429l-90 63l57 84l90 -62zM-20 -180l-53 73l6 9q124 22 201.5 72.5t77.5 91.5q-4 55 -72 177l72 79h9q32 -59 51 -122.5t19 -109.5q0 -56 -28 -108q-31 -57 -107 -100.5t-176 -61.5z" />
    <glyph glyph-name="uni06A1" unicode="&#x6a1;" horiz-adv-x="904" 
d="M687 474q72 0 116 -73.5t44 -175.5q0 -142 -62 -186q-39 -29 -120.5 -39.5t-218.5 -10.5h-65q-339 0 -339 185q0 63 16 116l73 28l8 -5q-9 -49 -9 -87q0 -81 66 -110t216 -29h63q237 0 283 32q3 13 7 50q-47 -11 -101 -11q-66 0 -99 31t-33 87q0 72 46.5 135t108.5 63z
M610 290q0 -42 74 -42q46 0 82 7q-5 49 -29.5 86t-55.5 37q-27 0 -49 -27.5t-22 -60.5z" />
    <glyph glyph-name="uni06A4" unicode="&#x6a4;" horiz-adv-x="904" 
d="M728 783l-56 -86l-91 64l57 83zM671 656l-55 -85l-91 63l56 84zM667 634l57 84l90 -62l-57 -85zM687 474q72 0 116 -73.5t44 -175.5q0 -142 -62 -186q-39 -29 -120.5 -39.5t-218.5 -10.5h-65q-339 0 -339 185q0 63 16 116l73 28l8 -5q-9 -49 -9 -87q0 -81 66 -110
t216 -29h63q237 0 283 32q3 13 7 50q-47 -11 -101 -11q-66 0 -99 31t-33 87q0 72 46.5 135t108.5 63zM610 290q0 -42 74 -42q46 0 82 7q-5 49 -29.5 86t-55.5 37q-27 0 -49 -27.5t-22 -60.5z" />
    <glyph glyph-name="uni06A9" unicode="&#x6a9;" horiz-adv-x="881" 
d="M885 649l-32 -121l-240 -126q125 -83 168.5 -139t43.5 -107q0 -94 -89 -130.5t-290 -36.5h-65q-339 0 -339 185q0 63 16 116l73 28l8 -5q-9 -49 -9 -87q0 -81 66 -110t216 -29h63q217 0 271 45q0 44 -58.5 94.5t-166.5 119.5l-5 6l25 119l336 183z" />
    <glyph glyph-name="uni06AF" unicode="&#x6af;" horiz-adv-x="868" 
d="M863 724l-321 -176l-7 6l20 94l327 175l8 -4zM541 471l336 183l8 -5l-32 -121l-240 -126q125 -83 168.5 -139t43.5 -107q0 -94 -89 -130.5t-290 -36.5h-65q-339 0 -339 185q0 63 16 116l73 28l8 -5q-9 -49 -9 -87q0 -81 66 -110t216 -29h63q217 0 271 45q0 44 -58.5 94.5
t-166.5 119.5l-5 6z" />
    <glyph glyph-name="uni06BA" unicode="&#x6ba;" horiz-adv-x="638" 
d="M281 -186q-111 0 -175 55.5t-64 151.5q0 68 17 116l75 28l9 -4q-9 -43 -9 -93q0 -80 40.5 -117.5t126.5 -37.5q126 0 182 73q14 43 3.5 93.5t-52.5 141.5l87 62h6q22 -47 38 -107.5t16 -97.5q0 -121 -81.5 -192.5t-218.5 -71.5z" />
    <glyph glyph-name="uni06BE" unicode="&#x6be;" horiz-adv-x="646" 
d="M236 445q47 -27 77.5 -45t80 -49.5t81 -58.5t64.5 -59.5t49 -65t16 -63.5q0 -108 -147 -108q-86 0 -154 30q-37 -16 -119 -24q-68 -7 -119 -39h-8l-37 70q21 27 63 44.5t89 18.5q7 0 19.5 0.5t18.5 1.5q-33 46 -33 99q0 39 18 76.5t49 58.5q-44 21 -47 22l31 89zM311 112
q42 28 42 89q0 34 -14.5 58t-34.5 24t-35 -23t-15 -55q0 -62 57 -93zM457 84q57 0 68 13q-8 51 -97 119q1 -5 1 -14q0 -65 -41 -113q33 -5 69 -5z" />
    <glyph glyph-name="uni06C1" unicode="&#x6c1;" horiz-adv-x="410" 
d="M160 432q111 -96 154.5 -158t43.5 -125q0 -69 -47.5 -112t-123.5 -43q-72 0 -112.5 34.5t-40.5 97.5q0 77 94 198q-16 12 -25 18l48 85zM194 92q36 0 55.5 15.5t19.5 42.5q0 52 -80 124q-69 -72 -69 -124q0 -26 20 -42t54 -16z" />
    <glyph glyph-name="uni06C2" unicode="&#x6c2;" horiz-adv-x="410" 
d="M89 551l-6 62q30 0 46 1q-20 26 -20 60q0 37 22.5 59.5t62.5 22.5q34 0 72 -15l-16 -58q-30 10 -45 10q-17 0 -26.5 -10t-9.5 -25q0 -24 19 -41q62 4 89 7l5 -59q-79 -10 -193 -14zM160 432q111 -96 154.5 -158t43.5 -125q0 -69 -47.5 -112t-123.5 -43q-72 0 -112.5 34.5
t-40.5 97.5q0 77 94 198q-16 12 -25 18l48 85zM194 92q36 0 55.5 15.5t19.5 42.5q0 52 -80 124q-69 -72 -69 -124q0 -26 20 -42t54 -16z" />
    <glyph glyph-name="uni06C3" unicode="&#x6c3;" horiz-adv-x="410" 
d="M185 596l-55 -85l-90 63l55 84zM271 511l-90 63l56 84l90 -62zM160 432q111 -96 154.5 -158t43.5 -125q0 -69 -47.5 -112t-123.5 -43q-72 0 -112.5 34.5t-40.5 97.5q0 77 94 198q-16 12 -25 18l48 85zM194 92q36 0 55.5 15.5t19.5 42.5q0 52 -80 124q-69 -72 -69 -124
q0 -26 20 -42t54 -16z" />
    <glyph glyph-name="uni06CC" unicode="&#x6cc;" horiz-adv-x="768" 
d="M327 -157q-142 0 -213.5 55.5t-71.5 147.5q0 59 16 112l80 28l9 -5q-10 -54 -10 -89q0 -73 46.5 -111.5t164.5 -38.5q90 0 166 26.5t105 59.5q6 21 -10 33.5t-65 29.5q-38 13 -54 19.5t-37.5 21t-29.5 34t-8 48.5q0 79 60.5 155t150.5 76q58 0 106 -26l-19 -92l-4 -3
q-46 22 -90 22q-51 0 -90.5 -36t-39.5 -70q0 -18 23.5 -30t89.5 -34q69 -25 92 -46t23 -51q0 -97 -116 -166.5t-274 -69.5z" />
    <glyph glyph-name="uni06D2" unicode="&#x6d2;" horiz-adv-x="872" 
d="M797 -10q-449 0 -618.5 26.5t-169.5 114.5q0 39 26 70t57 45.5t63 28t38 20.5q11 12 34.5 51t48 60.5t59.5 21.5q51 0 88.5 -61.5t34.5 -142.5l-72 -25l-6 5q-3 42 -18 80.5t-30 46.5q-10 0 -20 -19l-25 -47.5t-33 -44.5q-24 -22 -66.5 -36.5t-70.5 -22.5t-28 -19
q20 -28 189 -41t551 -13l5 -6z" />
    <glyph glyph-name="uni06D3" unicode="&#x6d3;" horiz-adv-x="872" 
d="M36 429l-6 62q30 0 46 1q-20 26 -20 60q0 37 22.5 59.5t62.5 22.5q35 0 72 -15l-16 -58q-30 10 -45 10q-17 0 -26.5 -10t-9.5 -25q0 -24 19 -41q62 4 89 7l5 -59q-79 -10 -193 -14zM829 88l5 -6l-37 -92q-449 0 -618.5 26.5t-169.5 114.5q0 39 26 70t57 45.5t63 28
t38 20.5q11 12 34.5 51t48 60.5t59.5 21.5q51 0 88.5 -61.5t34.5 -142.5l-72 -25l-6 5q-3 42 -18 80.5t-30 46.5q-10 0 -20 -19l-25 -47.5t-33 -44.5q-24 -22 -66.5 -36.5t-70.5 -22.5t-28 -19q20 -28 189 -41t551 -13z" />
    <glyph glyph-name="uni06D4" unicode="&#x6d4;" horiz-adv-x="281" 
d="M180 0q-82 0 -159 28l20 88l5 5q85 -22 155 -22h33l-21 -99h-33z" />
    <glyph glyph-name="uni06F0" unicode="&#x6f0;" horiz-adv-x="502" 
d="M257 160q-21 20 -46.5 43.5t-42.5 39.5l75 82q33 -27 91 -87z" />
    <glyph glyph-name="uni06F1" unicode="&#x6f1;" horiz-adv-x="502" 
d="M256 -11l-12 3q-27 324 -67 526l86 61l12 -2q21 -109 39 -299.5t18 -268.5z" />
    <glyph glyph-name="uni06F2" unicode="&#x6f2;" horiz-adv-x="502" 
d="M391 569l73 -9q-4 -100 -50 -146.5t-122 -46.5q-57 0 -106 23q30 -252 30 -381l-76 -20l-12 3q-27 324 -67 526l86 61l12 -2q3 -12 14 -81q45 -31 110 -31q49 0 75 21.5t33 82.5z" />
    <glyph glyph-name="uni06F3" unicode="&#x6f3;" horiz-adv-x="502" 
d="M444 579q31 -65 31 -119q0 -55 -30.5 -83t-70.5 -28q-59 0 -90 34q-19 -37 -62 -37q-29 0 -52 15q26 -248 26 -352l-76 -20l-12 3q-27 324 -67 526l86 61l12 -2q11 -64 16 -97q11 -39 50 -39q20 0 31.5 18t18.5 71l63 -8q-6 -27 -6 -47q0 -31 46 -31q20 0 29.5 7.5t9 25
t-4.5 33.5t-13 44z" />
    <glyph glyph-name="uni06F4" unicode="&#x6f4;" horiz-adv-x="502" 
d="M462 327q-51 -39 -143 -39q-51 0 -142 16q20 -208 20 -295l-77 -20l-11 3q-27 328 -68 526l87 61l12 -2q13 -64 27 -184q31 -6 62 -9q-12 28 -12 60q0 60 35.5 96t89.5 36q36 0 66 -18t46 -48l-57 -51q-23 29 -54 29q-22 0 -36.5 -14.5t-14.5 -37.5q0 -31 23 -61h12
q63 0 112 23z" />
    <glyph glyph-name="uni06F5" unicode="&#x6f5;" horiz-adv-x="502" 
d="M218 580q39 -29 76 -65t81 -90t71 -122t27 -137q0 -78 -35 -124.5t-99 -46.5q-59 0 -92 48q-33 -48 -88 -48q-60 0 -95 41.5t-35 116.5q0 85 44 173.5t108 160.5q-20 16 -29 22l56 71h10zM335 87q52 0 52 69q0 134 -151 283q-54 -63 -89 -137.5t-35 -140.5q0 -74 51 -74
q49 0 57 86h62q4 -86 53 -86z" />
    <glyph glyph-name="uni06F6" unicode="&#x6f6;" horiz-adv-x="502" 
d="M424 374l8 -3l-9 -105q-105 -42 -161 -101.5t-104 -176.5l-78 11l-8 7q47 157 152 248q-117 65 -117 163q0 64 46.5 111.5t116.5 47.5q88 0 130 -66l-58 -52q-28 28 -66 28q-37 0 -55.5 -21t-18.5 -47q0 -69 103 -105q39 24 119 61z" />
    <glyph glyph-name="uni06F7" unicode="&#x6f7;" horiz-adv-x="502" 
d="M411 579l82 -59l-197 -516l-95 -13l-191 544l96 43l9 -1l133 -466l153 466z" />
    <glyph glyph-name="uni06F8" unicode="&#x6f8;" horiz-adv-x="502" 
d="M300 579l192 -544l-97 -43l-8 1l-133 465l-154 -466l-9 -1l-82 60l197 515z" />
    <glyph glyph-name="uni06F9" unicode="&#x6f9;" horiz-adv-x="502" 
d="M408 327q12 -169 43 -312l-87 -30l-9 3q-19 113 -35 266q-42 -11 -79 -11q-73 0 -118.5 33.5t-45.5 98.5q0 76 53 138.5t120 62.5q139 0 158 -249zM169 391q0 -53 85 -53q25 0 56 7q-9 70 -25 102.5t-46 32.5q-29 0 -49.5 -27.5t-20.5 -61.5z" />
    <glyph glyph-name="uni2007" unicode="&#x2007;" horiz-adv-x="540" 
 />
    <glyph glyph-name="uni200B" unicode="&#x200b;" 
 />
    <glyph glyph-name="uni200C" unicode="&#x200c;" 
d="M-8 -150v900h16v-900h-16z" />
    <glyph glyph-name="uni200D" unicode="&#x200d;" 
d="M-8 -150v881l-49 -49l-11 11l57 57l-54 54l11 11l54 -54l54 54l11 -11l-54 -54l57 -57l-11 -11l-49 49v-881h-16z" />
    <glyph glyph-name="uni200E" unicode="&#x200e;" 
d="M-8 -150v908h111l-43 55l13 9l55 -72l-55 -72l-13 9l43 55h-95v-892h-16z" />
    <glyph glyph-name="uni200F" unicode="&#x200f;" 
d="M-8 -150v892h-95l43 -55l-13 -9l-55 72l55 72l13 -9l-43 -55h111v-908h-16z" />
    <glyph glyph-name="uni2011" unicode="&#x2011;" horiz-adv-x="380" 
d="M47 220v96h286v-96h-286z" />
    <glyph glyph-name="figuredash" unicode="&#x2012;" horiz-adv-x="540" 
d="M47 276v96h446v-96h-446z" />
    <glyph glyph-name="endash" unicode="&#x2013;" horiz-adv-x="600" 
d="M47 220v96h506v-96h-506z" />
    <glyph glyph-name="emdash" unicode="&#x2014;" horiz-adv-x="1000" 
d="M47 220v96h906v-96h-906z" />
    <glyph glyph-name="uni2015" unicode="&#x2015;" horiz-adv-x="1000" 
d="M-2 220v96h1004v-96h-1004z" />
    <glyph glyph-name="quoteleft" unicode="&#x2018;" horiz-adv-x="186" 
d="M95 401q-29 0 -48.5 20.5t-19.5 56.5q0 78 88 183l47 -30q-48 -65 -48 -92q0 -14 11 -22q12 -8 17.5 -13.5t11 -16.5t5.5 -26q0 -26 -17.5 -43t-46.5 -17z" />
    <glyph glyph-name="quoteright" unicode="&#x2019;" horiz-adv-x="186" 
d="M71 401l-47 30q48 65 48 92q0 14 -11 22q-12 8 -17.5 13.5t-11 16.5t-5.5 26q0 26 17.5 43t46.5 17t48.5 -20.5t19.5 -56.5q0 -78 -88 -183z" />
    <glyph glyph-name="quotesinglbase" unicode="&#x201a;" horiz-adv-x="186" 
d="M71 -142l-47 30q48 65 48 92q0 14 -11 22q-12 8 -17.5 13.5t-11 16.5t-5.5 26q0 26 17.5 43t46.5 17t48.5 -20.5t19.5 -56.5q0 -78 -88 -183z" />
    <glyph glyph-name="quotedblleft" unicode="&#x201c;" horiz-adv-x="359" 
d="M95 401q-29 0 -48.5 20.5t-19.5 56.5q0 78 88 183l47 -30q-48 -65 -48 -92q0 -14 11 -22q12 -8 17.5 -13.5t11 -16.5t5.5 -26q0 -26 -17.5 -43t-46.5 -17zM268 401q-30 0 -49.5 20.5t-19.5 56.5q0 76 88 183l47 -30q-47 -67 -47 -92q0 -14 11 -22q12 -8 17.5 -13.5
t11 -16.5t5.5 -26q0 -26 -17.5 -43t-46.5 -17z" />
    <glyph glyph-name="quotedblright" unicode="&#x201d;" horiz-adv-x="359" 
d="M71 401l-47 30q48 65 48 92q0 14 -11 22q-12 8 -17.5 13.5t-11 16.5t-5.5 26q0 26 17.5 43t46.5 17t48.5 -20.5t19.5 -56.5q0 -78 -88 -183zM244 401l-47 30q48 65 48 92q0 14 -11 22q-12 8 -17.5 13.5t-11 16.5t-5.5 26q0 26 17.5 43t46.5 17t48.5 -20.5t19.5 -56.5
q0 -78 -88 -183z" />
    <glyph glyph-name="quotedblbase" unicode="&#x201e;" horiz-adv-x="359" 
d="M71 -142l-47 30q48 65 48 92q0 14 -11 22q-12 8 -17.5 13.5t-11 16.5t-5.5 26q0 26 17.5 43t46.5 17t48.5 -20.5t19.5 -56.5q0 -78 -88 -183zM244 -142l-47 30q48 65 48 92q0 14 -11 22q-12 8 -17.5 13.5t-11 16.5t-5.5 26q0 26 17.5 43t46.5 17t48.5 -20.5t19.5 -56.5
q0 -78 -88 -183z" />
    <glyph glyph-name="dagger" unicode="&#x2020;" horiz-adv-x="540" 
d="M214 -74v484h-158v98h158v180h112v-180h158v-98h-158v-484h-112z" />
    <glyph glyph-name="daggerdbl" unicode="&#x2021;" horiz-adv-x="540" 
d="M214 -74v180h-158v98h158v206h-158v98h158v180h112v-180h158v-98h-158v-206h158v-98h-158v-180h-112z" />
    <glyph glyph-name="bullet" unicode="&#x2022;" horiz-adv-x="336" 
d="M168 189q-44 0 -76 31t-32 75t32 75.5t76 31.5t76 -31.5t32 -75.5t-32 -75t-76 -31z" />
    <glyph glyph-name="ellipsis" unicode="&#x2026;" horiz-adv-x="636" 
d="M98 -11q-29 0 -50 20.5t-21 49.5t21 49.5t50 20.5t50 -20.5t21 -49.5t-21 -49.5t-50 -20.5zM318 -11q-29 0 -50 20.5t-21 49.5t21 49.5t50 20.5t50 -20.5t21 -49.5t-21 -49.5t-50 -20.5zM538 -11q-29 0 -50 20.5t-21 49.5t21 49.5t50 20.5t50 -20.5t21 -49.5t-21 -49.5
t-50 -20.5z" />
    <glyph glyph-name="perthousand" unicode="&#x2030;" horiz-adv-x="1370" 
d="M234 279q-82 0 -138 51t-56 141q0 87 56.5 138.5t137.5 51.5t137 -51t56 -138q0 -91 -55.5 -142t-137.5 -51zM285 -13l-72 48l454 626l72 -47zM234 363q42 0 65 30.5t23 76.5q0 48 -23 77.5t-65 29.5q-43 0 -66 -29t-23 -75q0 -48 23 -79t66 -31zM717 -13q-82 0 -138 51
t-56 141q0 87 56.5 138.5t137.5 51.5t137 -51t56 -138q0 -91 -55.5 -142t-137.5 -51zM1137 -13q-82 0 -138 51t-56 141q0 87 56.5 138.5t137.5 51.5t137 -51t56 -138q0 -91 -55.5 -142t-137.5 -51zM717 71q42 0 65 30.5t23 76.5q0 48 -23 77.5t-65 29.5q-43 0 -66 -29
t-23 -75q0 -48 23 -79t66 -31zM1137 71q42 0 65 30.5t23 76.5q0 48 -23 77.5t-65 29.5q-43 0 -66 -29t-23 -75q0 -48 23 -79t66 -31z" />
    <glyph glyph-name="guilsinglleft" unicode="&#x2039;" horiz-adv-x="320" 
d="M197 60l-151 163v91l151 162l57 -42l-111 -166l111 -165z" />
    <glyph glyph-name="guilsinglright" unicode="&#x203a;" horiz-adv-x="320" 
d="M123 60l-57 43l111 165l-111 166l57 42l151 -162v-91z" />
    <glyph glyph-name="fraction" unicode="&#x2044;" horiz-adv-x="236" 
d="M-81 -91l-76 41l474 790l76 -40z" />
    <glyph glyph-name="Euro" unicode="&#x20ac;" horiz-adv-x="540" 
d="M464 136l56 -70q-48 -43 -92 -61t-98 -18q-209 0 -243 237h-67l10 68h51v29q0 24 1 35h-62l10 68h59q21 120 88.5 178t161.5 58q98 0 177 -62l-51 -77q-56 46 -123 46q-116 0 -143 -143h222l-11 -68h-218q-1 -10 -1 -32t1 -32h211l-11 -68h-194q12 -73 45.5 -108.5
t92.5 -35.5q70 0 128 56z" />
    <glyph glyph-name="uni2113" unicode="&#x2113;" horiz-adv-x="540" 
d="M301 82q32 0 72 19l36 -72q-67 -42 -141 -42q-54 0 -87 32.5t-42 86.5q-29 -22 -60 -45l-34 44q42 35 92 81q6 229 75 372t176 143q106 0 106 -114q0 -72 -66 -177t-182 -213v-17q0 -98 55 -98zM377 617q-32 0 -70 -90t-53 -219q77 92 109.5 164t32.5 115q0 30 -19 30z
" />
    <glyph glyph-name="published" unicode="&#x2117;" horiz-adv-x="757" 
d="M380 660q140 0 238 -98t98 -239t-97.5 -238t-238.5 -97t-239.5 97t-98.5 238t98.5 239t239.5 98zM380 54q111 0 187 78.5t76 190.5q0 113 -76 192t-187 79q-112 0 -188.5 -79t-76.5 -192q0 -112 76.5 -190.5t188.5 -78.5zM392 511q80 0 120.5 -35t40.5 -94
q0 -54 -37.5 -94t-123.5 -40h-51v-106h-89v369h140zM386 323q75 0 75 58q0 55 -64 55h-56v-113h45z" />
    <glyph glyph-name="uni2120" unicode="&#x2120;" horiz-adv-x="888" 
d="M235 500q59 -20 89.5 -46t30.5 -77q0 -56 -40.5 -84t-112.5 -28q-89 0 -146 44l39 59q48 -33 106 -33q68 0 68 40q0 20 -14 31.5t-51 24.5l-17 5q-59 20 -86.5 45t-27.5 70q0 50 40.5 77t96.5 27q79 0 139 -38l-40 -59q-45 28 -96 28q-57 0 -57 -34q0 -15 13.5 -24.5
t48.5 -21.5zM745 648h95v-376h-84v241q-7 -24 -17 -42l-76 -149h-70l-78 150q-12 24 -17 40v-240h-84v376h99l77 -147q33 -62 40 -85q12 39 37 85z" />
    <glyph glyph-name="trademark" unicode="&#x2122;" horiz-adv-x="891" 
d="M25 573v75h344v-75h-127v-301h-90v301h-127zM745 648h95v-376h-84v241q-7 -24 -17 -42l-76 -149h-70l-78 150q-12 24 -17 40v-240h-84v376h99l77 -147q33 -62 40 -85q12 39 37 85z" />
    <glyph glyph-name="uni2126" unicode="&#x2126;" horiz-adv-x="731" 
d="M681 331q0 -169 -117 -239q62 5 112 5v-97h-231v84q118 56 118 246q0 105 -50.5 170.5t-148.5 65.5q-97 0 -146.5 -64.5t-49.5 -167.5q0 -189 119 -250v-84h-231v97q50 0 112 -5q-118 71 -118 241q0 82 26.5 146.5t71.5 103t101.5 58.5t120.5 20q145 0 228 -92t83 -238z
" />
    <glyph glyph-name="estimated" unicode="&#x212e;" horiz-adv-x="826" 
d="M413 660q169 0 268 -100t99 -246h-586q-5 0 -9 -3.5t-4 -8.5v-160q0 -28 15 -42q88 -88 217 -88q69 0 129.5 29t99.5 76h66q-38 -53 -113 -90.5t-182 -37.5q-166 0 -267 93.5t-101 240.5q0 146 100 241.5t268 95.5zM413 635q-129 0 -217 -90q-15 -14 -15 -39v-160
q0 -11 13 -11h436q13 0 13 11v160q0 25 -15 39q-90 90 -215 90z" />
    <glyph glyph-name="partialdiff" unicode="&#x2202;" horiz-adv-x="540" 
d="M158 661q85 -25 143 -55t105 -76t69 -114t22 -161q0 -126 -61 -197t-167 -71q-99 0 -162.5 53t-63.5 164q0 103 55.5 156t139.5 53q74 0 138 -41q-20 85 -78.5 130t-176.5 82zM265 76q122 0 122 181q0 22 -1 33q-59 36 -117 36q-65 0 -91 -31.5t-26 -94.5q0 -58 28.5 -91
t84.5 -33z" />
    <glyph glyph-name="uni2206" unicode="&#x2206;" horiz-adv-x="648" 
d="M394 648l239 -641v-7h-618v7l238 641h141zM164 93h316l-159 449z" />
    <glyph glyph-name="product" unicode="&#x220f;" horiz-adv-x="540" 
d="M523 648l-11 -88h-49v-746h-108v746h-174v-746h-108v746h-55v88h505z" />
    <glyph glyph-name="summation" unicode="&#x2211;" horiz-adv-x="540" 
d="M383 213l-184 -302h292l-1 -97h-441v55l230 372l-230 352v55h441l1 -97h-291l183 -282v-56z" />
    <glyph glyph-name="minus" unicode="&#x2212;" horiz-adv-x="540" 
d="M66 209v92h408v-92h-408z" />
    <glyph glyph-name="uni2215" unicode="&#x2215;" horiz-adv-x="540" 
d="M119 -12l-76 41l378 632l76 -41z" />
    <glyph glyph-name="uni2219" unicode="&#x2219;" horiz-adv-x="540" 
d="M270 186q-29 0 -50 20.5t-21 49.5t21 49.5t50 20.5t50 -20.5t21 -49.5t-21 -49.5t-50 -20.5z" />
    <glyph glyph-name="radical" unicode="&#x221a;" horiz-adv-x="540" 
d="M182 0l-169 423l106 34l112 -300l205 687h271v-94h-191l-226 -750h-108z" />
    <glyph glyph-name="infinity" unicode="&#x221e;" horiz-adv-x="777" 
d="M560 453q88 0 137.5 -50t49.5 -133q0 -79 -54 -130.5t-144 -51.5q-55 0 -99 29.5t-65 76.5q-58 -106 -168 -106q-88 0 -137.5 50.5t-49.5 133.5q0 79 54 130t144 51q55 0 99 -29.5t65 -76.5q58 106 168 106zM228 168q70 0 121 103q-17 33 -30 51.5t-37.5 34.5t-55.5 16
q-39 0 -68.5 -23.5t-29.5 -77.5q0 -56 29 -80t71 -24zM551 168q39 0 68 24t29 78q0 55 -28.5 79t-70.5 24q-72 0 -121 -103q17 -33 30 -51.5t37.5 -34.5t55.5 -16z" />
    <glyph glyph-name="integral" unicode="&#x222b;" horiz-adv-x="300" 
d="M36 -196q-70 0 -125 24l30 81q40 -14 81 -14q36 0 53.5 22.5t17.5 59.5v696q0 83 53 130.5t131 47.5q58 0 112 -19l-27 -85q-39 14 -79 14q-82 0 -82 -95v-697q0 -77 -44.5 -121t-120.5 -44z" />
    <glyph glyph-name="approxequal" unicode="&#x2248;" horiz-adv-x="540" 
d="M342 272q-41 0 -89 26.5t-63 26.5q-21 0 -35 -10.5t-28 -36.5l-68 25q45 117 142 117q41 0 89 -26.5t63 -26.5q36 0 60 47l68 -25q-45 -117 -139 -117zM342 97q-41 0 -89 26.5t-63 26.5q-21 0 -35 -10.5t-28 -36.5l-68 25q45 117 142 117q41 0 89 -26.5t63 -26.5
q36 0 60 47l68 -25q-45 -117 -139 -117z" />
    <glyph glyph-name="notequal" unicode="&#x2260;" horiz-adv-x="540" 
d="M474 293h-135l-43 -74h178v-92h-230l-92 -161l-74 37l71 124h-83v92h136l42 74h-178v91h230l92 161l74 -36l-71 -125h83v-91z" />
    <glyph glyph-name="lessequal" unicode="&#x2264;" horiz-adv-x="540" 
d="M474 399l-325 -106l325 -88l-20 -88l-388 109v130l372 128zM66 0v91h408v-91h-408z" />
    <glyph glyph-name="greaterequal" unicode="&#x2265;" horiz-adv-x="540" 
d="M102 484l372 -128v-130l-388 -109l-20 88l325 88l-325 106zM66 0v92h408v-92h-408z" />
    <glyph glyph-name="lozenge" unicode="&#x25ca;" horiz-adv-x="540" 
d="M219 0l-201 322l201 326h109l194 -324l-197 -324h-106zM271 88l138 235l-140 238l-138 -238z" />
    <glyph glyph-name="uniFBB2" unicode="&#xfbb2;" 
d="M113 457l-93 65l58 86l93 -64z" />
    <glyph glyph-name="uniFBB3" unicode="&#xfbb3;" 
d="M113 -225l-93 65l58 85l93 -63z" />
    <glyph glyph-name="uniFBB4" unicode="&#xfbb4;" 
d="M105 459l-90 63l55 84l90 -62zM246 459l-90 63l56 84l90 -62z" />
    <glyph glyph-name="uniFBB5" unicode="&#xfbb5;" 
d="M106 -222l-91 63l56 84l90 -62zM249 -222l-90 63l56 84l90 -62z" />
    <glyph glyph-name="uniFBB6" unicode="&#xfbb6;" 
d="M161 585l-91 64l57 83l90 -61zM105 459l-91 63l56 84l90 -62zM246 459l-90 63l57 84l90 -62z" />
    <glyph glyph-name="uniFBB9" unicode="&#xfbb9;" 
d="M111 -220l-90 62l57 85l90 -64zM254 -220l-89 62l54 85l91 -64zM196 -335l-91 61l57 86l90 -64z" />
    <glyph glyph-name="uniFD3E" unicode="&#xfd3e;" horiz-adv-x="545" 
d="M486 -205q-10 0 -26 10q-54 35 -123.5 117.5t-94.5 163.5q-42 -17 -74 -17q-25 0 -25 13q0 15 19 34l55 56q12 12 12 20q0 6 -7 6q-8 0 -19 -8l-64 -47q-19 -14 -26 -14q-13 0 -13 28q0 15 6 39q-61 26 -61 50q0 13 14 24t47 26q-6 24 -6 39q0 28 13 28q7 0 26 -14
l64 -47q11 -8 19 -8q7 0 7 6q0 8 -12 20l-55 56q-19 19 -19 34q0 13 25 13q32 0 74 -17q25 82 95 165.5t123 115.5q16 10 26 10q7 0 7 -6q0 -7 -12 -20q-137 -149 -151 -262q31 9 47 9q22 0 22 -15q0 -11 -12 -23l-55 -60q-11 -12 -11 -20q0 -6 7 -6q8 0 19 8l64 47
q19 14 26 14q13 0 13 -28q0 -15 -6 -39q61 -26 61 -50t-61 -50q6 -24 6 -39q0 -28 -13 -28q-7 0 -26 14l-64 47q-11 8 -19 8q-7 0 -7 -6q0 -8 11 -20l55 -60q12 -12 12 -23q0 -15 -22 -15q-16 0 -47 9q13 -108 151 -262q12 -13 12 -20q0 -6 -7 -6zM245 320l2 1q-3 7 -3 13
q0 20 30 20q31 0 31 -18q0 -6 -3 -14l2 -1l55 63q8 9 8 12t-4 3q-16 0 -60 -25q6 61 28 113q4 10 8.5 19.5t7 14.5t4 9.5t1.5 6.5q0 6 -4 6q-8 0 -26 -25q-46 -64 -64 -145q-62 30 -76 30q-5 0 -5 -2q0 -3 6 -9zM125 162q4 0 18 10l58 43l-1 2q-9 -3 -15 -3q-21 0 -21 32
t21 32q6 0 15 -3l1 2l-58 43q-14 10 -18 10t-4 -8q0 -19 7 -45q-59 -14 -59 -31t59 -31q-7 -26 -7 -45q0 -8 4 -8zM425 162q4 0 4 8q0 19 -7 45q59 14 59 31t-59 31q7 26 7 45q0 8 -4 8t-18 -10l-58 -43l1 -2q9 3 15 3q21 0 21 -32t-21 -32q-6 0 -15 3l-1 -2l58 -43
q14 -10 18 -10zM275 196q21 0 35.5 14.5t14.5 35.5t-14.5 35.5t-35.5 14.5t-35.5 -14.5t-14.5 -35.5t14.5 -35.5t35.5 -14.5zM348 -51q4 0 4 6q0 3 -2 8t-8 17.5t-11 24.5q-22 52 -28 113q44 -25 60 -25q3 0 3 3q0 4 -4 8l-58 67l-2 -1q3 -8 3 -14q0 -18 -31 -18
q-30 0 -30 20q0 6 3 13l-2 1l-62 -72q-6 -6 -6 -9q0 -2 4 -2q15 0 77 30q18 -81 64 -145q18 -25 26 -25z" />
    <glyph glyph-name="uniFD3F" unicode="&#xfd3f;" horiz-adv-x="545" 
d="M59 -205q-7 0 -7 6t12 20q138 154 151 262q-31 -9 -47 -9q-22 0 -22 15q0 11 12 23l55 60q11 12 11 20q0 6 -7 6q-8 0 -19 -8l-64 -47q-19 -14 -26 -14q-13 0 -13 28q0 15 6 39q-61 26 -61 50t61 50q-6 24 -6 39q0 28 13 28q7 0 26 -14l64 -47q11 -8 19 -8q7 0 7 6
q0 8 -11 20l-55 60q-12 12 -12 23q0 15 22 15q16 0 47 -9q-14 113 -151 262q-12 13 -12 20q0 6 7 6q10 0 26 -10q53 -32 123 -115.5t95 -165.5q42 17 74 17q25 0 25 -13q0 -15 -19 -34l-55 -56q-12 -12 -12 -20q0 -6 7 -6q8 0 19 8l64 47q19 14 26 14q13 0 13 -28
q0 -15 -6 -39q33 -15 47 -26t14 -24q0 -24 -61 -50q6 -24 6 -39q0 -28 -13 -28q-7 0 -26 14l-64 47q-11 8 -19 8q-7 0 -7 -6q0 -8 12 -20l55 -56q19 -19 19 -34q0 -13 -25 -13q-32 0 -74 17q-25 -81 -94.5 -163.5t-123.5 -117.5q-16 -10 -26 -10zM300 320l62 72q6 6 6 9
q0 2 -5 2q-14 0 -76 -30q-18 81 -64 145q-18 25 -26 25q-4 0 -4 -6q0 -3 2 -8t8 -17.5t11 -24.5q22 -52 28 -113q-44 25 -60 25q-4 0 -4 -3t8 -12l55 -63l2 1q-3 8 -3 14q0 18 31 18q30 0 30 -20q0 -6 -3 -13zM120 162q4 0 18 10l58 43l-1 2q-9 -3 -15 -3q-21 0 -21 32
t21 32q6 0 15 -3l1 2l-58 43q-14 10 -18 10t-4 -8q0 -19 7 -45q-59 -14 -59 -31t59 -31q-7 -26 -7 -45q0 -8 4 -8zM420 162q4 0 4 8q0 19 -7 45q59 14 59 31t-59 31q7 26 7 45q0 8 -4 8t-18 -10l-58 -43l1 -2q9 3 15 3q21 0 21 -32t-21 -32q-6 0 -15 3l-1 -2l58 -43
q14 -10 18 -10zM270 196q21 0 35.5 14.5t14.5 35.5t-14.5 35.5t-35.5 14.5t-35.5 -14.5t-14.5 -35.5t14.5 -35.5t35.5 -14.5zM197 -51q8 0 26 25q46 64 64 145q62 -30 77 -30q4 0 4 2q0 3 -6 9l-62 72l-2 -1q3 -8 3 -13q0 -20 -30 -20q-31 0 -31 18q0 6 3 14l-2 1l-58 -67
q-4 -4 -4 -8q0 -3 3 -3q16 0 60 25q-6 -61 -28 -113q-4 -10 -8.5 -19.5t-7 -14.5t-4 -9.5t-1.5 -6.5q0 -6 4 -6z" />
    <glyph glyph-name="uniFEFF" unicode="&#xfeff;" 
 />
    <glyph glyph-name="f.short" horiz-adv-x="330" 
d="M199 522v-79h127l-11 -85h-116v-358h-108v358h-74v85h74v77q0 79 43 126.5t121 47.5q48 0 87 -17l-32 -83q-21 9 -47 9q-64 0 -64 -81z" />
    <glyph glyph-name="j.short" horiz-adv-x="239" 
d="M119 523q-30 0 -51.5 21t-21.5 50t21.5 50.5t51.5 21.5t51.5 -21.5t21.5 -50.5t-21.5 -50t-51.5 -21zM44 -199q-34 0 -62 11l24 80q9 -3 20 -3q40 0 40 53v501l108 12v-506q0 -72 -35.5 -110t-94.5 -38z" />
    <glyph glyph-name="uni0627.short" horiz-adv-x="226" 
d="M70 -6l-7 4v665l92 24l7 -5l-1 -669z" />
    <glyph glyph-name="uniFE8E.short" horiz-adv-x="226" 
d="M70 -6l-7 4v665l92 24l7 -5l-1 -669z" />
    <glyph glyph-name="uni066E.medi.wide" horiz-adv-x="347" 
d="M370 99q40 0 40 -33q0 -66 -62 -66q-115 0 -172 47q-52 -47 -142 -47h-34l23 99h27q51 0 73 16q19 36 42 147l100 24l10 -7q-24 -104 -47 -155q48 -25 142 -25z" />
    <glyph glyph-name="uni066E.init.wide" horiz-adv-x="305" 
d="M0 0l23 99h29q80 0 102 10q16 52 -48 184l79 64h10q53 -118 53 -191q0 -79 -50 -127q-23 -22 -59 -30.5t-108 -8.5h-31z" />
    <glyph glyph-name="uniFE91.yeh" horiz-adv-x="267" 
d="M38 -17l-38 47q60 22 87 44q-5 55 -52 152l80 64h11q53 -128 53 -183q0 -73 -90 -123zM169 -472l-93 65l58 85l93 -63z" />
    <glyph glyph-name="uniFBE8.yeh" horiz-adv-x="267" 
d="M38 -17l-38 47q60 22 87 44q-5 55 -52 152l80 64h11q53 -128 53 -183q0 -73 -90 -123z" />
    <glyph glyph-name="uniFE97.yeh" horiz-adv-x="267" 
d="M23 374l-90 63l55 84l90 -62zM164 374l-90 63l56 84l90 -62zM38 -17l-38 47q60 22 87 44q-5 55 -52 152l80 64h11q53 -128 53 -183q0 -73 -90 -123z" />
    <glyph glyph-name="uniFE9B.yeh" horiz-adv-x="267" 
d="M85 500l-91 64l57 83l90 -61zM29 374l-91 63l56 84l90 -62zM170 374l-90 63l57 84l90 -62zM38 -17l-38 47q60 22 87 44q-5 55 -52 152l80 64h11q53 -128 53 -183q0 -73 -90 -123z" />
    <glyph glyph-name="uni0631.beh" horiz-adv-x="351" 
d="M44 -165l-48 71l4 10q98 28 156.5 71.5t58.5 78.5q-4 55 -72 177l71 79h9q33 -59 52 -122.5t19 -109.5q0 -68 -36 -121q-63 -93 -214 -134z" />
    <glyph glyph-name="uniFEAE.beh" horiz-adv-x="366" 
d="M388 99q41 0 41 -33q0 -66 -64 -66q-50 0 -82 22q-21 -61 -85.5 -111t-153.5 -76l-48 71l4 10q98 28 148.5 68.5t69.5 94.5q-25 63 -76 164l72 79h10q9 -27 19.5 -54.5t20 -53t12.5 -32.5q21 -53 41 -68t71 -15z" />
    <glyph glyph-name="uniFEB0.beh" horiz-adv-x="366" 
d="M275 514l-58 -87l-93 65l58 86zM388 99q41 0 41 -33q0 -66 -64 -66q-50 0 -82 22q-21 -61 -85.5 -111t-153.5 -76l-48 71l4 10q98 28 148.5 68.5t69.5 94.5q-25 63 -76 164l72 79h10q9 -27 19.5 -54.5t20 -53t12.5 -32.5q21 -53 41 -68t71 -15z" />
    <glyph glyph-name="uni0632.beh" horiz-adv-x="351" 
d="M217 427l-93 65l58 86l93 -64zM44 -165l-48 71l4 10q98 28 156.5 71.5t58.5 78.5q-4 55 -72 177l71 79h9q33 -59 52 -122.5t19 -109.5q0 -68 -36 -121q-63 -93 -214 -134z" />
    <glyph glyph-name="uniFED3.yeh" horiz-adv-x="383" 
d="M222 676l-58 -87l-93 65l58 86zM155 494q72 0 116 -73t44 -175q0 -57 -10.5 -95.5t-35 -65t-55.5 -43t-83 -34.5l-37 85q73 16 131 53q4 13 7 44q-46 -11 -100 -11q-66 0 -99 31t-33 87q0 72 46.5 134.5t108.5 62.5zM78 311q0 -42 74 -42q46 0 82 7q-5 49 -29.5 86
t-55.5 37q-27 0 -49 -27.5t-22 -60.5z" />
    <glyph glyph-name="uniFB6C.yeh" horiz-adv-x="383" 
d="M209 803l-56 -86l-91 64l57 83zM152 676l-55 -85l-91 63l56 84zM148 654l57 84l90 -62l-57 -85zM155 494q72 0 116 -73t44 -175q0 -57 -10.5 -95.5t-35 -65t-55.5 -43t-83 -34.5l-37 85q73 16 131 53q4 13 7 44q-46 -11 -100 -11q-66 0 -99 31t-33 87q0 72 46.5 134.5
t108.5 62.5zM78 311q0 -42 74 -42q46 0 82 7q-5 49 -29.5 86t-55.5 37q-27 0 -49 -27.5t-22 -60.5z" />
    <glyph glyph-name="uni06A1.init.yeh" horiz-adv-x="383" 
d="M155 494q72 0 116 -73t44 -175q0 -57 -10.5 -95.5t-35 -65t-55.5 -43t-83 -34.5l-37 85q73 16 131 53q4 13 7 44q-46 -11 -100 -11q-66 0 -99 31t-33 87q0 72 46.5 134.5t108.5 62.5zM78 311q0 -42 74 -42q46 0 82 7q-5 49 -29.5 86t-55.5 37q-27 0 -49 -27.5t-22 -60.5z
" />
    <glyph glyph-name="uniFED7.yeh" horiz-adv-x="383" 
d="M146 676l-55 -85l-90 63l55 84zM232 591l-90 63l56 84l90 -62zM155 494q72 0 116 -73t44 -175q0 -57 -10.5 -95.5t-35 -65t-55.5 -43t-83 -34.5l-37 85q73 16 131 53q4 13 7 44q-46 -11 -100 -11q-66 0 -99 31t-33 87q0 72 46.5 134.5t108.5 62.5zM78 311q0 -42 74 -42
q46 0 82 7q-5 49 -29.5 86t-55.5 37q-27 0 -49 -27.5t-22 -60.5z" />
    <glyph glyph-name="uniFEE0.yeh" horiz-adv-x="444" 
d="M468 99q39 0 39 -33q0 -66 -62 -66q-123 0 -160 113q-68 -38 -220 -45l-65 82q197 14 254 41q8 30 8 79v393l91 24l8 -5v-411q0 -87 22.5 -129.5t84.5 -42.5z" />
    <glyph glyph-name="uniFEDF.yeh" horiz-adv-x="283" 
d="M45 6l-54 82q85 16 123 40q7 32 7 84v397l90 23l8 -4v-419q0 -79 -38.5 -129t-135.5 -74z" />
    <glyph glyph-name="uniFEE7.yeh" horiz-adv-x="267" 
d="M96 372l-93 65l58 86l93 -64zM38 -17l-38 47q60 22 87 44q-5 55 -52 152l80 64h11q53 -128 53 -183q0 -73 -90 -123z" />
    <glyph glyph-name="uniFEF0.yeh" horiz-adv-x="629" 
d="M327 -186q-139 0 -212 56t-73 147q0 59 16 112l81 28l9 -5q-11 -52 -11 -89q0 -73 47 -111.5t162 -38.5q104 0 182.5 20.5t96.5 53.5q0 43 -163 81l28 88q132 -34 179 -66.5t47 -76.5q-7 -92 -115 -145.5t-274 -53.5z" />
    <glyph glyph-name="uniFEF2.yeh" horiz-adv-x="629" 
d="M327 -186q-139 0 -212 56t-73 147q0 59 16 112l81 28l9 -5q-11 -52 -11 -89q0 -73 47 -111.5t162 -38.5q104 0 182.5 20.5t96.5 53.5q0 43 -163 81l28 88q132 -34 179 -66.5t47 -76.5q-7 -92 -115 -145.5t-274 -53.5zM272 -408l-91 63l56 84l90 -62zM415 -408l-90 63
l56 84l90 -62z" />
    <glyph glyph-name="uniFEF3.yeh" horiz-adv-x="267" 
d="M38 -17l-38 47q60 22 87 44q-5 55 -52 152l80 64h11q53 -128 53 -183q0 -73 -90 -123zM94 -469l-91 63l56 84l90 -62zM237 -469l-90 63l56 84l90 -62z" />
    <glyph glyph-name="uniFE8A.yeh" horiz-adv-x="629" 
d="M80 297l-6 62q30 0 46 1q-20 26 -20 60q0 37 22.5 59.5t62.5 22.5q35 0 72 -15l-16 -58q-30 10 -45 10q-17 0 -26.5 -10t-9.5 -25q0 -24 19 -41q62 4 89 7l5 -59q-79 -10 -193 -14zM490 156q132 -34 179 -66.5t47 -76.5q-7 -92 -115 -145.5t-274 -53.5q-139 0 -212 56
t-73 147q0 59 16 112l81 28l9 -5q-11 -52 -11 -89q0 -73 47 -111.5t162 -38.5q104 0 182.5 20.5t96.5 53.5q0 43 -163 81z" />
    <glyph glyph-name="uniFE8B.yeh" horiz-adv-x="267" 
d="M170 487l5 -59q-79 -10 -193 -14l-6 62q30 0 46 1q-20 26 -20 60q0 37 22.5 59.5t62.5 22.5q35 0 72 -15l-16 -58q-30 10 -45 10q-17 0 -26.5 -10t-9.5 -25q0 -24 19 -41q62 4 89 7zM126 290q53 -128 53 -183q0 -73 -90 -123l-51 -1l-38 47q60 22 87 44q-5 55 -52 152
l80 64h11z" />
    <glyph glyph-name="zero.osf" horiz-adv-x="582" 
d="M285 -13q-111 0 -172 70t-61 182q0 69 21.5 120.5t58 79t78 40.5t88.5 13q109 0 170.5 -70t61.5 -184q0 -68 -20.5 -118t-56.5 -78t-78 -41.5t-90 -13.5zM290 73q128 0 128 166q0 80 -32 124t-93 44q-129 0 -129 -168q0 -79 32 -122.5t94 -43.5z" />
    <glyph glyph-name="one.osf" horiz-adv-x="431" 
d="M296 90h119v-90h-379v90h152v274l-121 -63l-44 62l165 116h108v-389z" />
    <glyph glyph-name="two.osf" horiz-adv-x="452" 
d="M215 90h202v-90h-392v49q161 124 214.5 178t53.5 103q0 69 -84 69q-67 0 -129 -53l-60 66q88 80 204 80q85 0 134.5 -38.5t49.5 -110.5q0 -61 -43.5 -117t-149.5 -136z" />
    <glyph glyph-name="three.osf" horiz-adv-x="451" 
d="M295 196q119 -35 119 -154q0 -87 -55.5 -141t-168.5 -54q-94 0 -164 36l36 81q62 -28 123 -28q55 0 86 26.5t31 74.5q0 50 -30.5 77t-107.5 27h-44l7 79h74q51 23 71.5 49.5t20.5 65.5q0 30 -22.5 51t-63.5 21q-67 0 -132 -55l-57 61q84 79 194 79q93 0 142 -42t49 -109
q0 -100 -108 -145z" />
    <glyph glyph-name="four.osf" horiz-adv-x="514" 
d="M489 89v-89h-83v-141h-111v141h-260v49l171 431h120l-167 -391h136l21 175h90v-175h83z" />
    <glyph glyph-name="five.osf" horiz-adv-x="450" 
d="M216 246q92 0 146.5 -50.5t54.5 -140.5t-53.5 -149t-169.5 -59q-96 0 -166 35l36 80q62 -27 119 -27q59 0 90 31.5t31 80.5q0 54 -30.5 85t-105.5 31q-45 0 -67 -8l-39 31v294h340l-13 -90h-216v-147q19 3 43 3z" />
    <glyph glyph-name="six.osf" horiz-adv-x="541" 
d="M306 400q80 0 134 -51.5t54 -148.5q0 -58 -20.5 -101.5t-55 -67t-71.5 -34t-77 -10.5q-102 0 -160 70t-58 189q0 187 76 284.5t196 97.5q59 0 127 -22l-24 -83q-51 18 -104 18q-130 0 -157 -184q66 43 140 43zM274 74q53 0 83.5 32t30.5 87q0 60 -26 90.5t-87 30.5
q-55 0 -115 -36q-1 -11 -1 -32q0 -83 29 -127.5t86 -44.5z" />
    <glyph glyph-name="seven.osf" horiz-adv-x="446" 
d="M29 480h401v-48q-195 -286 -236 -573h-118q35 263 223 531h-282z" />
    <glyph glyph-name="eight.osf" horiz-adv-x="546" 
d="M359 334q73 -36 107 -75.5t34 -98.5q0 -82 -59 -127.5t-166 -45.5t-167.5 44.5t-60.5 123.5q0 51 31 90.5t105 72.5q-103 63 -103 153q0 74 56.5 115.5t140.5 41.5q89 0 140.5 -43.5t51.5 -107.5q0 -82 -110 -143zM275 546q-41 0 -63.5 -20t-22.5 -54q0 -31 22.5 -54.5
t77.5 -50.5q71 38 71 99q0 80 -85 80zM275 71q56 0 84.5 24.5t28.5 58.5q0 45 -30.5 71t-102.5 58q-53 -26 -74.5 -53.5t-21.5 -62.5q0 -41 29.5 -68.5t86.5 -27.5z" />
    <glyph glyph-name="nine.osf" horiz-adv-x="539" 
d="M272 492q104 0 160.5 -67.5t56.5 -188.5q0 -192 -73.5 -291t-198.5 -99q-59 0 -129 25l25 81q60 -20 105 -20q130 0 157 187q-67 -45 -141 -45q-80 0 -133.5 53t-53.5 155q0 56 20.5 98.5t54.5 66t72 34.5t78 11zM266 160q57 0 115 36q1 13 1 38q0 171 -111 171
q-58 0 -88 -32t-30 -88q0 -125 113 -125z" />
    <glyph glyph-name="zero.dnom" horiz-adv-x="360" 
d="M176 -10q-75 0 -118 52t-43 158q0 62 15.5 105.5t42 64.5t53.5 29.5t58 8.5q161 0 161 -209q0 -62 -15.5 -106t-42 -65t-53.5 -29.5t-58 -8.5zM178 73q36 0 51.5 28.5t15.5 98.5q0 126 -63 126q-35 0 -51 -28.5t-16 -98.5q0 -126 63 -126z" />
    <glyph glyph-name="one.dnom" horiz-adv-x="359" 
d="M150 400h97v-400h-97v300l-80 -31l-38 55z" />
    <glyph glyph-name="two.dnom" horiz-adv-x="360" 
d="M326 295q0 -41 -30.5 -87.5t-116.5 -128.5h144v-79h-288v45q116 113 152 158.5t36 74.5q0 47 -53 47q-39 0 -85 -35l-50 59q64 59 149 59q63 0 102.5 -28.5t39.5 -84.5z" />
    <glyph glyph-name="three.dnom" horiz-adv-x="359" 
d="M249 219q80 -25 80 -99q0 -56 -40.5 -92.5t-128.5 -36.5q-77 0 -129 26l33 70q39 -17 90 -17q76 0 76 49q0 25 -19.5 38t-72.5 13h-31l6 70h55q54 21 54 56q0 15 -13 25.5t-39 10.5q-46 0 -90 -32l-50 54q63 54 145 54q70 0 107.5 -28t37.5 -74q0 -57 -71 -87z" />
    <glyph glyph-name="four.dnom" horiz-adv-x="360" 
d="M349 163v-77h-50v-86h-97v86h-192v43l117 271h108l-112 -237h79l19 90h78v-90h50z" />
    <glyph glyph-name="five.dnom" horiz-adv-x="360" 
d="M186 251q64 0 103 -31.5t39 -90.5q0 -57 -40 -97t-130 -40q-70 0 -127 25l33 71q42 -17 87 -17q39 0 58.5 15.5t19.5 37.5q0 27 -18.5 42t-68.5 15q-32 0 -50 -6l-34 28v197h258l-12 -79h-151v-72q20 2 33 2z" />
    <glyph glyph-name="six.dnom" horiz-adv-x="360" 
d="M210 265q54 0 91 -34.5t37 -97.5q0 -75 -49 -108.5t-110 -33.5q-73 0 -115.5 46.5t-42.5 126.5q0 123 54.5 183.5t139.5 60.5q44 0 92 -15l-21 -71q-33 12 -70 12q-79 0 -93 -95q40 26 87 26zM183 68q60 0 60 60q0 68 -62 68q-29 0 -63 -18v-14q0 -96 65 -96z" />
    <glyph glyph-name="seven.dnom" horiz-adv-x="359" 
d="M35 400h300v-43q-141 -179 -165 -357h-102q8 77 47 161t104 160h-194z" />
    <glyph glyph-name="eight.dnom" horiz-adv-x="359" 
d="M252 218q49 -25 71.5 -49.5t22.5 -62.5q0 -55 -43 -85t-123 -30q-78 0 -122 29t-44 81q0 67 91 105q-68 40 -68 98q0 51 41.5 77.5t103.5 26.5q66 0 104 -27.5t38 -70.5q0 -52 -72 -92zM181 339q-23 0 -35.5 -10t-12.5 -25q0 -28 60 -58q36 22 36 54q0 39 -48 39zM181 65
q33 0 49 12t16 30q0 23 -16.5 35.5t-61.5 33.5q-54 -27 -54 -63q0 -20 16.5 -34t50.5 -14z" />
    <glyph glyph-name="nine.dnom" horiz-adv-x="360" 
d="M181 408q74 0 115.5 -45t41.5 -125q0 -123 -53.5 -185t-141.5 -62q-48 0 -94 16l22 68q36 -12 71 -12q78 0 96 95q-41 -25 -87 -25q-56 0 -92.5 35.5t-36.5 101.5q0 71 49.5 104.5t109.5 33.5zM178 204q32 0 66 17v21q0 93 -63 93q-31 0 -48 -16t-17 -46q0 -69 62 -69z
" />
    <glyph glyph-name="zero.numr" horiz-adv-x="360" 
d="M176 207q-75 0 -118 52t-43 158q0 62 15.5 105.5t42 64.5t53.5 29.5t58 8.5q161 0 161 -209q0 -62 -15.5 -106t-42 -65t-53.5 -29.5t-58 -8.5zM178 290q36 0 51.5 28.5t15.5 98.5q0 126 -63 126q-35 0 -51 -28.5t-16 -98.5q0 -126 63 -126z" />
    <glyph glyph-name="one.numr" horiz-adv-x="359" 
d="M150 617h97v-400h-97v300l-80 -31l-38 55z" />
    <glyph glyph-name="two.numr" horiz-adv-x="360" 
d="M326 512q0 -41 -30.5 -87.5t-116.5 -128.5h144v-79h-288v45q116 113 152 158.5t36 74.5q0 47 -53 47q-39 0 -85 -35l-50 59q64 59 149 59q63 0 102.5 -28.5t39.5 -84.5z" />
    <glyph glyph-name="three.numr" horiz-adv-x="359" 
d="M249 436q80 -25 80 -99q0 -56 -40.5 -92.5t-128.5 -36.5q-77 0 -129 26l33 70q39 -17 90 -17q76 0 76 49q0 25 -19.5 38t-72.5 13h-31l6 70h55q54 21 54 56q0 15 -13 25.5t-39 10.5q-46 0 -90 -32l-50 54q63 54 145 54q70 0 107.5 -28t37.5 -74q0 -57 -71 -87z" />
    <glyph glyph-name="four.numr" horiz-adv-x="360" 
d="M349 380v-77h-50v-86h-97v86h-192v43l117 271h108l-112 -237h79l19 90h78v-90h50z" />
    <glyph glyph-name="five.numr" horiz-adv-x="360" 
d="M186 468q64 0 103 -31.5t39 -90.5q0 -57 -40 -97t-130 -40q-70 0 -127 25l33 71q42 -17 87 -17q39 0 58.5 15.5t19.5 37.5q0 27 -18.5 42t-68.5 15q-32 0 -50 -6l-34 28v197h258l-12 -79h-151v-72q20 2 33 2z" />
    <glyph glyph-name="six.numr" horiz-adv-x="360" 
d="M210 482q54 0 91 -34.5t37 -97.5q0 -75 -49 -108.5t-110 -33.5q-73 0 -115.5 46.5t-42.5 126.5q0 123 54.5 183.5t139.5 60.5q44 0 92 -15l-21 -71q-33 12 -70 12q-79 0 -93 -95q40 26 87 26zM183 285q60 0 60 60q0 68 -62 68q-29 0 -63 -18v-14q0 -96 65 -96z" />
    <glyph glyph-name="seven.numr" horiz-adv-x="359" 
d="M35 617h300v-43q-141 -179 -165 -357h-102q8 77 47 161t104 160h-194z" />
    <glyph glyph-name="eight.numr" horiz-adv-x="359" 
d="M252 435q49 -25 71.5 -49.5t22.5 -62.5q0 -55 -43 -85t-123 -30q-78 0 -122 29t-44 81q0 67 91 105q-68 40 -68 98q0 51 41.5 77.5t103.5 26.5q66 0 104 -27.5t38 -70.5q0 -52 -72 -92zM181 556q-23 0 -35.5 -10t-12.5 -25q0 -28 60 -58q36 23 36 54q0 39 -48 39z
M181 282q33 0 49 12t16 30q0 23 -16.5 35.5t-61.5 33.5q-54 -27 -54 -63q0 -20 16.5 -34t50.5 -14z" />
    <glyph glyph-name="nine.numr" horiz-adv-x="360" 
d="M181 625q74 0 115.5 -45t41.5 -125q0 -123 -53.5 -185t-141.5 -62q-48 0 -94 16l22 68q36 -12 71 -12q78 0 96 95q-41 -25 -87 -25q-56 0 -92.5 35.5t-36.5 101.5q0 71 49.5 104.5t109.5 33.5zM178 421q32 0 66 17v21q0 93 -63 93q-31 0 -48 -16t-17 -46q0 -69 62 -69z
" />
    <glyph glyph-name="uni0660.pnum" horiz-adv-x="333" 
d="M172 160q-17 16 -30 28.5t-29 27.5t-29 27l75 82q42 -35 90 -87z" />
    <glyph glyph-name="uni0661.pnum" horiz-adv-x="297" 
d="M151 -11l-12 3q-27 324 -67 526l86 61l12 -2q21 -109 39 -299.5t18 -268.5z" />
    <glyph glyph-name="uni0662.pnum" horiz-adv-x="466" 
d="M383 569l73 -9q-8 -193 -172 -193q-47 0 -86 15q31 -258 29 -373l-76 -20l-12 3q-27 324 -67 526l86 61l12 -2q7 -39 15 -92q42 -20 91 -20q48 0 74 21.5t33 82.5z" />
    <glyph glyph-name="uni0663.pnum" horiz-adv-x="516" 
d="M476 579q30 -63 30 -119q0 -55 -31 -83t-71 -28q-58 0 -90 34q-18 -37 -61 -37q-29 0 -52 15q28 -250 26 -352l-76 -20l-12 3q-27 324 -67 526l86 61l12 -2q4 -18 17 -102q13 -34 48 -34q20 0 31.5 18t19.5 71l62 -8l-3 -20q-3 -21 -3 -27q0 -31 47 -31q39 0 39 35
q0 23 -18 75z" />
    <glyph glyph-name="uni0664.pnum" horiz-adv-x="421" 
d="M400 107l4 -6l-31 -88q-57 -17 -137 -17q-86 0 -131 30.5t-45 86.5q0 85 104 160q-103 36 -103 97q0 64 69 125t195 83l6 -4l-18 -102q-79 -15 -118 -39.5t-39 -48.5q0 -19 38.5 -32t113.5 -13l6 -9l-20 -76q-58 -22 -97 -54.5t-39 -57.5q0 -47 112 -47q16 0 130 12z" />
    <glyph glyph-name="uni0665.pnum" horiz-adv-x="494" 
d="M247 -5q-194 0 -194 208q0 107 55 190.5t139 83.5t138.5 -80t54.5 -192q0 -210 -193 -210zM247 94q99 0 99 100q0 73 -26.5 129t-71.5 56t-72 -56t-27 -129q0 -100 98 -100z" />
    <glyph glyph-name="uni0666.pnum" horiz-adv-x="448" 
d="M344 564q1 -96 23.5 -273t41.5 -276l-91 -30l-9 3q-42 296 -48 473q-58 -4 -126 0.5t-110 14.5l9 92l5 6q142 -25 305 -10z" />
    <glyph glyph-name="uni0667.pnum" horiz-adv-x="503" 
d="M411 579l82 -59l-197 -516l-94 -13l-192 544l97 43l8 -1l133 -466l154 466z" />
    <glyph glyph-name="uni0668.pnum" horiz-adv-x="503" 
d="M302 579l191 -544l-96 -43l-9 1l-133 465l-153 -466l-10 -1l-82 60l197 515z" />
    <glyph glyph-name="uni0669.pnum" horiz-adv-x="425" 
d="M340 327q13 -166 43 -312l-86 -30l-10 3q-22 142 -35 266q-42 -11 -79 -11q-72 0 -117.5 33.5t-45.5 98.5q0 76 53 138.5t119 62.5q139 0 158 -249zM102 391q0 -53 85 -53q25 0 56 7q-9 70 -25 102.5t-46 32.5q-29 0 -49.5 -27.5t-20.5 -61.5z" />
    <glyph glyph-name="uni06F0.pnum" horiz-adv-x="333" 
d="M172 160q-17 16 -30 28.5t-29 27.5t-29 27l75 82q42 -35 90 -87z" />
    <glyph glyph-name="uni06F1.pnum" horiz-adv-x="297" 
d="M151 -11l-12 3q-27 324 -67 526l86 61l12 -2q21 -109 39 -299.5t18 -268.5z" />
    <glyph glyph-name="uni06F2.pnum" horiz-adv-x="466" 
d="M383 569l73 -9q-8 -193 -172 -193q-47 0 -86 15q31 -258 29 -373l-76 -20l-12 3q-27 324 -67 526l86 61l12 -2q7 -39 15 -92q42 -20 91 -20q48 0 74 21.5t33 82.5z" />
    <glyph glyph-name="uni06F3.pnum" horiz-adv-x="516" 
d="M476 579q30 -63 30 -119q0 -55 -31 -83t-71 -28q-58 0 -90 34q-18 -37 -61 -37q-29 0 -52 15q28 -250 26 -352l-76 -20l-12 3q-27 324 -67 526l86 61l12 -2q4 -18 17 -102q13 -34 48 -34q20 0 31.5 18t19.5 71l62 -8l-3 -20q-3 -21 -3 -27q0 -31 47 -31q39 0 39 35
q0 23 -18 75z" />
    <glyph glyph-name="uni06F4.pnum" horiz-adv-x="503" 
d="M493 327q-52 -39 -144 -39q-51 0 -142 16q21 -224 20 -295l-76 -20l-12 3q-27 324 -67 526l86 61l12 -2q13 -64 27 -184q31 -6 62 -9q-12 28 -12 60q0 60 35.5 96t90.5 36q36 0 65.5 -18t46.5 -48l-58 -51q-23 29 -54 29q-22 0 -36.5 -14.5t-14.5 -37.5q0 -31 23 -61h13
q64 0 111 23z" />
    <glyph glyph-name="uni06F4.urdu" horiz-adv-x="502" 
d="M383 583l87 -27q-66 -132 -90 -247h-64q-19 80 -56 125t-72 45q-14 0 -23.5 -10t-9.5 -28q0 -25 16 -78q54 -181 69 -334l-87 -35l-8 2q-10 123 -51 298q-25 107 -25 143q0 61 36 99.5t89 38.5q45 0 83.5 -29t60.5 -82q9 40 37 116z" />
    <glyph glyph-name="uni06F4.urdu.pnum" horiz-adv-x="452" 
d="M354 583l88 -27q-65 -131 -91 -247h-63q-19 80 -56.5 125t-72.5 45q-14 0 -23 -10t-9 -28q0 -25 16 -78q53 -183 68 -334l-86 -35l-8 2q-12 127 -52 298q-25 107 -25 143q0 61 36.5 99.5t89.5 38.5q45 0 83 -29.5t61 -82.5q11 49 36 117z" />
    <glyph glyph-name="uni06F5.pnum" horiz-adv-x="550" 
d="M242 580q39 -29 76 -65t81 -90t71 -122t27 -137q0 -78 -35 -124.5t-99 -46.5q-59 0 -92 48q-33 -48 -88 -48q-60 0 -95 41.5t-35 116.5q0 85 44 173.5t108 160.5q-20 16 -29 22l56 71h10zM359 87q52 0 52 69q0 134 -151 283q-54 -63 -89 -137.5t-35 -140.5q0 -74 51 -74
q49 0 57 86h62q4 -86 53 -86z" />
    <glyph glyph-name="uni06F6.pnum" horiz-adv-x="435" 
d="M391 374l9 -3l-10 -105q-105 -42 -161 -101.5t-104 -176.5l-78 11l-8 7q47 155 152 248q-116 64 -116 163q0 64 46 111.5t117 47.5q87 0 129 -66l-58 -52q-27 28 -66 28q-37 0 -55 -21t-18 -47q0 -69 102 -105q39 24 119 61z" />
    <glyph glyph-name="uni06F7.pnum" horiz-adv-x="503" 
d="M411 579l82 -59l-197 -516l-94 -13l-192 544l97 43l8 -1l133 -466l154 466z" />
    <glyph glyph-name="uni06F7.urdu" horiz-adv-x="502" 
d="M430 111l16 -93q-56 -23 -174 -23q-81 0 -139.5 17t-58.5 56q0 76 67.5 222t192.5 287h10l66 -69q-187 -204 -242 -401q50 -10 107 -10q80 0 148 18z" />
    <glyph glyph-name="uni06F7.urdu.pnum" horiz-adv-x="438" 
d="M393 111l15 -93q-56 -23 -174 -23q-81 0 -139 17t-58 56q0 77 67 222.5t192 286.5h10l67 -69q-189 -206 -242 -401q50 -10 107 -10q79 0 147 18z" />
    <glyph glyph-name="uni06F8.pnum" horiz-adv-x="503" 
d="M302 579l191 -544l-96 -43l-9 1l-133 465l-153 -466l-10 -1l-82 60l197 515z" />
    <glyph glyph-name="uni06F9.pnum" horiz-adv-x="435" 
d="M340 327q13 -166 43 -312l-86 -30l-10 3q-22 142 -35 266q-42 -11 -79 -11q-72 0 -117.5 33.5t-45.5 98.5q0 76 53 138.5t119 62.5q139 0 158 -249zM102 391q0 -53 85 -53q25 0 56 7q-9 70 -25 102.5t-46 32.5q-29 0 -49.5 -27.5t-20.5 -61.5z" />
    <glyph glyph-name="periodcentered.case" horiz-adv-x="196" 
d="M98 254q-29 0 -50 20.5t-21 49.5t21 49.5t50 20.5t50 -20.5t21 -49.5t-21 -49.5t-50 -20.5z" />
    <glyph glyph-name="exclamdown.case" horiz-adv-x="223" 
d="M111 519q-28 0 -49.5 21t-21.5 49q0 29 21 50t50 21t50.5 -21t21.5 -50q0 -28 -21.5 -49t-50.5 -21zM48 0l21 443l85 8l20 -451h-126z" />
    <glyph glyph-name="questiondown.case" horiz-adv-x="463" 
d="M248 519q-28 0 -49.5 21t-21.5 49q0 29 21 50t50 21t50.5 -21t21.5 -50q0 -28 -21.5 -49t-50.5 -21zM230 -12q-88 0 -143 42t-55 120q0 47 18.5 80t64.5 66q45 33 62 61.5t17 69.5v12l107 10v-38q0 -50 -20 -87.5t-71 -77.5q-34 -27 -47 -46.5t-13 -41.5
q0 -35 23.5 -54.5t68.5 -19.5q70 0 144 65l62 -70q-42 -42 -99.5 -66.5t-118.5 -24.5z" />
    <glyph glyph-name="numbersign.osf" horiz-adv-x="633" 
d="M591 408h-90l-30 -199h79v-84h-92l-19 -125h-101l19 125h-136l-19 -125h-101l19 125h-78v84h91l30 199h-80v84h92l19 124h101l-19 -124h136l19 124h101l-19 -124h78v-84zM370 209l30 199h-136l-30 -199h136z" />
    <glyph glyph-name="braceleft.case" horiz-adv-x="360" 
d="M322 -110q-209 19 -209 159q0 17 7.5 75.5t7.5 77.5q0 46 -19.5 63t-68.5 19v88q49 2 68.5 19t19.5 63q0 19 -7.5 77.5t-7.5 75.5q0 140 209 159l18 -95q-67 -3 -93.5 -21t-26.5 -57q0 -15 6.5 -72t6.5 -75q0 -54 -28 -84t-68 -34q40 -4 68 -34.5t28 -83.5
q0 -18 -6.5 -75t-6.5 -72q0 -38 26 -57.5t94 -27.5z" />
    <glyph glyph-name="braceright.case" horiz-adv-x="360" 
d="M38 -110l-18 88q68 8 94 27.5t26 57.5q0 15 -6.5 72t-6.5 75q0 53 28 83.5t68 34.5q-40 4 -68 34t-28 84q0 18 6.5 75t6.5 72q0 39 -26.5 57t-93.5 21l18 95q209 -19 209 -159q0 -17 -7.5 -75.5t-7.5 -77.5q0 -46 19.5 -63t68.5 -19v-88q-49 -2 -68.5 -19t-19.5 -63
q0 -19 7.5 -77.5t7.5 -75.5q0 -140 -209 -159z" />
    <glyph glyph-name="bracketleft.case" horiz-adv-x="360" 
d="M80 -101v859h262v-93h-153v-673h153v-93h-262z" />
    <glyph glyph-name="bracketright.case" horiz-adv-x="360" 
d="M18 -101v93h153v673h-153v93h262v-859h-262z" />
    <glyph glyph-name="parenleft.case" horiz-adv-x="360" 
d="M278 -119q-106 97 -160 197.5t-54 244.5q0 146 54 246t160 197l62 -52q-79 -80 -122 -173t-43 -218q0 -124 43 -216.5t122 -173.5z" />
    <glyph glyph-name="parenright.case" horiz-adv-x="360" 
d="M82 -119l-62 52q79 81 122 173.5t43 216.5q0 125 -43 218t-122 173l62 52q106 -97 160 -197t54 -246q0 -144 -54 -244.5t-160 -197.5z" />
    <glyph glyph-name="emdash.case" horiz-adv-x="1000" 
d="M47 276v96h906v-96h-906z" />
    <glyph glyph-name="endash.case" horiz-adv-x="600" 
d="M47 276v96h506v-96h-506z" />
    <glyph glyph-name="uni2015.case" horiz-adv-x="1000" 
d="M-2 276v96h1004v-96h-1004z" />
    <glyph glyph-name="hyphen.case" horiz-adv-x="380" 
d="M47 276v96h286v-96h-286z" />
    <glyph glyph-name="uni00AD.case" horiz-adv-x="380" 
d="M47 276v96h286v-96h-286z" />
    <glyph glyph-name="guillemotleft.case" horiz-adv-x="520" 
d="M197 116l-151 163v91l151 162l57 -42l-111 -166l111 -165zM397 116l-151 163v91l151 162l57 -42l-111 -166l111 -165z" />
    <glyph glyph-name="guillemotright.case" horiz-adv-x="520" 
d="M123 116l-57 43l111 165l-111 166l57 42l151 -162v-91zM323 116l-57 43l111 165l-111 166l57 42l151 -162v-91z" />
    <glyph glyph-name="guilsinglleft.case" horiz-adv-x="320" 
d="M197 116l-151 163v91l151 162l57 -42l-111 -166l111 -165z" />
    <glyph glyph-name="guilsinglright.case" horiz-adv-x="320" 
d="M123 116l-57 43l111 165l-111 166l57 42l151 -162v-91z" />
    <glyph glyph-name="space.frac" horiz-adv-x="50" 
 />
    <glyph glyph-name="cent.osf" horiz-adv-x="430" 
d="M416 41q-66 -42 -128 -51v-131h-92v132q-162 27 -162 220q0 100 45.5 159t116.5 78v136h92v-128q57 -6 119 -39l-39 -76q-61 29 -106 29q-54 0 -85 -41t-31 -117q0 -136 115 -136q50 0 115 38z" />
    <glyph glyph-name="dollar.osf" horiz-adv-x="540" 
d="M510 175q0 -77 -50 -123t-136 -56v-137h-91v135q-112 8 -197 73l54 76q84 -58 177 -58q129 0 129 85q0 25 -16.5 43t-37 27t-75.5 29l-3 1.5t-2.5 1t-2.5 0.5q-103 38 -148.5 76.5t-45.5 105.5q0 68 48 110t120 54v138h91v-136q94 -8 176 -63l-52 -76q-82 51 -164 51
q-50 0 -79.5 -19t-29.5 -56q0 -29 28 -48t107 -47q53 -18 83 -31.5t60.5 -35t43.5 -50.5t13 -70z" />
    <glyph glyph-name="Euro.osf" horiz-adv-x="580" 
d="M498 133l57 -70q-92 -76 -200 -76q-221 0 -257 225h-70l10 67h53v26q0 22 1 32h-64l10 67h62q22 114 93.5 169t170.5 55q106 0 187 -59l-52 -77q-63 44 -132 44q-127 0 -156 -132h241l-11 -67h-238q-1 -9 -1 -28q0 -20 1 -30h230l-11 -67h-212q13 -68 49 -100t102 -32
q79 0 137 53z" />
    <glyph glyph-name="florin.osf" horiz-adv-x="330" 
d="M268 604q-68 0 -68 -83v-80h129l-11 -85h-118v-401q0 -78 -39.5 -116t-104.5 -38q-66 0 -117 24l27 76q39 -13 69 -13q57 0 57 72v396h-73v85h73v78q0 78 44 126.5t123 48.5q55 0 106 -18l-27 -85q-35 13 -70 13z" />
    <glyph glyph-name="sterling.osf" horiz-adv-x="540" 
d="M255 215q0 -70 -36 -123h271v-92h-430v92h56q33 49 33 120q0 31 -6 58h-81v80h56q-24 74 -24 113q1 72 56 118.5t147 46.5q106 0 194 -83l-62 -70q-68 60 -132 60q-43 0 -66 -20.5t-24 -55.5q0 -37 22 -109h180v-80h-159q5 -28 5 -55z" />
    <glyph glyph-name="yen.osf" horiz-adv-x="600" 
d="M574 616l-195 -307h145v-72h-171v-56h171v-73h-171v-108h-111v108h-166v73h166v56h-166v72h140l-190 307h129l144 -254l151 254h124z" />
    <glyph glyph-name="percent.osf" horiz-adv-x="950" 
d="M267 -54l-72 47l486 671l72 -47zM234 247q-82 0 -138 51t-56 141q0 87 56 138t138 51q81 0 137 -50.5t56 -137.5q0 -91 -55.5 -142t-137.5 -51zM234 330q42 0 65 30.5t23 77.5q0 48 -23 77.5t-65 29.5q-43 0 -66 -29t-23 -75q0 -49 23 -80t66 -31zM717 -13q-82 0 -138 51
t-56 141q0 87 56.5 138.5t137.5 51.5t137 -51t56 -138q0 -91 -55.5 -142t-137.5 -51zM717 71q42 0 65 30.5t23 76.5q0 48 -23 77.5t-65 29.5q-43 0 -66 -29t-23 -75q0 -48 23 -79t66 -31z" />
    <glyph glyph-name="perthousand.osf" horiz-adv-x="1370" 
d="M267 -54l-72 47l486 671l72 -47zM234 247q-82 0 -138 51t-56 141q0 87 56 138t138 51q81 0 137 -50.5t56 -137.5q0 -91 -55.5 -142t-137.5 -51zM234 330q42 0 65 30.5t23 77.5q0 48 -23 77.5t-65 29.5q-43 0 -66 -29t-23 -75q0 -49 23 -80t66 -31zM717 -13q-82 0 -138 51
t-56 141q0 87 56.5 138.5t137.5 51.5t137 -51t56 -138q0 -91 -55.5 -142t-137.5 -51zM1137 -13q-82 0 -138 51t-56 141q0 87 56.5 138.5t137.5 51.5t137 -51t56 -138q0 -91 -55.5 -142t-137.5 -51zM717 71q42 0 65 30.5t23 76.5q0 48 -23 77.5t-65 29.5q-43 0 -66 -29
t-23 -75q0 -48 23 -79t66 -31zM1137 71q42 0 65 30.5t23 76.5q0 48 -23 77.5t-65 29.5q-43 0 -66 -29t-23 -75q0 -48 23 -79t66 -31z" />
    <glyph glyph-name="section.osf" horiz-adv-x="464" 
d="M341 208q53 -35 53 -89q0 -62 -51 -96.5t-124 -34.5q-86 0 -165 34l35 74q70 -27 128 -27q32 0 49.5 10.5t17.5 26.5q0 25 -21.5 37.5t-84.5 32.5q-32 10 -49 17t-41 21t-35 34t-11 47q0 66 85 111q-54 35 -54 94q0 61 51 95t122 34q80 0 156 -36l-37 -75q-69 30 -118 30
q-31 0 -49 -11.5t-18 -29.5q0 -23 21.5 -35.5t84.5 -32.5q33 -11 49.5 -17t40.5 -20t35 -34t11 -47q0 -62 -81 -113zM142 315q0 -23 21 -35.5t76 -29.5l38 -12q45 31 45 63q0 21 -23 35t-74 29q-5 2 -11 4l-13.5 4.5t-11.5 3.5q-47 -31 -47 -62z" />
    <glyph glyph-name="degree.osf" horiz-adv-x="432" 
d="M215 296q-75 0 -124 44t-49 123t49.5 122.5t124.5 43.5q77 0 125.5 -44t48.5 -123q0 -80 -49 -123t-126 -43zM215 376q79 0 79 86q0 87 -78 87q-77 0 -77 -86q0 -87 76 -87z" />
    <glyph glyph-name="uni2113.osf" horiz-adv-x="516" 
d="M290 83q28 0 72 16l36 -72q-64 -39 -142 -39q-53 0 -84.5 29t-39.5 76q-42 -28 -64 -42l-34 43q41 30 96 76q7 203 74 330.5t172 127.5q106 0 106 -106q0 -66 -66 -160.5t-182 -190.5v-5q0 -47 14 -65t42 -18zM366 547q-33 0 -71.5 -79t-53.5 -194q78 82 111 146t33 102
q0 25 -19 25z" />
    <glyph glyph-name="caroncomb.alt" 
d="M-112 484l-61 16l36 158l97 -28z" />
    <glyph glyph-name="uni0308.case" 
d="M-294 713q-26 0 -45 18.5t-19 43.5t19 43.5t45 18.5t45 -18.5t19 -43.5t-19 -43.5t-45 -18.5zM-104 713q-26 0 -45 18.5t-19 43.5t19 43.5t45 18.5t45 -18.5t19 -43.5t-19 -43.5t-45 -18.5z" />
    <glyph glyph-name="uni0307.case" 
d="M-113 703q-30 0 -51.5 21t-21.5 50t21.5 50.5t51.5 21.5t51.5 -21.5t21.5 -50.5t-21.5 -50t-51.5 -21z" />
    <glyph glyph-name="gravecomb.case" 
d="M-66 694l-187 94l59 87l166 -131z" />
    <glyph glyph-name="acutecomb.case" 
d="M-226 694l-38 50l166 131l58 -87z" />
    <glyph glyph-name="uni030B.case" 
d="M-281 673l-58 22l55 160l90 -39zM-137 666l-57 21l67 158l87 -40z" />
    <glyph glyph-name="uni0302.case" 
d="M-291 691l-45 43l104 107h88l104 -107l-44 -44l-103 69z" />
    <glyph glyph-name="uni030C.case" 
d="M-232 686l-104 108l45 42l104 -67l103 69l44 -44l-104 -108h-88z" />
    <glyph glyph-name="uni0306.case" 
d="M-185 693q-128 0 -145 133l74 6q7 -31 22.5 -45.5t48.5 -14.5t48.5 14.5t22.5 45.5l74 -6q-17 -133 -145 -133z" />
    <glyph glyph-name="uni030A.case" 
d="M-163 680q-53 0 -87.5 28t-34.5 82q0 56 34 84.5t88 28.5t88.5 -28.5t34.5 -84.5q0 -54 -35 -82t-88 -28zM-163 744q48 0 48 46q0 48 -48 48q-47 0 -47 -48q0 -46 47 -46z" />
    <glyph glyph-name="tildecomb.case" 
d="M-158 703q-36 0 -69.5 25t-44.5 25q-27 0 -50 -44l-57 22q42 108 117 108q36 0 70 -24.5t45 -24.5q27 0 50 43l57 -21q-40 -109 -118 -109z" />
    <glyph glyph-name="uni0304.case" 
d="M-313 716v82h273v-82h-273z" />
    <glyph glyph-name="uni0338.case" 
d="M-495 -47l-78 46l56 86l13 6l319 489l1 12l67 101l77 -46l-63 -95l-13 -6l-318 -490v-11z" />
    <glyph glyph-name="uni0308.narrow" 
d="M-262 520q-25 0 -43.5 17.5t-18.5 43.5t18.5 44t43.5 18q26 0 44.5 -18t18.5 -44t-18.5 -43.5t-44.5 -17.5zM-103 520q-25 0 -43.5 17.5t-18.5 43.5t18.5 44t43.5 18t44 -18t19 -44t-19 -43.5t-44 -17.5z" />
    <glyph glyph-name="uni0304.narrow" 
d="M-270 530v82h230v-82h-230z" />
    <glyph glyph-name="dotcenterar" 
d="M112 -80l-92 66l58 85l93 -63z" />
    <glyph glyph-name="uniFBB9.small" 
d="M108 -209l-86 58l53 81l86 -60zM248 -209l-84 58l51 81l86 -60zM192 -328l-86 57l54 83l85 -62z" />
    <glyph glyph-name="waslaar" 
d="M295 725q24 0 38.5 -17t14.5 -39q0 -64 -91 -64q-65 0 -99 18q-22 -17 -56 -17l9 37q20 0 30 10q8 11 18 45l40 5l3 -2q-12 -33 -22 -50q18 -3 20 -3q32 41 52.5 59t42.5 18zM312 650q4 15 -1.5 25.5t-17.5 10.5q-18 0 -55 -42h19q45 0 55 6z" />
    <glyph glyph-name="hamzaaboveDammaar" 
d="M200 1107q33 0 55.5 -24t22.5 -59q0 -58 -57.5 -92.5t-175.5 -58.5l-12 53q71 13 118 29q-35 27 -35 66q0 34 24.5 60t59.5 26zM165 1023q0 -20 38 -42q21 17 21 38q0 13 -8 23t-20 10t-21.5 -9t-9.5 -20zM153 674q62 4 89 7l5 -59q-79 -10 -193 -14l-6 62q30 0 46 1
q-20 26 -20 60q0 37 22.5 59.5t62.5 22.5q35 0 72 -15l-16 -58q-30 10 -45 10q-17 0 -26.5 -10t-9.5 -25q0 -24 19 -41z" />
    <glyph glyph-name="hamzaaboveDammatanar" 
d="M358 1022q0 -61 -62 -101.5t-178 -46.5l-14 49q11 16 11 32q0 22 -20 22q-13 0 -29 -13l-28 40q28 30 67 30q30 0 46.5 -19.5t16.5 -48.5q0 -16 -5 -33q44 4 76 18q-43 28 -43 67q0 33 25 61t59 28q35 0 56.5 -25.5t21.5 -59.5zM277 1052q-11 0 -21.5 -8.5t-10.5 -21.5
q0 -21 41 -42q18 18 18 40q0 13 -7.5 22.5t-19.5 9.5zM233 674q62 4 89 7l5 -59q-79 -10 -193 -14l-6 62q30 0 46 1q-20 26 -20 60q0 37 22.5 59.5t62.5 22.5q35 0 72 -15l-16 -58q-30 10 -45 10q-17 0 -26.5 -10t-9.5 -25q0 -24 19 -41z" />
    <glyph glyph-name="hamzaaboveFathaar" 
d="M36 935l245 46v-62l-245 -45v61zM166 674q62 4 89 7l5 -59q-79 -10 -193 -14l-6 62q30 0 46 1q-20 26 -20 60q0 37 22.5 59.5t62.5 22.5q34 0 72 -15l-16 -58q-30 10 -45 10q-17 0 -26.5 -10t-9.5 -25q0 -24 19 -41z" />
    <glyph glyph-name="hamzaaboveFathatanar" 
d="M13 1045l245 46v-61l-245 -45v60zM13 874v61l245 46v-62zM143 674q62 4 89 7l5 -59q-79 -10 -193 -14l-6 62q30 0 46 1q-20 26 -20 60q0 37 22.5 59.5t62.5 22.5q35 0 72 -15l-16 -58q-30 10 -45 10q-17 0 -26.5 -10t-9.5 -25q0 -24 19 -41z" />
    <glyph glyph-name="hamzaaboveSukunar" 
d="M136 868q-40 0 -63.5 23t-23.5 61q0 44 25 71t67 27q38 0 61 -26t23 -68q0 -40 -24.5 -64t-64.5 -24zM137 993q-16 0 -26 -10.5t-10 -26.5t9.5 -25.5t25.5 -9.5t26 9.5t10 25.5t-10 26.5t-25 10.5zM232 681l5 -59q-79 -10 -193 -14l-6 62q30 0 46 1q-20 26 -20 60
q0 37 22.5 59.5t62.5 22.5q35 0 72 -15l-16 -58q-30 10 -45 10q-17 0 -26.5 -10t-9.5 -25q0 -24 19 -41q62 4 89 7z" />
    <glyph glyph-name="hamzabelowKasraar" 
d="M66 -264l-6 61q30 0 46 1q-20 28 -20 61q0 37 22.5 59.5t62.5 22.5q35 0 72 -15l-16 -58q-30 10 -45 10q-17 0 -26.5 -10t-9.5 -25q0 -24 20 -42q62 4 88 7l5 -58q-79 -10 -193 -14zM40 -361l239 46v-62l-239 -45v61z" />
    <glyph glyph-name="hamzabelowKasratanar" 
d="M66 -264l-6 61q30 0 46 1q-20 28 -20 61q0 37 22.5 59.5t62.5 22.5q35 0 72 -15l-16 -58q-30 10 -45 10q-17 0 -26.5 -10t-9.5 -25q0 -24 20 -42q62 4 88 7l5 -58q-79 -10 -193 -14zM40 -361l239 46v-62l-239 -45v61zM40 -530v61l239 46v-62z" />
    <glyph glyph-name="shaddaAlefabovear" 
d="M206 1016v-199h-71v199h71zM306 780q15 -43 15 -75q0 -40 -22 -67t-62 -27t-60 25q-23 -27 -63 -27q-45 0 -64.5 23.5t-19.5 59.5q0 24 9 53l56 2q-5 -27 -5 -42q0 -37 27 -37q16 0 23.5 16t8.5 59l54 3q-1 -17 -1 -40q0 -35 32 -35q26 0 26 37q0 26 -11 59z" />
    <glyph glyph-name="shaddaDammaar" 
d="M70 807l-12 53q82 16 118 30q-35 27 -35 65q0 34 25 60.5t59 26.5q33 0 55.5 -24.5t22.5 -59.5q0 -58 -57.5 -92.5t-175.5 -58.5zM190 957q0 -21 38 -41q21 16 21 37q0 13 -8 23.5t-20 10.5t-21.5 -9.5t-9.5 -20.5zM306 780q15 -43 15 -75q0 -40 -22 -67t-62 -27t-60 25
q-23 -27 -63 -27q-45 0 -64.5 23.5t-19.5 59.5q0 24 9 53l56 2q-5 -27 -5 -42q0 -37 27 -37q16 0 23.5 16t8.5 59l54 3q-1 -17 -1 -40q0 -35 32 -35q26 0 26 37q0 26 -11 59z" />
    <glyph glyph-name="shaddaDammatanar" 
d="M116 889q0 22 -20 22q-16 0 -29 -13l-28 41q29 29 67 29q30 0 46.5 -19t16.5 -49q0 -17 -5 -32q43 4 76 17q-43 28 -43 67q0 34 25 62t59 28q35 0 56.5 -26t21.5 -60q0 -61 -62 -101.5t-178 -46.5l-14 49q11 16 11 32zM278 987q-11 0 -21.5 -9t-10.5 -22q0 -19 41 -42
q18 20 18 40q0 13 -7.5 23t-19.5 10zM362 780q15 -43 15 -75q0 -40 -22 -67t-62 -27t-60 25q-23 -27 -63 -27q-45 0 -64.5 23.5t-19.5 59.5q0 24 9 53l56 2q-5 -27 -5 -42q0 -37 27 -37q16 0 23.5 16t8.5 59l54 3q-1 -17 -1 -40q0 -35 32 -35q26 0 26 37q0 26 -11 59z" />
    <glyph glyph-name="shaddaFathaar" 
d="M293 915v-62l-245 -45v61zM306 780q15 -43 15 -75q0 -40 -22 -67t-62 -27t-60 25q-23 -27 -63 -27q-45 0 -64.5 23.5t-19.5 59.5q0 24 9 53l56 2q-5 -27 -5 -42q0 -37 27 -37q16 0 23.5 16t8.5 59l54 3q-1 -17 -1 -40q0 -35 32 -35q26 0 26 37q0 26 -11 59z" />
    <glyph glyph-name="shaddaFathatanar" 
d="M293 1026v-62l-245 -45v61zM293 915v-62l-245 -45v61zM306 780q15 -43 15 -75q0 -40 -22 -67t-62 -27t-60 25q-23 -27 -63 -27q-45 0 -64.5 23.5t-19.5 59.5q0 24 9 53l56 2q-5 -27 -5 -42q0 -37 27 -37q16 0 23.5 16t8.5 59l54 3q-1 -17 -1 -40q0 -35 32 -35q26 0 26 37
q0 26 -11 59z" />
    <glyph glyph-name="shaddaKasraar" 
d="M309 913q15 -43 15 -75q0 -41 -21.5 -67.5t-62.5 -26.5q-39 0 -59 25q-22 -27 -64 -27q-83 0 -83 83q0 28 8 53l56 2q-4 -21 -4 -42q0 -37 27 -37q16 0 23.5 16t8.5 59l54 3q-1 -17 -1 -40q0 -35 31 -35q27 0 27 37q0 23 -12 59zM48 603v61l245 46v-62z" />
    <glyph glyph-name="shaddaKasratanar" 
d="M303 1019q15 -43 15 -75q0 -41 -21.5 -67.5t-62.5 -26.5q-39 0 -59 25q-23 -27 -64 -27q-83 0 -83 83q0 28 8 53l56 2q-4 -21 -4 -42q0 -37 27 -37q16 0 23.5 16t8.5 59l54 3q-1 -17 -1 -40q0 -35 31 -35q27 0 27 37q0 23 -12 59zM37 714v61l245 46v-62zM37 603v61
l245 46v-62z" />
    <glyph glyph-name="uni064406440647" horiz-adv-x="1024" 
d="M651 943v-126h-70v126h70zM555 626q-83 0 -83 83q0 26 8 53l56 2q-4 -21 -4 -42q0 -37 27 -37q16 0 23.5 16t8.5 58l54 4q-1 -18 -1 -40q0 -35 31 -35q27 0 27 36q0 25 -12 59l57 14q15 -43 15 -75q0 -41 -21.5 -67.5t-62.5 -26.5q-39 0 -59 25q-23 -27 -64 -27zM952 687
l9 -5v-482q0 -113 -53.5 -156.5t-161.5 -43.5h-1h-1q-87 0 -125 58q-26 -32 -66.5 -45t-107.5 -13h-2q-123 0 -162 74q-37 -12 -82 -12q-79 0 -125.5 32.5t-46.5 86.5q0 62 62 123t172 96v47l91 38l8 -2v-306q0 -48 23 -63t85 -15t88 16q7 30 7 77v351l90 23l9 -4v-363
q0 -64 23.5 -82t81.5 -18q62 0 88 16q7 30 7 77v471zM208 158q25 0 53 5v14v126q-61 -17 -102.5 -43.5t-50.5 -54.5q8 -22 37.5 -34.5t62.5 -12.5z" />
    </font>
</defs>
</svg>
