<?xml version="1.0" standalone="no"?>
<!DOCTYPE svg PUBLIC "-//W3C//DTD SVG 1.1//EN" "http://www.w3.org/Graphics/SVG/1.1/DTD/svg11.dtd" >
<svg xmlns="http://www.w3.org/2000/svg" xmlns:xlink="http://www.w3.org/1999/xlink" version="1.1">
<metadata>
Created by FontForge 20161003 at Mon May  1 05:09:53 2017
 By www-data
Copyright (c) 2016 Dubai Executive Council. All rights reserved.
</metadata>
<defs>
<font id="DubaiBold" horiz-adv-x="0" >
  <font-face 
    font-family="DubaiBold"
    font-weight="700"
    font-stretch="normal"
    units-per-em="1000"
    panose-1="2 11 8 3 3 4 3 3 2 4"
    ascent="800"
    descent="-200"
    x-height="450"
    cap-height="648"
    bbox="-665 -559 1330 1129"
    underline-thickness="50"
    underline-position="-150"
    unicode-range="U+000D-FEFF"
  />
<missing-glyph horiz-adv-x="540" 
d="M80 0v688h380v-688h-380zM156 72h227v544h-227v-544z" />
    <glyph glyph-name="fi" unicode="fi" horiz-adv-x="596" 
d="M277 581q-61 0 -61 -70v-61h115l-15 -107h-100v-343h-136v343h-66v107h66v58q0 83 47 135t134 52q48 0 96 -16l-36 -107q-19 9 -44 9zM466 517q-35 0 -61 25t-26 59q0 35 26 60t61 25q37 0 63 -25t26 -60t-26 -59.5t-63 -24.5zM400 0v447l136 13v-460h-136z" />
    <glyph glyph-name="fl" unicode="fl" horiz-adv-x="596" 
d="M400 688l136 13v-701h-136v688zM80 508q0 83 47 135t134 52q48 0 96 -16l-36 -107q-19 9 -44 9q-61 0 -61 -70v-61h103l-15 -107h-88v-343h-136v343h-66v107h66v58z" />
    <glyph glyph-name="uniFDF2" unicode="&#x627;&#xfedf;&#xfee0;&#xfeea;" horiz-adv-x="1289" arabic-form="isolated" 
d="M667 975v-128h-88v128h88zM562 642q-49 0 -70.5 25t-21.5 64q0 32 9 59l68 2q-4 -21 -4 -43q0 -35 24 -35q15 0 21 15t6 57l64 5q-1 -20 -1 -41q0 -33 27 -33q24 0 24 36q0 21 -10 57l69 16q15 -45 15 -79q0 -46 -24.5 -74.5t-71.5 -28.5q-39 0 -58 24q-23 -26 -66 -26z
M858 662l116 31l9 -6v-469q0 -119 -54.5 -167t-165.5 -51h-7h-4h-8q-75 4 -114 57q-25 -30 -64 -43t-106 -14h-5h-4h-6q-108 3 -151 66q-47 -16 -93 -16q-82 0 -130 35.5t-48 93.5q0 65 63 127t177 100v46l116 45l9 -3v-300q0 -39 18.5 -53.5t70.5 -15.5q48 0 75 13
q7 28 7 74v342l116 30l9 -6v-365q0 -54 18.5 -70.5t73.5 -17.5q48 0 75 13q7 28 7 74v450zM1218 693l10 -6l-3 -670l-115 -24l-8 6v663zM214 171q29 0 49 4v19v95q-53 -13 -91 -33.5t-47 -43.5q7 -19 33.5 -30t55.5 -11z" />
    <glyph glyph-name="uniFEF5" unicode="&#xfedf;&#xfe82;" horiz-adv-x="510" arabic-form="isolated" 
d="M188 590q-23 0 -62 13t-60 13q-36 0 -76 -25l-36 56q48 47 100 47q22 0 67 -12.5t69 -12.5q25 0 46 8l23 -67q-37 -20 -71 -20zM444 495q0 -115 -59 -214q54 -74 54 -136q0 -71 -48 -108t-158 -37h-140l7 123q118 64 171 140q-92 84 -212 159l37 123l7 3
q134 -104 213 -185q11 46 11 95q0 98 -24 180l112 55l8 -2q21 -107 21 -196zM358 145q0 24 -31 60q-42 -45 -95 -80h22q81 0 104 20z" />
    <glyph glyph-name="uniFEF6" unicode="&#xfee0;&#xfe82;" horiz-adv-x="598" arabic-form="final" 
d="M230 592q-23 0 -62 13t-60 13q-36 0 -76 -25l-36 56q48 47 100 47q22 0 67 -12.5t69 -12.5q25 0 46 8l23 -67q-37 -20 -71 -20zM626 125q40 0 40 -40q0 -85 -67 -85q-150 0 -186 112q-105 -115 -291 -115l-58 120l4 6q147 6 226 40q-37 60 -86.5 116.5t-132.5 132.5
l38 132l7 3q86 -82 155 -172.5t103 -155.5q16 20 23 30v413l115 31l10 -6v-474q0 -50 22 -69t78 -19z" />
    <glyph glyph-name="uniFEF7" unicode="&#xfedf;&#xfe84;" horiz-adv-x="509" arabic-form="isolated" 
d="M195 679l5 -69q-78 -10 -195 -14l-7 72q30 0 46 1q-22 30 -22 63q0 39 23.5 62.5t65.5 23.5q32 0 74 -16l-17 -65q-24 8 -43 8q-34 0 -34 -32q0 -23 20 -41q58 4 84 7zM443 495q0 -115 -59 -214q54 -74 54 -136q0 -71 -48 -108t-158 -37h-140l7 123q118 64 171 140
q-92 84 -212 159l37 123l7 3q134 -104 213 -185q11 46 11 95q0 98 -24 180l112 55l8 -2q21 -107 21 -196zM357 145q0 24 -31 60q-42 -45 -95 -80h22q81 0 104 20z" />
    <glyph glyph-name="uniFEF8" unicode="&#xfee0;&#xfe84;" horiz-adv-x="597" arabic-form="final" 
d="M237 681l5 -69q-78 -10 -195 -14l-7 72q30 0 46 1q-22 30 -22 63q0 39 23.5 62.5t65.5 23.5q32 0 74 -16l-17 -65q-24 8 -43 8q-34 0 -34 -32q0 -23 20 -41q58 4 84 7zM625 125q40 0 40 -40q0 -85 -67 -85q-150 0 -186 112q-105 -115 -291 -115l-58 120l4 6q147 6 226 40
q-37 60 -86.5 116.5t-132.5 132.5l38 132l7 3q86 -82 155 -172.5t103 -155.5q16 20 23 30v413l115 31l10 -6v-474q0 -50 22 -69t78 -19z" />
    <glyph glyph-name="uniFEF9" unicode="&#xfedf;&#xfe88;" horiz-adv-x="480" arabic-form="isolated" 
d="M414 495q0 -115 -59 -214q54 -74 54 -136q0 -71 -48 -108t-158 -37h-140l7 123q118 64 171 140q-92 84 -212 159l37 123l7 3q134 -104 213 -185q11 46 11 95q0 98 -24 180l112 55l8 -2q21 -107 21 -196zM328 145q0 24 -31 60q-42 -45 -95 -80h22q81 0 104 20zM157 -203
q60 4 84 7l5 -69q-78 -10 -195 -14l-7 72q30 0 45 1q-21 32 -21 62q0 39 23.5 62.5t65.5 23.5q35 0 74 -15l-17 -65q-29 8 -43 8q-34 0 -34 -32q0 -23 20 -41z" />
    <glyph glyph-name="uniFEFA" unicode="&#xfee0;&#xfe88;" horiz-adv-x="550" arabic-form="final" 
d="M578 125q40 0 40 -40q0 -85 -67 -85q-150 0 -186 112q-105 -115 -291 -115l-58 120l4 6q147 6 226 40q-37 60 -86.5 116.5t-132.5 132.5l38 132l7 3q86 -82 155 -172.5t103 -155.5q16 20 23 30v413l115 31l10 -6v-474q0 -50 22 -69t78 -19zM197 -203q60 4 84 7l5 -69
q-78 -10 -195 -14l-7 72q30 0 45 1q-21 32 -21 62q0 39 23.5 62.5t65.5 23.5q35 0 74 -15l-17 -65q-29 8 -43 8q-34 0 -34 -32q0 -23 20 -41z" />
    <glyph glyph-name="uniFEFB" unicode="&#xfedf;&#xfe8e;" horiz-adv-x="480" arabic-form="isolated" 
d="M414 495q0 -115 -59 -214q54 -74 54 -136q0 -71 -48 -108t-158 -37h-140l7 123q118 64 171 140q-92 84 -212 159l37 123l7 3q134 -104 213 -185q11 46 11 95q0 98 -24 180l112 55l8 -2q21 -107 21 -196zM328 145q0 24 -31 60q-42 -45 -95 -80h22q81 0 104 20z" />
    <glyph glyph-name="uniFEFC" unicode="&#xfee0;&#xfe8e;" horiz-adv-x="550" arabic-form="final" 
d="M578 125q40 0 40 -40q0 -85 -67 -85q-150 0 -186 112q-105 -115 -291 -115l-58 120l4 6q147 6 226 40q-37 60 -86.5 116.5t-132.5 132.5l38 132l7 3q86 -82 155 -172.5t103 -155.5q16 20 23 30v413l115 31l10 -6v-474q0 -50 22 -69t78 -19z" />
    <glyph glyph-name="uni06440671" unicode="&#xfedf;&#xfb51;" horiz-adv-x="476" 
d="M127 600q-73 0 -111 21q-25 -20 -63 -20l10 44q23 0 34 11q9 14 17 47l49 6l3 -2q-15 -38 -23 -53q6 -2 20 -4q35 45 59 65.5t47 20.5q28 0 43.5 -19.5t15.5 -43.5q0 -73 -101 -73zM442 495q0 -115 -59 -214q54 -74 54 -136q0 -71 -48 -108t-158 -37h-140l7 123
q118 64 171 140q-92 84 -212 159l37 123l7 3q134 -104 213 -185q11 46 11 95q0 98 -24 180l112 55l8 -2q21 -107 21 -196zM167 689q-21 0 -58 -43h18q51 0 61 7q4 14 -2 25t-19 11zM356 145q0 24 -31 60q-42 -45 -95 -80h22q81 0 104 20z" />
    <glyph glyph-name="uni06440671.fina" unicode="&#xfee0;&#xfb51;" horiz-adv-x="596" 
d="M169 602q-73 0 -111 21q-25 -20 -63 -20l10 44q23 0 34 11q9 14 17 47l49 6l3 -2q-15 -38 -23 -53q6 -2 20 -4q35 45 59 65.5t47 20.5q28 0 43.5 -19.5t15.5 -43.5q0 -73 -101 -73zM624 125q40 0 40 -40q0 -85 -67 -85q-150 0 -186 112q-105 -115 -291 -115l-58 120l4 6
q147 6 226 40q-37 60 -86.5 116.5t-132.5 132.5l38 132l7 3q86 -82 155 -172.5t103 -155.5q16 20 23 30v413l115 31l10 -6v-474q0 -50 22 -69t78 -19zM209 691q-21 0 -58 -43h18q51 0 61 7q4 14 -2 25t-19 11z" />
    <glyph glyph-name="uni066E.init" unicode="&#x66e;" horiz-adv-x="296" 
d="M0 0l27 125h10q76 0 96 8q7 43 -57 171l101 80h10q25 -52 40.5 -110.5t15.5 -94.5q0 -79 -53 -134q-25 -24 -64.5 -34.5t-113.5 -10.5h-12z" />
    <glyph glyph-name="uni066E.medi" unicode="&#x66e;" horiz-adv-x="335" 
d="M362 125q40 0 40 -40q0 -85 -67 -85q-40 0 -83.5 13t-72.5 35q-59 -48 -160 -48h-19l27 125h18q60 0 79 13q16 39 34 140l129 30l10 -7q-25 -106 -48 -157q48 -19 113 -19z" />
    <glyph glyph-name="uni066E.fina" unicode="&#x66e;" horiz-adv-x="882" 
d="M909 125q40 0 40 -40q0 -85 -67 -85q-93 0 -154 46q-11 -11 -24 -19q-27 -17 -107.5 -28t-157.5 -11h-61q-166 0 -253.5 48t-87.5 139q0 59 18 122l89 34l10 -5q-9 -46 -9 -83q0 -75 62.5 -102.5t213.5 -27.5h55q136 0 189 16q24 68 39 149l129 30l10 -7
q-21 -90 -51 -156q53 -20 117 -20z" />
    <glyph glyph-name="uni066F.fina" unicode="&#x66f;" horiz-adv-x="731" 
d="M755 125q43 0 43 -40q0 -85 -67 -85h-48q-52 -186 -343 -186q-149 0 -226 58.5t-77 152.5q0 48 17 114l103 35l11 -6q-11 -56 -11 -86q0 -70 46 -106.5t158 -36.5q173 0 219 48l3 13h-22q-201 0 -201 145q0 76 49 142.5t117 66.5q71 0 116 -65t52 -164h61zM556 125h39
q-3 44 -25 77.5t-52 33.5q-25 0 -43.5 -23t-18.5 -48q0 -40 100 -40z" />
    <glyph glyph-name="uni06A1.init" unicode="&#x6a1;" horiz-adv-x="459" 
d="M236 497q77 0 123.5 -75.5t46.5 -184.5q0 -61 -18.5 -115.5t-44.5 -74.5q-38 -29 -109 -38t-234 -9l27 125q217 0 268 18q5 27 6 37q-41 -9 -93 -9q-68 0 -102.5 32.5t-34.5 87.5q0 74 49 140t116 66zM167 310q0 -31 65 -31q33 0 71 5q-7 39 -27.5 67t-47.5 28
q-24 0 -42.5 -22t-18.5 -47z" />
    <glyph glyph-name="uni06A1.medi" unicode="&#x6a1;" horiz-adv-x="448" 
d="M476 125q39 0 39 -40q0 -85 -66 -85h-63q-81 0 -152 31q-77 -31 -176 -31h-58l27 125h82q-32 45 -32 91q0 75 53 138t121 63q61 0 105 -55t44 -115q0 -69 -37 -121q12 -1 38 -1h75zM240 299q-22 0 -43 -22.5t-21 -48.5q0 -45 64 -75q60 32 60 78q0 25 -20 46.5t-40 21.5z
" />
    <glyph glyph-name="uni06A1.fina" unicode="&#x6a1;" horiz-adv-x="958" 
d="M985 125q40 0 40 -40q0 -85 -67 -85h-65q-84 0 -154 31q-110 -43 -300 -43h-61q-166 0 -253.5 48t-87.5 139q0 59 18 122l89 34l10 -5q-9 -46 -9 -83q0 -75 62.5 -102.5t213.5 -27.5h55q73 0 142 8q-34 45 -34 95q0 75 53 138t121 63q61 0 105 -55t44 -115
q0 -65 -38 -121q12 -1 39 -1h77zM746 299q-22 0 -42.5 -22.5t-20.5 -48.5q0 -45 62 -74q62 33 62 79q0 23 -20 44.5t-41 21.5z" />
    <glyph glyph-name="uni06C2.fina" unicode="&#x6c2;" horiz-adv-x="474" 
d="M162 434l-7 72q30 0 46 1q-22 30 -22 63q0 39 23.5 62.5t65.5 23.5q32 0 74 -16l-17 -65q-24 8 -43 8q-34 0 -34 -32q0 -23 20 -41q58 4 84 7l5 -69q-78 -10 -195 -14zM501 125q40 0 40 -40q0 -85 -67 -85q-45 0 -79 19.5t-53.5 46.5t-35 54.5t-34 47t-40.5 19.5
q-34 0 -74 -31.5t-72 -76.5h-9l-60 67q35 63 99 114.5t140 51.5q38 0 67.5 -19.5t48 -47t36 -54.5t40.5 -46.5t53 -19.5z" />
    <glyph glyph-name="uni06C3.fina" unicode="&#x6c3;" horiz-adv-x="474" 
d="M246 478l-44 -69l-103 72l64 94l97 -67l45 67l103 -70l-64 -96zM501 125q40 0 40 -40q0 -85 -67 -85q-45 0 -79 19.5t-53.5 46.5t-35 54.5t-34 47t-40.5 19.5q-34 0 -74 -31.5t-72 -76.5h-9l-60 67q35 63 99 114.5t140 51.5q38 0 67.5 -19.5t48 -47t36 -54.5t40.5 -46.5
t53 -19.5z" />
    <glyph glyph-name="uniFB51" unicode="&#x671;" horiz-adv-x="259" arabic-form="final" 
d="M153 745q-73 0 -111 21q-25 -20 -63 -20l10 44q23 0 34 11q9 14 17 47l49 6l3 -2q-15 -38 -23 -53q6 -2 20 -4q35 45 59 65.5t47 20.5q28 0 43.5 -19.5t15.5 -43.5q0 -73 -101 -73zM193 834q-21 0 -58 -43h18q51 0 61 7q4 14 -2 25t-19 11zM286 125q40 0 40 -40
q0 -85 -67 -85q-101 0 -149.5 49t-48.5 155v458l115 31l10 -6v-474q0 -50 22 -69t78 -19z" />
    <glyph glyph-name="uniFB57" unicode="&#x67e;" horiz-adv-x="882" arabic-form="final" 
d="M909 125q40 0 40 -40q0 -85 -67 -85q-93 0 -154 46q-11 -11 -24 -19q-27 -17 -107.5 -28t-157.5 -11h-61q-166 0 -253.5 48t-87.5 139q0 59 18 122l89 34l10 -5q-9 -46 -9 -83q0 -75 62.5 -102.5t213.5 -27.5h55q136 0 189 16q24 68 39 149l129 30l10 -7
q-21 -90 -51 -156q53 -20 117 -20zM426 -151l45 69l102 -73l-63 -93l-96 66l-46 -66l-101 70l63 96zM357 -316l63 96l102 -71l-63 -94z" />
    <glyph glyph-name="uniFB58" unicode="&#x67e;" horiz-adv-x="316" arabic-form="initial" 
d="M210 45q-25 -24 -64.5 -34.5t-113.5 -10.5h-32l27 125h30q76 0 96 8q7 45 -56 171l100 80h10q24 -52 40 -111t16 -94q0 -82 -53 -134zM155 -170l-46 -66l-101 70l63 96l96 -69l45 69l102 -73l-63 -93zM98 -304l63 96l102 -71l-63 -94z" />
    <glyph glyph-name="uniFB59" unicode="&#x67e;" horiz-adv-x="360" arabic-form="medial" 
d="M387 125q40 0 40 -40q0 -85 -66 -85q-123 0 -182 47q-56 -47 -146 -47h-33l27 125h23q52 0 69 13q17 44 35 140l129 30l10 -7q-25 -105 -47 -156q53 -20 141 -20zM195 -139l45 69l102 -73l-63 -93l-96 66l-46 -66l-101 70l63 96zM126 -304l63 96l102 -71l-63 -94z" />
    <glyph glyph-name="uniFB67" unicode="&#x679;" horiz-adv-x="882" arabic-form="final" 
d="M437 412q-62 0 -106 2l-19 65l2 6q4 0 17 -0.5t21 -0.5l14 18v171h68v-96q32 26 65 26q30 0 55.5 -26.5t25.5 -63.5q0 -101 -143 -101zM494 532q-31 0 -77 -49h27q68 0 82 5q3 18 -6.5 31t-25.5 13zM909 125q40 0 40 -40q0 -85 -67 -85q-93 0 -154 46q-11 -11 -24 -19
q-27 -17 -107.5 -28t-157.5 -11h-61q-166 0 -253.5 48t-87.5 139q0 59 18 122l89 34l10 -5q-9 -46 -9 -83q0 -75 62.5 -102.5t213.5 -27.5h55q136 0 189 16q24 68 39 149l129 30l10 -7q-21 -90 -51 -156q53 -20 117 -20z" />
    <glyph glyph-name="uniFB68" unicode="&#x679;" horiz-adv-x="316" arabic-form="initial" 
d="M142 482q-62 0 -106 2l-19 65l2 6q4 0 17 -0.5t21 -0.5l14 18v171h68v-96q32 26 65 26q30 0 55.5 -26.5t25.5 -63.5q0 -101 -143 -101zM199 602q-31 0 -77 -49h27q68 0 82 5q3 18 -6.5 31t-25.5 13zM197 384h10q24 -52 40 -111t16 -94q0 -82 -53 -134
q-25 -24 -64.5 -34.5t-113.5 -10.5h-32l27 125h30q76 0 96 8q7 45 -56 171z" />
    <glyph glyph-name="uniFB69" unicode="&#x679;" horiz-adv-x="360" arabic-form="medial" 
d="M204 423q-62 0 -106 2l-19 65l2 6q4 0 17 -0.5t21 -0.5l14 18v171h68v-96q32 26 65 26q30 0 55.5 -26.5t25.5 -63.5q0 -101 -143 -101zM261 543q-31 0 -77 -49h27q68 0 82 5q3 18 -6.5 31t-25.5 13zM387 125q40 0 40 -40q0 -85 -66 -85q-123 0 -182 47q-56 -47 -146 -47
h-33l27 125h23q52 0 69 13q17 44 35 140l129 30l10 -7q-25 -105 -47 -156q53 -20 141 -20z" />
    <glyph glyph-name="uniFB6B" unicode="&#x6a4;" horiz-adv-x="958" arabic-form="final" 
d="M819 740l-63 -96l-103 72l64 93zM748 570l-45 -69l-102 72l64 94l97 -67l46 67l102 -70l-64 -96zM985 125q40 0 40 -40q0 -85 -67 -85h-65q-84 0 -154 31q-110 -43 -300 -43h-61q-166 0 -253.5 48t-87.5 139q0 59 18 122l89 34l10 -5q-9 -46 -9 -83q0 -75 62.5 -102.5
t213.5 -27.5h55q73 0 142 8q-34 45 -34 95q0 75 53 138t121 63q61 0 105 -55t44 -115q0 -65 -38 -121q12 -1 39 -1h77zM746 299q-22 0 -42.5 -22.5t-20.5 -48.5q0 -45 62 -74q62 33 62 79q0 23 -20 44.5t-41 21.5z" />
    <glyph glyph-name="uniFB6C" unicode="&#x6a4;" horiz-adv-x="459" arabic-form="initial" 
d="M297 812l-63 -96l-103 72l64 93zM226 642l-45 -69l-102 72l64 94l97 -67l46 67l102 -70l-64 -96zM236 497q77 0 123.5 -75.5t46.5 -184.5q0 -61 -18.5 -115.5t-44.5 -74.5q-38 -29 -109 -38t-234 -9l27 125q217 0 268 18q5 27 6 37q-41 -9 -93 -9q-68 0 -102.5 32.5
t-34.5 87.5q0 74 49 140t116 66zM167 310q0 -31 65 -31q33 0 71 5q-7 39 -27.5 67t-47.5 28q-24 0 -42.5 -22t-18.5 -47z" />
    <glyph glyph-name="uniFB6D" unicode="&#x6a4;" horiz-adv-x="448" arabic-form="medial" 
d="M312 740l-63 -96l-103 72l64 93zM241 570l-45 -69l-102 72l64 94l97 -67l46 67l102 -70l-64 -96zM476 125q39 0 39 -40q0 -85 -66 -85h-63q-81 0 -152 31q-77 -31 -176 -31h-58l27 125h82q-32 45 -32 91q0 75 53 138t121 63q61 0 105 -55t44 -115q0 -69 -37 -121
q12 -1 38 -1h75zM240 299q-22 0 -43 -22.5t-21 -48.5q0 -45 64 -75q60 32 60 78q0 25 -20 46.5t-40 21.5z" />
    <glyph glyph-name="uniFB7B" unicode="&#x686;" horiz-adv-x="689" arabic-form="final" 
d="M709 125q40 0 40 -40q0 -85 -67 -85q-94 0 -155.5 35.5t-96.5 126.5q-125 -38 -200.5 -113t-75.5 -165q0 -86 75 -130.5t212 -44.5q95 0 200 33l6 -6l-37 -104q-75 -48 -208 -48q-165 0 -265 70.5t-100 194.5q0 118 92.5 222.5t228.5 167.5q-102 30 -158 30
q-77 0 -147 -25l-5 5l43 107q51 31 119 31q50 0 144 -29q147 -46 273 -46l-30 -121q-31 -1 -61 -6q20 -33 58 -46.5t115 -13.5zM423 30l92 -65l-57 -85l-91 62l-42 -62l-92 63l57 87l91 -64zM318 -185l58 88l92 -66l-57 -84z" />
    <glyph glyph-name="uniFB7C" unicode="&#x686;" horiz-adv-x="610" arabic-form="initial" 
d="M380 320q139 -69 203 -73l-32 -120q-110 -13 -267 -66q-180 -61 -284 -61l27 125q114 0 261 39q28 8 104 27q-14 6 -48 23q-102 55 -165 55q-50 0 -115 -19l-5 5l44 110q42 22 91 22q33 0 70.5 -14t115.5 -53zM281 -139l45 69l102 -73l-63 -93l-96 66l-46 -66l-101 70
l63 96zM212 -304l63 96l102 -71l-63 -94z" />
    <glyph glyph-name="uniFB7D" unicode="&#x686;" horiz-adv-x="632" arabic-form="medial" 
d="M660 125q39 0 39 -40q0 -85 -66 -85q-115 0 -170.5 26.5t-87.5 83.5l-37 -18q-102 -51 -178 -71.5t-160 -20.5l27 125q75 0 131.5 11t142.5 42q33 12 79 27q-11 5 -34 15q-106 49 -167 49q-50 0 -115 -19l-5 4l44 111q42 22 91 22q52 0 154 -48q139 -64 238 -65l-21 -112
q-45 -2 -85 -13q40 -24 180 -24zM274 -139l45 69l102 -73l-63 -93l-96 66l-46 -66l-101 70l63 96zM205 -304l63 96l102 -71l-63 -94z" />
    <glyph glyph-name="uniFB89" unicode="&#x688;" horiz-adv-x="484" arabic-form="final" 
d="M245 583q-62 0 -106 2l-19 65l2 6q4 0 17 -0.5t21 -0.5l14 18v171h68v-96q32 26 65 26q30 0 55.5 -26.5t25.5 -63.5q0 -101 -143 -101zM302 703q-31 0 -77 -49h27q68 0 82 5q3 18 -6.5 31t-25.5 13zM510 125q41 0 41 -40q0 -85 -68 -85q-96 0 -133 47q-75 -56 -207 -56
q-68 0 -116 11l18 121l7 4q44 -8 102 -8q92 0 144 22q-7 13 -50 96.5t-67 128.5l90 102h11q35 -86 106 -249q26 -61 48.5 -77.5t73.5 -16.5z" />
    <glyph glyph-name="uniFB8B" unicode="&#x698;" horiz-adv-x="370" arabic-form="final" 
d="M281 671l-63 -96l-103 72l64 93zM210 501l-45 -69l-102 72l64 94l97 -67l46 67l102 -70l-64 -96zM396 125q41 0 41 -40q0 -85 -67 -85q-46 0 -81 15q-28 -74 -109 -126.5t-192 -71.5l-67 92l7 10q111 19 183 61.5t98 93.5q-43 96 -74 159l89 102h12l43 -122
q21 -56 43 -72t74 -16z" />
    <glyph glyph-name="uniFB8D" unicode="&#x691;" horiz-adv-x="370" arabic-form="final" 
d="M191 450q-62 0 -106 2l-19 65l2 6q4 0 17 -0.5t21 -0.5l14 18v171h68v-96q32 26 65 26q30 0 55.5 -26.5t25.5 -63.5q0 -101 -143 -101zM248 570q-31 0 -77 -49h27q68 0 82 5q3 18 -6.5 31t-25.5 13zM396 125q41 0 41 -40q0 -85 -67 -85q-46 0 -81 15q-28 -74 -109 -126.5
t-192 -71.5l-67 92l7 10q111 19 183 61.5t98 93.5q-43 96 -74 159l89 102h12l43 -122q21 -56 43 -72t74 -16z" />
    <glyph glyph-name="uniFB8F" unicode="&#x6a9;" horiz-adv-x="958" arabic-form="final" 
d="M985 125q40 0 40 -40q0 -85 -67 -85q-85 0 -157 82q-28 -54 -107.5 -74t-254.5 -20h-61q-166 0 -253.5 48t-87.5 139q0 59 18 122l89 34l10 -5q-9 -46 -9 -83q0 -75 62.5 -102.5t213.5 -27.5h55q123 0 178.5 9t74.5 31q-22 32 -84 85t-125 96l-5 7l30 140l346 179l9 -6
l-41 -151l-213 -106q90 -73 173 -158q3 -3 17.5 -18t18.5 -19t17 -16.5t19 -17t17.5 -14t19 -13t18 -8.5t20 -6.5t19.5 -1.5z" />
    <glyph glyph-name="uniFB90" unicode="&#x6a9;" horiz-adv-x="439" arabic-form="initial" 
d="M443 654l-41 -151l-212 -105q112 -75 151.5 -126.5t39.5 -98.5q0 -173 -281 -173h-100l27 125h65q135 0 185 24q0 31 -58.5 78t-154.5 107l-5 7l29 140l346 179z" />
    <glyph glyph-name="uniFB91" unicode="&#x6a9;" horiz-adv-x="502" arabic-form="medial" 
d="M528 125q41 0 41 -40q0 -85 -67 -85q-87 0 -157 82q-25 -46 -85 -64t-170 -18h-90l27 125h104q115 0 141 29q-22 32 -84 85t-124 95l-5 7l29 140l346 179l9 -6l-41 -151l-213 -106q102 -83 174 -158q69 -71 99 -91q35 -23 66 -23z" />
    <glyph glyph-name="uniFB93" unicode="&#x6af;" horiz-adv-x="947" arabic-form="final" 
d="M872 727l-328 -169l-9 7l26 117l334 168l9 -6zM985 125q40 0 40 -40q0 -85 -67 -85q-85 0 -157 82q-28 -54 -107.5 -74t-254.5 -20h-61q-166 0 -253.5 48t-87.5 139q0 59 18 122l89 34l10 -5q-9 -46 -9 -83q0 -75 62.5 -102.5t213.5 -27.5h55q123 0 178.5 9t74.5 31
q-22 32 -84 85t-125 96l-5 7l30 140l346 179l9 -6l-41 -151l-213 -106q90 -73 173 -158q3 -3 17.5 -18t18.5 -19t17 -16.5t19 -17t17.5 -14t19 -13t18 -8.5t20 -6.5t19.5 -1.5z" />
    <glyph glyph-name="uniFB94" unicode="&#x6af;" horiz-adv-x="439" arabic-form="initial" 
d="M421 727l-328 -169l-9 7l26 117l334 168l9 -6zM88 481l346 179l9 -6l-41 -151l-212 -105q112 -75 151.5 -126.5t39.5 -98.5q0 -173 -281 -173h-100l27 125h65q135 0 185 24q0 31 -58.5 78t-154.5 107l-5 7z" />
    <glyph glyph-name="uniFB95" unicode="&#x6af;" horiz-adv-x="493" arabic-form="medial" 
d="M421 727l-328 -169l-9 7l26 117l334 168l9 -6zM528 125q41 0 41 -40q0 -85 -67 -85q-87 0 -157 82q-25 -46 -85 -64t-170 -18h-90l27 125h104q115 0 141 29q-22 32 -84 85t-124 95l-5 7l29 140l346 179l9 -6l-41 -151l-213 -106q102 -83 174 -158q69 -71 99 -91
q35 -23 66 -23z" />
    <glyph glyph-name="uniFB9F" unicode="&#x6ba;" horiz-adv-x="650" arabic-form="final" 
d="M674 125q43 0 43 -40q0 -85 -67 -85q-36 0 -65 18q-26 -102 -106.5 -153t-198.5 -51q-115 0 -179 57t-64 152q0 57 19 121l90 34l11 -4q-7 -50 -7 -94q0 -67 35.5 -104t119.5 -37q62 0 106.5 19.5t65.5 49.5q8 42 -7.5 93t-49.5 123l109 77h6q3 -8 21.5 -63.5t24.5 -68.5
q21 -44 93 -44z" />
    <glyph glyph-name="uniFBA7" unicode="&#x6c1;" horiz-adv-x="474" arabic-form="final" 
d="M474 0q-45 0 -79 19.5t-53.5 46.5t-35 54.5t-34 47t-40.5 19.5q-34 0 -74 -31.5t-72 -76.5h-9l-60 67q35 63 99 114.5t140 51.5q38 0 67.5 -19.5t48 -47t36 -54.5t40.5 -46.5t53 -19.5q40 0 40 -40q0 -85 -67 -85z" />
    <glyph glyph-name="uniFBA8" unicode="&#x6c1;" horiz-adv-x="292" arabic-form="initial" 
d="M0 0l27 125h10q76 0 96 8q7 43 -57 171l101 80h10q25 -52 40.5 -110.5t15.5 -94.5q0 -79 -53 -134q-25 -24 -64.5 -34.5t-113.5 -10.5h-12zM131 -163q-18 0 -32.5 13t-14.5 38q0 50 51 103l47 -29q-28 -35 -28 -45q0 -5 5 -8q19 -12 19 -34q0 -17 -13 -27.5t-34 -10.5z
" />
    <glyph glyph-name="uniFBA9" unicode="&#x6c1;" horiz-adv-x="576" arabic-form="medial" 
d="M610 125q33 0 33 -40q0 -42 -11 -63.5t-47 -21.5h-54q-57 0 -92 -57t-35 -157q0 -50 10 -103l-88 -33q-105 45 -167.5 127.5t-62.5 200.5q0 19 1 29q-41 -7 -97 -7l27 125q75 0 116 23.5t67 76.5l88 -35l3 -10q-27 -76 -78 -117q-9 -36 -9 -72q0 -69 31 -130t81 -95
q-10 50 -10 101q0 117 56.5 187.5t158.5 70.5h79z" />
    <glyph glyph-name="uniFBAB" unicode="&#x6be;" horiz-adv-x="575" arabic-form="final" 
d="M602 125q40 0 40 -40q0 -85 -67 -85h-57q22 -33 22 -72q0 -57 -44 -92.5t-108 -35.5q-92 0 -149.5 52t-68.5 147q-46 -2 -96 -35h-9l-45 89q49 68 156 71q29 140 121 252l80 46l9 1q138 -103 138 -188q0 -28 -14 -60t-35 -50h127zM364 305q-56 -81 -76 -188q52 4 84 31.5
t32 72.5q0 40 -40 84zM446 -80q1 34 -33.5 61.5t-85.5 27.5q-23 0 -43 -6q9 -44 41 -69t76 -25q27 0 45 11z" />
    <glyph glyph-name="uniFBAC" unicode="&#x6be;" horiz-adv-x="550" arabic-form="initial" 
d="M130 468q382 -207 382 -348q0 -62 -41 -93t-116 -31q-84 0 -154 32q-63 -28 -142 -28h-59l19 125h71q-23 40 -23 84q0 36 16 71.5t44 58.5q-2 1 -43 20l37 107zM206 135q37 30 37 82q0 31 -12 51.5t-29 20.5t-29.5 -19.5t-12.5 -50.5q0 -56 46 -84zM355 104q50 0 64 10
q-14 40 -86 97q-3 -58 -35 -104q26 -3 57 -3z" />
    <glyph glyph-name="uniFBAD" unicode="&#x6be;" horiz-adv-x="468" arabic-form="medial" 
d="M495 125q40 0 40 -40q0 -85 -67 -85h-58q23 -32 23 -72q0 -57 -44 -92.5t-108 -35.5q-92 0 -150 52t-69 148h-62l27 125h41q31 138 121 251l81 46l8 1q139 -102 139 -188q0 -28 -14 -60t-35 -50h127zM256 305q-56 -81 -76 -188q52 4 84.5 31.5t32.5 72.5q0 39 -41 84z
M338 -80q1 35 -33 62t-86 27q-22 0 -43 -6q10 -44 42 -69t76 -25q28 0 44 11z" />
    <glyph glyph-name="uniFBAF" unicode="&#x6d2;" horiz-adv-x="619" arabic-form="final" 
d="M532 -265q-280 0 -401 33t-121 118q0 113 95.5 176t259.5 63h280q23 0 31.5 -10t8.5 -32q0 -83 -67 -83h-253q-123 0 -188 -23.5t-65 -79.5q79 -40 474 -40l6 -8z" />
    <glyph glyph-name="uniFBB1" unicode="&#x6d3;" horiz-adv-x="619" arabic-form="final" 
d="M93 247l-7 72q30 0 46 1q-22 30 -22 63q0 39 23.5 62.5t65.5 23.5q32 0 74 -16l-17 -65q-24 8 -43 8q-34 0 -34 -32q0 -23 20 -41q58 4 84 7l5 -69q-78 -10 -195 -14zM645 125q23 0 31.5 -10t8.5 -32q0 -83 -67 -83h-253q-123 0 -188 -23.5t-65 -79.5q79 -40 474 -40
l6 -8l-60 -114q-280 0 -401 33t-121 118q0 113 95.5 176t259.5 63h280z" />
    <glyph glyph-name="uniFBFD" unicode="&#x6cc;" horiz-adv-x="783" arabic-form="final" 
d="M340 -186q-149 0 -226 58.5t-77 152.5q0 48 17 114l103 35l11 -6q-11 -56 -11 -86q0 -70 46 -106.5t158 -36.5q91 0 169 16.5t101 42.5q0 19 -29 33.5t-109 35.5l37 118q17 -5 57.5 -17t59.5 -17.5t50.5 -12.5t58 -10t54.5 -3q40 0 40 -40q0 -85 -68 -85h-43
q-12 -88 -121 -137t-278 -49z" />
    <glyph glyph-name="uniFBFE" unicode="&#x6cc;" horiz-adv-x="316" arabic-form="initial" 
d="M210 45q-25 -24 -64.5 -34.5t-113.5 -10.5h-32l27 125h30q76 0 96 8q7 45 -56 171l100 80h10q24 -52 40 -111t16 -94q0 -82 -53 -134zM307 -143l-64 -96l-97 69l-46 -69l-102 72l63 94l99 -68l45 68z" />
    <glyph glyph-name="uniFBFF" unicode="&#x6cc;" horiz-adv-x="360" arabic-form="medial" 
d="M387 125q40 0 40 -40q0 -85 -66 -85q-123 0 -182 47q-56 -47 -146 -47h-33l27 125h23q52 0 69 13q17 44 35 140l129 30l10 -7q-25 -105 -47 -156q53 -20 141 -20zM188 -141l45 68l102 -70l-64 -96l-97 69l-46 -69l-102 72l63 94z" />
    <glyph glyph-name="uniFDFC" unicode="&#xfdfc;" horiz-adv-x="990" arabic-form="isolated" 
d="M636 142q-78 0 -113.5 34t-35.5 106v277l79 21l6 -4v-287q0 -34 16 -47.5t55 -13.5q55 0 79 14q1 23 -38 99l70 55h6q36 -75 36 -134q0 -56 -34 -86q-39 -34 -126 -34zM340 524l80 22l6 -5l-1 -446q0 -109 -58 -164t-155 -55q-80 0 -124.5 38.5t-44.5 104.5q0 40 12 80
l63 20l7 -3q-5 -30 -5 -63q0 -92 106 -92q78 0 108 44q6 38 6 96v423zM894 213q46 -84 46 -157q0 -39 -19 -73q-49 -84 -189 -109l-43 65l5 7q72 12 125 41t53 50q-4 37 -48 108l63 68h7zM520 43l42 63l68 -46l-42 -64zM750 60l-43 -64l-67 47l41 63z" />
    <glyph glyph-name="uniFE82" unicode="&#x622;" horiz-adv-x="259" arabic-form="final" 
d="M212 735q-23 0 -62 13t-60 13q-36 0 -76 -25l-36 56q48 47 100 47q22 0 67 -12.5t69 -12.5q25 0 46 8l23 -67q-37 -20 -71 -20zM259 0q-101 0 -149.5 49t-48.5 155v458l115 31l10 -6v-474q0 -50 22 -69t78 -19q40 0 40 -40q0 -85 -67 -85z" />
    <glyph glyph-name="uniFE84" unicode="&#x623;" horiz-adv-x="259" arabic-form="final" 
d="M220 824l5 -69q-78 -10 -195 -14l-7 72q30 0 46 1q-22 30 -22 63q0 39 23.5 62.5t65.5 23.5q32 0 74 -16l-17 -65q-24 8 -43 8q-34 0 -34 -32q0 -23 20 -41q58 4 84 7zM286 125q40 0 40 -40q0 -85 -67 -85q-101 0 -149.5 49t-48.5 155v458l115 31l10 -6v-474
q0 -50 22 -69t78 -19z" />
    <glyph glyph-name="uniFE86" unicode="&#x624;" horiz-adv-x="430" arabic-form="final" 
d="M111 448l-7 79q33 0 51 1q-24 32 -24 69q0 43 26 69t72 26q36 0 81 -17l-19 -73q-29 10 -48 10q-36 0 -36 -34q0 -27 22 -46q62 4 91 7l7 -75q-96 -12 -216 -16zM455 125q42 0 42 -40q0 -85 -69 -85h-62q-33 -79 -111.5 -128t-199.5 -50l-60 95l7 11q184 3 247 72
q-99 1 -148 39t-49 108q0 75 49 141.5t116 66.5q70 0 117 -66t52 -164h69zM147 166q0 -41 101 -41h38q-4 46 -26 78.5t-50 32.5q-25 0 -44 -22t-19 -48z" />
    <glyph glyph-name="uniFE88" unicode="&#x625;" horiz-adv-x="259" arabic-form="final" 
d="M286 125q40 0 40 -40q0 -85 -67 -85q-101 0 -149.5 49t-48.5 155v458l115 31l10 -6v-474q0 -50 22 -69t78 -19zM138 -203q60 4 84 7l5 -69q-78 -10 -195 -14l-7 72q30 0 45 1q-21 32 -21 62q0 39 23.5 62.5t65.5 23.5q35 0 74 -15l-17 -65q-29 8 -43 8q-34 0 -34 -32
q0 -23 20 -41z" />
    <glyph glyph-name="uniFE8A" unicode="&#x626;" horiz-adv-x="783" arabic-form="final" 
d="M82 256l-7 79q33 0 51 1q-24 32 -24 69q0 43 26 69t72 26q36 0 81 -17l-19 -73q-29 10 -48 10q-36 0 -36 -34q0 -27 22 -46q62 4 91 7l7 -75q-96 -12 -216 -16zM810 125q40 0 40 -40q0 -85 -68 -85h-43q-12 -88 -121 -137t-278 -49q-149 0 -226 58.5t-77 152.5
q0 48 17 114l103 35l11 -6q-11 -56 -11 -86q0 -70 46 -106.5t158 -36.5q91 0 169 16.5t101 42.5q0 19 -29 33.5t-109 35.5l37 118q17 -5 57.5 -17t59.5 -17.5t50.5 -12.5t58 -10t54.5 -3z" />
    <glyph glyph-name="uniFE8B" unicode="&#x626;" horiz-adv-x="316" arabic-form="initial" 
d="M52 460l-7 79q33 0 51 1q-24 32 -24 69q0 43 26 69t72 26q36 0 81 -17l-19 -73q-29 10 -48 10q-36 0 -36 -34q0 -27 22 -46q62 4 91 7l7 -75q-96 -12 -216 -16zM197 384h10q24 -52 40 -111t16 -94q0 -82 -53 -134q-25 -24 -64.5 -34.5t-113.5 -10.5h-32l27 125h30
q76 0 96 8q7 45 -56 171z" />
    <glyph glyph-name="uniFE8C" unicode="&#x626;" horiz-adv-x="360" arabic-form="medial" 
d="M114 401l-7 79q33 0 51 1q-24 32 -24 69q0 43 26 69t72 26q36 0 81 -17l-19 -73q-29 10 -48 10q-36 0 -36 -34q0 -27 22 -46q62 4 91 7l7 -75q-96 -12 -216 -16zM387 125q40 0 40 -40q0 -85 -66 -85q-123 0 -182 47q-56 -47 -146 -47h-33l27 125h23q52 0 69 13
q17 44 35 140l129 30l10 -7q-25 -105 -47 -156q53 -20 141 -20z" />
    <glyph glyph-name="uniFE8E" unicode="&#x627;" horiz-adv-x="259" arabic-form="final" 
d="M259 0q-101 0 -149.5 49t-48.5 155v458l115 31l10 -6v-474q0 -50 22 -69t78 -19q40 0 40 -40q0 -85 -67 -85z" />
    <glyph glyph-name="uniFE90" unicode="&#x628;" horiz-adv-x="882" arabic-form="final" 
d="M909 125q40 0 40 -40q0 -85 -67 -85q-93 0 -154 46q-11 -11 -24 -19q-27 -17 -107.5 -28t-157.5 -11h-61q-166 0 -253.5 48t-87.5 139q0 59 18 122l89 34l10 -5q-9 -46 -9 -83q0 -75 62.5 -102.5t213.5 -27.5h55q136 0 189 16q24 68 39 149l129 30l10 -7
q-21 -90 -51 -156q53 -20 117 -20zM324 -183l67 98l106 -73l-66 -100z" />
    <glyph glyph-name="uniFE91" unicode="&#x628;" horiz-adv-x="296" arabic-form="initial" 
d="M0 0l27 125h10q76 0 96 8q7 43 -57 171l101 80h10q25 -52 40.5 -110.5t15.5 -94.5q0 -79 -53 -134q-25 -24 -64.5 -34.5t-113.5 -10.5h-12zM167 -246l-107 75l67 98l106 -73z" />
    <glyph glyph-name="uniFE92" unicode="&#x628;" horiz-adv-x="335" arabic-form="medial" 
d="M362 125q40 0 40 -40q0 -85 -67 -85q-40 0 -83.5 13t-72.5 35q-59 -48 -160 -48h-19l27 125h18q60 0 79 13q16 39 34 140l129 30l10 -7q-25 -106 -48 -157q48 -19 113 -19zM90 -171l67 98l106 -73l-66 -100z" />
    <glyph glyph-name="uniFE94" unicode="&#x629;" horiz-adv-x="457" arabic-form="final" 
d="M221 634l-44 -69l-103 72l64 94l97 -67l45 67l103 -70l-64 -96zM483 125q41 0 41 -40q0 -85 -69 -85q-115 0 -161 66q-47 -16 -93 -16q-82 0 -130 35.5t-48 93.5q0 65 63 127t177 100v46l116 45l9 -3v-300q0 -40 19.5 -54.5t75.5 -14.5zM214 171q29 0 49 4v19v95
q-53 -13 -91 -33.5t-47 -43.5q7 -19 33.5 -30t55.5 -11z" />
    <glyph glyph-name="uniFE96" unicode="&#x62a;" horiz-adv-x="882" arabic-form="final" 
d="M443 463l-44 -69l-103 72l64 94l97 -67l45 67l103 -70l-64 -96zM909 125q40 0 40 -40q0 -85 -67 -85q-93 0 -154 46q-11 -11 -24 -19q-27 -17 -107.5 -28t-157.5 -11h-61q-166 0 -253.5 48t-87.5 139q0 59 18 122l89 34l10 -5q-9 -46 -9 -83q0 -75 62.5 -102.5
t213.5 -27.5h55q136 0 189 16q24 68 39 149l129 30l10 -7q-21 -90 -51 -156q53 -20 117 -20z" />
    <glyph glyph-name="uniFE97" unicode="&#x62a;" horiz-adv-x="316" arabic-form="initial" 
d="M148 533l-44 -69l-103 72l64 94l97 -67l45 67l103 -70l-64 -96zM197 384h10q24 -52 40 -111t16 -94q0 -82 -53 -134q-25 -24 -64.5 -34.5t-113.5 -10.5h-32l27 125h30q76 0 96 8q7 45 -56 171z" />
    <glyph glyph-name="uniFE98" unicode="&#x62a;" horiz-adv-x="360" arabic-form="medial" 
d="M210 474l-44 -69l-103 72l64 94l97 -67l45 67l103 -70l-64 -96zM387 125q40 0 40 -40q0 -85 -66 -85q-123 0 -182 47q-56 -47 -146 -47h-33l27 125h23q52 0 69 13q17 44 35 140l129 30l10 -7q-25 -105 -47 -156q53 -20 141 -20z" />
    <glyph glyph-name="uniFE9A" unicode="&#x62b;" horiz-adv-x="882" arabic-form="final" 
d="M527 633l-63 -96l-103 72l64 93zM456 463l-45 -69l-102 72l64 94l97 -67l46 67l102 -70l-64 -96zM909 125q40 0 40 -40q0 -85 -67 -85q-93 0 -154 46q-11 -11 -24 -19q-27 -17 -107.5 -28t-157.5 -11h-61q-166 0 -253.5 48t-87.5 139q0 59 18 122l89 34l10 -5
q-9 -46 -9 -83q0 -75 62.5 -102.5t213.5 -27.5h55q136 0 189 16q24 68 39 149l129 30l10 -7q-21 -90 -51 -156q53 -20 117 -20z" />
    <glyph glyph-name="uniFE9B" unicode="&#x62b;" horiz-adv-x="316" arabic-form="initial" 
d="M232 703l-63 -96l-103 72l64 93zM161 533l-45 -69l-102 72l64 94l97 -67l46 67l102 -70l-64 -96zM197 384h10q24 -52 40 -111t16 -94q0 -82 -53 -134q-25 -24 -64.5 -34.5t-113.5 -10.5h-32l27 125h30q76 0 96 8q7 45 -56 171z" />
    <glyph glyph-name="uniFE9C" unicode="&#x62b;" horiz-adv-x="360" arabic-form="medial" 
d="M294 644l-63 -96l-103 72l64 93zM223 474l-45 -69l-102 72l64 94l97 -67l46 67l102 -70l-64 -96zM387 125q40 0 40 -40q0 -85 -66 -85q-123 0 -182 47q-56 -47 -146 -47h-33l27 125h23q52 0 69 13q17 44 35 140l129 30l10 -7q-25 -105 -47 -156q53 -20 141 -20z" />
    <glyph glyph-name="uniFE9E" unicode="&#x62c;" horiz-adv-x="682" arabic-form="final" 
d="M709 125q40 0 40 -40q0 -85 -67 -85q-94 0 -155.5 35.5t-96.5 126.5q-125 -38 -200.5 -113t-75.5 -165q0 -86 75 -130.5t212 -44.5q95 0 200 33l6 -6l-37 -104q-75 -48 -208 -48q-165 0 -265 70.5t-100 194.5q0 118 92.5 222.5t228.5 167.5q-102 30 -158 30
q-77 0 -147 -25l-5 5l43 107q51 31 119 31q50 0 144 -29q147 -46 273 -46l-30 -121q-31 -1 -61 -6q20 -33 58 -46.5t115 -13.5zM400 -178l-107 76l67 98l106 -73z" />
    <glyph glyph-name="uniFE9F" unicode="&#x62c;" horiz-adv-x="610" arabic-form="initial" 
d="M380 320q139 -69 203 -73l-32 -120q-110 -13 -267 -66q-180 -61 -284 -61l27 125q114 0 261 39q28 8 104 27q-14 6 -48 23q-102 55 -165 55q-50 0 -115 -19l-5 5l44 110q42 22 91 22q33 0 70.5 -14t115.5 -53zM179 -171l67 98l106 -73l-66 -100z" />
    <glyph glyph-name="uniFEA0" unicode="&#x62c;" horiz-adv-x="632" arabic-form="medial" 
d="M660 125q39 0 39 -40q0 -85 -66 -85q-115 0 -170.5 26.5t-87.5 83.5l-37 -18q-102 -51 -178 -71.5t-160 -20.5l27 125q75 0 131.5 11t142.5 42q33 12 79 27q-11 5 -34 15q-106 49 -167 49q-50 0 -115 -19l-5 4l44 111q42 22 91 22q52 0 154 -48q139 -64 238 -65l-21 -112
q-45 -2 -85 -13q40 -24 180 -24zM172 -171l67 98l106 -73l-66 -100z" />
    <glyph glyph-name="uniFEA2" unicode="&#x62d;" horiz-adv-x="682" arabic-form="final" 
d="M709 125q40 0 40 -40q0 -85 -67 -85q-94 0 -155.5 35.5t-96.5 126.5q-125 -38 -200.5 -113t-75.5 -165q0 -86 75 -130.5t212 -44.5q95 0 200 33l6 -6l-37 -104q-75 -48 -208 -48q-165 0 -265 70.5t-100 194.5q0 118 92.5 222.5t228.5 167.5q-102 30 -158 30
q-77 0 -147 -25l-5 5l43 107q51 31 119 31q50 0 144 -29q147 -46 273 -46l-30 -121q-31 -1 -61 -6q20 -33 58 -46.5t115 -13.5z" />
    <glyph glyph-name="uniFEA3" unicode="&#x62d;" horiz-adv-x="610" arabic-form="initial" 
d="M380 320q139 -69 203 -73l-32 -120q-110 -13 -267 -66q-180 -61 -284 -61l27 125q114 0 261 39q28 8 104 27q-14 6 -48 23q-102 55 -165 55q-50 0 -115 -19l-5 5l44 110q42 22 91 22q33 0 70.5 -14t115.5 -53z" />
    <glyph glyph-name="uniFEA4" unicode="&#x62d;" horiz-adv-x="632" arabic-form="medial" 
d="M660 125q39 0 39 -40q0 -85 -66 -85q-115 0 -170.5 26.5t-87.5 83.5l-37 -18q-102 -51 -178 -71.5t-160 -20.5l27 125q75 0 131.5 11t142.5 42q33 12 79 27q-11 5 -34 15q-106 49 -167 49q-50 0 -115 -19l-5 4l44 111q42 22 91 22q52 0 154 -48q139 -64 238 -65l-21 -112
q-45 -2 -85 -13q40 -24 180 -24z" />
    <glyph glyph-name="uniFEA6" unicode="&#x62e;" horiz-adv-x="682" arabic-form="final" 
d="M425 580l-66 -100l-107 76l67 98zM709 125q40 0 40 -40q0 -85 -67 -85q-94 0 -155.5 35.5t-96.5 126.5q-125 -38 -200.5 -113t-75.5 -165q0 -86 75 -130.5t212 -44.5q95 0 200 33l6 -6l-37 -104q-75 -48 -208 -48q-165 0 -265 70.5t-100 194.5q0 118 92.5 222.5
t228.5 167.5q-102 30 -158 30q-77 0 -147 -25l-5 5l43 107q51 31 119 31q50 0 144 -29q147 -46 273 -46l-30 -121q-31 -1 -61 -6q20 -33 58 -46.5t115 -13.5z" />
    <glyph glyph-name="uniFEA7" unicode="&#x62e;" horiz-adv-x="610" arabic-form="initial" 
d="M279 580l-66 -100l-107 76l67 98zM380 320q139 -69 203 -73l-32 -120q-110 -13 -267 -66q-180 -61 -284 -61l27 125q114 0 261 39q28 8 104 27q-14 6 -48 23q-102 55 -165 55q-50 0 -115 -19l-5 5l44 110q42 22 91 22q33 0 70.5 -14t115.5 -53z" />
    <glyph glyph-name="uniFEA8" unicode="&#x62e;" horiz-adv-x="632" arabic-form="medial" 
d="M279 580l-66 -100l-107 76l67 98zM660 125q39 0 39 -40q0 -85 -66 -85q-115 0 -170.5 26.5t-87.5 83.5l-37 -18q-102 -51 -178 -71.5t-160 -20.5l27 125q75 0 131.5 11t142.5 42q33 12 79 27q-11 5 -34 15q-106 49 -167 49q-50 0 -115 -19l-5 4l44 111q42 22 91 22
q52 0 154 -48q139 -64 238 -65l-21 -112q-45 -2 -85 -13q40 -24 180 -24z" />
    <glyph glyph-name="uniFEAA" unicode="&#x62f;" horiz-adv-x="484" arabic-form="final" 
d="M510 125q41 0 41 -40q0 -85 -68 -85q-96 0 -133 47q-75 -56 -207 -56q-68 0 -116 11l18 121l7 4q44 -8 102 -8q92 0 144 22q-7 13 -50 96.5t-67 128.5l90 102h11q35 -86 106 -249q26 -61 48.5 -77.5t73.5 -16.5z" />
    <glyph glyph-name="uniFEAC" unicode="&#x630;" horiz-adv-x="484" arabic-form="final" 
d="M346 661l-66 -100l-107 76l67 98zM510 125q41 0 41 -40q0 -85 -68 -85q-96 0 -133 47q-75 -56 -207 -56q-68 0 -116 11l18 121l7 4q44 -8 102 -8q92 0 144 22q-7 13 -50 96.5t-67 128.5l90 102h11q35 -86 106 -249q26 -61 48.5 -77.5t73.5 -16.5z" />
    <glyph glyph-name="uniFEAE" unicode="&#x631;" horiz-adv-x="370" arabic-form="final" 
d="M396 125q41 0 41 -40q0 -85 -67 -85q-46 0 -81 15q-28 -74 -109 -126.5t-192 -71.5l-67 92l7 10q111 19 183 61.5t98 93.5q-43 96 -74 159l89 102h12l43 -122q21 -56 43 -72t74 -16z" />
    <glyph glyph-name="uniFEB0" unicode="&#x632;" horiz-adv-x="370" arabic-form="final" 
d="M292 528l-66 -100l-107 76l67 98zM396 125q41 0 41 -40q0 -85 -67 -85q-46 0 -81 15q-28 -74 -109 -126.5t-192 -71.5l-67 92l7 10q111 19 183 61.5t98 93.5q-43 96 -74 159l89 102h12l43 -122q21 -56 43 -72t74 -16z" />
    <glyph glyph-name="uniFEB2" unicode="&#x633;" horiz-adv-x="1153" arabic-form="final" 
d="M1180 125q40 0 40 -40q0 -85 -67 -85q-87 0 -150 43q-50 -43 -129 -43q-73 0 -128 25q-34 -25 -84 -25q-42 0 -77 20q-15 -56 -45 -96.5t-71.5 -64t-88 -34.5t-100.5 -11q-115 0 -179 57t-64 152q0 67 19 121l90 34l11 -4q-7 -46 -7 -94q0 -67 35.5 -104t119.5 -37
q62 0 106.5 19.5t65.5 49.5q4 15 4 25q0 63 -61 191l109 77h6q3 -8 21.5 -63.5t24.5 -68.5q21 -44 81 -44q24 0 36 9q5 8 30 115l127 21l3 -4q-28 -94 -42 -132q36 -9 73 -9h1q36 0 57 11q7 19 7 53q0 46 -9 95l125 46l7 -3q3 -36 3 -66q0 -67 -15 -117q48 -19 115 -19z" />
    <glyph glyph-name="uniFEB3" unicode="&#x633;" horiz-adv-x="839" arabic-form="initial" 
d="M737 383q48 -126 48 -206q0 -87 -60 -132t-158 -45q-73 0 -132 27q-37 -27 -95 -27q-87 0 -153 43q-55 -43 -187 -43l27 125q83 0 110 12q12 27 24 112l135 21l4 -4q-31 -90 -45 -125q50 -16 100 -16q24 0 36 9q3 3 31 115l126 21l4 -4q-25 -86 -44 -131q36 -10 75 -10
q60 0 90 13q7 43 -50 166l108 80z" />
    <glyph glyph-name="uniFEB4" unicode="&#x633;" horiz-adv-x="846" arabic-form="medial" 
d="M873 125q40 0 40 -40q0 -85 -67 -85q-89 0 -150 43q-50 -43 -128 -43h-1h-1q-72 0 -131 27q-37 -27 -95 -27q-87 0 -153 43q-55 -43 -187 -43l27 125q83 0 110 12q12 27 24 112l135 21l4 -4q-31 -90 -45 -125q50 -16 100 -16q24 0 36 9q3 3 31 115l126 21l4 -4
q-25 -86 -44 -131q36 -10 75 -10q35 0 57 11q6 17 6 53q0 50 -8 95l125 46l7 -3q3 -36 3 -66q0 -67 -15 -117q48 -19 115 -19z" />
    <glyph glyph-name="uniFEB6" unicode="&#x634;" horiz-adv-x="1153" arabic-form="final" 
d="M841 651l-63 -96l-103 72l64 93zM770 481l-45 -69l-102 72l64 94l97 -67l46 67l102 -70l-64 -96zM1180 125q40 0 40 -40q0 -85 -67 -85q-87 0 -150 43q-50 -43 -129 -43q-73 0 -128 25q-34 -25 -84 -25q-42 0 -77 20q-15 -56 -45 -96.5t-71.5 -64t-88 -34.5t-100.5 -11
q-115 0 -179 57t-64 152q0 67 19 121l90 34l11 -4q-7 -46 -7 -94q0 -67 35.5 -104t119.5 -37q62 0 106.5 19.5t65.5 49.5q4 15 4 25q0 63 -61 191l109 77h6q3 -8 21.5 -63.5t24.5 -68.5q21 -44 81 -44q24 0 36 9q5 8 30 115l127 21l3 -4q-28 -94 -42 -132q36 -9 73 -9h1
q36 0 57 11q7 19 7 53q0 46 -9 95l125 46l7 -3q3 -36 3 -66q0 -67 -15 -117q48 -19 115 -19z" />
    <glyph glyph-name="uniFEB7" unicode="&#x634;" horiz-adv-x="839" arabic-form="initial" 
d="M532 641l-63 -96l-103 72l64 93zM461 471l-45 -69l-102 72l64 94l97 -67l46 67l102 -70l-64 -96zM737 383q48 -126 48 -206q0 -87 -60 -132t-158 -45q-73 0 -132 27q-37 -27 -95 -27q-87 0 -153 43q-55 -43 -187 -43l27 125q83 0 110 12q12 27 24 112l135 21l4 -4
q-31 -90 -45 -125q50 -16 100 -16q24 0 36 9q3 3 31 115l126 21l4 -4q-25 -86 -44 -131q36 -10 75 -10q60 0 90 13q7 43 -50 166l108 80z" />
    <glyph glyph-name="uniFEB8" unicode="&#x634;" horiz-adv-x="846" arabic-form="medial" 
d="M532 641l-63 -96l-103 72l64 93zM461 471l-45 -69l-102 72l64 94l97 -67l46 67l102 -70l-64 -96zM873 125q40 0 40 -40q0 -85 -67 -85q-89 0 -150 43q-50 -43 -128 -43h-1h-1q-72 0 -131 27q-37 -27 -95 -27q-87 0 -153 43q-55 -43 -187 -43l27 125q83 0 110 12
q12 27 24 112l135 21l4 -4q-31 -90 -45 -125q50 -16 100 -16q24 0 36 9q3 3 31 115l126 21l4 -4q-25 -86 -44 -131q36 -10 75 -10q35 0 57 11q6 17 6 53q0 50 -8 95l125 46l7 -3q3 -36 3 -66q0 -67 -15 -117q48 -19 115 -19z" />
    <glyph glyph-name="uniFEBA" unicode="&#x635;" horiz-adv-x="1235" arabic-form="final" 
d="M1262 125q40 0 40 -40q0 -85 -67 -85q-83 0 -146 40q-38 -25 -92.5 -32.5t-158.5 -7.5h-59q-88 0 -127.5 3.5t-65.5 18.5q-27 -109 -109.5 -158.5t-196.5 -49.5q-115 0 -179 57t-64 152q0 62 19 121l90 34l11 -4q-7 -49 -7 -94q0 -67 35.5 -104t119.5 -37
q62 0 106.5 19.5t65.5 49.5q8 42 -7.5 93t-49.5 123l109 77h6q2 -4 19.5 -58t26.5 -73q11 -24 28 -33t55 -11q135 132 215.5 190t144.5 58q68 0 110 -55t42 -121q0 -30 -11 -60q44 -13 97 -13zM863 125q171 0 204 14q8 13 8 38q0 29 -19 54t-48 25q-70 0 -220 -131h75z" />
    <glyph glyph-name="uniFEBB" unicode="&#x635;" horiz-adv-x="850" arabic-form="initial" 
d="M652 374q69 0 111 -55t42 -121q0 -43 -19.5 -81.5t-48.5 -62.5q-41 -34 -98 -44t-172 -10h-107q-87 0 -134 5.5t-93 25.5q-47 -31 -133 -31l27 125q44 0 65 9q11 27 26 102l133 20l4 -4q-25 -77 -44 -116q27 -8 80 -10q138 133 218 190.5t143 57.5zM696 139q8 13 8 38
q0 29 -19 54t-48 25q-69 0 -221 -131h98q148 0 182 14z" />
    <glyph glyph-name="uniFEBC" unicode="&#x635;" horiz-adv-x="867" arabic-form="medial" 
d="M894 125q40 0 40 -40q0 -85 -67 -85q-86 0 -147 41q-39 -25 -93.5 -33t-159.5 -8h-107q-87 0 -134 5.5t-93 25.5q-47 -31 -133 -31l27 125q44 0 65 9q11 27 26 102l133 20l4 -4q-25 -77 -44 -116q27 -8 80 -10q138 133 218 190.5t143 57.5q69 0 111 -55t42 -121
q0 -29 -10 -59q45 -14 99 -14zM514 125q148 0 182 14q8 13 8 38q0 29 -19 54t-48 25q-69 0 -221 -131h98z" />
    <glyph glyph-name="uniFEBE" unicode="&#x636;" horiz-adv-x="1235" arabic-form="final" 
d="M1084 567l-66 -100l-107 76l67 98zM1262 125q40 0 40 -40q0 -85 -67 -85q-83 0 -146 40q-38 -25 -92.5 -32.5t-158.5 -7.5h-59q-88 0 -127.5 3.5t-65.5 18.5q-27 -109 -109.5 -158.5t-196.5 -49.5q-115 0 -179 57t-64 152q0 62 19 121l90 34l11 -4q-7 -49 -7 -94
q0 -67 35.5 -104t119.5 -37q62 0 106.5 19.5t65.5 49.5q8 42 -7.5 93t-49.5 123l109 77h6q2 -4 19.5 -58t26.5 -73q11 -24 28 -33t55 -11q135 132 215.5 190t144.5 58q68 0 110 -55t42 -121q0 -30 -11 -60q44 -13 97 -13zM863 125q171 0 204 14q8 13 8 38q0 29 -19 54
t-48 25q-70 0 -220 -131h75z" />
    <glyph glyph-name="uniFEBF" unicode="&#x636;" horiz-adv-x="850" arabic-form="initial" 
d="M710 567l-66 -100l-107 76l67 98zM652 374q69 0 111 -55t42 -121q0 -43 -19.5 -81.5t-48.5 -62.5q-41 -34 -98 -44t-172 -10h-107q-87 0 -134 5.5t-93 25.5q-47 -31 -133 -31l27 125q44 0 65 9q11 27 26 102l133 20l4 -4q-25 -77 -44 -116q27 -8 80 -10
q138 133 218 190.5t143 57.5zM696 139q8 13 8 38q0 29 -19 54t-48 25q-69 0 -221 -131h98q148 0 182 14z" />
    <glyph glyph-name="uniFEC0" unicode="&#x636;" horiz-adv-x="867" arabic-form="medial" 
d="M710 567l-66 -100l-107 76l67 98zM894 125q40 0 40 -40q0 -85 -67 -85q-86 0 -147 41q-39 -25 -93.5 -33t-159.5 -8h-107q-87 0 -134 5.5t-93 25.5q-47 -31 -133 -31l27 125q44 0 65 9q11 27 26 102l133 20l4 -4q-25 -77 -44 -116q27 -8 80 -10q138 133 218 190.5
t143 57.5q69 0 111 -55t42 -121q0 -29 -10 -59q45 -14 99 -14zM514 125q148 0 182 14q8 13 8 38q0 29 -19 54t-48 25q-69 0 -221 -131h98z" />
    <glyph glyph-name="uniFEC2" unicode="&#x637;" horiz-adv-x="736" arabic-form="final" 
d="M763 125q40 0 40 -40q0 -85 -67 -85q-84 0 -146 40q-38 -25 -92.5 -32.5t-158.5 -7.5h-238l-59 111l4 14h116l37 35v502l115 31l10 -6l-2 -415q125 102 202 102q68 0 110 -55t42 -121q0 -28 -10 -60q48 -13 97 -13zM363 125q171 0 205 14q8 16 8 38q0 29 -19 54t-49 25
q-68 0 -220 -131h75z" />
    <glyph glyph-name="uniFEC3" unicode="&#x637;" horiz-adv-x="628" arabic-form="initial" 
d="M430 374q68 0 110 -55t42 -121q0 -43 -19.5 -81.5t-48.5 -62.5q-40 -34 -97 -44t-173 -10h-244l27 125h41q14 14 38 36v501l115 31l10 -6l-2 -415q123 102 201 102zM473 139q9 14 9 38q0 29 -19.5 54t-48.5 25q-68 0 -220 -131h75q171 0 204 14z" />
    <glyph glyph-name="uniFEC4" unicode="&#x637;" horiz-adv-x="643" arabic-form="medial" 
d="M670 125q40 0 40 -40q0 -85 -67 -85q-85 0 -147 41q-38 -25 -92.5 -33t-159.5 -8h-244l27 125h41q14 14 38 36v501l115 31l10 -6l-2 -415q123 102 201 102q68 0 110 -55t42 -121q0 -29 -10 -59q46 -14 98 -14zM269 125q171 0 204 14q9 14 9 38q0 29 -19.5 54t-48.5 25
q-68 0 -220 -131h75z" />
    <glyph glyph-name="uniFEC6" unicode="&#x638;" horiz-adv-x="736" arabic-form="final" 
d="M763 125q40 0 40 -40q0 -85 -67 -85q-84 0 -146 40q-38 -25 -92.5 -32.5t-158.5 -7.5h-238l-59 111l4 14h116l37 35v502l115 31l10 -6l-2 -415q125 102 202 102q68 0 110 -55t42 -121q0 -28 -10 -60q48 -13 97 -13zM597 567l-66 -100l-107 76l67 98zM363 125
q171 0 205 14q8 16 8 38q0 29 -19 54t-49 25q-68 0 -220 -131h75z" />
    <glyph glyph-name="uniFEC7" unicode="&#x638;" horiz-adv-x="628" arabic-form="initial" 
d="M430 374q68 0 110 -55t42 -121q0 -43 -19.5 -81.5t-48.5 -62.5q-40 -34 -97 -44t-173 -10h-244l27 125h41q14 14 38 36v501l115 31l10 -6l-2 -415q123 102 201 102zM502 567l-66 -100l-107 76l67 98zM473 139q9 14 9 38q0 29 -19.5 54t-48.5 25q-68 0 -220 -131h75
q171 0 204 14z" />
    <glyph glyph-name="uniFEC8" unicode="&#x638;" horiz-adv-x="643" arabic-form="medial" 
d="M670 125q40 0 40 -40q0 -85 -67 -85q-85 0 -147 41q-38 -25 -92.5 -33t-159.5 -8h-244l27 125h41q14 14 38 36v501l115 31l10 -6l-2 -415q123 102 201 102q68 0 110 -55t42 -121q0 -29 -10 -59q46 -14 98 -14zM502 567l-66 -100l-107 76l67 98zM269 125q171 0 204 14
q9 14 9 38q0 29 -19.5 54t-48.5 25q-68 0 -220 -131h75z" />
    <glyph glyph-name="uniFECA" unicode="&#x639;" horiz-adv-x="581" arabic-form="final" 
d="M311 70q-83 -74 -122 -128.5t-39 -108.5q0 -63 59.5 -95t167.5 -32q115 0 199 24l9 -5l-36 -109q-86 -32 -207 -32q-146 0 -230.5 60t-84.5 172q0 89 57 165t155 156q-75 82 -140 115l-5 10l39 110q88 43 201 43q123 0 210 -51l4 -12l-28 -105q-25 -22 -70 -59t-51 -42
q70 -21 209 -21q40 0 40 -40q0 -85 -67 -85q-96 0 -158 17.5t-112 52.5zM222 285q39 -26 95 -86q73 60 97 85q-45 14 -94 14q-40 0 -98 -13z" />
    <glyph glyph-name="uniFECB" unicode="&#x639;" horiz-adv-x="524" arabic-form="initial" 
d="M474 145l7 -7l-37 -113q-130 -25 -444 -25l27 125h71q-25 48 -25 97q0 90 59.5 141.5t149.5 51.5q72 0 145 -30l-14 -105l-4 -3q-61 19 -102 19q-44 0 -68.5 -21.5t-24.5 -61.5q0 -42 34 -85q130 5 226 17z" />
    <glyph glyph-name="uniFECC" unicode="&#x639;" horiz-adv-x="572" arabic-form="medial" 
d="M598 125q41 0 41 -40q0 -85 -68 -85q-163 0 -271 73q-121 -73 -300 -73l27 125q118 0 194 27q-67 67 -133 100l-3 10l39 110q86 43 202 43q124 0 210 -51l3 -12l-27 -105q-25 -20 -118 -103q65 -19 204 -19zM211 286q34 -22 97 -89q48 33 96 87q-51 15 -97 15
q-47 0 -96 -13z" />
    <glyph glyph-name="uniFECE" unicode="&#x63a;" horiz-adv-x="581" arabic-form="final" 
d="M418 608l-66 -100l-107 76l67 98zM311 70q-83 -74 -122 -128.5t-39 -108.5q0 -63 59.5 -95t167.5 -32q115 0 199 24l9 -5l-36 -109q-86 -32 -207 -32q-146 0 -230.5 60t-84.5 172q0 89 57 165t155 156q-75 82 -140 115l-5 10l39 110q88 43 201 43q123 0 210 -51l4 -12
l-28 -105q-25 -22 -70 -59t-51 -42q70 -21 209 -21q40 0 40 -40q0 -85 -67 -85q-96 0 -158 17.5t-112 52.5zM222 285q39 -26 95 -86q73 60 97 85q-45 14 -94 14q-40 0 -98 -13z" />
    <glyph glyph-name="uniFECF" unicode="&#x63a;" horiz-adv-x="524" arabic-form="initial" 
d="M367 608l-66 -100l-107 76l67 98zM474 145l7 -7l-37 -113q-130 -25 -444 -25l27 125h71q-25 48 -25 97q0 90 59.5 141.5t149.5 51.5q72 0 145 -30l-14 -105l-4 -3q-61 19 -102 19q-44 0 -68.5 -21.5t-24.5 -61.5q0 -42 34 -85q130 5 226 17z" />
    <glyph glyph-name="uniFED0" unicode="&#x63a;" horiz-adv-x="572" arabic-form="medial" 
d="M411 608l-66 -100l-107 76l67 98zM598 125q41 0 41 -40q0 -85 -68 -85q-163 0 -271 73q-121 -73 -300 -73l27 125q118 0 194 27q-67 67 -133 100l-3 10l39 110q86 43 202 43q124 0 210 -51l3 -12l-27 -105q-25 -20 -118 -103q65 -19 204 -19zM211 286q34 -22 97 -89
q48 33 96 87q-51 15 -97 15q-47 0 -96 -13z" />
    <glyph glyph-name="uniFED2" unicode="&#x641;" horiz-adv-x="958" arabic-form="final" 
d="M830 597l-66 -100l-107 76l67 98zM985 125q40 0 40 -40q0 -85 -67 -85h-65q-84 0 -154 31q-110 -43 -300 -43h-61q-166 0 -253.5 48t-87.5 139q0 59 18 122l89 34l10 -5q-9 -46 -9 -83q0 -75 62.5 -102.5t213.5 -27.5h55q73 0 142 8q-34 45 -34 95q0 75 53 138t121 63
q61 0 105 -55t44 -115q0 -65 -38 -121q12 -1 39 -1h77zM746 299q-22 0 -42.5 -22.5t-20.5 -48.5q0 -45 62 -74q62 33 62 79q0 23 -20 44.5t-41 21.5z" />
    <glyph glyph-name="uniFED3" unicode="&#x641;" horiz-adv-x="459" arabic-form="initial" 
d="M308 669l-66 -100l-107 76l67 98zM236 497q77 0 123.5 -75.5t46.5 -184.5q0 -61 -18.5 -115.5t-44.5 -74.5q-38 -29 -109 -38t-234 -9l27 125q217 0 268 18q5 27 6 37q-41 -9 -93 -9q-68 0 -102.5 32.5t-34.5 87.5q0 74 49 140t116 66zM167 310q0 -31 65 -31q33 0 71 5
q-7 39 -27.5 67t-47.5 28q-24 0 -42.5 -22t-18.5 -47z" />
    <glyph glyph-name="uniFED4" unicode="&#x641;" horiz-adv-x="448" arabic-form="medial" 
d="M323 597l-66 -100l-107 76l67 98zM476 125q39 0 39 -40q0 -85 -66 -85h-63q-81 0 -152 31q-77 -31 -176 -31h-58l27 125h82q-32 45 -32 91q0 75 53 138t121 63q61 0 105 -55t44 -115q0 -69 -37 -121q12 -1 38 -1h75zM240 299q-22 0 -43 -22.5t-21 -48.5q0 -45 64 -75
q60 32 60 78q0 25 -20 46.5t-40 21.5z" />
    <glyph glyph-name="uniFED6" unicode="&#x642;" horiz-adv-x="731" arabic-form="final" 
d="M501 514l-44 -69l-103 72l64 94l97 -67l45 67l103 -70l-64 -96zM755 125q43 0 43 -40q0 -85 -67 -85h-48q-52 -186 -343 -186q-149 0 -226 58.5t-77 152.5q0 48 17 114l103 35l11 -6q-11 -56 -11 -86q0 -70 46 -106.5t158 -36.5q173 0 219 48l3 13h-22q-201 0 -201 145
q0 76 49 142.5t117 66.5q71 0 116 -65t52 -164h61zM556 125h39q-3 44 -25 77.5t-52 33.5q-25 0 -43.5 -23t-18.5 -48q0 -40 100 -40z" />
    <glyph glyph-name="uniFED7" unicode="&#x642;" horiz-adv-x="459" arabic-form="initial" 
d="M213 642l-44 -69l-103 72l64 94l97 -67l45 67l103 -70l-64 -96zM236 497q77 0 123.5 -75.5t46.5 -184.5q0 -61 -18.5 -115.5t-44.5 -74.5q-38 -29 -109 -38t-234 -9l27 125q217 0 268 18q5 27 6 37q-41 -9 -93 -9q-68 0 -102.5 32.5t-34.5 87.5q0 74 49 140t116 66z
M167 310q0 -31 65 -31q33 0 71 5q-7 39 -27.5 67t-47.5 28q-24 0 -42.5 -22t-18.5 -47z" />
    <glyph glyph-name="uniFED8" unicode="&#x642;" horiz-adv-x="448" arabic-form="medial" 
d="M228 570l-44 -69l-103 72l64 94l97 -67l45 67l103 -70l-64 -96zM476 125q39 0 39 -40q0 -85 -66 -85h-63q-81 0 -152 31q-77 -31 -176 -31h-58l27 125h82q-32 45 -32 91q0 75 53 138t121 63q61 0 105 -55t44 -115q0 -69 -37 -121q12 -1 38 -1h75zM240 299
q-22 0 -43 -22.5t-21 -48.5q0 -45 64 -75q60 32 60 78q0 25 -20 46.5t-40 21.5z" />
    <glyph glyph-name="uniFEDA" unicode="&#x643;" horiz-adv-x="842" arabic-form="final" 
d="M869 125q40 0 40 -40q0 -85 -67 -85q-87 0 -130 55q-67 -67 -273 -67h-61q-166 0 -253.5 48t-87.5 139q0 59 18 122l89 34l10 -5q-9 -46 -9 -83q0 -75 62.5 -102.5t213.5 -27.5h55q55 0 101.5 8t61.5 17q7 28 7 74v450l115 31l10 -6v-448q0 -67 19 -90.5t79 -23.5z
M320 281l-7 69q30 0 47 1q-23 31 -23 64q0 39 24 62.5t65 23.5q34 0 74 -17l-17 -63q-23 8 -44 8q-36 0 -36 -31q0 -25 21 -44q57 4 86 7l6 -66q-80 -10 -196 -14z" />
    <glyph glyph-name="uniFEDB" unicode="&#x643;" horiz-adv-x="439" arabic-form="initial" 
d="M443 654l-41 -151l-212 -105q112 -75 151.5 -126.5t39.5 -98.5q0 -173 -281 -173h-100l27 125h65q135 0 185 24q0 31 -58.5 78t-154.5 107l-5 7l29 140l346 179z" />
    <glyph glyph-name="uniFEDC" unicode="&#x643;" horiz-adv-x="502" arabic-form="medial" 
d="M528 125q41 0 41 -40q0 -85 -67 -85q-87 0 -157 82q-25 -46 -85 -64t-170 -18h-90l27 125h104q115 0 141 29q-22 32 -84 85t-124 95l-5 7l29 140l346 179l9 -6l-41 -151l-213 -106q102 -83 174 -158q69 -71 99 -91q35 -23 66 -23z" />
    <glyph glyph-name="uniFEDE" unicode="&#x644;" horiz-adv-x="679" arabic-form="final" 
d="M705 125q40 0 40 -40q0 -85 -66 -85q-50 0 -88 24q-29 -104 -110.5 -157t-200.5 -53q-114 0 -178.5 56.5t-64.5 152.5q0 54 19 121l90 34l11 -4q-7 -36 -7 -94q0 -141 155 -141q120 0 167 63q10 60 10 133v527l115 31l10 -6v-474q0 -56 19.5 -72t78.5 -16z" />
    <glyph glyph-name="uniFEDF" unicode="&#x644;" horiz-adv-x="300" arabic-form="initial" 
d="M0 0l27 125q54 0 80 13q7 28 7 74v450l116 31l9 -6v-469q0 -124 -59 -171t-180 -47z" />
    <glyph glyph-name="uniFEE0" unicode="&#x644;" horiz-adv-x="311" arabic-form="medial" 
d="M338 125q40 0 40 -40q0 -85 -67 -85q-85 0 -126 57q-26 -32 -68 -44.5t-117 -12.5l27 125q54 0 80 13q7 28 7 74v450l116 31l9 -6v-474q0 -56 20 -72t79 -16z" />
    <glyph glyph-name="uniFEE2" unicode="&#x645;" horiz-adv-x="560" arabic-form="final" 
d="M587 125q41 0 41 -40q0 -85 -68 -85q-65 0 -103 37q-35 -50 -85 -50q-93 0 -204 120l-17 -26q-6 -88 48 -392l-105 -50l-9 6q-48 248 -48 350q0 131 69 215q51 61 112 103t109 42q26 0 46 -9t39 -33t30.5 -44t34.5 -64q27 -51 45.5 -65.5t64.5 -14.5zM357 105q25 0 42 19
q0 1 -2 5q-27 57 -45.5 82t-36.5 25q-33 0 -83 -52q74 -79 125 -79z" />
    <glyph glyph-name="uniFEE3" unicode="&#x645;" horiz-adv-x="519" arabic-form="initial" 
d="M289 355q70 0 126 -69t56 -155q0 -64 -30.5 -104t-86.5 -40q-99 0 -196 69q-29 -33 -66 -44.5t-92 -11.5l27 125q29 0 44.5 13t39.5 59q18 33 31 52.5t36.5 48t51.5 43t59 14.5zM325 111q22 0 39 9q-3 35 -26.5 75.5t-49.5 40.5q-17 0 -32.5 -20.5t-39.5 -63.5
q63 -41 109 -41z" />
    <glyph glyph-name="uniFEE4" unicode="&#x645;" horiz-adv-x="532" arabic-form="medial" 
d="M558 125q42 0 42 -40q0 -85 -69 -85q-64 0 -103 35q-31 -48 -85 -48q-81 0 -177 69q-28 -35 -65 -45.5t-101 -10.5l27 125q33 0 48 9t32 39q24 41 33.5 56.5t31.5 46.5t37 43.5t38 24t47 11.5q50 0 82.5 -37t71.5 -113q25 -49 45.5 -64.5t64.5 -15.5zM325 105q30 0 46 18
l-3 6q-44 107 -78 107q-27 0 -73 -87q66 -44 108 -44z" />
    <glyph glyph-name="uniFEE6" unicode="&#x646;" horiz-adv-x="650" arabic-form="final" 
d="M375 417l-66 -100l-107 76l67 98zM674 125q43 0 43 -40q0 -85 -67 -85q-36 0 -65 18q-26 -102 -106.5 -153t-198.5 -51q-115 0 -179 57t-64 152q0 57 19 121l90 34l11 -4q-7 -50 -7 -94q0 -67 35.5 -104t119.5 -37q62 0 106.5 19.5t65.5 49.5q8 42 -7.5 93t-49.5 123
l109 77h6q3 -8 21.5 -63.5t24.5 -68.5q21 -44 93 -44z" />
    <glyph glyph-name="uniFEE7" unicode="&#x646;" horiz-adv-x="296" arabic-form="initial" 
d="M153 461l-107 76l67 98l106 -74zM0 0l27 125h10q76 0 96 8q7 43 -57 171l101 80h10q25 -52 40.5 -110.5t15.5 -94.5q0 -79 -53 -134q-25 -24 -64.5 -34.5t-113.5 -10.5h-12z" />
    <glyph glyph-name="uniFEE8" unicode="&#x646;" horiz-adv-x="335" arabic-form="medial" 
d="M301 492l-66 -100l-107 76l67 98zM362 125q40 0 40 -40q0 -85 -67 -85q-40 0 -83.5 13t-72.5 35q-59 -48 -160 -48h-19l27 125h18q60 0 79 13q16 39 34 140l129 30l10 -7q-25 -106 -48 -157q48 -19 113 -19z" />
    <glyph glyph-name="uniFEEA" unicode="&#x647;" horiz-adv-x="457" arabic-form="final" 
d="M483 125q41 0 41 -40q0 -85 -69 -85q-115 0 -161 66q-47 -16 -93 -16q-82 0 -130 35.5t-48 93.5q0 65 63 127t177 100v46l116 45l9 -3v-300q0 -40 19.5 -54.5t75.5 -14.5zM214 171q29 0 49 4v19v95q-53 -13 -91 -33.5t-47 -43.5q7 -19 33.5 -30t55.5 -11z" />
    <glyph glyph-name="uniFEEB" unicode="&#x647;" horiz-adv-x="550" arabic-form="initial" 
d="M130 468q382 -207 382 -348q0 -62 -41 -93t-116 -31q-84 0 -154 32q-63 -28 -142 -28h-59l19 125h71q-23 40 -23 84q0 36 16 71.5t44 58.5q-2 1 -43 20l37 107zM206 135q37 30 37 82q0 31 -12 51.5t-29 20.5t-29.5 -19.5t-12.5 -50.5q0 -56 46 -84zM355 104q50 0 64 10
q-14 40 -86 97q-3 -58 -35 -104q26 -3 57 -3z" />
    <glyph glyph-name="uniFEEC" unicode="&#x647;" horiz-adv-x="468" arabic-form="medial" 
d="M495 125q40 0 40 -40q0 -85 -67 -85h-58q23 -32 23 -72q0 -57 -44 -92.5t-108 -35.5q-92 0 -150 52t-69 148h-62l27 125h41q31 138 121 251l81 46l8 1q139 -102 139 -188q0 -28 -14 -60t-35 -50h127zM256 305q-56 -81 -76 -188q52 4 84.5 31.5t32.5 72.5q0 39 -41 84z
M338 -80q1 35 -33 62t-86 27q-22 0 -43 -6q10 -44 42 -69t76 -25q28 0 44 11z" />
    <glyph glyph-name="uniFEEE" unicode="&#x648;" horiz-adv-x="430" arabic-form="final" 
d="M455 125q42 0 42 -40q0 -85 -69 -85h-62q-33 -79 -111.5 -128t-199.5 -50l-60 95l7 11q184 3 247 72q-99 1 -148 39t-49 108q0 75 49 141.5t116 66.5q70 0 117 -66t52 -164h69zM147 166q0 -41 101 -41h38q-4 46 -26 78.5t-50 32.5q-25 0 -44 -22t-19 -48z" />
    <glyph glyph-name="uniFEF0" unicode="&#x649;" horiz-adv-x="783" arabic-form="final" 
d="M340 -186q-149 0 -226 58.5t-77 152.5q0 48 17 114l103 35l11 -6q-11 -56 -11 -86q0 -70 46 -106.5t158 -36.5q91 0 169 16.5t101 42.5q0 19 -29 33.5t-109 35.5l37 118q17 -5 57.5 -17t59.5 -17.5t50.5 -12.5t58 -10t54.5 -3q40 0 40 -40q0 -85 -68 -85h-43
q-12 -88 -121 -137t-278 -49z" />
    <glyph glyph-name="uniFEF2" unicode="&#x64a;" horiz-adv-x="783" arabic-form="final" 
d="M810 125q40 0 40 -40q0 -85 -68 -85h-43q-12 -88 -121 -137t-278 -49q-149 0 -226 58.5t-77 152.5q0 48 17 114l103 35l11 -6q-11 -56 -11 -86q0 -70 46 -106.5t158 -36.5q91 0 169 16.5t101 42.5q0 19 -29 33.5t-109 35.5l37 118q17 -5 57.5 -17t59.5 -17.5t50.5 -12.5
t58 -10t54.5 -3zM350 -327l45 68l102 -70l-64 -96l-97 69l-46 -69l-102 72l63 94z" />
    <glyph glyph-name="uniFEF3" unicode="&#x64a;" horiz-adv-x="316" arabic-form="initial" 
d="M210 45q-25 -24 -64.5 -34.5t-113.5 -10.5h-32l27 125h30q76 0 96 8q7 45 -56 171l100 80h10q24 -52 40 -111t16 -94q0 -82 -53 -134zM307 -143l-64 -96l-97 69l-46 -69l-102 72l63 94l99 -68l45 68z" />
    <glyph glyph-name="uniFEF4" unicode="&#x64a;" horiz-adv-x="360" arabic-form="medial" 
d="M387 125q40 0 40 -40q0 -85 -66 -85q-123 0 -182 47q-56 -47 -146 -47h-33l27 125h23q52 0 69 13q17 44 35 140l129 30l10 -7q-25 -105 -47 -156q53 -20 141 -20zM188 -141l45 68l102 -70l-64 -96l-97 69l-46 -69l-102 72l63 94z" />
    <glyph glyph-name=".notdef" horiz-adv-x="540" 
d="M80 0v688h380v-688h-380zM156 72h227v544h-227v-544z" />
    <glyph glyph-name=".null" 
 />
    <glyph glyph-name="nonmarkingreturn" horiz-adv-x="333" 
 />
    <glyph glyph-name="NULL" 
 />
    <glyph glyph-name="NULL" 
 />
    <glyph glyph-name="CR" unicode="&#xd;" horiz-adv-x="225" 
 />
    <glyph glyph-name="space" unicode=" " horiz-adv-x="225" 
 />
    <glyph glyph-name="exclam" unicode="!" horiz-adv-x="229" 
d="M62 204l-23 444h151l-24 -435zM114 -13q-33 0 -57 23.5t-24 56.5q0 32 24 55.5t57 23.5q32 0 56.5 -24t24.5 -55q0 -33 -24 -56.5t-57 -23.5z" />
    <glyph glyph-name="quotedbl" unicode="&#x22;" horiz-adv-x="408" 
d="M58 418v230h130l-38 -230h-92zM233 418v230h130l-38 -230h-92z" />
    <glyph glyph-name="numbersign" unicode="#" horiz-adv-x="540" 
d="M527 419h-76l-29 -191h63v-101h-78l-19 -127h-115l19 127h-106l-19 -127h-115l19 127h-58v101h73l29 191h-60v101h76l19 128h115l-19 -128h106l19 128h115l-19 -128h60v-101zM307 228l29 191h-106l-29 -191h106z" />
    <glyph glyph-name="dollar" unicode="$" horiz-adv-x="540" 
d="M527 184q0 -81 -53 -130.5t-141 -62.5v-132h-109v129q-121 10 -211 76l64 99q93 -59 182 -59q122 0 122 72q0 32 -24.5 50.5t-102.5 48.5l-23 9q-47 18 -76 33t-57.5 38t-41.5 54t-13 73q0 75 51.5 119t129.5 56v132h109v-130q96 -13 181 -70l-65 -98q-48 29 -85 42
t-80 13q-48 0 -72.5 -16t-24.5 -43q0 -26 24.5 -44.5t96.5 -44.5l22 -8q38 -14 59 -23t51.5 -27t46.5 -37t28 -50t12 -69z" />
    <glyph glyph-name="percent" unicode="%" horiz-adv-x="937" 
d="M224 278q-81 0 -139 51.5t-58 141.5q0 86 58.5 138.5t138.5 52.5q79 0 137 -51.5t58 -137.5q0 -91 -57.5 -143t-137.5 -52zM291 -14l-89 58l446 618l90 -58zM224 380q32 0 49 26t17 64q0 41 -16.5 65.5t-49.5 24.5q-34 0 -50.5 -24t-16.5 -62q0 -41 17 -67.5t50 -26.5z
M715 -14q-81 0 -139 51.5t-58 141.5q0 86 58.5 138.5t138.5 52.5q79 0 137 -51.5t58 -137.5q0 -91 -57.5 -143t-137.5 -52zM715 88q32 0 49 26t17 64q0 41 -16.5 65.5t-49.5 24.5q-34 0 -50.5 -24t-16.5 -62q0 -41 17 -67.5t50 -26.5z" />
    <glyph glyph-name="ampersand" unicode="&#x26;" horiz-adv-x="685" 
d="M680 77l-88 -91l-96 81q-111 -81 -244 -81q-96 0 -155.5 47t-59.5 129q0 64 32.5 108.5t90.5 82.5q-45 43 -63 76.5t-18 73.5q0 66 51.5 112.5t137.5 46.5q87 0 140 -39t53 -107q0 -57 -29.5 -95.5t-83.5 -72.5l148 -121q29 44 57 108l116 -48q-33 -73 -83 -133zM211 502
q0 -34 54 -84q63 43 63 90q0 25 -16 39t-42 14q-29 0 -44 -16.5t-15 -42.5zM279 93q78 0 135 43l-173 145q-63 -46 -63 -107q0 -33 24.5 -57t76.5 -24z" />
    <glyph glyph-name="quotesingle" unicode="'" horiz-adv-x="232" 
d="M58 418v230h130l-38 -230h-92z" />
    <glyph glyph-name="parenleft" unicode="(" horiz-adv-x="360" 
d="M268 -143q-70 63 -114 121.5t-73 142t-29 182.5q0 147 54.5 249.5t161.5 198.5l76 -64q-153 -156 -153 -384q0 -226 153 -382z" />
    <glyph glyph-name="parenright" unicode=")" horiz-adv-x="360" 
d="M92 -143l-76 64q153 156 153 382q0 228 -153 384l76 64q107 -96 161.5 -198.5t54.5 -249.5q0 -99 -29 -182.5t-73 -142t-114 -121.5z" />
    <glyph glyph-name="asterisk" unicode="*" horiz-adv-x="500" 
d="M446 501l-127 -22l89 -93l-100 -70l-58 113l-58 -113l-100 70l89 93l-127 22l38 115l115 -56l-19 128h123l-18 -128l115 56z" />
    <glyph glyph-name="plus" unicode="+" horiz-adv-x="540" 
d="M209 50v150h-149v110h149v149h123v-149h148v-110h-148v-150h-123z" />
    <glyph glyph-name="comma" unicode="," horiz-adv-x="206" 
d="M83 -170l-63 36q53 69 53 107q0 19 -24.5 41t-24.5 54q0 30 22 54t57 24q38 0 59.5 -26t21.5 -71q0 -94 -101 -219z" />
    <glyph glyph-name="hyphen" unicode="-" horiz-adv-x="380" 
d="M42 210v117h296v-117h-296z" />
    <glyph glyph-name="period" unicode="." horiz-adv-x="206" 
d="M103 -13q-33 0 -57 23.5t-24 56.5q0 32 24 55.5t57 23.5q32 0 56.5 -24t24.5 -55q0 -33 -24 -56.5t-57 -23.5z" />
    <glyph glyph-name="slash" unicode="/" horiz-adv-x="530" 
d="M159 -146l-122 40l335 885l121 -39z" />
    <glyph glyph-name="zero" unicode="0" horiz-adv-x="540" 
d="M264 -14q-111 0 -174 84t-63 254q0 99 23 169t61.5 105t78.5 49.5t86 14.5q237 0 237 -340q0 -80 -15.5 -141.5t-40 -97.5t-58.5 -58.5t-66 -30.5t-69 -8zM267 106q53 0 77.5 49.5t24.5 168.5q0 110 -22 164t-74 54t-77 -50.5t-25 -169.5q0 -110 22 -163t74 -53z" />
    <glyph glyph-name="one" unicode="1" horiz-adv-x="540" 
d="M367 114h120v-114h-416v114h158v389l-121 -57l-55 78l176 124h138v-534z" />
    <glyph glyph-name="two" unicode="2" horiz-adv-x="540" 
d="M480 477q0 -73 -49 -151.5t-185 -211.5h232v-114h-440v65q177 178 235.5 257t58.5 135q0 40 -23 62t-64 22q-60 0 -134 -61l-72 86q99 94 225 94q97 0 156.5 -46t59.5 -137z" />
    <glyph glyph-name="three" unicode="3" horiz-adv-x="540" 
d="M357 353q123 -40 123 -160q0 -91 -60 -149t-189 -58q-110 0 -190 40l47 102q63 -29 135 -29q55 0 85 23t30 66q0 47 -29.5 71t-108.5 24h-48l9 100h78q49 21 69 45t20 57q0 28 -21.5 46.5t-61.5 18.5q-69 0 -136 -54l-70 77q90 86 214 86q104 0 159 -44.5t55 -117.5
q0 -97 -110 -144z" />
    <glyph glyph-name="four" unicode="4" horiz-adv-x="540" 
d="M521 254v-113h-78v-141h-138v141h-287v64l175 443h154l-168 -394h126l27 160h111v-160h78z" />
    <glyph glyph-name="five" unicode="5" horiz-adv-x="540" 
d="M268 405q102 0 161.5 -51t59.5 -147q0 -43 -13 -80.5t-40.5 -70t-78 -51t-119.5 -18.5q-100 0 -187 40l46 102q65 -28 129 -28q62 0 91.5 28t29.5 69q0 50 -28.5 77t-104.5 27q-48 0 -75 -9l-49 40v315h381l-16 -114h-227v-131q26 2 40 2z" />
    <glyph glyph-name="six" unicode="6" horiz-adv-x="540" 
d="M316 426q83 0 138 -55t55 -158q0 -63 -22.5 -110t-59 -71t-74 -35t-77.5 -11q-108 0 -171 74.5t-63 202.5q0 197 80.5 297t206.5 100q67 0 134 -25l-29 -101q-47 19 -104 19q-121 0 -143 -163q60 36 129 36zM280 96q45 0 70 28.5t25 81.5q0 57 -21 88t-75 31
q-46 0 -99 -31v-31q0 -85 24 -126t76 -41z" />
    <glyph glyph-name="seven" unicode="7" horiz-adv-x="540" 
d="M57 648h439v-63q-208 -296 -244 -585h-147q29 268 227 534h-289z" />
    <glyph glyph-name="eight" unicode="8" horiz-adv-x="540" 
d="M373 354q73 -40 107 -81.5t34 -101.5q0 -88 -63.5 -136.5t-178.5 -48.5t-180 47t-65 131q0 105 137 170q-102 65 -102 159q0 80 61.5 123.5t150.5 43.5q97 0 152.5 -45t55.5 -114q0 -82 -109 -147zM271 558q-35 0 -53.5 -18t-18.5 -47q0 -52 89 -97q57 39 57 92
q0 70 -74 70zM271 93q52 0 76 22.5t24 53.5q0 22 -6 37.5t-25.5 30.5t-35 23.5t-54.5 27.5q-80 -46 -80 -108q0 -37 24.5 -62t76.5 -25z" />
    <glyph glyph-name="nine" unicode="9" horiz-adv-x="540" 
d="M263 661q110 0 172.5 -73t62.5 -201q0 -198 -79 -299.5t-209 -101.5q-65 0 -135 26l31 98q52 -20 103 -20q123 0 146 166q-62 -38 -133 -38q-82 0 -136.5 56.5t-54.5 163.5q0 103 64 163t168 60zM260 320q50 0 101 30v33q0 87 -23.5 128.5t-76.5 41.5q-44 0 -70.5 -28.5
t-26.5 -81.5q0 -123 96 -123z" />
    <glyph glyph-name="colon" unicode=":" horiz-adv-x="206" 
d="M103 297q-33 0 -57 23.5t-24 56.5q0 32 24 55.5t57 23.5q32 0 56.5 -24t24.5 -55q0 -33 -24 -56.5t-57 -23.5zM103 -13q-33 0 -57 23.5t-24 56.5q0 32 24 55.5t57 23.5q32 0 56.5 -24t24.5 -55q0 -33 -24 -56.5t-57 -23.5z" />
    <glyph glyph-name="uni003B" unicode=";" horiz-adv-x="206" 
d="M103 297q-33 0 -57 23.5t-24 56.5q0 32 24 55.5t57 23.5q32 0 56.5 -24t24.5 -55q0 -33 -24 -56.5t-57 -23.5zM83 -170l-63 36q53 69 53 107q0 19 -24.5 41t-24.5 54q0 30 22 54t57 24q38 0 59.5 -26t21.5 -71q0 -94 -101 -219z" />
    <glyph glyph-name="less" unicode="&#x3c;" horiz-adv-x="540" 
d="M480 375l-307 -119l307 -118l-43 -104l-377 146v150l377 150z" />
    <glyph glyph-name="equal" unicode="=" horiz-adv-x="540" 
d="M60 287v111h420v-111h-420zM60 115v111h420v-111h-420z" />
    <glyph glyph-name="greater" unicode="&#x3e;" horiz-adv-x="540" 
d="M103 477l377 -146v-150l-377 -150l-43 105l307 119l-307 118z" />
    <glyph glyph-name="question" unicode="?" horiz-adv-x="472" 
d="M149 205v39q0 47 19.5 83.5t68.5 76.5q33 26 45.5 44.5t12.5 39.5q0 59 -76 59q-66 0 -136 -66l-74 84q40 43 101 70t124 27q94 0 152.5 -42t58.5 -126q0 -44 -19 -76.5t-66 -68.5q-41 -32 -57.5 -58t-16.5 -60v-13zM217 -13q-33 0 -57 23.5t-24 56.5q0 32 24 55.5
t57 23.5q32 0 56.5 -24t24.5 -55q0 -33 -24 -56.5t-57 -23.5z" />
    <glyph glyph-name="at" unicode="@" horiz-adv-x="902" 
d="M469 662q188 0 292 -104t104 -263q0 -94 -51 -160t-146 -66q-70 0 -107 48q-68 -48 -141 -48q-87 0 -129.5 55.5t-42.5 138.5q0 99 60.5 158.5t154.5 59.5q103 0 175 -41v-225q0 -26 9.5 -38.5t33.5 -12.5q70 0 70 132q0 270 -289 270q-144 0 -227.5 -83t-83.5 -227
q0 -133 77.5 -208.5t214.5 -75.5q110 0 188 35l32 -89q-96 -43 -221 -43q-179 0 -292 104.5t-113 276.5q0 190 120.5 298t311.5 108zM376 267q0 -98 72 -98q37 0 72 22v190q-25 5 -50 5q-94 0 -94 -119z" />
    <glyph glyph-name="A" unicode="A" horiz-adv-x="668" 
d="M422 648l233 -640v-8h-151l-52 155h-240l-51 -155h-149v8l233 640h177zM250 269h164l-83 247z" />
    <glyph glyph-name="B" unicode="B" horiz-adv-x="610" 
d="M446 341q62 -16 94 -58t32 -93q0 -91 -64 -140.5t-183 -49.5h-254v648h237q115 0 176.5 -46.5t61.5 -125.5q0 -43 -25 -79.5t-75 -55.5zM306 536h-93v-151h79q110 0 110 79q0 72 -96 72zM313 114q113 0 113 83q0 37 -27 59t-82 22h-104v-164h100z" />
    <glyph glyph-name="C" unicode="C" horiz-adv-x="578" 
d="M351 -14q-163 0 -238.5 90.5t-75.5 242.5q0 94 25 162.5t69.5 106.5t98 56t117.5 18q114 0 214 -59l-53 -105q-71 46 -154 46q-169 0 -169 -217q0 -108 47 -164t133 -56q73 0 146 44l55 -100q-109 -65 -215 -65z" />
    <glyph glyph-name="D" unicode="D" horiz-adv-x="679" 
d="M287 648q81 0 143 -16t111 -52t74.5 -100.5t25.5 -155.5q0 -66 -19.5 -120t-52.5 -91.5t-79 -63t-98 -37.5t-110 -12h-211v648h216zM257 122q122 0 176 41.5t54 160.5q0 110 -49 156t-151 46h-74v-404h44z" />
    <glyph glyph-name="E" unicode="E" horiz-adv-x="552" 
d="M213 116h296v-116h-438v648h433v-115h-291v-146h251l-16 -114h-235v-157z" />
    <glyph glyph-name="F" unicode="F" horiz-adv-x="530" 
d="M504 533h-291v-162h251l-16 -114h-235v-257h-142v648h433v-115z" />
    <glyph glyph-name="G" unicode="G" horiz-adv-x="648" 
d="M333 373h264v-324q-123 -63 -245 -63q-163 0 -239 90.5t-76 244.5q0 174 90 257.5t235 83.5q124 0 220 -61l-58 -101q-76 45 -155 45q-93 0 -139 -56.5t-46 -161.5q0 -111 42.5 -165.5t134.5 -54.5q52 0 94 16v135h-138z" />
    <glyph glyph-name="H" unicode="H" horiz-adv-x="720" 
d="M506 648h142v-648h-142v269h-293v-269h-142v648h142v-259h293v259z" />
    <glyph glyph-name="I" unicode="I" horiz-adv-x="285" 
d="M71 0v648h142v-648h-142z" />
    <glyph glyph-name="J" unicode="J" horiz-adv-x="476" 
d="M190 -14q-116 0 -194 68l69 94q51 -42 109 -42q47 0 71.5 27t24.5 76v439h142v-442q0 -63 -21 -108.5t-55.5 -68.5t-70.5 -33t-75 -10z" />
    <glyph glyph-name="K" unicode="K" horiz-adv-x="645" 
d="M366 342l270 -334v-8h-173l-250 321v-321h-142v648h142v-300l249 300h160v-8z" />
    <glyph glyph-name="L" unicode="L" horiz-adv-x="521" 
d="M213 122h294v-122h-436v648h142v-526z" />
    <glyph glyph-name="M" unicode="M" horiz-adv-x="843" 
d="M626 648h146v-648h-140v403q-13 -37 -44 -97l-112 -226h-109l-114 226q-31 61 -44 97v-403h-138v648h146l148 -284q37 -72 56 -128q14 46 56 128z" />
    <glyph glyph-name="N" unicode="N" horiz-adv-x="717" 
d="M508 648h138v-648h-154l-203 302q-54 81 -79 136v-438h-139v648h153l221 -332q48 -72 63 -105v437z" />
    <glyph glyph-name="O" unicode="O" horiz-adv-x="726" 
d="M360 -14q-156 0 -239.5 93t-83.5 247q0 85 27 151t73 105.5t104.5 59.5t125.5 20q155 0 238.5 -93t83.5 -247q0 -85 -26.5 -151t-72.5 -105.5t-104.5 -59.5t-125.5 -20zM360 102q89 0 136 58.5t47 160.5q0 106 -45 165.5t-131 59.5q-90 0 -137 -58.5t-47 -160.5
q0 -106 45 -165.5t132 -59.5z" />
    <glyph glyph-name="P" unicode="P" horiz-adv-x="576" 
d="M298 648q127 0 191.5 -57.5t64.5 -150.5q0 -100 -67 -161.5t-192 -61.5h-82v-217h-142v648h227zM281 331q61 0 94 23.5t33 81.5q0 98 -112 98h-83v-203h68z" />
    <glyph glyph-name="Q" unicode="Q" horiz-adv-x="726" 
d="M698 -49l-78 -122l-229 158q-10 -1 -31 -1q-156 0 -239.5 93t-83.5 247q0 85 27 151t73 105.5t104.5 59.5t125.5 20q155 0 238.5 -93t83.5 -247q0 -98 -42 -171.5t-112 -116.5zM183 327q0 -106 45 -165.5t132 -59.5q89 0 136 58.5t47 160.5q0 106 -45 165.5t-131 59.5
q-90 0 -137 -58.5t-47 -160.5z" />
    <glyph glyph-name="R" unicode="R" horiz-adv-x="601" 
d="M411 255l174 -247v-8h-157l-161 236h-54v-236h-142v648h217q127 0 192 -56t65 -146q0 -68 -34 -117.5t-100 -73.5zM213 534v-191h61q125 0 125 99q0 46 -29 69t-81 23h-76z" />
    <glyph glyph-name="S" unicode="S" horiz-adv-x="566" 
d="M274 -14q-150 0 -255 78l64 99q93 -59 182 -59q122 0 122 72q0 32 -24.5 50.5t-102.5 48.5l-23 9q-47 18 -76 33t-57.5 38t-41.5 54t-13 73q0 89 72 134.5t170 45.5q121 0 229 -73l-65 -98q-48 29 -85 42t-80 13q-48 0 -72.5 -16t-24.5 -43q0 -26 24.5 -44.5t96.5 -44.5
l22 -8q38 -14 59 -23t51.5 -27t46.5 -37t28 -50t12 -69q0 -96 -72.5 -147t-186.5 -51z" />
    <glyph glyph-name="T" unicode="T" horiz-adv-x="577" 
d="M564 648v-121h-202v-527h-142v527h-207v121h551z" />
    <glyph glyph-name="U" unicode="U" horiz-adv-x="688" 
d="M338 -14q-144 0 -212.5 77t-68.5 201v384h142v-367q0 -84 33 -130.5t115 -46.5q142 0 142 167v377h142v-381q0 -145 -80 -213t-213 -68z" />
    <glyph glyph-name="V" unicode="V" horiz-adv-x="656" 
d="M499 648h145v-8l-237 -640h-157l-238 640v8h150l169 -505z" />
    <glyph glyph-name="W" unicode="W" horiz-adv-x="925" 
d="M766 648h143v-8l-166 -640h-176l-80 355q-14 59 -25 143q-11 -84 -25 -143l-78 -355h-176l-167 640v8h145l83 -351q15 -63 29 -165q16 103 30 165l82 351h161l80 -344q18 -81 32 -173q12 91 31 173z" />
    <glyph glyph-name="X" unicode="X" horiz-adv-x="626" 
d="M398 343l215 -343h-171l-130 238l-143 -238h-157l215 331l-205 317h169l125 -213l129 213h156z" />
    <glyph glyph-name="Y" unicode="Y" horiz-adv-x="636" 
d="M624 648v-8l-236 -370v-270h-142v266l-234 374v8h160l146 -250l152 250h154z" />
    <glyph glyph-name="Z" unicode="Z" horiz-adv-x="581" 
d="M544 648v-68l-319 -459h306v-121h-504v68l322 459h-303l15 121h483z" />
    <glyph glyph-name="bracketleft" unicode="[" horiz-adv-x="360" 
d="M67 -126v869h277v-115h-142v-639h142v-115h-277z" />
    <glyph glyph-name="backslash" unicode="\" horiz-adv-x="530" 
d="M371 -146l-334 886l121 39l335 -885z" />
    <glyph glyph-name="bracketright" unicode="]" horiz-adv-x="360" 
d="M16 -126v115h142v639h-142v115h277v-869h-277z" />
    <glyph glyph-name="asciicircum" unicode="^" horiz-adv-x="540" 
d="M495 327h-148l-82 191l-80 -191h-140l161 321h128z" />
    <glyph glyph-name="underscore" unicode="_" horiz-adv-x="540" 
d="M35 -171v111h470v-111h-470z" />
    <glyph glyph-name="grave" unicode="`" horiz-adv-x="326" 
d="M246 489l-202 93l68 108l179 -138z" />
    <glyph glyph-name="a" unicode="a" horiz-adv-x="495" 
d="M263 465q88 0 132.5 -34.5t44.5 -113.5v-317h-116l-11 35q-67 -49 -150 -49q-64 0 -102.5 35t-38.5 91q0 79 78 120.5t204 46.5v11q0 41 -13.5 58t-50.5 17q-63 0 -143 -51l-52 82q106 69 218 69zM163 129q0 -45 51 -45q41 0 90 27v87q-141 -8 -141 -69z" />
    <glyph glyph-name="b" unicode="b" horiz-adv-x="545" 
d="M334 465q179 0 179 -233q0 -68 -22.5 -118t-61.5 -77t-83.5 -39t-95.5 -12q-91 0 -190 26v676l137 13v-277q68 41 137 41zM243 86q61 0 95.5 36.5t34.5 111.5q0 71 -18.5 100t-66.5 29q-39 0 -91 -27v-246q20 -4 46 -4z" />
    <glyph glyph-name="c" unicode="c" horiz-adv-x="443" 
d="M256 -14q-46 0 -83.5 11t-70.5 35.5t-51.5 71t-18.5 111.5q0 125 71 187.5t165 62.5q74 0 154 -42l-47 -89q-57 28 -98 28q-47 0 -75.5 -36.5t-28.5 -109.5q0 -122 103 -122q46 0 107 35l48 -87q-87 -56 -175 -56z" />
    <glyph glyph-name="d" unicode="d" horiz-adv-x="542" 
d="M346 688l136 13v-701h-116l-10 31q-66 -45 -136 -45q-93 0 -140.5 58.5t-47.5 170.5q0 67 20.5 117t55.5 78t75 41.5t84 13.5q37 0 79 -11v234zM172 216q0 -128 84 -128q44 0 90 28v246q-31 7 -58 7q-53 0 -84.5 -39.5t-31.5 -113.5z" />
    <glyph glyph-name="e" unicode="e" horiz-adv-x="492" 
d="M460 266q0 -20 -4 -70h-288q6 -56 37 -82.5t74 -26.5q60 0 126 38l46 -82q-77 -57 -185 -57q-102 0 -168 57t-66 179q0 115 59 179t164 64q99 0 152 -56t53 -143zM258 373q-70 0 -86 -89h159v3q0 86 -73 86z" />
    <glyph glyph-name="f" unicode="f" horiz-adv-x="339" 
d="M277 583q-28 0 -44.5 -19t-16.5 -54v-60h116l-14 -107h-102v-343h-136v343h-66v107h66v57q0 83 47.5 136t133.5 53q60 0 113 -21l-33 -106q-30 14 -64 14z" />
    <glyph glyph-name="g" unicode="g" horiz-adv-x="528" 
d="M329 92q92 -8 139 -36t47 -92q0 -75 -70 -119.5t-189 -44.5q-102 0 -168 31.5t-66 96.5q0 66 70 106q-27 22 -27 54q0 40 54 78q-82 42 -82 133q0 84 64.5 125t160.5 41q36 0 58 -5l158 67l39 -105l-94 -22q51 -39 51 -105q0 -80 -64.5 -118t-156.5 -38q-27 0 -51 3
q-6 -10 -6 -17q0 -12 13.5 -17.5t53.5 -9.5zM256 368q-82 0 -82 -68q0 -65 85 -65q79 0 79 65q0 68 -82 68zM258 -105q52 0 80.5 13t28.5 36q0 20 -20 29.5t-76 14.5l-58 5q-15 1 -43 7q-19 -31 -19 -53q0 -26 23 -39t84 -13z" />
    <glyph glyph-name="h" unicode="h" horiz-adv-x="541" 
d="M347 465q139 0 139 -134v-331h-136v290q0 41 -13 57t-48 16q-43 0 -93 -29v-334h-136v688l136 13v-279q70 43 151 43z" />
    <glyph glyph-name="i" unicode="i" horiz-adv-x="256" 
d="M126 517q-35 0 -61 25t-26 59q0 35 26 60t61 25q37 0 63 -25t26 -60t-26 -59.5t-63 -24.5zM60 0v447l136 13v-460h-136z" />
    <glyph glyph-name="j" unicode="j" horiz-adv-x="256" 
d="M127 517q-35 0 -61 25t-26 59q0 35 26 60t61 25q37 0 63 -25t26 -60t-26 -59.5t-63 -24.5zM36 -200q-56 0 -105 21l29 91q30 -9 50 -9q50 0 50 56v491l136 13v-495q0 -85 -43.5 -126.5t-116.5 -41.5z" />
    <glyph glyph-name="k" unicode="k" horiz-adv-x="516" 
d="M338 244l174 -236v-8h-159l-157 224v-224h-136v688l136 13v-453l163 202h144v-7z" />
    <glyph glyph-name="l" unicode="l" horiz-adv-x="256" 
d="M60 0v688l136 13v-701h-136z" />
    <glyph glyph-name="m" unicode="m" horiz-adv-x="796" 
d="M611 465q63 0 96.5 -34.5t33.5 -99.5v-331h-136v290q0 40 -11.5 56.5t-38.5 16.5q-36 0 -86 -29v-3v-331h-136v290q0 40 -11.5 56.5t-38.5 16.5q-39 0 -87 -29v-334h-136v447l136 13v-39q69 44 143 44q76 0 109 -50q84 50 163 50z" />
    <glyph glyph-name="n" unicode="n" horiz-adv-x="542" 
d="M348 465q139 0 139 -135v-330h-136v290q0 41 -13 57t-48 16q-40 0 -94 -32v-331h-136v447l136 13v-44q79 49 152 49z" />
    <glyph glyph-name="o" unicode="o" horiz-adv-x="542" 
d="M264 -14q-112 0 -172 68t-60 172q0 65 20 113t55.5 74.5t77.5 39t92 12.5q114 0 173.5 -65.5t59.5 -174.5q0 -122 -68.5 -180.5t-177.5 -58.5zM271 87q98 0 98 139q0 138 -96 138q-53 0 -77 -34.5t-24 -103.5q0 -139 99 -139z" />
    <glyph glyph-name="p" unicode="p" horiz-adv-x="545" 
d="M332 465q181 0 181 -230q0 -67 -21 -117t-57 -77.5t-77 -41t-86 -13.5q-37 0 -76 11v-183h-136v633l136 13v-37q69 42 136 42zM249 85q59 0 91.5 37.5t32.5 112.5q0 72 -19.5 100t-68.5 28q-40 0 -89 -28v-245q28 -5 53 -5z" />
    <glyph glyph-name="q" unicode="q" horiz-adv-x="542" 
d="M289 464q89 0 193 -34v-616h-136v210q-60 -38 -128 -38q-93 0 -139.5 59t-46.5 169q0 70 23.5 121t63 78t82 39t88.5 12zM254 88q43 0 92 28v246q-28 6 -53 6q-55 0 -88 -38.5t-33 -115.5q0 -126 82 -126z" />
    <glyph glyph-name="r" unicode="r" horiz-adv-x="385" 
d="M320 465q28 0 54 -9l-20 -137q-30 12 -59 12q-57 0 -99 -57v-274h-136v447l136 13v-63q50 68 124 68z" />
    <glyph glyph-name="s" unicode="s" horiz-adv-x="437" 
d="M220 -14q-123 0 -209 62l57 87q70 -50 148 -50q64 0 64 37q0 17 -16.5 28.5t-68.5 26.5l-29 8q-72 20 -103.5 52t-31.5 87q0 63 51 102t133 39q102 0 185 -49l-52 -87q-71 37 -129 37q-50 0 -50 -32q0 -15 12 -23t54 -19l33 -9q148 -38 148 -147q0 -66 -50 -108t-146 -42
z" />
    <glyph glyph-name="t" unicode="t" horiz-adv-x="370" 
d="M325 110l37 -91q-59 -33 -132 -33q-58 0 -99 35t-41 107v215h-82v107h82v101l136 19v-120h125l-14 -107h-111v-194q0 -54 40 -54q25 0 59 15z" />
    <glyph glyph-name="u" unicode="u" horiz-adv-x="540" 
d="M344 447l136 13v-460h-116l-11 36q-77 -50 -158 -50q-67 0 -103.5 37t-36.5 102v322l136 13v-295q0 -40 13 -57.5t47 -17.5q36 0 93 31v326z" />
    <glyph glyph-name="v" unicode="v" horiz-adv-x="476" 
d="M325 450h150v-7l-166 -443h-137l-171 443v7h144l77 -239q14 -46 21 -79q14 62 18 79z" />
    <glyph glyph-name="w" unicode="w" horiz-adv-x="687" 
d="M542 450h141v-7l-129 -443h-126l-63 219q-14 51 -19 82q-4 -36 -17 -82l-59 -221h-130l-136 445v7h147l48 -211q9 -42 13 -83q8 45 17 82l55 212h130l56 -206q11 -47 18 -86q4 42 13 86z" />
    <glyph glyph-name="x" unicode="x" horiz-adv-x="501" 
d="M339 235l152 -227v-8h-160l-82 146l-92 -146h-146v8l156 224l-145 211v7h158l78 -132l78 132h141v-7z" />
    <glyph glyph-name="y" unicode="y" horiz-adv-x="472" 
d="M331 450h141v-7l-137 -426q-37 -116 -91.5 -166.5t-145.5 -50.5q-54 0 -100 18l34 95q27 -10 56 -10q37 0 64.5 19t49.5 78h-36l-168 443v7h142l80 -241q9 -27 22 -81q9 40 21 79z" />
    <glyph glyph-name="z" unicode="z" horiz-adv-x="444" 
d="M420 450v-60l-210 -277h207v-113h-399v62l212 275h-197l15 113h372z" />
    <glyph glyph-name="braceleft" unicode="{" horiz-adv-x="360" 
d="M324 -135q-217 20 -217 165q0 15 6.5 71.5t6.5 69.5q0 49 -18 64.5t-68 17.5v110q50 2 68 17.5t18 64.5q0 13 -6.5 69.5t-6.5 71.5q0 145 217 165l22 -125q-60 3 -84 -10.5t-24 -46.5q0 -9 6 -66t6 -74q0 -54 -30 -85.5t-72 -35.5q42 -4 72 -36t30 -85q0 -17 -6 -74
t-6 -66q0 -32 23.5 -48t84.5 -24z" />
    <glyph glyph-name="bar" unicode="|" horiz-adv-x="270" 
d="M68 -186v941h134v-941h-134z" />
    <glyph glyph-name="braceright" unicode="}" horiz-adv-x="360" 
d="M36 -135l-22 110q61 8 84.5 24t23.5 48q0 9 -6 66t-6 74q0 53 30 85t72 36q-42 4 -72 35.5t-30 85.5q0 17 6 74t6 66q0 33 -24 46.5t-84 10.5l22 125q217 -20 217 -165q0 -15 -6.5 -71.5t-6.5 -69.5q0 -49 18 -64.5t68 -17.5v-110q-50 -2 -68 -17.5t-18 -64.5
q0 -13 6.5 -69.5t6.5 -71.5q0 -145 -217 -165z" />
    <glyph glyph-name="asciitilde" unicode="~" horiz-adv-x="540" 
d="M338 181q-41 0 -86.5 29t-61.5 29q-23 0 -37 -11.5t-29 -41.5l-78 27q45 137 164 137q32 0 60 -14t50 -28.5t38 -14.5q18 0 31 10.5t27 41.5l78 -27q-45 -137 -156 -137z" />
    <glyph glyph-name="uni00A0" unicode="&#xa0;" horiz-adv-x="225" 
 />
    <glyph glyph-name="exclamdown" unicode="&#xa1;" horiz-adv-x="229" 
d="M114 307q-32 0 -56 23.5t-24 54.5q0 33 23.5 56.5t56.5 23.5t57 -23.5t24 -56.5q0 -32 -24 -55t-57 -23zM39 -196l24 435l103 10l24 -445h-151z" />
    <glyph glyph-name="cent" unicode="&#xa2;" horiz-adv-x="540" 
d="M474 42q-67 -42 -129 -52v-131h-108v133q-73 13 -117.5 66.5t-44.5 156.5q0 99 45.5 158.5t116.5 80.5v130h108v-121q53 -5 120 -40l-47 -89q-57 28 -98 28q-47 0 -75.5 -36.5t-28.5 -109.5q0 -122 103 -122q46 0 107 35z" />
    <glyph glyph-name="sterling" unicode="&#xa3;" horiz-adv-x="540" 
d="M272 232q0 -70 -32 -119h251v-113h-441v113h61q28 44 28 113q0 25 -5 53h-78v96h49q-24 66 -24 113q2 76 60 125t153 49q110 0 201 -84l-76 -84q-64 56 -122 56q-31 0 -51 -19t-21 -51q-1 -36 20 -105h170v-96h-146q3 -23 3 -47z" />
    <glyph glyph-name="currency" unicode="&#xa4;" horiz-adv-x="540" 
d="M476 284q0 -60 -27 -106l70 -70l-69 -68l-69 71q-48 -27 -111 -27q-64 0 -112 27l-69 -69l-69 68l70 69q-26 44 -26 105t26 105l-71 70l69 68l70 -70q48 27 112 27t112 -27l69 69l69 -68l-70 -69q26 -44 26 -105zM175 284q0 -94 95 -94q46 0 70.5 25t24.5 69q0 94 -95 94
q-46 0 -70.5 -25t-24.5 -69z" />
    <glyph glyph-name="yen" unicode="&#xa5;" horiz-adv-x="540" 
d="M538 648l-182 -317h119v-84h-137v-54h137v-84h-137v-109h-138v109h-135v84h135v54h-135v84h115l-178 317h159l109 -229l113 229h155z" />
    <glyph glyph-name="brokenbar" unicode="&#xa6;" horiz-adv-x="270" 
d="M68 400v355h134v-355h-134zM68 -186v355h134v-355h-134z" />
    <glyph glyph-name="section" unicode="&#xa7;" horiz-adv-x="540" 
d="M388 225q53 -35 53 -93q0 -69 -53.5 -107.5t-131.5 -38.5q-86 0 -170 36l43 92q67 -29 124 -29q50 0 50 29q0 22 -19.5 34t-79.5 33q-71 25 -96 47q-35 31 -35 79q0 74 86 113q-54 38 -54 104q0 65 52.5 101.5t125.5 36.5q84 0 161 -37l-46 -93q-69 32 -111 32
q-25 0 -38 -9.5t-13 -24.5q0 -20 18.5 -31t79.5 -32q69 -24 94 -45q37 -31 37 -80q0 -67 -77 -117zM195 332q0 -20 18 -32t68 -30l27 -9q35 25 35 55q0 20 -20 32.5t-66 29.5q-4 2 -12 4.5t-11 3.5q-39 -26 -39 -54z" />
    <glyph glyph-name="dieresis" unicode="&#xa8;" horiz-adv-x="421" 
d="M112 515q-29 0 -50.5 21t-21.5 50t21.5 50t50.5 21q31 0 52 -21t21 -50t-21 -50t-52 -21zM308 515q-30 0 -51 21t-21 50t21 50t51 21t51.5 -21t21.5 -50t-21.5 -50t-51.5 -21z" />
    <glyph glyph-name="copyright" unicode="&#xa9;" horiz-adv-x="749" 
d="M375 -12q-141 0 -239.5 97t-98.5 238t98.5 239t239.5 98t238.5 -98t97.5 -239t-97.5 -238t-238.5 -97zM375 65q107 0 179 75t72 183q0 109 -72 184.5t-179 75.5t-180 -75.5t-73 -184.5q0 -108 73 -183t180 -75zM383 130q-93 0 -141.5 54.5t-48.5 141.5q0 99 56.5 146
t133.5 47q63 0 128 -37l-42 -70q-43 22 -80 22q-45 0 -66 -31t-21 -76q0 -111 86 -111q41 0 83 23l38 -73q-62 -36 -126 -36z" />
    <glyph glyph-name="ordfeminine" unicode="&#xaa;" horiz-adv-x="402" 
d="M218 662q146 0 146 -122v-258h-92l-10 27q-55 -39 -123 -39q-52 0 -84 30t-32 79q0 64 63.5 99t165.5 39v14q0 26 -11.5 37.5t-40.5 11.5q-54 0 -119 -42l-44 65q86 59 181 59zM138 387q0 -30 43 -30q34 0 71 19v67q-114 -5 -114 -56z" />
    <glyph glyph-name="guillemotleft" unicode="&#xab;" horiz-adv-x="533" 
d="M193 51l-157 167v100l157 168l71 -53l-108 -165l108 -164zM406 51l-157 167v100l157 168l71 -53l-108 -165l108 -164z" />
    <glyph glyph-name="logicalnot" unicode="&#xac;" horiz-adv-x="540" 
d="M356 111v150h-296v111h420v-261h-124z" />
    <glyph glyph-name="uni00AD" unicode="&#xad;" horiz-adv-x="380" 
d="M42 210v117h296v-117h-296z" />
    <glyph glyph-name="registered" unicode="&#xae;" horiz-adv-x="566" 
d="M284 662q102 0 173.5 -71.5t71.5 -174.5q0 -102 -71.5 -173t-173.5 -71q-103 0 -175 71t-72 173q0 103 72 174.5t175 71.5zM284 228q78 0 130.5 55t52.5 133q0 80 -52.5 134.5t-130.5 54.5q-79 0 -132 -54.5t-53 -134.5q0 -79 53 -133.5t132 -54.5zM395 461
q0 -57 -49 -78l56 -96h-81l-46 85h-18v-85h-74v264h99q55 0 84 -26t29 -64zM257 488v-63h21q41 0 41 32q0 12 -8 21.5t-25 9.5h-29z" />
    <glyph glyph-name="macron" unicode="&#xaf;" horiz-adv-x="366" 
d="M40 530v103h286v-103h-286z" />
    <glyph glyph-name="degree" unicode="&#xb0;" horiz-adv-x="435" 
d="M216 324q-77 0 -128 43.5t-51 125.5t51.5 124.5t128.5 42.5q80 0 130 -43t50 -126q0 -82 -51 -124.5t-130 -42.5zM216 418q68 0 68 74q0 75 -67 75q-66 0 -66 -74q0 -75 65 -75z" />
    <glyph glyph-name="plusminus" unicode="&#xb1;" horiz-adv-x="540" 
d="M209 149v120h-149v111h149v119h123v-119h148v-111h-148v-120h-123zM60 0v110h420v-110h-420z" />
    <glyph glyph-name="uni00B2" unicode="&#xb2;" horiz-adv-x="360" 
d="M332 584q0 -38 -25.5 -79.5t-107.5 -122.5h126v-94h-294v52q114 113 146.5 154.5t32.5 65.5q0 38 -44 38q-36 0 -76 -31l-59 69q61 61 153 61q64 0 106 -29.5t42 -83.5z" />
    <glyph glyph-name="uni00B3" unicode="&#xb3;" horiz-adv-x="358" 
d="M258 508q76 -26 76 -99q0 -56 -41 -93.5t-134 -37.5q-82 0 -134 28l38 82q37 -17 89 -17q66 0 66 38q0 20 -17.5 31t-67.5 11h-30l7 81h59q40 19 40 46q0 12 -10.5 20.5t-30.5 8.5q-42 0 -85 -31l-57 63q62 58 148 58q73 0 111.5 -28.5t38.5 -77.5q0 -53 -66 -83z" />
    <glyph glyph-name="acute" unicode="&#xb4;" horiz-adv-x="326" 
d="M84 489l-44 63l179 138l67 -108z" />
    <glyph glyph-name="uni00B5" unicode="&#xb5;" horiz-adv-x="545" 
d="M349 447l136 13v-460h-116l-10 34q-62 -43 -119 -43q-30 0 -58 13q14 -42 14 -86v-104h-136v633l136 13v-295q0 -40 13 -57.5t47 -17.5q36 0 93 31v326z" />
    <glyph glyph-name="paragraph" unicode="&#xb6;" horiz-adv-x="600" 
d="M476 -198q-122 8 -177.5 50t-55.5 131v257q-94 2 -144 58.5t-50 162.5q0 103 54 157.5t154 54.5h280v-673h-109v572h-72v-573q0 -45 25.5 -65t104.5 -29z" />
    <glyph glyph-name="periodcentered" unicode="&#xb7;" horiz-adv-x="206" 
d="M103 207q-33 0 -57 23.5t-24 56.5q0 32 24 55.5t57 23.5q32 0 56.5 -24t24.5 -55q0 -33 -24 -56.5t-57 -23.5z" />
    <glyph glyph-name="cedilla" unicode="&#xb8;" horiz-adv-x="332" 
d="M155 -238q-64 0 -115 28l28 74q39 -16 68 -16q40 0 40 26q0 16 -18 21t-71 7l13 108l91 -1v-48q101 -9 101 -93q0 -53 -37.5 -79.5t-99.5 -26.5z" />
    <glyph glyph-name="uni00B9" unicode="&#xb9;" horiz-adv-x="358" 
d="M143 688h113v-400h-113v283l-74 -25l-45 65z" />
    <glyph glyph-name="ordmasculine" unicode="&#xba;" horiz-adv-x="436" 
d="M211 270q-89 0 -136.5 56.5t-47.5 140.5q0 98 56 146.5t141 48.5q89 0 137.5 -55.5t48.5 -140.5q0 -98 -57 -147t-142 -49zM218 356q76 0 76 111q0 109 -74 109q-77 0 -77 -109q0 -111 75 -111z" />
    <glyph glyph-name="guillemotright" unicode="&#xbb;" horiz-adv-x="533" 
d="M127 51l-71 53l108 164l-108 165l71 53l157 -168v-100zM340 51l-71 53l108 164l-108 165l71 53l157 -168v-100z" />
    <glyph glyph-name="onequarter" unicode="&#xbc;" horiz-adv-x="876" 
d="M652 745l94 -50l-473 -790l-94 49zM256 217h-113v283l-74 -25l-45 65l119 77h113v-400zM869 174v-91h-45v-83h-113v83h-188v49l115 268h126l-108 -226h55l22 74h91v-74h45z" />
    <glyph glyph-name="onehalf" unicode="&#xbd;" horiz-adv-x="917" 
d="M652 745l94 -50l-473 -790l-94 49zM256 217h-113v283l-74 -25l-45 65l119 77h113v-400zM889 296q0 -38 -25.5 -79.5t-107.5 -122.5h126v-94h-294v52q114 113 146.5 154.5t32.5 65.5q0 38 -44 38q-36 0 -76 -31l-59 69q61 61 153 61q64 0 106 -29.5t42 -83.5z" />
    <glyph glyph-name="threequarters" unicode="&#xbe;" horiz-adv-x="896" 
d="M672 745l94 -50l-473 -790l-94 49zM334 338q0 -56 -41 -93.5t-134 -37.5q-82 0 -134 28l38 82q37 -17 89 -17q66 0 66 38q0 20 -17.5 31t-67.5 11h-30l7 81h59q40 19 40 46q0 12 -10.5 20.5t-30.5 8.5q-42 0 -85 -31l-57 63q62 58 148 58q73 0 111.5 -28.5t38.5 -77.5
q0 -53 -66 -83q76 -26 76 -99zM889 174v-91h-45v-83h-113v83h-188v49l115 268h126l-108 -226h55l22 74h91v-74h45z" />
    <glyph glyph-name="questiondown" unicode="&#xbf;" horiz-adv-x="472" 
d="M255 307q-32 0 -56.5 23.5t-24.5 54.5q0 33 24 56.5t57 23.5t57 -23.5t24 -56.5q0 -32 -24 -55t-57 -23zM238 -209q-94 0 -152.5 42t-58.5 125q0 44 19 76.5t66 68.5q42 31 58 57t16 61v13l137 13v-39q0 -48 -19.5 -84t-68.5 -76q-33 -26 -45.5 -44.5t-12.5 -39.5
q0 -59 76 -59q66 0 136 66l75 -84q-39 -42 -100.5 -69t-125.5 -27z" />
    <glyph glyph-name="Agrave" unicode="&#xc0;" horiz-adv-x="668" 
d="M436 750l-45 -63l-202 93l68 108zM422 648l233 -640v-8h-151l-52 155h-240l-51 -155h-149v8l233 640h177zM250 269h164l-83 247z" />
    <glyph glyph-name="Aacute" unicode="&#xc1;" horiz-adv-x="668" 
d="M478 787l-202 -93l-44 63l179 138zM422 648l233 -640v-8h-151l-52 155h-240l-51 -155h-149v8l233 640h177zM250 269h164l-83 247z" />
    <glyph glyph-name="Acircumflex" unicode="&#xc2;" horiz-adv-x="668" 
d="M335 748l-100 -64l-56 55l106 108h98l106 -108l-54 -57zM422 648l233 -640v-8h-151l-52 155h-240l-51 -155h-149v8l233 640h177zM250 269h164l-83 247z" />
    <glyph glyph-name="Atilde" unicode="&#xc3;" horiz-adv-x="668" 
d="M270 750q-27 0 -50 -44l-65 24q40 125 127 125q28 0 51 -12t38.5 -24t26.5 -12q28 0 50 43l64 -23q-38 -125 -126 -125q-29 0 -51.5 12t-38 24t-26.5 12zM422 648l233 -640v-8h-151l-52 155h-240l-51 -155h-149v8l233 640h177zM250 269h164l-83 247z" />
    <glyph glyph-name="Adieresis" unicode="&#xc4;" horiz-adv-x="668" 
d="M236 713q-29 0 -50.5 21t-21.5 49q0 29 21.5 50t50.5 21q31 0 52 -21t21 -50t-21 -49.5t-52 -20.5zM432 713q-30 0 -51 20.5t-21 49.5t21 50t51 21t51.5 -21t21.5 -50t-21.5 -49.5t-51.5 -20.5zM422 648l233 -640v-8h-151l-52 155h-240l-51 -155h-149v8l233 640h177z
M250 269h164l-83 247z" />
    <glyph glyph-name="Aring" unicode="&#xc5;" horiz-adv-x="668" 
d="M334 683q-55 0 -91 29t-36 84q0 56 36 85.5t91 29.5t90.5 -29.5t35.5 -85.5q0 -55 -36 -84t-90 -29zM334 837q-40 0 -40 -41q0 -40 40 -40q39 0 39 40q0 41 -39 41zM422 648l233 -640v-8h-151l-52 155h-240l-51 -155h-149v8l233 640h177zM250 269h164l-83 247z" />
    <glyph glyph-name="AE" unicode="&#xc6;" horiz-adv-x="906" 
d="M621 116h263v-116h-380l-40 155h-241l-63 -155h-148v8l275 640h539v-115h-328l43 -146h255l-16 -114h-205zM269 269h165l-64 247z" />
    <glyph glyph-name="Ccedilla" unicode="&#xc7;" horiz-adv-x="578" 
d="M379 -39q101 -9 101 -93q0 -53 -37.5 -79.5t-99.5 -26.5q-64 0 -115 28l28 74q39 -16 68 -16q40 0 40 26q0 16 -18 21t-71 7l11 88q-129 19 -189 106t-60 223q0 94 25 162.5t69.5 106.5t98 56t117.5 18q114 0 214 -59l-53 -105q-71 46 -154 46q-169 0 -169 -217
q0 -108 47 -164t133 -56q73 0 146 44l55 -100q-97 -57 -187 -64v-26z" />
    <glyph glyph-name="Egrave" unicode="&#xc8;" horiz-adv-x="552" 
d="M398 750l-45 -63l-202 93l68 108zM213 116h296v-116h-438v648h433v-115h-291v-146h251l-16 -114h-235v-157z" />
    <glyph glyph-name="Eacute" unicode="&#xc9;" horiz-adv-x="552" 
d="M440 787l-202 -93l-44 63l179 138zM213 116h296v-116h-438v648h433v-115h-291v-146h251l-16 -114h-235v-157z" />
    <glyph glyph-name="Ecircumflex" unicode="&#xca;" horiz-adv-x="552" 
d="M297 748l-100 -64l-56 55l106 108h98l106 -108l-54 -57zM213 116h296v-116h-438v648h433v-115h-291v-146h251l-16 -114h-235v-157z" />
    <glyph glyph-name="Edieresis" unicode="&#xcb;" horiz-adv-x="552" 
d="M198 713q-29 0 -50.5 21t-21.5 49q0 29 21.5 50t50.5 21q31 0 52 -21t21 -50t-21 -49.5t-52 -20.5zM394 713q-30 0 -51 20.5t-21 49.5t21 50t51 21t51.5 -21t21.5 -50t-21.5 -49.5t-51.5 -20.5zM213 116h296v-116h-438v648h433v-115h-291v-146h251l-16 -114h-235v-157z
" />
    <glyph glyph-name="Igrave" unicode="&#xcc;" horiz-adv-x="285" 
d="M199 687l-202 93l68 108l179 -138zM71 0v648h142v-648h-142z" />
    <glyph glyph-name="Iacute" unicode="&#xcd;" horiz-adv-x="285" 
d="M84 694l-44 63l179 138l67 -108zM71 0v648h142v-648h-142z" />
    <glyph glyph-name="Icircumflex" unicode="&#xce;" horiz-adv-x="285" 
d="M43 684l-56 55l106 108h98l106 -108l-54 -57l-100 66zM71 0v648h142v-648h-142z" />
    <glyph glyph-name="Idieresis" unicode="&#xcf;" horiz-adv-x="285" 
d="M44 713q-29 0 -50.5 21t-21.5 49q0 29 21.5 50t50.5 21q31 0 52 -21t21 -50t-21 -49.5t-52 -20.5zM240 713q-30 0 -51 20.5t-21 49.5t21 50t51 21t51.5 -21t21.5 -50t-21.5 -49.5t-51.5 -20.5zM71 0v648h142v-648h-142z" />
    <glyph glyph-name="Eth" unicode="&#xd0;" horiz-adv-x="679" 
d="M287 648q81 0 143 -16t111 -52t74.5 -100.5t25.5 -155.5q0 -66 -19.5 -120t-52.5 -91.5t-79 -63t-98 -37.5t-110 -12h-211v273h-44v104h44v271h216zM257 122q122 0 176 41.5t54 160.5q0 110 -49 156t-151 46h-74v-149h142v-104h-142v-151h44z" />
    <glyph glyph-name="Ntilde" unicode="&#xd1;" horiz-adv-x="717" 
d="M293 750q-27 0 -50 -44l-65 24q40 125 127 125q28 0 51 -12t38.5 -24t26.5 -12q28 0 50 43l64 -23q-38 -125 -126 -125q-29 0 -51.5 12t-38 24t-26.5 12zM508 648h138v-648h-154l-203 302q-54 81 -79 136v-438h-139v648h153l221 -332q48 -72 63 -105v437z" />
    <glyph glyph-name="Ograve" unicode="&#xd2;" horiz-adv-x="726" 
d="M420 687l-202 93l68 108l179 -138zM360 -14q-156 0 -239.5 93t-83.5 247q0 85 27 151t73 105.5t104.5 59.5t125.5 20q155 0 238.5 -93t83.5 -247q0 -85 -26.5 -151t-72.5 -105.5t-104.5 -59.5t-125.5 -20zM360 102q89 0 136 58.5t47 160.5q0 106 -45 165.5t-131 59.5
q-90 0 -137 -58.5t-47 -160.5q0 -106 45 -165.5t132 -59.5z" />
    <glyph glyph-name="Oacute" unicode="&#xd3;" horiz-adv-x="726" 
d="M305 694l-44 63l179 138l67 -108zM360 -14q-156 0 -239.5 93t-83.5 247q0 85 27 151t73 105.5t104.5 59.5t125.5 20q155 0 238.5 -93t83.5 -247q0 -85 -26.5 -151t-72.5 -105.5t-104.5 -59.5t-125.5 -20zM360 102q89 0 136 58.5t47 160.5q0 106 -45 165.5t-131 59.5
q-90 0 -137 -58.5t-47 -160.5q0 -106 45 -165.5t132 -59.5z" />
    <glyph glyph-name="Ocircumflex" unicode="&#xd4;" horiz-adv-x="726" 
d="M264 684l-56 55l106 108h98l106 -108l-54 -57l-100 66zM360 -14q-156 0 -239.5 93t-83.5 247q0 85 27 151t73 105.5t104.5 59.5t125.5 20q155 0 238.5 -93t83.5 -247q0 -85 -26.5 -151t-72.5 -105.5t-104.5 -59.5t-125.5 -20zM360 102q89 0 136 58.5t47 160.5
q0 106 -45 165.5t-131 59.5q-90 0 -137 -58.5t-47 -160.5q0 -106 45 -165.5t132 -59.5z" />
    <glyph glyph-name="Otilde" unicode="&#xd5;" horiz-adv-x="726" 
d="M415 702q-29 0 -51.5 12t-38 24t-26.5 12q-27 0 -50 -44l-65 24q40 125 127 125q28 0 51 -12t38.5 -24t26.5 -12q28 0 50 43l64 -23q-38 -125 -126 -125zM360 -14q-156 0 -239.5 93t-83.5 247q0 85 27 151t73 105.5t104.5 59.5t125.5 20q155 0 238.5 -93t83.5 -247
q0 -85 -26.5 -151t-72.5 -105.5t-104.5 -59.5t-125.5 -20zM360 102q89 0 136 58.5t47 160.5q0 106 -45 165.5t-131 59.5q-90 0 -137 -58.5t-47 -160.5q0 -106 45 -165.5t132 -59.5z" />
    <glyph glyph-name="Odieresis" unicode="&#xd6;" horiz-adv-x="726" 
d="M265 713q-29 0 -50.5 21t-21.5 49q0 29 21.5 50t50.5 21q31 0 52 -21t21 -50t-21 -49.5t-52 -20.5zM461 713q-30 0 -51 20.5t-21 49.5t21 50t51 21t51.5 -21t21.5 -50t-21.5 -49.5t-51.5 -20.5zM360 -14q-156 0 -239.5 93t-83.5 247q0 85 27 151t73 105.5t104.5 59.5
t125.5 20q155 0 238.5 -93t83.5 -247q0 -85 -26.5 -151t-72.5 -105.5t-104.5 -59.5t-125.5 -20zM360 102q89 0 136 58.5t47 160.5q0 106 -45 165.5t-131 59.5q-90 0 -137 -58.5t-47 -160.5q0 -106 45 -165.5t132 -59.5z" />
    <glyph glyph-name="multiply" unicode="&#xd7;" horiz-adv-x="540" 
d="M478 384l-129 -129l129 -129l-79 -79l-129 129l-129 -129l-79 79l129 129l-129 129l79 79l129 -129l129 129z" />
    <glyph glyph-name="Oslash" unicode="&#xd8;" horiz-adv-x="726" 
d="M595 580q94 -91 94 -258q0 -85 -26.5 -151t-72.5 -105.5t-104.5 -59.5t-125.5 -20q-78 0 -136 24l-40 -62l-94 55l42 65q-95 90 -95 258q0 85 27 151t73 105.5t104.5 59.5t125.5 20q77 0 140 -25l42 63l91 -54zM367 546q-90 0 -137 -58.5t-47 -160.5q0 -94 34 -150
l229 352q-34 17 -79 17zM360 102q89 0 136 58.5t47 160.5q0 91 -33 148l-228 -351q35 -16 78 -16z" />
    <glyph glyph-name="Ugrave" unicode="&#xd9;" horiz-adv-x="688" 
d="M401 687l-202 93l68 108l179 -138zM338 -14q-144 0 -212.5 77t-68.5 201v384h142v-367q0 -84 33 -130.5t115 -46.5q142 0 142 167v377h142v-381q0 -145 -80 -213t-213 -68z" />
    <glyph glyph-name="Uacute" unicode="&#xda;" horiz-adv-x="688" 
d="M286 694l-44 63l179 138l67 -108zM338 -14q-144 0 -212.5 77t-68.5 201v384h142v-367q0 -84 33 -130.5t115 -46.5q142 0 142 167v377h142v-381q0 -145 -80 -213t-213 -68z" />
    <glyph glyph-name="Ucircumflex" unicode="&#xdb;" horiz-adv-x="688" 
d="M245 684l-56 55l106 108h98l106 -108l-54 -57l-100 66zM338 -14q-144 0 -212.5 77t-68.5 201v384h142v-367q0 -84 33 -130.5t115 -46.5q142 0 142 167v377h142v-381q0 -145 -80 -213t-213 -68z" />
    <glyph glyph-name="Udieresis" unicode="&#xdc;" horiz-adv-x="688" 
d="M246 713q-29 0 -50.5 21t-21.5 49q0 29 21.5 50t50.5 21q31 0 52 -21t21 -50t-21 -49.5t-52 -20.5zM442 713q-30 0 -51 20.5t-21 49.5t21 50t51 21t51.5 -21t21.5 -50t-21.5 -49.5t-51.5 -20.5zM338 -14q-144 0 -212.5 77t-68.5 201v384h142v-367q0 -84 33 -130.5
t115 -46.5q142 0 142 167v377h142v-381q0 -145 -80 -213t-213 -68z" />
    <glyph glyph-name="Yacute" unicode="&#xdd;" horiz-adv-x="636" 
d="M462 787l-202 -93l-44 63l179 138zM624 648v-8l-236 -370v-270h-142v266l-234 374v8h160l146 -250l152 250h154z" />
    <glyph glyph-name="Thorn" unicode="&#xde;" horiz-adv-x="588" 
d="M298 544q127 0 191.5 -57t64.5 -150q0 -101 -66.5 -162.5t-192.5 -61.5h-82v-113h-142v648h142v-104h85zM281 228q62 0 94.5 23.5t32.5 80.5q0 98 -112 98h-83v-202h68z" />
    <glyph glyph-name="germandbls" unicode="&#xdf;" horiz-adv-x="563" 
d="M358 389q173 -80 173 -222q0 -91 -52.5 -136t-135.5 -45q-65 0 -114 24l32 93q29 -13 62 -13q30 0 50 20t20 59q0 49 -34.5 92.5t-115.5 67.5v59q73 83 73 152q0 60 -59 60q-27 0 -44 -16t-17 -46v-538h-136v515q0 89 57.5 135t142.5 46q89 0 140.5 -36t51.5 -111
q0 -79 -94 -160z" />
    <glyph glyph-name="agrave" unicode="&#xe0;" horiz-adv-x="495" 
d="M349 552l-44 -63l-202 93l68 108zM263 465q88 0 132.5 -34.5t44.5 -113.5v-317h-116l-11 35q-67 -49 -150 -49q-64 0 -102.5 35t-38.5 91q0 79 78 120.5t204 46.5v11q0 41 -13.5 58t-50.5 17q-63 0 -143 -51l-52 82q106 69 218 69zM163 129q0 -45 51 -45q41 0 90 27v87
q-141 -8 -141 -69z" />
    <glyph glyph-name="aacute" unicode="&#xe1;" horiz-adv-x="495" 
d="M392 582l-202 -93l-44 63l179 138zM263 465q88 0 132.5 -34.5t44.5 -113.5v-317h-116l-11 35q-67 -49 -150 -49q-64 0 -102.5 35t-38.5 91q0 79 78 120.5t204 46.5v11q0 41 -13.5 58t-50.5 17q-63 0 -143 -51l-52 82q106 69 218 69zM163 129q0 -45 51 -45q41 0 90 27v87
q-141 -8 -141 -69z" />
    <glyph glyph-name="acircumflex" unicode="&#xe2;" horiz-adv-x="495" 
d="M249 558l-100 -63l-56 55l106 107h98l106 -107l-54 -57zM263 465q88 0 132.5 -34.5t44.5 -113.5v-317h-116l-11 35q-67 -49 -150 -49q-64 0 -102.5 35t-38.5 91q0 79 78 120.5t204 46.5v11q0 41 -13.5 58t-50.5 17q-63 0 -143 -51l-52 82q106 69 218 69zM163 129
q0 -45 51 -45q41 0 90 27v87q-141 -8 -141 -69z" />
    <glyph glyph-name="atilde" unicode="&#xe3;" horiz-adv-x="495" 
d="M187 555q-27 0 -50 -44l-65 24q40 125 127 125q28 0 51 -12t38.5 -24t26.5 -12q28 0 50 43l64 -23q-38 -125 -126 -125q-29 0 -51.5 12t-38 24t-26.5 12zM263 465q88 0 132.5 -34.5t44.5 -113.5v-317h-116l-11 35q-67 -49 -150 -49q-64 0 -102.5 35t-38.5 91
q0 79 78 120.5t204 46.5v11q0 41 -13.5 58t-50.5 17q-63 0 -143 -51l-52 82q106 69 218 69zM163 129q0 -45 51 -45q41 0 90 27v87q-141 -8 -141 -69z" />
    <glyph glyph-name="adieresis" unicode="&#xe4;" horiz-adv-x="495" 
d="M150 515q-29 0 -50.5 21t-21.5 50t21.5 50t50.5 21q31 0 52 -21t21 -50t-21 -50t-52 -21zM346 515q-30 0 -51 21t-21 50t21 50t51 21t51.5 -21t21.5 -50t-21.5 -50t-51.5 -21zM263 465q88 0 132.5 -34.5t44.5 -113.5v-317h-116l-11 35q-67 -49 -150 -49q-64 0 -102.5 35
t-38.5 91q0 79 78 120.5t204 46.5v11q0 41 -13.5 58t-50.5 17q-63 0 -143 -51l-52 82q106 69 218 69zM163 129q0 -45 51 -45q41 0 90 27v87q-141 -8 -141 -69z" />
    <glyph glyph-name="aring" unicode="&#xe5;" horiz-adv-x="495" 
d="M248 492q-55 0 -91 28.5t-36 83.5q0 56 36 85.5t91 29.5t90.5 -29.5t35.5 -85.5q0 -55 -35.5 -83.5t-90.5 -28.5zM248 645q-40 0 -40 -41q0 -40 40 -40q16 0 27.5 9.5t11.5 30.5q0 41 -39 41zM263 465q88 0 132.5 -34.5t44.5 -113.5v-317h-116l-11 35q-67 -49 -150 -49
q-64 0 -102.5 35t-38.5 91q0 79 78 120.5t204 46.5v11q0 41 -13.5 58t-50.5 17q-63 0 -143 -51l-52 82q106 69 218 69zM163 129q0 -45 51 -45q41 0 90 27v87q-141 -8 -141 -69z" />
    <glyph glyph-name="ae" unicode="&#xe6;" horiz-adv-x="731" 
d="M699 266q0 -36 -4 -67h-278q10 -112 107 -112q57 0 121 38l45 -82q-74 -57 -179 -57q-110 0 -167 68q-85 -68 -186 -68q-61 0 -98.5 35t-37.5 91q0 79 75 121t197 46v11q0 43 -12.5 59.5t-48.5 16.5q-59 0 -138 -51l-50 81q103 69 209 69q93 0 121 -53q48 53 128 53
q94 0 145 -56t51 -143zM501 373q-68 0 -82 -92h151v4q0 88 -69 88zM211 84q44 0 97 36q-12 38 -13 78q-133 -8 -133 -69q0 -45 49 -45z" />
    <glyph glyph-name="ccedilla" unicode="&#xe7;" horiz-adv-x="443" 
d="M283 -39q101 -9 101 -93q0 -53 -37.5 -79.5t-99.5 -26.5q-64 0 -115 28l28 74q39 -16 68 -16q40 0 40 26q0 16 -18 21t-71 7l11 90q-158 33 -158 223q0 125 71 187.5t165 62.5q74 0 154 -42l-47 -89q-57 28 -98 28q-47 0 -75.5 -36.5t-28.5 -109.5q0 -122 103 -122
q46 0 107 35l48 -87q-74 -47 -148 -55v-26z" />
    <glyph glyph-name="egrave" unicode="&#xe8;" horiz-adv-x="492" 
d="M356 552l-44 -63l-202 93l68 108zM460 266q0 -20 -4 -70h-288q6 -56 37 -82.5t74 -26.5q60 0 126 38l46 -82q-77 -57 -185 -57q-102 0 -168 57t-66 179q0 115 59 179t164 64q99 0 152 -56t53 -143zM258 373q-70 0 -86 -89h159v3q0 86 -73 86z" />
    <glyph glyph-name="eacute" unicode="&#xe9;" horiz-adv-x="492" 
d="M399 582l-202 -93l-44 63l179 138zM460 266q0 -20 -4 -70h-288q6 -56 37 -82.5t74 -26.5q60 0 126 38l46 -82q-77 -57 -185 -57q-102 0 -168 57t-66 179q0 115 59 179t164 64q99 0 152 -56t53 -143zM258 373q-70 0 -86 -89h159v3q0 86 -73 86z" />
    <glyph glyph-name="ecircumflex" unicode="&#xea;" horiz-adv-x="492" 
d="M256 558l-100 -63l-56 55l106 107h98l106 -107l-54 -57zM460 266q0 -20 -4 -70h-288q6 -56 37 -82.5t74 -26.5q60 0 126 38l46 -82q-77 -57 -185 -57q-102 0 -168 57t-66 179q0 115 59 179t164 64q99 0 152 -56t53 -143zM258 373q-70 0 -86 -89h159v3q0 86 -73 86z" />
    <glyph glyph-name="edieresis" unicode="&#xeb;" horiz-adv-x="492" 
d="M157 515q-29 0 -50.5 21t-21.5 50t21.5 50t50.5 21q31 0 52 -21t21 -50t-21 -50t-52 -21zM353 515q-30 0 -51 21t-21 50t21 50t51 21t51.5 -21t21.5 -50t-21.5 -50t-51.5 -21zM460 266q0 -20 -4 -70h-288q6 -56 37 -82.5t74 -26.5q60 0 126 38l46 -82q-77 -57 -185 -57
q-102 0 -168 57t-66 179q0 115 59 179t164 64q99 0 152 -56t53 -143zM258 373q-70 0 -86 -89h159v3q0 86 -73 86z" />
    <glyph glyph-name="igrave" unicode="&#xec;" horiz-adv-x="256" 
d="M184 489l-202 93l68 108l178 -138zM60 0v447l136 13v-460h-136z" />
    <glyph glyph-name="iacute" unicode="&#xed;" horiz-adv-x="256" 
d="M69 489l-44 63l179 138l67 -108zM60 0v447l136 13v-460h-136z" />
    <glyph glyph-name="icircumflex" unicode="&#xee;" horiz-adv-x="256" 
d="M28 495l-56 55l106 107h98l106 -107l-54 -57l-100 65zM60 0v447l136 13v-460h-136z" />
    <glyph glyph-name="idieresis" unicode="&#xef;" horiz-adv-x="256" 
d="M44 515q-28 0 -48.5 20t-20.5 49q0 30 20.5 50t48.5 20q29 0 49.5 -20t20.5 -50t-20.5 -49.5t-49.5 -19.5zM209 515q-28 0 -48.5 20t-20.5 49q0 30 20.5 50t48.5 20t49 -20t21 -50q0 -29 -21 -49t-49 -20zM60 0v447l136 13v-460h-136z" />
    <glyph glyph-name="eth" unicode="&#xf0;" horiz-adv-x="546" 
d="M371 593q140 -118 140 -339q0 -124 -65 -196t-174 -72q-44 0 -83.5 11t-76 34.5t-58.5 68t-22 105.5q0 103 58.5 158t142.5 55q67 0 125 -30q-20 75 -70 128l-61 -57l-70 61l53 49l-111 37l46 96q97 -28 148 -56l61 56l69 -61zM267 96q106 0 106 162q0 22 -1 33
q-50 27 -98 27q-108 0 -108 -119q0 -50 26.5 -76.5t74.5 -26.5z" />
    <glyph glyph-name="ntilde" unicode="&#xf1;" horiz-adv-x="542" 
d="M212 555q-27 0 -50 -44l-65 24q40 125 127 125q28 0 51 -12t38.5 -24t26.5 -12q28 0 50 43l64 -23q-38 -125 -126 -125q-29 0 -51.5 12t-38 24t-26.5 12zM348 465q139 0 139 -135v-330h-136v290q0 41 -13 57t-48 16q-40 0 -94 -32v-331h-136v447l136 13v-44q79 49 152 49
z" />
    <glyph glyph-name="ograve" unicode="&#xf2;" horiz-adv-x="542" 
d="M328 489l-202 93l68 108l178 -138zM264 -14q-112 0 -172 68t-60 172q0 65 20 113t55.5 74.5t77.5 39t92 12.5q114 0 173.5 -65.5t59.5 -174.5q0 -122 -68.5 -180.5t-177.5 -58.5zM271 87q98 0 98 139q0 138 -96 138q-53 0 -77 -34.5t-24 -103.5q0 -139 99 -139z" />
    <glyph glyph-name="oacute" unicode="&#xf3;" horiz-adv-x="542" 
d="M213 489l-44 63l179 138l67 -108zM264 -14q-112 0 -172 68t-60 172q0 65 20 113t55.5 74.5t77.5 39t92 12.5q114 0 173.5 -65.5t59.5 -174.5q0 -122 -68.5 -180.5t-177.5 -58.5zM271 87q98 0 98 139q0 138 -96 138q-53 0 -77 -34.5t-24 -103.5q0 -139 99 -139z" />
    <glyph glyph-name="ocircumflex" unicode="&#xf4;" horiz-adv-x="542" 
d="M172 495l-56 55l106 107h98l106 -107l-54 -57l-100 65zM264 -14q-112 0 -172 68t-60 172q0 65 20 113t55.5 74.5t77.5 39t92 12.5q114 0 173.5 -65.5t59.5 -174.5q0 -122 -68.5 -180.5t-177.5 -58.5zM271 87q98 0 98 139q0 138 -96 138q-53 0 -77 -34.5t-24 -103.5
q0 -139 99 -139z" />
    <glyph glyph-name="otilde" unicode="&#xf5;" horiz-adv-x="542" 
d="M326 507q-29 0 -51.5 12t-38 24t-26.5 12q-27 0 -50 -44l-65 24q40 125 127 125q28 0 51 -12t38.5 -24t26.5 -12q28 0 50 43l64 -23q-38 -125 -126 -125zM264 -14q-112 0 -172 68t-60 172q0 65 20 113t55.5 74.5t77.5 39t92 12.5q114 0 173.5 -65.5t59.5 -174.5
q0 -122 -68.5 -180.5t-177.5 -58.5zM271 87q98 0 98 139q0 138 -96 138q-53 0 -77 -34.5t-24 -103.5q0 -139 99 -139z" />
    <glyph glyph-name="odieresis" unicode="&#xf6;" horiz-adv-x="542" 
d="M173 515q-29 0 -50.5 21t-21.5 50t21.5 50t50.5 21q31 0 52 -21t21 -50t-21 -50t-52 -21zM369 515q-30 0 -51 21t-21 50t21 50t51 21t51.5 -21t21.5 -50t-21.5 -50t-51.5 -21zM264 -14q-112 0 -172 68t-60 172q0 65 20 113t55.5 74.5t77.5 39t92 12.5q114 0 173.5 -65.5
t59.5 -174.5q0 -122 -68.5 -180.5t-177.5 -58.5zM271 87q98 0 98 139q0 138 -96 138q-53 0 -77 -34.5t-24 -103.5q0 -139 99 -139z" />
    <glyph glyph-name="divide" unicode="&#xf7;" horiz-adv-x="540" 
d="M270 357q-33 0 -57 23.5t-24 56.5q0 32 24 55.5t57 23.5q32 0 56.5 -24t24.5 -55q0 -33 -24 -56.5t-57 -23.5zM60 200v110h420v-110h-420zM270 -5q-33 0 -57 23.5t-24 56.5q0 32 24 55.5t57 23.5q32 0 56.5 -24t24.5 -55q0 -33 -24 -56.5t-57 -23.5z" />
    <glyph glyph-name="oslash" unicode="&#xf8;" horiz-adv-x="542" 
d="M444 406q66 -63 66 -181q0 -122 -68.5 -180.5t-177.5 -58.5q-45 0 -86 13l-44 -67l-91 53l47 72q-58 64 -58 169q0 65 20 113t55.5 74.5t77.5 39t92 12.5q43 0 77 -9l37 55l87 -53zM273 375q-109 0 -109 -149q0 -38 7 -65l137 209q-18 5 -35 5zM271 76q107 0 107 150
q0 48 -12 83l-144 -222q22 -11 49 -11z" />
    <glyph glyph-name="ugrave" unicode="&#xf9;" horiz-adv-x="540" 
d="M368 552l-44 -63l-202 93l68 108zM344 447l136 13v-460h-116l-11 36q-77 -50 -158 -50q-67 0 -103.5 37t-36.5 102v322l136 13v-295q0 -40 13 -57.5t47 -17.5q36 0 93 31v326z" />
    <glyph glyph-name="uacute" unicode="&#xfa;" horiz-adv-x="540" 
d="M411 582l-202 -93l-44 63l179 138zM344 447l136 13v-460h-116l-11 36q-77 -50 -158 -50q-67 0 -103.5 37t-36.5 102v322l136 13v-295q0 -40 13 -57.5t47 -17.5q36 0 93 31v326z" />
    <glyph glyph-name="ucircumflex" unicode="&#xfb;" horiz-adv-x="540" 
d="M268 558l-100 -63l-56 55l106 107h98l106 -107l-54 -57zM344 447l136 13v-460h-116l-11 36q-77 -50 -158 -50q-67 0 -103.5 37t-36.5 102v322l136 13v-295q0 -40 13 -57.5t47 -17.5q36 0 93 31v326z" />
    <glyph glyph-name="udieresis" unicode="&#xfc;" horiz-adv-x="540" 
d="M169 515q-29 0 -50.5 21t-21.5 50t21.5 50t50.5 21q31 0 52 -21t21 -50t-21 -50t-52 -21zM365 515q-30 0 -51 21t-21 50t21 50t51 21t51.5 -21t21.5 -50t-21.5 -50t-51.5 -21zM344 447l136 13v-460h-116l-11 36q-77 -50 -158 -50q-67 0 -103.5 37t-36.5 102v322l136 13
v-295q0 -40 13 -57.5t47 -17.5q36 0 93 31v326z" />
    <glyph glyph-name="yacute" unicode="&#xfd;" horiz-adv-x="472" 
d="M379 582l-202 -93l-44 63l179 138zM331 450h141v-7l-137 -426q-37 -116 -91.5 -166.5t-145.5 -50.5q-54 0 -100 18l34 95q27 -10 56 -10q37 0 64.5 19t49.5 78h-36l-168 443v7h142l80 -241q9 -27 22 -81q9 40 21 79z" />
    <glyph glyph-name="thorn" unicode="&#xfe;" horiz-adv-x="545" 
d="M332 465q181 0 181 -230q0 -67 -21 -117t-57 -77.5t-77 -41t-86 -13.5q-37 0 -76 11v-183h-136v874l136 13v-278q69 42 136 42zM249 85q59 0 91.5 37.5t32.5 112.5q0 72 -19.5 100t-68.5 28q-40 0 -89 -28v-245q28 -5 53 -5z" />
    <glyph glyph-name="ydieresis" unicode="&#xff;" horiz-adv-x="472" 
d="M137 515q-29 0 -50.5 21t-21.5 50t21.5 50t50.5 21q31 0 52 -21t21 -50t-21 -50t-52 -21zM333 515q-30 0 -51 21t-21 50t21 50t51 21t51.5 -21t21.5 -50t-21.5 -50t-51.5 -21zM331 450h141v-7l-137 -426q-37 -116 -91.5 -166.5t-145.5 -50.5q-54 0 -100 18l34 95
q27 -10 56 -10q37 0 64.5 19t49.5 78h-36l-168 443v7h142l80 -241q9 -27 22 -81q9 40 21 79z" />
    <glyph glyph-name="dotlessi" unicode="&#x131;" horiz-adv-x="256" 
d="M60 0v447l136 13v-460h-136z" />
    <glyph glyph-name="Lslash" unicode="&#x141;" horiz-adv-x="548" 
d="M241 122h294v-122h-436v178l-30 -21l-65 90l95 63v338h142v-222l98 71l65 -87l-163 -115v-173z" />
    <glyph glyph-name="lslash" unicode="&#x142;" horiz-adv-x="351" 
d="M347 422l-107 -75v-347h-136v241l-45 -32l-55 78l100 71v330l136 13v-240l51 36z" />
    <glyph glyph-name="OE" unicode="&#x152;" horiz-adv-x="918" 
d="M596 116h279v-116h-406q-46 -14 -108 -14q-157 0 -240.5 93.5t-83.5 246.5q0 167 95 251.5t237 84.5q58 0 106 -14h395v-115h-274v-146h233l-16 -114h-217v-157zM183 327q0 -106 45.5 -165.5t133.5 -59.5q54 0 97 13v419q-40 12 -92 12q-89 0 -136.5 -58.5t-47.5 -160.5z
" />
    <glyph glyph-name="oe" unicode="&#x153;" horiz-adv-x="786" 
d="M754 266q0 -36 -4 -67h-278q10 -112 108 -112q56 0 120 38l45 -82q-74 -57 -179 -57q-101 0 -160 67q-57 -67 -156 -67q-104 0 -161 68.5t-57 171.5q0 125 65.5 182t164.5 57q101 0 152 -73q54 73 147 73q92 0 142.5 -56t50.5 -143zM557 373q-69 0 -83 -92h151v4
q0 88 -68 88zM257 87q89 0 89 139q0 138 -86 138q-88 0 -88 -138q0 -139 85 -139z" />
    <glyph glyph-name="Scaron" unicode="&#x160;" horiz-adv-x="566" 
d="M239 684l-106 108l56 55l100 -63l100 65l54 -57l-106 -108h-98zM274 -14q-150 0 -255 78l64 99q93 -59 182 -59q122 0 122 72q0 32 -24.5 50.5t-102.5 48.5l-23 9q-47 18 -76 33t-57.5 38t-41.5 54t-13 73q0 89 72 134.5t170 45.5q121 0 229 -73l-65 -98q-48 29 -85 42
t-80 13q-48 0 -72.5 -16t-24.5 -43q0 -26 24.5 -44.5t96.5 -44.5l22 -8q38 -14 59 -23t51.5 -27t46.5 -37t28 -50t12 -69q0 -96 -72.5 -147t-186.5 -51z" />
    <glyph glyph-name="scaron" unicode="&#x161;" horiz-adv-x="437" 
d="M165 496l-106 108l56 55l100 -64l100 65l54 -56l-106 -108h-98zM220 -14q-123 0 -209 62l57 87q70 -50 148 -50q64 0 64 37q0 17 -16.5 28.5t-68.5 26.5l-29 8q-72 20 -103.5 52t-31.5 87q0 63 51 102t133 39q102 0 185 -49l-52 -87q-71 37 -129 37q-50 0 -50 -32
q0 -15 12 -23t54 -19l33 -9q148 -38 148 -147q0 -66 -50 -108t-146 -42z" />
    <glyph glyph-name="Ydieresis" unicode="&#x178;" horiz-adv-x="636" 
d="M220 713q-29 0 -50.5 21t-21.5 49q0 29 21.5 50t50.5 21q31 0 52 -21t21 -50t-21 -49.5t-52 -20.5zM416 713q-30 0 -51 20.5t-21 49.5t21 50t51 21t51.5 -21t21.5 -50t-21.5 -49.5t-51.5 -20.5zM624 648v-8l-236 -370v-270h-142v266l-234 374v8h160l146 -250l152 250h154
z" />
    <glyph glyph-name="Zcaron" unicode="&#x17d;" horiz-adv-x="581" 
d="M339 684h-98l-106 108l56 55l100 -63l100 65l54 -57zM544 648v-68l-319 -459h306v-121h-504v68l322 459h-303l15 121h483z" />
    <glyph glyph-name="zcaron" unicode="&#x17e;" horiz-adv-x="444" 
d="M278 496h-98l-106 108l56 55l100 -64l100 65l54 -56zM420 450v-60l-210 -277h207v-113h-399v62l212 275h-197l15 113h372z" />
    <glyph glyph-name="florin" unicode="&#x192;" horiz-adv-x="540" 
d="M388 583q-28 0 -44 -18.5t-16 -52.5v-68h121l-15 -106h-106v-372q0 -85 -43.5 -125.5t-114.5 -40.5q-63 0 -113 22l29 91q35 -10 55 -10q51 0 51 57v378h-64v106h64v65q0 83 46.5 134.5t132.5 51.5q62 0 112 -20l-33 -106q-33 14 -62 14z" />
    <glyph glyph-name="circumflex" unicode="&#x2c6;" horiz-adv-x="390" 
d="M96 495l-56 55l106 107h98l106 -107l-54 -57l-100 65z" />
    <glyph glyph-name="caron" unicode="&#x2c7;" horiz-adv-x="390" 
d="M146 496l-106 108l56 55l100 -64l100 65l54 -56l-106 -108h-98z" />
    <glyph glyph-name="uni02C9" unicode="&#x2c9;" horiz-adv-x="366" 
d="M40 530v103h286v-103h-286z" />
    <glyph glyph-name="breve" unicode="&#x2d8;" horiz-adv-x="389" 
d="M195 498q-62 0 -104.5 33.5t-50.5 107.5l86 7q14 -54 69 -54q54 0 68 54l86 -7q-8 -74 -50 -107.5t-104 -33.5z" />
    <glyph glyph-name="dotaccent" unicode="&#x2d9;" horiz-adv-x="256" 
d="M128 517q-36 0 -62 25t-26 59q0 35 26 60t62 25t62 -25t26 -60q0 -34 -26 -59t-62 -25z" />
    <glyph glyph-name="ring" unicode="&#x2da;" horiz-adv-x="333" 
d="M167 492q-55 0 -91 28.5t-36 83.5q0 56 36 85.5t91 29.5t90.5 -29.5t35.5 -85.5q0 -55 -35.5 -83.5t-90.5 -28.5zM167 564q16 0 27.5 9.5t11.5 30.5q0 41 -39 41q-40 0 -40 -41q0 -40 40 -40z" />
    <glyph glyph-name="ogonek" unicode="&#x2db;" horiz-adv-x="306" 
d="M165 -228q-60 0 -92.5 27t-32.5 67q0 109 152 173l24 -39q-63 -62 -63 -103q0 -30 36 -30q23 0 51 11l26 -86q-51 -20 -101 -20z" />
    <glyph glyph-name="tilde" unicode="&#x2dc;" horiz-adv-x="437" 
d="M271 507q-29 0 -51.5 12t-38 24t-26.5 12q-27 0 -50 -44l-65 24q40 125 127 125q28 0 51 -12t38.5 -24t26.5 -12q28 0 50 43l64 -23q-38 -125 -126 -125z" />
    <glyph glyph-name="hungarumlaut" unicode="&#x2dd;" horiz-adv-x="409" 
d="M113 499l-73 26l56 165l108 -47zM267 488l-73 28l69 162l106 -46z" />
    <glyph glyph-name="gravecomb" unicode="&#x300;" 
d="M-84 489l-202 93l68 108l178 -138z" />
    <glyph glyph-name="acutecomb" unicode="&#x301;" 
d="M-242 489l-44 63l179 138l67 -108z" />
    <glyph glyph-name="uni0302" unicode="&#x302;" 
d="M-294 495l-56 55l106 107h98l106 -107l-54 -57l-100 65z" />
    <glyph glyph-name="tildecomb" unicode="&#x303;" 
d="M-166 507q-29 0 -51.5 12t-38 24t-26.5 12q-27 0 -50 -44l-65 24q40 125 127 125q28 0 51 -12t38.5 -24t26.5 -12q28 0 50 43l64 -23q-38 -125 -126 -125z" />
    <glyph glyph-name="uni0304" unicode="&#x304;" 
d="M-326 530v103h286v-103h-286z" />
    <glyph glyph-name="uni0306" unicode="&#x306;" 
d="M-194 498q-62 0 -104.5 33.5t-50.5 107.5l86 7q14 -54 69 -54q54 0 68 54l86 -7q-8 -74 -50 -107.5t-104 -33.5z" />
    <glyph glyph-name="uni0307" unicode="&#x307;" 
d="M-128 517q-36 0 -62 25t-26 59q0 35 26 60t62 25t62 -25t26 -60q0 -34 -26 -59t-62 -25z" />
    <glyph glyph-name="uni0308" unicode="&#x308;" 
d="M-309 515q-29 0 -50.5 21t-21.5 50t21.5 50t50.5 21q31 0 52 -21t21 -50t-21 -50t-52 -21zM-113 515q-30 0 -51 21t-21 50t21 50t51 21t51.5 -21t21.5 -50t-21.5 -50t-51.5 -21z" />
    <glyph glyph-name="uni030A" unicode="&#x30a;" 
d="M-166 492q-55 0 -91 28.5t-36 83.5q0 56 36 85.5t91 29.5t90.5 -29.5t35.5 -85.5q0 -55 -35.5 -83.5t-90.5 -28.5zM-166 564q16 0 27.5 9.5t11.5 30.5q0 41 -39 41q-40 0 -40 -41q0 -40 40 -40z" />
    <glyph glyph-name="uni030B" unicode="&#x30b;" 
d="M-296 499l-73 26l56 165l108 -47zM-142 488l-73 28l69 162l106 -46z" />
    <glyph glyph-name="uni030C" unicode="&#x30c;" 
d="M-244 496l-106 108l56 55l100 -64l100 65l54 -56l-106 -108h-98z" />
    <glyph glyph-name="uni0312" unicode="&#x312;" 
d="M-112 488q-34 0 -54.5 22t-20.5 58q0 95 84 186l59 -34q-40 -52 -40 -79q0 -18 12 -27q32 -27 32 -59q0 -26 -19.5 -46.5t-52.5 -20.5z" />
    <glyph glyph-name="uni0313" unicode="&#x313;" 
d="M-72 488l-58 34q40 49 40 78q0 18 -12 27q-32 27 -32 59q0 27 19.5 47.5t52.5 20.5t54 -22.5t21 -58.5q0 -93 -85 -185z" />
    <glyph glyph-name="uni0326" unicode="&#x326;" 
d="M-125 -306l-58 34q40 52 40 79q0 18 -12 27q-32 27 -32 59q0 26 19.5 46.5t52.5 20.5q34 0 54.5 -22.5t20.5 -57.5q0 -94 -85 -186z" />
    <glyph glyph-name="uni0327" unicode="&#x327;" 
d="M-177 -238q-64 0 -115 28l28 74q39 -16 68 -16q40 0 40 26q0 16 -18 21t-71 7l13 108l91 -1v-48q101 -9 101 -93q0 -53 -37.5 -79.5t-99.5 -26.5z" />
    <glyph glyph-name="uni0328" unicode="&#x328;" 
d="M-141 -228q-60 0 -92.5 27t-32.5 67q0 109 152 173l24 -39q-63 -62 -63 -103q0 -30 36 -30q23 0 51 11l26 -86q-51 -20 -101 -20z" />
    <glyph glyph-name="uni0335" unicode="&#x335;" 
d="M-368 193v104h328v-104h-328z" />
    <glyph glyph-name="uni0336" unicode="&#x336;" 
d="M-665 193v104h625v-104h-625z" />
    <glyph glyph-name="uni0337" unicode="&#x337;" 
d="M-288 -84l-106 34l249 657l105 -33z" />
    <glyph glyph-name="uni0338" unicode="&#x338;" 
d="M-384 -61l-91 53l58 89l17 5l210 322l-1 13l64 97l87 -53l-60 -90l-16 -4l-210 -324l4 -13z" />
    <glyph glyph-name="uni0394" unicode="&#x394;" horiz-adv-x="668" 
d="M422 648l233 -640v-8h-643v8l233 640h177zM199 114h267l-135 402z" />
    <glyph glyph-name="uni03A9" unicode="&#x3a9;" horiz-adv-x="747" 
d="M702 335q0 -147 -105 -221q47 4 102 4v-118h-252v101q65 26 87 87.5t22 147.5q0 93 -47.5 151.5t-135.5 58.5t-135 -58t-47 -151q0 -86 22 -147.5t87 -88.5v-101h-252v118q56 0 101 -4q-104 77 -104 222q0 156 95.5 241t234.5 85q142 0 234.5 -88.5t92.5 -238.5z" />
    <glyph glyph-name="uni03BC" unicode="&#x3bc;" horiz-adv-x="545" 
d="M349 447l136 13v-460h-116l-10 34q-62 -43 -119 -43q-30 0 -58 13q14 -42 14 -86v-104h-136v633l136 13v-295q0 -40 13 -57.5t47 -17.5q36 0 93 31v326z" />
    <glyph glyph-name="pi" unicode="&#x3c0;" horiz-adv-x="546" 
d="M536 450l-14 -107h-43v-343h-136v343h-134v-343h-136v343h-54v107h517z" />
    <glyph glyph-name="uni060C" unicode="&#x60c;" horiz-adv-x="218" 
d="M103 -5q-38 0 -59.5 26t-21.5 71q0 94 101 219l63 -36q-53 -71 -53 -107q0 -19 24.5 -41t24.5 -54q0 -30 -22 -54t-57 -24z" />
    <glyph glyph-name="uni0615" unicode="&#x615;" 
d="M251 658q30 0 55.5 -26.5t25.5 -63.5q0 -101 -143 -101q-62 0 -106 2l-19 65l2 6q4 0 17 -0.5t21 -0.5l14 18v171h68v-96q32 26 65 26zM278 543q3 18 -6.5 31t-25.5 13q-31 0 -77 -49h27q68 0 82 5z" />
    <glyph glyph-name="uni061B" unicode="&#x61b;" horiz-adv-x="218" 
d="M103 241q-38 0 -59.5 26t-21.5 71q0 94 101 219l63 -36q-53 -71 -53 -107q0 -19 24.5 -41t24.5 -54q0 -30 -22 -54t-57 -24zM103 -13q-33 0 -57 23.5t-24 56.5q0 32 24 55.5t57 23.5q32 0 56.5 -24t24.5 -55q0 -33 -24 -56.5t-57 -23.5z" />
    <glyph glyph-name="uni061F" unicode="&#x61f;" horiz-adv-x="432" 
d="M320 205l-135 13v13q0 35 -16.5 61.5t-57.5 56.5q-48 35 -66.5 68t-18.5 77q0 84 58.5 126t152.5 42q88 0 169 -51l-55 -99q-51 35 -99 35q-76 0 -76 -59q0 -21 12.5 -39t45.5 -45q48 -40 68 -76.5t20 -83.5q0 -26 -2 -39zM247 -13q-33 0 -57 23.5t-24 56.5q0 32 24 55.5
t57 23.5q32 0 56.5 -24t24.5 -55q0 -33 -24 -56.5t-57 -23.5z" />
    <glyph glyph-name="uni0621" unicode="&#x621;" horiz-adv-x="400" 
d="M359 119l9 -99q-182 -18 -343 -25l-7 100q13 1 39.5 2.5t40.5 2.5q-27 40 -27 88q0 63 41.5 105.5t108.5 42.5q64 0 114 -26l-33 -92q-40 14 -62 14q-29 0 -44 -17t-15 -44q0 -31 25 -64q78 5 153 12z" />
    <glyph glyph-name="uni0622" unicode="&#x622;" horiz-adv-x="248" 
d="M212 735q-23 0 -62 13t-60 13q-36 0 -76 -25l-36 56q48 47 100 47q22 0 67 -12.5t69 -12.5q25 0 46 8l23 -67q-37 -20 -71 -20zM69 -7l-8 6v663l116 31l10 -6l-3 -670z" />
    <glyph glyph-name="uni0623" unicode="&#x623;" horiz-adv-x="248" 
d="M220 824l5 -69q-78 -10 -195 -14l-7 72q30 0 46 1q-22 30 -22 63q0 39 23.5 62.5t65.5 23.5q32 0 74 -16l-17 -65q-24 8 -43 8q-34 0 -34 -32q0 -23 20 -41q58 4 84 7zM61 662l116 31l10 -6l-3 -670l-115 -24l-8 6v663z" />
    <glyph glyph-name="uni0624" unicode="&#x624;" horiz-adv-x="439" 
d="M98 448l-7 79q33 0 51 1q-24 32 -24 69q0 43 26 69t72 26q36 0 81 -17l-19 -73q-29 10 -48 10q-36 0 -36 -34q0 -27 22 -46q62 4 91 7l7 -75q-96 -12 -216 -16zM218 355q76 0 122 -74t46 -181q0 -52 -20.5 -100.5t-60 -88.5t-104 -64t-146.5 -25l-60 95l7 11
q210 3 267 107q-36 -6 -80 -6q-68 0 -102.5 32t-34.5 88q0 74 49.5 140t116.5 66zM148 168q0 -31 66 -31q32 0 70 5q-6 39 -26.5 67t-47.5 28q-25 0 -43.5 -22t-18.5 -47z" />
    <glyph glyph-name="uni0625" unicode="&#x625;" horiz-adv-x="248" 
d="M184 17l-115 -24l-8 6v663l116 31l10 -6zM219 -196l5 -69q-78 -10 -195 -14l-7 72q30 0 45 1q-21 32 -21 62q0 39 23.5 62.5t65.5 23.5q35 0 74 -15l-17 -65q-29 8 -43 8q-34 0 -34 -32q0 -23 20 -41q60 4 84 7z" />
    <glyph glyph-name="uni0626" unicode="&#x626;" horiz-adv-x="778" 
d="M70 286l-7 79q33 0 51 1q-24 32 -24 69q0 43 26 69t72 26q36 0 81 -17l-19 -73q-29 10 -48 10q-36 0 -36 -34q0 -27 22 -46q62 4 91 7l7 -75q-96 -12 -216 -16zM620 191q68 -25 91.5 -48t23.5 -54q0 -103 -114.5 -174.5t-278.5 -71.5q-155 0 -230 58t-75 153q0 52 16 114
l104 35l9 -6q-10 -59 -10 -86q0 -71 45 -107t165 -36q83 0 150 20t97 45q5 18 -9 29t-61 28q-33 11 -50 19t-37.5 22t-29.5 34.5t-9 49.5q0 51 24.5 108t77 101t118.5 44q62 0 108 -24l-24 -120l-5 -3q-46 22 -93 22q-45 0 -80 -28.5t-35 -57.5q0 -18 23 -30.5t89 -35.5z
" />
    <glyph glyph-name="uni0627" unicode="&#x627;" horiz-adv-x="248" 
d="M69 -7l-8 6v663l116 31l10 -6l-3 -670z" />
    <glyph glyph-name="uni0628" unicode="&#x628;" horiz-adv-x="858" 
d="M759 384q46 -112 46 -196q0 -46 -20.5 -89.5t-58.5 -66.5q-73 -44 -287 -44h-61q-166 0 -253.5 48t-87.5 139q0 59 18 122l89 34l10 -5q-9 -46 -9 -83q0 -75 62.5 -102.5t213.5 -27.5h55q148 0 221 21q3 50 -52 168l102 82h12zM324 -183l67 98l106 -73l-66 -100z" />
    <glyph glyph-name="uni0629" unicode="&#x629;" horiz-adv-x="429" 
d="M185 604l-44 -69l-103 72l64 94l97 -67l45 67l103 -70l-64 -96zM174 468q112 -95 159 -166.5t47 -138.5q0 -78 -48.5 -124t-129.5 -46q-79 0 -123 37t-44 104q0 80 97 201q-22 17 -29 22l61 104zM206 118q66 0 66 49q0 43 -68 108q-62 -61 -62 -108q0 -22 17.5 -35.5
t46.5 -13.5z" />
    <glyph glyph-name="uni062A" unicode="&#x62a;" horiz-adv-x="858" 
d="M424 463l-44 -69l-103 72l64 94l97 -67l45 67l103 -70l-64 -96zM759 384q46 -112 46 -196q0 -46 -20.5 -89.5t-58.5 -66.5q-73 -44 -287 -44h-61q-166 0 -253.5 48t-87.5 139q0 59 18 122l89 34l10 -5q-9 -46 -9 -83q0 -75 62.5 -102.5t213.5 -27.5h55q148 0 221 21
q3 50 -52 168l102 82h12z" />
    <glyph glyph-name="uni062B" unicode="&#x62b;" horiz-adv-x="858" 
d="M508 633l-63 -96l-103 72l64 93zM437 463l-45 -69l-102 72l64 94l97 -67l46 67l102 -70l-64 -96zM759 384q46 -112 46 -196q0 -46 -20.5 -89.5t-58.5 -66.5q-73 -44 -287 -44h-61q-166 0 -253.5 48t-87.5 139q0 59 18 122l89 34l10 -5q-9 -46 -9 -83q0 -75 62.5 -102.5
t213.5 -27.5h55q148 0 221 21q3 50 -52 168l102 82h12z" />
    <glyph glyph-name="uni062C" unicode="&#x62c;" horiz-adv-x="662" 
d="M641 -258l6 -6l-37 -104q-75 -48 -208 -48q-165 0 -265 70.5t-100 194.5q0 118 92.5 222.5t228.5 167.5q-102 30 -158 30q-77 0 -147 -25l-5 5l43 107q51 31 119 31q50 0 144 -29q147 -46 273 -46l-30 -121q-187 -10 -315 -99t-128 -208q0 -86 75 -130.5t212 -44.5
q95 0 200 33zM409 -174l-107 76l67 98l106 -73z" />
    <glyph glyph-name="uni062D" unicode="&#x62d;" horiz-adv-x="662" 
d="M641 -258l6 -6l-37 -104q-75 -48 -208 -48q-165 0 -265 70.5t-100 194.5q0 118 92.5 222.5t228.5 167.5q-102 30 -158 30q-77 0 -147 -25l-5 5l43 107q51 31 119 31q50 0 144 -29q147 -46 273 -46l-30 -121q-187 -10 -315 -99t-128 -208q0 -86 75 -130.5t212 -44.5
q95 0 200 33z" />
    <glyph glyph-name="uni062E" unicode="&#x62e;" horiz-adv-x="662" 
d="M425 580l-66 -100l-107 76l67 98zM641 -258l6 -6l-37 -104q-75 -48 -208 -48q-165 0 -265 70.5t-100 194.5q0 118 92.5 222.5t228.5 167.5q-102 30 -158 30q-77 0 -147 -25l-5 5l43 107q51 31 119 31q50 0 144 -29q147 -46 273 -46l-30 -121q-187 -10 -315 -99t-128 -208
q0 -86 75 -130.5t212 -44.5q95 0 200 33z" />
    <glyph glyph-name="uni062F" unicode="&#x62f;" horiz-adv-x="452" 
d="M161 -9q-85 0 -134 11l18 121l7 4q37 -8 117 -8q107 0 143 20q-11 42 -58.5 104t-103.5 114l77 111h10q171 -182 171 -305q0 -83 -67 -127.5t-180 -44.5z" />
    <glyph glyph-name="uni0630" unicode="&#x630;" horiz-adv-x="452" 
d="M229 561l-107 76l67 98l106 -74zM161 -9q-85 0 -134 11l18 121l7 4q37 -8 117 -8q107 0 143 20q-11 42 -58.5 104t-103.5 114l77 111h10q171 -182 171 -305q0 -83 -67 -127.5t-180 -44.5z" />
    <glyph glyph-name="uni0631" unicode="&#x631;" horiz-adv-x="357" 
d="M-12 -183l-67 92l7 10q114 19 196.5 65.5t82.5 76.5q-5 55 -72 172l90 101h11q32 -58 49.5 -124t17.5 -116q0 -65 -29 -116q-31 -58 -109 -101.5t-177 -59.5z" />
    <glyph glyph-name="uni0632" unicode="&#x632;" horiz-adv-x="357" 
d="M227 427l-107 76l67 98l106 -74zM-12 -183l-67 92l7 10q114 19 196.5 65.5t82.5 76.5q-5 55 -72 172l90 101h11q32 -58 49.5 -124t17.5 -116q0 -65 -29 -116q-31 -58 -109 -101.5t-177 -59.5z" />
    <glyph glyph-name="uni0633" unicode="&#x633;" horiz-adv-x="1145" 
d="M1044 383q48 -126 48 -206q0 -87 -60 -132t-158 -45q-73 0 -128 25q-34 -25 -84 -25q-42 0 -77 20q-27 -108 -109.5 -157t-195.5 -49q-115 0 -179 57t-64 152q0 67 19 121l90 34l11 -4q-7 -46 -7 -94q0 -67 35.5 -104t119.5 -37q62 0 106.5 19.5t65.5 49.5q8 42 -7.5 93
t-49.5 123l109 77h6q3 -8 21.5 -63.5t24.5 -68.5q21 -44 81 -44q24 0 36 9q5 8 30 115l127 21l3 -4q-28 -94 -42 -132q36 -9 73 -9q60 0 90 13q8 43 -49 166l107 80z" />
    <glyph glyph-name="uni0634" unicode="&#x634;" horiz-adv-x="1145" 
d="M841 651l-63 -96l-103 72l64 93zM770 481l-45 -69l-102 72l64 94l97 -67l46 67l102 -70l-64 -96zM1044 383q48 -126 48 -206q0 -87 -60 -132t-158 -45q-73 0 -128 25q-34 -25 -84 -25q-42 0 -77 20q-27 -108 -109.5 -157t-195.5 -49q-115 0 -179 57t-64 152q0 67 19 121
l90 34l11 -4q-7 -46 -7 -94q0 -67 35.5 -104t119.5 -37q62 0 106.5 19.5t65.5 49.5q8 42 -7.5 93t-49.5 123l109 77h6q3 -8 21.5 -63.5t24.5 -68.5q21 -44 81 -44q24 0 36 9q5 8 30 115l127 21l3 -4q-28 -94 -42 -132q36 -9 73 -9q60 0 90 13q8 43 -49 166l107 80z" />
    <glyph glyph-name="uni0635" unicode="&#x635;" horiz-adv-x="1221" 
d="M1024 374q68 0 110 -55t42 -121q0 -43 -19.5 -81.5t-48.5 -62.5q-40 -34 -97 -44t-173 -10h-59q-88 0 -127.5 3.5t-65.5 18.5q-27 -109 -109.5 -158.5t-196.5 -49.5q-115 0 -179 57t-64 152q0 62 19 121l90 34l11 -4q-7 -49 -7 -94q0 -67 35.5 -104t119.5 -37
q62 0 106.5 19.5t65.5 49.5q8 42 -7.5 93t-49.5 123l109 77h6q2 -4 19.5 -58t26.5 -73q11 -24 28 -33t55 -11q135 132 215.5 190t144.5 58zM1067 139q8 13 8 38q0 29 -19 54t-48 25q-70 0 -220 -131h75q171 0 204 14z" />
    <glyph glyph-name="uni0636" unicode="&#x636;" horiz-adv-x="1221" 
d="M1084 567l-66 -100l-107 76l67 98zM1024 374q68 0 110 -55t42 -121q0 -43 -19.5 -81.5t-48.5 -62.5q-40 -34 -97 -44t-173 -10h-59q-88 0 -127.5 3.5t-65.5 18.5q-27 -109 -109.5 -158.5t-196.5 -49.5q-115 0 -179 57t-64 152q0 62 19 121l90 34l11 -4q-7 -49 -7 -94
q0 -67 35.5 -104t119.5 -37q62 0 106.5 19.5t65.5 49.5q8 42 -7.5 93t-49.5 123l109 77h6q2 -4 19.5 -58t26.5 -73q11 -24 28 -33t55 -11q135 132 215.5 190t144.5 58zM1067 139q8 13 8 38q0 29 -19 54t-48 25q-70 0 -220 -131h75q171 0 204 14z" />
    <glyph glyph-name="uni0637" unicode="&#x637;" horiz-adv-x="722" 
d="M524 374q68 0 110 -55t42 -121q0 -43 -19.5 -81.5t-48.5 -62.5q-40 -34 -96.5 -44t-172.5 -10h-238l-59 111l4 14h116l37 35v502l115 31l10 -6l-2 -415q125 102 202 102zM568 139q8 16 8 38q0 29 -19 54t-49 25q-68 0 -220 -131h75q171 0 205 14z" />
    <glyph glyph-name="uni0638" unicode="&#x638;" horiz-adv-x="722" 
d="M524 374q68 0 110 -55t42 -121q0 -43 -19.5 -81.5t-48.5 -62.5q-40 -34 -96.5 -44t-172.5 -10h-238l-59 111l4 14h116l37 35v502l115 31l10 -6l-2 -415q125 102 202 102zM597 567l-66 -100l-107 76l67 98zM568 139q8 16 8 38q0 29 -19 54t-49 25q-68 0 -220 -131h75
q171 0 205 14z" />
    <glyph glyph-name="uni0639" unicode="&#x639;" horiz-adv-x="549" 
d="M584 -275l19 -92q-102 -49 -243 -49q-153 0 -243 61t-90 169q0 126 145 219q-48 39 -75 88.5t-27 100.5q0 90 60 141.5t151 51.5q78 0 144 -30l-14 -105l-4 -3q-65 19 -102 19q-47 0 -70 -23t-23 -60q0 -29 18.5 -62.5t51.5 -58.5q74 32 168 60l6 -2l-9 -132
q-297 -64 -297 -181q0 -61 63.5 -96t174.5 -35q105 0 187 24z" />
    <glyph glyph-name="uni063A" unicode="&#x63a;" horiz-adv-x="549" 
d="M366 608l-66 -100l-107 76l67 98zM584 -275l19 -92q-102 -49 -243 -49q-153 0 -243 61t-90 169q0 126 145 219q-48 39 -75 88.5t-27 100.5q0 90 60 141.5t151 51.5q78 0 144 -30l-14 -105l-4 -3q-65 19 -102 19q-47 0 -70 -23t-23 -60q0 -29 18.5 -62.5t51.5 -58.5
q74 32 168 60l6 -2l-9 -132q-297 -64 -297 -181q0 -61 63.5 -96t174.5 -35q105 0 187 24z" />
    <glyph glyph-name="uni0640" unicode="&#x640;" horiz-adv-x="80" 
d="M0 0l27 125h80q40 0 40 -40q0 -85 -67 -85h-80z" />
    <glyph glyph-name="uni0641" unicode="&#x641;" horiz-adv-x="913" 
d="M756 669l-66 -100l-107 76l67 98zM691 496q76 0 122.5 -75.5t46.5 -184.5q0 -62 -17.5 -116t-44.5 -74q-77 -58 -359 -58h-61q-166 0 -253.5 48t-87.5 139q0 59 18 122l89 34l10 -5q-9 -46 -9 -83q0 -75 62.5 -102.5t213.5 -27.5h55q225 0 275 29q3 14 6 38
q-42 -9 -94 -9q-68 0 -102.5 32t-34.5 87q0 74 49 140t116 66zM621 309q0 -31 66 -31q33 0 71 5q-7 39 -27.5 67t-47.5 28q-25 0 -43.5 -22.5t-18.5 -46.5z" />
    <glyph glyph-name="uni0642" unicode="&#x642;" horiz-adv-x="748" 
d="M502 513l-44 -69l-103 72l64 94l97 -67l45 67l103 -70l-64 -96zM526 354q76 0 122.5 -75.5t46.5 -184.5q0 -143 -89 -211.5t-266 -68.5q-149 0 -226 58.5t-77 152.5q0 48 17 114l103 35l11 -6q-11 -56 -11 -86q0 -70 46 -106.5t158 -36.5q82 0 139 17.5t80 42.5
q4 15 9 38q-43 -8 -91 -8q-68 0 -102.5 32t-34.5 87q0 74 49 140t116 66zM456 167q0 -31 66 -31q33 0 71 5q-7 39 -27.5 67t-47.5 28q-25 0 -43.5 -22t-18.5 -47z" />
    <glyph glyph-name="uni0643" unicode="&#x643;" horiz-adv-x="832" 
d="M761 693l10 -6v-469q0 -124 -73 -177t-259 -53h-61q-166 0 -253.5 48t-87.5 139q0 59 18 122l89 34l10 -5q-9 -46 -9 -83q0 -75 62.5 -102.5t213.5 -27.5h55q50 0 98.5 7t64.5 16q7 30 7 78v448zM320 281l-7 69q30 0 47 1q-23 31 -23 64q0 39 24 62.5t65 23.5
q34 0 74 -17l-17 -63q-23 8 -44 8q-36 0 -36 -31q0 -25 21 -44q57 4 86 7l6 -66q-80 -10 -196 -14z" />
    <glyph glyph-name="uni0644" unicode="&#x644;" horiz-adv-x="669" 
d="M280 -186q-114 0 -178.5 56.5t-64.5 152.5q0 66 19 121l90 34l11 -4q-7 -36 -7 -94q0 -141 155 -141q120 0 167 63q10 60 10 133v527l116 31l10 -6l-1 -544q0 -163 -88.5 -246t-238.5 -83z" />
    <glyph glyph-name="uni0645" unicode="&#x645;" horiz-adv-x="507" 
d="M277 355q77 0 129.5 -76.5t52.5 -168.5q0 -64 -18.5 -94t-60.5 -30q-17 0 -60.5 3.5t-67.5 3.5q-48 0 -88 -15q-4 -28 -4.5 -50t5 -61t10 -64.5t11 -61.5t9.5 -52l-111 -50l-9 6q-4 30 -14.5 86.5t-17 100.5t-6.5 71q0 81 57 145t162 64q40 0 98 -8q-4 53 -36 92.5
t-71 39.5q-55 0 -79 -79l-52 -6l-9 6q7 89 58 143.5t112 54.5z" />
    <glyph glyph-name="uni0646" unicode="&#x646;" horiz-adv-x="642" 
d="M309 317l-107 76l67 98l106 -74zM280 -186q-112 0 -177.5 56t-65.5 153q0 70 19 121l90 34l11 -4q-7 -35 -7 -94q0 -141 155 -141q57 0 103 18.5t69 50.5q7 37 -6 85.5t-51 130.5l109 77h6q23 -52 38.5 -113.5t15.5 -102.5q0 -122 -84.5 -196.5t-224.5 -74.5z" />
    <glyph glyph-name="uni0647" unicode="&#x647;" horiz-adv-x="429" 
d="M174 468q112 -95 159 -166.5t47 -138.5q0 -78 -48.5 -124t-129.5 -46q-79 0 -123 37t-44 104q0 80 97 201q-22 17 -29 22l61 104zM206 118q66 0 66 49q0 43 -68 108q-62 -61 -62 -108q0 -22 17.5 -35.5t46.5 -13.5z" />
    <glyph glyph-name="uni0648" unicode="&#x648;" horiz-adv-x="439" 
d="M218 355q76 0 122 -74t46 -181q0 -52 -20.5 -100.5t-60 -88.5t-104 -64t-146.5 -25l-60 95l7 11q210 3 267 107q-36 -6 -80 -6q-68 0 -102.5 32t-34.5 88q0 74 49.5 140t116.5 66zM148 168q0 -31 66 -31q32 0 70 5q-6 39 -26.5 67t-47.5 28q-25 0 -43.5 -22t-18.5 -47z
" />
    <glyph glyph-name="uni0649" unicode="&#x649;" horiz-adv-x="778" 
d="M342 -157q-155 0 -230 58t-75 153q0 52 16 114l104 35l9 -6q-10 -59 -10 -86q0 -71 45 -107t165 -36q83 0 150 20t97 45q5 18 -9 29t-61 28q-33 11 -50 19t-37.5 22t-29.5 34.5t-9 49.5q0 51 24.5 108t77 101t118.5 44q62 0 108 -24l-24 -120l-5 -3q-46 22 -93 22
q-45 0 -80 -28.5t-35 -57.5q0 -18 23 -30.5t89 -35.5q68 -25 91.5 -48t23.5 -54q0 -103 -114.5 -174.5t-278.5 -71.5z" />
    <glyph glyph-name="uni064A" unicode="&#x64a;" horiz-adv-x="778" 
d="M620 191q68 -25 91.5 -48t23.5 -54q0 -103 -114.5 -174.5t-278.5 -71.5q-155 0 -230 58t-75 153q0 52 16 114l104 35l9 -6q-10 -59 -10 -86q0 -71 45 -107t165 -36q83 0 150 20t97 45q5 18 -9 29t-61 28q-33 11 -50 19t-37.5 22t-29.5 34.5t-9 49.5q0 51 24.5 108t77 101
t118.5 44q62 0 108 -24l-24 -120l-5 -3q-46 22 -93 22q-45 0 -80 -28.5t-35 -57.5q0 -18 23 -30.5t89 -35.5zM350 -298l45 68l102 -70l-64 -96l-97 69l-46 -69l-102 72l63 94z" />
    <glyph glyph-name="uni064B" unicode="&#x64b;" 
d="M33 719v74l253 46v-75zM33 596v74l253 46v-75z" />
    <glyph glyph-name="uni064C" unicode="&#x64c;" 
d="M279 850q37 0 60 -27t23 -62q0 -61 -63.5 -102t-184.5 -47l-16 59q8 11 8 23q0 16 -16 16q-11 0 -23 -10l-32 49q29 29 71 29q31 0 49 -19t18 -49q0 -16 -4 -28q32 3 58 12q-36 27 -36 63q0 34 26.5 63.5t61.5 29.5zM281 724q17 17 17 35q0 11 -6.5 19t-16.5 8
t-17.5 -7.5t-7.5 -17.5q0 -17 31 -37z" />
    <glyph glyph-name="uni064D" unicode="&#x64d;" 
d="M40 -226v74l239 46v-75zM40 -343v74l239 46v-75z" />
    <glyph glyph-name="uni064E" unicode="&#x64e;" 
d="M33 596v74l253 46v-75z" />
    <glyph glyph-name="uni064F" unicode="&#x64f;" 
d="M202 850q34 0 57.5 -25t23.5 -61q0 -57 -54 -94t-182 -61l-14 62q64 11 111 26q-32 26 -32 66q0 33 26.5 60t63.5 27zM202 726q18 15 18 32q0 11 -7 19.5t-17 8.5q-9 0 -16.5 -8t-7.5 -18q0 -15 30 -34z" />
    <glyph glyph-name="uni0650" unicode="&#x650;" 
d="M40 -226v74l239 46v-75z" />
    <glyph glyph-name="uni0651" unicode="&#x651;" 
d="M316 793q15 -45 15 -78q0 -46 -24.5 -75t-70.5 -29q-38 0 -59 24q-23 -26 -66 -26q-49 0 -70.5 25t-21.5 64q0 27 9 59l68 2q-4 -21 -4 -43q0 -35 24 -35q15 0 21 15t6 58l65 4q-1 -20 -1 -41q0 -33 26 -33q24 0 24 36q0 20 -10 58z" />
    <glyph glyph-name="uni0652" unicode="&#x652;" 
d="M133 599q-42 0 -67.5 25t-25.5 66q0 45 27 73t71 28q42 0 66.5 -27t24.5 -71q0 -42 -26.5 -68t-69.5 -26zM134 660q15 0 23.5 9t8.5 23q0 15 -9 24t-23 9q-13 0 -22.5 -9t-9.5 -24q0 -14 9 -23t23 -9z" />
    <glyph glyph-name="uni0653" unicode="&#x653;" 
d="M294 598q-23 0 -62 13t-60 13q-36 0 -76 -25l-36 56q48 47 100 47q22 0 67 -12.5t69 -12.5q25 0 46 8l23 -67q-37 -20 -71 -20z" />
    <glyph glyph-name="uni0654" unicode="&#x654;" 
d="M233 687l5 -69q-78 -10 -195 -14l-7 72q30 0 46 1q-22 30 -22 63q0 39 23.5 62.5t65.5 23.5q32 0 74 -16l-17 -65q-24 8 -43 8q-34 0 -34 -32q0 -23 20 -41q58 4 84 7z" />
    <glyph glyph-name="uni0655" unicode="&#x655;" 
d="M233 -196l5 -69q-78 -10 -195 -14l-7 72q30 0 45 1q-21 32 -21 62q0 39 23.5 62.5t65.5 23.5q35 0 74 -15l-17 -65q-29 8 -43 8q-34 0 -34 -32q0 -23 20 -41q60 4 84 7z" />
    <glyph glyph-name="uni0656" unicode="&#x656;" 
d="M27 -247v192h88v-192h-88z" />
    <glyph glyph-name="uni0658" unicode="&#x658;" 
d="M169 593q-53 0 -82.5 26t-29.5 71q0 23 8 53l62 18q-4 -24 -4 -43q0 -51 55 -51q42 0 73 29q0 26 -26 83l67 44q24 -53 24 -102q0 -54 -42.5 -91t-104.5 -37z" />
    <glyph glyph-name="uni0660" unicode="&#x660;" horiz-adv-x="527" 
d="M270 144q-103 96 -106 99l90 98q54 -46 109 -104z" />
    <glyph glyph-name="uni0661" unicode="&#x661;" horiz-adv-x="527" 
d="M262 -11l-13 4q-30 329 -69 518l112 79l14 -2q20 -108 36.5 -299t16.5 -275z" />
    <glyph glyph-name="uni0662" unicode="&#x662;" horiz-adv-x="527" 
d="M396 580l89 -14q-2 -111 -51 -165.5t-132 -54.5q-53 0 -99 20q24 -226 24 -352l-97 -25l-13 4q-30 329 -69 518l112 79l14 -2q2 -13 14 -89q44 -28 100 -28q50 0 76 22t32 87z" />
    <glyph glyph-name="uni0663" unicode="&#x663;" horiz-adv-x="527" 
d="M466 590q34 -71 34 -131q0 -66 -34 -94t-72 -28q-63 0 -101 36q-20 -39 -65 -39q-25 0 -47 11q22 -227 22 -331l-97 -25l-13 4q-30 329 -69 518l112 79l14 -2q11 -63 16 -102q13 -34 46 -34q18 0 30 17.5t18 65.5l67 -8q0 -4 -1 -14t-2 -18t-1 -12q0 -28 45 -28
q36 0 37 30.5t-17 74.5z" />
    <glyph glyph-name="uni0664" unicode="&#x664;" horiz-adv-x="527" 
d="M463 132l6 -7l-39 -111q-58 -18 -137 -18q-186 0 -186 128q0 77 93 149q-91 39 -91 100q0 31 16.5 63.5t49 62.5t86 54t121.5 36l8 -5l-22 -130q-72 -11 -106 -30.5t-34 -38.5q0 -10 11.5 -18.5t45 -15.5t84.5 -7l7 -9l-22 -87q-51 -17 -88 -42.5t-37 -46.5
q0 -37 103 -37q14 0 131 10z" />
    <glyph glyph-name="uni0665" unicode="&#x665;" horiz-adv-x="527" 
d="M268 -5q-113 0 -159.5 55.5t-46.5 157.5q0 106 58 190.5t148 84.5q89 0 146 -77.5t57 -193.5q0 -217 -203 -217zM268 120q84 0 84 84q0 62 -22.5 108t-61.5 46t-63 -46.5t-24 -107.5q0 -84 87 -84z" />
    <glyph glyph-name="uni0666" unicode="&#x666;" horiz-adv-x="527" 
d="M387 578q1 -86 23.5 -270t43.5 -291l-116 -30l-10 4q-36 312 -38 459q-129 -10 -233 15l10 116l6 6q150 -26 314 -9z" />
    <glyph glyph-name="uni0667" unicode="&#x667;" horiz-adv-x="527" 
d="M416 590l104 -75l-199 -508l-115 -17l-199 544l121 55l11 -3l124 -459l141 461z" />
    <glyph glyph-name="uni0668" unicode="&#x668;" horiz-adv-x="527" 
d="M321 590l198 -546l-121 -54l-10 2l-124 461l-142 -462l-11 -1l-104 74l198 508z" />
    <glyph glyph-name="uni0669" unicode="&#x669;" horiz-adv-x="527" 
d="M431 335q6 -66 20.5 -172.5t22.5 -145.5l-107 -30l-11 4q-14 102 -31 250q-37 -10 -78 -10q-75 0 -122 36t-47 103q0 81 57 149.5t130 68.5q147 0 166 -253zM193 394q0 -46 71 -46q13 0 48 5q-8 61 -22.5 89t-39.5 28q-24 0 -40.5 -24t-16.5 -52z" />
    <glyph glyph-name="uni066A" unicode="&#x66a;" horiz-adv-x="519" 
d="M160 -24l-91 40l280 609l94 -44zM127 431q-23 22 -52 49t-49 46l86 91q53 -43 103 -98zM404 -12q-23 22 -52 49t-49 46l86 91q50 -41 103 -98z" />
    <glyph glyph-name="uni066B" unicode="&#x66b;" horiz-adv-x="240" 
d="M83 -170l-63 36q53 69 53 107q0 19 -24.5 41t-24.5 54q0 30 22 54t57 24q38 0 59.5 -26t21.5 -71q0 -94 -101 -219z" />
    <glyph glyph-name="uni066C" unicode="&#x66c;" horiz-adv-x="203" 
d="M66 -136l-50 29q42 55 42 85q0 15 -19.5 32.5t-19.5 43.5q0 24 17.5 43.5t45.5 19.5q31 0 48 -21t17 -57q0 -77 -81 -175z" />
    <glyph glyph-name="uni066D" unicode="&#x66d;" horiz-adv-x="710" 
d="M160 -16l-22 17l124 234l-222 108l6 28l248 -26l47 239h29l46 -238l248 25l6 -30l-224 -104l126 -236l-22 -17l-195 171z" />
    <glyph glyph-name="uni066E" unicode="&#x66e;" horiz-adv-x="858" 
d="M759 384q46 -112 46 -196q0 -46 -20.5 -89.5t-58.5 -66.5q-73 -44 -287 -44h-61q-166 0 -253.5 48t-87.5 139q0 59 18 122l89 34l10 -5q-9 -46 -9 -83q0 -75 62.5 -102.5t213.5 -27.5h55q148 0 221 21q3 50 -52 168l102 82h12z" />
    <glyph glyph-name="uni066F" unicode="&#x66f;" horiz-adv-x="748" 
d="M526 354q76 0 122.5 -75.5t46.5 -184.5q0 -143 -89 -211.5t-266 -68.5q-149 0 -226 58.5t-77 152.5q0 48 17 114l103 35l11 -6q-11 -56 -11 -86q0 -70 46 -106.5t158 -36.5q82 0 139 17.5t80 42.5q4 15 9 38q-43 -8 -91 -8q-68 0 -102.5 32t-34.5 87q0 74 49 140t116 66z
M456 167q0 -31 66 -31q33 0 71 5q-7 39 -27.5 67t-47.5 28q-25 0 -43.5 -22t-18.5 -47z" />
    <glyph glyph-name="uni0670" unicode="&#x670;" 
d="M27 621v206h88v-206h-88z" />
    <glyph glyph-name="uni0671" unicode="&#x671;" horiz-adv-x="248" 
d="M195 881q28 0 43.5 -19.5t15.5 -43.5q0 -73 -101 -73q-73 0 -111 21q-25 -20 -63 -20l10 44q23 0 34 11q9 14 17 47l49 6l3 -2q-15 -38 -23 -53q6 -2 20 -4q35 45 59 65.5t47 20.5zM214 798q4 14 -2 25t-19 11q-21 0 -58 -43h18q51 0 61 7zM61 662l116 31l10 -6l-3 -670
l-115 -24l-8 6v663z" />
    <glyph glyph-name="uni0679" unicode="&#x679;" horiz-adv-x="858" 
d="M418 412q-62 0 -106 2l-19 65l2 6q4 0 17 -0.5t21 -0.5l14 18v171h68v-96q32 26 65 26q30 0 55.5 -26.5t25.5 -63.5q0 -101 -143 -101zM475 532q-31 0 -77 -49h27q68 0 82 5q3 18 -6.5 31t-25.5 13zM759 384q46 -112 46 -196q0 -46 -20.5 -89.5t-58.5 -66.5
q-73 -44 -287 -44h-61q-166 0 -253.5 48t-87.5 139q0 59 18 122l89 34l10 -5q-9 -46 -9 -83q0 -75 62.5 -102.5t213.5 -27.5h55q148 0 221 21q3 50 -52 168l102 82h12z" />
    <glyph glyph-name="uni067E" unicode="&#x67e;" horiz-adv-x="858" 
d="M759 384q46 -112 46 -196q0 -46 -20.5 -89.5t-58.5 -66.5q-73 -44 -287 -44h-61q-166 0 -253.5 48t-87.5 139q0 59 18 122l89 34l10 -5q-9 -46 -9 -83q0 -75 62.5 -102.5t213.5 -27.5h55q148 0 221 21q3 50 -52 168l102 82h12zM426 -151l45 69l102 -73l-63 -93l-96 66
l-46 -66l-101 70l63 96zM357 -316l63 96l102 -71l-63 -94z" />
    <glyph glyph-name="uni0686" unicode="&#x686;" horiz-adv-x="645" 
d="M641 -258l6 -6l-37 -104q-75 -48 -208 -48q-165 0 -265 70.5t-100 194.5q0 118 92.5 222.5t228.5 167.5q-102 30 -158 30q-77 0 -147 -25l-5 5l43 107q51 31 119 31q50 0 144 -29q147 -46 273 -46l-30 -121q-187 -10 -315 -99t-128 -208q0 -86 75 -130.5t212 -44.5
q95 0 200 33zM458 46l92 -65l-57 -85l-91 62l-42 -62l-92 63l57 87l91 -64zM353 -169l58 88l92 -66l-57 -84z" />
    <glyph glyph-name="uni0688" unicode="&#x688;" horiz-adv-x="452" 
d="M194 583q-62 0 -106 2l-19 65l2 6q4 0 17 -0.5t21 -0.5l14 18v171h68v-96q32 26 65 26q30 0 55.5 -26.5t25.5 -63.5q0 -101 -143 -101zM251 703q-31 0 -77 -49h27q68 0 82 5q3 18 -6.5 31t-25.5 13zM237 468q171 -182 171 -305q0 -83 -67 -127.5t-180 -44.5
q-85 0 -134 11l18 121l7 4q37 -8 117 -8q107 0 143 20q-11 42 -58.5 104t-103.5 114l77 111h10z" />
    <glyph glyph-name="uni0691" unicode="&#x691;" horiz-adv-x="357" 
d="M254 640q30 0 55.5 -26.5t25.5 -63.5q0 -101 -143 -101q-62 0 -106 2l-19 65l2 6q4 0 17 -0.5t21 -0.5l14 18v171h68v-96q32 26 65 26zM281 525q3 18 -6.5 31t-25.5 13q-31 0 -77 -49h27q68 0 82 5zM225 334h11q32 -58 49.5 -124t17.5 -116q0 -65 -29 -116
q-31 -58 -109 -101.5t-177 -59.5l-67 92l7 10q114 19 196.5 65.5t82.5 76.5q-5 55 -72 172z" />
    <glyph glyph-name="uni0698" unicode="&#x698;" horiz-adv-x="357" 
d="M282 670l-63 -96l-103 72l64 93zM271 597l102 -70l-64 -96l-98 69l-45 -69l-102 72l64 94l97 -67zM225 334h11q32 -58 49.5 -124t17.5 -116q0 -65 -29 -116q-31 -58 -109 -101.5t-177 -59.5l-67 92l7 10q114 19 196.5 65.5t82.5 76.5q-5 55 -72 172z" />
    <glyph glyph-name="uni06A1" unicode="&#x6a1;" horiz-adv-x="913" 
d="M691 496q76 0 122.5 -75.5t46.5 -184.5q0 -62 -17.5 -116t-44.5 -74q-77 -58 -359 -58h-61q-166 0 -253.5 48t-87.5 139q0 59 18 122l89 34l10 -5q-9 -46 -9 -83q0 -75 62.5 -102.5t213.5 -27.5h55q225 0 275 29q3 14 6 38q-42 -9 -94 -9q-68 0 -102.5 32t-34.5 87
q0 74 49 140t116 66zM621 309q0 -31 66 -31q33 0 71 5q-7 39 -27.5 67t-47.5 28q-25 0 -43.5 -22.5t-18.5 -46.5z" />
    <glyph glyph-name="uni06A4" unicode="&#x6a4;" horiz-adv-x="913" 
d="M745 812l-63 -96l-103 72l64 93zM674 642l-45 -69l-102 72l64 94l97 -67l46 67l102 -70l-64 -96zM691 496q76 0 122.5 -75.5t46.5 -184.5q0 -62 -17.5 -116t-44.5 -74q-77 -58 -359 -58h-61q-166 0 -253.5 48t-87.5 139q0 59 18 122l89 34l10 -5q-9 -46 -9 -83
q0 -75 62.5 -102.5t213.5 -27.5h55q225 0 275 29q3 14 6 38q-42 -9 -94 -9q-68 0 -102.5 32t-34.5 87q0 74 49 140t116 66zM621 309q0 -31 66 -31q33 0 71 5q-7 39 -27.5 67t-47.5 28q-25 0 -43.5 -22.5t-18.5 -46.5z" />
    <glyph glyph-name="uni06A9" unicode="&#x6a9;" horiz-adv-x="892" 
d="M896 654l-41 -151l-212 -105q112 -75 151 -126t39 -99q0 -103 -92 -144t-302 -41h-61q-166 0 -253.5 48t-87.5 139q0 59 18 122l89 34l10 -5q-9 -46 -9 -83q0 -75 62.5 -102.5t213.5 -27.5h55q193 0 253 36q0 31 -58.5 78t-154.5 107l-4 7l29 140l346 179z" />
    <glyph glyph-name="uni06AF" unicode="&#x6af;" horiz-adv-x="889" 
d="M872 727l-328 -169l-9 7l26 117l334 168l9 -6zM541 481l346 179l9 -6l-41 -151l-212 -105q112 -75 151 -126t39 -99q0 -103 -92 -144t-302 -41h-61q-166 0 -253.5 48t-87.5 139q0 59 18 122l89 34l10 -5q-9 -46 -9 -83q0 -75 62.5 -102.5t213.5 -27.5h55q193 0 253 36
q0 31 -58.5 78t-154.5 107l-4 7z" />
    <glyph glyph-name="uni06BA" unicode="&#x6ba;" horiz-adv-x="642" 
d="M280 -186q-112 0 -177.5 56t-65.5 153q0 70 19 121l90 34l11 -4q-7 -35 -7 -94q0 -141 155 -141q57 0 103 18.5t69 50.5q7 37 -6 85.5t-51 130.5l109 77h6q23 -52 38.5 -113.5t15.5 -102.5q0 -122 -84.5 -196.5t-224.5 -74.5z" />
    <glyph glyph-name="uni06BE" unicode="&#x6be;" horiz-adv-x="662" 
d="M242 468q382 -207 382 -348q0 -62 -41.5 -93t-116.5 -31q-85 0 -152 31q-36 -17 -123 -26q-66 -8 -117 -37h-9l-45 89q23 26 67.5 44.5t87.5 21.5q5 1 14.5 1t14.5 1q-25 42 -25 88q0 36 16 72t44 58q-9 5 -25.5 12t-18.5 8l37 107zM317 135q38 29 38 82q0 31 -12.5 51.5
t-28.5 20.5q-17 0 -29.5 -19.5t-12.5 -50.5q0 -55 45 -84zM466 104q51 0 65 10q-15 41 -86 99q-2 -58 -35 -106q26 -3 56 -3z" />
    <glyph glyph-name="uni06C1" unicode="&#x6c1;" horiz-adv-x="429" 
d="M174 468q112 -95 159 -166.5t47 -138.5q0 -78 -48.5 -124t-129.5 -46q-79 0 -123 37t-44 104q0 80 97 201q-22 17 -29 22l61 104zM206 118q66 0 66 49q0 43 -68 108q-62 -61 -62 -108q0 -22 17.5 -35.5t46.5 -13.5z" />
    <glyph glyph-name="uni06C2" unicode="&#x6c2;" horiz-adv-x="429" 
d="M101 560l-7 72q30 0 46 1q-22 30 -22 63q0 39 23.5 62.5t65.5 23.5q32 0 74 -16l-17 -65q-24 8 -43 8q-34 0 -34 -32q0 -23 20 -41q58 4 84 7l5 -69q-78 -10 -195 -14zM174 468q112 -95 159 -166.5t47 -138.5q0 -78 -48.5 -124t-129.5 -46q-79 0 -123 37t-44 104
q0 80 97 201q-22 17 -29 22l61 104zM206 118q66 0 66 49q0 43 -68 108q-62 -61 -62 -108q0 -22 17.5 -35.5t46.5 -13.5z" />
    <glyph glyph-name="uni06C3" unicode="&#x6c3;" horiz-adv-x="429" 
d="M185 604l-44 -69l-103 72l64 94l97 -67l45 67l103 -70l-64 -96zM174 468q112 -95 159 -166.5t47 -138.5q0 -78 -48.5 -124t-129.5 -46q-79 0 -123 37t-44 104q0 80 97 201q-22 17 -29 22l61 104zM206 118q66 0 66 49q0 43 -68 108q-62 -61 -62 -108q0 -22 17.5 -35.5
t46.5 -13.5z" />
    <glyph glyph-name="uni06CC" unicode="&#x6cc;" horiz-adv-x="778" 
d="M342 -157q-155 0 -230 58t-75 153q0 52 16 114l104 35l9 -6q-10 -59 -10 -86q0 -71 45 -107t165 -36q83 0 150 20t97 45q5 18 -9 29t-61 28q-33 11 -50 19t-37.5 22t-29.5 34.5t-9 49.5q0 51 24.5 108t77 101t118.5 44q62 0 108 -24l-24 -120l-5 -3q-46 22 -93 22
q-45 0 -80 -28.5t-35 -57.5q0 -18 23 -30.5t89 -35.5q68 -25 91.5 -48t23.5 -54q0 -103 -114.5 -174.5t-278.5 -71.5z" />
    <glyph glyph-name="uni06D2" unicode="&#x6d2;" horiz-adv-x="896" 
d="M814 -11q-154 0 -257.5 2t-201.5 8t-156.5 16.5t-104.5 28.5t-65 43.5t-19 60.5q0 45 27.5 80t60 52t65.5 31.5t38 20.5q9 11 28.5 39t33 44t37.5 30.5t51 14.5q56 0 98 -64.5t41 -151.5l-89 -33l-8 5q-4 39 -17.5 72.5t-29.5 41.5q-10 0 -18 -15.5t-21 -40.5t-31 -41
q-23 -21 -65 -34.5t-71 -20.5t-29 -16q43 -48 744 -48l6 -8z" />
    <glyph glyph-name="uni06D3" unicode="&#x6d3;" horiz-adv-x="896" 
d="M35 441l-7 72q30 0 46 1q-22 30 -22 63q0 39 23.5 62.5t65.5 23.5q32 0 74 -16l-17 -65q-24 8 -43 8q-34 0 -34 -32q0 -23 20 -41q58 4 84 7l5 -69q-78 -10 -195 -14zM855 114l6 -8l-47 -117q-154 0 -257.5 2t-201.5 8t-156.5 16.5t-104.5 28.5t-65 43.5t-19 60.5
q0 45 27.5 80t60 52t65.5 31.5t38 20.5q9 11 28.5 39t33 44t37.5 30.5t51 14.5q56 0 98 -64.5t41 -151.5l-89 -33l-8 5q-4 39 -17.5 72.5t-29.5 41.5q-10 0 -18 -15.5t-21 -40.5t-31 -41q-23 -21 -65 -34.5t-71 -20.5t-29 -16q43 -48 744 -48z" />
    <glyph glyph-name="uni06D4" unicode="&#x6d4;" horiz-adv-x="298" 
d="M180 0q-82 0 -158 31l25 111l5 5q85 -22 155 -22h42l-28 -125h-41z" />
    <glyph glyph-name="uni06F0" unicode="&#x6f0;" horiz-adv-x="527" 
d="M270 144q-103 96 -106 99l90 98q54 -46 109 -104z" />
    <glyph glyph-name="uni06F1" unicode="&#x6f1;" horiz-adv-x="527" 
d="M262 -11l-13 4q-30 329 -69 518l112 79l14 -2q20 -108 36.5 -299t16.5 -275z" />
    <glyph glyph-name="uni06F2" unicode="&#x6f2;" horiz-adv-x="527" 
d="M396 580l89 -14q-2 -111 -51 -165.5t-132 -54.5q-53 0 -99 20q24 -226 24 -352l-97 -25l-13 4q-30 329 -69 518l112 79l14 -2q2 -13 14 -89q44 -28 100 -28q50 0 76 22t32 87z" />
    <glyph glyph-name="uni06F3" unicode="&#x6f3;" horiz-adv-x="527" 
d="M466 590q34 -71 34 -131q0 -66 -34 -94t-72 -28q-63 0 -101 36q-20 -39 -65 -39q-25 0 -47 11q22 -227 22 -331l-97 -25l-13 4q-30 329 -69 518l112 79l14 -2q11 -63 16 -102q13 -34 46 -34q18 0 30 17.5t18 65.5l67 -8q0 -4 -1 -14t-2 -18t-1 -12q0 -28 45 -28
q36 0 37 30.5t-17 74.5z" />
    <glyph glyph-name="uni06F4" unicode="&#x6f4;" horiz-adv-x="527" 
d="M497 312q-53 -39 -152 -39q-41 0 -152 17q16 -186 16 -276l-97 -25l-13 4q-30 329 -69 518l112 79l14 -2q15 -76 26 -190q40 -6 60 -8q-8 26 -8 53q0 64 37.5 104.5t99.5 40.5q38 0 71 -19.5t51 -52.5l-68 -64q-24 28 -51 28q-23 0 -36 -14.5t-13 -35.5q0 -25 17 -50h15
q68 0 117 21z" />
    <glyph glyph-name="uni06F5" unicode="&#x6f5;" horiz-adv-x="527" 
d="M234 589q38 -27 77 -64t84 -91.5t73 -125t28 -141.5q0 -78 -37.5 -125t-103.5 -47q-62 0 -96 44q-34 -44 -91 -44q-62 0 -99.5 42t-37.5 118q0 85 43.5 171.5t108.5 159.5q-4 3 -13 9.5t-13 9.5l68 84h9zM345 107q47 0 47 59q0 119 -144 261q-51 -60 -83.5 -130
t-32.5 -128q0 -62 44 -62q47 0 50 76h73q1 -76 46 -76z" />
    <glyph glyph-name="uni06F6" unicode="&#x6f6;" horiz-adv-x="527" 
d="M447 384l10 -5l-13 -133q-104 -38 -161 -96.5t-98 -162.5l-99 12l-9 7q47 159 150 250q-114 65 -114 164q0 67 48 117.5t124 50.5q96 0 140 -72l-70 -64q-27 27 -59 27q-31 0 -47 -17t-16 -39q0 -62 94 -97q50 27 120 58z" />
    <glyph glyph-name="uni06F7" unicode="&#x6f7;" horiz-adv-x="527" 
d="M416 590l104 -75l-199 -508l-115 -17l-199 544l121 55l11 -3l124 -459l141 461z" />
    <glyph glyph-name="uni06F8" unicode="&#x6f8;" horiz-adv-x="527" 
d="M321 590l198 -546l-121 -54l-10 2l-124 461l-142 -462l-11 -1l-104 74l198 508z" />
    <glyph glyph-name="uni06F9" unicode="&#x6f9;" horiz-adv-x="527" 
d="M431 335q6 -66 20.5 -172.5t22.5 -145.5l-107 -30l-11 4q-14 102 -31 250q-37 -10 -78 -10q-75 0 -122 36t-47 103q0 81 57 149.5t130 68.5q147 0 166 -253zM193 394q0 -46 71 -46q13 0 48 5q-8 61 -22.5 89t-39.5 28q-24 0 -40.5 -24t-16.5 -52z" />
    <glyph glyph-name="uni2007" unicode="&#x2007;" horiz-adv-x="540" 
 />
    <glyph glyph-name="uni200B" unicode="&#x200b;" 
 />
    <glyph glyph-name="uni200C" unicode="&#x200c;" 
d="M-8 -150v900h16v-900h-16z" />
    <glyph glyph-name="uni200D" unicode="&#x200d;" 
d="M-8 -150v881l-49 -49l-11 11l57 57l-54 54l11 11l54 -54l54 54l11 -11l-54 -54l57 -57l-11 -11l-49 49v-881h-16z" />
    <glyph glyph-name="uni200E" unicode="&#x200e;" 
d="M-8 -150v908h111l-43 55l13 9l55 -72l-55 -72l-13 9l43 55h-95v-892h-16z" />
    <glyph glyph-name="uni200F" unicode="&#x200f;" 
d="M-8 -150v892h-95l43 -55l-13 -9l-55 72l55 72l13 -9l-43 -55h111v-908h-16z" />
    <glyph glyph-name="uni2011" unicode="&#x2011;" horiz-adv-x="380" 
d="M42 210v117h296v-117h-296z" />
    <glyph glyph-name="figuredash" unicode="&#x2012;" horiz-adv-x="540" 
d="M42 266v117h456v-117h-456z" />
    <glyph glyph-name="endash" unicode="&#x2013;" horiz-adv-x="600" 
d="M42 210v117h516v-117h-516z" />
    <glyph glyph-name="emdash" unicode="&#x2014;" horiz-adv-x="1000" 
d="M42 210v117h916v-117h-916z" />
    <glyph glyph-name="uni2015" unicode="&#x2015;" horiz-adv-x="1000" 
d="M-2 210v117h1004v-117h-1004z" />
    <glyph glyph-name="quoteleft" unicode="&#x2018;" horiz-adv-x="190" 
d="M97 377q-34 0 -54.5 22t-20.5 56q0 93 94 207l53 -34q-46 -66 -46 -94q0 -17 13 -29q33 -28 33 -60q0 -27 -19.5 -47.5t-52.5 -20.5z" />
    <glyph glyph-name="quoteright" unicode="&#x2019;" horiz-adv-x="190" 
d="M74 377l-53 33q46 69 46 94q0 18 -14 29q-32 28 -32 60q0 27 19.5 47.5t52.5 20.5q34 0 54 -22t20 -56q0 -95 -93 -206z" />
    <glyph glyph-name="quotesinglbase" unicode="&#x201a;" horiz-adv-x="190" 
d="M74 -151l-53 33q46 69 46 94q0 18 -14 29q-32 28 -32 60q0 27 19.5 47.5t52.5 20.5q34 0 54 -22t20 -56q0 -95 -93 -206z" />
    <glyph glyph-name="quotedblleft" unicode="&#x201c;" horiz-adv-x="371" 
d="M97 377q-34 0 -54.5 22t-20.5 56q0 93 94 207l53 -34q-46 -66 -46 -94q0 -17 13 -29q33 -28 33 -60q0 -27 -19.5 -47.5t-52.5 -20.5zM278 377q-34 0 -54 22t-20 56q0 95 93 207l53 -34q-46 -69 -46 -94q0 -18 14 -29q32 -28 32 -60q0 -27 -19.5 -47.5t-52.5 -20.5z" />
    <glyph glyph-name="quotedblright" unicode="&#x201d;" horiz-adv-x="371" 
d="M74 377l-53 33q46 69 46 94q0 18 -14 29q-32 28 -32 60q0 27 19.5 47.5t52.5 20.5q34 0 54 -22t20 -56q0 -95 -93 -206zM255 377l-53 33q46 69 46 94q0 18 -14 29q-32 28 -32 60q0 27 19.5 47.5t52.5 20.5q34 0 54 -22t20 -56q0 -95 -93 -206z" />
    <glyph glyph-name="quotedblbase" unicode="&#x201e;" horiz-adv-x="371" 
d="M74 -151l-53 33q46 69 46 94q0 18 -14 29q-32 28 -32 60q0 27 19.5 47.5t52.5 20.5q34 0 54 -22t20 -56q0 -95 -93 -206zM255 -151l-53 33q46 69 46 94q0 18 -14 29q-32 28 -32 60q0 27 19.5 47.5t52.5 20.5q34 0 54 -22t20 -56q0 -95 -93 -206z" />
    <glyph glyph-name="dagger" unicode="&#x2020;" horiz-adv-x="540" 
d="M201 -74v475h-151v121h151v166h138v-166h151v-121h-151v-475h-138z" />
    <glyph glyph-name="daggerdbl" unicode="&#x2021;" horiz-adv-x="540" 
d="M201 -74v166h-151v121h151v188h-151v121h151v166h138v-166h151v-121h-151v-188h151v-121h-151v-166h-138z" />
    <glyph glyph-name="bullet" unicode="&#x2022;" horiz-adv-x="351" 
d="M175 187q-47 0 -81 33.5t-34 80.5q0 46 34 79.5t81 33.5t81.5 -33.5t34.5 -79.5q0 -47 -34.5 -80.5t-81.5 -33.5z" />
    <glyph glyph-name="ellipsis" unicode="&#x2026;" horiz-adv-x="672" 
d="M103 -13q-33 0 -57 23.5t-24 56.5q0 32 24 55.5t57 23.5q32 0 56.5 -24t24.5 -55q0 -33 -24 -56.5t-57 -23.5zM336 -13q-33 0 -57 23.5t-24 56.5q0 32 24 55.5t57 23.5q32 0 56.5 -24t24.5 -55q0 -33 -24 -56.5t-57 -23.5zM568 -13q-33 0 -57 23.5t-24 56.5q0 32 24 55.5
t57 23.5q32 0 56.5 -24t24.5 -55q0 -33 -24 -56.5t-57 -23.5z" />
    <glyph glyph-name="perthousand" unicode="&#x2030;" horiz-adv-x="1357" 
d="M224 278q-81 0 -139 51.5t-58 141.5q0 86 58.5 138.5t138.5 52.5q79 0 137 -51.5t58 -137.5q0 -91 -57.5 -143t-137.5 -52zM291 -14l-89 58l446 618l90 -58zM224 380q32 0 49 26t17 64q0 41 -16.5 65.5t-49.5 24.5q-34 0 -50.5 -24t-16.5 -62q0 -41 17 -67.5t50 -26.5z
M715 -14q-81 0 -139 51.5t-58 141.5q0 86 58.5 138.5t138.5 52.5q79 0 137 -51.5t58 -137.5q0 -91 -57.5 -143t-137.5 -52zM1135 -14q-81 0 -139 51.5t-58 141.5q0 86 58.5 138.5t138.5 52.5q79 0 137 -51.5t58 -137.5q0 -91 -57.5 -143t-137.5 -52zM715 88q32 0 49 26
t17 64q0 41 -16.5 65.5t-49.5 24.5q-34 0 -50.5 -24t-16.5 -62q0 -41 17 -67.5t50 -26.5zM1135 88q32 0 49 26t17 64q0 41 -16.5 65.5t-49.5 24.5q-34 0 -50.5 -24t-16.5 -62q0 -41 17 -67.5t50 -26.5z" />
    <glyph glyph-name="guilsinglleft" unicode="&#x2039;" horiz-adv-x="320" 
d="M193 51l-157 167v100l157 168l71 -53l-108 -165l108 -164z" />
    <glyph glyph-name="guilsinglright" unicode="&#x203a;" horiz-adv-x="320" 
d="M127 51l-71 53l108 164l-108 165l71 53l157 -168v-100z" />
    <glyph glyph-name="fraction" unicode="&#x2044;" horiz-adv-x="249" 
d="M-65 -95l-94 49l473 791l94 -50z" />
    <glyph glyph-name="Euro" unicode="&#x20ac;" horiz-adv-x="540" 
d="M455 149l67 -82q-50 -44 -94.5 -62.5t-99.5 -18.5q-212 0 -246 236h-64l11 73h47v25q0 22 1 33h-59l11 74h56q21 122 90 178t167 56t176 -63l-61 -92q-44 44 -112 44q-53 0 -82.5 -29.5t-39.5 -93.5h201l-12 -74h-196v-27v-31h190l-12 -73h-172q10 -66 37 -94.5t80 -28.5
q64 0 116 50z" />
    <glyph glyph-name="uni2113" unicode="&#x2113;" horiz-adv-x="540" 
d="M300 106q29 0 67 16l47 -91q-72 -45 -159 -45q-49 0 -83.5 28t-47.5 73q-15 -12 -47 -34l-41 53q58 48 81 70q6 233 77 379.5t193 146.5q117 0 117 -124q0 -74 -67.5 -177.5t-183.5 -208.5v-17q0 -69 47 -69zM371 601q-15 0 -35 -31.5t-41 -97t-32 -145.5q68 83 96 147.5
t28 102.5q0 24 -16 24z" />
    <glyph glyph-name="published" unicode="&#x2117;" horiz-adv-x="749" 
d="M375 660q141 0 238.5 -98t97.5 -239t-97.5 -238t-238.5 -97t-239.5 97t-98.5 238t98.5 239t239.5 98zM375 65q107 0 179 75t72 183q0 109 -72 184.5t-179 75.5t-180 -75.5t-73 -184.5q0 -108 73 -183t180 -75zM386 508q82 0 123 -36.5t41 -95.5q0 -55 -38 -96t-124 -41
h-31v-93h-105v362h134zM381 328q36 0 48.5 12.5t12.5 33.5q0 45 -51 45h-34v-91h24z" />
    <glyph glyph-name="uni2120" unicode="&#x2120;" horiz-adv-x="888" 
d="M248 505q57 -18 86 -45t29 -79q0 -59 -43 -88t-117 -29q-94 0 -150 46l46 69q47 -31 103 -31q57 0 57 32q0 15 -11.5 25t-41.5 20l-24 8q-57 18 -83.5 44t-26.5 71q0 51 41 79.5t98 28.5q84 0 144 -41l-47 -68q-42 27 -90 27t-48 -25q0 -11 11 -18.5t43 -18.5zM741 648
h115v-376h-98v218q-7 -21 -16 -39l-64 -130h-79l-68 131q-10 19 -16 40v-220h-98v376h115l71 -136q32 -62 38 -81q12 41 32 81z" />
    <glyph glyph-name="trademark" unicode="&#x2122;" horiz-adv-x="905" 
d="M27 560v88h346v-88h-119v-288h-108v288h-119zM741 648h115v-376h-98v218q-7 -21 -16 -39l-64 -130h-79l-68 131q-10 19 -16 40v-220h-98v376h115l71 -136q32 -62 38 -81q12 41 32 81z" />
    <glyph glyph-name="uni2126" unicode="&#x2126;" horiz-adv-x="747" 
d="M702 335q0 -147 -105 -221q47 4 102 4v-118h-252v101q65 26 87 87.5t22 147.5q0 93 -47.5 151.5t-135.5 58.5t-135 -58t-47 -151q0 -86 22 -147.5t87 -88.5v-101h-252v118q56 0 101 -4q-104 77 -104 222q0 156 95.5 241t234.5 85q142 0 234.5 -88.5t92.5 -238.5z" />
    <glyph glyph-name="estimated" unicode="&#x212e;" horiz-adv-x="826" 
d="M413 660q169 0 268 -100t99 -246h-586q-5 0 -9 -3.5t-4 -8.5v-160q0 -28 15 -42q88 -88 217 -88q69 0 129.5 29t99.5 76h66q-38 -53 -113 -90.5t-182 -37.5q-166 0 -267 93.5t-101 240.5q0 146 100 241.5t268 95.5zM413 635q-129 0 -217 -90q-15 -14 -15 -39v-160
q0 -11 13 -11h436q13 0 13 11v160q0 25 -15 39q-90 90 -215 90z" />
    <glyph glyph-name="partialdiff" unicode="&#x2202;" horiz-adv-x="540" 
d="M149 662q63 -16 110.5 -34.5t96.5 -50.5t80 -74t50.5 -105.5t19.5 -143.5q0 -125 -63.5 -196.5t-172.5 -71.5q-43 0 -82.5 11t-75.5 34.5t-57.5 68t-21.5 105.5q0 102 55.5 156t138.5 54q69 0 124 -31q-24 73 -83 112.5t-165 67.5zM266 96q102 0 102 162q0 19 -1 28
q-49 28 -99 28q-57 0 -78.5 -30t-21.5 -85q0 -103 98 -103z" />
    <glyph glyph-name="uni2206" unicode="&#x2206;" horiz-adv-x="668" 
d="M422 648l233 -640v-8h-643v8l233 640h177zM199 114h267l-135 402z" />
    <glyph glyph-name="product" unicode="&#x220f;" horiz-adv-x="540" 
d="M528 648l-15 -107h-41v-727h-136v727h-134v-727h-136v727h-50v107h512z" />
    <glyph glyph-name="summation" unicode="&#x2211;" horiz-adv-x="540" 
d="M396 206l-165 -274h261l-1 -118h-444v68l219 354l-219 344v68h444l1 -118h-260l164 -263v-61z" />
    <glyph glyph-name="minus" unicode="&#x2212;" horiz-adv-x="540" 
d="M60 200v110h420v-110h-420z" />
    <glyph glyph-name="uni2215" unicode="&#x2215;" horiz-adv-x="540" 
d="M130 -11l-93 49l373 624l93 -50z" />
    <glyph glyph-name="uni2219" unicode="&#x2219;" horiz-adv-x="540" 
d="M270 176q-33 0 -57 23.5t-24 56.5q0 32 24 55.5t57 23.5q32 0 56.5 -24t24.5 -55q0 -33 -24 -56.5t-57 -23.5z" />
    <glyph glyph-name="radical" unicode="&#x221a;" horiz-adv-x="540" 
d="M169 0l-164 424l133 42l96 -272l196 656h285v-118h-183l-222 -732h-141z" />
    <glyph glyph-name="infinity" unicode="&#x221e;" horiz-adv-x="777" 
d="M559 458q95 0 144.5 -52t49.5 -137q0 -80 -56 -133t-151 -53q-53 0 -97 27.5t-66 73.5q-25 -44 -68 -72.5t-97 -28.5q-95 0 -144.5 52t-49.5 137q0 80 56 133t151 53q53 0 97 -27.5t66 -73.5q25 44 68 72.5t97 28.5zM225 179q38 0 67 27.5t44 61.5q-23 48 -47 71t-68 23
q-30 0 -56.5 -20t-26.5 -70q0 -51 26.5 -72t60.5 -21zM555 179q31 0 57.5 20t26.5 70q0 51 -27 72t-60 21q-38 0 -67 -27.5t-44 -61.5q23 -48 47 -71t67 -23z" />
    <glyph glyph-name="integral" unicode="&#x222b;" horiz-adv-x="300" 
d="M39 -196q-69 0 -120 22l34 102q34 -11 68 -11q28 0 44 18.5t16 51.5v678q0 84 50 135.5t135 51.5q61 0 115 -21l-34 -106q-30 14 -65 14q-65 0 -65 -75v-678q0 -81 -47 -131.5t-131 -50.5z" />
    <glyph glyph-name="approxequal" unicode="&#x2248;" horiz-adv-x="540" 
d="M338 263q-41 0 -86.5 29t-61.5 29q-23 0 -37 -11.5t-29 -41.5l-78 27q45 137 164 137q32 0 60 -14t50 -28.5t38 -14.5q18 0 31 10.5t27 41.5l78 -27q-45 -137 -156 -137zM338 78q-41 0 -86.5 29t-61.5 29q-23 0 -37 -11.5t-29 -41.5l-78 27q45 137 164 137q32 0 60 -14.5
t50 -28.5t38 -14q18 0 31 10.5t27 41.5l78 -27q-45 -137 -156 -137z" />
    <glyph glyph-name="notequal" unicode="&#x2260;" horiz-adv-x="540" 
d="M480 287h-135l-34 -61h169v-111h-232l-85 -151l-91 45l60 106h-72v111h135l34 61h-169v111h232l85 151l91 -45l-60 -106h72v-111z" />
    <glyph glyph-name="lessequal" unicode="&#x2264;" horiz-adv-x="540" 
d="M480 406l-307 -93l307 -76l-23 -105l-397 103v150l377 126zM60 0v111h420v-111h-420z" />
    <glyph glyph-name="greaterequal" unicode="&#x2265;" horiz-adv-x="540" 
d="M103 511l377 -126v-150l-397 -103l-23 105l307 76l-307 93zM60 0v110h420v-110h-420z" />
    <glyph glyph-name="lozenge" unicode="&#x25ca;" horiz-adv-x="540" 
d="M206 0l-192 322l192 326h136l184 -324l-185 -324h-135zM271 105l121 218l-123 221l-121 -221z" />
    <glyph glyph-name="uniFBB2" unicode="&#xfbb2;" 
d="M127 445l-107 76l67 98l106 -74z" />
    <glyph glyph-name="uniFBB3" unicode="&#xfbb3;" 
d="M127 -246l-107 75l67 98l106 -73z" />
    <glyph glyph-name="uniFBB4" unicode="&#xfbb4;" 
d="M321 545l-64 -96l-98 69l-44 -69l-103 72l64 94l97 -67l45 67z" />
    <glyph glyph-name="uniFBB5" unicode="&#xfbb5;" 
d="M325 -143l-64 -96l-97 69l-46 -69l-102 72l63 94l99 -68l45 68z" />
    <glyph glyph-name="uniFBB6" unicode="&#xfbb6;" 
d="M230 688l-63 -96l-103 72l64 93zM321 545l-64 -96l-98 69l-45 -69l-102 72l64 94l97 -67l46 67z" />
    <glyph glyph-name="uniFBB9" unicode="&#xfbb9;" 
d="M173 -170l-46 -66l-101 70l63 96l96 -69l45 69l102 -73l-63 -93zM116 -304l63 96l102 -71l-63 -94z" />
    <glyph glyph-name="uniFD3E" unicode="&#xfd3e;" horiz-adv-x="545" 
d="M486 -205q-10 0 -26 10q-54 35 -123.5 117.5t-94.5 163.5q-42 -17 -74 -17q-25 0 -25 13q0 15 19 34l55 56q12 12 12 20q0 6 -7 6q-8 0 -19 -8l-64 -47q-19 -14 -26 -14q-13 0 -13 28q0 15 6 39q-61 26 -61 50q0 13 14 24t47 26q-6 24 -6 39q0 28 13 28q7 0 26 -14
l64 -47q11 -8 19 -8q7 0 7 6q0 8 -12 20l-55 56q-19 19 -19 34q0 13 25 13q32 0 74 -17q25 82 95 165.5t123 115.5q16 10 26 10q7 0 7 -6q0 -7 -12 -20q-137 -149 -151 -262q31 9 47 9q22 0 22 -15q0 -11 -12 -23l-55 -60q-11 -12 -11 -20q0 -6 7 -6q8 0 19 8l64 47
q19 14 26 14q13 0 13 -28q0 -15 -6 -39q61 -26 61 -50t-61 -50q6 -24 6 -39q0 -28 -13 -28q-7 0 -26 14l-64 47q-11 8 -19 8q-7 0 -7 -6q0 -8 11 -20l55 -60q12 -12 12 -23q0 -15 -22 -15q-16 0 -47 9q13 -108 151 -262q12 -13 12 -20q0 -6 -7 -6zM245 320l2 1q-3 7 -3 13
q0 20 30 20q31 0 31 -18q0 -6 -3 -14l2 -1l55 63q8 9 8 12t-4 3q-16 0 -60 -25q6 61 28 113q4 10 8.5 19.5t7 14.5t4 9.5t1.5 6.5q0 6 -4 6q-8 0 -26 -25q-46 -64 -64 -145q-62 30 -76 30q-5 0 -5 -2q0 -3 6 -9zM125 162q4 0 18 10l58 43l-1 2q-9 -3 -15 -3q-21 0 -21 32
t21 32q6 0 15 -3l1 2l-58 43q-14 10 -18 10t-4 -8q0 -19 7 -45q-59 -14 -59 -31t59 -31q-7 -26 -7 -45q0 -8 4 -8zM425 162q4 0 4 8q0 19 -7 45q59 14 59 31t-59 31q7 26 7 45q0 8 -4 8t-18 -10l-58 -43l1 -2q9 3 15 3q21 0 21 -32t-21 -32q-6 0 -15 3l-1 -2l58 -43
q14 -10 18 -10zM275 196q21 0 35.5 14.5t14.5 35.5t-14.5 35.5t-35.5 14.5t-35.5 -14.5t-14.5 -35.5t14.5 -35.5t35.5 -14.5zM348 -51q4 0 4 6q0 3 -2 8t-8 17.5t-11 24.5q-22 52 -28 113q44 -25 60 -25q3 0 3 3q0 4 -4 8l-58 67l-2 -1q3 -8 3 -14q0 -18 -31 -18
q-30 0 -30 20q0 6 3 13l-2 1l-62 -72q-6 -6 -6 -9q0 -2 4 -2q15 0 77 30q18 -81 64 -145q18 -25 26 -25z" />
    <glyph glyph-name="uniFD3F" unicode="&#xfd3f;" horiz-adv-x="545" 
d="M59 -205q-7 0 -7 6t12 20q138 154 151 262q-31 -9 -47 -9q-22 0 -22 15q0 11 12 23l55 60q11 12 11 20q0 6 -7 6q-8 0 -19 -8l-64 -47q-19 -14 -26 -14q-13 0 -13 28q0 15 6 39q-61 26 -61 50t61 50q-6 24 -6 39q0 28 13 28q7 0 26 -14l64 -47q11 -8 19 -8q7 0 7 6
q0 8 -11 20l-55 60q-12 12 -12 23q0 15 22 15q16 0 47 -9q-14 113 -151 262q-12 13 -12 20q0 6 7 6q10 0 26 -10q53 -32 123 -115.5t95 -165.5q42 17 74 17q25 0 25 -13q0 -15 -19 -34l-55 -56q-12 -12 -12 -20q0 -6 7 -6q8 0 19 8l64 47q19 14 26 14q13 0 13 -28
q0 -15 -6 -39q33 -15 47 -26t14 -24q0 -24 -61 -50q6 -24 6 -39q0 -28 -13 -28q-7 0 -26 14l-64 47q-11 8 -19 8q-7 0 -7 -6q0 -8 12 -20l55 -56q19 -19 19 -34q0 -13 -25 -13q-32 0 -74 17q-25 -81 -94.5 -163.5t-123.5 -117.5q-16 -10 -26 -10zM300 320l62 72q6 6 6 9
q0 2 -5 2q-14 0 -76 -30q-18 81 -64 145q-18 25 -26 25q-4 0 -4 -6q0 -3 2 -8t8 -17.5t11 -24.5q22 -52 28 -113q-44 25 -60 25q-4 0 -4 -3t8 -12l55 -63l2 1q-3 8 -3 14q0 18 31 18q30 0 30 -20q0 -6 -3 -13zM120 162q4 0 18 10l58 43l-1 2q-9 -3 -15 -3q-21 0 -21 32
t21 32q6 0 15 -3l1 2l-58 43q-14 10 -18 10t-4 -8q0 -19 7 -45q-59 -14 -59 -31t59 -31q-7 -26 -7 -45q0 -8 4 -8zM420 162q4 0 4 8q0 19 -7 45q59 14 59 31t-59 31q7 26 7 45q0 8 -4 8t-18 -10l-58 -43l1 -2q9 3 15 3q21 0 21 -32t-21 -32q-6 0 -15 3l-1 -2l58 -43
q14 -10 18 -10zM270 196q21 0 35.5 14.5t14.5 35.5t-14.5 35.5t-35.5 14.5t-35.5 -14.5t-14.5 -35.5t14.5 -35.5t35.5 -14.5zM197 -51q8 0 26 25q46 64 64 145q62 -30 77 -30q4 0 4 2q0 3 -6 9l-62 72l-2 -1q3 -8 3 -13q0 -20 -30 -20q-31 0 -31 18q0 6 3 14l-2 1l-58 -67
q-4 -4 -4 -8q0 -3 3 -3q16 0 60 25q-6 -61 -28 -113q-4 -10 -8.5 -19.5t-7 -14.5t-4 -9.5t-1.5 -6.5q0 -6 4 -6z" />
    <glyph glyph-name="uniFEFF" unicode="&#xfeff;" 
 />
    <glyph glyph-name="f.short" horiz-adv-x="339" 
d="M216 511v-61h116l-14 -107h-102v-343h-136v343h-66v107h66v58q0 83 47 135t133 52q48 0 86 -15l-34 -107q-20 8 -41 8q-25 0 -40 -18t-15 -52z" />
    <glyph glyph-name="j.short" horiz-adv-x="256" 
d="M127 517q-36 0 -62 25t-26 59q0 35 26 60t62 25t62 -25t26 -60q0 -34 -26 -59t-62 -25zM54 -200q-36 0 -69 13l29 95q9 -3 18 -3q28 0 28 38v507l136 13v-506q0 -80 -37.5 -118.5t-104.5 -38.5z" />
    <glyph glyph-name="uni0627.short" horiz-adv-x="248" 
d="M69 -7l-8 6v663l116 31l10 -6l-3 -670z" />
    <glyph glyph-name="uniFE8E.short" horiz-adv-x="248" 
d="M69 -7l-8 6v663l116 31l10 -6l-3 -670z" />
    <glyph glyph-name="uni066E.medi.wide" horiz-adv-x="360" 
d="M387 125q40 0 40 -40q0 -85 -66 -85q-123 0 -182 47q-56 -47 -146 -47h-33l27 125h23q52 0 69 13q17 44 35 140l129 30l10 -7q-25 -105 -47 -156q53 -20 141 -20z" />
    <glyph glyph-name="uni066E.init.wide" horiz-adv-x="316" 
d="M0 0l27 125h30q76 0 96 8q7 45 -56 171l100 80h10q24 -52 40 -111t16 -94q0 -82 -53 -134q-25 -24 -64.5 -34.5t-113.5 -10.5h-32z" />
    <glyph glyph-name="uniFE91.yeh" horiz-adv-x="275" 
d="M45 -17l-45 56q57 18 76 32q-9 54 -56 147l100 81h14q55 -132 55 -187q0 -47 -20 -78t-72 -58zM176 -499l-107 75l67 98l106 -73z" />
    <glyph glyph-name="uniFBE8.yeh" horiz-adv-x="275" 
d="M45 -17l-45 56q57 18 76 32q-9 54 -56 147l100 81h14q55 -132 55 -187q0 -47 -20 -78t-72 -58z" />
    <glyph glyph-name="uniFE97.yeh" horiz-adv-x="275" 
d="M71 442l-44 -69l-103 72l64 94l97 -67l45 67l103 -70l-64 -96zM120 299h14q55 -132 55 -187q0 -47 -20 -78t-72 -58l-52 7l-45 56q57 18 76 32q-9 54 -56 147z" />
    <glyph glyph-name="uniFE9B.yeh" horiz-adv-x="275" 
d="M155 612l-63 -96l-103 72l64 93zM84 442l-45 -69l-102 72l64 94l97 -67l46 67l102 -70l-64 -96zM120 299h14q55 -132 55 -187q0 -47 -20 -78t-72 -58l-52 7l-45 56q57 18 76 32q-9 54 -56 147z" />
    <glyph glyph-name="uni0631.beh" horiz-adv-x="362" 
d="M54 -170l-62 91l7 11q91 28 152.5 66t61.5 63q-5 55 -72 172l90 101h10q32 -59 50 -125t18 -115q0 -74 -36 -128q-64 -95 -219 -136z" />
    <glyph glyph-name="uniFEAE.beh" horiz-adv-x="375" 
d="M402 125q40 0 40 -40q0 -85 -67 -85q-48 0 -79 14q-22 -64 -89.5 -112.5t-152.5 -71.5l-62 91l7 11q92 28 141.5 62t73.5 80q-27 64 -74 159l90 102h11q9 -28 24.5 -71.5t18.5 -50.5q21 -57 42.5 -72.5t75.5 -15.5z" />
    <glyph glyph-name="uniFEB0.beh" horiz-adv-x="375" 
d="M297 528l-66 -100l-107 76l67 98zM402 125q40 0 40 -40q0 -85 -67 -85q-48 0 -79 14q-22 -64 -89.5 -112.5t-152.5 -71.5l-62 91l7 11q92 28 141.5 62t73.5 80q-27 64 -74 159l90 102h11q9 -28 24.5 -71.5t18.5 -50.5q21 -57 42.5 -72.5t75.5 -15.5z" />
    <glyph glyph-name="uni0632.beh" horiz-adv-x="362" 
d="M232 427l-107 76l67 98l106 -74zM54 -170l-62 91l7 11q91 28 152.5 66t61.5 63q-5 55 -72 172l90 101h10q32 -59 50 -125t18 -115q0 -74 -36 -128q-64 -95 -219 -136z" />
    <glyph glyph-name="uniFED3.yeh" horiz-adv-x="396" 
d="M235 679l-66 -100l-107 76l67 98zM165 506q77 0 123.5 -75t46.5 -184q0 -107 -42 -156t-152 -88l-48 110q80 16 130 46q6 25 6 30q-43 -8 -92 -8q-68 0 -102.5 32t-34.5 87q0 74 49 140t116 66zM96 319q0 -31 65 -31q33 0 71 5q-7 39 -27.5 67t-47.5 28q-24 0 -42.5 -22
t-18.5 -47z" />
    <glyph glyph-name="uniFB6C.yeh" horiz-adv-x="396" 
d="M224 822l-63 -96l-103 72l64 93zM153 652l-45 -69l-102 72l64 94l97 -67l46 67l102 -70l-64 -96zM165 506q77 0 123.5 -75t46.5 -184q0 -107 -42 -156t-152 -88l-48 110q80 16 130 46q6 25 6 30q-43 -8 -92 -8q-68 0 -102.5 32t-34.5 87q0 74 49 140t116 66zM96 319
q0 -31 65 -31q33 0 71 5q-7 39 -27.5 67t-47.5 28q-24 0 -42.5 -22t-18.5 -47z" />
    <glyph glyph-name="uni06A1.init.yeh" horiz-adv-x="396" 
d="M165 506q77 0 123.5 -75t46.5 -184q0 -107 -42 -156t-152 -88l-48 110q80 16 130 46q6 25 6 30q-43 -8 -92 -8q-68 0 -102.5 32t-34.5 87q0 74 49 140t116 66zM96 319q0 -31 65 -31q33 0 71 5q-7 39 -27.5 67t-47.5 28q-24 0 -42.5 -22t-18.5 -47z" />
    <glyph glyph-name="uniFED7.yeh" horiz-adv-x="396" 
d="M140 652l-44 -69l-103 72l64 94l97 -67l45 67l103 -70l-64 -96zM165 506q77 0 123.5 -75t46.5 -184q0 -107 -42 -156t-152 -88l-48 110q80 16 130 46q6 25 6 30q-43 -8 -92 -8q-68 0 -102.5 32t-34.5 87q0 74 49 140t116 66zM96 319q0 -31 65 -31q33 0 71 5
q-7 39 -27.5 67t-47.5 28q-24 0 -42.5 -22t-18.5 -47z" />
    <glyph glyph-name="uniFEE0.yeh" horiz-adv-x="471" 
d="M499 125q39 0 39 -40q0 -85 -66 -85q-122 0 -166 109q-78 -38 -224 -41l-82 104q196 7 266 39q9 30 9 76v375l115 31l10 -6v-406q0 -81 20 -118.5t79 -37.5z" />
    <glyph glyph-name="uniFEDF.yeh" horiz-adv-x="295" 
d="M50 0l-69 103q91 17 122 36q6 28 6 88v383l115 30l10 -6v-423q0 -85 -39 -135.5t-145 -75.5z" />
    <glyph glyph-name="uniFEE7.yeh" horiz-adv-x="275" 
d="M100 369l-107 76l67 98l106 -74zM45 -17l-45 56q57 18 76 32q-9 54 -56 147l100 81h14q55 -132 55 -187q0 -47 -20 -78t-72 -58z" />
    <glyph glyph-name="uniFEF0.yeh" horiz-adv-x="626" 
d="M340 -186q-149 0 -226 58.5t-77 152.5q0 48 17 114l103 35l11 -6q-11 -56 -11 -86q0 -70 46 -106.5t158 -36.5q92 0 168.5 15.5t99.5 42.5q0 43 -164 79l35 107q136 -31 187.5 -68t51.5 -87q-4 -98 -117 -156t-282 -58z" />
    <glyph glyph-name="uniFEF2.yeh" horiz-adv-x="626" 
d="M500 183q136 -31 187.5 -68t51.5 -87q-4 -98 -117 -156t-282 -58q-149 0 -226 58.5t-77 152.5q0 48 17 114l103 35l11 -6q-11 -56 -11 -86q0 -70 46 -106.5t158 -36.5q92 0 168.5 15.5t99.5 42.5q0 43 -164 79zM352 -327l45 68l102 -70l-64 -96l-97 69l-46 -69l-102 72
l63 94z" />
    <glyph glyph-name="uniFEF3.yeh" horiz-adv-x="275" 
d="M45 -17l-45 56q57 18 76 32q-9 54 -56 147l100 81h14q55 -132 55 -187q0 -47 -20 -78t-72 -58zM311 -396l-64 -96l-97 69l-46 -69l-102 72l63 94l99 -68l45 68z" />
    <glyph glyph-name="uniFE8A.yeh" horiz-adv-x="626" 
d="M89 279l-7 72q30 0 46 1q-22 30 -22 63q0 39 23.5 62.5t65.5 23.5q32 0 74 -16l-17 -65q-24 8 -43 8q-34 0 -34 -32q0 -23 20 -41q58 4 84 7l5 -69q-78 -10 -195 -14zM500 183q136 -31 187.5 -68t51.5 -87q-4 -98 -117 -156t-282 -58q-149 0 -226 58.5t-77 152.5
q0 48 17 114l103 35l11 -6q-11 -56 -11 -86q0 -70 46 -106.5t158 -36.5q92 0 168.5 15.5t99.5 42.5q0 43 -164 79z" />
    <glyph glyph-name="uniFE8B.yeh" horiz-adv-x="275" 
d="M177 481l5 -69q-78 -10 -195 -14l-7 72q30 0 46 1q-22 30 -22 63q0 39 23.5 62.5t65.5 23.5q32 0 74 -16l-17 -65q-24 8 -43 8q-34 0 -34 -32q0 -23 20 -41q58 4 84 7zM134 299q55 -132 55 -187q0 -47 -20 -78t-72 -58l-52 7l-45 56q57 18 76 32q-9 54 -56 147l100 81h14
z" />
    <glyph glyph-name="zero.osf" horiz-adv-x="585" 
d="M286 -14q-111 0 -175 69.5t-64 185.5q0 73 22.5 125.5t61 79.5t80 39t88.5 12q110 0 174 -68.5t64 -188.5q0 -71 -22 -122.5t-59.5 -79t-79.5 -40t-90 -12.5zM291 91q105 0 105 150q0 151 -104 151q-105 0 -105 -151q0 -150 104 -150z" />
    <glyph glyph-name="one.osf" horiz-adv-x="439" 
d="M316 112h111v-112h-395v112h148v228l-111 -51l-54 77l165 116h136v-370z" />
    <glyph glyph-name="two.osf" horiz-adv-x="455" 
d="M254 112h172v-112h-406v64q148 111 199.5 163.5t51.5 97.5q0 57 -66 57q-59 0 -117 -52l-74 83q92 84 211 84q89 0 141 -39t52 -114q0 -57 -36.5 -110t-127.5 -122z" />
    <glyph glyph-name="three.osf" horiz-adv-x="446" 
d="M308 200q115 -37 115 -152q0 -88 -55.5 -144.5t-176.5 -56.5q-101 0 -175 38l46 101q57 -28 119 -28q48 0 75 22t27 63q0 43 -26.5 65.5t-97.5 22.5h-46l9 99h74q77 36 77 98q0 26 -18 43.5t-53 17.5q-62 0 -121 -51l-71 76q86 83 201 83q97 0 148.5 -43.5t51.5 -112.5
q0 -94 -103 -141z" />
    <glyph glyph-name="four.osf" horiz-adv-x="518" 
d="M500 110v-110h-75v-141h-137v141h-259v64l165 419h151l-160 -373h103l27 148h110v-148h75z" />
    <glyph glyph-name="five.osf" horiz-adv-x="450" 
d="M224 249q91 0 146 -49.5t55 -140.5q0 -41 -11 -76.5t-36 -67t-72.5 -50t-112.5 -18.5q-96 0 -173 37l45 100q60 -26 113 -26q56 0 81.5 26t25.5 66q0 46 -25.5 72t-92.5 26q-40 0 -62 -8l-49 39v304h355l-16 -112h-202v-123q10 1 31 1z" />
    <glyph glyph-name="six.osf" horiz-adv-x="554" 
d="M321 407q81 0 136 -53t55 -151q0 -61 -22.5 -105.5t-59 -67.5t-74.5 -33.5t-77 -10.5q-107 0 -169.5 71.5t-62.5 193.5q0 188 80 282.5t205 94.5q66 0 135 -24l-30 -99q-50 18 -103 18q-118 0 -142 -151q57 35 129 35zM284 95q44 0 69 26t25 76q0 109 -95 109
q-47 0 -99 -28v-27q0 -156 100 -156z" />
    <glyph glyph-name="seven.osf" horiz-adv-x="454" 
d="M27 483h415v-63q-193 -280 -227 -561h-146q12 120 67 255t146 257h-270z" />
    <glyph glyph-name="eight.osf" horiz-adv-x="554" 
d="M378 339q69 -38 101.5 -78.5t32.5 -98.5q0 -83 -61 -129.5t-171 -46.5q-112 0 -175 44.5t-63 124.5q0 100 131 160q-97 63 -97 153q0 77 59.5 118.5t145.5 41.5q93 0 146.5 -43t53.5 -109q0 -76 -103 -137zM278 528q-32 0 -49.5 -16t-17.5 -43q0 -24 18 -44.5t65 -44.5
q52 36 52 84q0 64 -68 64zM278 91q48 0 71 20.5t23 47.5q0 38 -23 57.5t-90 52.5q-77 -43 -77 -99q0 -33 23 -56t73 -23z" />
    <glyph glyph-name="nine.osf" horiz-adv-x="550" 
d="M275 497q106 0 169 -71t63 -194q0 -191 -78.5 -289t-206.5 -98q-65 0 -135 25l30 98q51 -19 104 -19q119 0 142 156q-60 -36 -130 -36q-82 0 -136.5 55t-54.5 157q0 60 22.5 104.5t59 67.5t74 33.5t77.5 10.5zM271 170q49 0 99 28v30q0 160 -99 160q-45 0 -70 -26
t-25 -76q0 -116 95 -116z" />
    <glyph glyph-name="zero.dnom" horiz-adv-x="359" 
d="M176 -11q-75 0 -119.5 52t-44.5 160q0 64 16.5 108t44 64t54 28t57.5 8q77 0 120.5 -47t43.5 -162q0 -64 -16.5 -108.5t-44 -65.5t-54 -29t-57.5 -8zM178 86q31 0 42.5 25t11.5 90q0 113 -50 113q-30 0 -42 -25.5t-12 -89.5q0 -113 50 -113z" />
    <glyph glyph-name="one.dnom" horiz-adv-x="358" 
d="M143 400h113v-400h-113v283l-74 -25l-45 65z" />
    <glyph glyph-name="two.dnom" horiz-adv-x="360" 
d="M332 296q0 -38 -25.5 -79.5t-107.5 -122.5h126v-94h-294v52q114 113 146.5 154.5t32.5 65.5q0 38 -44 38q-36 0 -76 -31l-59 69q61 61 153 61q64 0 106 -29.5t42 -83.5z" />
    <glyph glyph-name="three.dnom" horiz-adv-x="358" 
d="M258 220q76 -26 76 -99q0 -56 -41 -93.5t-134 -37.5q-82 0 -134 28l38 82q37 -17 89 -17q66 0 66 38q0 20 -17.5 31t-67.5 11h-30l7 81h59q40 19 40 46q0 12 -10.5 20.5t-30.5 8.5q-42 0 -85 -31l-57 63q62 58 148 58q73 0 111.5 -28.5t38.5 -77.5q0 -53 -66 -83z" />
    <glyph glyph-name="four.dnom" horiz-adv-x="359" 
d="M352 174v-91h-45v-83h-113v83h-188v49l115 268h126l-108 -226h55l22 74h91v-74h45z" />
    <glyph glyph-name="five.dnom" horiz-adv-x="359" 
d="M197 253q59 0 97.5 -31.5t38.5 -91.5q0 -56 -39.5 -97.5t-134.5 -41.5q-69 0 -132 27l38 83q42 -17 85 -17q34 0 50 12.5t16 30.5q0 21 -15.5 33t-62.5 12q-33 0 -45 -7l-39 32v203h265l-14 -93h-141v-56q20 2 33 2z" />
    <glyph glyph-name="six.dnom" horiz-adv-x="359" 
d="M217 268q51 0 88 -35t37 -97q0 -53 -28.5 -88t-62.5 -46.5t-71 -11.5q-75 0 -119 47.5t-44 129.5q0 123 56 182.5t143 59.5q46 0 95 -17l-24 -82q-32 12 -70 12q-39 0 -57.5 -20.5t-24.5 -58.5q39 25 82 25zM184 81q47 0 47 49q0 26 -11 41t-42 15q-19 0 -47 -11v-8
q0 -44 11.5 -65t41.5 -21z" />
    <glyph glyph-name="seven.dnom" horiz-adv-x="358" 
d="M30 400h311v-49q-143 -176 -161 -351h-120q6 73 43 154t100 152h-185z" />
    <glyph glyph-name="eight.dnom" horiz-adv-x="358" 
d="M259 217q47 -25 69 -48.5t22 -60.5q0 -56 -44 -87t-127 -31q-80 0 -125.5 29t-45.5 82q0 64 90 105q-66 40 -66 97q0 52 43.5 79t107.5 27q67 0 106 -28t39 -71q0 -51 -69 -93zM181 329q-18 0 -27 -8.5t-9 -19.5q0 -21 47 -49q26 20 26 45q0 32 -37 32zM180 77
q53 0 53 35q0 18 -14.5 30t-48.5 28q-44 -25 -44 -54q0 -16 13 -27.5t41 -11.5z" />
    <glyph glyph-name="nine.dnom" horiz-adv-x="359" 
d="M181 409q76 0 119 -45t43 -127q0 -124 -55.5 -185.5t-146.5 -61.5q-46 0 -98 18l25 79q36 -12 72 -12q71 0 86 78q-37 -22 -79 -22q-56 0 -92 36.5t-36 101.5q0 48 28 81.5t63 46t71 12.5zM180 213q24 0 53 13v22q0 76 -50 76q-54 0 -54 -52q0 -59 51 -59z" />
    <glyph glyph-name="zero.numr" horiz-adv-x="359" 
d="M176 206q-75 0 -119.5 52t-44.5 160q0 64 16.5 108t44 64t54 28t57.5 8q77 0 120.5 -47t43.5 -162q0 -64 -16.5 -108.5t-44 -65.5t-54 -29t-57.5 -8zM178 303q31 0 42.5 25t11.5 90q0 113 -50 113q-30 0 -42 -25.5t-12 -89.5q0 -113 50 -113z" />
    <glyph glyph-name="one.numr" horiz-adv-x="358" 
d="M143 617h113v-400h-113v283l-74 -25l-45 65z" />
    <glyph glyph-name="two.numr" horiz-adv-x="360" 
d="M332 513q0 -38 -25.5 -79.5t-107.5 -122.5h126v-94h-294v52q114 113 146.5 154.5t32.5 65.5q0 38 -44 38q-36 0 -76 -31l-59 69q61 61 153 61q64 0 106 -29.5t42 -83.5z" />
    <glyph glyph-name="three.numr" horiz-adv-x="358" 
d="M258 437q76 -26 76 -99q0 -56 -41 -93.5t-134 -37.5q-82 0 -134 28l38 82q37 -17 89 -17q66 0 66 38q0 20 -17.5 31t-67.5 11h-30l7 81h59q40 19 40 46q0 12 -10.5 20.5t-30.5 8.5q-42 0 -85 -31l-57 63q62 58 148 58q73 0 111.5 -28.5t38.5 -77.5q0 -53 -66 -83z" />
    <glyph glyph-name="four.numr" horiz-adv-x="359" 
d="M352 391v-91h-45v-83h-113v83h-188v49l115 268h126l-108 -226h55l22 74h91v-74h45z" />
    <glyph glyph-name="five.numr" horiz-adv-x="359" 
d="M197 470q59 0 97.5 -31.5t38.5 -91.5q0 -56 -39.5 -97.5t-134.5 -41.5q-69 0 -132 27l38 83q42 -17 85 -17q34 0 50 12.5t16 30.5q0 21 -15.5 33t-62.5 12q-33 0 -45 -7l-39 32v203h265l-14 -93h-141v-56q20 2 33 2z" />
    <glyph glyph-name="six.numr" horiz-adv-x="359" 
d="M217 485q51 0 88 -35t37 -97q0 -53 -28.5 -88t-62.5 -46.5t-71 -11.5q-75 0 -119 47.5t-44 129.5q0 123 56 182.5t143 59.5q46 0 95 -17l-24 -82q-31 12 -70 12t-57.5 -20.5t-24.5 -58.5q39 25 82 25zM184 298q47 0 47 49q0 26 -11 41t-42 15q-19 0 -47 -11v-8
q0 -44 11.5 -65t41.5 -21z" />
    <glyph glyph-name="seven.numr" horiz-adv-x="358" 
d="M30 617h311v-49q-143 -176 -161 -351h-120q6 73 43 154t100 152h-185z" />
    <glyph glyph-name="eight.numr" horiz-adv-x="358" 
d="M259 434q47 -25 69 -48.5t22 -60.5q0 -56 -44 -87t-127 -31q-80 0 -125.5 29t-45.5 82q0 64 90 105q-66 40 -66 97q0 52 43.5 79t107.5 27q67 0 106 -28t39 -71q0 -51 -69 -93zM181 546q-18 0 -27 -8.5t-9 -19.5q0 -21 47 -49q26 20 26 45q0 32 -37 32zM180 294
q53 0 53 35q0 18 -14.5 30t-48.5 28q-44 -25 -44 -54q0 -16 13 -27.5t41 -11.5z" />
    <glyph glyph-name="nine.numr" horiz-adv-x="359" 
d="M181 626q76 0 119 -45t43 -127q0 -124 -55.5 -185.5t-146.5 -61.5q-46 0 -98 18l25 79q36 -12 72 -12q71 0 86 78q-37 -22 -79 -22q-56 0 -92 36.5t-36 101.5q0 48 28 81.5t63 46t71 12.5zM180 430q24 0 53 13v22q0 76 -50 76q-54 0 -54 -52q0 -59 51 -59z" />
    <glyph glyph-name="uni0660.pnum" horiz-adv-x="350" 
d="M182 144l-106 99l90 98q49 -42 108 -104z" />
    <glyph glyph-name="uni0661.pnum" horiz-adv-x="322" 
d="M155 -11l-13 4q-27 319 -68 518l111 79l14 -2q21 -107 37 -297.5t16 -276.5z" />
    <glyph glyph-name="uni0662.pnum" horiz-adv-x="506" 
d="M407 580l89 -14q-2 -111 -51 -165.5t-132 -54.5q-44 0 -83 14q24 -236 22 -346l-97 -25l-13 4q-27 319 -68 518l111 79l14 -2q11 -63 15 -98q41 -19 86 -19q50 0 75.5 22t31.5 87z" />
    <glyph glyph-name="uni0663.pnum" horiz-adv-x="561" 
d="M517 590q34 -71 34 -131q0 -66 -34.5 -94t-73.5 -28q-62 0 -100 36q-19 -39 -65 -39q-23 0 -47 12q23 -235 21 -332l-97 -25l-13 4q-27 319 -68 518l111 79l14 -2q7 -36 15 -96q6 -19 19.5 -29.5t28.5 -10.5q19 0 30.5 17t17.5 66l68 -8q-5 -30 -5 -44q0 -28 45 -28
q38 0 38 32q0 11 -17 73z" />
    <glyph glyph-name="uni0664.pnum" horiz-adv-x="436" 
d="M417 132l6 -7l-40 -111q-56 -18 -137 -18q-186 0 -186 128q0 76 94 150q-91 39 -91 99q0 68 70.5 131t202.5 85l8 -5l-23 -130q-71 -11 -105.5 -30.5t-34.5 -38.5q0 -10 11.5 -18.5t45 -15.5t85.5 -7l7 -9l-23 -87q-50 -18 -87 -43t-37 -46q0 -37 103 -37q14 0 131 10z
" />
    <glyph glyph-name="uni0665.pnum" horiz-adv-x="498" 
d="M250 -5q-112 0 -158.5 55.5t-46.5 157.5q0 105 58 190t147 85t146 -77t57 -194q0 -217 -203 -217zM250 120q85 0 85 84q0 62 -22.5 108t-60.5 46q-39 0 -63 -46.5t-24 -107.5q0 -84 85 -84z" />
    <glyph glyph-name="uni0666.pnum" horiz-adv-x="454" 
d="M350 578q0 -85 23 -268t44 -293l-116 -30l-10 4q-34 248 -38 459q-130 -10 -234 15l10 116l6 6q152 -26 315 -9z" />
    <glyph glyph-name="uni0667.pnum" horiz-adv-x="532" 
d="M419 590l103 -75l-199 -508l-115 -17l-198 544l121 55l11 -3l123 -458l142 460z" />
    <glyph glyph-name="uni0668.pnum" horiz-adv-x="532" 
d="M324 590l198 -546l-121 -54l-10 2l-124 461l-142 -462l-11 -1l-104 74l198 508z" />
    <glyph glyph-name="uni0669.pnum" horiz-adv-x="444" 
d="M362 335q6 -66 20.5 -172.5t22.5 -145.5l-107 -30l-12 4q-15 118 -30 250q-39 -10 -78 -10q-74 0 -121 36t-47 103q0 81 56 149.5t129 68.5q148 0 167 -253zM124 394q0 -46 71 -46q13 0 48 5q-8 61 -22.5 89t-39.5 28q-23 0 -40 -24t-17 -52z" />
    <glyph glyph-name="uni06F0.pnum" horiz-adv-x="350" 
d="M182 144l-106 99l90 98q49 -42 108 -104z" />
    <glyph glyph-name="uni06F1.pnum" horiz-adv-x="322" 
d="M155 -11l-13 4q-27 319 -68 518l111 79l14 -2q21 -107 37 -297.5t16 -276.5z" />
    <glyph glyph-name="uni06F2.pnum" horiz-adv-x="506" 
d="M407 580l89 -14q-2 -111 -51 -165.5t-132 -54.5q-44 0 -83 14q24 -236 22 -346l-97 -25l-13 4q-27 319 -68 518l111 79l14 -2q11 -63 15 -98q41 -19 86 -19q50 0 75.5 22t31.5 87z" />
    <glyph glyph-name="uni06F3.pnum" horiz-adv-x="561" 
d="M517 590q34 -71 34 -131q0 -66 -34.5 -94t-73.5 -28q-62 0 -100 36q-19 -39 -65 -39q-23 0 -47 12q23 -235 21 -332l-97 -25l-13 4q-27 319 -68 518l111 79l14 -2q7 -36 15 -96q6 -19 19.5 -29.5t28.5 -10.5q19 0 30.5 17t17.5 66l68 -8q-5 -30 -5 -44q0 -28 45 -28
q38 0 38 32q0 11 -17 73z" />
    <glyph glyph-name="uni06F4.pnum" horiz-adv-x="551" 
d="M541 312q-55 -39 -153 -39q-42 0 -152 17q17 -202 16 -276l-97 -25l-13 4q-27 319 -68 518l111 79l14 -2q14 -69 27 -190q35 -5 60 -8q-8 26 -8 53q0 64 37.5 104.5t98.5 40.5q38 0 71 -19.5t51 -52.5l-68 -64q-24 28 -50 28q-23 0 -36 -14.5t-13 -35.5q0 -25 17 -50h15
q67 0 116 21z" />
    <glyph glyph-name="uni06F4.urdu" horiz-adv-x="527" 
d="M389 595l112 -34q-77 -146 -104 -246h-80q-13 63 -46.5 106.5t-66.5 43.5q-13 0 -21 -8.5t-8 -23.5q0 -26 20 -87q48 -157 65 -307l-113 -45l-8 2q-8 107 -49 289q-26 114 -26 147q0 68 41 111t104 43q44 0 79.5 -25.5t56.5 -70.5q9 33 35 102z" />
    <glyph glyph-name="uni06F4.urdu.pnum" horiz-adv-x="487" 
d="M365 595l112 -34q-78 -145 -105 -246h-80q-13 64 -46.5 107t-66.5 43q-12 0 -20.5 -8.5t-8.5 -23.5q0 -26 20 -87q50 -162 66 -307l-113 -45l-8 2q-9 109 -49 289q-26 114 -26 147q0 68 40.5 111t103.5 43q91 0 137 -96q9 33 35 102z" />
    <glyph glyph-name="uni06F5.pnum" horiz-adv-x="555" 
d="M248 589q29 -21 59 -47t68 -68.5t66.5 -87t48.5 -103t20 -116.5q0 -78 -37.5 -125t-103.5 -47q-61 0 -96 43q-34 -43 -91 -43q-62 0 -99.5 42t-37.5 118q0 85 43.5 172t107.5 158q-14 13 -26 20l68 84h10zM359 107q46 0 46 59q0 121 -144 261q-51 -61 -83.5 -131
t-32.5 -127q0 -62 45 -62q46 0 50 70v6h72v-3q3 -73 47 -73z" />
    <glyph glyph-name="uni06F6.pnum" horiz-adv-x="445" 
d="M404 384l9 -5l-13 -133q-103 -38 -159.5 -96t-98.5 -163l-100 12l-9 7q47 159 150 250q-114 65 -114 164q0 67 48 117.5t124 50.5q96 0 140 -72l-69 -64q-27 27 -60 27q-30 0 -46 -17t-16 -39q0 -63 93 -97q41 23 121 58z" />
    <glyph glyph-name="uni06F7.pnum" horiz-adv-x="532" 
d="M419 590l103 -75l-199 -508l-115 -17l-198 544l121 55l11 -3l123 -458l142 460z" />
    <glyph glyph-name="uni06F7.urdu" horiz-adv-x="527" 
d="M447 137l20 -119q-56 -23 -174 -23q-51 0 -94.5 6t-80 26t-36.5 53q0 73 67 222t190 288h12l85 -88q-165 -184 -231 -369q50 -9 95 -9q69 0 139 18z" />
    <glyph glyph-name="uni06F7.urdu.pnum" horiz-adv-x="447" 
d="M397 137l20 -119q-56 -23 -174 -23q-51 0 -94.5 6t-80 26t-36.5 53q0 73 67 222t190 288h12l85 -88q-165 -184 -231 -369q50 -9 95 -9q69 0 139 18z" />
    <glyph glyph-name="uni06F8.pnum" horiz-adv-x="530" 
d="M324 590l198 -546l-121 -54l-10 2l-124 461l-142 -462l-11 -1l-104 74l198 508z" />
    <glyph glyph-name="uni06F9.pnum" horiz-adv-x="458" 
d="M362 335q6 -66 20.5 -172.5t22.5 -145.5l-107 -30l-12 4q-15 118 -30 250q-39 -10 -78 -10q-74 0 -121 36t-47 103q0 81 56 149.5t129 68.5q148 0 167 -253zM124 394q0 -46 71 -46q13 0 48 5q-8 61 -22.5 89t-39.5 28q-23 0 -40 -24t-17 -52z" />
    <glyph glyph-name="periodcentered.case" horiz-adv-x="206" 
d="M103 245q-33 0 -57 23.5t-24 56.5q0 32 24 55.5t57 23.5q32 0 56.5 -24t24.5 -55q0 -33 -24 -56.5t-57 -23.5z" />
    <glyph glyph-name="exclamdown.case" horiz-adv-x="229" 
d="M114 503q-32 0 -56 23.5t-24 54.5q0 33 23.5 56.5t56.5 23.5t57 -23.5t24 -56.5q0 -32 -24 -55t-57 -23zM39 0l24 435l103 10l24 -445h-151z" />
    <glyph glyph-name="questiondown.case" horiz-adv-x="472" 
d="M255 503q-32 0 -56.5 23.5t-24.5 54.5q0 33 24 56.5t57 23.5t57 -23.5t24 -56.5q0 -32 -24 -55t-57 -23zM238 -13q-94 0 -152.5 42t-58.5 125q0 44 19 76.5t66 68.5q42 31 58 57t16 61v13l137 13v-39q0 -48 -19.5 -84t-68.5 -76q-33 -26 -45.5 -44.5t-12.5 -39.5
q0 -59 76 -59q66 0 136 66l75 -84q-39 -42 -100.5 -69t-125.5 -27z" />
    <glyph glyph-name="numbersign.osf" horiz-adv-x="633" 
d="M593 398h-82l-27 -181h68v-102h-84l-17 -115h-122l17 115h-118l-17 -115h-123l17 115h-65v102h81l27 181h-67v102h82l18 116h123l-18 -116h118l18 116h122l-18 -116h67v-102zM362 217l27 181h-118l-27 -181h118z" />
    <glyph glyph-name="braceleft.case" horiz-adv-x="360" 
d="M324 -115q-217 20 -217 165q0 15 6.5 71.5t6.5 69.5q0 49 -18 64.5t-68 17.5v110q50 2 68 17.5t18 64.5q0 13 -6.5 69.5t-6.5 71.5q0 145 217 165l22 -125q-60 3 -84 -10.5t-24 -46.5q0 -9 6 -66t6 -74q0 -54 -30 -85.5t-72 -35.5q42 -4 72 -36t30 -85q0 -17 -6 -74
t-6 -66q0 -32 23.5 -48t84.5 -24z" />
    <glyph glyph-name="braceright.case" horiz-adv-x="360" 
d="M36 -115l-22 110q61 8 84.5 24t23.5 48q0 9 -6 66t-6 74q0 53 30 85t72 36q-42 4 -72 35.5t-30 85.5q0 17 6 74t6 66q0 33 -24 46.5t-84 10.5l22 125q217 -20 217 -165q0 -15 -6.5 -71.5t-6.5 -69.5q0 -49 18 -64.5t68 -17.5v-110q-50 -2 -68 -17.5t-18 -64.5
q0 -13 6.5 -69.5t6.5 -71.5q0 -145 -217 -165z" />
    <glyph glyph-name="bracketleft.case" horiz-adv-x="360" 
d="M67 -106v869h277v-115h-142v-639h142v-115h-277z" />
    <glyph glyph-name="bracketright.case" horiz-adv-x="360" 
d="M16 -106v115h142v639h-142v115h277v-869h-277z" />
    <glyph glyph-name="parenleft.case" horiz-adv-x="360" 
d="M268 -123q-70 63 -114 121.5t-73 142t-29 182.5q0 147 54.5 249.5t161.5 198.5l76 -64q-153 -156 -153 -384q0 -226 153 -382z" />
    <glyph glyph-name="parenright.case" horiz-adv-x="360" 
d="M92 -123l-76 64q153 156 153 382q0 228 -153 384l76 64q107 -96 161.5 -198.5t54.5 -249.5q0 -99 -29 -182.5t-73 -142t-114 -121.5z" />
    <glyph glyph-name="emdash.case" horiz-adv-x="1000" 
d="M42 266v117h916v-117h-916z" />
    <glyph glyph-name="endash.case" horiz-adv-x="600" 
d="M42 266v117h516v-117h-516z" />
    <glyph glyph-name="uni2015.case" horiz-adv-x="1000" 
d="M-2 266v117h1004v-117h-1004z" />
    <glyph glyph-name="hyphen.case" horiz-adv-x="380" 
d="M42 266v117h296v-117h-296z" />
    <glyph glyph-name="uni00AD.case" horiz-adv-x="380" 
d="M42 266v117h296v-117h-296z" />
    <glyph glyph-name="guillemotleft.case" horiz-adv-x="533" 
d="M193 107l-157 167v100l157 168l71 -53l-108 -165l108 -164zM406 107l-157 167v100l157 168l71 -53l-108 -165l108 -164z" />
    <glyph glyph-name="guillemotright.case" horiz-adv-x="533" 
d="M127 107l-71 53l108 164l-108 165l71 53l157 -168v-100zM340 107l-71 53l108 164l-108 165l71 53l157 -168v-100z" />
    <glyph glyph-name="guilsinglleft.case" horiz-adv-x="320" 
d="M193 107l-157 167v100l157 168l71 -53l-108 -165l108 -164z" />
    <glyph glyph-name="guilsinglright.case" horiz-adv-x="320" 
d="M127 107l-71 53l108 164l-108 165l71 53l157 -168v-100z" />
    <glyph glyph-name="space.frac" horiz-adv-x="50" 
 />
    <glyph glyph-name="cent.osf" horiz-adv-x="443" 
d="M431 42q-65 -41 -128 -52v-131h-109v133q-73 13 -117.5 66.5t-44.5 156.5q0 99 45.5 158.5t116.5 80.5v130h109v-121q54 -5 119 -40l-47 -89q-57 28 -98 28q-47 0 -75.5 -36.5t-28.5 -109.5q0 -122 103 -122q46 0 107 35z" />
    <glyph glyph-name="dollar.osf" horiz-adv-x="540" 
d="M522 180q0 -79 -51 -125.5t-137 -58.5v-137h-108v135q-111 11 -195 72l62 94q89 -57 175 -57q53 0 84.5 17.5t31.5 52.5q0 29 -24.5 46t-99.5 44q-112 40 -156 79t-44 107t47 110t119 56v141h108v-137q97 -12 177 -65l-63 -91q-85 49 -158 49q-94 0 -94 -58
q0 -23 25.5 -40t98.5 -42q112 -39 157 -78.5t45 -113.5z" />
    <glyph glyph-name="Euro.osf" horiz-adv-x="580" 
d="M488 145l68 -81q-94 -78 -204 -78q-224 0 -258 224h-69l11 72h51v21q0 21 1 31h-63l11 72h60q43 222 269 222q108 0 187 -60l-62 -91q-53 41 -121 41q-57 0 -89.5 -26.5t-45.5 -85.5h219l-12 -72h-215v-24v-28h208l-12 -72h-189q11 -60 41.5 -86t88.5 -26q72 0 125 47z
" />
    <glyph glyph-name="florin.osf" horiz-adv-x="341" 
d="M280 583q-28 0 -44 -18.5t-16 -52.5v-68h121l-14 -106h-107v-372q0 -85 -43.5 -125.5t-114.5 -40.5q-62 0 -112 22l29 91q33 -10 55 -10q50 0 50 57v378h-64v106h64v65q0 82 47 134t132 52q63 0 113 -20l-34 -106q-32 14 -62 14z" />
    <glyph glyph-name="sterling.osf" horiz-adv-x="540" 
d="M272 222q0 -65 -30 -110h249v-112h-440v112h62q26 38 26 104q0 17 -4 47h-79v95h49q-24 61 -24 105q2 73 60 119t153 46q109 0 199 -85l-75 -83q-63 58 -121 58q-32 0 -51.5 -16.5t-19.5 -45.5q-1 -32 19 -98h170v-95h-146q3 -20 3 -41z" />
    <glyph glyph-name="yen.osf" horiz-adv-x="600" 
d="M584 616l-192 -300h135v-83h-159v-49h159v-83h-159v-101h-138v101h-157v83h157v49h-157v83h132l-189 300h159l125 -224l129 224h155z" />
    <glyph glyph-name="percent.osf" horiz-adv-x="937" 
d="M269 -59l-89 57l486 671l89 -57zM224 246q-81 0 -139 51.5t-58 140.5q0 86 58.5 138.5t138.5 52.5q79 0 137 -51.5t58 -136.5q0 -91 -57.5 -143t-137.5 -52zM224 347q31 0 48 26t17 64q0 41 -16.5 65.5t-48.5 24.5q-34 0 -51 -24t-17 -61q0 -42 17 -68.5t51 -26.5z
M715 -14q-81 0 -138.5 51.5t-57.5 141.5q0 86 58 138.5t138 52.5t137.5 -51.5t57.5 -137.5q0 -91 -57 -143t-138 -52zM715 88q32 0 49 26t17 64q0 41 -16.5 65.5t-49.5 24.5q-34 0 -50.5 -24t-16.5 -62q0 -41 17 -67.5t50 -26.5z" />
    <glyph glyph-name="perthousand.osf" horiz-adv-x="1357" 
d="M269 -59l-89 57l486 671l89 -57zM224 246q-81 0 -139 51.5t-58 140.5q0 86 58.5 138.5t138.5 52.5q79 0 137 -51.5t58 -136.5q0 -91 -57.5 -143t-137.5 -52zM224 347q31 0 48 26t17 64q0 41 -16.5 65.5t-48.5 24.5q-34 0 -51 -24t-17 -61q0 -42 17 -68.5t51 -26.5z
M715 -14q-81 0 -138.5 51.5t-57.5 141.5q0 86 58 138.5t138 52.5t137.5 -51.5t57.5 -137.5q0 -91 -57 -143t-138 -52zM1135 -14q-81 0 -138.5 51.5t-57.5 141.5q0 86 58 138.5t138 52.5t137.5 -51.5t57.5 -137.5q0 -91 -57 -143t-138 -52zM715 88q32 0 49 26t17 64
q0 41 -16.5 65.5t-49.5 24.5q-34 0 -50.5 -24t-16.5 -62q0 -41 17 -67.5t50 -26.5zM1135 88q32 0 49 26t17 64q0 41 -16.5 65.5t-49.5 24.5q-34 0 -50.5 -24t-16.5 -62q0 -41 17 -67.5t50 -26.5z" />
    <glyph glyph-name="section.osf" horiz-adv-x="465" 
d="M353 216q51 -33 51 -89q0 -66 -53.5 -103t-130.5 -37q-87 0 -169 33l42 92q69 -27 123 -27q50 0 50 24q0 20 -19 31t-79 30q-23 7 -33 10.5t-33 14.5t-34 22t-21 30.5t-10 42.5q0 69 85 107q-53 35 -53 99q0 63 52.5 98.5t125.5 35.5q82 0 160 -36l-46 -94
q-69 32 -111 32q-50 0 -50 -31q0 -17 19 -27.5t78 -28.5q70 -23 94 -42q37 -30 37 -77q0 -64 -75 -110zM159 316q0 -19 17.5 -30t68.5 -28q4 -1 8 -2.5t9.5 -3t9.5 -2.5q34 23 34 49q0 18 -20.5 30.5t-64.5 26.5q-2 1 -10 3.5t-13 3.5q-39 -22 -39 -47z" />
    <glyph glyph-name="degree.osf" horiz-adv-x="435" 
d="M216 294q-77 0 -128 43.5t-51 125.5t51.5 124.5t128.5 42.5q80 0 130 -43t50 -126q0 -82 -51 -124.5t-130 -42.5zM216 388q68 0 68 74q0 75 -67 75q-66 0 -66 -74q0 -75 65 -75z" />
    <glyph glyph-name="uni2113.osf" horiz-adv-x="533" 
d="M297 107q26 0 67 13l46 -92q-69 -41 -159 -41q-49 0 -81 24.5t-44 64.5q-34 -22 -52 -33l-42 52q70 52 89 68q4 133 34 236.5t89.5 166t139.5 62.5q117 0 117 -115q0 -69 -67.5 -162t-184.5 -186q2 -58 48 -58zM368 530q-11 0 -26.5 -16.5t-31.5 -45.5t-30.5 -76
t-22.5 -102q68 74 97 131.5t29 89.5q0 19 -15 19z" />
    <glyph glyph-name="caroncomb.alt" 
d="M-115 481l-74 19l32 162l117 -33z" />
    <glyph glyph-name="uni0308.case" 
d="M-309 713q-29 0 -50.5 21t-21.5 49q0 29 21.5 50t50.5 21q31 0 52 -21t21 -50t-21 -49.5t-52 -20.5zM-113 713q-30 0 -51 20.5t-21 49.5t21 50t51 21t51.5 -21t21.5 -50t-21.5 -49.5t-51.5 -20.5z" />
    <glyph glyph-name="uni0307.case" 
d="M-128 697q-36 0 -62 25t-26 59q0 35 26 60t62 25t62 -25t26 -60q0 -34 -26 -59t-62 -25z" />
    <glyph glyph-name="gravecomb.case" 
d="M-80 694l-202 93l68 108l179 -138z" />
    <glyph glyph-name="acutecomb.case" 
d="M-242 694l-44 63l179 138l67 -108z" />
    <glyph glyph-name="uni030B.case" 
d="M-296 684l-73 26l56 165l108 -47zM-142 673l-73 28l69 162l106 -46z" />
    <glyph glyph-name="uni0302.case" 
d="M-294 684l-56 55l106 108h98l106 -108l-54 -57l-100 66z" />
    <glyph glyph-name="uni030C.case" 
d="M-244 684l-106 108l56 55l100 -63l100 65l54 -57l-106 -108h-98z" />
    <glyph glyph-name="uni0306.case" 
d="M-194 696q-62 0 -104.5 33.5t-50.5 107.5l86 7q14 -54 69 -54q54 0 68 54l86 -7q-8 -74 -50 -107.5t-104 -33.5z" />
    <glyph glyph-name="uni030A.case" 
d="M-166 683q-55 0 -91 29t-36 84q0 56 36 85.5t91 29.5t90.5 -29.5t35.5 -85.5q0 -55 -36 -84t-90 -29zM-166 756q39 0 39 40q0 41 -39 41q-40 0 -40 -41q0 -40 40 -40z" />
    <glyph glyph-name="tildecomb.case" 
d="M-166 702q-29 0 -51.5 12t-38 24t-26.5 12q-27 0 -50 -44l-65 24q40 125 127 125q28 0 51 -12t38.5 -24t26.5 -12q28 0 50 43l64 -23q-38 -125 -126 -125z" />
    <glyph glyph-name="uni0304.case" 
d="M-326 710v103h286v-103h-286z" />
    <glyph glyph-name="uni0338.case" 
d="M-496 -57l-94 55l58 89l17 5l318 489l-1 13l67 101l91 -54l-64 -95l-16 -4l-318 -490l4 -13z" />
    <glyph glyph-name="uni0308.narrow" 
d="M-275 515q-28 0 -48.5 20t-20.5 49q0 30 20.5 50t48.5 20q29 0 49.5 -20t20.5 -50t-20.5 -49.5t-49.5 -19.5zM-110 515q-28 0 -48.5 20t-20.5 49q0 30 20.5 50t48.5 20t49 -20t21 -50q0 -29 -21 -49t-49 -20z" />
    <glyph glyph-name="uni0304.narrow" 
d="M-278 516v104h238v-104h-238z" />
    <glyph glyph-name="dotcenterar" 
d="M127 -92l-107 76l67 98l106 -73z" />
    <glyph glyph-name="uniFBB9.small" 
d="M164 -152l-42 -62l-92 63l57 87l91 -64l42 64l92 -65l-57 -85zM115 -279l58 88l92 -66l-57 -84z" />
    <glyph glyph-name="waslaar" 
d="M292 744q28 0 43.5 -19.5t15.5 -43.5q0 -73 -101 -73q-72 0 -111 21q-25 -20 -63 -20l10 44q23 0 34 11q9 14 17 47l49 6l3 -2q-15 -38 -23 -53q6 -2 20 -4q35 45 59 65.5t47 20.5zM311 661q4 14 -2 25t-19 11q-21 0 -58 -43h18q51 0 61 7z" />
    <glyph glyph-name="hamzaaboveDammaar" 
d="M199 1120q35 0 58.5 -24.5t23.5 -60.5q0 -58 -54 -94.5t-183 -60.5l-14 62q64 11 111 26q-31 27 -31 66q0 33 26.5 59.5t62.5 26.5zM200 996q18 15 18 33q0 11 -7 19.5t-17 8.5t-17 -7.5t-7 -18.5q0 -17 30 -35zM159 680q58 4 84 7l5 -69q-78 -10 -195 -14l-7 72
q30 0 46 1q-22 30 -22 63q0 39 23.5 62.5t65.5 23.5q32 0 74 -16l-17 -65q-24 8 -43 8q-34 0 -34 -32q0 -23 20 -41z" />
    <glyph glyph-name="hamzaaboveDammatanar" 
d="M279 1120q37 0 60 -27t23 -62q0 -61 -63.5 -101.5t-184.5 -46.5l-16 59q8 11 8 23q0 16 -16 16q-11 0 -23 -10l-32 49q29 29 71 29q31 0 49 -19t18 -49q0 -16 -4 -28q32 3 58 12q-36 27 -36 63q0 34 26.5 63t61.5 29zM281 995q17 17 17 34q0 11 -6.5 19.5t-16.5 8.5
t-17.5 -7.5t-7.5 -18.5q0 -18 31 -36zM239 680q58 4 84 7l5 -69q-78 -10 -195 -14l-7 72q30 0 46 1q-22 30 -22 63q0 39 23.5 62.5t65.5 23.5q32 0 74 -16l-17 -65q-24 8 -43 8q-34 0 -34 -32q0 -23 20 -41z" />
    <glyph glyph-name="hamzaaboveFathaar" 
d="M31 960l253 46v-76l-253 -45v75zM172 680q58 4 84 7l5 -69q-78 -10 -195 -14l-7 72q30 0 46 1q-22 30 -22 63q0 39 23.5 62.5t65.5 23.5q32 0 74 -16l-17 -65q-24 8 -43 8q-34 0 -34 -32q0 -23 20 -41z" />
    <glyph glyph-name="hamzaaboveFathatanar" 
d="M8 1083l253 46v-76l-253 -45v75zM8 885v75l253 46v-76zM149 680q58 4 84 7l5 -69q-78 -10 -195 -14l-7 72q30 0 46 1q-22 30 -22 63q0 39 23.5 62.5t65.5 23.5q32 0 74 -16l-17 -65q-24 8 -43 8q-34 0 -34 -32q0 -23 20 -41z" />
    <glyph glyph-name="hamzaaboveSukunar" 
d="M134 878q-43 0 -68 24.5t-25 66.5q0 45 26.5 73t71.5 28q42 0 66.5 -27.5t24.5 -71.5q0 -42 -26.5 -67.5t-69.5 -25.5zM135 1003q-14 0 -23 -9t-9 -23t9 -23t23 -9t23 9t9 23t-9 23t-23 9zM233 687l5 -69q-78 -10 -195 -14l-7 72q30 0 46 1q-22 30 -22 63q0 39 23.5 62.5
t65.5 23.5q32 0 74 -16l-17 -65q-24 8 -43 8q-34 0 -34 -32q0 -23 20 -41q58 4 84 7z" />
    <glyph glyph-name="hamzabelowKasraar" 
d="M65 -279l-7 72q30 0 45 1q-21 32 -21 62q0 39 23.5 62.5t65.5 23.5q35 0 74 -15l-17 -65q-29 8 -43 8q-34 0 -34 -32q0 -23 20 -41q60 4 84 7l5 -69q-78 -10 -195 -14zM40 -367l239 46v-76l-239 -45v75z" />
    <glyph glyph-name="hamzabelowKasratanar" 
d="M65 -279l-7 72q30 0 45 1q-21 32 -21 62q0 39 23.5 62.5t65.5 23.5q35 0 74 -15l-17 -65q-29 8 -43 8q-34 0 -34 -32q0 -23 20 -41q60 4 84 7l5 -69q-78 -10 -195 -14zM40 -367l239 46v-76l-239 -45v75zM40 -559v75l239 46v-76z" />
    <glyph glyph-name="shaddaAlefabovear" 
d="M215 1033v-206h-88v206h88zM316 793q15 -45 15 -78q0 -46 -24.5 -75t-70.5 -29q-38 0 -59 24q-23 -26 -66 -26q-49 0 -70.5 25t-21.5 64q0 27 9 59l68 2q-4 -21 -4 -43q0 -35 24 -35q15 0 21 15t6 58l65 4q-1 -20 -1 -41q0 -33 26 -33q24 0 24 36q0 20 -10 58z" />
    <glyph glyph-name="shaddaDammaar" 
d="M71 815l-14 62q65 11 110 26q-31 27 -31 65q0 33 26.5 60t63.5 27q34 0 57.5 -24.5t23.5 -61.5q0 -57 -54 -93.5t-182 -60.5zM196 966q0 -16 30 -35q18 17 18 33q0 11 -7 19t-17 8q-9 0 -16.5 -7.5t-7.5 -17.5zM316 793q15 -45 15 -78q0 -46 -24.5 -75t-70.5 -29
q-38 0 -59 24q-23 -26 -66 -26q-49 0 -70.5 25t-21.5 64q0 27 9 59l68 2q-4 -21 -4 -43q0 -35 24 -35q15 0 21 15t6 58l65 4q-1 -20 -1 -41q0 -33 26 -33q24 0 24 36q0 20 -10 58z" />
    <glyph glyph-name="shaddaDammatanar" 
d="M108 900q0 16 -15 16q-13 0 -23 -10l-33 49q29 29 71 29q32 0 49.5 -19t17.5 -50q0 -15 -4 -27q32 3 58 12q-36 27 -36 63q0 34 26.5 63t62.5 29t59 -27t23 -62q0 -61 -63.5 -101.5t-184.5 -46.5l-16 59q8 9 8 23zM252 966q0 -18 31 -36q17 17 17 34q0 12 -6.5 19.5
t-16.5 7.5t-17.5 -7t-7.5 -18zM372 793q15 -45 15 -78q0 -46 -24.5 -75t-70.5 -29q-38 0 -59 24q-23 -26 -66 -26q-49 0 -70.5 25t-21.5 64q0 27 9 59l68 2q-4 -21 -4 -43q0 -35 24 -35q15 0 21 15t6 58l65 4q-1 -20 -1 -41q0 -33 26 -33q24 0 24 36q0 20 -10 58z" />
    <glyph glyph-name="shaddaFathaar" 
d="M297 940v-75l-253 -45v74zM316 793q15 -45 15 -78q0 -46 -24.5 -75t-70.5 -29q-38 0 -59 24q-23 -26 -66 -26q-49 0 -70.5 25t-21.5 64q0 27 9 59l68 2q-4 -21 -4 -43q0 -35 24 -35q15 0 21 15t6 58l65 4q-1 -20 -1 -41q0 -33 26 -33q24 0 24 36q0 20 -10 58z" />
    <glyph glyph-name="shaddaFathatanar" 
d="M297 1063v-75l-253 -45v74zM297 940v-75l-253 -45v74zM316 793q15 -45 15 -78q0 -46 -24.5 -75t-70.5 -29q-38 0 -59 24q-23 -26 -66 -26q-49 0 -70.5 25t-21.5 64q0 27 9 59l68 2q-4 -21 -4 -43q0 -35 24 -35q15 0 21 15t6 58l65 4q-1 -20 -1 -41q0 -33 26 -33
q24 0 24 36q0 20 -10 58z" />
    <glyph glyph-name="shaddaKasraar" 
d="M324 935q15 -45 15 -78q0 -46 -24.5 -75t-71.5 -29q-39 0 -58 24q-23 -26 -66 -26q-49 0 -70.5 25t-21.5 64q0 32 9 59l68 2q-4 -21 -4 -43q0 -35 24 -35q15 0 20.5 15t6.5 58l64 4q-1 -20 -1 -41q0 -33 27 -33q24 0 24 36q0 20 -10 58zM44 596v74l253 46v-75z" />
    <glyph glyph-name="shaddaKasratanar" 
d="M318 1058q15 -45 15 -79q0 -46 -24.5 -75t-71.5 -29q-39 0 -58 24q-23 -26 -66 -26q-49 0 -70.5 25t-21.5 65q0 32 9 59l68 2q-4 -21 -4 -43q0 -35 24 -35q15 0 20.5 14.5t6.5 57.5l64 5q-1 -20 -1 -42q0 -32 27 -32q24 0 24 35q0 22 -10 58zM33 719v74l253 46v-75z
M33 596v74l253 46v-75z" />
    <glyph glyph-name="uni064406440647" horiz-adv-x="1044" 
d="M667 975v-128h-88v128h88zM562 642q-49 0 -70.5 25t-21.5 64q0 32 9 59l68 2q-4 -21 -4 -43q0 -35 24 -35q15 0 21 15t6 57l64 5q-1 -20 -1 -41q0 -33 27 -33q24 0 24 36q0 21 -10 57l69 16q15 -45 15 -79q0 -46 -24.5 -74.5t-71.5 -28.5q-39 0 -58 24q-23 -26 -66 -26z
M974 693l9 -6v-469q0 -119 -54.5 -167t-165.5 -51h-7h-4h-8q-75 4 -114 57q-25 -30 -64 -43t-106 -14h-5h-4h-6q-108 3 -151 66q-47 -16 -93 -16q-82 0 -130 35.5t-48 93.5q0 65 63 127t177 100v46l116 45l9 -3v-300q0 -39 18.5 -53.5t70.5 -15.5q48 0 75 13q7 28 7 74v342
l116 30l9 -6v-365q0 -54 18.5 -70.5t73.5 -17.5q48 0 75 13q7 28 7 74v450zM214 171q29 0 49 4v19v95q-53 -13 -91 -33.5t-47 -43.5q7 -19 33.5 -30t55.5 -11z" />
    </font>
</defs>
</svg>
